<svg width="320" height="869" viewBox="0 0 320 869" fill="none" xmlns="http://www.w3.org/2000/svg">
<mask id="mask0_896_3564" style="mask-type:alpha" maskUnits="userSpaceOnUse" x="0" y="0" width="320" height="869">
<rect width="320" height="869" fill="#D9D9D9"/>
</mask>
<g mask="url(#mask0_896_3564)">
<g opacity="0.3">
<path d="M-23.2889 645.258C-26.7867 644.164 -29.9867 642.625 -32.8507 640.653C-38.8564 636.516 -43.4385 630.444 -46.4695 622.607C-49.7283 614.185 -51.2244 603.629 -50.9186 591.233C-50.3029 566.318 -43.3631 538.419 -36.6519 511.438C-35.3345 506.14 -33.9721 500.662 -32.6896 495.334C-23.9554 459.019 -18.677 426.467 -16.5512 395.82C-12.311 334.683 -19.4303 279.151 -37.141 235.226C-57.624 184.429 -89.3504 152.397 -126.477 145.031C-148.299 140.703 -184.865 152.981 -212.531 184.824C-228.951 203.722 -239.643 227.047 -243.449 252.276L-243.615 252.336C-241.618 239.105 -237.773 226.417 -232.186 214.625C-227.06 203.808 -220.469 193.728 -212.595 184.665C-200.072 170.251 -184.716 158.807 -168.186 151.568C-152.912 144.88 -138.067 142.474 -126.383 144.792C-106.955 148.648 -89.0482 159.166 -73.1634 176.057C-58.7645 191.37 -46.5913 211.215 -36.9831 235.044C-19.2614 278.994 -12.137 334.557 -16.3805 395.73C-18.5089 426.398 -23.7903 458.967 -32.5285 495.302C-33.8096 500.63 -35.173 506.11 -36.4917 511.408C-43.199 538.369 -50.1334 566.248 -50.7472 591.127C-51.3421 615.19 -45.2782 631.775 -32.725 640.421C-15.3412 652.394 13.9576 647.877 45.649 628.332C91.3182 600.169 135.256 552.131 177.748 505.677C185.196 497.534 192.897 489.114 200.421 481.011C219.958 459.969 245.816 432.873 272.581 409.898C299.939 386.415 324.323 370.502 347.13 361.245C361.09 355.58 374.418 352.989 386.743 353.545C398.128 354.058 409.029 357.277 419.144 363.108C436.495 373.112 452.156 390.946 467.024 417.626C496.297 470.163 522.007 530.861 543.44 598.037C563.811 661.886 580.506 732.148 593.065 806.867L592.898 807.012C566.867 652.123 524.467 521.18 466.873 417.818C434.335 359.422 396.277 341.517 347.102 361.473C297.073 381.774 247.067 431.002 200.478 481.175C192.956 489.276 185.255 497.696 177.807 505.839C135.302 552.31 91.3501 600.362 45.6495 628.545C30.8812 637.653 16.0608 643.725 2.79211 646.103C-4.21732 647.36 -10.7408 647.575 -16.5995 646.743C-18.9375 646.419 -21.1686 645.921 -23.2889 645.258Z" fill="#FFE492"/>
<path d="M-14.2292 633.201C-23.1489 630.413 -30.1472 624.889 -35.0368 616.776C-40.4891 607.729 -43.2843 595.477 -43.3471 580.364C-43.3521 579.025 -43.3359 577.648 -43.298 576.267C-42.6289 551.478 -36.0347 523.862 -29.6559 497.154C-28.3679 491.756 -27.0341 486.173 -25.7814 480.743C-18.3238 448.41 -13.5823 419.341 -11.2896 391.877C-11.0079 388.496 -10.7597 385.096 -10.5552 381.774C-6.80398 321.021 -14.4009 266.015 -32.5242 222.7C-53.5635 172.487 -85.7498 141.225 -123.155 134.676C-145.032 130.875 -181.618 143.536 -209.219 175.088C-225.747 193.981 -236.709 217.276 -240.921 242.454L-241.086 242.509C-238.878 229.312 -234.861 216.652 -229.146 204.884C-223.897 194.076 -217.215 183.997 -209.283 174.929C-196.715 160.561 -181.379 149.092 -164.936 141.762C-149.738 134.987 -134.869 132.385 -123.067 134.437C-103.481 137.867 -85.3744 147.978 -69.2514 164.486C-54.6478 179.439 -42.239 198.965 -32.3699 222.519C-14.2358 265.859 -6.63604 320.898 -10.3882 381.685C-10.5937 385.01 -10.8415 388.412 -11.1242 391.796C-13.4185 419.278 -18.1621 448.363 -25.624 480.713C-26.8754 486.143 -28.2091 491.726 -29.4981 497.126C-35.8713 523.817 -42.4614 551.413 -43.1297 576.168C-43.1668 577.544 -43.183 578.921 -43.1784 580.257C-43.0523 611.497 -31.4475 627.818 -14.1872 633.214C-14.0925 633.244 -13.9991 633.273 -13.9044 633.302C-14.0116 633.266 -14.1209 633.235 -14.2292 633.201ZM-10.4769 634.188C6.18293 637.777 27.3299 632.274 48.3612 620.828C93.7881 595.997 138.647 549.735 182.029 504.997C183.816 503.153 185.601 501.313 187.386 499.473C191.306 495.435 195.949 490.656 200.658 485.846C221.782 464.28 246.849 439.339 272.593 417.885C299.986 395.056 324.297 379.361 346.914 369.9C360.808 364.096 374.136 361.115 386.529 361.039C398.011 360.968 409.072 363.391 419.402 368.239C437.245 376.616 453.552 392.326 469.253 416.268C484.571 439.585 496.326 460.7 506.245 482.72C520.287 513.937 531.633 548.395 540.881 577.983C562.314 646.93 579.705 723.048 592.57 804.225L592.405 804.367C579.541 723.201 562.152 647.09 540.722 578.151C531.475 548.566 520.131 514.115 506.091 482.906C496.174 460.892 484.423 439.783 469.107 416.472C434.904 364.316 396.068 349.588 346.886 370.13C295.826 391.486 244.659 441.148 200.708 486.021C195.997 490.83 191.356 495.608 187.436 499.648C185.651 501.486 183.865 503.328 182.078 505.172C138.682 549.924 93.8073 596.202 48.3477 621.052C37.0912 627.177 26.0987 631.402 15.6753 633.607C5.97457 635.654 -2.80353 635.848 -10.4769 634.188Z" fill="#FFE492"/>
<path d="M-4.94104 621.556C-6.01406 621.22 -7.0632 620.847 -8.08609 620.434C-16.7046 616.967 -23.4303 610.848 -28.0732 602.243C-33.1512 592.832 -35.7288 580.438 -35.7322 565.405C-35.7308 564.065 -35.7109 562.687 -35.6703 561.306C-34.9487 536.656 -28.6981 509.328 -22.653 482.905C-21.393 477.397 -20.0904 471.701 -18.8698 466.16C-11.7366 433.842 -7.26761 404.932 -5.20963 377.775C-4.95624 374.417 -4.73537 371.038 -4.55719 367.734C-1.29586 307.368 -9.37049 252.887 -27.9063 210.182C-49.5005 160.553 -82.1459 130.06 -119.831 124.327C-141.07 121.146 -177.055 132.62 -205.874 165.325C-222.524 184.22 -233.768 207.498 -238.391 232.641L-238.554 232.689C-236.133 219.516 -231.938 206.879 -226.091 195.129C-220.713 184.321 -213.933 174.242 -205.937 165.167C-193.325 150.855 -178.017 139.372 -161.664 131.955C-146.546 125.099 -131.658 122.307 -119.744 124.091C-100 127.097 -81.6931 136.797 -65.3334 152.922C-50.5246 167.52 -37.8805 186.723 -27.752 210.002C-9.20634 252.734 -1.12789 307.245 -4.39014 367.645C-4.56932 370.952 -4.78885 374.331 -5.04425 377.694C-7.10421 404.866 -11.5761 433.794 -18.7137 466.129C-19.9354 471.672 -21.238 477.368 -22.498 482.876C-28.5384 509.285 -34.785 536.592 -35.5063 561.214C-35.5469 562.594 -35.5685 563.97 -35.568 565.305C-35.5536 626.392 7.96234 633.437 51.08 613.323C96.4825 591.924 142.613 547.19 187.224 503.929L187.682 503.484C192.004 499.29 196.473 494.956 200.903 490.682C247.651 445.59 297.416 399.788 346.709 378.552C360.539 372.61 373.869 369.238 386.326 368.53C397.913 367.873 409.132 369.5 419.67 373.369C438.045 380.112 454.996 393.7 471.493 414.908C488.854 437.144 500.857 456.346 510.413 477.173C524.007 506.892 534.33 542.303 543.437 573.546C563.585 643.407 579.953 720.128 592.089 801.573L591.923 801.713C579.789 720.275 563.421 643.563 543.276 573.708C534.17 542.471 523.849 507.066 510.259 477.356C500.708 456.536 488.709 437.34 471.354 415.112C435.593 369.141 395.978 357.594 346.683 378.776C297.423 399.997 247.678 445.779 200.949 490.855C196.518 495.13 192.048 499.466 187.727 503.658L187.269 504.102C165.037 525.66 142.05 547.952 119.311 567.174C93.756 588.775 71.431 603.942 51.0593 613.542C29.8014 623.458 10.0853 626.253 -4.94104 621.556Z" fill="#FFE492"/>
<path d="M591.435 799.054C580.028 717.344 564.681 640.031 545.822 569.262C545.015 566.283 544.21 563.29 543.402 560.289C535.184 529.749 526.686 498.171 514.419 471.804C502.495 446.278 487.09 428.134 473.593 413.752C436.403 373.9 396.01 365.534 346.473 387.419C295.579 409.986 243.238 457.505 201.181 495.689C198.657 497.981 196.133 500.279 193.606 502.578C191.741 504.275 189.874 505.973 188.009 507.668C164.051 529.435 142.431 548.834 120.449 565.832C95.3376 585.248 73.5248 598.398 53.7604 606.035C35.2376 613.193 18.0953 614.685 4.56314 610.457C2.09777 609.686 -0.245453 608.728 -2.45813 607.576C-10.5367 603.373 -16.8186 596.697 -21.1284 587.731C-25.8316 577.948 -28.1877 565.403 -28.1338 550.443C-28.1272 549.103 -28.1022 547.723 -28.058 546.341C-27.2829 521.837 -21.3764 494.815 -15.664 468.683C-14.4335 463.054 -13.161 457.232 -11.9701 451.567C-5.16231 419.257 -0.966317 390.503 0.860748 363.662C1.08783 360.322 1.27903 356.966 1.43124 353.683C4.20129 293.703 -4.34967 239.749 -23.2957 197.652C-45.4448 148.607 -78.5499 118.887 -116.513 113.963C-142.501 110.68 -177.861 127.767 -202.501 155.513C-219.288 174.416 -230.824 197.687 -235.865 222.811L-236.028 222.854C-233.388 209.699 -229.014 197.076 -223.026 185.334C-217.514 174.524 -210.628 164.437 -202.562 155.353C-189.911 141.106 -174.633 129.613 -158.379 122.121C-143.346 115.19 -128.447 112.208 -116.426 113.727C-96.5242 116.307 -78.0185 125.598 -61.4219 141.34C-46.4094 155.581 -33.5283 174.465 -23.1394 197.467C-4.18118 239.589 4.37359 293.574 1.60162 353.59C1.44976 356.876 1.25756 360.235 1.03049 363.574C-0.797208 390.431 -4.99657 419.2 -11.8063 451.525C-12.9982 457.192 -14.2697 463.013 -15.5012 468.643C-21.2103 494.76 -27.1124 521.766 -27.8872 546.24C-27.9305 547.62 -27.9558 548.997 -27.9627 550.334C-28.1956 614.683 15.9343 620.432 53.7938 605.803C98.9643 588.349 146.251 545.387 187.974 507.481C189.84 505.784 191.705 504.086 193.571 502.391C196.097 500.092 198.622 497.795 201.146 495.503C225.153 473.708 248.685 452.591 272.637 433.841C300.181 412.278 324.343 397.02 346.5 387.194C360.273 381.108 373.603 377.345 386.118 376.013C397.816 374.765 409.193 375.599 419.935 378.49C438.88 383.588 456.477 395.054 473.73 413.54C487.231 427.928 502.643 446.08 514.573 471.621C526.847 497.997 535.345 529.584 543.565 560.13C544.372 563.131 545.178 566.124 545.986 569.103C564.846 639.878 580.194 717.199 591.602 798.917L591.435 799.054Z" fill="#FFE492"/>
<path d="M590.95 796.398C580.066 712.858 565.742 634.942 548.374 564.818C547.334 560.622 546.283 556.303 545.265 552.128C537.975 522.224 530.439 491.302 518.585 466.253C506.718 441.306 490.318 425.025 475.838 412.391C437.375 378.577 396.203 373.389 346.269 396.064C298.59 417.809 251.237 458.118 205.443 497.099L200.415 501.378C196.443 504.759 192.337 508.252 188.298 511.676C142.594 550.379 98.1228 586.142 56.4705 598.524C46.363 601.529 36.7641 602.8 27.9353 602.308C18.4555 601.777 10.1289 599.208 3.18652 594.672C-4.35348 589.745 -10.1928 582.52 -14.1688 573.199C-18.4959 563.055 -20.6337 550.363 -20.5221 535.48C-20.5098 534.133 -20.4798 532.752 -20.4325 531.374C-19.6072 507.032 -14.0432 480.328 -8.6618 454.502C-7.46109 448.739 -6.22005 442.779 -5.05933 436.977C1.41861 404.67 5.34435 376.074 6.94119 349.554C7.14029 346.241 7.30519 342.903 7.42975 339.637C9.70987 280.044 0.682581 226.616 -18.6763 185.126C-41.3837 136.67 -74.9479 107.718 -113.191 103.608C-139.184 100.919 -174.506 118.214 -199.086 145.67C-216.024 164.587 -227.867 187.867 -233.337 212.992L-233.499 213.029C-230.637 199.883 -226.077 187.265 -219.945 175.528C-214.292 164.709 -207.296 154.609 -199.15 145.512C-186.46 131.339 -171.22 119.85 -155.074 112.287C-140.131 105.285 -125.227 102.121 -113.109 103.373C-93.0488 105.529 -74.3436 114.41 -57.5088 129.768C-42.2912 143.654 -29.1748 162.216 -18.5251 184.942C0.845657 226.454 9.87713 279.916 7.5961 339.543C7.47054 342.811 7.30597 346.152 7.10687 349.465C5.51041 375.999 1.58269 404.61 -4.8996 436.934C-6.06032 442.736 -7.30233 448.698 -8.50305 454.461C-13.8811 480.272 -19.4429 506.964 -20.2665 531.277C-20.3132 532.65 -20.3422 534.029 -20.3558 535.375C-20.8312 598.752 19.0387 609.431 56.5103 598.292C98.1289 585.921 142.582 550.171 188.267 511.486C192.306 508.062 196.411 504.568 200.383 501.187L205.411 496.908C227.89 477.775 251.134 457.987 274.781 440.213C301.564 420.084 324.955 405.568 346.29 395.836C360.013 389.605 373.344 385.452 385.911 383.495C397.727 381.654 409.264 381.693 420.2 383.61C439.769 387.04 458.009 396.383 475.967 412.171C490.453 424.812 506.863 441.099 518.735 466.066C530.597 491.126 538.136 522.056 545.427 551.969C546.445 556.144 547.497 560.46 548.536 564.658C565.907 634.789 580.232 712.711 591.116 796.258L590.95 796.398Z" fill="#FFE492"/>
<path d="M590.464 793.741C580.271 709.527 566.967 631.01 550.922 560.374C549.715 555.066 548.507 549.56 547.337 544.237C540.893 514.895 534.229 484.554 522.745 460.705C510.834 436.108 493.483 421.792 478.08 411.033C438.539 383.145 396.588 381.138 346.059 404.711C301.908 425.411 257.867 460.541 215.276 494.512C210.794 498.087 206.159 501.782 201.654 505.358C196.364 509.558 192.332 512.745 188.582 515.688C168.505 531.438 144.928 549.431 122.277 563.446C98.2742 578.296 77.6335 587.315 59.1739 591.019C49.4671 592.966 40.33 593.252 32.016 591.865C23.0886 590.377 15.2851 586.98 8.82507 581.768C1.82572 576.122 -3.56978 568.35 -7.21487 558.67C-11.1676 548.172 -13.0845 535.334 -12.9152 520.517C-12.8972 519.175 -12.8634 517.792 -12.8127 516.41C-11.9376 492.248 -6.71428 465.876 -1.66449 440.372C-0.493288 434.456 0.717894 428.341 1.84775 422.386C7.99581 390.071 11.6489 361.635 13.0166 335.445C13.1884 332.151 13.3249 328.837 13.4232 325.59C15.2134 266.383 5.70838 213.481 -14.0621 172.599C-37.324 124.729 -71.3493 96.5507 -109.87 93.2494C-131.829 91.4674 -166.865 103.929 -195.634 135.783C-212.739 154.722 -224.904 178.024 -230.81 203.167L-230.969 203.197C-227.881 190.049 -223.128 177.43 -216.842 165.689C-211.04 154.852 -203.926 144.736 -195.694 135.621C-182.969 121.533 -167.773 110.057 -151.743 102.431C-136.892 95.3661 -121.993 92.0222 -109.786 93.0123C-89.5686 94.7442 -70.6625 103.214 -53.5923 118.19C-38.171 131.719 -24.819 149.961 -13.9099 172.412C5.8725 213.317 15.3826 266.25 13.5915 325.491C13.4933 328.738 13.3561 332.058 13.1833 335.353C11.8146 361.556 8.15951 390.008 2.00946 422.338C0.879953 428.296 -0.331209 434.411 -1.50241 440.327C-6.55123 465.818 -11.7698 492.176 -12.6444 516.311C-12.6941 517.691 -12.7281 519.071 -12.7451 520.41C-13.3555 573.635 13.551 599.942 59.2296 590.778C100.596 582.48 145.804 549.032 188.563 515.485C192.313 512.542 196.344 509.355 201.634 505.155C206.139 501.579 210.774 497.884 215.255 494.309C236.223 477.585 257.904 460.292 279.842 444.61C304.65 426.875 326.319 413.748 346.084 404.482C359.766 398.1 373.096 393.556 385.707 390.98C397.652 388.538 409.346 387.784 420.467 388.733C440.714 390.463 459.601 397.683 478.204 410.804C493.616 421.571 510.98 435.894 522.9 460.511C534.391 484.376 541.057 514.725 547.503 544.076C548.672 549.399 549.881 554.905 551.088 560.213C567.133 630.857 580.439 709.38 590.633 793.6L590.464 793.741Z" fill="#FFE492"/>
<path d="M589.975 791.084C580.477 706.192 568.195 627.072 553.468 555.928C552.215 549.877 550.977 543.549 549.778 537.429C544.069 508.28 538.168 478.14 526.905 455.153C514.887 430.773 496.613 418.481 480.322 409.672C440.5 387.874 396.513 389.079 345.85 413.355C305.455 432.813 264.986 463.086 225.85 492.363C217.945 498.276 209.771 504.393 201.887 510.193C197.063 513.743 192.804 516.854 188.864 519.7C170.551 532.918 146.534 549.7 123.184 562.25C99.7221 574.858 79.667 581.813 61.8744 583.511C42.4681 585.364 26.0719 580.297 14.4582 568.861C8.00154 562.502 3.04749 554.185 -0.266113 544.14C-3.84366 533.295 -5.54066 520.313 -5.31409 505.559C-5.29101 504.216 -5.25215 502.832 -5.19876 501.451C-4.27504 477.49 0.606257 451.471 5.32721 426.311C6.46918 420.224 7.65045 413.931 8.74802 407.802C14.5628 375.473 17.9454 347.191 19.0866 321.342C19.2311 318.07 19.3403 314.776 19.4112 311.55C20.7115 252.729 10.7312 200.351 -9.45282 160.082C-33.2703 112.801 -67.7557 85.3933 -106.554 82.9008C-132.902 81.3367 -167.3 98.6023 -192.145 125.861C-209.434 144.83 -221.932 168.168 -228.287 193.352L-228.444 193.375C-225.124 180.215 -220.172 167.583 -213.728 155.833C-207.772 144.973 -200.529 134.833 -192.203 125.697C-179.449 111.703 -164.302 100.249 -148.399 92.5723C-133.648 85.4523 -118.757 81.9305 -106.473 82.6606C-86.0976 83.9686 -66.9916 92.0307 -49.6836 106.62C-34.0571 119.794 -20.4695 137.716 -9.29996 159.89C10.8949 200.184 20.8814 252.591 19.5806 311.448C19.5097 314.675 19.3994 317.971 19.2552 321.246C18.1121 347.11 14.7285 375.406 8.91177 407.749C7.8142 413.879 6.63196 420.174 5.48999 426.26C0.771366 451.408 -4.10765 477.415 -5.03043 501.352C-5.08381 502.733 -5.12197 504.112 -5.14505 505.455C-5.96147 558.27 19.1168 587.36 61.9396 583.274C100.98 579.547 146.008 550.417 188.85 519.496C192.788 516.65 197.048 513.542 201.871 509.991C209.753 504.19 217.927 498.077 225.831 492.163C264.976 462.881 305.453 432.6 345.867 413.134C359.521 406.591 372.852 401.659 385.493 398.471C397.582 395.423 409.435 393.873 420.724 393.864C441.717 393.847 461.248 398.945 480.433 409.446C496.735 418.261 515.025 430.561 527.055 454.969C538.326 477.972 544.23 508.123 549.941 537.284C551.139 543.403 552.378 549.729 553.632 555.78C568.359 626.929 580.643 706.055 590.142 790.953L589.975 791.084Z" fill="#FFE492"/>
<path d="M589.49 788.428C580.695 702.852 569.433 623.133 556.019 551.486C554.787 544.901 553.588 537.963 552.432 531.254C547.398 502.084 542.194 471.921 531.069 449.604C518.899 425.352 499.721 415.122 482.565 408.312C442.226 392.044 397.438 396.521 345.643 422.001C309.267 439.993 272.677 465.718 237.292 490.594C225.125 499.149 213.632 507.229 202.123 515.027C197.441 518.202 193.198 521.044 189.151 523.71C163.048 540.897 142.377 552.762 124.098 561.046C101.165 571.441 81.6974 576.334 64.5818 576.002C57.9425 575.872 51.6943 574.89 45.9206 573.085C35.6856 569.885 26.9342 564.108 20.0988 555.948C7.72867 541.179 1.73901 519.191 2.2959 490.595C2.32537 489.24 2.36827 487.858 2.42505 486.483C3.39505 462.747 7.9355 437.11 12.3277 412.315C13.44 406.033 14.5909 399.539 15.6581 393.209C21.1383 360.856 24.2468 332.732 25.1664 307.232C25.2835 303.98 25.3655 300.707 25.4091 297.501C26.2194 239.067 15.7614 187.215 -4.83414 147.553C-29.2082 100.864 -64.1513 74.2251 -103.229 72.5414C-129.924 71.5252 -163.434 88.5365 -188.597 115.882C-206.089 134.889 -218.936 158.28 -225.754 183.526L-225.91 183.544C-222.35 170.361 -217.193 157.708 -210.581 145.939C-204.46 135.045 -197.084 124.878 -188.654 115.718C-175.875 101.831 -160.787 90.4112 -145.02 82.6921C-130.373 75.5211 -115.504 71.8329 -103.149 72.303C-82.6164 73.1871 -63.3096 80.8389 -45.7661 95.045C-29.9356 107.865 -16.1136 125.467 -4.68127 147.362C15.9252 187.048 26.3893 238.929 25.5794 297.397C25.5348 300.605 25.4529 303.879 25.3361 307.133C24.4169 332.647 21.3064 360.786 15.8239 393.151C14.7567 399.482 13.6061 405.978 12.4924 412.26C8.10259 437.043 3.56347 462.669 2.59476 486.384C2.53898 487.757 2.49474 489.139 2.46628 490.491C1.42449 543.895 24.0928 574.975 64.6595 575.761C103.276 576.508 149.258 549.761 189.148 523.497C193.193 520.83 197.435 517.99 202.118 514.815C213.625 507.017 225.117 498.939 237.284 490.384C272.675 465.502 309.272 439.774 345.662 421.776C359.307 415.063 372.639 409.74 385.29 405.954C397.542 402.288 409.555 399.942 420.992 398.985C442.805 397.162 462.981 400.136 482.672 408.077C499.843 414.891 519.038 425.132 531.221 449.412C542.356 471.746 547.562 501.923 552.597 531.104C553.756 537.814 554.952 544.751 556.184 551.333C569.599 622.986 580.861 702.712 589.657 788.294L589.49 788.428Z" fill="#FFE492"/>
<path d="M589.008 785.774C580.806 698.293 570.85 620.203 558.572 547.042C557.4 540.062 556.339 532.976 555.215 525.473C550.821 496.145 546.277 465.821 535.234 444.056C522.813 419.733 501.763 411.451 484.812 406.955C444.354 395.977 398.764 403.728 345.438 430.651C313.395 446.917 281.046 468.367 249.761 489.112C233.319 500.015 217.791 510.31 202.36 519.865C197.779 522.705 193.551 525.275 189.438 527.724C163.956 542.875 143.485 553.079 125.013 559.841C102.592 568.048 83.7112 570.879 67.2905 568.494C58.8536 567.268 51.1063 564.581 44.2633 560.506C37.0185 556.192 30.7869 550.312 25.7416 543.033C14.5591 526.897 9.23126 504.223 9.90646 475.637C9.941 474.281 9.98897 472.898 10.0485 471.523C11.0615 448.048 15.2631 422.821 19.3256 398.425C20.4095 391.916 21.5307 385.185 22.5678 378.624C27.7086 346.24 30.5469 318.274 31.2444 293.129C31.3329 289.898 31.3875 286.645 31.4065 283.461C31.7269 225.414 20.7926 174.087 -0.214508 135.033C-19.651 99.0967 -45.4578 75.449 -74.5348 66.3593C-82.755 63.7897 -91.2299 62.3844 -99.903 62.1905C-126.51 61.7308 -159.913 78.8741 -185.002 105.865C-202.712 124.918 -215.929 148.38 -223.223 173.711L-223.378 173.721C-219.572 160.503 -214.201 147.82 -207.414 136.025C-201.122 125.091 -193.6 114.887 -185.06 105.699C-172.26 91.9289 -157.24 80.555 -141.618 72.8037C-126.871 65.4858 -112.42 61.7334 -99.8287 61.9533C-79.1384 62.4134 -59.6316 69.6571 -41.8504 83.4777C-25.815 95.939 -11.7551 113.219 -0.063324 134.839C20.9557 173.915 31.8975 225.27 31.5775 283.352C31.5599 286.537 31.5056 289.792 31.4161 293.026C30.7176 318.184 27.8783 346.163 22.7356 378.563C21.6985 385.123 20.5787 391.855 19.4937 398.366C15.4326 422.752 11.2322 447.969 10.2195 471.425C10.161 472.797 10.113 474.181 10.0782 475.533C8.81649 528.988 29.7023 562.781 67.3814 568.254C105.509 573.79 152.643 549.384 189.447 527.504C193.56 525.055 197.786 522.484 202.367 519.647C217.794 510.096 233.322 499.798 249.762 488.897C281.05 468.15 313.405 446.694 345.459 430.424C372.914 416.563 397.708 407.957 421.263 404.113C443.979 400.406 464.8 401.258 484.914 406.716C496.417 409.767 505.274 413.482 512.791 418.405C522.497 424.762 529.889 433.089 535.391 443.863C546.444 465.647 550.989 495.987 555.385 525.33C556.508 532.832 557.572 539.916 558.741 546.896C571.019 620.06 580.976 698.155 589.179 785.641L589.008 785.774Z" fill="#FFE492"/>
<path d="M588.518 783.115C581.038 694.93 572.074 616.257 561.118 542.594C560.035 535.307 559.083 527.85 558.074 519.956C554.296 490.379 550.391 459.792 539.394 438.502C526.771 414.211 504.791 408.154 487.054 405.589C447.005 399.58 400.613 410.605 345.229 439.291C317.899 453.521 290.22 470.93 263.451 487.768C242.29 501.076 222.303 513.649 202.596 524.691C198.141 527.19 193.809 529.557 189.723 531.725C165.106 544.775 144.239 553.571 125.928 558.619C104.002 564.662 85.7061 565.435 69.9958 560.975C62.003 558.705 54.7177 555.024 48.3489 550.032C41.6729 544.798 35.9648 538.093 31.3841 530.1C21.3861 512.654 16.7185 489.294 17.5132 460.665C17.5535 459.314 17.6052 457.929 17.6691 456.548C18.7226 433.375 22.5845 408.603 26.3184 384.647C27.3752 377.869 28.4678 370.858 29.4748 364.024C34.2747 331.597 36.8404 303.79 37.321 279.011C37.3822 275.8 37.4095 272.568 37.4012 269.405C37.2317 211.744 25.8197 160.944 4.40106 122.497C-21.0858 76.9948 -56.9504 51.8963 -96.5826 51.8255C-123.074 51.9043 -156.351 69.1587 -181.357 95.78C-199.305 114.889 -212.908 138.437 -220.698 163.882L-220.85 163.885C-216.79 150.621 -211.196 137.896 -204.222 126.064C-197.748 115.08 -190.074 104.834 -181.412 95.6113C-168.602 81.9728 -153.656 70.6552 -138.19 62.8816C-123.562 55.5293 -109.149 51.624 -96.5072 51.5859C-75.659 51.625 -55.9516 58.4555 -37.935 71.8924C-21.6965 84.0026 -7.40231 100.962 4.55087 122.302C25.9838 160.769 37.401 211.6 37.5695 269.295C37.5792 272.459 37.5522 275.694 37.49 278.907C37.0098 303.7 34.4418 331.519 29.6409 363.959C28.6353 370.793 27.5413 377.804 26.4849 384.584C22.7523 408.531 18.8916 433.293 17.8388 456.45C17.7759 457.828 17.7243 459.213 17.6836 460.561C16.1694 515.136 34.7813 550.717 70.0958 560.735C98.7489 568.869 136.766 559.577 189.738 531.498C193.822 529.33 198.152 526.964 202.607 524.465C222.309 513.425 242.293 500.857 263.452 487.547C290.225 470.708 317.909 453.295 345.246 439.062C373.17 424.598 398.12 414.842 421.524 409.23C445.233 403.547 466.698 402.275 487.146 405.344C504.902 407.909 526.906 413.977 539.549 438.306C550.557 459.621 554.465 490.222 558.245 519.813C559.252 527.707 560.205 535.161 561.288 542.446C572.245 616.111 581.209 694.789 588.689 782.98L588.518 783.115Z" fill="#FFE492"/>
<path d="M588.033 780.46C581.279 691.568 573.311 612.308 563.669 538.153C562.691 530.624 561.865 522.862 560.993 514.643C557.818 484.747 554.535 453.834 543.559 432.954C530.715 408.669 507.815 404.846 489.3 404.229C449.836 402.724 403.991 416.614 345.023 447.938C322.875 459.76 300.38 473.293 278.627 486.38C252.207 502.274 227.251 517.288 202.832 529.526C198.432 531.733 194.117 533.824 190.009 535.736C165.827 546.981 145.166 554.069 126.846 557.401C116.584 559.268 106.959 559.936 98.2376 559.386C88.9354 558.799 80.3442 556.807 72.7024 553.467C57.1985 546.688 45.1965 534.477 37.0303 517.176C28.2111 498.49 24.2043 474.446 25.1241 445.704C25.1711 444.345 25.2278 442.959 25.2914 441.586C26.3817 418.77 29.9032 394.508 33.309 371.047C34.3395 363.945 35.4061 356.601 36.3834 349.437C40.8374 316.957 43.1315 289.308 43.3979 264.905C43.4328 261.713 43.4315 258.501 43.3962 255.362C42.7377 198.085 30.8494 147.811 9.01718 109.977C-17.026 65.0686 -53.3492 40.7412 -93.2605 41.4737C-136.078 42.4513 -196.008 85.7747 -218.169 154.064L-218.319 154.059C-212.776 136.977 -204.826 120.926 -194.689 106.348C-185.432 93.0339 -174.538 81.1862 -162.311 71.1375C-150.942 61.7933 -138.946 54.4078 -126.657 49.1845C-114.97 44.2172 -103.395 41.4662 -93.1879 41.2332C-72.1821 40.8483 -52.2749 47.2709 -34.0214 60.3246C-17.5788 72.0812 -3.04898 88.7212 9.16464 109.784C31.0077 147.642 42.9036 197.945 43.5635 255.254C43.5991 258.397 43.6005 261.609 43.5659 264.804C43.2996 289.217 41.0035 316.882 36.5485 349.374C35.5712 356.539 34.5046 363.882 33.4731 370.987C30.0689 394.44 26.5488 418.692 25.4594 441.495C25.3945 442.867 25.3364 444.253 25.2904 445.61C23.5247 500.845 40.4021 539.066 72.8102 553.237C100.248 565.23 138.59 559.435 190.03 535.513C194.136 533.602 198.448 531.513 202.849 529.305C227.261 517.071 252.213 502.058 278.63 486.165C300.386 473.077 322.883 459.542 345.034 447.718C404.027 416.38 449.892 402.487 489.378 403.99C501.819 404.405 511.451 406.304 519.69 409.973C530.223 414.661 538.079 422.114 543.71 432.761C554.698 453.664 557.983 484.597 561.16 514.51C562.033 522.725 562.857 530.487 563.835 538.013C573.477 612.174 581.446 691.437 588.199 780.334L588.033 780.46Z" fill="#FFE492"/>
<path d="M587.551 777.805C581.531 688.197 574.553 608.353 566.222 533.709C565.36 525.985 564.675 517.964 563.951 509.468C561.369 479.204 558.699 447.908 547.726 427.403C534.499 402.829 509.33 401.63 491.548 402.866C443.373 406.021 390.342 431.79 344.819 456.585C328.436 465.548 311.765 475.254 295.642 484.641C263.298 503.471 232.749 521.256 203.072 534.362C198.707 536.291 194.411 538.103 190.299 539.75C166.484 549.262 146.029 554.639 127.77 556.183C107.071 557.934 89.4559 554.496 75.4132 545.959C60.9877 537.188 49.9746 523.155 42.6827 504.248C35.0336 484.418 31.6875 459.689 32.7355 430.747C32.7879 429.389 32.8484 428.001 32.9166 426.624C34.0366 404.243 37.2185 380.572 40.2948 357.678C41.3038 350.175 42.3449 342.419 43.295 334.85C47.4582 301.854 49.4218 275.149 49.4792 250.801C49.4867 247.629 49.4584 244.441 49.3955 241.319C48.2434 184.43 35.8774 134.682 13.6346 97.4537C-12.9657 53.1422 -49.7481 29.583 -89.9372 31.1192C-133.274 32.9502 -192.14 75.7634 -215.639 144.245L-215.786 144.234C-209.956 127.244 -201.819 111.27 -191.604 96.7559C-182.244 83.4586 -171.314 71.6061 -159.117 61.5319C-147.743 52.1362 -135.757 44.6653 -123.487 39.3218C-111.804 34.2334 -100.178 31.3153 -89.8646 30.8787C-68.6998 30.0704 -48.594 36.0845 -30.1041 48.7522C-13.4574 60.1552 1.30805 76.4755 13.7831 97.2582C36.0401 134.507 48.4123 184.284 49.5621 241.206C49.624 244.331 49.6527 247.522 49.6465 250.694C49.5905 275.053 47.6235 301.773 43.4593 334.782C42.5093 342.351 41.4672 350.109 40.4582 357.612C37.3835 380.498 34.2034 404.162 33.082 426.532C33.0137 427.909 32.9529 429.294 32.9005 430.652C30.864 486.914 46.0029 527.783 75.5291 545.732C102.01 561.831 139.561 559.797 190.328 539.52C194.438 537.875 198.734 536.065 203.096 534.135C232.765 521.033 263.309 503.251 295.648 484.422C311.771 475.036 328.445 465.327 344.83 456.363C375.441 439.692 399.98 427.976 422.053 419.493C448.037 409.507 470.791 403.991 491.616 402.627C504.333 401.743 514.647 402.766 523.146 405.758C534.089 409.609 542.179 416.625 547.876 427.211C558.864 447.741 561.535 479.056 564.119 509.339C564.843 517.833 565.527 525.854 566.39 533.572C574.723 608.22 581.699 688.068 587.719 777.68L587.551 777.805Z" fill="#FFE492"/>
<path d="M587.061 775.146C581.78 684.82 575.797 604.391 568.769 529.261C568.031 521.383 567.495 513.136 566.928 504.405C564.933 473.731 562.871 442.014 551.885 421.851C538.411 397.247 512.277 398.453 493.79 401.502C448.205 408.867 399.258 434.721 344.609 465.229C334.741 470.76 324.692 476.511 314.972 482.074C277.593 503.469 238.943 525.591 203.304 539.194C198.974 540.849 194.692 542.384 190.579 543.757C167.399 551.482 146.576 555.25 128.687 554.956C108.422 554.623 91.4088 549.068 78.113 538.446C64.758 527.777 54.7362 511.919 48.3251 491.312C41.8376 470.458 39.1485 445.047 40.3334 415.785C40.3909 414.426 40.4565 413.038 40.5275 411.662C41.672 389.82 44.5105 366.844 47.2552 344.625C48.2442 336.619 49.2668 328.342 50.191 320.265C53.9961 287.192 55.6966 260.638 55.5436 236.697C55.5236 233.554 55.4676 230.384 55.378 227.278C53.7431 170.77 40.902 121.548 18.244 84.9289C-8.91222 41.2145 -46.1533 18.4264 -86.6219 20.7631C-128.934 23.353 -187.646 64.0666 -213.118 134.423L-213.262 134.404C-207.143 117.504 -198.821 101.609 -188.528 87.1598C-179.064 73.8761 -168.098 62.0216 -155.933 51.9215C-133.491 33.29 -108.202 21.8456 -86.552 20.5218C-65.2306 19.2919 -44.924 24.8956 -26.1962 37.1778C-9.34647 48.2296 5.65431 64.2274 18.3908 84.7302C41.0617 121.37 53.9092 170.622 55.549 227.158C55.6389 230.267 55.6949 233.438 55.7153 236.584C55.8673 260.537 54.1669 287.102 50.3595 320.188C49.4343 328.267 48.413 336.544 47.424 344.55C44.6799 366.764 41.8421 389.735 40.6975 411.566C40.6252 412.942 40.5606 414.328 40.5031 415.687C38.1321 474.231 51.1811 516.603 78.2385 538.222C103.293 558.24 141.101 560.024 190.615 543.524C194.726 542.15 199.005 540.617 203.333 538.963C238.959 525.365 277.604 503.247 314.976 481.855C324.696 476.291 334.744 470.54 344.614 465.01C368.536 451.655 396.241 436.42 422.31 424.619C449.579 412.276 472.977 404.638 493.844 401.267C506.999 399.098 517.712 399.188 526.591 401.543C537.789 404.512 546.346 411.281 552.03 421.66C556.952 430.692 560.525 442.993 562.955 459.266C565.101 473.635 566.113 489.216 567.093 504.281C567.66 513.01 568.196 521.256 568.933 529.132C575.961 604.264 581.946 684.696 587.227 775.025L587.061 775.146Z" fill="#FFE492"/>
<path d="M586.579 772.491C582.042 681.44 577.052 600.426 571.321 524.819C570.714 516.814 570.332 508.371 569.928 499.435C568.519 468.321 567.063 436.147 556.051 416.305C545.743 397.806 526.112 392.519 496.037 400.144C454.037 410.687 409.511 436.363 362.367 463.549C356.496 466.935 350.428 470.434 344.404 473.881C342.043 475.235 339.679 476.594 337.317 477.95C292.456 503.718 246.068 530.365 203.544 544.032C199.244 545.415 194.98 546.674 190.869 547.771C167.948 553.878 147.34 555.884 129.619 553.731C109.777 551.319 93.3597 543.651 80.827 530.939C68.5278 518.463 59.4973 500.78 53.9867 478.381C48.6454 456.671 46.6138 430.58 47.9493 400.828C48.0119 399.468 48.0825 398.079 48.1572 396.701C49.314 375.56 51.8082 353.438 54.2181 332.045C55.195 323.381 56.2038 314.422 57.1081 305.677C60.5496 272.514 61.9883 246.112 61.6304 222.591C61.5826 219.466 61.4997 216.319 61.3828 213.234C59.2529 157.113 45.9352 108.415 22.8647 72.4061C-4.84714 29.2916 -42.5486 7.27134 -83.2954 10.409C-125.173 13.7487 -184.016 54.905 -210.585 124.605L-210.728 124.581C-204.319 107.769 -195.813 91.953 -185.444 77.5727C-175.876 64.303 -164.873 52.4414 -152.74 42.3205C-130.331 23.6253 -104.997 11.9083 -83.2288 10.1719C-61.7485 8.51849 -41.2423 13.7114 -22.2791 25.61C-5.22428 36.3059 10.0135 51.9843 23.0114 72.2074C46.0938 108.239 59.4214 156.964 61.5497 213.113C61.6666 216.199 61.7503 219.351 61.798 222.476C62.1549 246.01 60.7186 272.421 57.2748 305.596C56.3718 314.342 55.3607 323.303 54.3852 331.967C51.9746 353.355 49.4824 375.471 48.3259 396.605C48.2512 397.982 48.1802 399.369 48.1177 400.729C45.4029 461.224 56.7601 506.172 80.9619 530.718C104.852 554.95 141.847 560.605 190.917 547.531C195.025 546.433 199.287 545.176 203.584 543.795C246.094 530.134 292.473 503.492 337.326 477.727C339.69 476.368 342.051 475.012 344.412 473.658C350.436 470.211 356.505 466.712 362.374 463.328C409.528 436.137 454.067 410.454 496.085 399.907C509.673 396.461 520.783 395.62 530.051 397.329C541.651 399.469 550.449 405.789 556.201 416.11C561.133 424.997 564.59 437.311 566.77 453.759C568.692 468.271 569.407 484.054 570.098 499.316C570.503 508.249 570.884 516.689 571.491 524.691C577.222 600.301 582.213 681.318 586.749 772.371L586.579 772.491Z" fill="#FFE492"/>
<path d="M586.089 769.833C582.598 685.217 578.486 601.286 573.867 520.372C573.378 512.175 573.149 503.461 572.905 494.238C572.114 464.233 571.217 430.227 560.208 410.754C549.702 392.219 529.444 388.302 498.276 398.778C461.246 411.164 423.163 434.492 382.844 459.189C370.218 466.923 357.16 474.923 344.191 482.522C321.536 495.827 297.213 509.795 272.838 521.823C246.734 534.706 224.143 543.548 203.772 548.861C199.492 549.976 195.245 550.959 191.148 551.775C168.482 556.288 148.1 556.517 130.568 552.456C111.162 547.958 95.334 538.193 83.5266 523.422C61.8184 495.923 52.4046 449.641 55.5484 385.863C55.6161 384.502 55.6917 383.111 55.7691 381.734C56.9209 361.54 59.0622 340.526 61.1339 320.202C62.1084 310.637 63.1176 300.744 64.0053 291.088C67.0812 257.818 68.2543 231.57 67.6973 208.484C67.6219 205.377 67.5116 202.251 67.3678 199.189C64.754 143.451 50.9576 95.2817 27.4755 59.88C-0.792198 17.3626 -38.9534 -3.88418 -79.9787 0.0515792C-122.453 4.20951 -180.089 44.954 -208.063 114.783L-208.202 114.75C-201.502 98.0239 -192.809 82.2874 -182.366 67.9753C-172.691 54.7177 -161.652 42.8514 -149.555 32.7088C-138.158 23.1529 -126.195 15.4221 -113.998 9.72898C-102.157 4.20369 -90.6891 0.866303 -79.9138 -0.188663C-58.2756 -2.26322 -37.5685 2.51929 -18.3688 14.0319C-1.11188 24.379 14.3612 39.7349 27.6206 59.6781C51.1169 95.1002 64.9208 143.299 67.5381 199.064C67.6809 202.128 67.7929 205.258 67.8683 208.365C68.4243 231.464 67.2512 257.723 64.1754 291.003C63.2866 300.662 62.2775 310.554 61.3019 320.122C59.2313 340.443 57.0896 361.455 55.9381 381.641C55.8584 383.02 55.7851 384.408 55.7161 385.769C52.5752 449.498 61.9791 495.742 83.6669 523.214C106.105 551.282 143.29 561.077 191.202 551.537C195.297 550.72 199.543 549.74 203.819 548.626C249.364 536.751 298.14 509.351 344.196 482.303C357.165 474.704 370.221 466.706 382.846 458.972C423.175 434.27 461.266 410.936 498.313 398.545C529.53 388.052 549.826 391.981 560.357 410.558C565.287 419.279 568.62 431.577 570.548 448.148C572.247 462.76 572.666 478.705 573.074 494.123C573.318 503.346 573.547 512.058 574.036 520.249C578.656 601.166 582.767 685.098 586.257 769.715L586.089 769.833Z" fill="#FFE492"/>
<path d="M585.607 767.178C582.829 682.323 579.738 597.791 576.421 515.928C576.077 507.689 576.01 498.874 575.939 489.543C575.707 459.019 575.445 424.422 564.377 405.201C553.666 386.629 532.779 384.081 500.526 397.411C466.747 411.344 431.135 434.797 396.696 457.48C379.427 468.853 361.57 480.613 343.989 491.165C316.231 507.843 293.63 520.119 272.861 529.802C247.251 541.742 224.73 549.556 204.014 553.692C199.761 554.542 195.529 555.245 191.439 555.782C170.126 558.575 150.901 557.35 134.243 552.146C133.318 551.856 132.404 551.555 131.495 551.241C112.471 544.677 97.2456 532.788 86.2403 515.908C80.9419 507.728 76.4702 498.049 72.9509 487.14C69.6424 476.887 67.073 465.224 65.3132 452.478C62.1465 429.547 61.442 402.86 63.1603 370.9C63.2354 369.525 63.3128 368.148 63.3949 366.768C64.5125 347.943 66.2909 328.455 68.0117 309.609C69.0041 298.73 70.0318 287.48 70.9184 276.494C73.6569 242.648 74.5408 217.32 73.7787 194.372C73.676 191.285 73.5384 188.18 73.3672 185.139C70.2629 129.793 55.9901 82.1494 32.0965 47.3554C3.2733 5.43792 -35.3479 -15.0383 -76.6517 -10.3043C-118.664 -5.44639 -176.423 35.7062 -205.529 104.961L-205.665 104.921C-192.108 72.6631 -171.599 44.3701 -146.358 23.1018C-134.949 13.4885 -122.995 5.67243 -110.824 -0.135135C-98.9813 -5.78495 -87.463 -9.28719 -76.5869 -10.5446C-54.791 -13.0431 -33.884 -8.66857 -14.4479 2.45807C3.01211 12.4539 18.7208 27.4901 32.2412 47.1507C56.1495 81.9679 70.4297 129.64 73.5369 185.019C73.707 188.063 73.8463 191.171 73.949 194.258C74.7101 217.219 73.8274 242.555 71.0865 276.413C70.1989 287.402 69.1725 298.652 68.1788 309.531C66.459 328.375 64.6802 347.86 63.5633 366.679C63.4811 368.06 63.4024 369.436 63.3284 370.809C59.6763 438.724 67.2184 486.122 86.3857 515.709C113 556.534 158.237 559.907 191.5 555.546C195.588 555.008 199.816 554.307 204.068 553.456C251.714 543.943 303.874 515.054 343.992 490.951C361.569 480.403 379.425 468.642 396.692 457.271C431.139 434.585 466.758 411.125 500.554 397.185C514.986 391.22 526.893 388.51 536.954 388.901C549.361 389.382 558.637 394.802 564.523 405.01C569.48 413.617 572.705 425.971 574.385 442.776C575.864 457.583 575.988 473.776 576.107 489.438C576.178 498.767 576.244 507.579 576.589 515.813C579.906 597.676 582.996 682.208 585.776 767.063L585.607 767.178Z" fill="#FFE492"/>
<path d="M585.12 764.522L578.969 511.486C578.768 503.222 578.863 494.328 578.964 484.915C579.296 453.847 579.672 418.636 568.537 399.655C557.769 381.301 535.642 380.088 502.768 396.052C471.165 411.397 438.349 434.684 406.613 457.205C385.926 471.885 364.536 487.062 343.779 499.817C281.39 538.153 233.074 557.211 191.723 559.796C174.57 560.866 158.826 559.182 144.747 554.781C140.479 553.447 136.368 551.864 132.413 550.033C113.765 541.396 99.1401 527.387 88.9466 508.399C79.4999 490.799 73.6145 468.283 70.96 439.562C68.8397 416.628 68.7776 390.058 70.7661 355.943C71.8148 337.94 73.3212 319.364 74.778 301.4C78.073 260.748 81.4809 218.711 79.8556 180.269C77.3611 121.307 62.4411 71.0163 36.7093 34.8315C7.33088 -6.48325 -31.7494 -26.1911 -73.3317 -20.6591C-113.59 -15.3034 -171.34 23.2176 -203.004 95.1417L-203.137 95.0947C-188.984 62.9462 -168.247 34.7299 -143.169 13.4955C-120.495 -5.70409 -95.6706 -17.9183 -73.2692 -20.8974C-51.3154 -23.817 -30.2075 -19.8529 -10.5363 -9.11266C7.12781 0.529659 23.0711 15.2484 36.853 34.6292C49.5856 52.5337 59.7443 74.0384 67.048 98.5476C74.4124 123.262 78.7794 150.716 80.0249 180.147C81.652 218.603 78.2441 260.65 74.9477 301.312C73.4919 319.274 71.9866 337.847 70.9375 355.848C68.035 405.624 67.478 467.922 89.1001 508.203C113.897 554.396 158.632 561.623 191.794 559.552C233.123 556.971 281.418 537.92 343.783 499.598C364.531 486.848 385.92 471.67 406.603 456.994C438.346 434.47 471.17 411.178 502.789 395.825C535.719 379.834 557.892 381.055 568.687 399.457C573.672 407.956 576.791 420.375 578.221 437.429C579.479 452.44 579.304 468.896 579.134 484.808C579.033 494.222 578.939 503.111 579.139 511.372L585.291 764.408L585.12 764.522Z" fill="#FFE492"/>
<path d="M591.615 747.249C592.312 677.548 591.677 620.613 589.617 568.077C588.624 542.558 587.257 517.318 585.553 493.057C585.038 485.719 584.726 477.986 584.396 469.799C583.568 449.223 582.711 427.947 578.472 411.031C576.203 401.935 573.235 395.001 569.398 389.836C557.665 373.873 535.355 375.028 503.089 393.271C486.398 402.693 469.938 414.207 456.04 424.227C441.325 434.836 426.14 446.86 411.454 458.487C390.346 475.202 368.52 492.484 347.03 506.469C333.94 515.012 321.245 522.334 309.297 528.232C285.394 540.032 261.558 548.462 238.451 553.286C224.206 556.194 210.586 557.5 197.973 557.167C187.106 556.869 176.719 555.411 167.097 552.831C152.696 548.973 139.831 542.497 128.864 533.58C117.203 524.097 107.605 511.779 100.338 496.965C93.8575 483.756 89.0689 468.178 85.7003 449.338C79.4129 414.256 78.8978 375.802 79.152 346.22C79.3027 331.628 79.6903 316.82 80.0648 302.5C81.1461 261.26 82.1666 222.307 78.0789 186.049C74.6741 156.642 67.805 130.036 57.6596 106.964C49.8636 89.2337 39.8214 73.5871 27.8137 60.4576C24.9524 57.3328 21.9633 54.3196 18.9306 51.5081C5.86804 39.4152 -10.2771 29.1525 -29.0545 21.0044C-47.9657 12.7427 -65.8678 9.17993 -83.7827 10.119C-93.8999 10.6248 -104.536 13.0552 -115.397 17.3396C-153.743 32.4671 -189.013 66.9594 -209.746 109.609L-209.904 109.53C-204.377 98.1606 -197.83 87.3065 -190.444 77.265C-183.428 67.7272 -175.609 58.8577 -167.205 50.9021C-151.328 35.8749 -133.399 24.1688 -115.358 17.0516C-104.479 12.7592 -93.8267 10.326 -83.694 9.81978C-65.7609 8.88107 -47.8443 12.4457 -28.9178 20.7148C-10.1296 28.8664 6.02302 39.1367 19.0944 51.2377C22.1302 54.0528 25.1206 57.0664 27.9836 60.1944C40.0015 73.3324 50.0518 88.9921 57.8536 106.738C68.0062 129.825 74.8808 156.454 78.2853 185.88C82.3758 222.16 81.3539 261.122 80.274 302.374C79.8981 316.694 79.5115 331.499 79.3604 346.089C79.1059 375.657 79.6213 414.092 85.906 449.153C89.2708 467.973 94.0535 483.536 100.527 496.729C114.75 525.72 137.187 544.497 167.217 552.537C176.831 555.114 187.212 556.57 198.069 556.867C210.674 557.198 224.284 555.894 238.518 552.988C261.61 548.167 285.432 539.744 309.32 527.95C321.26 522.056 333.947 514.738 347.026 506.202C368.504 492.224 390.326 474.946 411.427 458.237C426.115 446.608 441.303 434.579 456.024 423.967C469.93 413.941 486.396 402.424 503.1 392.995C517.466 384.873 530.051 380.093 540.507 378.787C553.351 377.182 563.132 380.814 569.575 389.58C573.423 394.763 576.4 401.714 578.676 410.831C582.92 427.773 583.778 449.063 584.608 469.653C584.937 477.837 585.249 485.569 585.764 492.902C587.469 517.166 588.837 542.409 589.829 567.933C591.888 620.475 592.523 677.414 591.826 747.121L591.615 747.249Z" fill="#FFE492"/>
<path d="M598.114 729.97C601.137 659.813 601.234 600.345 598.409 548.17C597.047 522.69 594.938 497.947 592.14 474.628C591.398 468.441 590.783 462.06 590.13 455.306C588.176 435.08 586.154 414.165 580.601 398.396C577.808 390.407 574.427 384.395 570.261 380.014C554.309 363.235 525.106 376.446 503.414 390.482C488.062 400.389 472.83 412.255 457.28 424.558C443.668 435.328 430.094 447.247 415.725 459.864C394.395 478.594 372.34 497.96 350.285 513.116C337.171 522.173 324.376 529.548 312.257 535.037C289.682 545.264 267.047 551.61 243.056 554.44C229.631 556.023 216.564 556.055 204.221 554.534C193.815 553.229 183.9 550.826 174.755 547.385C161.145 542.274 148.982 534.623 138.603 524.645C127.702 514.164 118.66 501.002 111.729 485.525C105.655 471.967 101.005 456.047 97.5137 436.857C91.155 402.048 88.8409 364.937 87.537 336.495C87.0545 325.967 86.6665 315.403 86.2917 305.185C84.7983 264.493 83.3893 226.054 76.3041 191.828C71.0092 166.248 62.5528 143.375 51.1721 123.846C42.5611 109.07 32.0119 96.7178 18.924 86.0844C15.9024 83.6326 12.7622 81.2925 9.59216 79.1292C-4.34205 69.6507 -20.5502 62.646 -40.2892 54.4711C-54.4902 48.5139 -73.4543 41.586 -94.2339 40.8906C-104.056 40.5158 -114.336 41.9833 -124.789 45.2469C-161.596 56.7431 -195.875 86.2101 -216.489 124.075L-216.664 123.953C-211.198 113.912 -204.776 104.396 -197.579 95.6648C-190.72 87.346 -183.114 79.691 -174.972 72.9056C-159.502 60.0163 -142.127 50.3299 -124.728 44.8967C-114.254 41.626 -103.955 40.1565 -94.1163 40.5313C-73.3161 41.2252 -54.3382 48.16 -40.1277 54.1202C-20.382 62.2972 -4.16834 69.3036 9.7757 78.7879C12.9475 80.9543 16.0903 83.2952 19.1159 85.7483C32.2158 96.3935 42.7755 108.757 51.3963 123.55C62.7886 143.098 71.2524 165.989 76.5531 191.595C83.6428 225.846 85.0546 264.296 86.5473 305.004C86.9218 315.22 87.3098 325.783 87.7933 336.31C89.0985 364.741 91.411 401.838 97.7648 436.63C101.251 455.799 105.896 471.702 111.963 485.244C125.593 515.676 146.775 536.464 174.914 547.031C184.053 550.467 193.957 552.869 204.353 554.171C216.685 555.692 229.74 555.661 243.154 554.077C267.124 551.251 289.741 544.91 312.296 534.693C324.4 529.21 337.178 521.845 350.278 512.798C372.313 497.654 394.359 478.295 415.68 459.576C430.055 446.953 443.631 435.032 457.251 424.257C472.81 411.945 488.048 400.076 503.415 390.158C517.477 381.058 529.983 375.259 540.587 372.917C553.444 370.078 563.497 372.357 570.468 379.688C574.649 384.086 578.043 390.118 580.843 398.131C586.406 413.93 588.428 434.864 590.385 455.107C591.037 461.858 591.654 468.237 592.395 474.421C595.194 497.748 597.303 522.499 598.666 547.988C601.49 600.175 601.394 659.654 598.369 729.826L598.114 729.97Z" fill="#FFE492"/>
<path d="M604.613 712.692C609.983 641.121 610.831 580.795 607.203 528.268C605.468 502.826 602.617 478.581 598.729 456.203C597.899 451.419 597.098 446.368 596.323 441.484C593.127 421.308 589.821 400.446 582.733 385.766C579.421 378.84 575.625 373.745 571.13 370.195C553.875 356.563 524.961 372.188 503.745 387.694C489.387 398.15 475.021 410.598 461.126 422.638L458.525 424.892C445.914 435.812 433.191 448.136 419.719 461.185C398.268 481.963 376.088 503.447 353.542 519.765C340.386 529.348 327.491 536.777 315.217 541.845C293.817 550.682 272.348 555.051 247.659 555.595C234.893 555.876 222.38 554.634 210.469 551.899C200.524 549.585 191.085 546.235 182.412 541.937C156.146 528.944 136.198 506.115 123.119 474.085C117.465 460.238 112.953 443.981 109.329 424.378C103.171 391.263 99.3298 358.003 95.9247 326.775C95.4673 322.589 95.0214 318.433 94.5784 314.31C89.9787 271.538 85.6355 231.138 74.5326 197.617C67.2843 175.733 57.241 156.596 44.6848 140.735C35.4659 129.091 24.1316 119.599 10.0369 111.716C6.85848 109.943 3.56822 108.274 0.256409 106.755C-8.08296 102.952 -17.3351 99.8653 -27.1312 96.5983C-34.9993 93.9738 -43.1348 91.2605 -51.5251 87.9438C-67.6865 81.4375 -86.004 74.0659 -104.688 71.6701C-114.329 70.4348 -124.253 70.9371 -134.186 73.1645C-169.438 81.0715 -202.729 105.517 -223.24 138.558L-223.421 138.376C-218.014 129.664 -211.718 121.486 -204.71 114.067C-198.008 106.972 -190.616 100.527 -182.739 94.9105C-167.673 84.1702 -150.852 76.509 -134.097 72.751C-124.142 70.5174 -114.197 70.0134 -104.538 71.252C-85.8349 73.6509 -67.5089 81.0279 -51.3407 87.5363C-42.9548 90.8489 -34.8204 93.5646 -26.955 96.1882C-17.1548 99.4565 -7.89997 102.544 0.446503 106.352C3.76001 107.874 7.05435 109.545 10.2354 111.318C24.3482 119.209 35.6956 128.714 44.9271 140.375C57.4985 156.254 67.5524 175.413 74.8088 197.321C85.9219 230.871 90.2676 271.29 94.8683 314.081C95.3114 318.204 95.7596 322.359 96.2147 326.547C99.619 357.769 103.458 391.021 109.615 424.125C113.236 443.705 117.742 459.947 123.39 473.776C136.451 505.766 156.374 528.563 182.605 541.54C191.268 545.833 200.699 549.179 210.633 551.49C222.532 554.221 235.032 555.462 247.785 555.182C272.449 554.639 293.892 550.275 315.264 541.451C327.512 536.393 340.382 528.977 353.516 519.411C376.034 503.113 398.2 481.642 419.639 460.875C433.117 447.82 445.846 435.491 458.466 424.563L461.068 422.308C474.97 410.263 489.344 397.807 503.717 387.34C525.002 371.783 554.012 356.116 571.347 369.811C575.863 373.378 579.674 378.491 582.997 385.444C590.101 400.156 593.411 421.041 596.61 441.239C597.383 446.122 598.184 451.173 599.014 455.954C602.903 478.344 605.756 502.602 607.491 528.058C611.121 580.607 610.273 640.954 604.9 712.548L604.613 712.692Z" fill="#FFE492"/>
<path d="M611.111 695.41C618.732 623.437 620.376 560.506 615.994 508.368C613.888 482.966 610.295 459.218 605.317 437.783C604.598 434.687 603.877 431.482 603.179 428.382C598.568 407.904 593.8 386.727 584.868 373.142C581.051 367.267 576.843 363.094 572.001 360.379C553.427 349.968 524.811 367.97 504.075 384.905C491.227 395.355 478.482 407.459 466.157 419.165C464.025 421.191 461.894 423.213 459.767 425.224C448.079 436.276 436.136 448.971 423.493 462.41C401.999 485.256 379.773 508.878 356.796 526.418C343.302 536.717 330.67 543.991 318.171 548.659C292.03 558.423 270.181 558.231 252.256 556.758C240.133 555.76 228.174 553.244 216.711 549.272C207.233 545.951 198.267 541.651 190.063 536.497C165.73 521.232 147.038 496.387 134.506 462.652C129.291 448.618 124.919 432.019 121.139 411.908C117.304 391.633 113.949 372.228 110.704 353.462C108.5 340.707 106.417 328.659 104.309 317.067C96.34 273.244 88.4653 234.444 72.7606 203.414C63.5606 185.239 51.9325 169.833 38.1978 157.626C28.3541 148.876 16.581 142.434 1.151 137.347C-2.18118 136.258 -5.62294 135.259 -9.07819 134.381C-14.3344 133.064 -19.9028 132.007 -25.7972 130.89C-37.1081 128.744 -49.9306 126.312 -62.7648 121.418C-67.6515 119.552 -72.5874 117.534 -77.3605 115.579C-89.6377 110.553 -102.333 105.356 -115.147 102.448C-124.558 100.314 -134.128 99.8532 -143.588 101.08C-177.268 105.451 -209.57 124.879 -230 153.048L-230.172 152.789C-224.823 145.413 -218.655 138.574 -211.84 132.461C-205.295 126.591 -198.116 121.357 -190.506 116.907C-175.843 108.332 -159.578 102.696 -143.467 100.605C-133.984 99.3747 -124.392 99.8345 -114.961 101.975C-102.132 104.885 -89.4323 110.085 -77.1483 115.114C-72.3765 117.068 -67.4406 119.087 -62.5553 120.952C-49.7333 125.842 -36.9213 128.274 -25.6157 130.418C-19.7186 131.535 -14.1489 132.593 -8.88724 133.911C-5.42793 134.791 -1.98348 135.79 1.35275 136.881C16.8054 141.972 28.5944 148.428 38.4554 157.191C52.2064 169.414 63.8511 184.838 73.062 203.038C80.1566 217.053 86.2122 233.894 91.5763 254.519C96.3788 272.983 100.27 292.76 104.637 316.773C106.744 328.368 108.828 340.416 111.033 353.171C114.278 371.935 117.633 391.339 121.466 411.611C125.243 431.703 129.609 448.284 134.818 462.302C147.332 495.993 165.998 520.803 190.297 536.047C198.491 541.195 207.446 545.488 216.913 548.806C228.362 552.774 240.308 555.288 252.418 556.282C270.32 557.756 292.14 557.947 318.235 548.201C330.699 543.545 343.299 536.29 356.756 526.017C379.694 508.508 401.903 484.904 423.38 462.076C436.031 448.63 447.979 435.929 459.68 424.865C461.808 422.853 463.937 420.831 466.068 418.807C478.401 407.093 491.155 394.981 504.019 384.518C517.509 373.5 529.869 365.643 540.753 361.167C553.646 355.864 564.234 355.447 572.224 359.928C577.09 362.656 581.319 366.848 585.151 372.746C594.108 386.368 598.881 407.572 603.498 428.075C604.197 431.175 604.917 434.38 605.636 437.473C610.617 458.925 614.211 482.695 616.32 508.116C618.646 535.801 619.291 566.717 618.234 600.003C617.3 629.423 615.012 661.474 611.435 695.262L611.111 695.41Z" fill="#FFE492"/>
<path d="M617.61 678.125C627.569 604.751 629.984 540.941 624.786 488.465C622.306 463.103 617.973 439.855 611.907 419.361C611.619 418.386 611.33 417.411 611.042 416.433C604.744 395.101 598.232 373.043 587.006 360.519C582.657 355.667 578.034 352.411 572.877 350.565C552.98 343.447 524.662 363.793 504.411 382.113C492.526 392.819 480.838 404.971 469.535 416.723C466.741 419.63 463.85 422.634 461.017 425.555C450.225 436.679 439.054 449.671 427.227 463.429C405.714 488.452 383.47 514.325 360.056 533.068C346.509 543.911 333.777 551.239 321.129 555.473C296.213 563.812 275.512 561.575 256.854 557.917C245.35 555.661 233.945 551.867 222.955 546.642C213.946 542.31 205.456 537.065 197.718 531.052C175.338 513.688 157.901 486.827 145.897 451.215C141.089 436.955 136.976 420.501 132.956 399.434C125.276 359.488 119.029 331.09 112.701 307.359C100.116 260.161 87.6442 230.809 71.0006 209.215C59.8579 194.758 46.6438 183.086 31.7238 174.519C21.3719 168.577 9.20648 165.016 -7.72318 162.98C-11.1953 162.57 -14.7871 162.242 -18.401 162.008C-21.8195 161.798 -25.334 161.683 -29.0551 161.559C-42.7951 161.105 -58.3694 160.591 -73.9982 154.892C-82.2362 151.888 -90.3722 148.173 -98.2404 144.581C-107.183 140.498 -116.429 136.276 -125.605 133.227C-134.805 130.17 -144.021 128.746 -152.991 128.999C-185.072 129.898 -216.391 144.312 -236.767 167.553L-236.909 167.197C-231.616 161.159 -225.576 155.66 -218.956 150.852C-212.565 146.21 -205.604 142.189 -198.262 138.899C-184.001 132.506 -168.289 128.895 -152.828 128.463C-143.834 128.212 -134.598 129.637 -125.376 132.701C-116.191 135.752 -106.94 139.976 -97.9946 144.062C-90.129 147.653 -81.9971 151.368 -73.7659 154.369C-58.1645 160.057 -42.607 160.571 -28.8826 161.026C-25.1592 161.147 -21.643 161.266 -18.2221 161.474C-14.6042 161.709 -11.0096 162.038 -7.53381 162.447C9.4212 164.488 21.608 168.053 31.9811 174.01C46.9222 182.588 60.1552 194.277 71.3136 208.755C87.9802 230.377 100.465 259.76 113.062 306.999C119.392 330.738 125.641 359.145 133.322 399.102C137.341 420.152 141.449 436.589 146.251 450.834C158.24 486.396 175.65 513.219 197.996 530.557C205.724 536.561 214.206 541.799 223.201 546.126C234.178 551.344 245.569 555.133 257.059 557.388C275.688 561.04 296.352 563.276 321.211 554.956C333.812 550.74 346.501 543.435 360 532.63C383.363 513.928 405.585 488.081 427.074 463.086C438.909 449.32 450.088 436.317 460.896 425.177C463.728 422.258 466.618 419.254 469.413 416.347C480.725 404.585 492.421 392.424 504.326 381.701C517.542 369.744 529.828 360.86 540.845 355.292C553.75 348.77 564.605 347.009 573.106 350.047C578.293 351.902 582.939 355.175 587.309 360.05C598.571 372.617 605.094 394.705 611.399 416.068C611.688 417.047 611.977 418.025 612.265 418.997C618.337 439.514 622.675 462.791 625.159 488.18C630.359 540.702 627.944 604.562 617.978 677.987L617.61 678.125Z" fill="#FFE492"/>
<path d="M263.696 559.78C262.937 559.542 262.19 559.306 261.457 559.069C250.551 555.569 239.698 550.502 229.202 544.004C220.667 538.664 212.651 532.472 205.376 525.601C194.978 515.795 185.619 503.449 177.556 488.904C169.77 474.859 162.953 458.33 157.293 439.774C151.748 421.594 147.69 401.999 144.775 386.959C137.92 351.847 129.953 321.801 121.098 297.652C106.755 258.542 90.2806 232.282 69.2491 215.013C56.5613 204.595 41.6156 196.52 25.9844 191.634C25.7422 191.558 25.5014 191.483 25.2582 191.409C11.7957 187.291 -2.81024 187.627 -16.5869 188.605C-20.1764 188.868 -23.9197 189.211 -27.7148 189.627C-29.798 189.864 -31.894 190.123 -34.1116 190.397C-49.7568 192.341 -67.4891 194.541 -85.2272 188.361C-96.0296 184.596 -106.369 179.136 -116.368 173.855C-122.824 170.443 -129.499 166.919 -136.057 163.999C-145.073 159.987 -153.93 157.601 -162.389 156.911C-192.844 154.419 -223.181 163.82 -243.541 182.06L-243.63 181.594C-233.187 172.24 -220.53 165.271 -206.01 160.878C-192.145 156.684 -176.988 155.106 -162.183 156.318C-153.704 157.013 -144.821 159.401 -135.786 163.425C-129.221 166.346 -122.542 169.875 -116.084 173.287C-106.092 178.566 -95.7592 184.024 -84.9707 187.782C-67.2786 193.948 -49.576 191.749 -33.9576 189.81C-31.7376 189.534 -29.6416 189.275 -27.557 189.038C-23.7592 188.623 -20.0122 188.279 -16.42 188.017C-2.62002 187.038 12.0106 186.702 25.5066 190.828C41.428 195.696 56.6605 203.871 69.5645 214.468C80.4182 223.382 89.8899 234.47 98.5179 248.364C106.827 261.746 114.342 277.727 121.489 297.221C130.351 321.389 138.323 351.458 145.183 386.592C148.094 401.623 152.149 421.203 157.689 439.364C169.173 477.017 185.327 505.851 205.701 525.067C212.966 531.929 220.971 538.113 229.494 543.447C239.976 549.935 250.814 554.997 261.706 558.49C278.748 563.956 299.027 569.163 324.193 561.705C336.931 557.93 349.705 550.58 363.246 539.238C387.027 519.318 409.221 491.148 430.688 463.905C441.73 449.891 452.159 436.654 462.114 425.486C465.303 421.908 468.558 418.212 471.706 414.637C482.341 402.56 493.336 390.073 504.63 378.885C517.58 366 529.797 356.083 540.938 349.412C553.856 341.676 564.973 338.564 573.982 340.163C579.543 341.149 584.606 343.5 589.462 347.352C602.445 357.647 610.792 378.375 618.892 400.518C625.954 419.824 631.177 443.241 633.995 468.241C637.154 495.942 637.76 527.47 635.793 561.947C634.041 592.664 630.248 625.892 624.519 660.711L624.108 660.849C636.413 586.074 639.6 521.383 633.577 468.575C630.763 443.612 625.549 420.229 618.496 400.955C610.411 378.852 602.081 358.163 589.146 347.905C584.317 344.074 579.281 341.737 573.755 340.757C557.2 337.823 532.693 351.518 504.746 379.325C493.473 390.494 482.487 402.969 471.862 415.034C468.713 418.611 465.456 422.309 462.267 425.887C452.33 437.035 441.909 450.261 430.878 464.262C420.346 477.629 409.454 491.452 398.172 504.487C385.38 519.263 373.98 530.788 363.316 539.722C349.715 551.115 336.883 558.497 324.086 562.291C312.799 565.637 301.745 566.724 290.292 565.621C280.596 564.677 271.506 562.221 263.696 559.78Z" fill="#FFE492"/>
<path d="M284.885 567.735C277.985 565.578 271.664 562.794 266.045 560.218C255.713 555.484 245.413 549.141 235.435 541.364C227.377 535.02 219.835 527.883 213.02 520.146C194.347 498.989 179.842 468.953 168.675 428.328C163.803 410.614 160.029 392.012 156.582 374.479C149.741 339.949 140.625 310.835 129.485 287.942C113.101 254.273 93.4038 232.939 67.4941 220.804C52.7313 213.89 35.8895 209.563 18.7887 208.29C4.47542 207.224 -10.917 210.637 -25.4572 214.22C-29.0988 215.126 -32.9946 216.141 -37.0338 217.236C-38.0445 217.513 -39.066 217.797 -40.1004 218.083C-57.0984 222.796 -76.3319 228.129 -95.5 222.137C-95.8234 222.036 -96.1445 221.933 -96.4675 221.824C-109.338 217.543 -121.201 210.198 -132.673 203.092C-137.221 200.274 -141.926 197.363 -146.521 194.759C-155.499 189.677 -163.766 186.42 -171.799 184.808C-201.016 178.944 -229.643 183.223 -250.339 196.555L-250.345 195.971C-240.114 189.381 -227.462 184.838 -213.76 182.831C-200.284 180.858 -185.686 181.317 -171.545 184.156C-163.49 185.773 -155.201 189.037 -146.203 194.13C-141.602 196.736 -136.898 199.65 -132.347 202.465C-120.885 209.563 -109.033 216.902 -96.1872 221.175C-76.7689 227.639 -57.2204 222.216 -39.9762 217.433C-38.9432 217.147 -37.9204 216.864 -36.9087 216.584C-32.8658 215.488 -28.9686 214.473 -25.3243 213.568C-10.7591 209.976 4.6604 206.561 19.0129 207.629C36.1401 208.905 53.0099 213.238 67.7974 220.163C80.6375 226.176 91.8133 234.39 101.964 245.273C112.418 256.481 121.558 270.267 129.903 287.422C141.056 310.346 150.185 339.495 157.034 374.06C160.479 391.586 164.251 410.177 169.118 427.874C180.271 468.444 194.754 498.435 213.397 519.559C220.202 527.282 227.734 534.411 235.78 540.746C245.744 548.513 256.028 554.849 266.346 559.574C283.708 567.526 302.704 574.762 327.169 568.435C340.042 565.104 352.903 557.71 366.485 545.827C390.679 524.663 413.808 492.707 434.216 464.513C444.484 450.327 454.183 436.928 463.322 425.778C466.619 421.755 469.99 417.586 473.25 413.554C483.447 400.938 493.992 387.894 504.927 376.051C517.625 362.242 529.77 351.293 541.026 343.508C553.954 334.569 565.335 330.11 574.851 330.258C580.799 330.35 586.28 331.782 591.608 334.628C606.492 342.585 616.7 362.103 625.514 382.012C633.653 400.395 639.639 423.309 642.828 448.279C646.404 475.985 646.99 507.821 644.569 542.895C642.403 574.261 637.858 608.079 631.057 643.413L630.61 643.537C645.067 568.429 649.133 501.039 642.371 448.652C639.189 423.73 633.214 400.859 625.091 382.513C616.299 362.65 606.118 343.18 591.297 335.256C586 332.425 580.553 331.004 574.644 330.912C557.074 330.637 532.372 346.827 505.088 376.5C494.175 388.318 483.642 401.35 473.454 413.953C470.194 417.987 466.823 422.157 463.522 426.184C454.403 437.308 444.714 450.694 434.456 464.864C414.016 493.102 390.849 525.109 366.575 546.345C352.919 558.291 339.987 565.727 327.04 569.078C315.806 571.983 304.902 572.291 293.705 570.011C290.672 569.408 287.73 568.624 284.885 567.735Z" fill="#FFE492"/>
<path d="M297.423 574.532C297.324 574.501 297.226 574.47 297.128 574.439C287.395 571.349 278.71 566.289 270.647 561.371C260.863 555.404 251.121 547.784 241.686 538.726C234.106 531.382 227.039 523.296 220.682 514.695C203.817 491.912 190.913 460.836 180.074 416.889C176.169 401.067 172.839 384.302 169.616 368.091C169.214 366.062 168.809 364.035 168.405 362.008C161.462 327.454 151.196 299.27 137.892 278.242C119.673 249.448 96.0787 232.556 65.7608 226.601C49.1364 223.336 30.6641 222.844 12.341 225.176C-2.11681 227.018 -16.7183 232.658 -34.3058 239.84C-37.8748 241.306 -41.6973 242.897 -46.3338 244.85L-46.593 244.96C-55.5548 248.767 -65.7119 253.081 -76.0795 255.534C-87.9866 258.351 -98.3272 258.266 -107.694 255.3C-122.296 250.664 -135.198 241.282 -147.674 232.206C-150.731 229.983 -153.893 227.684 -156.976 225.534C-165.818 219.376 -173.742 215.184 -181.201 212.722C-208.666 203.658 -236.345 203.054 -257.136 211.064L-257.04 210.376C-246.855 206.452 -234.564 204.526 -221.495 204.804C-208.401 205.083 -194.361 207.579 -180.895 212.023C-173.415 214.491 -165.47 218.692 -156.61 224.865C-153.524 227.015 -150.362 229.314 -147.304 231.538C-134.843 240.601 -121.957 249.972 -107.391 254.598C-107.326 254.618 -107.26 254.639 -107.195 254.659C-86.3202 261.185 -64.2542 251.814 -46.5119 244.279L-46.2513 244.169C-41.6124 242.214 -37.79 240.623 -34.2196 239.158C-16.6023 231.963 -1.97491 226.312 12.5279 224.466C30.8827 222.128 49.3851 222.622 66.0375 225.892C80.8733 228.808 93.7541 234.147 105.417 242.222C117.985 250.922 128.752 262.51 138.33 277.65C151.66 298.719 161.945 326.949 168.899 361.559C169.303 363.586 169.707 365.616 170.109 367.645C173.33 383.849 176.659 400.608 180.56 416.419C191.385 460.31 204.268 491.344 221.105 514.088C227.453 522.678 234.511 530.751 242.079 538.086C251.501 547.132 261.23 554.74 270.998 560.697C288.494 571.371 306.185 580.511 330.154 575.202C343.162 572.319 356.108 564.88 369.731 552.455C394.34 530.011 417.366 495.45 437.683 464.954C447.195 450.678 456.179 437.191 464.538 426.111C467.754 421.848 471.043 417.427 474.224 413.15C484.17 399.777 494.452 385.952 505.233 373.255C517.694 358.518 529.77 346.535 541.123 337.638C554.064 327.499 565.705 321.696 575.723 320.393C581.934 319.586 587.718 320.055 593.387 321.827C593.51 321.865 593.634 321.904 593.757 321.945C611.314 327.614 623.493 347.153 632.143 363.542C641.357 381.003 648.109 403.413 651.67 428.35C655.665 456.065 656.231 488.205 653.353 523.881C650.769 555.895 645.47 590.304 637.6 626.155L637.118 626.262C648.827 572.918 660.768 495.355 651.17 428.77C647.619 403.89 640.882 381.533 631.691 364.113C623.067 347.77 610.926 328.288 593.453 322.648C587.702 320.783 581.842 320.286 575.538 321.106C556.977 323.521 532.08 342.204 505.434 373.714C494.679 386.382 484.407 400.192 474.473 413.549C471.291 417.828 468 422.252 464.782 426.517C456.445 437.569 447.471 451.038 437.971 465.299C417.617 495.85 394.548 530.477 369.843 553.008C356.129 565.517 343.096 573.006 330.001 575.906C318.903 578.362 308.241 577.913 297.423 574.532Z" fill="#FFE492"/>
<path d="M306.832 581.217C304.732 580.56 302.637 579.772 300.54 578.851C291.362 574.82 283.335 568.826 275.239 562.52C265.854 555.211 256.919 546.564 247.924 536.085C240.827 527.747 234.235 518.717 228.332 509.239C213.346 485.224 201.976 453.212 191.464 405.447C188.852 393.586 186.448 381.249 184.123 369.318C182.857 362.824 181.55 356.107 180.22 349.532C173.131 314.715 161.716 287.466 146.291 268.539C125.911 243.531 99.0029 231.706 64.0248 232.388C45.5448 232.749 25.442 236.091 5.89163 242.05C-9.81375 246.838 -25.4538 255.567 -42.0126 264.81L-43.1574 265.449C-45.7467 266.899 -48.367 268.371 -51.019 269.86C-52.5472 270.719 -54.0851 271.584 -55.6365 272.455C-65.3264 277.924 -75.6735 283.555 -86.273 287.065C-98.5792 291.14 -109.259 291.698 -118.927 288.772C-135.02 283.895 -148.602 272.329 -161.732 261.137C-163.605 259.538 -165.545 257.887 -167.436 256.305C-176.3 248.882 -183.663 243.903 -190.609 240.631C-216.245 228.558 -242.973 223.063 -263.942 225.557L-263.738 224.786C-242.714 222.285 -215.929 227.787 -190.249 239.882C-183.283 243.163 -175.902 248.156 -167.021 255.592C-165.129 257.177 -163.19 258.828 -161.315 260.427C-148.345 271.481 -134.937 282.906 -119.115 287.852C-118.944 287.905 -118.774 287.958 -118.601 288.01C-98.0601 294.229 -77.082 283.864 -55.6068 271.746C-54.0554 270.875 -52.5175 270.011 -50.9893 269.152C-48.3363 267.66 -45.7184 266.19 -43.1267 264.738L-41.9819 264.099C-25.3951 254.841 -9.72838 246.097 6.02832 241.293C25.6148 235.32 45.7521 231.974 64.2645 231.612C99.3309 230.928 126.311 242.787 146.746 267.862C162.208 286.838 173.651 314.149 180.756 349.043C182.085 355.62 183.394 362.335 184.659 368.831C186.982 380.76 189.386 393.093 191.996 404.946C202.495 452.657 213.85 484.623 228.808 508.599C234.704 518.061 241.285 527.08 248.373 535.404C257.354 545.868 266.276 554.503 275.648 561.8C289.874 572.879 307.577 586.67 333.139 581.944C346.28 579.515 359.311 572.03 372.974 559.06C398.003 535.303 420.887 498.04 441.077 465.165C449.848 450.883 458.132 437.393 465.748 426.429C468.715 422.157 471.752 417.728 474.688 413.444C484.539 399.077 494.726 384.222 505.531 370.443C517.773 354.772 529.778 341.754 541.213 331.75C554.169 320.414 566.071 313.27 576.587 310.515C583.336 308.746 589.652 308.331 595.898 309.244C604.263 310.466 612.041 314.386 619.68 321.219C626.143 327.003 632.386 334.798 638.767 345.052C649.057 361.589 656.574 383.496 660.505 408.403C664.921 436.124 665.467 468.574 662.13 504.849C659.125 537.513 653.072 572.513 644.138 608.879L643.623 608.963C662.484 532.186 668.288 461.123 659.965 408.866C656.045 384.027 648.549 362.183 638.289 345.694C624.541 323.602 610.982 312.263 595.611 310.015C589.407 309.108 583.135 309.521 576.433 311.275C551.416 317.828 524.202 347.318 505.78 370.902C495.003 384.647 484.828 399.484 474.989 413.833C472.05 418.12 469.012 422.55 466.044 426.825C458.452 437.756 450.177 451.231 441.417 465.495C421.184 498.441 398.251 535.783 373.109 559.647C359.337 572.719 346.202 580.264 332.956 582.713C323.977 584.373 315.372 583.886 306.832 581.217Z" fill="#FFE492"/>
<path d="M314.585 587.93C300.276 583.457 289.255 572.789 279.826 563.664C270.954 555.08 262.559 545.193 254.157 533.44C247.544 524.116 241.426 514.138 235.977 503.782C219.628 472.763 210.392 432.689 202.847 394.002C201.306 386.104 199.808 377.99 198.359 370.145C196.349 359.25 194.268 347.985 192.03 337.056C184.772 301.864 172.209 275.546 154.691 258.833C132.029 237.216 101.804 230.455 62.2886 238.167C41.9432 242.137 20.2112 249.312 -0.55896 258.918C-16.5777 266.325 -32.0895 277.149 -48.5114 288.609C-49.6749 289.42 -50.8419 290.235 -52.0129 291.05L-52.649 291.494C-56.6427 294.284 -60.7716 297.166 -64.9417 300.052C-74.9503 307.006 -85.7164 314.069 -96.6176 318.628C-109.272 323.921 -120.245 325.103 -130.166 322.241C-147.581 317.219 -161.557 303.32 -175.072 289.879C-176.019 288.937 -176.962 287.999 -177.903 287.069C-186.827 278.235 -193.651 272.518 -200.024 268.532C-223.709 253.722 -249.489 243.334 -270.753 240.034L-270.442 239.203C-249.143 242.507 -223.325 252.909 -199.608 267.74C-193.217 271.737 -186.379 277.466 -177.438 286.316C-176.497 287.246 -175.554 288.184 -174.606 289.129C-161.117 302.543 -147.166 316.411 -129.82 321.418C-108.275 327.633 -85.0502 313.273 -64.9729 299.325C-60.8028 296.439 -56.6739 293.556 -52.6812 290.769L-52.0451 290.324C-50.8731 289.508 -49.7072 288.695 -48.5436 287.883C-32.0931 276.404 -16.5549 265.561 -0.482178 258.129C20.3261 248.506 42.0983 241.319 62.4791 237.341C81.2126 233.686 97.5048 233.287 112.285 236.121C128.772 239.284 143.193 246.671 155.151 258.078C172.724 274.843 185.325 301.237 192.605 336.526C194.845 347.461 196.926 358.728 198.937 369.626C200.385 377.471 201.882 385.582 203.423 393.478C210.96 432.122 220.184 472.153 236.503 503.114C241.946 513.455 248.054 523.419 254.657 532.73C263.046 544.465 271.428 554.337 280.286 562.909C293.887 576.072 310.813 592.453 336.11 588.691C349.385 586.717 362.499 579.186 376.204 565.67C401.66 540.562 424.36 500.507 444.388 465.166C452.436 450.967 460.036 437.555 466.945 426.75C469.5 422.753 472.118 418.617 474.651 414.615C484.559 398.966 494.805 382.782 505.816 367.635C517.854 351.017 529.79 336.959 541.29 325.856C554.265 313.327 566.427 304.842 577.437 300.636C584.587 297.906 591.32 296.568 598.025 296.545C607.056 296.516 615.842 299.359 624.139 304.993C631.404 309.928 638.55 317.184 645.377 326.561C656.742 342.175 665.025 363.577 669.33 388.454C674.165 416.184 674.693 448.94 670.897 485.815C667.468 519.128 660.661 554.722 650.665 591.604L650.12 591.662C671.301 513.511 677.918 441.524 668.751 388.964C664.459 364.168 656.205 342.836 644.878 327.275C630.195 307.105 614.784 297.324 597.763 297.381C591.107 297.403 584.421 298.731 577.323 301.441C551.127 311.448 524.143 343.206 506.117 368.088C495.134 383.196 484.902 399.358 475.007 414.987C472.474 418.988 469.854 423.127 467.296 427.128C460.411 437.898 452.82 451.291 444.783 465.473C435.147 482.475 424.227 501.745 412.793 519.436C399.691 539.707 387.776 555.031 376.365 566.287C369.767 572.795 363.153 578.021 356.705 581.822C349.77 585.909 342.77 588.501 335.9 589.522C328.039 590.693 320.982 589.93 314.585 587.93Z" fill="#FFE492"/>
<path d="M321.264 594.727C316.534 593.248 311.919 590.902 307.368 587.674C298.404 581.317 290.977 572.547 284.422 564.812C276.162 555.06 268.079 543.615 260.401 530.797C254.275 520.497 248.632 509.572 243.633 498.323C229.274 466.063 221.827 426.809 214.242 382.559C213.568 378.626 212.89 374.618 212.235 370.74C209.655 355.475 206.987 339.69 203.85 324.584C196.41 288.949 182.7 263.565 163.101 249.133C138.378 230.928 103.878 229.182 60.5635 243.947C38.3368 251.523 14.9752 262.531 -6.99646 275.783C-23.5399 285.761 -39.1999 298.727 -55.78 312.455C-57.4647 313.85 -59.1555 315.249 -60.8547 316.653C-65.0858 320.152 -69.6363 323.905 -74.2335 327.649C-83.8879 335.533 -95.3266 344.379 -106.949 350.191C-119.96 356.699 -131.227 358.506 -141.392 355.714C-160 350.607 -174.15 334.253 -187.834 318.438L-188.355 317.836C-195.056 310.095 -202.247 302.143 -209.424 296.436C-231.302 279.04 -255.495 264.148 -277.543 254.505L-277.136 253.638C-255.064 263.292 -230.849 278.196 -208.952 295.608C-201.754 301.332 -194.55 309.297 -187.839 317.049L-187.318 317.65C-173.663 333.43 -159.54 349.746 -141.022 354.83C-119.637 360.702 -96.3273 344.883 -74.3232 326.911C-69.727 323.17 -65.1792 319.416 -60.9491 315.919C-59.2509 314.517 -57.5591 313.116 -55.8754 311.723C-39.267 297.972 -23.5787 284.983 -6.98093 274.972C15.0329 261.693 38.4387 250.665 60.7066 243.074C81.0281 236.149 99.5421 232.786 115.73 233.083C134.226 233.424 150.322 238.54 163.569 248.293C183.243 262.78 197.005 288.255 204.469 324.011C207.607 339.132 210.277 354.922 212.859 370.196C213.514 374.072 214.193 378.08 214.867 382.012C222.444 426.22 229.882 465.432 244.215 497.636C249.208 508.867 254.842 519.776 260.959 530.062C268.627 542.861 276.696 554.288 284.944 564.026C297.873 579.291 313.965 598.285 339.103 595.444C352.51 593.928 365.708 586.354 379.451 572.287C405.345 545.784 428.8 500.968 447.648 464.957C454.989 450.93 461.922 437.682 468.158 427.084C470.123 423.743 472.139 420.298 474.089 416.965C484.214 399.651 494.688 381.747 506.119 364.841C523.866 338.518 550.793 304.302 578.301 290.776C585.896 287.042 593.049 284.78 600.166 283.862C618.831 281.358 636.272 289.509 652.004 308.082C664.445 322.772 673.494 343.669 678.172 368.517C683.428 396.254 683.937 429.317 679.681 466.795C677.729 483.985 674.761 502.069 670.862 520.546C667.137 538.194 662.543 556.294 657.208 574.343L656.633 574.37C680.143 494.841 687.573 421.931 677.553 369.07C672.892 344.316 663.878 323.498 651.485 308.864C635.828 290.375 618.483 282.262 599.935 284.75C592.87 285.66 585.773 287.904 578.234 291.611C550.916 305.042 524.133 339.085 506.474 365.279C495.071 382.14 484.614 400.021 474.5 417.312C472.551 420.645 470.535 424.093 468.567 427.436C462.353 437.998 455.428 451.227 448.099 465.234C438.614 483.355 427.866 503.893 416.423 522.871C403.275 544.68 391.243 561.055 379.64 572.931C373.02 579.706 366.371 585.086 359.879 588.921C352.885 593.053 345.813 595.548 338.864 596.331C332.763 597.024 326.928 596.497 321.264 594.727Z" fill="#FFE492"/>
<path d="M327.167 601.544C321.498 599.772 316.065 596.63 310.775 592.081C302.202 584.715 295.192 574.745 289.008 565.948C281.222 554.875 273.694 542.157 266.635 528.144C260.993 516.877 255.826 505.006 251.278 492.858C238.755 459.45 232.831 419.584 226.558 377.382C226.247 375.294 225.937 373.203 225.625 371.112C222.7 351.504 219.677 331.228 215.658 312.108C208.03 275.992 193.174 251.538 171.503 239.426C144.283 224.21 106.374 227.674 58.8286 249.716C35.0466 260.741 9.37942 275.985 -13.4447 292.639C-30.6788 305.214 -46.6999 320.416 -63.6624 336.513C-65.6707 338.419 -67.6847 340.33 -69.7089 342.244C-73.7556 346.075 -78.5626 350.615 -83.5398 355.24C-92.769 363.83 -104.945 374.607 -117.282 381.722C-130.646 389.429 -142.21 391.872 -152.633 389.186C-161.178 386.926 -169.472 381.79 -177.989 373.478C-185.302 366.343 -191.752 357.99 -198.827 348.6C-205.255 339.959 -212.095 330.97 -218.846 324.335C-238.844 304.681 -260.883 286.054 -284.349 268.968L-283.856 268.078C-260.375 285.171 -238.324 303.812 -218.316 323.475C-211.546 330.129 -204.697 339.131 -198.26 347.781C-186.403 363.522 -171.648 383.116 -152.245 388.244C-130.004 393.973 -106.155 375.415 -83.6953 354.505C-78.7216 349.885 -73.9169 345.347 -69.8726 341.518C-67.8484 339.604 -65.8344 337.692 -63.8284 335.789C-46.838 319.666 -30.7889 304.438 -13.4989 291.822C9.37183 275.135 35.0887 259.861 58.9162 248.815C106.605 226.707 144.641 223.242 171.965 238.515C182.441 244.371 191.422 253.173 198.654 264.674C206.415 277.013 212.356 292.771 216.315 311.502C220.338 330.643 223.364 350.93 226.29 370.551C226.601 372.645 226.913 374.733 227.224 376.822C233.49 418.987 239.41 458.814 251.908 492.159C256.45 504.29 261.609 516.145 267.243 527.393C274.293 541.384 281.808 554.085 289.583 565.142C301.803 582.519 317.011 604.145 342.075 602.195C355.652 601.139 368.935 593.52 382.677 578.905C409.035 551.024 432.194 503.085 450.803 464.568C457.46 450.792 463.746 437.78 469.35 427.421C470.506 425.283 471.668 423.134 472.834 420.973C483.372 401.457 494.27 381.274 506.402 362.045C523.814 334.377 550.567 297.841 579.144 280.915C587.116 276.192 594.685 273.008 602.286 271.179C612.871 268.589 623.227 269.053 633.066 272.555C642.05 275.751 650.644 281.487 658.61 289.599C672.126 303.36 681.941 323.752 686.994 348.571C692.673 376.312 693.162 409.689 688.446 447.767C686.283 465.239 683.012 483.62 678.726 502.398C674.62 520.382 669.576 538.779 663.73 557.078L663.128 557.07C688.602 477.334 697.061 401.558 686.337 349.173C681.304 324.462 671.532 304.155 658.075 290.45C641.484 273.551 622.124 267.212 602.089 272.114C594.546 273.929 587.035 277.089 579.124 281.775C550.744 298.585 524.134 334.934 506.809 362.465C494.71 381.643 483.828 401.796 473.304 421.288C472.137 423.448 470.975 425.6 469.819 427.737C464.234 438.058 457.956 451.053 451.311 464.809C432.648 503.437 409.421 551.514 382.895 579.574C376.27 586.618 369.587 592.159 363.036 596.036C355.987 600.207 348.844 602.599 341.805 603.148C336.726 603.538 331.865 603.013 327.167 601.544Z" fill="#FFE492"/>
<path d="M332.532 608.396C326.072 606.377 320.005 602.428 314.19 596.49C305.964 588.089 299.394 576.93 293.599 567.088C286.275 554.649 279.303 540.653 272.872 525.495C267.715 513.276 263.024 500.456 258.927 487.396C248.834 455.244 244.276 418.297 239.451 379.179C238.663 372.784 237.846 366.172 237.014 359.663C234.088 336.79 231.345 317.827 227.472 299.633C219.649 263.009 203.648 239.487 179.913 229.717C150.089 217.441 108.767 226.109 57.0995 255.48C31.4314 270.073 4.0903 289.252 -19.8876 309.488C-37.9513 324.733 -54.5008 342.301 -72.0212 360.9C-74.1916 363.204 -76.3701 365.516 -78.5564 367.829C-82.4541 371.956 -87.6016 377.392 -92.8359 382.818C-114.89 405.718 -140.578 428.362 -163.866 422.651C-164.59 422.469 -165.309 422.266 -166.018 422.044C-183.738 416.505 -196.61 398.703 -209.29 379.355L-210.079 378.141C-216.334 368.498 -222.244 359.391 -228.258 352.226C-250.922 325.225 -273.769 301.272 -291.141 283.422L-290.571 282.513C-273.195 300.369 -250.341 324.327 -227.67 351.339C-221.639 358.522 -215.724 367.642 -209.46 377.296L-208.672 378.509C-195.527 398.566 -182.179 416.963 -163.459 421.651C-140.429 427.297 -114.949 404.825 -93.0587 382.097C-87.8277 376.675 -82.685 371.243 -78.7883 367.118C-76.601 364.804 -74.4249 362.493 -72.2545 360.189C-54.7064 341.561 -38.1306 323.964 -20.0093 308.671C4.01778 288.392 31.4139 269.174 57.1329 254.552C81.0034 240.982 103.029 231.718 122.6 227.014C145.055 221.617 164.492 222.196 180.368 228.73C204.226 238.549 220.309 262.187 228.169 298.981C232.047 317.204 234.792 336.187 237.723 359.079C238.556 365.589 239.371 372.203 240.161 378.598C244.981 417.677 249.534 454.589 259.609 486.677C263.7 499.721 268.384 512.52 273.534 524.721C279.954 539.86 286.916 553.834 294.229 566.253C305.709 585.752 319.997 610.017 345.058 608.939C358.757 608.348 372.121 600.686 385.913 585.515C412.734 556.133 435.565 504.987 453.91 463.89C459.896 450.481 465.55 437.815 470.553 427.748L470.667 427.518C481.871 404.977 493.456 381.67 506.694 359.239C518.221 339.667 529.942 322.495 541.53 308.196C554.597 292.075 567.538 279.575 579.996 271.042C588.331 265.333 596.319 261.224 604.415 258.483C626.318 251.005 647.347 255.367 665.226 271.103C672.422 277.435 678.702 285.584 683.896 295.321C689.119 305.115 693.133 316.32 695.828 328.619C701.931 356.369 702.401 390.053 697.223 428.736C692.569 463.506 683.246 501.915 670.264 539.807L669.637 539.763C697.424 458.663 706.717 381.941 695.132 329.271C689.728 304.609 679.197 284.814 664.676 272.036C646.898 256.391 626.005 252.047 604.254 259.475C596.221 262.195 588.298 266.271 580.027 271.934C556.767 287.867 531.569 318.198 507.156 359.646C493.952 382.019 482.384 405.294 471.195 427.803L471.081 428.033C466.096 438.062 460.45 450.71 454.472 464.1C436.07 505.323 413.17 556.623 386.16 586.211C379.511 593.527 372.792 599.221 366.196 603.135C359.083 607.355 351.87 609.649 344.754 609.957C340.517 610.137 336.452 609.622 332.532 608.396Z" fill="#FFE492"/>
<path d="M-177.487 455.471C-185.411 452.994 -192.891 447.623 -200.283 439.118C-207.628 430.668 -213.979 420.187 -219.75 410.121C-220.791 408.291 -221.822 406.466 -222.845 404.655C-227.94 395.638 -232.753 387.121 -237.664 380.123C-257.251 352.226 -276.369 326.679 -294.86 301.976L-297.924 297.882L-297.286 296.962L-294.223 301.056C-275.732 325.764 -256.61 351.312 -237.02 379.216C-232.095 386.231 -227.275 394.758 -222.175 403.788C-221.153 405.599 -220.122 407.423 -219.081 409.251C-207.235 429.914 -194.049 450.472 -174.667 455.066C-150.806 460.632 -123.52 433.743 -102.416 409.698C-97.0146 403.55 -91.7124 397.397 -87.697 392.725C-85.4824 390.15 -83.2757 387.575 -81.0746 385.007C-62.8246 363.717 -45.5868 343.607 -26.5125 325.528C-1.33669 301.669 27.7379 278.502 55.356 260.3C80.9788 243.413 104.769 231.178 126.068 223.939C150.499 215.634 171.596 213.957 188.775 218.952C214.695 226.306 231.943 249.024 240.03 286.469C244.504 307.247 247.157 329.039 249.162 347.618C250.253 357.728 251.251 368.054 252.217 378.04C255.634 413.392 259.168 449.945 267.315 481.204C270.952 495.17 275.163 508.917 279.829 522.059C285.615 538.294 292.024 553.541 298.88 567.376C309.597 588.999 322.934 615.91 348.046 615.69C361.867 615.568 375.313 607.862 389.153 592.132C416.456 561.189 438.91 506.732 456.951 462.975C462.287 450.036 467.326 437.812 471.761 428.089C481.755 406.17 493.545 380.75 506.992 356.446C518.374 335.848 530.022 317.635 541.611 302.315C554.722 284.985 567.924 271.147 580.853 261.185C589.419 254.583 598.064 249.409 606.547 245.803C618.663 240.632 630.584 238.725 641.98 240.14C652.652 241.464 662.7 245.663 671.845 252.618C679.557 258.485 686.295 266.275 691.872 275.775C697.483 285.334 701.789 296.404 704.666 308.676C707.989 322.809 709.748 338.822 709.892 356.271C710.03 372.804 708.721 390.785 706.004 409.713C700.921 445.125 690.822 484.145 676.801 522.547L676.149 522.463C706.257 439.996 716.383 362.33 703.931 309.379C698.237 285.105 686.644 265.302 671.283 253.618C652.29 239.171 629.863 236.823 606.427 246.826C598.012 250.403 589.436 255.537 580.937 262.086C556.577 280.857 531.872 312.729 507.509 356.823C494.096 381.06 482.328 406.437 472.35 428.321C467.932 438.01 462.9 450.214 457.572 463.138C448.671 484.724 438.582 509.192 427.211 532.34C414.017 559.201 401.66 578.991 389.436 592.845C382.763 600.43 376.01 606.28 369.366 610.233C362.19 614.502 354.904 616.699 347.713 616.761C344.084 616.793 340.7 616.264 337.535 615.275C318.582 609.35 307.424 586.834 298.198 568.218C291.332 554.362 284.913 539.093 279.12 522.834C274.447 509.674 270.231 495.907 266.588 481.921C258.424 450.598 254.886 414.006 251.465 378.621C250.5 368.638 249.502 358.314 248.412 348.21C246.41 329.654 243.762 307.892 239.295 287.154C231.252 249.909 214.106 227.323 188.334 220.005C147.965 208.268 93.7505 235.951 55.3777 261.243C27.8149 279.409 -1.19963 302.525 -26.3228 326.337C-45.3402 344.362 -62.5521 364.44 -80.7738 385.697C-82.9749 388.265 -85.183 390.839 -87.3985 393.416C-91.4164 398.091 -96.7219 404.248 -102.128 410.402C-110.987 420.496 -124.338 435.048 -137.944 444.83C-144.552 449.581 -150.865 452.964 -156.709 454.887C-163.225 457.032 -169.411 457.448 -175.091 456.122C-175.897 455.936 -176.696 455.719 -177.487 455.471Z" fill="#FFE492"/>
<path d="M-188.965 488.891C-196.898 486.411 -204.272 480.839 -211.433 471.933C-218.848 462.714 -225.088 451.061 -230.212 440.875C-231.785 437.741 -233.338 434.576 -234.841 431.515C-239.041 422.958 -243.008 414.873 -247.076 408.013C-261.684 383.376 -276.328 359.204 -290.491 335.826C-295.175 328.093 -300.019 320.098 -304.709 312.337L-304.007 311.405C-299.318 319.166 -294.474 327.161 -289.79 334.894C-275.627 358.272 -260.981 382.448 -246.373 407.087C-242.294 413.966 -238.321 422.058 -234.117 430.627C-232.616 433.688 -231.062 436.851 -229.492 439.984C-218.861 461.102 -205.848 484.007 -185.882 488.475C-161.349 493.917 -133.393 463.98 -111.777 437.293C-106.238 430.457 -100.762 423.567 -96.6107 418.328C-94.4793 415.64 -92.3543 412.952 -90.2337 410.27C-71.1647 386.153 -53.1543 363.374 -33.0203 342.386C-6.83397 315.089 23.9198 287.978 53.5729 266.048C94.7981 235.671 153.175 201.148 197.173 209.179C225.191 214.2 243.6 235.994 251.882 273.96C255.601 291.025 258.287 310.207 260.591 336.162C261.757 349.278 262.699 362.79 263.612 375.854C265.987 409.844 268.441 444.99 275.01 475.741C278.192 490.641 281.928 505.331 286.115 519.405C291.19 536.434 297.047 552.955 303.52 568.509C313.511 592.29 325.944 621.89 351.021 622.451C364.739 622.832 378.653 614.86 392.379 598.762C420.189 566.191 443.15 505.858 459.913 461.806C464.618 449.443 469.061 437.766 472.955 428.443C481.607 407.723 493.326 380.5 507.277 353.666C531.437 307.162 556.476 272.733 581.697 251.341C590.557 243.797 599.631 237.672 608.667 233.136C621.526 226.672 634.225 223.589 646.413 223.978C657.894 224.345 668.672 227.765 678.451 234.145C686.679 239.582 693.869 247.024 699.825 256.26C705.838 265.589 710.436 276.516 713.493 288.74C717.03 302.866 718.889 318.964 719.016 336.588C719.138 353.291 717.71 371.495 714.772 390.701C709.256 426.756 698.382 466.384 683.325 505.3L682.652 505.172C715.091 421.336 726.05 342.724 712.72 289.496C706.682 265.35 694.309 246.072 677.882 235.216C657.57 221.968 633.611 221.616 608.589 234.196C599.627 238.694 590.626 244.77 581.837 252.254C556.784 273.504 531.892 307.74 507.851 354.015C493.938 380.776 482.243 407.946 473.607 428.626C469.729 437.916 465.29 449.578 460.591 461.925C451.925 484.695 442.102 510.507 430.782 535.165C417.599 563.876 405.142 584.92 392.696 599.496C385.991 607.361 379.202 613.373 372.515 617.365C365.266 621.694 357.911 623.786 350.654 623.586C339.375 623.332 329.683 617.362 321.024 605.333C313.498 594.875 307.805 581.324 302.782 569.371C296.298 553.794 290.434 537.25 285.351 520.198C281.157 506.103 277.416 491.392 274.229 476.472C267.645 445.659 265.188 410.474 262.812 376.449C261.9 363.388 260.956 349.884 259.792 336.779C257.491 310.869 254.809 291.724 251.1 274.699C242.869 236.952 224.58 215.29 196.741 210.301C152.93 202.307 94.7418 236.727 53.6404 267.012C24.0466 288.898 -6.64286 315.951 -32.7739 343.191C-52.8517 364.12 -70.8361 386.867 -89.8758 410.949C-91.9974 413.632 -94.1224 416.32 -96.2538 419.008C-100.409 424.252 -105.889 431.149 -111.434 437.991C-133.241 464.916 -161.462 495.115 -186.332 489.597C-187.215 489.398 -188.095 489.163 -188.965 488.891Z" fill="#FFE492"/>
<path d="M-200.39 522.331C-222.067 515.555 -234.904 485.387 -246.283 458.642C-249.78 450.424 -253.082 442.661 -256.487 435.905L-311.492 326.794L-310.734 325.854L-255.729 434.965C-252.314 441.737 -249.007 449.509 -245.506 457.739C-233.688 485.517 -220.291 517.003 -197.097 521.888C-171.914 527.195 -143.275 494.216 -121.14 464.895C-113.9 455.305 -106.676 445.502 -99.6894 436.022C-80.5815 410.096 -60.8236 383.285 -39.5285 359.241C-22.6195 340.151 -3.40121 320.594 16.047 302.687C37.3828 283.043 58.6995 265.564 79.4016 250.737C102.227 234.392 123.749 221.696 143.368 213.003C165.069 203.391 184.383 198.723 200.778 199.13C233.622 199.947 254.805 220.911 263.735 261.442C271.157 295.122 272.873 334.438 274.531 372.46C275.975 405.555 277.469 439.774 282.708 470.265C288.762 505.482 297.326 538.913 308.166 569.627C317.299 595.505 328.664 627.715 354.005 629.195C375.407 630.447 396.221 611.53 417.636 571.358C435.852 537.189 450.802 494.574 462.815 460.334C466.908 448.665 470.776 437.643 474.156 428.782C492.793 379.932 511.214 340.555 530.47 308.404C542.485 288.344 554.943 271.01 567.499 256.882C581.523 241.101 596.09 228.843 610.793 220.451C623.513 213.191 636.143 208.978 648.333 207.929C659.938 206.932 670.898 208.808 680.909 213.506C700.599 222.745 715.307 242.378 722.323 268.786C726.075 282.902 728.033 299.086 728.145 316.887C728.251 333.757 726.704 352.188 723.545 371.669C717.595 408.368 705.943 448.606 689.852 488.03L689.158 487.859C723.424 403.903 735.519 322.307 721.51 269.592C706.635 213.61 660.055 193.4 610.751 221.541C561.911 249.418 517.463 317.247 474.866 428.905C471.496 437.738 467.635 448.746 463.546 460.4C451.508 494.715 436.526 537.421 418.227 571.745C408.26 590.44 398.193 604.822 388.308 614.495C382.748 619.931 377.102 624.031 371.526 626.674C365.591 629.486 359.561 630.736 353.601 630.387C351.164 630.245 348.807 629.819 346.53 629.107C338.231 626.513 330.953 620.115 324.432 609.724C317.085 598.017 311.699 582.755 307.371 570.492C296.517 539.734 287.94 506.259 281.877 470.992C276.624 440.435 275.131 406.176 273.685 373.046C272.029 335.073 270.316 295.806 262.912 262.211C254.04 221.955 233.004 201.131 200.387 200.321C134.407 198.681 29.9291 281.965 -39.2233 360.039C-60.4605 384.015 -80.1918 410.789 -99.2742 436.681C-106.264 446.165 -113.492 455.975 -120.739 465.573C-135.435 485.039 -147.474 498.504 -158.624 507.944C-165.583 513.833 -172.227 518.115 -178.37 520.668C-185.201 523.507 -191.661 524.316 -197.57 523.072C-198.523 522.867 -199.465 522.621 -200.39 522.331Z" fill="#FFE492"/>
</g>
</g>
</svg>
