<svg width="17" height="17" viewBox="0 0 17 17" fill="none" xmlns="http://www.w3.org/2000/svg">
<path d="M6.5058 9.41763C6.44316 9.41763 5.06497 9.41763 4.43852 9.41763C4.10441 9.41763 4 9.29234 4 8.97912C4 8.14385 4 7.2877 4 6.45244C4 6.11833 4.12529 6.01392 4.43852 6.01392H6.5058C6.5058 5.95128 6.5058 4.74014 6.5058 4.17633C6.5058 3.34107 6.65197 2.54756 7.06961 1.81671C7.50812 1.06497 8.13457 0.563805 8.92807 0.271462C9.45012 0.0835265 9.97216 0 10.536 0H12.5824C12.8747 0 13 0.12529 13 0.417633V2.79814C13 3.09049 12.8747 3.21578 12.5824 3.21578C12.0186 3.21578 11.4548 3.21578 10.891 3.23666C10.3271 3.23666 10.0348 3.50812 10.0348 4.09281C10.0139 4.71926 10.0348 5.32483 10.0348 5.97216H12.4571C12.7912 5.97216 12.9165 6.09745 12.9165 6.43156V8.95824C12.9165 9.29234 12.8121 9.39675 12.4571 9.39675C11.7053 9.39675 10.0974 9.39675 10.0348 9.39675V16.2042C10.0348 16.5592 9.93039 16.6845 9.55452 16.6845C8.67749 16.6845 7.82135 16.6845 6.94432 16.6845C6.63109 16.6845 6.5058 16.5592 6.5058 16.2459C6.5058 14.0534 6.5058 9.48028 6.5058 9.41763Z" fill="#D9D9D9"/>
</svg>
