<svg width="17" height="17" viewBox="0 0 17 17" fill="none" xmlns="http://www.w3.org/2000/svg">
<path d="M15.9962 15.9999L15.9999 15.9993V10.4808C15.9999 7.78105 15.4246 5.70142 12.3002 5.70142C10.7983 5.70142 9.79033 6.53402 9.37884 7.32337H9.3354V5.95346H6.37305V15.9993H9.45767V11.025C9.45767 9.71524 9.70344 8.44877 11.3091 8.44877C12.8911 8.44877 12.9147 9.94345 12.9147 11.109V15.9999H15.9962Z" fill="#D9D9D9"/>
<path d="M1.22461 5.92554H4.35894V15.7763H1.22461V5.92554Z" fill="#D9D9D9"/>
<path d="M2.79104 1C1.8023 1 1 1.79856 1 2.78269C1 3.76683 1.8023 4.58209 2.79104 4.58209C3.77979 4.58209 4.58209 3.76683 4.58209 2.78269C4.58147 1.79856 3.77916 1 2.79104 1Z" fill="#D9D9D9"/>
</svg>
