<svg width="712" height="626" viewBox="0 0 712 626" fill="none" xmlns="http://www.w3.org/2000/svg">
<g opacity="0.2">
<path d="M710.671 193.809C712.273 199.788 712.13 207.481 710.019 218.239C704.148 246.863 673.139 282.911 640.335 320.988C622.331 341.939 603.701 363.574 589.205 384.188C561.566 416.021 548.666 460.892 536.147 504.328C527.015 536.062 518.357 566.035 504.487 591.168L504.456 591.22C493.535 610.23 480.978 621.121 466.095 624.507C437.053 631.127 403.418 608.014 364.474 581.206L360.728 578.64C331.748 558.796 293.533 534.373 236.872 499.367L232.198 496.362C182.862 464.683 121.456 425.229 74.5993 365.362C-28.2767 247.869 -8.43075 115.597 37.4572 63.22C92.3582 6.70802 162.643 -8.51198 306.209 4.97002C455.927 19.256 591.279 103.491 642.509 139.049C660.396 154.426 674.931 163.175 685.543 169.535C698.96 177.637 707.747 182.895 710.671 193.809ZM499.512 588.717C513.08 564.137 521.635 534.45 530.716 503.031C543.369 459.086 556.464 413.603 584.73 381.086C599.215 360.433 617.95 338.683 636.027 317.669C668.34 280.111 698.869 244.622 704.486 217.399C709.674 190.593 702.807 186.455 682.417 174.157C671.637 167.67 656.838 158.777 638.835 143.302C588.176 108.193 453.836 24.547 305.453 10.377C163.959 -2.92999 94.9012 11.832 41.5562 66.767C-2.94275 117.61 -21.9778 246.697 78.9512 361.96C125.373 421.212 186.347 460.395 235.314 491.871L239.977 494.836C296.691 529.871 334.958 554.323 364.002 574.237L367.748 576.802C405.594 602.873 438.29 625.334 464.834 619.297C478.1 616.258 489.412 606.26 499.512 588.717Z" fill="#A7CEFC"/>
<path d="M674.827 212.144C677.042 220.41 676.615 229.899 674.93 243.253L674.91 243.516C668.973 269.878 644.621 296.014 618.869 323.643C601.252 342.513 583.092 362.044 568.486 383.59C543.85 415.048 527.658 450.652 511.995 485.04C501.497 508.151 491.56 529.994 479.457 549.967L479.196 550.338C442.423 594.252 416.337 576.814 368.956 545.214C363.806 541.777 358.382 538.155 352.611 534.412C342.496 526.715 331.327 518.612 319.483 510.002C266.818 471.775 194.698 419.366 125.412 336.738C48.2777 233.721 57.7987 135.611 101.421 84.013C147.288 31.727 218.41 28.195 341.965 40.03C467.854 55.54 563.862 119.697 615.432 154.175L621.183 158.009C656.184 184.541 670.526 196.094 674.827 212.144ZM669.355 242.596C673.897 206.157 669.213 201.435 617.804 162.355L612.211 158.607C561.031 124.412 465.742 60.751 341.282 45.374C219.799 33.715 149.958 36.99 105.782 87.36C63.5578 137.293 54.6307 232.75 129.953 333.371C198.72 415.407 270.545 467.551 322.957 505.674C334.801 514.284 345.97 522.387 356.021 530.015C361.634 533.672 367.058 537.293 372.25 540.718C419.684 572.348 441.38 586.833 474.742 547.145C486.616 527.492 496.428 505.854 506.853 482.977C522.609 448.264 538.958 412.403 563.896 380.562C578.627 358.811 596.964 339.103 614.717 320.068C639.873 293.072 663.662 267.517 669.355 242.596Z" fill="#A7CEFC"/>
<path d="M644.99 227.708C647.817 238.261 646.495 249.109 643.048 263.106C635.666 286.931 613.484 310.422 590.048 335.28C576.096 350.028 561.705 365.323 549.149 381.761C528.871 405.473 513.051 431.386 497.71 456.398C485.126 476.929 473.272 496.319 460.054 512.633L459.845 512.861C423.757 548.421 397.216 528.782 349.012 493.102L348.452 492.693L340.203 485.915C293.369 447.287 229.212 394.378 171.416 313.832C107.776 217.521 125.705 140.553 160.326 103.881C197.244 64.702 258.431 55.489 371.514 72.065C450.692 84.996 528.131 119.982 601.671 176.011C628.384 198.14 640.947 212.621 644.99 227.708ZM455.693 509.286C468.629 493.262 480.4 474.067 492.817 453.752C508.241 428.547 524.238 402.456 544.684 378.528C557.291 361.947 571.839 346.567 585.896 331.704C608.925 307.342 630.647 284.32 637.617 261.809C645.539 229.926 641.536 216.162 598.028 180.212C525.238 124.8 448.663 90.184 370.475 77.418C259.547 61.168 199.839 69.856 164.394 107.479C128.478 145.53 118.141 223.13 176.054 310.826C233.404 390.717 297.223 443.373 343.867 481.794L352.454 488.825C400.996 524.759 423.219 541.211 455.693 509.286Z" fill="#A7CEFC"/>
<path d="M617.12 239.218C620.281 251.015 619.009 263.225 614.01 277.81L613.989 277.902C605.631 300.096 584.552 321.829 562.283 344.826C551.952 355.464 541.319 366.484 531.446 377.989C516.69 393.77 503.599 410.394 490.989 426.46C475.49 446.181 460.835 464.859 445.447 478.615C412.085 504.37 386.292 486.682 347.673 454.54C310.285 420.778 255.681 367.76 212.707 296.36C177.006 226.752 174.94 168 206.803 130.778C241.119 90.619 309.738 79.93 395.084 101.444C494.094 121.404 563.718 176.245 582.671 192.584C602.136 210.161 613.142 224.372 617.12 239.218ZM608.682 276.228C617.977 248.965 615.888 230.087 578.807 196.63C560.149 180.556 491.434 126.417 393.665 106.727C310.446 85.761 243.935 95.756 211.132 134.176C180.783 169.66 183.141 226.312 217.726 293.768C260.275 364.422 314.467 417.077 351.548 450.534C391.276 483.626 413.164 496.813 441.902 474.619C456.736 461.312 471.224 442.851 486.588 423.295C499.302 407.116 512.413 390.4 527.284 374.546C537.147 363.001 547.905 351.947 558.267 341.257C580.055 318.647 600.706 297.33 608.682 276.228Z" fill="#A7CEFC"/>
<path d="M591.333 248.407C594.688 260.926 593.282 273.645 587.504 288.01L587.296 288.409C551.085 347.182 454.57 431.058 435.613 447.276L435.152 447.572C406.18 464.022 382.977 450.628 350.307 420.204C320.851 391.197 279.588 343.981 250.049 283.602C224.676 227.526 225.915 180.103 253.523 149.998C284.201 116.576 342.327 108.7 413 128.339C480.34 144.27 535.205 179.628 564.065 207.418C578.867 222.03 587.774 235.126 591.333 248.407ZM582.363 285.947C593.306 258.458 587.246 238.192 560.021 211.297C531.7 184.008 477.774 149.301 411.434 133.575C343.825 114.792 286.4 122.266 257.706 153.522C231.623 181.928 230.697 227.332 255.185 281.28C284.394 340.93 325.244 387.612 354.351 416.325C385.594 445.454 406.257 457.593 432.193 443.075C486.649 396.487 554.623 330.838 582.363 285.947Z" fill="#A7CEFC"/>
<path d="M567.61 257.086C571.201 270.488 569.65 283.332 562.98 294.538C536.763 339.236 471.395 395.972 429.082 418.879C419.104 423.444 408.227 423.65 396.705 419.598C361.189 407.095 318.982 353.165 283.809 275.287C266.84 230.592 270.544 192.873 294.237 168.978C321.085 141.915 369.166 136.171 426.097 153.214C498.428 175.85 550.451 212.184 565.363 250.377C566.28 252.626 567.019 254.879 567.61 257.086ZM283.505 256.188C284.989 261.725 286.82 267.384 289.041 273.154C323.553 349.574 364.588 402.486 398.744 414.45C408.877 418.014 418.24 417.87 426.615 414.035C468.058 391.577 532.381 335.808 558.129 291.881C565.007 280.276 565.702 266.585 560.13 252.338C545.794 215.625 495.029 180.459 424.32 158.334C370.327 142.182 323.21 147.495 298.274 172.627C279.188 191.89 274.119 221.159 283.505 256.188Z" fill="#A7CEFC"/>
<path d="M544.192 262.027C547.525 274.466 546.263 286.545 540.41 297.273C519.662 335.517 466.066 380.112 425.74 392.637L425.656 392.66C388.144 402.926 341.295 351.486 314.343 270.374C304.054 235.5 309.333 206.175 329.306 187.706C352.196 166.521 390.723 162.391 435.044 176.362C489.035 193.848 528.918 223.157 541.763 254.808C542.734 257.257 543.558 259.66 544.192 262.027ZM424.175 387.466C463.283 375.266 515.3 331.998 535.435 294.822C541.62 283.488 541.983 270.403 536.521 256.901C524.242 226.689 485.605 198.509 433.141 181.516C390.884 168.196 354.393 171.867 333.092 191.595C314.749 208.594 309.932 235.947 319.662 268.734C345.265 345.649 390.219 396.736 424.175 387.466Z" fill="#A7CEFC"/>
<path d="M521.839 266.081C524.753 276.955 523.871 287.599 519.126 297.256C502.608 331.141 459.491 363.638 424.93 368.297C391.616 372.235 355.208 328.362 342.026 268.59C336.633 242.253 342.68 220.162 358.993 206.329C377.69 190.482 407.342 187.482 440.303 198.175C478.93 210.876 508.4 233.385 519.144 258.374C520.284 260.95 521.151 263.513 521.839 266.081ZM349.777 276.533C363.819 328.936 395.564 366.318 424.341 362.907C456.602 358.564 498.536 326.857 514.078 295.039C519.186 284.553 519.146 272.651 513.965 260.536C503.807 236.895 475.543 215.525 438.389 203.29C407.397 193.23 379.792 195.81 362.633 210.343C347.93 222.797 342.566 243.071 347.505 267.38C348.238 270.452 348.971 273.524 349.777 276.533Z" fill="#A7CEFC"/>
<path d="M500.378 269.596C502.722 278.343 502.206 286.997 498.828 295.041C487.088 322.915 454.506 345.536 426.191 345.468C398.138 345.201 372.334 311.69 367.444 269.263C365.407 250.413 371.251 234.612 383.909 224.77C398.24 213.618 419.626 211.501 442.583 218.939C468.815 227.521 488.826 243.104 497.451 261.693C498.686 264.287 499.668 266.948 500.378 269.596ZM426.358 340.048C452.067 340.126 482.879 318.624 493.635 293.121C497.459 284.054 497.01 273.982 492.346 263.964C484.414 246.952 465.111 231.997 440.7 224.002C419.618 217.18 400.217 218.981 387.402 228.908C376.302 237.516 371.216 251.609 373.052 268.534C377.523 307.719 401.458 339.796 426.358 340.048Z" fill="#A7CEFC"/>
<path d="M479.555 272.809C481.179 278.868 481.111 285.165 478.962 291.246C471.937 311.535 449.407 326.173 428.783 323.915C408.232 321.594 391.223 298.241 390.885 271.797C390.717 259.585 395.574 249.339 404.48 242.953C414.296 235.936 428.119 234.469 442.355 238.911C461.91 245.068 475.663 258.284 479.555 272.809ZM473.676 289.652C479.74 272.158 464.903 251.706 440.537 244.043C428.069 240.159 416.094 241.303 407.796 247.268C400.397 252.562 396.371 261.21 396.507 271.624C396.829 295.492 411.649 316.55 429.55 318.549C447.671 320.531 467.457 307.575 473.676 289.652Z" fill="#A7CEFC"/>
<path d="M459.207 276.283C460.089 279.574 460.151 282.997 459.257 286.376C456.195 297.948 444.059 305.544 432.159 303.271C420.405 301.044 411.723 288.62 412.832 275.636C413.362 269.387 416.358 264.112 421.33 260.844C426.564 257.377 433.527 256.501 440.402 258.486C450.12 261.344 457.067 268.298 459.207 276.283ZM419.144 283.578C421.09 290.84 426.58 296.723 433.409 298.033C442.364 299.719 451.536 293.993 453.816 285.211C456.15 276.458 449.333 266.801 438.658 263.727C433.341 262.184 428.32 262.755 424.426 265.347C420.909 267.666 418.777 271.462 418.384 276.04C418.221 278.621 418.499 281.17 419.144 283.578Z" fill="#A7CEFC"/>
</g>
</svg>
