<svg width="299" height="22" viewBox="0 0 299 22" fill="none" xmlns="http://www.w3.org/2000/svg">
<path d="M280.718 11.486C280.309 11.5042 279.895 11.5167 279.494 11.544C279.234 11.561 279.122 11.511 278.949 11.4849C278.891 11.4758 278.829 11.4576 278.775 11.4599C278.37 11.478 277.965 11.4985 277.56 11.519C277.436 11.5633 277.357 11.6224 277.167 11.644C276.981 11.6645 276.762 11.6645 276.555 11.6747C276.283 11.6872 276.01 11.6997 275.737 11.7111C275.601 11.7168 275.489 11.7384 275.444 11.7793C275.435 11.7861 275.526 11.8032 275.576 11.8134C275.741 11.8475 275.902 11.8861 276.084 11.9123C276.258 11.9373 276.473 11.8964 276.659 11.9282C277.076 11.9998 277.08 11.9987 277.399 11.985C277.672 11.9725 277.944 11.9589 278.217 11.9498C278.271 11.9475 278.333 11.9646 278.391 11.9737C278.564 11.9987 278.676 12.0555 278.932 12.0339C279.127 12.0169 279.341 12.0135 279.544 12.0044C279.713 12.0373 279.871 12.0748 280.052 12.101C280.222 12.126 280.272 12.1453 280.181 12.1783C280.098 12.209 279.982 12.2215 279.829 12.2238C279.693 12.2249 279.556 12.2351 279.42 12.2408C279.35 12.2442 279.284 12.2465 279.217 12.2499C278.957 12.2624 278.957 12.2624 278.482 12.1897C278.296 12.1612 278.085 12.201 277.907 12.1737C277.787 12.1556 277.684 12.1283 277.568 12.109C277.519 12.101 277.44 12.0999 277.378 12.1021C277.171 12.1101 276.965 12.1158 276.766 12.1306C276.626 12.1408 276.543 12.1726 276.56 12.2044C276.564 12.2169 276.663 12.2351 276.721 12.2363C276.853 12.2386 276.994 12.2226 277.122 12.2306C277.246 12.2385 277.374 12.2613 277.465 12.2863C277.651 12.3386 277.862 12.292 278.039 12.3056C278.225 12.3204 278.378 12.3659 278.556 12.3932C278.601 12.4 278.688 12.3886 278.759 12.3852C278.961 12.3772 279.164 12.3704 279.366 12.3625C279.536 12.3954 279.718 12.425 279.871 12.4625C280.148 12.5307 280.445 12.5568 280.805 12.5239C281.007 12.5057 281.206 12.5125 281.367 12.5568C281.532 12.6023 281.722 12.5978 281.933 12.5887C282.127 12.5796 282.326 12.5546 282.524 12.5864C282.954 12.6569 282.958 12.6603 283.467 12.633C283.62 12.6251 283.735 12.6228 283.851 12.6489C283.959 12.6728 284.074 12.6933 284.186 12.716C284.389 12.708 284.595 12.7001 284.798 12.691C285.058 12.6785 285.203 12.6944 285.265 12.7581C285.302 12.7967 285.319 12.8319 285.409 12.8581C285.517 12.8899 285.633 12.8888 285.79 12.8797C285.939 12.8717 286.046 12.8592 286.108 12.8183C286.133 12.8013 286.182 12.7853 286.228 12.7717C286.265 12.7615 286.323 12.7456 286.356 12.7478C286.418 12.7524 286.501 12.7649 286.521 12.7796C286.724 12.9172 286.724 12.9183 286.931 12.9581C287.158 13.0025 287.394 13.0422 287.6 13.0923C287.786 13.1366 287.972 13.1173 288.175 13.1173C288.328 13.1173 288.427 13.1468 288.415 13.1764C288.406 13.1934 288.348 13.2184 288.299 13.2207C287.894 13.2434 287.485 13.2628 287.075 13.2787C287.026 13.281 286.964 13.2605 286.906 13.2503C286.79 13.2298 286.687 13.198 286.563 13.1912C286.439 13.1843 286.294 13.2014 286.158 13.2071C286.021 13.2128 285.877 13.2275 285.753 13.2185C285.629 13.2094 285.529 13.1764 285.414 13.1548C285.36 13.1446 285.286 13.1298 285.24 13.1332C284.938 13.1605 284.715 13.123 284.5 13.0729C284.455 13.0627 284.376 13.0559 284.318 13.0582C283.839 13.0775 283.363 13.1002 282.884 13.1218C282.69 13.1309 282.532 13.0911 282.491 13.0241C282.47 12.9865 282.429 12.949 282.429 12.9115C282.429 12.8433 282.202 12.8058 282.037 12.8138C281.764 12.8251 281.487 12.8342 281.218 12.8513C280.999 12.8649 280.813 12.8513 280.664 12.8103C280.491 12.7637 280.292 12.7728 280.094 12.7853C279.945 12.7944 279.904 12.8319 279.912 12.9263C279.92 13.0025 279.85 13.0263 279.581 13.0388C279.242 13.0547 278.899 13.0707 278.556 13.0832C278.502 13.0854 278.44 13.0661 278.387 13.0559C278.271 13.0354 278.167 13.0025 278.043 12.9956C277.919 12.9877 277.775 13.0047 277.638 13.0115C277.502 13.0172 277.357 13.0331 277.233 13.0252C277.109 13.0172 277.006 12.9831 276.894 12.9615C276.841 12.9513 276.774 12.9365 276.721 12.9388C276.448 12.9479 276.175 12.9615 275.902 12.974C275.596 12.9877 275.596 12.9877 275.162 12.9172C274.964 12.8854 274.766 12.9104 274.571 12.9195C274.365 12.9286 274.17 12.9331 274.009 12.8876C273.902 12.8581 273.782 12.8399 273.654 12.8456C273.311 12.8592 272.972 12.8763 272.629 12.8899C272.571 12.8922 272.492 12.8865 272.447 12.8763C272.228 12.8285 272.013 12.791 271.707 12.8149C271.442 12.8354 271.157 12.8365 270.892 12.8558C270.748 12.866 270.682 12.9024 270.711 12.9308C270.727 12.9456 270.814 12.9627 270.872 12.9627C271.004 12.9638 271.149 12.9468 271.273 12.9536C271.529 12.9672 271.657 13.0627 271.992 13.0366C272.19 13.0206 272.397 13.015 272.604 13.0104C272.657 13.0093 272.715 13.0309 272.773 13.0422C272.939 13.0729 273.083 13.1127 273.323 13.0923C273.521 13.0763 273.732 13.0718 273.935 13.0627C274.257 13.0479 274.257 13.0491 274.675 13.1184C274.873 13.1514 275.071 13.1252 275.266 13.1173C275.41 13.1116 275.547 13.1002 275.663 13.1161C275.84 13.14 275.968 13.1946 276.187 13.1912C276.394 13.1877 276.597 13.1718 276.803 13.1661C276.932 13.1627 277.051 13.1809 277.155 13.2116C277.262 13.2423 277.378 13.256 277.518 13.2491C277.721 13.24 277.928 13.2287 278.134 13.223C278.192 13.2219 278.258 13.2321 278.312 13.2412C278.428 13.2616 278.539 13.2855 278.651 13.3071C278.854 13.3003 279.06 13.298 279.259 13.2844C279.412 13.2741 279.519 13.2787 279.643 13.3014C279.8 13.3321 279.928 13.3867 280.185 13.3605C280.313 13.348 280.462 13.3514 280.59 13.3401C280.747 13.3253 280.854 13.331 280.966 13.3651C281.177 13.4299 281.441 13.431 281.714 13.406C282.012 13.3787 282.235 13.4106 282.458 13.4606C282.694 13.5129 282.694 13.5117 282.876 13.6379C282.929 13.6743 283.082 13.6913 283.21 13.6845C283.425 13.6732 283.611 13.6788 283.768 13.722C283.934 13.7686 284.132 13.763 284.335 13.7505C284.603 13.7334 284.872 13.7186 285.091 13.7846C285.199 13.8164 285.314 13.8243 285.459 13.8164C285.868 13.7959 286.282 13.7834 286.683 13.7584C286.927 13.7425 287.067 13.7789 287.232 13.8096C287.456 13.8516 287.699 13.8891 287.699 13.9789C287.699 13.9937 287.757 14.0108 287.807 14.0221C287.914 14.046 288.03 14.0665 288.142 14.0892C288.307 14.1233 288.468 14.1517 288.696 14.1335C288.894 14.1188 289.105 14.1142 289.307 14.104C289.51 14.0938 289.696 14.0881 289.878 14.1313C290.089 14.1801 290.312 14.2268 290.552 14.2631C290.721 14.2893 290.944 14.245 291.126 14.2802C291.238 14.3018 291.345 14.3268 291.465 14.345C291.515 14.3529 291.593 14.3473 291.659 14.345C291.796 14.3404 291.936 14.337 292.069 14.3257C292.222 14.3132 292.337 14.3154 292.453 14.3416C292.561 14.3655 292.668 14.3984 292.792 14.4052C292.978 14.4155 293.185 14.37 293.371 14.4223C293.466 14.4484 293.586 14.4734 293.71 14.4814C293.834 14.4894 293.978 14.4723 294.111 14.4734C294.168 14.4734 294.239 14.4916 294.272 14.5064C294.292 14.5144 294.264 14.536 294.235 14.5473C294.197 14.561 294.144 14.5792 294.09 14.5814C293.681 14.6019 293.272 14.619 292.862 14.6383C292.618 14.6496 292.618 14.6496 292.127 14.578C292.011 14.561 291.883 14.5644 291.738 14.5723C291.544 14.5826 291.345 14.6019 291.143 14.5814C290.878 14.5041 290.552 14.4973 290.204 14.5269C290.06 14.5394 289.927 14.5394 289.82 14.5178C289.593 14.4746 289.353 14.4348 289.15 14.3836C288.993 14.3439 288.919 14.3404 288.853 14.395C288.832 14.4121 288.811 14.4302 288.816 14.4462C288.84 14.503 288.886 14.5587 288.911 14.6155C288.919 14.6314 288.886 14.6496 288.865 14.6667C288.799 14.7144 288.712 14.711 288.568 14.6712C288.423 14.6314 288.249 14.6053 288.018 14.6235C287.819 14.6394 287.604 14.6371 287.406 14.6542C287.1 14.6792 286.885 14.6428 286.666 14.5939C286.621 14.5837 286.542 14.578 286.484 14.5803C285.868 14.6064 285.257 14.636 284.641 14.6621C284.508 14.6678 284.389 14.6508 284.285 14.6201C284.178 14.5894 284.058 14.5735 283.925 14.5792C283.38 14.603 282.834 14.6246 282.289 14.6542C282.065 14.6667 281.888 14.6519 281.735 14.6121C281.619 14.5826 281.512 14.5735 281.367 14.5769C281.21 14.5803 281.098 14.5917 281.02 14.6246C280.945 14.6565 280.999 14.6758 281.164 14.7008C281.342 14.7281 281.507 14.7633 281.677 14.7952C281.813 14.7906 281.95 14.7815 282.082 14.7826C282.14 14.7826 282.194 14.8031 282.251 14.8145C282.417 14.8474 282.57 14.8804 282.805 14.8622C283.004 14.8463 283.215 14.8429 283.417 14.8327C283.698 14.8202 283.698 14.8202 284.153 14.8918C284.269 14.91 284.393 14.9088 284.541 14.8986C284.67 14.8906 284.802 14.9065 284.893 14.9406C284.93 14.9543 284.918 14.977 284.839 15.0521C284.839 15.1078 284.926 15.0828 284.955 15.0464C285 14.9941 284.913 14.977 284.748 15.0055C284.632 15.0259 284.575 15.0555 284.603 15.0793C284.62 15.0919 284.699 15.1078 284.839 15.0521C285.203 14.9839 285.48 14.9759 285.744 14.9577C285.901 14.9475 286.001 14.952 286.125 14.9816C286.273 15.0168 286.422 15.0543 286.666 15.0361C286.931 15.0157 287.212 15.0134 287.48 14.9964C287.728 14.9804 287.857 15.0305 288.014 15.06C288.204 15.0953 288.415 15.0555 288.588 15.0759C288.77 15.0964 288.898 15.1464 289.109 15.1555C289.415 15.1248 289.609 15.1817 289.841 15.2192C290.023 15.2476 290.237 15.2226 290.432 15.2101C290.651 15.1964 290.833 15.2089 290.986 15.2499C291.159 15.2965 291.354 15.2862 291.552 15.276C292.015 15.2533 292.031 15.2499 292.3 15.3124C292.494 15.3578 292.68 15.3374 292.875 15.3317C293.044 15.3624 293.21 15.3954 293.387 15.4226C293.433 15.4295 293.52 15.4181 293.59 15.4147C293.792 15.4056 293.999 15.3965 294.202 15.3874C294.338 15.3817 294.483 15.3647 294.607 15.3715C294.731 15.3794 294.834 15.4124 294.946 15.434C295.057 15.4556 295.173 15.4772 295.28 15.4999C295.446 15.5341 295.603 15.5625 295.834 15.5454C296.033 15.5306 296.239 15.5261 296.446 15.5159C296.706 15.5034 296.698 15.5068 297.182 15.575C297.442 15.6125 297.711 15.567 297.975 15.5625C298.108 15.5602 298.236 15.5727 298.327 15.6057C298.364 15.6193 298.352 15.642 298.364 15.6614C297.682 15.6921 296.996 15.7182 296.322 15.7557C296.062 15.7705 295.925 15.7296 295.785 15.6955C295.553 15.6409 295.247 15.7205 295.028 15.65C294.896 15.6079 294.706 15.5841 294.478 15.6045C294.346 15.6159 294.206 15.6148 294.069 15.625C293.722 15.65 293.404 15.6511 293.127 15.5727C293.032 15.5454 292.895 15.5306 292.796 15.5045C292.68 15.4761 292.569 15.4602 292.432 15.4658C291.816 15.4931 291.205 15.5204 290.593 15.55C290.539 15.5522 290.485 15.5693 290.44 15.5818C290.324 15.6136 290.361 15.6386 290.547 15.6591C290.609 15.6659 290.659 15.6807 290.717 15.6921C290.829 15.7137 290.932 15.7478 291.056 15.7557C291.18 15.7637 291.325 15.7478 291.461 15.7421C291.597 15.7364 291.742 15.7193 291.866 15.7262C291.99 15.7341 292.093 15.7671 292.209 15.7876C292.263 15.7978 292.329 15.8148 292.383 15.8137C292.656 15.8069 292.924 15.7944 293.197 15.7841C293.367 15.8148 293.511 15.8592 293.714 15.8694C293.842 15.8762 293.978 15.8637 294.111 15.866C294.168 15.8671 294.243 15.8842 294.272 15.899C294.288 15.908 294.235 15.9308 294.193 15.9422C294.036 15.9854 293.821 15.9774 293.627 15.991C293.416 16.0058 293.226 16.0013 293.065 15.9569C292.957 15.9274 292.837 15.9115 292.705 15.9171C292.362 15.9319 292.023 15.949 291.68 15.9615C291.622 15.9638 291.552 15.9535 291.498 15.9456C291.064 15.8762 291.064 15.874 290.758 15.8887C290.308 15.9103 290.308 15.9103 290.006 15.8501C289.948 15.8387 289.886 15.8171 289.836 15.8182C289.357 15.8364 288.882 15.8546 288.406 15.8808C288.249 15.8887 288.142 15.8887 288.026 15.8592C287.927 15.8342 287.811 15.8057 287.687 15.7989C287.559 15.7921 287.418 15.8092 287.282 15.8148C287.146 15.8205 287.001 15.8353 286.881 15.8262C286.757 15.8171 286.65 15.7853 286.542 15.7625C286.43 15.7387 286.311 15.7398 286.158 15.7489C285.686 15.775 285.682 15.7716 285.215 15.7012C285.161 15.6932 285.091 15.6841 285.033 15.6864C284.69 15.7 284.351 15.7171 284.008 15.7307C283.876 15.7364 283.748 15.7216 283.657 15.6887C283.62 15.675 283.632 15.6523 283.607 15.6079C283.578 15.5977 283.611 15.6159 283.62 15.633C283.682 15.6307 283.756 15.6329 283.802 15.6239C283.917 15.6023 283.975 15.5738 283.946 15.55C283.93 15.5375 283.851 15.5215 283.802 15.5215C283.711 15.5215 283.632 15.5465 283.607 15.6079C283.347 15.6454 283.07 15.6534 282.801 15.6716C282.644 15.683 282.545 15.6773 282.421 15.6477C282.272 15.6114 282.119 15.5761 281.875 15.5943C281.611 15.6148 281.33 15.6182 281.057 15.6341C280.743 15.6523 280.606 15.55 280.342 15.5522C280.069 15.5545 279.796 15.5738 279.523 15.5875C279.284 15.5988 279.284 15.5988 278.788 15.525C278.606 15.4977 278.391 15.5375 278.213 15.509C278.093 15.4908 277.99 15.4636 277.874 15.4442C277.824 15.4363 277.746 15.4363 277.684 15.4386C277.341 15.4522 276.994 15.4613 276.663 15.4863C276.287 15.5159 276.002 15.484 275.733 15.417C275.394 15.4295 275.051 15.4363 274.716 15.4579C274.472 15.4738 274.332 15.4363 274.166 15.4056C274.108 15.3954 274.059 15.3783 273.997 15.3738C273.935 15.3692 273.86 15.3783 273.794 15.3817C273.521 15.3942 273.24 15.3999 272.976 15.4204C272.649 15.4465 272.525 15.3533 272.273 15.3419C272.104 15.3976 272.013 15.4738 271.678 15.4795C271.405 15.484 271.132 15.5022 270.859 15.5147C270.723 15.5204 270.587 15.5272 270.45 15.5329C270.231 15.5431 270.128 15.5875 270.173 15.6557C270.198 15.6932 270.219 15.7307 270.239 15.7682C270.281 15.8353 270.177 15.8921 270.004 15.9001C269.524 15.9217 269.049 15.9444 268.569 15.9637C268.441 15.9694 268.317 15.9501 268.214 15.9194C268.106 15.8887 267.987 15.8751 267.854 15.8808C267.375 15.9024 266.899 15.9251 266.42 15.9444C266.366 15.9467 266.296 15.9353 266.242 15.9262C266.127 15.9058 266.015 15.8819 265.903 15.8603C265.63 15.8705 265.362 15.8773 265.093 15.891C264.659 15.9115 264.659 15.9126 264.341 15.8501C264.283 15.8387 264.225 15.8171 264.171 15.8182C263.965 15.8228 263.762 15.8342 263.555 15.8444C262.948 15.8739 262.948 15.8739 262.77 15.8398C262.609 15.808 262.464 15.7694 262.22 15.7876C261.956 15.808 261.675 15.8148 261.402 15.8262C261.199 15.8342 260.997 15.8433 260.794 15.8455C260.74 15.8467 260.683 15.8251 260.625 15.8137C260.459 15.7785 260.298 15.75 260.071 15.7694C259.938 15.7807 259.798 15.783 259.662 15.7887C259.306 15.8046 259.306 15.8046 258.723 15.7364C258.665 15.7296 258.595 15.7216 258.537 15.725C258.058 15.7455 257.582 15.7682 257.103 15.7876C257.045 15.7898 256.975 15.783 256.917 15.7773C256.264 15.7114 256.264 15.7114 255.569 15.7432C255.305 15.7546 255.297 15.7591 255.02 15.6989C254.896 15.6727 254.792 15.6602 254.648 15.6682C254.102 15.6955 253.552 15.7137 253.011 15.7455C252.767 15.7591 252.626 15.725 252.461 15.6943C252.403 15.6841 252.341 15.6614 252.291 15.6625C251.746 15.6841 251.2 15.7103 250.655 15.7319C250.605 15.7341 250.543 15.7114 250.485 15.7012C250.373 15.6807 250.266 15.65 250.142 15.6432C250.014 15.6364 249.873 15.6534 249.733 15.6591C249.39 15.6739 249.39 15.6727 248.993 15.6057C248.939 15.5966 248.869 15.5841 248.815 15.5863C248.269 15.6091 247.72 15.6284 247.178 15.6614C246.868 15.6796 246.657 15.6466 246.438 15.5988C246.393 15.5886 246.314 15.5841 246.256 15.5863C245.641 15.6125 245.029 15.642 244.413 15.6682C244.285 15.6739 244.161 15.6545 244.057 15.625C243.892 15.5784 243.698 15.5841 243.491 15.5943C243.016 15.6182 243.012 15.617 242.731 15.5625C242.673 15.5511 242.623 15.5363 242.561 15.5306C242.503 15.525 242.429 15.5284 242.367 15.5306C242.094 15.542 241.821 15.5545 241.548 15.567C241.276 15.5795 240.999 15.5863 240.73 15.6057C240.399 15.6295 240.242 15.5556 240.011 15.5215C239.672 15.5363 239.324 15.5454 238.99 15.5693C238.733 15.5875 238.614 15.5375 238.444 15.5113C238.386 15.5022 238.324 15.4829 238.27 15.4852C237.655 15.5102 237.039 15.5375 236.427 15.5682C236.278 15.575 236.179 15.5659 236.055 15.5386C235.778 15.4772 235.766 15.4795 235.303 15.5022C235.1 15.5125 234.906 15.5215 234.732 15.4749C234.579 15.4329 234.393 15.4226 234.174 15.4363C233.905 15.4533 233.628 15.4624 233.356 15.4738C233.083 15.4863 232.81 15.5034 232.537 15.509C232.318 15.5147 232.186 15.4613 232.012 15.434C231.959 15.4261 231.884 15.4249 231.822 15.4272C231.549 15.4374 231.268 15.4454 231.004 15.4647C230.681 15.4886 230.504 15.4261 230.276 15.3897C230.227 15.3817 230.144 15.3863 230.082 15.3897C229.602 15.4101 229.127 15.4329 228.647 15.4545C228.478 15.4238 228.304 15.3942 228.135 15.3635C227.862 15.3749 227.589 15.3874 227.316 15.3988C227.11 15.4079 226.899 15.4113 226.705 15.4283C226.453 15.4511 226.329 15.3976 226.159 15.3715C226.101 15.3624 226.039 15.3431 225.986 15.3453C225.642 15.3579 225.299 15.3715 224.96 15.3908C224.638 15.4101 224.51 15.3078 224.245 15.309C223.972 15.3101 223.691 15.3249 223.427 15.3453C223.121 15.3692 222.906 15.3328 222.687 15.284C222.641 15.2737 222.563 15.268 222.505 15.2703C222.162 15.284 221.823 15.301 221.48 15.3147C221.422 15.3169 221.352 15.3112 221.294 15.3044C220.641 15.2374 220.641 15.2362 220.356 15.2499C220.153 15.259 219.946 15.2703 219.74 15.276C219.682 15.2783 219.612 15.268 219.558 15.259C219.128 15.1896 219.128 15.1885 218.818 15.2021C218.545 15.2146 218.272 15.2271 217.999 15.2396C217.83 15.2089 217.656 15.1794 217.487 15.1487C217.148 15.1635 216.801 15.1748 216.466 15.1953C216.309 15.2044 216.206 15.201 216.086 15.1726C215.937 15.1385 215.788 15.0987 215.54 15.118C215.275 15.1385 214.994 15.1407 214.726 15.1578C214.403 15.1782 214.271 15.0748 214.011 15.0759C213.738 15.0771 213.457 15.0918 213.192 15.1123C212.886 15.1362 212.671 15.0998 212.452 15.0509C212.407 15.0407 212.328 15.035 212.27 15.0373C211.518 15.0703 210.77 15.1032 210.018 15.1384C209.555 15.16 209.555 15.1612 208.674 15.0987C208.612 15.0941 208.546 15.0896 208.484 15.0918C208.211 15.1021 207.93 15.11 207.666 15.1294C207.343 15.1532 207.165 15.0918 206.938 15.0543C206.888 15.0464 206.81 15.0509 206.744 15.0532C206.537 15.0611 206.335 15.0714 206.128 15.0805C205.855 15.093 205.582 15.1055 205.309 15.118C205.14 15.0884 204.966 15.0577 204.797 15.0282C204.458 15.043 204.111 15.0509 203.776 15.0748C203.52 15.093 203.4 15.0452 203.23 15.018C203.172 15.0089 203.11 14.9895 203.057 14.9907C202.441 15.0157 201.825 15.0418 201.213 15.0737C200.961 15.0873 200.845 15.0361 200.676 15.01C200.618 15.002 200.552 14.9873 200.498 14.9895C200.089 15.0055 199.68 15.0248 199.27 15.0441C199.039 15.0555 199.039 15.0555 198.535 14.985C198.477 14.977 198.411 14.9691 198.353 14.9713C197.055 15.0282 195.761 15.0884 194.463 15.1453C194.331 15.151 194.211 15.1339 194.108 15.1032C194 15.0725 193.88 15.0566 193.748 15.0623C193.202 15.0862 192.653 15.1078 192.111 15.1373C191.888 15.1498 191.71 15.135 191.557 15.0952C191.441 15.0657 191.334 15.0543 191.189 15.0612C190.916 15.0748 190.644 15.0862 190.371 15.0987C190.098 15.1112 189.825 15.1237 189.552 15.1362C189.28 15.1487 189.003 15.1555 188.734 15.1748C188.403 15.1987 188.242 15.1282 188.015 15.093C187.606 15.11 187.196 15.1271 186.791 15.1453C186.245 15.1691 185.7 15.1953 185.154 15.218C185.105 15.2203 185.043 15.1998 184.985 15.1896C184.815 15.1612 184.691 15.1214 184.439 15.1339C183.216 15.1942 181.984 15.2453 180.756 15.3044C180.5 15.3169 180.388 15.268 180.215 15.2419C180.157 15.2339 180.091 15.218 180.037 15.2203C179.355 15.2487 178.673 15.2805 177.991 15.3112C177.714 15.3237 177.714 15.3237 177.251 15.2533C177.197 15.2453 177.127 15.2351 177.069 15.2373C176.18 15.276 175.296 15.3169 174.407 15.3567C174.275 15.3624 174.155 15.3465 174.047 15.3158C173.944 15.2851 173.82 15.268 173.692 15.2737C172.873 15.3101 172.051 15.3453 171.237 15.3851C171.018 15.3965 170.836 15.3863 170.679 15.3453C170.567 15.3158 170.455 15.3033 170.315 15.3101C169.087 15.3658 167.859 15.4192 166.632 15.4784C166.396 15.4897 166.231 15.4681 166.082 15.4306C165.962 15.401 165.859 15.3954 165.71 15.3999C165.553 15.4056 165.458 15.4181 165.371 15.4522C165.26 15.4965 165.189 15.5522 164.925 15.5556C164.652 15.5591 164.375 15.5727 164.106 15.592C163.85 15.6114 163.73 15.5602 163.569 15.5295C163.449 15.5079 163.337 15.5045 163.184 15.5147C163.044 15.5238 162.957 15.5431 162.874 15.5795C162.693 15.6568 162.676 15.6568 162.453 15.6079C162.333 15.5818 162.225 15.5613 162.093 15.5659C161.548 15.5886 161.002 15.6136 160.456 15.6398C160.142 15.6545 160.138 15.6568 159.902 15.6C159.787 15.5716 159.675 15.5579 159.539 15.5647C158.038 15.6329 156.538 15.6989 155.037 15.7705C154.806 15.7819 154.649 15.758 154.483 15.7239C154.43 15.7125 154.376 15.6966 154.314 15.6921C154.252 15.6875 154.182 15.6921 154.115 15.6943C153.024 15.7432 151.929 15.7898 150.842 15.8444C150.594 15.8569 150.461 15.8205 150.292 15.791C150.234 15.7807 150.184 15.7648 150.122 15.7603C150.06 15.7569 149.986 15.7648 149.92 15.7682C148.829 15.8171 147.733 15.8637 146.646 15.9183C146.386 15.9308 146.274 15.883 146.105 15.858C146.047 15.8489 145.985 15.8319 145.931 15.8342C145.588 15.8467 145.249 15.8637 144.906 15.8785C144.087 15.916 143.269 15.9513 142.45 15.9899C142.136 16.0047 142 15.9035 141.735 15.908C141.392 15.9137 141.053 15.9365 140.71 15.9524C140.437 15.9649 140.165 15.9763 139.892 15.9899C139.623 16.0024 139.623 16.0024 138.954 15.9365C138.896 15.9308 138.825 15.9228 138.768 15.9251C137.813 15.9672 136.854 16.0092 135.903 16.0547C135.684 16.0649 135.502 16.0592 135.345 16.0172C135.233 15.9876 135.118 15.9728 134.981 15.9797C133.547 16.0445 132.117 16.1093 130.682 16.1729C130.629 16.1752 130.558 16.1638 130.505 16.1547C130.389 16.1343 130.277 16.1104 130.166 16.0888C130.083 16.1149 129.975 16.1388 129.922 16.1684C129.847 16.2082 129.748 16.2195 129.591 16.2263C129.434 16.2332 129.335 16.2309 129.211 16.2013C129.062 16.165 128.909 16.1365 128.665 16.1479C127.165 16.2195 125.664 16.2843 124.164 16.3548C123.916 16.3662 123.8 16.3161 123.626 16.29C123.568 16.282 123.502 16.2695 123.449 16.2718C122.833 16.298 122.221 16.3264 121.605 16.3537C119.898 16.431 118.191 16.5049 116.488 16.5867C116.178 16.6015 115.967 16.5731 115.748 16.5242C115.702 16.5139 115.624 16.5083 115.566 16.5105C113.177 16.6174 110.788 16.7254 108.402 16.8334C108.274 16.8391 108.15 16.8209 108.047 16.7913C107.939 16.7606 107.82 16.7459 107.687 16.7515C106.596 16.8004 105.505 16.8493 104.414 16.8993C104.141 16.9118 104.137 16.913 103.856 16.8584C103.798 16.847 103.736 16.8254 103.69 16.8277C103.595 16.8334 103.504 16.8618 103.438 16.9004C103.372 16.9414 103.269 16.9527 103.116 16.9607C102.959 16.9687 102.855 16.9653 102.735 16.938C102.582 16.9039 102.442 16.8709 102.194 16.8823C99.0565 17.0278 95.9191 17.1676 92.7817 17.312C92.5296 17.3233 92.4138 17.2756 92.2402 17.2494C92.1823 17.2415 92.1245 17.2301 92.0625 17.2278C91.9964 17.2256 91.9261 17.2324 91.86 17.2358C86.7426 17.4666 81.6253 17.6985 76.508 17.9292C76.2021 17.9429 76.2062 17.9429 75.8714 18.0475C75.8301 18.06 75.7763 18.077 75.7184 18.0793C74.1518 18.152 72.5811 18.2225 71.0103 18.293C70.3283 18.3237 69.6463 18.3555 68.9642 18.3851C68.7204 18.3953 68.7204 18.3953 68.1375 18.5181C68.0879 18.5283 68.03 18.542 67.9721 18.5442C65.244 18.6681 62.5158 18.792 59.7835 18.9137C59.5686 18.9228 59.395 18.9432 59.2958 18.9978C59.2255 19.0364 59.1346 19.0592 58.9982 19.066C57.0885 19.1524 55.1789 19.2399 53.265 19.3241C53.0377 19.3343 52.9012 19.3661 52.7896 19.4139C52.7524 19.4298 52.7193 19.448 52.6656 19.4593C52.616 19.4696 52.5416 19.473 52.4796 19.4764C50.8427 19.5503 49.2059 19.6264 47.5648 19.6969C47.321 19.7071 47.2217 19.7492 47.1018 19.7935C47.0605 19.8083 47.0315 19.8288 46.9778 19.839C46.9241 19.8481 46.8455 19.8481 46.7794 19.8504C45.4153 19.9118 44.0513 19.9743 42.6872 20.0357C42.4227 20.03 42.3648 20.0959 42.2366 20.1357C42.1912 20.1494 42.1582 20.1675 42.1044 20.1766C42.0466 20.1857 41.9721 20.1846 41.9018 20.1869C40.8105 20.2357 39.7193 20.288 38.6239 20.3335C38.3718 20.3437 38.3221 20.4017 38.1857 20.4415C38.1403 20.454 38.0948 20.4733 38.0411 20.4767C37.3591 20.5097 36.6771 20.5404 35.995 20.57C35.7677 20.5802 35.7677 20.5791 35.3667 20.6916C35.3212 20.7041 35.2675 20.7177 35.2096 20.7212C34.1886 20.7689 33.1635 20.8144 32.1384 20.861C32.0061 20.8667 31.9152 20.8939 31.8491 20.9326C31.7829 20.9712 31.6879 20.9962 31.5556 21.0019C30.7371 21.0394 29.9186 21.0781 29.1002 21.1122C28.8728 21.1213 28.7241 21.1497 28.6249 21.2009C28.5505 21.2395 28.4595 21.2588 28.3148 21.2657C27.4964 21.302 26.678 21.3418 25.8554 21.3737C25.6157 21.3828 25.4916 21.4214 25.3924 21.4691C25.3139 21.5078 25.2229 21.5214 25.07 21.5283C23.5695 21.5942 22.0649 21.6601 20.5686 21.7329C20.3164 21.7454 20.1883 21.7056 20.0229 21.6772C19.7873 21.6374 19.5683 21.5942 19.5683 21.5055C19.5683 21.4919 19.498 21.476 19.4484 21.4646C19.0805 21.3793 19.0805 21.3793 19.0226 21.2884C18.9896 21.2327 18.9524 21.1759 18.9234 21.119C18.8697 21.0258 18.7374 21.0019 18.3571 21.019C18.2207 21.0247 18.0843 21.0326 17.9479 21.0372C17.7453 21.0451 17.5924 21.0076 17.5552 20.9394C17.5345 20.9019 17.5098 20.8644 17.4891 20.8269C17.6958 20.8178 17.6916 20.8166 18.0553 20.6791C18.2083 20.6211 18.2083 20.6211 17.9149 20.5631C17.8033 20.5415 17.6958 20.5177 17.5759 20.4972C17.5221 20.4881 17.4519 20.4824 17.394 20.4847C17.0509 20.4983 16.712 20.5143 16.3731 20.5302C15.8274 20.5552 15.8274 20.5552 15.2735 20.4392C15.228 20.4301 15.1577 20.4131 15.166 20.404C15.2115 20.3619 15.323 20.3437 15.4636 20.3392C15.6703 20.3324 15.8728 20.321 16.0753 20.3119C16.2118 20.3062 16.3482 20.2994 16.4846 20.2937C16.6127 20.2505 16.745 20.2085 16.8649 20.1641C17.0551 20.0959 17.055 20.0936 16.7946 20.0459C16.6292 20.0141 16.4515 19.9856 16.282 19.9561C16.0795 19.9652 15.8728 19.9754 15.6703 19.9834C15.414 19.9936 15.3106 19.972 15.2445 19.8981C15.1866 19.8333 15.2569 19.7776 15.4553 19.764C15.6579 19.7503 15.8481 19.7413 15.9514 19.6833C16.0506 19.6276 16.2242 19.606 16.4392 19.6014C16.5756 19.598 16.712 19.5901 16.8484 19.5832C17.0261 19.5741 17.1212 19.5162 17.084 19.4514C17.0633 19.4093 17.022 19.3741 16.8608 19.365C16.1457 19.3252 16.1374 19.3263 15.7819 19.249C15.7488 19.2422 15.7241 19.2217 15.7365 19.2115C15.7571 19.1945 15.8026 19.1694 15.8522 19.166C16.3276 19.141 16.8029 19.1183 17.2783 19.1012C17.4354 19.0956 17.5511 19.0876 17.6048 19.0455C17.6792 18.9876 17.6462 18.9341 17.5015 18.8943C17.456 18.8818 17.3816 18.8659 17.332 18.8671C16.7863 18.8875 16.2449 18.9137 15.6992 18.9341C15.6496 18.9364 15.5587 18.9171 15.5381 18.9023C15.4967 18.875 15.5587 18.8387 15.7034 18.8261C15.8935 18.8091 16.0878 18.808 16.2159 18.7511C16.3937 18.6704 16.6127 18.5965 16.8111 18.5192C16.8442 18.5056 16.898 18.4794 16.8856 18.4771C16.7823 18.4521 16.6624 18.4328 16.5549 18.4089C16.373 18.3692 16.373 18.3135 16.4143 18.26C16.4474 18.2168 16.5714 18.1998 16.7243 18.1998C16.7905 18.1998 16.8731 18.1998 16.9269 18.1896C17.0674 18.1645 17.1129 18.1327 17.0426 18.1088C17.0013 18.0952 16.9269 18.0759 16.8773 18.0782C15.9928 18.1157 15.104 18.152 14.2235 18.1986C13.9631 18.2123 13.8433 18.1691 13.6862 18.1384C13.5664 18.1145 13.4547 18.1054 13.3059 18.1225C13.1653 18.1384 13.029 18.1293 12.9422 18.0918C12.8719 18.0611 12.9959 18.035 13.3307 18.0054C13.3927 17.9997 13.463 17.9963 13.5084 17.9849C13.9879 17.8622 13.9879 17.861 14.3186 17.8451C14.641 17.8303 14.6411 17.8292 14.8106 17.7633C14.8891 17.7326 14.9758 17.7019 15.0502 17.67C15.0792 17.6575 15.1288 17.6348 15.1123 17.628C15.0214 17.5927 14.8973 17.5848 14.7526 17.5927C14.4302 17.6121 14.05 17.5962 13.8805 17.7042C13.8144 17.7451 13.711 17.7564 13.5622 17.7633C12.0659 17.8292 10.5695 17.8997 9.06899 17.9633C8.82511 17.9736 8.71357 18.0156 8.6185 18.0622C8.53583 18.1009 8.44487 18.1123 8.2878 18.1191C8.13072 18.1259 8.00665 18.1293 7.91572 18.0918C7.86198 18.0691 7.90746 18.0372 8.03147 18.0054C8.20921 17.9599 8.17613 17.9031 8.11826 17.8497C8.07692 17.8144 7.94878 17.7894 7.81238 17.7917C7.60983 17.7962 7.41561 17.8087 7.24613 17.7633C7.14693 17.7371 7.0229 17.7189 6.91129 17.6962C6.69635 17.6496 6.48139 17.6018 6.17964 17.6325C5.97297 17.6212 5.82829 17.5802 5.66295 17.5484C5.386 17.4961 5.3612 17.4882 5.55961 17.4325C5.78282 17.3699 5.60918 17.2881 5.73319 17.2267C5.86546 17.1608 6.0474 17.1028 6.20861 17.0414C6.24994 17.0255 6.28716 17.0107 6.3285 16.9948C6.23342 16.9721 6.14663 16.9437 6.03503 16.9277C5.89035 16.9073 5.81595 16.8823 5.82421 16.8118C5.79528 16.8016 5.80759 16.8277 5.84066 16.8345C5.87787 16.8413 5.96887 16.8357 6.01434 16.8277C6.13008 16.8061 6.18789 16.7777 6.15895 16.7538C6.14242 16.7413 6.06394 16.7254 6.01434 16.7254C5.9234 16.7254 5.84488 16.7504 5.82008 16.8118C5.35712 16.8584 4.87755 16.8811 4.39806 16.8993C4.34845 16.9016 4.28649 16.8789 4.22862 16.8675C4.03847 16.8288 4.03845 16.83 3.48042 16.8186C3.42255 16.8175 3.34405 16.8016 3.31512 16.7856C3.19525 16.7163 3.19941 16.6401 3.14154 16.5662C3.24901 16.5185 3.3564 16.4719 3.46801 16.4253C3.69122 16.3309 3.98063 16.2479 4.15424 16.1445C4.11704 16.0888 4.06743 16.0331 4.24931 15.9876C4.766 15.9308 4.7619 15.9308 4.90244 15.8762C5.30339 15.7216 5.70019 15.5659 6.11768 15.4136C6.22929 15.3738 6.2293 15.3522 6.03089 15.3351C5.96889 15.3306 5.90266 15.3294 5.83653 15.3317C5.62985 15.3397 5.42317 15.3601 5.22063 15.3556C5.01809 15.3522 4.86928 15.3021 4.70394 15.2715C4.53446 15.2396 4.36499 15.2067 4.19552 15.1737C4.00124 15.1771 3.807 15.2089 3.61272 15.1578C3.46391 15.118 3.27792 15.0896 3.10844 15.0566C3.23658 14.9702 3.47636 14.9043 3.66237 14.8281C3.83185 14.7588 3.83589 14.7599 4.29058 14.7065C4.50553 14.6815 4.57993 14.553 4.39806 14.5155C4.17898 14.47 3.94755 14.428 3.72434 14.3848C3.53006 14.3882 3.33169 14.4189 3.14568 14.3677C3.001 14.3291 2.83563 14.3029 2.59588 14.3177C2.1908 14.3427 1.77745 14.3552 1.36823 14.3757C1.22769 14.3825 1.0747 14.378 1.0127 14.3393C0.971365 14.312 1.09125 14.2745 1.22765 14.2666C1.43433 14.2552 1.62032 14.2415 1.72366 14.1847C1.82286 14.1279 2.00472 14.1108 2.21967 14.1028C2.27754 14.1006 2.34372 14.0869 2.37266 14.0733C2.52146 14.0074 2.68682 13.9505 3.0051 13.9528C3.13738 13.9301 3.2076 13.9016 3.16627 13.8744C3.14146 13.8596 3.0547 13.8403 3.0051 13.8425C2.66202 13.8539 2.31894 13.8653 1.98413 13.8857C1.82705 13.8948 1.70711 13.8971 1.60791 13.863C1.53764 13.8403 1.57484 13.8096 1.70711 13.7766C1.82285 13.7482 1.85595 13.7152 1.84769 13.6766C1.82702 13.5868 1.70299 13.5606 1.30617 13.5663C1.02095 13.5708 0.950677 13.5561 0.888674 13.4788C0.872139 13.4606 0.830877 13.4356 0.859811 13.4231C1.03755 13.3458 1.1533 13.2503 1.48812 13.2139C1.62039 13.2003 1.76088 13.2003 1.84355 13.1707C1.92622 13.1411 2.00066 13.107 2.08746 13.0786C2.19494 13.0445 2.26927 13.0127 2.21967 12.9911C2.13699 12.9524 2.00477 12.949 1.85182 12.9627C1.71955 12.974 1.57901 12.9752 1.44261 12.982C1.19873 12.9945 1.00036 12.9649 0.971426 12.9149C0.892888 12.7831 0.810193 12.6523 0.739922 12.5205C0.731655 12.5046 0.752266 12.4841 0.785335 12.4704C0.901074 12.4227 1.02513 12.3772 1.145 12.3306C1.28554 12.2772 1.50879 12.2874 1.69894 12.2772C1.96762 12.2624 1.96752 12.2635 2.32714 12.1544C2.46768 12.1112 2.71157 12.1283 2.85625 12.0896C2.90172 12.0771 2.97199 12.0567 2.95959 12.0453C2.94305 12.0305 2.86043 12.0191 2.79842 12.0123C2.74055 12.0055 2.6703 12.0021 2.6083 12.0055C1.85599 12.0385 1.10784 12.0737 0.35553 12.1055C0.22739 12.1112 0.086845 12.0862 0.0413759 12.051C-0.00409319 12.018 0.00826711 11.9782 0 11.9407C0.119873 11.8941 0.256228 11.8509 0.359567 11.8009C0.438104 11.7622 0.529059 11.7452 0.686134 11.7429C0.892811 11.7395 1.09538 11.7259 1.32685 11.7156C1.75674 11.5497 2.17834 11.3757 2.6413 11.2098C2.82731 11.1427 2.78191 11.0745 2.81911 11.0029C2.85631 10.9369 3.13325 10.9472 3.31926 10.9279C3.46806 10.9119 3.5176 10.8756 3.45973 10.8505C3.42666 10.8358 3.3523 10.8187 3.29443 10.8187C3.15802 10.8187 3.02162 10.8289 2.88521 10.8346C2.74881 10.8403 2.59174 10.8369 2.48013 10.8562C2.37266 10.8744 2.30235 10.9131 2.23208 10.946C2.15354 10.9824 2.05027 10.9949 1.8932 10.9972C1.69066 10.9995 1.48812 11.0097 1.28558 11.0176C1.06237 10.9733 0.83084 10.9301 0.615895 10.8835C0.57456 10.8744 0.566248 10.8483 0.570382 10.8312C0.578649 10.7869 0.516662 10.7596 0.380255 10.738C0.264515 10.7198 0.169435 10.6937 0.0619629 10.6709C0.144634 10.6402 0.235604 10.6107 0.301741 10.5777C0.446416 10.5084 0.628312 10.4584 0.942462 10.4606C1.06647 10.4163 1.16565 10.3617 1.32685 10.331C1.4798 10.3015 1.74022 10.331 1.85596 10.264C1.91383 10.231 2.00068 10.1935 2.11229 10.1798C2.29003 10.1582 2.52151 10.1696 2.62485 10.106C2.68685 10.0696 2.77775 10.0366 2.89763 10.0275C3.03403 10.0173 3.17454 10.015 3.27374 9.99343C3.32748 9.98206 3.38536 9.96387 3.38536 9.94795C3.38536 9.93772 3.30275 9.9218 3.24488 9.91498C3.19114 9.90702 3.12079 9.90134 3.05879 9.90362C2.85211 9.91044 2.64957 9.92294 2.44289 9.92976C2.38502 9.93203 2.31891 9.92408 2.2569 9.91726C2.07503 9.89907 2.0874 9.87634 2.23208 9.83541C2.37675 9.79563 2.48015 9.74446 2.60002 9.69785C2.7323 9.6899 2.89761 9.69331 2.98855 9.67171C3.14149 9.63647 3.24894 9.58531 3.37294 9.54098C3.50935 9.53416 3.64988 9.53189 3.77802 9.51939C3.83176 9.51484 3.85658 9.48983 3.90205 9.47505C3.98472 9.44663 4.05505 9.40571 4.16665 9.39207C4.34853 9.37161 4.57174 9.37956 4.67921 9.31704C4.74121 9.28066 4.83625 9.24202 4.95199 9.23975C5.27441 9.2352 5.41082 9.17266 5.57616 9.11355C5.70017 9.06922 5.96472 9.09196 6.10113 9.04762C6.19207 9.0192 6.25824 8.98396 6.34918 8.95668C6.38639 8.94531 6.46489 8.93963 6.5269 8.93622C6.86585 8.91917 7.20892 8.90666 7.54787 8.88847C7.60161 8.88506 7.65125 8.86802 7.69259 8.85438C7.77939 8.82482 7.83307 8.78389 7.94054 8.76457C8.04801 8.74524 8.20093 8.74525 8.33321 8.73956C8.75896 8.72251 8.79206 8.72705 8.98634 8.63042C9.14342 8.55199 9.52789 8.60769 9.65603 8.5213C9.73043 8.47128 9.86678 8.43036 10.1107 8.42467C10.4537 8.41672 10.7927 8.39512 11.1358 8.38034C11.4417 8.3667 11.4375 8.36669 11.7682 8.26097C11.917 8.21323 12.1361 8.22005 12.3304 8.21096C12.5371 8.20187 12.7272 8.18823 12.8264 8.13139C12.9256 8.07569 13.1075 8.05749 13.3183 8.04953C13.5126 8.04158 13.7317 8.04727 13.8846 8.0018C14.2567 7.89267 14.2525 7.89152 14.513 7.88016C14.9222 7.86197 15.3314 7.84378 15.7406 7.82445C16.0134 7.81195 16.2986 7.80968 16.5549 7.78467C16.7409 7.76648 16.8236 7.70282 16.9434 7.65849C17.2824 7.64144 17.6213 7.62438 17.9603 7.60846C18.4356 7.58573 18.9151 7.56527 19.3946 7.54368C19.6013 7.50048 19.6303 7.40499 19.9775 7.40044C20.1842 7.39817 20.3867 7.38339 20.5934 7.3743C20.9365 7.35838 21.2754 7.33792 21.6185 7.32996C21.8789 7.32428 21.9243 7.26289 22.0607 7.22424C22.1062 7.21059 22.1476 7.19128 22.2013 7.18787C22.7387 7.15604 23.2925 7.14921 23.8175 7.10261C23.8712 7.09806 23.9208 7.07418 23.9332 7.05713C23.9415 7.04804 23.8712 7.031 23.8258 7.02304C23.772 7.01394 23.7018 7.00485 23.6439 7.00712C21.9367 7.08329 20.2296 7.16059 18.5225 7.23675C18.2827 7.24812 18.2827 7.24698 17.6999 7.37202C17.6503 7.38225 17.5924 7.39362 17.5304 7.39703C17.2576 7.41067 16.9806 7.41864 16.7119 7.43569C16.4929 7.44933 16.311 7.43567 16.154 7.39475C16.0424 7.3652 15.9266 7.35611 15.786 7.35838C15.6289 7.36179 15.5257 7.3743 15.4347 7.40499C15.3149 7.44705 15.2528 7.50161 15.0007 7.51298C13.8392 7.56186 12.6776 7.61643 11.5202 7.66872C11.359 7.6528 11.2804 7.62893 11.3218 7.60051C11.3466 7.58346 11.3962 7.56073 11.4458 7.55845C11.9211 7.53458 12.4006 7.51412 12.876 7.49139C12.9421 7.48798 13.033 7.49024 13.0702 7.47887C13.2521 7.42772 13.3183 7.34473 13.6614 7.33905C13.8598 7.33564 14.0623 7.31859 14.2525 7.30268C14.3062 7.29813 14.3558 7.27426 14.3682 7.25721C14.3724 7.24811 14.3062 7.23106 14.2566 7.2231C14.0747 7.19013 13.864 7.22993 13.6821 7.2072C13.6201 7.19924 13.5332 7.18787 13.5208 7.17422C13.5126 7.16172 13.5828 7.14126 13.6325 7.12875C13.6779 7.11738 13.7399 7.10716 13.8019 7.10374C14.3475 7.0776 14.8932 7.05031 15.4389 7.02985C15.6621 7.02189 15.8191 6.99347 15.9183 6.94118C15.9927 6.90253 16.0837 6.88207 16.2242 6.87639C17.179 6.83433 18.1339 6.78772 19.0929 6.74907C19.3326 6.73998 19.4567 6.70247 19.5559 6.65359C19.6344 6.61494 19.7254 6.60129 19.8783 6.59447C21.2465 6.53536 22.6064 6.46943 23.9746 6.41259C24.2268 6.40236 24.3012 6.35348 24.4293 6.31142C24.4748 6.29664 24.5037 6.27845 24.5615 6.26936C24.6194 6.26026 24.6938 6.26139 24.7641 6.25912C25.8553 6.21024 26.9467 6.15795 28.0421 6.11248C28.2983 6.10225 28.3479 6.04541 28.4801 6.00562C28.5256 5.99311 28.567 5.97266 28.6207 5.96925C29.4392 5.9306 30.2576 5.89422 31.076 5.85671C31.6217 5.8317 32.1673 5.80669 32.7129 5.78282C32.9816 5.77145 32.9816 5.7703 33.3453 5.66231C33.3867 5.64981 33.4446 5.63503 33.4983 5.63162C35.0691 5.55886 36.6357 5.48953 38.2064 5.41792C38.3387 5.41223 38.4337 5.38607 38.4999 5.34742C38.566 5.30877 38.6612 5.28263 38.7893 5.27694C40.017 5.2201 41.2446 5.16441 42.4764 5.11098C42.6996 5.10188 42.8567 5.0746 42.9559 5.02345C43.0303 4.98479 43.1212 4.96434 43.2617 4.95866C44.4894 4.90409 45.7171 4.84611 46.9489 4.79381C47.1845 4.78358 47.3002 4.74494 47.416 4.69947C47.4573 4.68355 47.4904 4.65741 47.54 4.65513C48.1518 4.6233 48.7594 4.59033 49.3753 4.56874C49.6316 4.55964 49.7184 4.51189 49.8217 4.46642C49.9044 4.43005 49.9995 4.41755 50.1566 4.413C50.4997 4.40277 50.8386 4.38345 51.1734 4.36413C51.223 4.36071 51.285 4.3357 51.2892 4.31979C51.2974 4.29023 51.2023 4.26977 51.0453 4.25954C49.4084 4.33343 47.7674 4.40731 46.1305 4.4812C45.8618 4.49371 45.8618 4.49371 45.4981 4.60171C45.4567 4.61421 45.3988 4.62899 45.3409 4.6324C43.7702 4.70402 42.2036 4.7745 40.6329 4.84612C40.5006 4.8518 40.4055 4.87794 40.3394 4.9166C40.2733 4.95525 40.1781 4.98139 40.05 4.98707C38.5495 5.05528 37.049 5.12463 35.5444 5.18942C35.3212 5.19852 35.1642 5.22465 35.065 5.27694C34.9906 5.31559 34.8996 5.33606 34.7591 5.34175C33.3247 5.40541 31.8945 5.47247 30.456 5.53385C30.3113 5.53954 30.2039 5.50657 30.2122 5.47588C30.2163 5.45996 30.2782 5.43383 30.3278 5.43156C31.076 5.39404 31.8201 5.35539 32.5724 5.32697C32.8246 5.31787 32.8989 5.26785 33.0271 5.22579C33.0684 5.21102 33.1015 5.19169 33.1552 5.18373C33.2131 5.17464 33.2875 5.17578 33.3578 5.17351C35.1311 5.0928 36.9044 5.01095 38.6818 4.93479C38.9381 4.92342 38.9876 4.86771 39.1199 4.82792C39.1654 4.81428 39.2067 4.79383 39.2605 4.79155C39.8061 4.76427 40.3517 4.74039 40.8974 4.71652C41.8522 4.67332 42.807 4.63013 43.766 4.58693C44.043 4.57442 44.043 4.57442 44.3985 4.46756C44.4398 4.45506 44.4977 4.43915 44.5515 4.43688C47.0771 4.32207 49.6027 4.20725 52.1283 4.09357C52.2606 4.08789 52.3556 4.06174 52.4218 4.02309C52.4879 3.98558 52.5829 3.9583 52.7111 3.95148C56.1254 3.79687 59.5356 3.64227 62.9499 3.48994C63.1731 3.47971 63.3302 3.45583 63.4294 3.40241C63.4996 3.36376 63.5947 3.3433 63.7352 3.33648C67.4885 3.1671 71.2418 2.99772 74.9992 2.82721C77.5248 2.71353 80.0504 2.59758 82.576 2.48617C82.8075 2.47594 82.9315 2.4407 83.0472 2.39409C83.0844 2.37817 83.1216 2.35203 83.1712 2.34975C83.7127 2.32133 84.2542 2.29519 84.7957 2.26905C84.9652 2.29974 85.1346 2.3293 85.3041 2.35999C85.4322 2.3168 85.5563 2.27246 85.6845 2.22926C86.5029 2.1963 87.3089 2.14514 88.1356 2.12923C88.1894 2.12809 88.2472 2.14969 88.3051 2.16106C88.6895 2.23268 88.9086 2.22699 89.1525 2.1315C89.2393 2.0974 89.3137 2.06671 89.4459 2.06102C89.8551 2.04056 90.2686 2.02692 90.6737 2.00305C90.8928 1.99054 91.0746 2.00191 91.2316 2.04283C91.3433 2.07239 91.459 2.0849 91.5955 2.07808C92.3478 2.04397 93.0959 2.011 93.8482 1.97463C93.902 1.97235 93.9515 1.95302 93.9928 1.93938C94.0796 1.90982 94.1541 1.878 94.2368 1.84731C94.3484 1.86663 94.4724 1.88141 94.5633 1.90642C94.6791 1.93598 94.7865 1.93597 94.9436 1.92801C97.9445 1.79047 100.95 1.65633 103.951 1.51764C104.207 1.50627 104.319 1.55402 104.492 1.57903C104.55 1.58813 104.608 1.59949 104.67 1.60176C104.736 1.60404 104.806 1.59722 104.872 1.59381C107.125 1.4915 109.378 1.39032 111.631 1.28801C111.928 1.27437 111.928 1.27437 112.371 1.34485C112.424 1.35394 112.495 1.36418 112.553 1.36077C113.578 1.31643 114.603 1.26869 115.624 1.22322C115.756 1.21754 115.868 1.23572 115.988 1.26187C116.223 1.31302 116.24 1.31303 116.413 1.238C116.496 1.20276 116.583 1.18115 116.719 1.17092C116.868 1.15955 116.988 1.16297 117.104 1.18344C117.269 1.21186 117.389 1.25959 117.641 1.24709C118.732 1.19366 119.828 1.14933 120.915 1.09477C121.163 1.08226 121.295 1.12091 121.46 1.14933C121.518 1.15956 121.572 1.17548 121.634 1.17889C121.696 1.1823 121.77 1.17433 121.836 1.17092C123.201 1.10953 124.569 1.0493 125.929 0.983364C126.185 0.970859 126.297 1.01973 126.47 1.04474C126.528 1.05383 126.594 1.06976 126.648 1.06748C127.466 1.03224 128.289 0.99472 129.107 0.957206C129.401 0.943565 129.401 0.944702 129.847 1.01404C129.901 1.02314 129.971 1.03224 130.029 1.02996C130.984 0.987901 131.943 0.944703 132.898 0.901506C133.191 0.887864 133.191 0.887867 134.039 0.946979C134.101 0.951526 134.167 0.958356 134.229 0.956082C135.32 0.907201 136.416 0.85945 137.507 0.807158C137.726 0.796927 137.908 0.806019 138.065 0.846943C138.176 0.876499 138.292 0.88901 138.429 0.882189C139.656 0.826487 140.888 0.773061 142.112 0.713949C142.347 0.702581 142.5 0.72758 142.665 0.760547C142.719 0.771915 142.773 0.787833 142.835 0.79238C142.897 0.796927 142.967 0.792376 143.033 0.788966C144.261 0.733264 145.493 0.680975 146.716 0.620726C146.964 0.608222 147.097 0.64687 147.262 0.675289C147.32 0.68552 147.382 0.705983 147.431 0.704846C147.911 0.685521 148.39 0.668475 148.866 0.640056C149.122 0.624141 149.234 0.676423 149.407 0.701432C149.465 0.70939 149.531 0.72645 149.585 0.724176C150.61 0.679842 151.635 0.633238 152.656 0.585493C152.801 0.578673 152.908 0.588894 153.024 0.61845C153.177 0.658237 153.355 0.674153 153.578 0.661648C154.053 0.635502 154.533 0.617319 155.012 0.59572C155.293 0.583216 155.293 0.58322 156.153 0.642332C156.215 0.646879 156.281 0.653695 156.343 0.651421C157.162 0.615044 157.984 0.579807 158.799 0.54002C159.018 0.528652 159.2 0.53888 159.357 0.579804C159.468 0.60936 159.58 0.621871 159.72 0.61505C160.473 0.580947 161.221 0.546841 161.973 0.512738C162.246 0.500234 162.519 0.478629 162.792 0.478629C162.99 0.479766 163.135 0.534329 163.313 0.561612C163.362 0.569569 163.445 0.560485 163.511 0.558212C164.466 0.515014 165.425 0.475223 166.376 0.426342C166.624 0.413838 166.756 0.452486 166.921 0.480905C166.979 0.491136 167.041 0.511599 167.091 0.510462C167.434 0.497958 167.773 0.480905 168.116 0.466127C168.525 0.447938 168.938 0.434297 169.343 0.409288C169.674 0.388826 169.798 0.487722 170.063 0.491132C170.265 0.494543 170.472 0.475221 170.674 0.466127C171.084 0.447938 171.493 0.427478 171.902 0.411564C172.047 0.40588 172.158 0.387684 172.204 0.34676C172.212 0.338802 172.142 0.321758 172.096 0.311527C171.547 0.195576 171.547 0.195571 170.993 0.22058C170.65 0.236495 170.311 0.252412 169.968 0.266053C169.91 0.268327 169.844 0.259233 169.786 0.252413C169.62 0.233088 169.637 0.210354 169.777 0.16943C169.918 0.128507 170.025 0.0784931 170.145 0.0318854C170.315 0.0614415 170.48 0.0909871 170.65 0.120543C170.786 0.114859 170.922 0.108049 171.059 0.102365C171.741 0.0728087 172.423 0.0421136 173.105 0.014831C173.155 0.0125575 173.217 0.0352963 173.274 0.046664C173.44 0.0796304 173.589 0.108042 173.828 0.0955375C174.44 0.0625711 175.056 0.0386988 175.668 0.0102795C175.936 -0.00222498 175.936 -0.00222387 176.408 0.068256C176.461 0.0762135 176.532 0.0853082 176.59 0.0830346C177.205 0.0568889 177.817 0.0284729 178.433 0.00119033C178.565 -0.00449353 178.694 0.010284 178.789 0.0432504C178.826 0.0568916 178.818 0.0796227 178.975 0.266053C179.462 0.417244 179.797 0.401337 180.136 0.387696C180.281 0.382012 180.409 0.376323 180.504 0.353587C180.554 0.341083 180.616 0.322891 180.616 0.308113C180.616 0.296746 180.525 0.278554 180.467 0.27628C180.058 0.253545 179.669 0.301296 179.268 0.311527C179.082 0.316074 178.921 0.276287 178.888 0.211491C178.88 0.193302 178.867 0.173978 178.855 0.15579C178.842 0.137601 178.834 0.118277 178.822 0.100089C178.661 0.0944052 178.565 0.114864 178.495 0.153514C178.437 0.185344 178.355 0.22172 178.243 0.238772C178.131 0.25696 177.978 0.253556 177.842 0.25924C177.71 0.264924 177.565 0.2797 177.441 0.271743C177.317 0.262649 177.218 0.229677 177.102 0.209215C177.048 0.198984 176.982 0.184211 176.929 0.186485C176.453 0.20581 175.982 0.225128 175.511 0.250137C175.263 0.263778 175.139 0.216041 174.982 0.186485C174.858 0.163749 174.734 0.169426 174.713 0.221718C174.659 0.346763 174.849 0.399051 175.271 0.375179C175.618 0.354717 175.932 0.351317 176.205 0.428618C176.242 0.438849 176.329 0.443394 176.383 0.441121C176.722 0.42748 177.057 0.410426 177.396 0.396785C177.458 0.394512 177.524 0.399051 177.582 0.403598C178.425 0.464984 178.425 0.466127 178.71 0.452486C178.847 0.445665 178.979 0.439981 178.966 0.267191C179.227 0.0818973 179.64 0.069395 180.041 0.0421125C180.302 0.0250609 180.413 0.0750811 180.583 0.101227C180.64 0.110321 180.702 0.128506 180.756 0.126233C181.645 0.0887191 182.529 0.0489265 183.414 0.00686587C183.563 4.5232e-05 183.67 0.00686698 183.786 0.0364231C183.935 0.0739366 184.1 0.0978138 184.336 0.0841725C184.807 0.05689 185.287 0.0398423 185.766 0.0171068C186.01 0.00573909 186.01 0.00572743 186.502 0.0762074C186.556 0.0841648 186.626 0.0932595 186.684 0.090986C187.163 0.0716608 187.639 0.0477958 188.114 0.0273339C188.246 0.02165 188.366 0.0375632 188.469 0.068256C188.573 0.0989489 188.697 0.114862 188.825 0.109178C189.304 0.0887163 189.78 0.065988 190.255 0.0455261C190.313 0.0432526 190.383 0.0512094 190.437 0.0591669C190.941 0.129647 190.941 0.129635 191.173 0.118267C191.512 0.101216 191.859 0.0932673 192.194 0.0705318C192.52 0.0477964 192.69 0.113724 192.913 0.1501C193.525 0.123955 194.141 0.102361 194.748 0.0705318C194.996 0.0568905 195.129 0.0944007 195.294 0.123957C195.352 0.134188 195.41 0.155789 195.463 0.154652C195.67 0.150105 195.873 0.137603 196.075 0.128508C196.278 0.119414 196.484 0.110321 196.687 0.101227C196.918 0.134193 197.071 0.211493 197.402 0.185347C197.6 0.169432 197.811 0.166022 198.014 0.156928C198.216 0.147833 198.423 0.13874 198.626 0.129646C198.762 0.123962 198.902 0.120547 199.035 0.110316C199.279 0.0932645 199.399 0.148973 199.572 0.173982C199.63 0.181939 199.696 0.195572 199.75 0.193298C200.159 0.177383 200.572 0.163743 200.973 0.137598C201.283 0.117136 201.494 0.151243 201.713 0.198988C201.759 0.209219 201.837 0.214902 201.895 0.212628C202.375 0.193303 202.85 0.169424 203.325 0.148962C203.453 0.143279 203.578 0.161466 203.681 0.191023C203.788 0.221715 203.908 0.236505 204.04 0.230821C204.516 0.210359 204.995 0.187617 205.471 0.167155C205.529 0.164881 205.599 0.173977 205.653 0.183071C206.116 0.253551 206.116 0.254689 206.388 0.241048C206.454 0.237637 206.525 0.235355 206.591 0.231945C206.93 0.21603 207.281 0.210354 207.612 0.183071C207.992 0.152378 208.269 0.19103 208.538 0.255826C208.877 0.242185 209.224 0.234226 209.555 0.211491C209.803 0.194439 209.935 0.237634 210.1 0.266053C210.158 0.276284 210.22 0.296746 210.27 0.294473C210.749 0.275148 211.229 0.258102 211.7 0.229683C211.956 0.213768 212.068 0.264913 212.241 0.291059C212.299 0.300153 212.361 0.316076 212.415 0.313803C212.688 0.304709 212.961 0.291061 213.234 0.278556C213.552 0.263778 213.552 0.264914 213.973 0.334257C214.172 0.367223 214.37 0.341077 214.565 0.333119C214.771 0.324025 214.965 0.317207 215.131 0.363814C215.234 0.39337 215.358 0.411559 215.486 0.407012C215.759 0.396781 216.036 0.386555 216.305 0.369504C216.52 0.355862 216.706 0.364952 216.863 0.407012C216.974 0.436568 217.09 0.451355 217.227 0.444535C217.838 0.417252 218.454 0.388822 219.066 0.362676C219.12 0.360403 219.194 0.370638 219.244 0.380869C219.359 0.40133 219.471 0.424061 219.583 0.446796C219.851 0.436565 220.128 0.43203 220.393 0.416115C220.674 0.4002 220.93 0.394515 221.149 0.457037C221.195 0.470679 221.261 0.489993 221.315 0.488856C221.521 0.484309 221.724 0.472945 221.926 0.463851C222.129 0.454757 222.336 0.445664 222.538 0.436569C222.774 0.464989 222.923 0.546835 223.253 0.520689C223.452 0.504775 223.662 0.501364 223.865 0.49227C224.068 0.483176 224.274 0.472946 224.477 0.464989C224.543 0.462715 224.617 0.457028 224.675 0.461575C224.737 0.466122 224.791 0.48204 224.845 0.493408C225.01 0.526374 225.163 0.559345 225.399 0.54002C225.597 0.524105 225.808 0.520693 226.01 0.510462C226.287 0.497958 226.287 0.49796 226.746 0.569577C226.932 0.599133 227.143 0.560484 227.321 0.585493C227.441 0.602545 227.544 0.630958 227.66 0.650283C227.709 0.658241 227.788 0.661646 227.846 0.659372C228.118 0.649141 228.395 0.638915 228.664 0.621864C228.883 0.608223 229.065 0.621862 229.218 0.662786C229.33 0.692342 229.441 0.704853 229.582 0.698033C230.264 0.666203 230.946 0.638912 231.624 0.603672C231.855 0.591167 232.041 0.610497 232.169 0.651421C232.388 0.721901 232.698 0.638918 232.926 0.695757C233.066 0.730997 233.207 0.771923 233.463 0.754871C233.934 0.725315 234.414 0.709392 234.889 0.68893C235.059 0.719622 235.228 0.750322 235.402 0.781015C235.675 0.76851 235.947 0.755998 236.22 0.74463C236.423 0.735536 236.629 0.725306 236.832 0.717349C236.898 0.715075 236.968 0.710527 237.03 0.716211C237.092 0.721895 237.142 0.736676 237.2 0.748044C237.485 0.803746 237.485 0.804888 237.956 0.782153C238.159 0.771922 238.353 0.765101 238.523 0.810572C238.68 0.852633 238.866 0.860585 239.081 0.848081C239.486 0.825345 239.895 0.808295 240.308 0.79238C240.436 0.786696 240.556 0.806022 240.664 0.835578C240.825 0.882185 241.023 0.877639 241.226 0.865135C241.495 0.84922 241.759 0.833309 241.986 0.896968C242.032 0.910609 242.102 0.929924 242.152 0.928787C242.491 0.919693 242.834 0.912877 243.165 0.891279C243.495 0.86968 243.656 0.940158 243.884 0.974261C244.223 0.959483 244.566 0.944703 244.905 0.929925C244.971 0.926515 245.049 0.91629 245.107 0.921974C245.351 0.945846 245.492 1.0311 245.827 1.00496C246.021 0.990178 246.232 0.985636 246.434 0.982226C246.488 0.981089 246.558 1.0004 246.595 1.01518C246.616 1.02314 246.595 1.04474 246.571 1.05611C246.496 1.08793 246.405 1.1175 246.339 1.15047C246.331 1.15501 246.409 1.17547 246.455 1.18456C246.566 1.20502 246.695 1.20162 246.843 1.19253C246.972 1.18457 247.104 1.20048 247.195 1.23459C247.232 1.24823 247.22 1.27096 247.141 1.34599C247.141 1.40169 247.228 1.37667 247.257 1.3403C247.302 1.28801 247.215 1.27096 247.05 1.29938C246.934 1.31984 246.877 1.3494 246.905 1.37327C246.922 1.38577 247 1.40169 247.141 1.34599C247.505 1.27778 247.778 1.26528 248.05 1.25278C248.121 1.24937 248.203 1.23799 248.253 1.24481C248.431 1.2721 248.596 1.30507 248.77 1.33576C248.968 1.32894 249.154 1.31188 249.348 1.35621C249.621 1.41874 249.634 1.41306 249.898 1.40055C250.035 1.39373 250.171 1.38806 250.307 1.38237C250.444 1.37669 250.551 1.39373 250.671 1.41988C250.915 1.47331 250.936 1.4733 251.097 1.40055C251.192 1.35622 251.258 1.34144 251.378 1.3619C251.775 1.43125 251.779 1.43579 252.118 1.41533C252.399 1.39828 252.663 1.39373 252.87 1.45853C253.011 1.504 253.056 1.49377 253.168 1.44602C253.465 1.31984 253.602 1.32211 254.16 1.41305C254.42 1.45625 254.689 1.40965 254.953 1.40396C255.177 1.39942 255.334 1.42669 255.35 1.49831C255.363 1.54265 255.4 1.57448 255.549 1.58926C255.607 1.59494 255.677 1.6029 255.735 1.60062C256.078 1.58698 256.417 1.57106 256.76 1.55515C256.933 1.54719 257.029 1.49377 256.995 1.42329C256.958 1.34827 257.024 1.32097 257.272 1.29938C257.421 1.28687 257.541 1.28916 257.661 1.30962C257.793 1.33235 257.756 1.35281 257.64 1.39374C257.363 1.49377 257.396 1.55515 257.752 1.62449C257.876 1.64836 257.975 1.66997 258.004 1.70521C258.021 1.7234 258.004 1.74727 258.041 1.76091C258.244 1.83708 258.525 1.88596 258.839 1.92234C259.141 1.89165 259.347 1.94279 259.579 1.98372C259.761 2.01555 259.976 1.98827 260.17 1.9769C260.389 1.9644 260.571 1.97349 260.728 2.01555C260.84 2.0451 260.955 2.05874 261.092 2.05306C261.365 2.04055 261.642 2.0326 261.91 2.01441C262.142 1.9985 262.315 2.02123 262.46 2.05988C262.642 2.10877 262.844 2.07579 263.035 2.08261C263.291 2.09057 263.419 2.19174 263.754 2.16446C263.952 2.14854 264.159 2.14286 264.366 2.13831C264.419 2.13718 264.485 2.15651 264.531 2.17015C264.75 2.23267 265.006 2.22926 265.287 2.21107C265.482 2.19857 265.672 2.1872 265.862 2.2304C266.176 2.30315 266.523 2.36682 266.854 2.43389C266.899 2.48618 266.866 2.54755 267.102 2.57825C267.226 2.59416 267.342 2.61804 267.437 2.64419C267.553 2.67488 267.66 2.68284 267.809 2.67488C268.077 2.65897 268.359 2.65555 268.623 2.63508C268.867 2.6169 269.02 2.65442 269.169 2.68966C269.289 2.71808 269.4 2.73171 269.545 2.71125C269.694 2.69193 269.801 2.70443 269.921 2.73512C270.091 2.77718 270.103 2.77264 270.665 2.78515C270.723 2.78628 270.793 2.80332 270.826 2.8181C270.843 2.82606 270.806 2.84881 270.777 2.86018C270.74 2.87382 270.682 2.88972 270.628 2.89313C270.016 2.92269 269.4 2.94884 268.788 2.97839C268.726 2.9818 268.66 2.98977 268.615 3.00114C268.565 3.01364 268.503 3.03068 268.503 3.0466C268.503 3.05796 268.586 3.07161 268.644 3.07957C268.826 3.10571 269.041 3.06593 269.218 3.09548C269.338 3.11481 269.437 3.14208 269.557 3.16027C269.607 3.16823 269.685 3.1671 269.747 3.16482C269.954 3.15687 270.157 3.1455 270.363 3.13868C270.421 3.13754 270.487 3.14892 270.541 3.15801C270.938 3.22622 270.938 3.22621 271.281 3.21144C271.417 3.20575 271.562 3.1887 271.69 3.19552C271.814 3.20234 271.922 3.23303 272.033 3.25236C272.265 3.29328 272.484 3.33307 272.5 3.42174C272.509 3.45584 272.645 3.48539 272.781 3.48766C272.914 3.48994 273.054 3.47744 273.191 3.47062C273.513 3.45698 273.513 3.45698 273.931 3.52632C274.046 3.54565 274.17 3.54792 274.319 3.53655C274.377 3.532 274.447 3.53656 274.509 3.54224C274.712 3.55929 274.712 3.58089 274.58 3.62181C274.394 3.68206 274.41 3.68775 274.931 3.7389C275.129 3.75823 275.282 3.7946 275.448 3.82643C275.716 3.87759 275.712 3.87758 275.534 3.94465C275.493 3.95943 275.456 3.97535 275.415 3.99126C275.295 4.03559 275.2 4.08334 274.952 4.08788C274.679 4.09243 274.406 4.11063 274.133 4.12313C273.869 4.13563 273.798 4.16291 273.823 4.24021C273.852 4.33342 273.906 4.34366 274.381 4.34252C274.518 4.34252 274.637 4.35161 274.741 4.3823C274.691 4.41868 274.6 4.4471 274.468 4.45392C274.129 4.47097 273.786 4.48575 273.447 4.50053C273.174 4.51304 272.901 4.52554 272.629 4.53804C272.459 4.546 272.352 4.60512 272.397 4.67105C272.422 4.70856 272.442 4.74607 272.463 4.78359C272.509 4.85861 272.595 4.87795 272.872 4.87454C272.943 4.8734 273.009 4.8643 273.075 4.86657C273.344 4.87453 273.472 4.96888 273.794 4.94955C274.063 4.93364 274.344 4.93023 274.609 4.90977C274.852 4.89158 274.989 4.93251 275.158 4.96321C275.216 4.97344 275.278 4.99502 275.328 4.99389C275.671 4.98138 276.014 4.96889 276.349 4.94729C276.506 4.9382 276.601 4.94501 276.725 4.9723C277.022 5.03823 277.031 5.03482 277.473 5.01436C277.795 4.99844 277.8 5.00071 278.213 5.07006C278.329 5.08938 278.453 5.08938 278.602 5.08028C278.796 5.06892 278.998 5.05073 279.201 5.06778C279.263 5.07233 279.341 5.08597 279.362 5.10075C279.375 5.11098 279.317 5.13599 279.267 5.14395C278.903 5.20306 278.478 5.19283 278.081 5.2167C277.957 5.22353 277.833 5.20192 277.729 5.17123C277.622 5.14054 277.506 5.12804 277.366 5.13372C277.093 5.14623 276.816 5.15418 276.547 5.17237C276.316 5.18828 276.154 5.16214 275.993 5.1269C275.939 5.11553 275.878 5.09393 275.824 5.09506C275.212 5.1178 274.596 5.14054 273.989 5.17237C273.745 5.18601 273.604 5.14964 273.439 5.11894C273.381 5.10871 273.323 5.08711 273.269 5.08825C273.063 5.0928 272.86 5.1053 272.653 5.11439C271.901 5.1485 271.153 5.1826 270.401 5.21443C270.351 5.2167 270.289 5.19283 270.231 5.1826C270.119 5.16213 270.004 5.14281 269.888 5.12348C269.681 5.13258 269.479 5.14394 269.272 5.15076C269.123 5.15531 268.991 5.17123 268.97 5.21443C268.958 5.24285 269.094 5.26899 269.239 5.26672C269.38 5.26444 269.52 5.2508 269.636 5.26558C270.21 5.33833 270.21 5.33947 270.57 5.32469C270.884 5.31105 270.851 5.29968 271.128 5.3622C271.248 5.38948 271.355 5.40541 271.492 5.39859C271.831 5.38267 272.174 5.36675 272.517 5.35311C272.571 5.35084 272.641 5.36221 272.695 5.3713C273.1 5.43951 273.1 5.44178 273.435 5.42473C273.873 5.40427 273.889 5.39858 274.183 5.46793C274.385 5.51567 274.571 5.4827 274.766 5.48043C274.989 5.52476 275.233 5.56456 275.435 5.61458C275.675 5.67369 275.927 5.66345 276.2 5.64639C276.402 5.63389 276.601 5.62934 276.766 5.67595C276.923 5.71915 277.113 5.7237 277.328 5.71234C277.523 5.70211 277.721 5.6805 277.924 5.70551C277.977 5.71233 278.06 5.72939 278.056 5.73962C278.052 5.75553 277.998 5.77827 277.944 5.78509C277.564 5.8317 277.147 5.83056 276.746 5.85216C276.692 5.85557 276.622 5.84306 276.568 5.83396C276.452 5.8135 276.34 5.78964 276.229 5.76804C276.026 5.77486 275.82 5.77713 275.621 5.79077C275.468 5.801 275.353 5.79987 275.241 5.77259C275.138 5.74758 275.026 5.71688 274.902 5.70892C274.778 5.70097 274.633 5.71802 274.497 5.72484C274.361 5.73166 274.203 5.72824 274.096 5.74643C273.989 5.76462 273.922 5.80441 273.852 5.83624C273.774 5.87148 273.666 5.88286 273.509 5.88627C273.364 5.88968 273.249 5.88512 273.141 5.85329C273.096 5.83965 273.034 5.82942 272.972 5.82032C272.914 5.81237 272.848 5.79986 272.794 5.80213C272.178 5.82828 271.566 5.85671 270.95 5.88399C270.644 5.89763 270.649 5.89762 270.012 5.83055C269.954 5.82487 269.884 5.81691 269.826 5.81919C269.483 5.83283 269.144 5.84874 268.801 5.86466C268.454 5.88057 268.458 5.8783 267.867 5.80668C267.759 5.79304 267.602 5.81123 267.474 5.80896C267.205 5.80328 267.073 5.70779 266.759 5.72598C266.49 5.74189 266.209 5.7453 265.94 5.76576C265.697 5.78395 265.556 5.74417 265.391 5.71347C265.333 5.70324 265.271 5.68051 265.221 5.68278C264.605 5.70779 263.994 5.73621 263.175 5.73962C262.973 5.73962 263.063 5.76349 263.196 5.77145C263.386 5.78395 263.448 5.76008 263.345 5.71461C263.27 5.68278 263.163 5.66686 263.076 5.67481C263.03 5.67936 262.973 5.70097 263.175 5.73962C263.39 5.78281 263.378 5.80668 263.415 5.82032C263.506 5.85329 263.634 5.86693 263.766 5.86238C263.973 5.85443 264.175 5.84306 264.382 5.83624C264.44 5.83397 264.51 5.84192 264.564 5.85102C265.019 5.9215 265.023 5.92605 265.506 5.89877C265.659 5.89081 265.771 5.89081 265.891 5.91241C266.056 5.94197 266.176 5.99198 266.428 5.97606C266.763 5.95446 267.106 5.94197 267.449 5.92946C267.503 5.92719 267.561 5.94765 267.623 5.95675C267.792 5.98403 267.916 6.03518 268.168 6.01358C268.363 5.99653 268.574 5.99197 268.78 5.98856C268.834 5.98743 268.917 6.00562 268.941 6.0204C268.991 6.04654 268.929 6.07724 268.788 6.09884C268.731 6.10794 268.652 6.10566 268.586 6.10907C268.313 6.12157 268.04 6.13521 267.767 6.14544C267.623 6.15112 267.486 6.16818 267.47 6.21024C267.457 6.23866 267.606 6.26367 267.747 6.26139C267.953 6.25798 268.16 6.24889 268.359 6.23411C268.71 6.2091 269.016 6.21592 269.301 6.28754C269.504 6.33755 269.491 6.31937 269.706 6.46715C269.76 6.50467 269.921 6.50807 270.062 6.5058C270.401 6.50012 270.558 6.51717 270.529 6.55241C270.491 6.59561 270.372 6.60924 270.219 6.61493C269.946 6.62402 269.673 6.63881 269.4 6.65131C269.334 6.65472 269.26 6.66154 269.198 6.65926C269.136 6.65699 269.078 6.64335 269.024 6.63312C268.908 6.61152 268.809 6.57855 268.685 6.57059C268.561 6.56263 268.416 6.57969 268.28 6.58651C268.144 6.59219 267.999 6.60924 267.875 6.60129C267.751 6.59333 267.648 6.55923 267.536 6.53877C267.482 6.52854 267.416 6.51262 267.362 6.51375C267.09 6.52285 266.817 6.53763 266.544 6.549C266.209 6.56378 266.209 6.56378 265.804 6.4933C265.688 6.47284 265.568 6.47398 265.416 6.48307C265.085 6.50126 265.081 6.49784 264.477 6.43191C264.419 6.42509 264.349 6.41713 264.291 6.42054C263.675 6.44669 263.063 6.47511 262.452 6.50239C261.927 6.52626 261.927 6.52627 261.637 6.63995C261.422 6.72407 261.418 6.72406 261.629 6.76271C261.799 6.79454 261.952 6.84115 262.138 6.8582C262.311 6.87411 262.526 6.82296 262.716 6.87525C262.811 6.9014 262.935 6.92982 263.055 6.93437C263.245 6.94005 263.448 6.90708 263.63 6.9571C263.721 6.98211 263.857 7.00826 263.973 7.0094C264.175 7.01167 264.382 6.99347 264.585 6.98552C264.647 6.98324 264.717 6.98325 264.775 6.98893C264.837 6.99575 264.891 7.0094 264.944 7.02076C265.11 7.05941 265.287 7.0776 265.502 7.05827C265.854 7.02644 266.168 7.04236 266.441 7.11511C266.478 7.12534 266.569 7.12648 266.627 7.12194C266.775 7.11057 266.904 7.10943 267.015 7.13103C267.061 7.14012 267.127 7.15603 267.119 7.16626C267.106 7.18331 267.056 7.20605 267.003 7.21173C266.614 7.25038 266.197 7.25494 265.796 7.2754C265.742 7.27767 265.676 7.26289 265.622 7.25265C265.506 7.23219 265.407 7.1981 265.283 7.19014C265.159 7.18218 265.015 7.19696 264.878 7.20264C264.742 7.20833 264.597 7.22538 264.473 7.21856C264.349 7.2106 264.233 7.18218 264.134 7.15717C264.018 7.12875 263.907 7.12535 263.754 7.13672C263.555 7.15149 263.349 7.15376 263.146 7.16172C263.035 7.14012 262.923 7.11624 262.807 7.09578C262.753 7.08555 262.687 7.07305 262.63 7.07419C262.357 7.08328 262.084 7.09692 261.811 7.10942C261.538 7.12192 261.538 7.12194 261.075 7.05146C261.022 7.0435 260.951 7.03441 260.893 7.03668C260.55 7.05032 260.211 7.06736 259.868 7.081C259.736 7.08669 259.616 7.07077 259.509 7.04008C259.405 7.00939 259.281 6.99234 259.153 6.99802C258.608 7.02189 258.062 7.04463 257.516 7.07305C257.297 7.08442 257.111 7.07419 256.962 7.03327C256.789 6.98666 256.594 6.99803 256.392 7.00712C255.933 7.02986 255.929 7.02871 255.635 6.97074C255.578 6.95937 255.52 6.93777 255.466 6.9389C254.991 6.95596 254.511 6.97187 254.04 6.99916C253.792 7.01393 253.66 6.97415 253.494 6.94459C253.436 6.93436 253.374 6.91276 253.325 6.91504C252.982 6.92754 252.639 6.93891 252.304 6.96165C251.969 6.98438 251.841 6.87867 251.589 6.8798C251.246 6.88094 250.907 6.90709 250.568 6.923C250.295 6.93551 250.022 6.94801 249.749 6.96051C249.476 6.97301 249.204 6.98324 248.931 6.99802C248.786 7.00598 248.679 6.99574 248.559 6.96732C248.406 6.92981 248.224 6.90027 248.059 6.86616C247.807 6.81728 247.807 6.81728 247.501 6.83092C247.435 6.83433 247.364 6.8366 247.298 6.84001C246.798 6.86501 246.798 6.86275 246.161 6.79113C246.132 6.78772 246.058 6.80023 246.029 6.80932C245.942 6.83888 245.864 6.8707 245.785 6.9014C245.674 6.88321 245.537 6.87298 245.463 6.84683C245.252 6.77294 244.921 6.87411 244.706 6.80136C244.628 6.77408 244.491 6.7502 244.367 6.74338C244.239 6.73656 244.095 6.75248 243.962 6.7593C243.619 6.77635 243.619 6.77522 243.326 6.87639C243.177 6.92641 242.962 6.91731 242.768 6.92868C242.565 6.94118 242.371 6.948 242.201 6.9014C242.048 6.85934 241.863 6.84911 241.643 6.86275C241.375 6.8798 241.098 6.89003 240.825 6.90026C240.767 6.90253 240.697 6.89685 240.639 6.89003C240.006 6.82296 240.006 6.82183 239.701 6.83661C239.564 6.84343 239.424 6.84569 239.291 6.85592C239.068 6.87411 238.899 6.85024 238.738 6.81386C238.684 6.80249 238.622 6.78091 238.568 6.78204C238.295 6.78773 238.027 6.79796 237.758 6.80819C237.551 6.81614 237.345 6.82069 237.146 6.83661C236.815 6.86275 236.654 6.78885 236.427 6.75475C236.088 6.76953 235.745 6.77976 235.406 6.80022C235.249 6.80932 235.146 6.80591 235.026 6.77863C234.873 6.74453 234.732 6.70588 234.484 6.72293C234.153 6.74566 233.806 6.75362 233.467 6.76726C233.24 6.73202 233.075 6.6604 232.748 6.68654C232.55 6.70246 232.339 6.70587 232.136 6.71496C231.863 6.72747 231.591 6.73884 231.318 6.75249C231.024 6.76613 231.028 6.76272 230.578 6.69565C230.318 6.65586 230.049 6.70019 229.784 6.70701C229.578 6.7127 229.474 6.76498 229.524 6.83205C229.573 6.89912 229.462 6.95142 229.272 6.96051C228.796 6.98211 228.317 7.00484 227.841 7.02416C227.784 7.02644 227.713 7.01848 227.66 7.01052C227.151 6.93891 227.151 6.94005 226.924 6.95028C226.585 6.96733 226.238 6.97642 225.903 6.99802C225.671 7.0128 225.502 6.98893 225.353 6.95028C225.237 6.92073 225.13 6.91391 224.981 6.92073C223.344 6.99689 221.707 7.06737 220.075 7.1458C219.831 7.15717 219.69 7.12421 219.525 7.09352C219.467 7.08329 219.413 7.06168 219.355 7.06168C219.219 7.06168 219.082 7.07192 218.946 7.07874C218.334 7.10602 217.723 7.13898 217.107 7.15945C216.846 7.16854 216.776 7.22084 216.664 7.26403C216.578 7.297 216.478 7.31064 216.325 7.31518C216.177 7.31973 216.069 7.31404 215.953 7.28449C215.805 7.24584 215.635 7.22196 215.404 7.23788C215.135 7.25606 214.862 7.26403 214.585 7.27654C214.445 7.28222 214.337 7.30268 214.292 7.3436C214.283 7.35042 214.37 7.36748 214.42 7.37771C214.585 7.41181 214.742 7.4516 214.928 7.47547C215.118 7.49934 215.325 7.47205 215.523 7.46523C215.594 7.46296 215.66 7.45614 215.726 7.45728C215.788 7.45842 215.862 7.4641 215.908 7.47433C216.123 7.52549 216.35 7.56073 216.648 7.53003C216.904 7.54481 217.036 7.63916 217.363 7.61415C217.561 7.59938 217.768 7.59256 217.975 7.58687C218.028 7.58574 218.086 7.6062 218.144 7.61643C218.31 7.64485 218.442 7.69032 218.69 7.67099C218.954 7.65053 219.235 7.64712 219.504 7.63121C219.653 7.62211 219.76 7.63007 219.876 7.65963C220.025 7.69714 220.194 7.72555 220.426 7.70736C220.624 7.69145 220.835 7.68804 221.038 7.67781C221.302 7.6653 221.302 7.66644 221.773 7.73692C221.827 7.74488 221.897 7.75397 221.955 7.7517C222.298 7.73806 222.637 7.721 222.98 7.70736C223.113 7.70168 223.241 7.71646 223.332 7.74942C223.369 7.76306 223.357 7.78581 223.369 7.80514C222.687 7.83583 222.005 7.86197 221.327 7.89949C221.071 7.91426 220.955 7.86765 220.785 7.84151C220.728 7.83241 220.666 7.81309 220.612 7.81537C220.132 7.83469 219.657 7.85515 219.182 7.88016C219.033 7.88811 218.921 7.88356 218.81 7.8506C218.524 7.76307 218.177 7.81081 217.855 7.82332C217.607 7.83241 217.528 7.86766 217.557 7.94268C217.594 8.03135 217.743 8.05863 218.123 8.04272C218.26 8.03704 218.396 8.02907 218.533 8.02453C218.665 8.01998 218.785 8.03476 218.892 8.06545C218.996 8.09614 219.12 8.11206 219.248 8.10751C219.521 8.09728 219.798 8.08705 220.062 8.07C220.281 8.05636 220.463 8.06773 220.616 8.10979C220.785 8.15639 220.984 8.14616 221.182 8.13593C221.645 8.11319 221.649 8.11434 221.939 8.17118C221.997 8.18254 222.055 8.20415 222.108 8.20301C222.584 8.18596 223.063 8.17118 223.53 8.14389C223.774 8.13025 223.915 8.16663 224.076 8.19618C224.134 8.20641 224.192 8.22915 224.245 8.22688C224.588 8.21437 224.931 8.20186 225.266 8.18027C225.423 8.17003 225.518 8.17685 225.647 8.20413C225.952 8.2712 225.961 8.26893 226.395 8.24733C226.527 8.24051 226.672 8.22801 226.796 8.2371C226.92 8.2462 227.019 8.27917 227.135 8.29963C227.188 8.30873 227.254 8.32122 227.312 8.31895C227.585 8.30985 227.858 8.29622 228.131 8.28372C228.387 8.27121 228.387 8.27235 228.867 8.34283C229.061 8.37239 229.263 8.34737 229.458 8.33828C229.669 8.32805 229.859 8.32805 230.02 8.37239C230.181 8.41672 230.375 8.41444 230.582 8.40534C230.776 8.39625 230.975 8.37125 231.173 8.40194C231.628 8.47242 231.628 8.47355 231.909 8.45991C232.318 8.44058 232.723 8.4224 233.137 8.40534C233.19 8.40307 233.261 8.41672 233.314 8.42581C233.43 8.44627 233.529 8.48037 233.653 8.48833C233.777 8.49742 233.922 8.48378 234.054 8.47696C234.48 8.45536 234.509 8.44741 234.794 8.52243C235.034 8.58382 235.332 8.49515 235.555 8.56563C235.683 8.60542 235.856 8.63724 236.096 8.61792C236.295 8.60201 236.501 8.59746 236.708 8.58836C237.034 8.57358 237.034 8.57473 237.448 8.64294C237.502 8.65203 237.572 8.66339 237.626 8.66112C237.898 8.65202 238.175 8.64407 238.44 8.62361C238.75 8.59974 238.948 8.64294 239.18 8.685C239.362 8.71797 239.577 8.69068 239.771 8.67931C239.982 8.66794 240.172 8.67135 240.329 8.71568C240.494 8.76115 240.689 8.75547 240.895 8.74638C241.09 8.73842 241.288 8.71227 241.486 8.7441C241.912 8.81458 241.912 8.81458 242.222 8.80094C242.495 8.78843 242.768 8.7748 243.041 8.76571C243.094 8.76343 243.16 8.7782 243.214 8.78844C243.33 8.8089 243.429 8.84301 243.553 8.85096C243.677 8.85892 243.822 8.84414 243.958 8.83846C244.095 8.83278 244.239 8.81572 244.363 8.82254C244.487 8.82937 244.603 8.85779 244.702 8.8828C244.818 8.91235 244.925 8.91576 245.083 8.90439C245.281 8.88961 245.488 8.8862 245.69 8.87825C245.802 8.89984 245.917 8.92144 246.025 8.94531C246.137 8.97032 246.256 8.96805 246.409 8.96009C246.918 8.93281 246.922 8.93622 247.348 9.0067C247.542 9.03853 247.745 9.01238 247.939 9.00443C248.146 8.99533 248.34 8.99079 248.501 9.03626C248.658 9.07946 248.852 9.08513 249.059 9.07149C249.191 9.0624 249.332 9.05672 249.468 9.05331C249.53 9.05218 249.605 9.05672 249.65 9.06582C249.869 9.11356 250.084 9.15676 250.386 9.12607C250.65 9.13516 250.783 9.22838 251.101 9.21019C251.37 9.19427 251.651 9.19085 251.915 9.17039C252.159 9.1522 252.333 9.18404 252.457 9.22383C252.68 9.29431 252.994 9.19882 253.217 9.26816C253.346 9.30795 253.511 9.33978 253.759 9.32273C254.032 9.30454 254.118 9.3284 254.197 9.40002C254.242 9.44094 254.234 9.47392 254.152 9.50575C254.069 9.53871 253.978 9.53303 253.846 9.49552C253.693 9.45346 253.511 9.44549 253.292 9.45458C253.077 9.46368 252.945 9.40458 252.767 9.38184C252.589 9.35797 252.378 9.39776 252.192 9.36706C251.754 9.29545 251.754 9.29545 251.457 9.30909C251.254 9.31818 251.043 9.32273 250.845 9.33864C250.609 9.35797 250.456 9.32272 250.295 9.29089C250.237 9.27953 250.179 9.25792 250.13 9.25906C249.654 9.27611 249.175 9.29203 248.703 9.32045C248.455 9.33523 248.323 9.29431 248.158 9.26589C248.1 9.25566 248.038 9.2352 247.988 9.23747C247.579 9.25338 247.174 9.27384 246.765 9.29317C246.686 9.32386 246.6 9.35341 246.525 9.38638C246.447 9.42048 246.339 9.43527 246.182 9.43413C245.922 9.43413 245.665 9.48187 245.405 9.42163C245.136 9.36024 245.116 9.36365 244.855 9.37843C244.525 9.39775 244.173 9.39321 243.863 9.43754C243.809 9.4455 243.752 9.46709 243.752 9.483C243.747 9.49323 243.834 9.50802 243.888 9.51711C244.07 9.54439 244.281 9.50461 244.462 9.53303C244.582 9.55122 244.682 9.57849 244.801 9.59782C244.851 9.60577 244.925 9.60464 244.992 9.60351C245.062 9.60237 245.128 9.59442 245.194 9.59556C245.256 9.59669 245.322 9.6035 245.372 9.61373C245.599 9.65693 245.839 9.69672 246.042 9.74788C246.24 9.7979 246.426 9.76379 246.624 9.76152C247.418 9.84109 247.418 9.84223 247.951 9.81722C248.084 9.81154 248.22 9.80472 248.356 9.80586C248.414 9.80586 248.468 9.82631 248.526 9.83767C248.691 9.87178 248.848 9.90247 249.08 9.88429C249.278 9.86837 249.489 9.86496 249.691 9.85473C249.964 9.84222 249.964 9.84223 250.427 9.91384C250.543 9.93203 250.667 9.92977 250.816 9.92067C250.944 9.91271 251.076 9.92976 251.167 9.96273C251.204 9.97637 251.192 9.99911 251.204 10.0184C250.795 10.0366 250.382 10.0491 249.985 10.0764C249.729 10.0935 249.613 10.0446 249.443 10.0184C249.386 10.0093 249.324 9.99001 249.27 9.99229C248.865 10.0093 248.46 10.0287 248.055 10.0514C248.005 10.0537 247.943 10.0798 247.939 10.0957C247.931 10.1253 248.034 10.1537 248.183 10.1526C248.381 10.1514 248.575 10.1321 248.753 10.1787C248.902 10.2196 249.088 10.2378 249.307 10.2196C249.439 10.2094 249.58 10.2094 249.712 10.2003C250.064 10.173 250.382 10.1787 250.646 10.256C250.849 10.2765 251.047 10.2572 251.242 10.2469C251.386 10.239 251.527 10.231 251.63 10.2526C251.849 10.2981 252.064 10.3435 252.366 10.3129C252.692 10.3447 252.94 10.4117 253.213 10.4663C253.341 10.4925 253.441 10.5072 253.589 10.4902C253.651 10.4834 253.726 10.4834 253.792 10.48C253.928 10.4743 254.073 10.4572 254.197 10.464C254.321 10.472 254.424 10.505 254.536 10.5254C254.59 10.5357 254.652 10.5527 254.705 10.5516C254.912 10.5459 255.115 10.5345 255.317 10.5254C255.52 10.5175 255.722 10.5095 255.925 10.5016C256.094 10.5311 256.268 10.5607 256.437 10.5902C256.71 10.5777 256.983 10.5652 257.252 10.5538C257.554 10.5402 257.553 10.5413 257.987 10.6118C258.182 10.6437 258.388 10.6232 258.574 10.6084C258.884 10.5845 259.091 10.6277 259.31 10.6732C259.356 10.6823 259.438 10.688 259.492 10.6834C259.707 10.6675 259.893 10.68 260.05 10.7221C260.162 10.7516 260.273 10.7653 260.41 10.7596C260.885 10.738 261.36 10.7153 261.836 10.6959C261.894 10.6937 261.96 10.7039 262.014 10.713C262.435 10.7823 262.439 10.7857 262.749 10.7676C263.026 10.7516 263.283 10.7448 263.502 10.8073C263.547 10.821 263.617 10.8403 263.667 10.8392C264.006 10.8278 264.349 10.8153 264.684 10.796C264.837 10.7869 264.944 10.7903 265.064 10.8164C265.217 10.8494 265.354 10.8892 265.606 10.8744C266.304 10.8324 266.308 10.8392 267.135 10.9176C267.193 10.9233 267.271 10.9142 267.338 10.9097C267.478 10.8983 267.581 10.9142 267.705 10.9404C267.982 10.9995 267.991 10.9961 268.255 10.9836C268.458 10.9733 268.669 10.971 268.867 10.954C269.173 10.929 269.375 10.9733 269.603 11.0154C269.785 11.0484 269.995 11.0211 270.19 11.0108C270.401 10.9995 270.591 11.0029 270.748 11.0461C270.855 11.0756 270.971 11.0915 271.107 11.0859C271.583 11.0654 272.058 11.0427 272.533 11.0222C272.591 11.0199 272.662 11.029 272.715 11.037C273.187 11.1075 273.187 11.1109 273.654 11.0847C273.802 11.0768 273.926 11.0745 274.038 11.0984C274.146 11.1211 274.261 11.1427 274.373 11.1643C274.575 11.1563 274.782 11.1541 274.981 11.1404C275.133 11.1302 275.241 11.1347 275.361 11.1586C275.518 11.1893 275.65 11.2427 275.898 11.2166C276.026 11.2041 276.175 11.2075 276.303 11.1961C276.456 11.1813 276.56 11.1904 276.679 11.22C276.828 11.2552 276.981 11.2916 277.221 11.2734C277.485 11.253 277.767 11.2496 278.035 11.2336C278.184 11.2245 278.287 11.2336 278.407 11.2632C278.556 11.3007 278.726 11.3246 278.957 11.3098C279.428 11.2814 279.432 11.2871 279.891 11.3587C280.007 11.3769 280.131 11.3746 280.28 11.3655C280.408 11.3575 280.54 11.3746 280.631 11.4076C280.718 11.4439 280.71 11.4667 280.718 11.486ZM243.884 1.23345C243.747 1.23913 243.611 1.24595 243.413 1.14705C243.4 1.13 243.408 1.10954 243.38 1.09477C243.313 1.06407 243.21 1.04247 243.086 1.03906C242.863 1.03452 242.594 1.07316 242.598 1.10272C242.602 1.12773 242.673 1.14932 242.809 1.16978C242.867 1.17774 242.912 1.19138 242.966 1.20048C243.123 1.22662 243.247 1.27779 243.475 1.25164C243.454 1.2164 243.433 1.18116 243.475 1.25164C243.454 1.29484 243.516 1.32553 243.665 1.33804C243.706 1.34145 243.768 1.33917 243.801 1.33235C243.929 1.30734 243.95 1.27324 243.855 1.18344C243.838 1.19821 243.851 1.22435 243.888 1.23117C243.925 1.23799 244.016 1.23232 244.062 1.22436C244.177 1.20276 244.235 1.17434 244.206 1.15047C244.19 1.13796 244.111 1.12205 244.062 1.12205C243.975 1.12205 243.896 1.14705 243.884 1.23345ZM277.308 14.4166C277.006 14.4382 276.659 14.4302 276.357 14.4746C276.303 14.4825 276.25 14.503 276.245 14.5189C276.241 14.5291 276.324 14.5439 276.374 14.5519C276.485 14.5701 276.609 14.5644 276.754 14.5587C276.973 14.5507 277.101 14.603 277.271 14.6292C277.324 14.6371 277.395 14.6428 277.452 14.6405C277.787 14.6269 278.118 14.6121 278.453 14.5962C278.511 14.5928 278.573 14.5848 278.622 14.5746C278.788 14.5416 278.771 14.5201 278.61 14.495C278.432 14.4678 278.292 14.4223 278.11 14.4007C277.849 14.37 277.585 14.4109 277.308 14.4166ZM253.833 15.2464C253.631 15.2555 253.432 15.2646 253.23 15.2737C253.164 15.2771 253.093 15.2783 253.031 15.2828C252.903 15.2908 252.808 15.3146 252.746 15.3522C252.841 15.3817 252.957 15.3988 253.085 15.3954C253.288 15.3885 253.486 15.3738 253.689 15.3704C253.908 15.3658 254.036 15.417 254.205 15.4431C254.259 15.4511 254.325 15.4522 254.387 15.4533C254.693 15.4579 254.879 15.3988 254.821 15.3158C254.78 15.251 254.623 15.2123 254.433 15.2203C254.234 15.2283 254.032 15.2374 253.833 15.2464ZM278.721 12.7364C278.771 12.7171 278.825 12.7035 278.85 12.6864C278.924 12.6285 278.895 12.5853 278.759 12.5398C278.593 12.4841 278.391 12.5216 278.205 12.5273C278.159 12.5284 278.11 12.5523 278.085 12.5671C278.068 12.5773 278.068 12.5989 278.093 12.6046C278.296 12.6501 278.511 12.6921 278.721 12.7364ZM242.863 9.37843C242.664 9.38752 242.462 9.39434 242.263 9.40685C242.214 9.41026 242.168 9.43185 242.139 9.44663C242.086 9.47391 242.144 9.51142 242.313 9.51484C242.507 9.51938 242.71 9.50006 242.912 9.49097C243.169 9.4796 243.322 9.43753 243.227 9.40116C243.136 9.36592 243.012 9.3591 242.863 9.37843ZM25.2766 6.94915C25.4089 6.94346 25.5453 6.93891 25.6776 6.93095C25.8016 6.923 25.8967 6.89799 25.9587 6.86047C25.8554 6.83092 25.7396 6.815 25.6115 6.81841C25.4089 6.82523 25.2105 6.83433 25.0121 6.8457C24.8881 6.85252 24.7683 6.87752 24.7394 6.91617C24.7104 6.94573 24.9873 6.96279 25.2766 6.94915ZM225.382 6.77408C225.436 6.78431 225.489 6.80477 225.543 6.80477C225.675 6.80477 225.812 6.79795 225.936 6.78658C225.99 6.78203 226.031 6.76157 226.056 6.74566C226.072 6.73543 226.068 6.71724 226.043 6.70815C225.924 6.65359 225.444 6.67291 225.365 6.73543C225.357 6.7468 225.378 6.76157 225.382 6.77408ZM212.341 0.549109C212.353 0.567297 212.357 0.585483 212.374 0.603672C212.407 0.637775 212.498 0.662789 212.63 0.67984C212.733 0.651421 212.787 0.619596 212.783 0.585493C212.779 0.567305 212.766 0.549105 212.75 0.530917C212.717 0.496813 212.626 0.471813 212.494 0.454762C212.39 0.482044 212.341 0.513869 212.341 0.549109ZM288.274 15.4442C288.237 15.459 288.2 15.4738 288.158 15.4874C288.27 15.5204 288.373 15.5306 288.452 15.5124C288.501 15.5011 288.53 15.484 288.568 15.4693C288.456 15.4363 288.357 15.4272 288.274 15.4442ZM285.703 15.5988C285.757 15.6091 285.806 15.6227 285.864 15.6295C285.959 15.6409 286.046 15.6216 286.112 15.5807C286.058 15.5704 286.009 15.5568 285.951 15.55C285.856 15.5386 285.769 15.5579 285.703 15.5988ZM287.332 15.3908C287.303 15.4181 287.361 15.4408 287.513 15.4602C287.551 15.4454 287.6 15.4317 287.625 15.4158C287.666 15.3897 287.596 15.3658 287.447 15.3476C287.406 15.3613 287.369 15.376 287.332 15.3908ZM278.606 14.1654C278.577 14.1927 278.635 14.2154 278.788 14.2347C278.825 14.2199 278.874 14.2063 278.899 14.1904C278.94 14.1642 278.87 14.1404 278.721 14.1222C278.68 14.1358 278.643 14.1506 278.606 14.1654ZM266.718 6.12157C266.68 6.13635 266.643 6.15113 266.602 6.16477C266.713 6.19774 266.817 6.20796 266.895 6.18978C266.945 6.17841 266.974 6.16136 267.011 6.14658C266.899 6.11361 266.8 6.10452 266.718 6.12157ZM255.33 1.85412C255.429 1.86208 255.512 1.84617 255.582 1.80411C255.528 1.79388 255.478 1.78024 255.421 1.77342C255.325 1.76205 255.239 1.78138 255.173 1.8223C255.226 1.83367 255.28 1.84389 255.33 1.85412ZM249.282 1.58698C249.245 1.60176 249.208 1.61654 249.167 1.63018C249.278 1.66315 249.381 1.67337 249.46 1.65519C249.51 1.64382 249.539 1.62677 249.576 1.61199C249.464 1.57902 249.365 1.57107 249.282 1.58698ZM208.273 0.547971C208.236 0.562749 208.199 0.577528 208.158 0.591169C208.269 0.624135 208.372 0.634363 208.451 0.616174C208.501 0.604807 208.53 0.587755 208.567 0.572977C208.455 0.54001 208.356 0.532056 208.273 0.547971ZM4.07977 9.79675C4.02603 9.78652 3.97234 9.7763 3.92274 9.76493C3.80287 9.79563 3.76568 9.82404 3.83181 9.84564C3.87315 9.85928 3.9351 9.86724 3.98884 9.87747C4.11285 9.84678 4.14177 9.81949 4.07977 9.79675Z" fill="#FFE492"/>
</svg>
