<svg width="483" height="31" viewBox="0 0 483 31" fill="none" xmlns="http://www.w3.org/2000/svg">
<path d="M453.879 15.5723C453.218 15.598 452.551 15.6161 451.903 15.6541C451.482 15.6779 451.301 15.6106 451.02 15.5757C450.927 15.5636 450.826 15.5392 450.739 15.5424C450.085 15.5681 449.43 15.5969 448.776 15.6257C448.576 15.686 448.45 15.7661 448.144 15.7958C447.843 15.824 447.489 15.8246 447.155 15.839C446.715 15.8567 446.274 15.8744 445.833 15.8905C445.613 15.8986 445.433 15.928 445.36 15.9835C445.347 15.9927 445.494 16.0155 445.574 16.0292C445.842 16.0748 446.103 16.1266 446.398 16.1614C446.679 16.1947 447.025 16.1388 447.326 16.1813C448.002 16.2769 448.009 16.2754 448.523 16.2561C448.964 16.2384 449.405 16.2192 449.845 16.2061C449.932 16.2029 450.033 16.2258 450.126 16.2379C450.407 16.2712 450.589 16.3477 451.003 16.3178C451.316 16.2942 451.664 16.289 451.991 16.2762C452.265 16.3202 452.52 16.3705 452.814 16.4053C453.088 16.4386 453.169 16.4646 453.022 16.5094C452.889 16.5511 452.702 16.5684 452.455 16.5719C452.235 16.5738 452.015 16.588 451.794 16.5961C451.681 16.6009 451.574 16.6041 451.467 16.6089C451.046 16.6266 451.046 16.6265 450.277 16.5296C449.976 16.4917 449.636 16.546 449.348 16.5097C449.154 16.4854 448.987 16.4488 448.799 16.4231C448.719 16.4124 448.592 16.4111 448.492 16.4144C448.158 16.4257 447.824 16.434 447.504 16.4545C447.277 16.4687 447.143 16.512 447.171 16.5549C447.178 16.5718 447.338 16.5961 447.432 16.5975C447.646 16.6002 447.872 16.5783 448.08 16.5887C448.28 16.5991 448.488 16.6295 448.635 16.663C448.937 16.7331 449.276 16.6696 449.564 16.6875C449.865 16.707 450.113 16.768 450.4 16.8044C450.474 16.8134 450.614 16.7978 450.728 16.793C451.055 16.7817 451.382 16.7719 451.709 16.7606C451.984 16.8047 452.278 16.8441 452.526 16.8944C452.975 16.9858 453.456 17.0203 454.037 16.9747C454.364 16.9496 454.685 16.9582 454.946 17.0177C455.214 17.0787 455.521 17.072 455.862 17.0591C456.176 17.0463 456.496 17.0119 456.817 17.0544C457.513 17.1484 457.52 17.153 458.341 17.1147C458.588 17.1035 458.775 17.1001 458.962 17.1352C459.137 17.1671 459.324 17.1944 459.505 17.2249C459.832 17.2135 460.166 17.2022 460.493 17.1893C460.914 17.1717 461.148 17.1928 461.249 17.2787C461.31 17.3308 461.337 17.3784 461.484 17.4135C461.659 17.4562 461.846 17.4543 462.099 17.4416C462.34 17.4304 462.513 17.4132 462.613 17.3577C462.653 17.3346 462.733 17.313 462.806 17.2944C462.866 17.2805 462.959 17.2588 463.013 17.2618C463.113 17.2678 463.247 17.2844 463.28 17.3043C463.61 17.4896 463.61 17.4912 463.945 17.5444C464.313 17.6037 464.694 17.6568 465.029 17.7238C465.33 17.7832 465.631 17.7565 465.958 17.756C466.205 17.7555 466.366 17.7952 466.347 17.8352C466.333 17.8583 466.24 17.8922 466.16 17.8954C465.506 17.9273 464.845 17.9545 464.184 17.9772C464.104 17.9804 464.003 17.9529 463.909 17.9393C463.722 17.9119 463.554 17.8692 463.354 17.8603C463.153 17.8515 462.92 17.8749 462.699 17.883C462.479 17.8911 462.246 17.9115 462.045 17.8995C461.844 17.8876 461.683 17.8433 461.496 17.8144C461.409 17.8007 461.289 17.781 461.215 17.7857C460.728 17.8234 460.367 17.7734 460.018 17.7064C459.945 17.6927 459.818 17.6837 459.724 17.6869C458.95 17.7144 458.182 17.7464 457.407 17.777C457.093 17.7898 456.839 17.7365 456.771 17.6459C456.737 17.5953 456.669 17.5447 456.669 17.494C456.668 17.4018 456.3 17.3518 456.032 17.363C455.592 17.3791 455.144 17.3922 454.71 17.416C454.357 17.435 454.056 17.4171 453.814 17.3622C453.533 17.2997 453.213 17.3126 452.892 17.3301C452.652 17.3428 452.586 17.3936 452.6 17.5211C452.615 17.624 452.502 17.6564 452.068 17.6741C451.52 17.6965 450.966 17.719 450.412 17.7369C450.325 17.7401 450.224 17.7142 450.137 17.7005C449.95 17.6732 449.782 17.6289 449.582 17.62C449.381 17.6096 449.148 17.6331 448.928 17.6427C448.707 17.6507 448.474 17.6726 448.273 17.6622C448.073 17.6518 447.905 17.606 447.724 17.5772C447.637 17.5635 447.53 17.5437 447.443 17.5469C447.002 17.56 446.562 17.5792 446.121 17.5968C445.627 17.6161 445.627 17.6161 444.924 17.5221C444.603 17.4797 444.283 17.514 443.969 17.5268C443.635 17.5397 443.321 17.5464 443.06 17.4854C442.886 17.4458 442.692 17.4215 442.485 17.4296C441.931 17.449 441.383 17.473 440.829 17.4924C440.735 17.4956 440.608 17.4881 440.535 17.4744C440.18 17.4105 439.832 17.3604 439.338 17.3935C438.911 17.4219 438.45 17.4243 438.022 17.4511C437.789 17.4654 437.682 17.5147 437.73 17.553C437.757 17.573 437.897 17.5958 437.991 17.5956C438.205 17.5968 438.438 17.5733 438.639 17.5822C439.053 17.5999 439.262 17.7286 439.802 17.6923C440.123 17.6702 440.457 17.662 440.791 17.6553C440.877 17.6536 440.971 17.6826 441.065 17.6978C441.333 17.7388 441.567 17.7922 441.954 17.7638C442.275 17.7418 442.615 17.7351 442.943 17.7222C443.463 17.7013 443.463 17.7029 444.139 17.7954C444.461 17.8394 444.781 17.8035 445.095 17.7922C445.328 17.7841 445.549 17.7684 445.736 17.7896C446.024 17.8213 446.232 17.8947 446.586 17.8895C446.92 17.8843 447.247 17.8622 447.581 17.8539C447.788 17.849 447.982 17.8732 448.149 17.9144C448.323 17.9556 448.511 17.9737 448.738 17.9641C449.065 17.9512 449.399 17.9353 449.733 17.927C449.826 17.9253 449.933 17.939 450.02 17.9511C450.208 17.9784 450.388 18.0104 450.569 18.0393C450.896 18.0295 451.23 18.0258 451.551 18.0068C451.798 17.9926 451.972 17.9984 452.172 18.0288C452.427 18.0698 452.635 18.1432 453.049 18.1072C453.255 18.0899 453.496 18.0941 453.703 18.0784C453.957 18.058 454.13 18.0653 454.311 18.1111C454.653 18.1981 455.081 18.1989 455.521 18.1643C456.002 18.1266 456.363 18.169 456.725 18.236C457.106 18.306 457.106 18.3044 457.402 18.4745C457.49 18.5235 457.737 18.5461 457.944 18.5365C458.291 18.5206 458.592 18.5277 458.847 18.5856C459.115 18.6482 459.435 18.6399 459.762 18.6225C460.196 18.5987 460.63 18.5779 460.985 18.6664C461.16 18.7092 461.347 18.7196 461.58 18.7084C462.242 18.6796 462.909 18.6616 463.557 18.6266C463.951 18.6044 464.178 18.6532 464.446 18.6942C464.808 18.7504 465.203 18.8005 465.204 18.9218C465.204 18.9418 465.298 18.9647 465.378 18.9799C465.552 19.0119 465.74 19.0392 465.921 19.0696C466.188 19.1152 466.449 19.1532 466.816 19.128C467.137 19.1074 467.478 19.1007 467.805 19.0863C468.132 19.0719 468.433 19.0637 468.727 19.1216C469.069 19.187 469.43 19.2494 469.818 19.2979C470.093 19.3327 470.453 19.2722 470.747 19.3193C470.928 19.3482 471.102 19.3817 471.296 19.4059C471.376 19.4165 471.503 19.4086 471.61 19.4054C471.83 19.3989 472.058 19.3939 472.271 19.3781C472.518 19.3608 472.705 19.3636 472.893 19.3986C473.067 19.4305 473.241 19.4748 473.442 19.4836C473.742 19.4969 474.076 19.4349 474.377 19.5051C474.531 19.5401 474.725 19.5736 474.926 19.584C475.126 19.5944 475.36 19.5709 475.574 19.5721C475.667 19.5719 475.781 19.5963 475.835 19.6162C475.868 19.6269 475.822 19.6562 475.775 19.6716C475.715 19.6902 475.629 19.7149 475.542 19.7181C474.881 19.7469 474.22 19.7711 473.559 19.7984C473.165 19.8144 473.165 19.8144 472.369 19.719C472.181 19.6963 471.974 19.7013 471.741 19.7124C471.427 19.7268 471.107 19.7535 470.779 19.7264C470.35 19.6227 469.822 19.6144 469.261 19.6553C469.028 19.6726 468.814 19.673 468.64 19.6441C468.272 19.5863 467.884 19.5332 467.556 19.4647C467.301 19.4113 467.181 19.4069 467.075 19.4809C467.042 19.504 467.008 19.5286 467.015 19.5501C467.056 19.6268 467.131 19.702 467.172 19.7787C467.185 19.8002 467.132 19.8249 467.099 19.848C466.993 19.9127 466.853 19.9083 466.618 19.855C466.384 19.8016 466.103 19.7668 465.729 19.792C465.409 19.8141 465.061 19.8116 464.741 19.8352C464.247 19.8699 463.899 19.8213 463.544 19.7559C463.47 19.7422 463.343 19.7347 463.25 19.7379C462.255 19.775 461.267 19.8167 460.272 19.8537C460.058 19.8618 459.864 19.8391 459.696 19.7979C459.522 19.7567 459.328 19.7355 459.114 19.7436C458.233 19.7774 457.352 19.8081 456.47 19.8496C456.11 19.8671 455.822 19.8476 455.574 19.7943C455.387 19.7547 455.213 19.7427 454.979 19.7477C454.725 19.7527 454.545 19.7684 454.419 19.8132C454.299 19.8564 454.386 19.8824 454.654 19.9157C454.942 19.9521 455.209 19.9993 455.484 20.0418C455.704 20.0353 455.924 20.0226 456.138 20.0237C456.232 20.0236 456.319 20.0511 456.413 20.0663C456.681 20.1104 456.928 20.1545 457.309 20.1293C457.629 20.1072 457.97 20.102 458.297 20.0876C458.751 20.0699 458.751 20.0699 459.487 20.1654C459.674 20.1897 459.875 20.1878 460.115 20.1735C460.322 20.1624 460.536 20.1836 460.684 20.2294C460.744 20.2477 460.724 20.2785 460.599 20.3801C460.6 20.4554 460.739 20.4214 460.786 20.3721C460.858 20.3013 460.718 20.2785 460.451 20.3174C460.264 20.3454 460.171 20.3855 460.218 20.4177C460.245 20.4345 460.373 20.4558 460.599 20.3801C461.186 20.2869 461.633 20.2754 462.06 20.2501C462.314 20.2358 462.474 20.2417 462.675 20.2812C462.916 20.3285 463.157 20.3787 463.551 20.3535C463.978 20.3251 464.433 20.3212 464.867 20.2974C465.267 20.2752 465.475 20.3425 465.73 20.382C466.037 20.429 466.377 20.3747 466.658 20.4019C466.953 20.429 467.16 20.4962 467.501 20.5079C467.995 20.4656 468.31 20.5419 468.685 20.5919C468.979 20.6298 469.326 20.5954 469.64 20.578C469.994 20.5589 470.288 20.5753 470.536 20.6302C470.817 20.6927 471.131 20.6783 471.452 20.6639C472.2 20.6319 472.226 20.6272 472.661 20.711C472.976 20.7719 473.276 20.7437 473.59 20.7355C473.865 20.7765 474.132 20.8206 474.42 20.8569C474.494 20.866 474.634 20.8504 474.747 20.8456C475.075 20.8328 475.408 20.8199 475.736 20.807C475.956 20.799 476.19 20.7755 476.39 20.7844C476.591 20.7948 476.758 20.8391 476.939 20.8679C477.12 20.8968 477.307 20.9257 477.481 20.9561C477.749 21.0017 478.003 21.0397 478.377 21.016C478.697 20.9955 479.031 20.9888 479.365 20.9743C479.786 20.9567 479.773 20.9614 480.555 21.0522C480.977 21.1021 481.41 21.0399 481.838 21.033C482.052 21.0296 482.259 21.0461 482.406 21.0904C482.467 21.1088 482.447 21.1395 482.468 21.1656C481.366 21.209 480.257 21.2463 479.169 21.2989C478.748 21.3196 478.527 21.2646 478.299 21.2189C477.924 21.1458 477.431 21.2542 477.076 21.1596C476.862 21.1031 476.554 21.0714 476.187 21.0997C475.973 21.1154 475.746 21.1143 475.526 21.1285C474.965 21.1633 474.451 21.1657 474.002 21.0605C473.848 21.0239 473.627 21.0043 473.466 20.9692C473.279 20.9311 473.098 20.9099 472.878 20.918C471.883 20.9566 470.894 20.9952 469.906 21.0369C469.819 21.0401 469.733 21.0633 469.659 21.0803C469.473 21.1236 469.534 21.1573 469.834 21.1845C469.935 21.1935 470.015 21.2133 470.109 21.2285C470.29 21.2574 470.457 21.3032 470.658 21.3136C470.858 21.324 471.092 21.3021 471.312 21.2941C471.533 21.286 471.766 21.2625 471.967 21.2714C472.167 21.2818 472.335 21.3261 472.522 21.3534C472.609 21.3671 472.716 21.3899 472.803 21.3883C473.244 21.3783 473.678 21.3606 474.119 21.346C474.393 21.387 474.628 21.4465 474.955 21.4598C475.163 21.4687 475.383 21.4514 475.597 21.4541C475.69 21.4554 475.811 21.4783 475.858 21.4982C475.884 21.5104 475.798 21.5413 475.731 21.5568C475.478 21.6156 475.131 21.6054 474.817 21.6244C474.477 21.645 474.169 21.6394 473.908 21.5799C473.734 21.5403 473.54 21.5191 473.326 21.5272C472.772 21.5481 472.224 21.5721 471.67 21.59C471.576 21.5932 471.463 21.5796 471.376 21.569C470.673 21.4765 470.673 21.4734 470.179 21.4942C469.451 21.5247 469.451 21.5247 468.963 21.4441C468.869 21.4289 468.768 21.3999 468.688 21.4016C467.913 21.4275 467.145 21.4534 466.378 21.4901C466.124 21.5013 465.95 21.5016 465.763 21.4619C465.602 21.4284 465.414 21.3903 465.214 21.3815C465.007 21.3726 464.78 21.3961 464.559 21.4041C464.339 21.4122 464.106 21.4326 463.912 21.4206C463.711 21.4087 463.537 21.366 463.363 21.3355C463.182 21.3036 462.988 21.3054 462.741 21.3182C461.98 21.3548 461.973 21.3502 461.217 21.2563C461.13 21.2457 461.017 21.2336 460.923 21.2368C460.369 21.2562 459.821 21.2802 459.267 21.2996C459.053 21.3077 458.846 21.2881 458.699 21.2438C458.638 21.2254 458.658 21.1947 458.617 21.1348C458.57 21.1211 458.624 21.1456 458.637 21.1686C458.738 21.1653 458.858 21.1682 458.931 21.1558C459.118 21.1263 459.211 21.0877 459.164 21.0555C459.137 21.0387 459.01 21.0174 458.93 21.0175C458.783 21.0178 458.656 21.0518 458.617 21.1348C458.197 21.1862 457.749 21.1978 457.315 21.2231C457.062 21.2389 456.901 21.2315 456.7 21.1919C456.459 21.1432 456.211 21.096 455.818 21.1212C455.39 21.1496 454.936 21.155 454.496 21.1773C453.988 21.2028 453.766 21.0649 453.338 21.0687C452.898 21.0725 452.457 21.0994 452.016 21.1186C451.629 21.1347 451.629 21.1347 450.826 21.0362C450.532 20.9998 450.185 21.0542 449.897 21.0163C449.703 20.9921 449.536 20.9555 449.348 20.9297C449.268 20.9191 449.141 20.9193 449.041 20.9225C448.487 20.9419 447.926 20.9552 447.392 20.9899C446.784 21.0309 446.323 20.9887 445.887 20.8988C445.34 20.9167 444.785 20.9269 444.245 20.957C443.851 20.9792 443.623 20.9289 443.355 20.8879C443.262 20.8742 443.181 20.8513 443.081 20.8453C442.981 20.8393 442.86 20.8518 442.754 20.8566C442.313 20.8743 441.859 20.8828 441.431 20.9112C440.904 20.9474 440.702 20.8218 440.294 20.8071C440.022 20.8829 439.876 20.9861 439.335 20.9947C438.894 21.0016 438.453 21.027 438.013 21.0446C437.792 21.0527 437.572 21.0623 437.352 21.0704C436.998 21.0848 436.831 21.145 436.906 21.2371C436.947 21.2877 436.981 21.3383 437.015 21.389C437.083 21.4795 436.917 21.5566 436.636 21.5678C435.861 21.5984 435.094 21.6304 434.319 21.6579C434.112 21.6659 433.911 21.6402 433.744 21.599C433.569 21.5578 433.376 21.5397 433.162 21.5477C432.387 21.5783 431.619 21.6103 430.845 21.6378C430.758 21.641 430.644 21.6259 430.557 21.6137C430.37 21.5864 430.189 21.5545 430.008 21.5256C429.568 21.5402 429.133 21.5501 428.699 21.5693C427.998 21.5982 427.998 21.5997 427.483 21.5161C427.389 21.5009 427.295 21.4719 427.209 21.4736C426.875 21.4803 426.547 21.4963 426.214 21.5107C425.232 21.5523 425.232 21.5523 424.944 21.5067C424.683 21.4641 424.449 21.4123 424.055 21.4376C423.627 21.466 423.173 21.476 422.733 21.4921C422.405 21.5034 422.078 21.5163 421.751 21.5199C421.664 21.5216 421.57 21.4926 421.476 21.4774C421.209 21.4302 420.948 21.3923 420.58 21.419C420.367 21.4348 420.14 21.4382 419.919 21.4463C419.345 21.4688 419.345 21.4688 418.402 21.3783C418.308 21.3692 418.195 21.3587 418.101 21.3634C417.327 21.3924 416.559 21.4245 415.784 21.452C415.691 21.4552 415.577 21.4462 415.483 21.4386C414.427 21.3514 414.427 21.3514 413.305 21.3963C412.878 21.4124 412.864 21.4186 412.416 21.338C412.215 21.303 412.048 21.2864 411.814 21.2975C410.933 21.3359 410.044 21.3621 409.17 21.4066C408.776 21.4257 408.548 21.38 408.28 21.339C408.187 21.3253 408.086 21.2948 408.006 21.2965C407.125 21.3272 406.243 21.3641 405.362 21.3948C405.281 21.398 405.181 21.3674 405.087 21.3538C404.906 21.3264 404.732 21.2852 404.532 21.2764C404.324 21.2675 404.098 21.291 403.871 21.299C403.316 21.32 403.316 21.3184 402.674 21.2289C402.587 21.2168 402.473 21.2001 402.386 21.2033C401.505 21.2355 400.617 21.2632 399.742 21.3093C399.241 21.3347 398.9 21.2908 398.545 21.2269C398.472 21.2132 398.345 21.2072 398.251 21.2105C397.256 21.2475 396.268 21.2892 395.273 21.3263C395.066 21.3343 394.865 21.3085 394.698 21.2689C394.43 21.2063 394.116 21.2146 393.782 21.229C393.014 21.2626 393.007 21.2611 392.552 21.1881C392.458 21.1729 392.378 21.1531 392.278 21.1456C392.184 21.138 392.064 21.1429 391.964 21.1461C391.523 21.1622 391.082 21.1799 390.642 21.1976C390.201 21.2152 389.753 21.2252 389.319 21.2521C388.785 21.2853 388.53 21.1859 388.156 21.1404C387.608 21.1613 387.047 21.1746 386.506 21.2078C386.092 21.2331 385.898 21.1659 385.624 21.131C385.53 21.1189 385.429 21.0929 385.343 21.0962C384.348 21.1317 383.353 21.1703 382.364 21.2135C382.124 21.2231 381.964 21.2111 381.763 21.1746C381.314 21.0924 381.294 21.0955 380.546 21.1275C380.219 21.1419 379.905 21.1548 379.624 21.0923C379.376 21.0358 379.075 21.0225 378.721 21.0416C378.287 21.0654 377.84 21.0785 377.399 21.0946C376.958 21.1123 376.518 21.1361 376.077 21.1445C375.723 21.1528 375.508 21.081 375.227 21.0446C375.14 21.034 375.02 21.0327 374.92 21.0359C374.479 21.0505 374.025 21.062 373.598 21.0889C373.077 21.1221 372.789 21.0381 372.421 20.9895C372.341 20.9789 372.207 20.9853 372.107 20.9901C371.332 21.0191 370.564 21.0511 369.79 21.0817C369.515 21.0407 369.234 21.0012 368.96 20.9602C368.519 20.9764 368.078 20.994 367.638 21.0101C367.304 21.023 366.963 21.0282 366.649 21.0518C366.242 21.0832 366.041 21.0114 365.767 20.9765C365.673 20.9644 365.572 20.9384 365.486 20.9417C364.931 20.9595 364.377 20.9789 363.83 21.006C363.309 21.033 363.1 20.8951 362.673 20.8974C362.232 20.8997 361.778 20.9205 361.35 20.9489C360.856 20.982 360.508 20.9334 360.154 20.868C360.08 20.8543 359.953 20.8468 359.859 20.85C359.305 20.8694 358.758 20.8934 358.203 20.9128C358.11 20.9161 357.996 20.9086 357.903 20.8995C356.846 20.8107 356.846 20.8092 356.385 20.8284C356.058 20.8413 355.724 20.8572 355.39 20.8655C355.297 20.8687 355.183 20.8551 355.096 20.843C354.4 20.7504 354.4 20.7489 353.899 20.7682C353.458 20.7859 353.018 20.8035 352.577 20.8212C352.303 20.7802 352.021 20.7408 351.747 20.6997C351.2 20.7207 350.639 20.737 350.098 20.7656C349.844 20.7783 349.677 20.774 349.483 20.7359C349.242 20.6903 349.001 20.6369 348.6 20.6637C348.173 20.6921 347.719 20.696 347.285 20.7198C346.764 20.7483 346.548 20.6089 346.128 20.6112C345.687 20.6135 345.233 20.6342 344.805 20.6626C344.311 20.6958 343.963 20.6472 343.609 20.5818C343.535 20.5681 343.408 20.5606 343.314 20.5638C342.099 20.6105 340.891 20.6571 339.675 20.7069C338.927 20.7374 338.927 20.7389 337.503 20.6569C337.403 20.6509 337.296 20.645 337.196 20.6482C336.755 20.6628 336.301 20.6743 335.874 20.7012C335.353 20.7344 335.065 20.6519 334.697 20.6018C334.616 20.5912 334.49 20.5976 334.383 20.6008C334.049 20.6122 333.722 20.6266 333.388 20.6395C332.947 20.6571 332.506 20.6748 332.066 20.6924C331.791 20.653 331.51 20.612 331.236 20.5725C330.688 20.5934 330.127 20.6052 329.586 20.6384C329.173 20.6637 328.978 20.5995 328.704 20.5631C328.61 20.551 328.51 20.525 328.423 20.5267C327.428 20.5622 326.433 20.5993 325.445 20.644C325.037 20.6632 324.849 20.5944 324.575 20.5595C324.481 20.5489 324.374 20.5291 324.287 20.5323C323.626 20.555 322.965 20.5823 322.304 20.6095C321.93 20.6255 321.93 20.6255 321.114 20.5317C321.02 20.5211 320.913 20.5105 320.82 20.5138C318.723 20.5942 316.633 20.6793 314.536 20.7598C314.323 20.7678 314.129 20.7451 313.961 20.7039C313.787 20.6627 313.593 20.6416 313.379 20.6496C312.498 20.6834 311.61 20.7142 310.735 20.7556C310.374 20.7731 310.087 20.7536 309.839 20.7003C309.651 20.6607 309.478 20.6456 309.244 20.6553C308.803 20.6745 308.363 20.6906 307.922 20.7083C307.481 20.7259 307.04 20.7436 306.6 20.7613C306.159 20.7789 305.712 20.7889 305.278 20.8158C304.744 20.849 304.482 20.7542 304.114 20.7072C303.453 20.7314 302.792 20.7556 302.137 20.7813C301.256 20.8151 300.374 20.852 299.493 20.8842C299.413 20.8874 299.312 20.8599 299.219 20.8463C298.944 20.8083 298.743 20.7549 298.336 20.7725C296.359 20.8574 294.369 20.93 292.386 21.0133C291.972 21.0309 291.791 20.9652 291.51 20.9303C291.416 20.9197 291.309 20.8984 291.222 20.9017C290.121 20.942 289.019 20.9869 287.917 21.0303C287.47 21.048 287.47 21.048 286.72 20.954C286.633 20.9434 286.519 20.9298 286.426 20.933C284.99 20.9877 283.561 21.0455 282.126 21.1018C281.912 21.1099 281.718 21.0887 281.544 21.0475C281.376 21.0063 281.176 20.9836 280.969 20.9917C279.646 21.0431 278.318 21.0931 277.002 21.1491C276.648 21.1651 276.354 21.1518 276.1 21.0969C275.919 21.0573 275.738 21.0407 275.511 21.0503C273.528 21.129 271.545 21.2047 269.561 21.288C269.181 21.304 268.913 21.2753 268.672 21.225C268.478 21.1854 268.311 21.178 268.07 21.1846C267.817 21.1927 267.663 21.2099 267.524 21.2562C267.344 21.3164 267.231 21.3919 266.804 21.3973C266.363 21.4026 265.916 21.4219 265.482 21.4487C265.068 21.4756 264.873 21.4068 264.612 21.3657C264.418 21.3369 264.238 21.3326 263.991 21.3468C263.764 21.3595 263.624 21.3859 263.491 21.4353C263.198 21.5403 263.171 21.5403 262.81 21.4749C262.616 21.4399 262.441 21.4125 262.228 21.419C261.346 21.4513 260.465 21.4866 259.583 21.5235C259.076 21.5443 259.069 21.5474 258.688 21.4713C258.5 21.4332 258.319 21.4151 258.099 21.4247C255.675 21.5211 253.251 21.6144 250.827 21.7154C250.454 21.7314 250.199 21.6996 249.931 21.6539C249.844 21.6387 249.757 21.6174 249.657 21.6114C249.557 21.6054 249.443 21.6118 249.336 21.615C247.574 21.6842 245.804 21.7502 244.048 21.827C243.647 21.8446 243.433 21.7958 243.159 21.7564C243.065 21.7427 242.984 21.7213 242.884 21.7154C242.784 21.7109 242.664 21.7219 242.557 21.7267C240.794 21.7958 239.024 21.8619 237.268 21.9387C236.848 21.9563 236.666 21.8921 236.392 21.8588C236.298 21.8466 236.198 21.8237 236.111 21.827C235.557 21.8448 235.009 21.8688 234.455 21.8898C233.133 21.9428 231.811 21.9927 230.489 22.0472C229.981 22.0681 229.759 21.9317 229.332 21.9386C228.777 21.9472 228.23 21.9789 227.675 22.0014C227.235 22.0191 226.794 22.0352 226.353 22.0544C225.919 22.0721 225.919 22.072 224.836 21.9848C224.742 21.9773 224.629 21.9667 224.535 21.97C222.993 22.0295 221.444 22.089 219.908 22.1532C219.554 22.1676 219.26 22.1604 219.005 22.104C218.824 22.0644 218.637 22.0447 218.417 22.0543C216.1 22.1459 213.789 22.2375 211.472 22.3276C211.385 22.3308 211.272 22.3157 211.185 22.3035C210.997 22.2762 210.816 22.2442 210.636 22.2154C210.502 22.2509 210.329 22.2835 210.243 22.3236C210.123 22.3776 209.963 22.3932 209.709 22.4029C209.456 22.4125 209.295 22.4097 209.094 22.3701C208.853 22.3214 208.606 22.2834 208.212 22.2994C205.788 22.4004 203.364 22.4922 200.94 22.5917C200.539 22.6078 200.351 22.5405 200.07 22.5056C199.977 22.495 199.87 22.4783 199.783 22.4816C198.788 22.5186 197.8 22.5587 196.805 22.5973C194.047 22.7066 191.289 22.8113 188.538 22.9267C188.037 22.9475 187.696 22.9097 187.341 22.8442C187.267 22.8305 187.14 22.8231 187.047 22.8263C183.187 22.9774 179.328 23.1301 175.475 23.2827C175.268 23.2908 175.067 23.2665 174.899 23.2269C174.725 23.1857 174.531 23.1661 174.318 23.1741C172.555 23.2432 170.792 23.3124 169.029 23.383C168.588 23.4007 168.582 23.4022 168.127 23.3293C168.033 23.3141 167.932 23.2851 167.859 23.2883C167.705 23.2962 167.559 23.3349 167.452 23.3873C167.346 23.4428 167.179 23.4584 166.932 23.4696C166.679 23.4808 166.512 23.4765 166.317 23.44C166.07 23.3943 165.842 23.3501 165.441 23.3662C160.373 23.5717 155.305 23.7694 150.237 23.9733C149.829 23.9894 149.642 23.9252 149.361 23.8904C149.267 23.8798 149.173 23.8646 149.073 23.8617C148.966 23.8588 148.853 23.8682 148.746 23.873C140.479 24.1992 132.212 24.527 123.946 24.8532C123.451 24.8725 123.458 24.8725 122.919 25.0148C122.852 25.0318 122.765 25.055 122.672 25.0582C120.141 25.1609 117.604 25.2606 115.066 25.3603C113.965 25.4037 112.863 25.4486 111.761 25.4905C111.367 25.505 111.367 25.505 110.427 25.6725C110.347 25.6865 110.254 25.7051 110.16 25.7083C105.753 25.8834 101.346 26.0586 96.9321 26.2306C96.5849 26.2435 96.3047 26.2716 96.1452 26.3457C96.0323 26.3981 95.8857 26.4291 95.6654 26.4387C92.5804 26.5608 89.4955 26.6845 86.4037 26.8035C86.0365 26.818 85.8165 26.8614 85.6369 26.9262C85.577 26.9478 85.5238 26.9725 85.4372 26.988C85.3572 27.002 85.237 27.0068 85.1368 27.0116C82.4926 27.116 79.8484 27.2236 77.1974 27.3234C76.8034 27.3379 76.6437 27.395 76.4506 27.4553C76.3841 27.4754 76.3376 27.5031 76.2509 27.5171C76.1642 27.5295 76.0373 27.5298 75.9305 27.533C73.7269 27.6198 71.5234 27.7081 69.3198 27.7949C68.8922 27.788 68.7997 27.8773 68.5932 27.9314C68.52 27.9499 68.4669 27.9746 68.3802 27.9871C68.2869 27.9995 68.1664 27.9982 68.0529 28.0014C66.29 28.0706 64.5273 28.1443 62.7577 28.2088C62.3503 28.2234 62.2711 28.3019 62.0513 28.356C61.978 28.373 61.9049 28.3993 61.8181 28.404C60.7164 28.4505 59.6146 28.4939 58.5128 28.5358C58.1456 28.5502 58.1455 28.5487 57.4994 28.7019C57.4261 28.7189 57.3394 28.7375 57.2459 28.7423C55.5966 28.8097 53.9406 28.874 52.2846 28.9399C52.0709 28.9479 51.9244 28.9851 51.8182 29.0375C51.7119 29.0899 51.5587 29.124 51.345 29.132C50.0229 29.185 48.7006 29.2395 47.3784 29.2879C47.0112 29.3009 46.7712 29.3397 46.6117 29.4091C46.4921 29.4615 46.3454 29.4879 46.1117 29.4975C44.7896 29.549 43.4675 29.6051 42.1386 29.6504C41.7513 29.6634 41.5514 29.7159 41.3919 29.7807C41.2656 29.8332 41.1188 29.8519 40.8717 29.8615C38.4478 29.9548 36.0172 30.0482 33.6 30.1507C33.1927 30.1683 32.9849 30.1149 32.7172 30.0769C32.3358 30.0238 31.9811 29.9661 31.9797 29.8462C31.9794 29.8278 31.8656 29.8065 31.7852 29.7913C31.1893 29.6771 31.1892 29.6771 31.0942 29.5543C31.0398 29.4792 30.9788 29.4025 30.9311 29.3257C30.8427 29.1999 30.6285 29.168 30.0141 29.1921C29.7938 29.2002 29.5734 29.2113 29.3531 29.2178C29.0258 29.2292 28.7781 29.1789 28.7168 29.0868C28.6828 29.0362 28.6422 28.9855 28.6082 28.9349C28.942 28.922 28.9352 28.9205 29.5209 28.7336C29.7671 28.6548 29.7672 28.6548 29.2919 28.5773C29.1112 28.5484 28.9371 28.5164 28.743 28.4891C28.656 28.477 28.5424 28.4695 28.4489 28.4727C27.8946 28.4921 27.3471 28.5146 26.7995 28.5371C25.9181 28.5724 25.918 28.5724 25.0209 28.4172C24.9473 28.4051 24.8334 28.3822 24.8466 28.3699C24.9194 28.313 25.0995 28.2881 25.3266 28.2815C25.6605 28.2717 25.9876 28.2558 26.3148 28.2429C26.5352 28.2349 26.7555 28.2253 26.9759 28.2172C27.1823 28.1585 27.3955 28.1013 27.5885 28.041C27.8947 27.9483 27.8945 27.9452 27.4728 27.8814C27.2051 27.8389 26.9174 27.801 26.643 27.7615C26.3158 27.7743 25.9819 27.7887 25.6547 27.8001C25.2407 27.8146 25.0733 27.7857 24.9652 27.686C24.8706 27.5986 24.9833 27.5232 25.3037 27.5042C25.6308 27.4852 25.9381 27.4724 26.1042 27.3937C26.2636 27.3182 26.5438 27.2885 26.8911 27.2817C27.1115 27.2767 27.3318 27.2656 27.5522 27.256C27.8393 27.2432 27.992 27.1646 27.9308 27.0771C27.8967 27.0203 27.8293 26.9728 27.5686 26.961C26.4122 26.9092 26.3988 26.9108 25.823 26.8073C25.7695 26.7982 25.7291 26.7706 25.749 26.7568C25.7821 26.7336 25.8552 26.6997 25.9353 26.695C26.7032 26.6598 27.4711 26.6278 28.239 26.6034C28.4928 26.5953 28.6798 26.5842 28.7659 26.5272C28.8852 26.4486 28.8309 26.3765 28.5964 26.3232C28.5227 26.3064 28.4021 26.2851 28.322 26.2868C27.4405 26.316 26.5658 26.3528 25.6843 26.382C25.6041 26.3852 25.4569 26.3594 25.4233 26.3394C25.356 26.3027 25.4556 26.2533 25.6892 26.236C25.9962 26.2125 26.3102 26.2104 26.5163 26.1332C26.8023 26.0236 27.1551 25.9232 27.4745 25.8181C27.5277 25.7996 27.6142 25.7641 27.5942 25.7611C27.4267 25.7276 27.2326 25.7018 27.0586 25.6698C26.764 25.6166 26.763 25.5413 26.8289 25.469C26.8816 25.4105 27.0818 25.3871 27.329 25.3867C27.4358 25.3865 27.5695 25.3863 27.6561 25.3723C27.8829 25.3381 27.9558 25.2949 27.8419 25.2629C27.7749 25.2445 27.6543 25.2187 27.5742 25.2219C26.1452 25.275 24.7094 25.3267 23.2872 25.3922C22.8665 25.4113 22.6722 25.3533 22.4178 25.3122C22.2237 25.2803 22.0431 25.2683 21.8028 25.2918C21.576 25.3137 21.3554 25.3018 21.2145 25.2513C21.1005 25.2101 21.3004 25.1744 21.841 25.1335C21.9412 25.1256 22.0546 25.1208 22.1279 25.1053C22.9009 24.9381 22.9008 24.9365 23.435 24.9141C23.9558 24.8932 23.9559 24.8917 24.2288 24.8021C24.3552 24.7604 24.4949 24.7187 24.6146 24.6754C24.6611 24.6585 24.741 24.6276 24.7142 24.6184C24.5666 24.5711 24.366 24.5607 24.1323 24.5718C23.6116 24.5988 22.9968 24.5784 22.7247 24.7248C22.6184 24.7803 22.4516 24.796 22.2112 24.8056C19.7939 24.8989 17.3766 24.9984 14.9527 25.0886C14.5587 25.1031 14.3791 25.1603 14.2262 25.2235C14.0932 25.276 13.9464 25.2916 13.6927 25.3013C13.4389 25.3109 13.2385 25.3159 13.0909 25.2655C13.0036 25.2349 13.0766 25.1917 13.2765 25.1484C13.563 25.0864 13.5086 25.0097 13.4142 24.9377C13.3468 24.8901 13.1393 24.8567 12.9189 24.8602C12.5916 24.8669 12.2779 24.8843 12.0033 24.8233C11.8425 24.7883 11.6418 24.764 11.461 24.7336C11.1129 24.6712 10.7647 24.6073 10.2775 24.6497C9.94329 24.6349 9.70879 24.58 9.44105 24.5374C8.99259 24.4675 8.95237 24.4568 9.27212 24.381C9.63185 24.2959 9.34986 24.1857 9.54927 24.1024C9.76196 24.013 10.0551 23.9341 10.3146 23.8507C10.3811 23.8291 10.441 23.809 10.5076 23.7874C10.3536 23.7569 10.2128 23.7188 10.0322 23.6976C9.79803 23.6703 9.67736 23.6367 9.68956 23.5414C9.64263 23.5277 9.66296 23.563 9.71652 23.5721C9.77676 23.5812 9.92375 23.5733 9.9971 23.5624C10.1838 23.5329 10.2768 23.4943 10.2296 23.4622C10.2027 23.4453 10.0756 23.424 9.99542 23.4242C9.84845 23.4244 9.72195 23.4584 9.68287 23.5415C8.93542 23.6057 8.16072 23.6378 7.38608 23.6637C7.30595 23.667 7.20542 23.6364 7.11171 23.6212C6.80376 23.5695 6.80374 23.571 5.90168 23.5572C5.80813 23.5559 5.68101 23.5346 5.63398 23.5132C5.4391 23.4198 5.44458 23.3168 5.34984 23.2171C5.52275 23.1523 5.69554 23.089 5.87515 23.0257C6.23435 22.8976 6.70073 22.7846 6.97961 22.6443C6.91857 22.5692 6.83747 22.494 7.13067 22.4321C7.9648 22.3538 7.95817 22.3538 8.18442 22.2797C8.82989 22.0696 9.46862 21.858 10.1409 21.651C10.3206 21.5969 10.3202 21.5677 9.99929 21.5452C9.89901 21.5392 9.79196 21.5379 9.68511 21.5412C9.35121 21.5525 9.01753 21.5807 8.6901 21.5751C8.3627 21.5711 8.12138 21.5039 7.85365 21.4629C7.57922 21.4204 7.30479 21.3763 7.03034 21.3322C6.71641 21.3374 6.40301 21.3809 6.08818 21.3123C5.84703 21.259 5.54595 21.2211 5.27151 21.177C5.47718 21.0599 5.86363 20.9701 6.163 20.8667C6.43576 20.7725 6.44231 20.774 7.1763 20.7005C7.52328 20.6661 7.64142 20.4923 7.34686 20.4421C6.99204 20.3813 6.61731 20.3251 6.25585 20.2673C5.94192 20.2725 5.62182 20.3145 5.32036 20.2459C5.0859 20.1941 4.8182 20.1592 4.43097 20.1799C3.77668 20.2148 3.10885 20.2329 2.44781 20.2617C2.22079 20.2713 1.97346 20.2656 1.87261 20.2135C1.80536 20.1767 1.99849 20.1257 2.21882 20.1146C2.55266 20.0986 2.85303 20.0797 3.01911 20.0026C3.17851 19.9255 3.47214 19.9019 3.8194 19.8906C3.91289 19.8873 4.01963 19.8687 4.06617 19.8502C4.30559 19.7607 4.57189 19.6834 5.08633 19.6856C5.29974 19.6545 5.41277 19.6159 5.34551 19.5791C5.30519 19.5592 5.16465 19.5333 5.08452 19.5366C4.53022 19.5529 3.97594 19.5692 3.43515 19.5978C3.18144 19.6105 2.98763 19.6139 2.82674 19.5681C2.7128 19.5376 2.77241 19.496 2.98565 19.4511C3.17223 19.4123 3.2252 19.3677 3.2112 19.3155C3.17632 19.1942 2.97543 19.1592 2.33419 19.168C1.87331 19.1749 1.75949 19.1552 1.65801 19.0509C1.63099 19.0263 1.56389 18.9926 1.61044 18.9757C1.89644 18.8707 2.08193 18.7413 2.62246 18.6912C2.83602 18.6724 3.06306 18.672 3.19619 18.6319C3.32931 18.5917 3.44906 18.5454 3.58889 18.5067C3.76202 18.4603 3.88163 18.4171 3.80111 18.3881C3.66686 18.3361 3.4531 18.3318 3.20614 18.3507C2.99255 18.3664 2.76544 18.3683 2.54509 18.3779C2.15114 18.3955 1.83006 18.3561 1.78247 18.2886C1.65337 18.1106 1.51757 17.9342 1.40183 17.7562C1.38821 17.7347 1.42118 17.707 1.4744 17.6885C1.66067 17.6236 1.86042 17.5618 2.05339 17.4985C2.27965 17.4259 2.64063 17.4391 2.94777 17.4247C3.38176 17.404 3.38163 17.4055 3.96104 17.257C4.18747 17.1983 4.58192 17.2206 4.81511 17.168C4.88839 17.151 5.00162 17.1231 4.98139 17.1078C4.95443 17.0879 4.8207 17.0727 4.72038 17.0637C4.62674 17.0546 4.51314 17.0502 4.41299 17.055C3.19767 17.1017 1.9891 17.1514 0.773759 17.1965C0.566755 17.2046 0.339198 17.1712 0.265132 17.1237C0.191104 17.0792 0.210425 17.0254 0.196447 16.9747C0.389417 16.9114 0.60908 16.8527 0.775271 16.7848C0.901566 16.7323 1.04828 16.709 1.30211 16.7055C1.63608 16.7003 1.96324 16.6813 2.33718 16.6668C3.02923 16.4413 3.70774 16.2051 4.45323 15.9795C4.75275 15.8883 4.67826 15.7963 4.73721 15.6994C4.79625 15.6102 5.24399 15.6232 5.5443 15.5966C5.78454 15.5747 5.864 15.5254 5.77006 15.4917C5.71637 15.4718 5.59591 15.449 5.50238 15.4492C5.28192 15.4496 5.06164 15.4638 4.84127 15.4718C4.62091 15.4799 4.367 15.4757 4.18694 15.5022C4.01355 15.527 3.90055 15.5795 3.78752 15.6242C3.66119 15.6736 3.4945 15.6908 3.24068 15.6943C2.91337 15.698 2.58621 15.7123 2.25899 15.7237C1.89751 15.6644 1.52261 15.6067 1.17445 15.5443C1.1075 15.5321 1.09363 15.4968 1.10003 15.4737C1.11267 15.4138 1.01203 15.3771 0.79122 15.3483C0.603865 15.324 0.449769 15.289 0.2757 15.2585C0.408807 15.2168 0.555345 15.1766 0.661692 15.1319C0.89437 15.0378 1.18753 14.9697 1.69529 14.9719C1.89497 14.9116 2.05436 14.8376 2.3144 14.7956C2.5611 14.7553 2.98248 14.7945 3.16843 14.7035C3.26141 14.6588 3.40117 14.6078 3.58132 14.5891C3.86823 14.5594 4.24252 14.5741 4.40849 14.4878C4.5081 14.4385 4.65447 14.3937 4.84805 14.381C5.06834 14.3668 5.29539 14.3634 5.45537 14.3339C5.54203 14.3184 5.63527 14.2936 5.63501 14.2721C5.63484 14.2583 5.50107 14.237 5.40743 14.228C5.32045 14.2174 5.20666 14.2099 5.10649 14.2131C4.77257 14.2229 4.44543 14.2404 4.11152 14.2502C4.01803 14.2534 3.91104 14.2428 3.81072 14.2338C3.51648 14.2097 3.5361 14.179 3.76925 14.1233C4.00242 14.0691 4.16868 13.9997 4.36165 13.9363C4.5753 13.9252 4.84254 13.9294 4.98915 13.8999C5.23575 13.8519 5.40856 13.7824 5.60825 13.7221C5.8286 13.7125 6.05568 13.7091 6.26258 13.6918C6.34935 13.6855 6.38905 13.6517 6.4623 13.6316C6.59544 13.5929 6.70843 13.5374 6.88858 13.5187C7.18219 13.4905 7.54306 13.5006 7.71573 13.4158C7.81534 13.3665 7.9683 13.314 8.15531 13.3106C8.67632 13.3036 8.89576 13.2187 9.16201 13.1383C9.3617 13.0781 9.78964 13.108 10.0094 13.0477C10.1559 13.0091 10.2623 12.9613 10.4088 12.9241C10.4687 12.9087 10.5955 12.9008 10.6957 12.896C11.2432 12.872 11.7974 12.8541 12.345 12.8286C12.4317 12.8238 12.5117 12.8007 12.5783 12.7821C12.7181 12.7419 12.8042 12.6865 12.9775 12.66C13.1509 12.6336 13.3981 12.6332 13.6117 12.6251C14.2996 12.6009 14.3531 12.6069 14.6655 12.4758C14.9181 12.3694 15.5404 12.4436 15.7461 12.3265C15.8655 12.2587 16.0852 12.203 16.4792 12.1946C17.0336 12.1829 17.581 12.1527 18.1353 12.1318C18.6294 12.1125 18.6228 12.1125 19.1555 11.9687C19.3952 11.9038 19.7494 11.9124 20.0633 11.8995C20.3971 11.8867 20.7042 11.8677 20.8636 11.7906C21.023 11.7151 21.3166 11.69 21.6572 11.6786C21.971 11.6673 22.3253 11.6744 22.5717 11.6125C23.1712 11.464 23.1645 11.4624 23.5852 11.4464C24.2463 11.4206 24.9073 11.3949 25.5684 11.3676C26.0091 11.35 26.47 11.3461 26.8838 11.3116C27.1841 11.2865 27.3166 11.2002 27.5096 11.14C28.0572 11.116 28.6047 11.092 29.1522 11.0695C29.9201 11.0374 30.6947 11.0084 31.4693 10.9779C31.8026 10.919 31.8479 10.7898 32.409 10.7827C32.743 10.779 33.0701 10.7585 33.4039 10.7456C33.9582 10.7232 34.5056 10.6946 35.06 10.6828C35.4808 10.6744 35.5531 10.5913 35.7729 10.5387C35.8462 10.5202 35.9128 10.4939 35.9995 10.4892C36.8675 10.4446 37.7625 10.4339 38.6102 10.3694C38.697 10.3631 38.7767 10.3307 38.7965 10.3076C38.8097 10.2953 38.6959 10.2725 38.6222 10.2619C38.5352 10.2497 38.4216 10.2376 38.3281 10.2409C35.5703 10.3486 32.8125 10.4578 30.0547 10.5656C29.6674 10.5816 29.6674 10.5801 28.7275 10.7507C28.6475 10.7647 28.5541 10.7802 28.4539 10.785C28.0132 10.8042 27.5658 10.8157 27.1318 10.8395C26.778 10.8586 26.4839 10.8406 26.2294 10.7857C26.0485 10.7461 25.8612 10.7342 25.6341 10.7376C25.3803 10.7427 25.2136 10.7599 25.0671 10.8016C24.8741 10.8588 24.7747 10.9327 24.3674 10.9488C22.491 11.0181 20.6145 11.0951 18.7448 11.169C18.484 11.1479 18.3567 11.1159 18.423 11.0774C18.4628 11.0543 18.5427 11.0234 18.6228 11.0202C19.3907 10.9866 20.1653 10.9576 20.9331 10.9255C21.04 10.9207 21.187 10.9236 21.2469 10.9081C21.54 10.8384 21.6456 10.7261 22.2 10.7175C22.5207 10.7123 22.8477 10.6887 23.1547 10.6667C23.2415 10.6604 23.3213 10.6279 23.341 10.6049C23.3476 10.5926 23.2404 10.5697 23.1601 10.5591C22.8656 10.515 22.5256 10.5694 22.2313 10.5392C22.131 10.5286 21.9904 10.5135 21.9701 10.4951C21.9566 10.4782 22.0698 10.4504 22.1498 10.4333C22.2231 10.4178 22.3231 10.4038 22.4232 10.3991C23.3046 10.3622 24.1861 10.3238 25.0676 10.2946C25.4282 10.2832 25.6816 10.2444 25.8411 10.1734C25.9607 10.121 26.1073 10.0931 26.3343 10.085C27.8769 10.0255 29.4193 9.95981 30.9685 9.90489C31.3558 9.89192 31.5557 9.84088 31.7153 9.77454C31.8416 9.72209 31.9883 9.7034 32.2354 9.69375C34.4457 9.61002 36.6424 9.5171 38.8528 9.43645C39.2601 9.42191 39.3796 9.35564 39.586 9.29844C39.6593 9.27834 39.7056 9.25368 39.799 9.24122C39.8924 9.22877 40.0126 9.23009 40.1262 9.22682C41.889 9.15769 43.652 9.08397 45.4216 9.01945C45.8356 9.0049 45.9147 8.92794 46.1278 8.87379C46.2011 8.85677 46.2676 8.82901 46.3544 8.82425C47.6765 8.76972 48.9987 8.71826 50.3208 8.66526C51.2022 8.62993 52.0836 8.5946 52.9651 8.56081C53.3991 8.54469 53.3991 8.54314 53.9852 8.39617C54.0518 8.37916 54.1452 8.35902 54.232 8.35426C56.7694 8.25153 59.3001 8.15344 61.8376 8.05224C62.0512 8.04419 62.2044 8.00857 62.3107 7.95615C62.4169 7.90373 62.5703 7.86813 62.7773 7.86009C64.7605 7.77983 66.7436 7.70111 68.7336 7.62544C69.0942 7.61253 69.3475 7.57521 69.507 7.5058C69.6266 7.45336 69.7733 7.42546 70.0003 7.41738C71.9835 7.34019 73.9668 7.25838 75.9568 7.18426C76.3374 7.16977 76.5237 7.11722 76.71 7.05544C76.7766 7.03382 76.8296 6.99839 76.9098 6.99517C77.898 6.95044 78.8794 6.90418 79.8745 6.87326C80.2885 6.86025 80.4281 6.79548 80.5943 6.73374C80.7274 6.68434 80.8808 6.66718 81.1346 6.6606C81.689 6.64581 82.2364 6.61875 82.7772 6.59169C82.8573 6.58694 82.9572 6.55297 82.9636 6.53145C82.9764 6.49148 82.8224 6.46409 82.5684 6.45071C79.9241 6.55516 77.2732 6.65962 74.6289 6.76407C74.1949 6.78173 74.1948 6.78173 73.6087 6.9287C73.5421 6.94572 73.4488 6.96586 73.3553 6.97063C70.8179 7.07182 68.2871 7.17147 65.7497 7.27267C65.536 7.28072 65.3828 7.31632 65.2766 7.36874C65.1703 7.42116 65.017 7.45676 64.81 7.4648C62.386 7.56119 59.9622 7.65912 57.5315 7.75091C57.1709 7.76383 56.9176 7.79959 56.7581 7.87054C56.6385 7.92298 56.4919 7.9509 56.2648 7.95898C53.9477 8.04904 51.6372 8.14368 49.3134 8.23068C49.0797 8.23877 48.9055 8.19452 48.9184 8.15301C48.9248 8.13149 49.0244 8.096 49.1046 8.09279C50.3131 8.03999 51.5151 7.98566 52.7305 7.94514C53.1379 7.93214 53.2572 7.86434 53.4636 7.80713C53.5302 7.78705 53.5834 7.76084 53.6701 7.74993C53.7634 7.73748 53.8837 7.73881 53.9972 7.73554C56.8619 7.62149 59.7266 7.5059 62.598 7.39798C63.012 7.3819 63.0911 7.30647 63.3042 7.25233C63.3775 7.23376 63.444 7.206 63.5308 7.20278C64.4122 7.16438 65.2936 7.13058 66.1751 7.09678C67.7176 7.03572 69.26 6.97466 70.8092 6.91359C71.2566 6.89592 71.2566 6.89591 71.8294 6.7505C71.896 6.73348 71.9893 6.71183 72.0761 6.7086C76.1561 6.54635 80.2361 6.38409 84.316 6.22337C84.5297 6.21532 84.6829 6.17972 84.7892 6.1273C84.8954 6.07642 85.0486 6.03928 85.2556 6.0297C90.7712 5.81118 96.2801 5.59266 101.796 5.37721C102.156 5.36276 102.41 5.33006 102.569 5.25757C102.682 5.20514 102.835 5.17723 103.062 5.16761C109.126 4.92817 115.189 4.68873 121.259 4.44774C125.339 4.28702 129.419 4.12323 133.499 3.96558C133.873 3.95111 134.072 3.90312 134.259 3.83981C134.318 3.8182 134.378 3.78276 134.458 3.77955C135.333 3.73962 136.208 3.70277 137.082 3.66591C137.357 3.70692 137.631 3.74639 137.906 3.7874C138.112 3.72866 138.312 3.66839 138.518 3.60965C139.84 3.5628 141.142 3.49141 142.478 3.46758C142.565 3.46589 142.659 3.49492 142.752 3.51012C143.375 3.60583 143.729 3.59753 144.121 3.4678C144.261 3.42147 144.381 3.37978 144.595 3.37173C145.256 3.34292 145.924 3.32333 146.578 3.28993C146.932 3.27241 147.226 3.28726 147.48 3.34213C147.661 3.38176 147.849 3.39834 148.069 3.38874C149.284 3.34054 150.493 3.29388 151.708 3.24261C151.795 3.23939 151.875 3.21312 151.941 3.19457C152.081 3.15438 152.201 3.11117 152.334 3.06945C152.515 3.09526 152.715 3.11489 152.863 3.14843C153.05 3.18805 153.224 3.18774 153.478 3.17654C158.325 2.98223 163.18 2.79251 168.028 2.59666C168.442 2.58058 168.623 2.64479 168.904 2.67811C168.998 2.69023 169.091 2.70543 169.192 2.70833C169.299 2.71121 169.412 2.70181 169.519 2.69701C173.158 2.55242 176.797 2.40936 180.437 2.26477C180.917 2.2455 180.917 2.2455 181.633 2.33951C181.72 2.35165 181.834 2.36528 181.928 2.36051C183.584 2.29771 185.24 2.23032 186.889 2.166C187.103 2.15795 187.283 2.18221 187.477 2.21721C187.859 2.28568 187.886 2.28564 188.165 2.18376C188.298 2.1359 188.438 2.10645 188.658 2.09224C188.899 2.07646 189.093 2.08075 189.28 2.10808C189.548 2.14602 189.742 2.2102 190.149 2.19259C191.912 2.11732 193.682 2.05434 195.438 1.97755C195.839 1.95995 196.053 2.01181 196.321 2.04975C196.414 2.06342 196.501 2.08478 196.602 2.08921C196.702 2.09365 196.822 2.08267 196.929 2.07788C199.132 1.99109 201.343 1.90584 203.54 1.81292C203.954 1.7953 204.135 1.86103 204.416 1.89435C204.509 1.90647 204.617 1.92781 204.703 1.92458C206.025 1.87466 207.354 1.82164 208.677 1.76865C209.151 1.74939 209.151 1.75092 209.873 1.84338C209.96 1.85552 210.074 1.86762 210.168 1.86438C211.71 1.80486 213.259 1.74379 214.802 1.68273C215.276 1.66347 215.276 1.66347 216.646 1.74098C216.747 1.74695 216.854 1.756 216.954 1.75275C218.717 1.68363 220.486 1.61602 222.249 1.54229C222.603 1.52785 222.897 1.53962 223.151 1.59449C223.332 1.63412 223.52 1.6507 223.74 1.6411C225.723 1.56238 227.713 1.48672 229.69 1.40339C230.07 1.38737 230.318 1.42073 230.585 1.46481C230.672 1.48003 230.76 1.50139 230.86 1.50736C230.96 1.51333 231.074 1.50698 231.181 1.50219C233.164 1.42347 235.154 1.34934 237.13 1.26448C237.531 1.24689 237.745 1.29875 238.013 1.33669C238.107 1.35036 238.207 1.37784 238.287 1.37616C239.062 1.3487 239.837 1.32432 240.604 1.28457C241.018 1.26235 241.2 1.33269 241.481 1.366C241.574 1.37659 241.681 1.39946 241.768 1.39624C243.424 1.33345 245.08 1.26759 246.73 1.2002C246.963 1.19057 247.137 1.20408 247.325 1.2437C247.572 1.29704 247.86 1.31805 248.221 1.30053C248.988 1.26386 249.763 1.23794 250.538 1.2074C250.992 1.18972 250.992 1.18972 252.382 1.26719C252.483 1.27317 252.59 1.28219 252.69 1.27894C254.012 1.22749 255.341 1.17756 256.656 1.1215C257.01 1.10552 257.304 1.11883 257.559 1.1737C257.74 1.21333 257.92 1.22992 258.147 1.22031C259.362 1.17211 260.571 1.12392 261.786 1.07572C262.227 1.05805 262.668 1.02809 263.109 1.02733C263.429 1.0283 263.664 1.10164 263.952 1.13801C264.032 1.14862 264.165 1.13612 264.272 1.13286C265.815 1.0718 267.364 1.01533 268.9 0.946602C269.3 0.929007 269.515 0.980867 269.783 1.01881C269.876 1.03247 269.977 1.05996 270.057 1.05828C270.611 1.04042 271.159 1.01642 271.713 0.995485C272.374 0.969755 273.042 0.95016 273.696 0.915224C274.23 0.886642 274.432 1.01995 274.86 1.02381C275.187 1.02785 275.521 1.00116 275.848 0.988303C276.509 0.962574 277.17 0.933775 277.831 0.911118C278.065 0.90303 278.245 0.878126 278.318 0.822691C278.331 0.811914 278.217 0.789076 278.144 0.775377C277.253 0.620218 277.253 0.620211 276.359 0.655564C275.804 0.678035 275.257 0.700498 274.702 0.719897C274.609 0.723132 274.502 0.711028 274.408 0.701973C274.141 0.67632 274.167 0.64555 274.394 0.589849C274.62 0.534148 274.793 0.466255 274.986 0.40293C275.26 0.442398 275.528 0.481864 275.802 0.521332C276.023 0.513267 276.243 0.50368 276.464 0.495616C277.565 0.453758 278.667 0.41036 279.769 0.371575C279.849 0.368363 279.95 0.39892 280.043 0.41412C280.311 0.458209 280.552 0.496188 280.939 0.478616C281.928 0.432346 282.923 0.398355 283.911 0.35823C284.345 0.340577 284.345 0.340579 285.108 0.434506C285.195 0.44511 285.308 0.457204 285.402 0.453969C286.397 0.416905 287.385 0.376785 288.38 0.338185C288.594 0.330132 288.801 0.349744 288.955 0.39403C289.016 0.412361 289.003 0.443104 289.259 0.694616C290.05 0.897575 290.591 0.875137 291.139 0.85575C291.372 0.847663 291.579 0.839614 291.733 0.808621C291.813 0.791583 291.913 0.766824 291.912 0.746852C291.912 0.731489 291.765 0.707159 291.671 0.704249C291.01 0.674672 290.382 0.740296 289.735 0.755248C289.434 0.761915 289.173 0.708596 289.118 0.62112C289.105 0.596563 289.084 0.570482 289.064 0.545936C289.044 0.52139 289.03 0.495298 289.01 0.470752C288.749 0.463523 288.596 0.491438 288.483 0.54387C288.39 0.587048 288.257 0.636442 288.077 0.6598C287.896 0.684694 287.649 0.680523 287.429 0.688587C287.215 0.69664 286.982 0.717015 286.781 0.706609C286.581 0.694667 286.42 0.650385 286.232 0.623057C286.145 0.609381 286.038 0.589602 285.951 0.592826C285.183 0.620277 284.422 0.647707 283.661 0.682828C283.26 0.70196 283.059 0.637793 282.805 0.59829C282.604 0.567912 282.404 0.575932 282.371 0.64666C282.286 0.815804 282.594 0.885936 283.275 0.85249C283.836 0.823862 284.344 0.818386 284.786 0.922088C284.846 0.935811 284.987 0.94171 285.074 0.938487C285.621 0.9191 286.162 0.895113 286.71 0.875726C286.81 0.87248 286.917 0.878429 287.01 0.884412C288.374 0.965005 288.374 0.96655 288.835 0.947314C289.055 0.937713 289.269 0.92966 289.246 0.696177C289.664 0.445029 290.332 0.426973 290.979 0.388976C291.4 0.365201 291.581 0.432488 291.855 0.467347C291.949 0.479475 292.05 0.503877 292.137 0.500654C293.572 0.447461 295.001 0.391201 296.43 0.331875C296.671 0.322239 296.844 0.331157 297.032 0.370776C297.273 0.421056 297.541 0.452861 297.921 0.433764C298.682 0.39557 299.457 0.371185 300.231 0.339114C300.625 0.323066 300.625 0.32305 301.422 0.41692C301.509 0.427523 301.622 0.439617 301.716 0.436382C302.49 0.408919 303.258 0.375332 304.026 0.346345C304.24 0.338292 304.434 0.359462 304.601 0.400652C304.769 0.441842 304.97 0.462999 305.177 0.454958C305.951 0.425959 306.719 0.393909 307.487 0.364921C307.581 0.361686 307.694 0.372242 307.781 0.382845C308.597 0.476681 308.597 0.476665 308.971 0.460652C309.519 0.436656 310.08 0.42494 310.621 0.393274C311.148 0.361631 311.423 0.450253 311.784 0.498788C312.773 0.461736 313.768 0.430826 314.749 0.386104C315.15 0.366972 315.364 0.417294 315.632 0.456774C315.726 0.470438 315.82 0.499468 315.906 0.497781C316.24 0.491056 316.568 0.473591 316.895 0.460732C317.222 0.447873 317.556 0.435004 317.883 0.422145C318.258 0.466048 318.506 0.570086 319.04 0.533823C319.361 0.511758 319.701 0.506557 320.028 0.493698C320.356 0.480839 320.689 0.46797 321.017 0.455111C321.237 0.447047 321.464 0.442037 321.678 0.427839C322.072 0.40411 322.266 0.479061 322.547 0.512372C322.641 0.522964 322.748 0.541202 322.835 0.537979C323.496 0.515322 324.164 0.495728 324.811 0.459267C325.312 0.430744 325.653 0.476247 326.008 0.540157C326.082 0.553856 326.209 0.561316 326.302 0.558081C327.077 0.530618 327.845 0.497013 328.613 0.468025C328.82 0.459984 329.02 0.484216 329.188 0.52387C329.362 0.565048 329.556 0.584699 329.77 0.576646C330.538 0.547658 331.312 0.515577 332.08 0.486589C332.174 0.483354 332.287 0.49545 332.374 0.507589C333.124 0.601541 333.124 0.603078 333.565 0.583877C333.671 0.579083 333.785 0.575801 333.892 0.571006C334.439 0.548547 335.007 0.539889 335.541 0.50209C336.155 0.459543 336.603 0.511002 337.039 0.597817C337.586 0.57843 338.147 0.566699 338.681 0.535045C339.082 0.511304 339.296 0.569309 339.564 0.607252C339.658 0.620917 339.758 0.648396 339.838 0.645184C340.613 0.617721 341.388 0.593339 342.149 0.553609C342.563 0.531382 342.744 0.600189 343.025 0.635037C343.119 0.647165 343.219 0.66851 343.306 0.665287C343.747 0.652231 344.188 0.63302 344.628 0.615355C345.142 0.59449 345.142 0.596025 345.825 0.688556C346.146 0.732551 346.466 0.696658 346.78 0.685359C347.114 0.672488 347.428 0.662728 347.696 0.725252C347.863 0.764906 348.064 0.789139 348.271 0.782635C348.712 0.768042 349.159 0.753445 349.593 0.729646C349.941 0.710607 350.241 0.722369 350.496 0.778771C350.677 0.818402 350.864 0.838061 351.084 0.82846C352.073 0.789872 353.068 0.749721 354.056 0.712669C354.143 0.709446 354.263 0.723069 354.343 0.736757C354.531 0.764085 354.712 0.794491 354.892 0.824904C355.326 0.810323 355.774 0.803416 356.201 0.781165C356.655 0.758868 357.069 0.750465 357.424 0.834347C357.498 0.852655 357.605 0.878572 357.692 0.876885C358.026 0.87016 358.353 0.854233 358.68 0.841374C359.008 0.828515 359.341 0.815646 359.669 0.802787C360.05 0.840533 360.292 0.950727 360.826 0.914464C361.146 0.892399 361.487 0.887198 361.814 0.87434C362.141 0.861481 362.475 0.847075 362.802 0.835753C362.909 0.832495 363.029 0.8246 363.123 0.830583C363.223 0.836554 363.31 0.857916 363.397 0.873128C363.665 0.917216 363.913 0.961345 364.293 0.934567C364.614 0.912501 364.954 0.907299 365.282 0.892904C365.729 0.875228 365.729 0.875231 366.472 0.97073C366.773 1.01015 367.113 0.957328 367.401 0.990627C367.595 1.01334 367.762 1.05144 367.949 1.07724C368.03 1.08785 368.157 1.09223 368.25 1.089C368.691 1.07441 369.138 1.05981 369.572 1.03601C369.926 1.01696 370.22 1.03488 370.468 1.08976C370.649 1.12939 370.83 1.14599 371.057 1.13637C372.158 1.09144 373.26 1.05264 374.355 1.00312C374.729 0.985568 375.03 1.01117 375.238 1.06612C375.593 1.16075 376.093 1.04773 376.461 1.12391C376.689 1.17114 376.917 1.22606 377.331 1.20229C378.092 1.16103 378.867 1.13816 379.634 1.10917C379.909 1.15018 380.183 1.19119 380.464 1.23218C380.905 1.21452 381.346 1.19684 381.786 1.18071C382.114 1.16786 382.448 1.15345 382.775 1.14213C382.882 1.13887 382.995 1.13253 383.095 1.14003C383.196 1.14754 383.276 1.16738 383.37 1.18258C383.832 1.25706 383.832 1.2586 384.593 1.22655C384.92 1.21216 385.234 1.20239 385.509 1.26337C385.763 1.31977 386.064 1.33 386.411 1.31249C387.065 1.28063 387.727 1.25644 388.394 1.23377C388.601 1.22573 388.795 1.25151 388.97 1.29115C389.231 1.35369 389.552 1.34699 389.879 1.32952C390.313 1.30726 390.74 1.28501 391.108 1.37041C391.182 1.38872 391.296 1.41462 391.376 1.41295C391.924 1.3997 392.478 1.38953 393.012 1.35941C393.546 1.32929 393.808 1.42409 394.176 1.46954C394.724 1.44862 395.278 1.42768 395.825 1.40676C395.932 1.40196 396.059 1.38792 396.153 1.39544C396.547 1.42702 396.776 1.54184 397.316 1.50557C397.63 1.48505 397.971 1.47832 398.298 1.47315C398.385 1.47146 398.499 1.49737 398.559 1.51723C398.593 1.52793 398.56 1.55718 398.52 1.57261C398.4 1.61583 398.254 1.65604 398.147 1.70078C398.134 1.70695 398.261 1.73437 398.335 1.74654C398.516 1.77388 398.723 1.76892 398.963 1.75621C399.17 1.7451 399.384 1.76623 399.531 1.81207C399.592 1.8304 399.572 1.86115 399.446 1.96277C399.447 2.03805 399.587 2.004 399.633 1.95476C399.706 1.88396 399.565 1.86116 399.299 1.90003C399.112 1.92801 399.019 1.96812 399.066 2.0003C399.093 2.01715 399.22 2.03844 399.446 1.96277C400.033 1.86957 400.474 1.85191 400.915 1.83425C401.028 1.82944 401.162 1.81384 401.242 1.82292C401.53 1.85929 401.797 1.90338 402.078 1.94438C402.399 1.9346 402.699 1.91103 403.014 1.9704C403.456 2.05413 403.476 2.04641 403.903 2.02877C404.124 2.01917 404.344 2.01112 404.564 2.00306C404.785 1.99499 404.959 2.01773 405.153 2.05273C405.548 2.12425 405.581 2.12418 405.841 2.02541C405.994 1.96522 406.1 1.94507 406.294 1.97239C406.937 2.06499 406.943 2.07112 407.491 2.04251C407.945 2.01868 408.372 2.01179 408.708 2.09878C408.935 2.15984 409.009 2.14589 409.188 2.08105C409.667 1.90969 409.888 1.91237 410.791 2.03371C411.213 2.09135 411.646 2.02762 412.074 2.0192C412.434 2.01242 412.689 2.04885 412.717 2.14559C412.737 2.20547 412.798 2.24839 413.039 2.26794C413.132 2.27546 413.246 2.28601 413.339 2.28278C413.894 2.26338 414.441 2.24092 414.995 2.21845C415.276 2.2072 415.429 2.13475 415.374 2.03959C415.313 1.9383 415.419 1.90123 415.82 1.87134C416.06 1.85402 416.254 1.85677 416.448 1.88409C416.662 1.91444 416.602 1.9422 416.416 1.99783C415.97 2.1338 416.024 2.21666 416.6 2.30937C416.801 2.34129 416.961 2.37021 417.009 2.41776C417.036 2.44229 417.01 2.4746 417.07 2.49293C417.399 2.59529 417.854 2.66057 418.362 2.70885C418.849 2.66652 419.184 2.73506 419.559 2.78972C419.853 2.83223 420.2 2.79476 420.514 2.77885C420.868 2.76134 421.162 2.77311 421.416 2.82952C421.597 2.86915 421.785 2.88725 422.005 2.87919C422.446 2.86152 422.893 2.85 423.327 2.82466C423.701 2.8025 423.982 2.83275 424.216 2.88457C424.511 2.95012 424.838 2.90499 425.145 2.91368C425.56 2.92371 425.768 3.06008 426.309 3.02227C426.63 3.0002 426.963 2.99195 427.297 2.98522C427.384 2.98353 427.491 3.00947 427.565 3.02778C427.92 3.11166 428.334 3.10633 428.788 3.08096C429.102 3.06351 429.409 3.04762 429.717 3.10547C430.226 3.20291 430.788 3.28797 431.324 3.37769C431.398 3.44823 431.346 3.53127 431.727 3.57209C431.928 3.59325 432.115 3.6252 432.269 3.66026C432.457 3.70142 432.631 3.71187 432.871 3.7007C433.305 3.67844 433.759 3.67303 434.187 3.64463C434.58 3.61937 434.828 3.66965 435.069 3.71686C435.263 3.75493 435.444 3.77304 435.678 3.74498C435.918 3.71845 436.092 3.73504 436.286 3.77618C436.56 3.83255 436.58 3.82638 437.489 3.8417C437.583 3.84308 437.697 3.86591 437.75 3.88579C437.777 3.8965 437.717 3.92735 437.671 3.94279C437.611 3.96133 437.518 3.98299 437.431 3.98775C436.443 4.02941 435.448 4.06647 434.459 4.10813C434.359 4.11292 434.253 4.12387 434.179 4.13936C434.099 4.1564 433.999 4.1796 434 4.20111C434 4.21647 434.134 4.23468 434.227 4.24527C434.522 4.2801 434.868 4.22572 435.156 4.26517C435.35 4.29095 435.511 4.32753 435.705 4.35178C435.785 4.36239 435.912 4.36064 436.012 4.3574C436.346 4.34606 436.673 4.33013 437.007 4.32034C437.101 4.31864 437.208 4.33382 437.295 4.34596C437.937 4.43703 437.937 4.43702 438.492 4.41609C438.712 4.40802 438.946 4.38457 439.153 4.39343C439.353 4.4023 439.528 4.44347 439.708 4.46928C440.083 4.52394 440.438 4.57709 440.466 4.69687C440.48 4.74294 440.701 4.78249 440.921 4.78518C441.135 4.78789 441.362 4.77061 441.582 4.76101C442.103 4.74167 442.103 4.74166 442.779 4.83421C442.966 4.86 443.167 4.86272 443.407 4.84694C443.501 4.84063 443.614 4.84659 443.715 4.85409C444.042 4.87657 444.043 4.90575 443.829 4.96143C443.53 5.04337 443.557 5.05101 444.399 5.11869C444.72 5.14425 444.968 5.19298 445.236 5.23553C445.671 5.30391 445.664 5.30391 445.378 5.39505C445.311 5.41514 445.252 5.43676 445.185 5.45838C444.992 5.51863 444.839 5.58342 444.438 5.59026C443.997 5.59717 443.557 5.62253 443.116 5.64019C442.689 5.65784 442.576 5.69489 442.617 5.79929C442.665 5.92518 442.752 5.93886 443.521 5.93599C443.741 5.93561 443.935 5.94756 444.102 5.98875C444.023 6.03805 443.876 6.07672 443.663 6.0863C443.115 6.1103 442.561 6.13124 442.013 6.15216C441.573 6.16983 441.132 6.18749 440.691 6.20515C440.418 6.21638 440.245 6.29658 440.319 6.38556C440.36 6.43618 440.394 6.48682 440.428 6.53746C440.503 6.63873 440.643 6.66461 441.091 6.65922C441.204 6.65749 441.311 6.645 441.418 6.64789C441.853 6.65789 442.061 6.78504 442.582 6.75802C443.016 6.73576 443.47 6.73036 443.897 6.70197C444.291 6.6767 444.512 6.73164 444.787 6.77264C444.88 6.78631 444.981 6.81531 445.061 6.81363C445.616 6.79577 446.17 6.77792 446.711 6.74779C446.964 6.73506 447.118 6.74401 447.319 6.78053C447.801 6.8688 447.814 6.86417 448.529 6.83527C449.05 6.81286 449.056 6.81592 449.726 6.90847C449.913 6.93427 450.113 6.93391 450.354 6.9212C450.667 6.9053 450.994 6.88015 451.322 6.90263C451.422 6.9086 451.55 6.92682 451.583 6.94673C451.603 6.96052 451.51 6.99448 451.43 7.00538C450.843 7.08629 450.155 7.07366 449.514 7.10703C449.314 7.1166 449.113 7.08775 448.945 7.04656C448.771 7.00539 448.584 6.98882 448.357 6.99689C447.916 7.01456 447.469 7.02608 447.035 7.05142C446.661 7.07358 446.4 7.03869 446.139 6.99152C446.052 6.97631 445.951 6.94729 445.865 6.94897C444.876 6.98142 443.881 7.01388 442.9 7.0586C442.506 7.07772 442.278 7.02896 442.01 6.98794C441.917 6.97428 441.823 6.94525 441.736 6.94694C441.402 6.95366 441.075 6.97113 440.741 6.984C439.526 7.0322 438.317 7.08039 437.102 7.12551C437.021 7.12873 436.921 7.09663 436.827 7.08297C436.646 7.05563 436.459 7.02983 436.272 7.00404C435.938 7.01691 435.611 7.03284 435.277 7.04264C435.036 7.0492 434.823 7.07109 434.79 7.12953C434.771 7.16797 434.992 7.20292 435.225 7.19944C435.452 7.19597 435.679 7.17714 435.867 7.19679C436.796 7.2935 436.796 7.29504 437.377 7.27406C437.885 7.25474 437.831 7.23946 438.28 7.32318C438.474 7.35971 438.648 7.38093 438.868 7.37133C439.416 7.34887 439.97 7.3264 440.524 7.307C440.611 7.30377 440.725 7.31895 440.812 7.33109C441.468 7.42213 441.468 7.42519 442.009 7.40121C442.716 7.37233 442.743 7.3646 443.219 7.45749C443.547 7.52145 443.847 7.47637 444.161 7.47275C444.522 7.53204 444.917 7.58513 445.245 7.65216C445.634 7.73138 446.041 7.71683 446.482 7.69302C446.809 7.67555 447.129 7.66885 447.397 7.73137C447.652 7.78931 447.959 7.79494 448.306 7.77897C448.62 7.7646 448.941 7.73484 449.268 7.76807C449.355 7.77714 449.489 7.79996 449.483 7.8138C449.476 7.83532 449.39 7.8662 449.303 7.87557C448.689 7.93962 448.014 7.93925 447.367 7.96957C447.28 7.97433 447.166 7.95762 447.079 7.94548C446.892 7.91815 446.711 7.88621 446.53 7.85733C446.203 7.86712 445.869 7.87076 445.549 7.88976C445.302 7.90401 445.114 7.90281 444.934 7.86626C444.766 7.83275 444.585 7.79157 444.385 7.78117C444.184 7.77076 443.951 7.79421 443.731 7.80381C443.51 7.81341 443.256 7.80924 443.083 7.83412C442.909 7.859 442.803 7.91296 442.69 7.95618C442.564 8.00402 442.39 8.0197 442.136 8.02475C441.903 8.02976 441.716 8.02394 441.541 7.98122C441.468 7.96291 441.367 7.94925 441.267 7.93714C441.173 7.92655 441.066 7.90983 440.979 7.91305C439.984 7.95011 438.996 7.99025 438.001 8.02885C437.507 8.04815 437.514 8.04812 436.484 7.95927C436.39 7.95175 436.276 7.94119 436.183 7.94443C435.629 7.96383 435.081 7.98629 434.527 8.00876C433.966 8.03125 433.973 8.02816 433.016 7.93303C432.842 7.9149 432.589 7.93992 432.382 7.93721C431.947 7.93028 431.732 7.80161 431.225 7.82707C430.791 7.84933 430.336 7.85473 429.902 7.88313C429.508 7.9084 429.281 7.85503 429.013 7.81401C428.919 7.80035 428.819 7.76979 428.739 7.77301C427.744 7.80853 426.755 7.84866 425.433 7.85556C425.105 7.85613 425.253 7.88814 425.467 7.89853C425.774 7.91489 425.874 7.88246 425.706 7.82129C425.585 7.77849 425.411 7.75727 425.271 7.76826C425.198 7.77454 425.105 7.8039 425.433 7.85556C425.781 7.91334 425.761 7.94563 425.821 7.96396C425.969 8.00826 426.176 8.02633 426.39 8.01982C426.724 8.00848 427.051 7.99256 427.385 7.98276C427.479 7.97952 427.592 7.99008 427.679 8.00222C428.415 8.09619 428.422 8.10233 429.203 8.06411C429.45 8.05292 429.631 8.05261 429.825 8.08146C430.092 8.12094 430.287 8.18819 430.694 8.16598C431.235 8.13585 431.789 8.118 432.343 8.10014C432.43 8.09691 432.524 8.1244 432.624 8.13652C432.899 8.17291 433.1 8.2417 433.507 8.2118C433.821 8.18821 434.162 8.18146 434.496 8.17627C434.582 8.17458 434.716 8.19894 434.757 8.21884C434.837 8.25404 434.738 8.2957 434.511 8.32528C434.417 8.33774 434.29 8.33488 434.184 8.33967C433.743 8.35734 433.302 8.37653 432.861 8.39112C432.628 8.39921 432.408 8.42265 432.382 8.47954C432.362 8.51798 432.603 8.55136 432.83 8.54789C433.164 8.5427 433.498 8.52983 433.818 8.5093C434.386 8.47452 434.88 8.48287 435.342 8.57886C435.67 8.64589 435.65 8.62135 436 8.82047C436.087 8.87101 436.348 8.87517 436.575 8.8717C437.123 8.86307 437.377 8.88567 437.331 8.93338C437.271 8.99187 437.078 9.01063 436.831 9.01874C436.39 9.03179 435.949 9.05254 435.509 9.07021C435.402 9.075 435.282 9.08442 435.181 9.08152C435.081 9.07862 434.987 9.06035 434.9 9.04668C434.713 9.01781 434.552 8.97353 434.352 8.96312C434.151 8.95272 433.917 8.97617 433.697 8.98577C433.477 8.99383 433.243 9.01729 433.043 9.00688C432.842 8.99647 432.674 8.95069 432.494 8.92335C432.407 8.90967 432.3 8.88833 432.213 8.89002C431.772 8.90308 431.331 8.92382 430.891 8.93995C430.35 8.96086 430.35 8.96087 429.694 8.86675C429.507 8.83942 429.313 8.8413 429.066 8.85402C428.532 8.87953 428.525 8.87492 427.548 8.78751C427.455 8.77845 427.341 8.7679 427.248 8.77267C426.253 8.80974 425.264 8.84986 424.276 8.88844C423.428 8.92218 423.428 8.92219 422.962 9.07664C422.616 9.19092 422.61 9.19093 422.951 9.24257C423.225 9.28511 423.473 9.34767 423.774 9.37019C424.055 9.39121 424.402 9.32148 424.71 9.39161C424.864 9.42668 425.065 9.46474 425.258 9.47055C425.566 9.4777 425.893 9.43257 426.188 9.49966C426.335 9.5332 426.556 9.56817 426.743 9.56938C427.07 9.57188 427.404 9.54671 427.731 9.53539C427.831 9.53214 427.945 9.53195 428.039 9.53946C428.139 9.54851 428.226 9.5668 428.313 9.58201C428.581 9.63378 428.868 9.65786 429.216 9.63113C429.783 9.58713 430.291 9.60776 430.733 9.70532C430.793 9.71904 430.94 9.72033 431.034 9.71402C431.274 9.69824 431.481 9.69634 431.662 9.72521C431.735 9.73738 431.843 9.75869 431.829 9.77254C431.81 9.79562 431.73 9.82649 431.643 9.83432C431.016 9.88764 430.341 9.89497 429.693 9.92375C429.607 9.92697 429.5 9.90718 429.412 9.8935C429.225 9.86617 429.064 9.82037 428.864 9.80997C428.663 9.79956 428.429 9.81994 428.209 9.828C427.989 9.83606 427.755 9.85952 427.555 9.85065C427.354 9.84024 427.167 9.80215 427.006 9.76863C426.818 9.73055 426.638 9.72626 426.391 9.74206C426.071 9.76259 425.737 9.76623 425.409 9.77756C425.229 9.74868 425.048 9.71672 424.86 9.68939C424.773 9.67571 424.666 9.65901 424.573 9.66071C424.132 9.67376 423.691 9.69296 423.251 9.71062C422.81 9.72829 422.81 9.7283 422.061 9.63435C421.974 9.62375 421.86 9.61166 421.766 9.61489C421.212 9.63429 420.664 9.65827 420.11 9.67767C419.897 9.68572 419.703 9.66455 419.528 9.62337C419.361 9.58218 419.16 9.55949 418.953 9.56753C418.072 9.60132 417.19 9.63358 416.309 9.67352C415.955 9.6895 415.654 9.6762 415.413 9.62131C415.132 9.55881 414.818 9.57472 414.491 9.58758C413.75 9.61959 413.743 9.61806 413.267 9.54053C413.174 9.52533 413.08 9.4963 412.993 9.49799C412.225 9.52236 411.45 9.54522 410.689 9.58342C410.289 9.60408 410.074 9.55069 409.807 9.51121C409.713 9.49754 409.612 9.46853 409.532 9.47174C408.978 9.4896 408.424 9.50593 407.883 9.5376C407.342 9.56926 407.133 9.42675 406.726 9.429C406.171 9.4315 405.624 9.46778 405.076 9.49024C404.636 9.50791 404.195 9.52557 403.754 9.54323C403.314 9.5609 402.873 9.57548 402.432 9.59622C402.198 9.60738 402.025 9.59385 401.83 9.55578C401.583 9.50551 401.288 9.46609 401.02 9.42047C400.612 9.35512 400.612 9.35511 400.118 9.3744C400.011 9.3792 399.898 9.38246 399.791 9.38725C398.983 9.42246 398.983 9.41939 397.953 9.32439C397.906 9.31987 397.786 9.33698 397.739 9.34935C397.599 9.38954 397.473 9.43277 397.347 9.47447C397.166 9.4502 396.945 9.43676 396.825 9.40163C396.483 9.30236 395.95 9.44002 395.601 9.3423C395.474 9.30565 395.253 9.27377 395.053 9.2649C394.845 9.25604 394.612 9.27796 394.398 9.28755C393.844 9.31155 393.844 9.31002 393.371 9.44758C393.132 9.51559 392.784 9.5039 392.47 9.51981C392.143 9.53727 391.829 9.54704 391.555 9.48453C391.307 9.42811 391.006 9.41481 390.652 9.43386C390.218 9.45766 389.771 9.47226 389.33 9.48685C389.236 9.49009 389.123 9.48261 389.029 9.47355C388.006 9.38469 388.006 9.38315 387.512 9.40398C387.291 9.41358 387.064 9.41704 386.851 9.43124C386.49 9.45645 386.216 9.42466 385.955 9.37595C385.868 9.36074 385.767 9.33174 385.68 9.33342C385.239 9.34187 384.805 9.35645 384.371 9.37103C384.037 9.38236 383.704 9.38909 383.383 9.41115C382.849 9.44742 382.587 9.348 382.219 9.30255C381.672 9.32347 381.118 9.33826 380.57 9.36687C380.316 9.3796 380.149 9.37529 379.955 9.33875C379.707 9.29309 379.48 9.24126 379.079 9.265C378.545 9.29665 377.984 9.30838 377.436 9.32777C377.068 9.28078 376.8 9.18445 376.273 9.2207C375.952 9.24276 375.612 9.24796 375.284 9.26082C374.844 9.27849 374.403 9.29463 373.962 9.31383C373.488 9.33309 373.495 9.32847 372.765 9.23909C372.344 9.18605 371.91 9.24672 371.483 9.25668C371.149 9.26494 370.983 9.33589 371.064 9.4264C371.145 9.5169 370.966 9.58788 370.659 9.60071C369.891 9.63123 369.116 9.66329 368.348 9.69074C368.255 9.69398 368.141 9.68342 368.054 9.67282C367.231 9.57746 367.231 9.57901 366.864 9.59348C366.316 9.61747 365.755 9.63072 365.215 9.66085C364.841 9.68148 364.566 9.6497 364.325 9.59788C364.138 9.55827 363.964 9.54935 363.724 9.55898C361.079 9.66651 358.435 9.76635 355.797 9.87694C355.403 9.89299 355.176 9.84883 354.908 9.80782C354.814 9.79415 354.727 9.76511 354.634 9.76527C354.413 9.76566 354.193 9.77987 353.973 9.78947C352.984 9.82806 351.996 9.87432 351.001 9.9037C350.58 9.91673 350.468 9.9876 350.288 10.0463C350.148 10.0911 349.988 10.1098 349.741 10.1164C349.501 10.1229 349.327 10.1155 349.139 10.0759C348.898 10.0241 348.624 9.99232 348.25 10.0145C347.816 10.0398 347.375 10.0513 346.928 10.069C346.701 10.0771 346.527 10.1051 346.455 10.1605C346.441 10.1697 346.582 10.1925 346.662 10.2062C346.93 10.2518 347.185 10.3052 347.486 10.3369C347.793 10.3686 348.127 10.3312 348.447 10.3214C348.561 10.3181 348.668 10.3087 348.775 10.3101C348.875 10.3115 348.995 10.3189 349.069 10.3326C349.417 10.4012 349.785 10.4481 350.266 10.4058C350.68 10.4251 350.895 10.5522 351.423 10.5175C351.743 10.497 352.077 10.4872 352.411 10.4789C352.498 10.4772 352.592 10.5047 352.685 10.5184C352.953 10.5563 353.168 10.6174 353.568 10.5906C353.995 10.5622 354.45 10.5568 354.884 10.5345C355.124 10.5218 355.298 10.5323 355.485 10.5719C355.726 10.6222 356.001 10.6601 356.375 10.6349C356.695 10.6128 357.036 10.6076 357.363 10.5932C357.79 10.5756 357.79 10.5771 358.553 10.671C358.64 10.6816 358.754 10.6937 358.847 10.6905C359.401 10.6711 359.949 10.6471 360.503 10.6277C360.717 10.6197 360.924 10.6393 361.072 10.6836C361.132 10.7019 361.112 10.7327 361.133 10.7588C360.031 10.8021 358.929 10.8394 357.834 10.892C357.42 10.9127 357.232 10.85 356.958 10.8152C356.864 10.803 356.764 10.7771 356.677 10.7803C355.902 10.8078 355.134 10.8368 354.367 10.8719C354.126 10.8831 353.946 10.8772 353.765 10.833C353.303 10.7155 352.742 10.781 352.221 10.7988C351.821 10.8118 351.694 10.8596 351.742 10.961C351.804 11.0807 352.045 11.1171 352.659 11.0946C352.879 11.0865 353.1 11.0754 353.32 11.0688C353.534 11.0623 353.728 11.0819 353.902 11.1231C354.07 11.1643 354.27 11.1855 354.477 11.179C354.918 11.1644 355.365 11.1498 355.793 11.126C356.146 11.1069 356.441 11.1218 356.689 11.1782C356.963 11.2407 357.284 11.2263 357.604 11.2119C358.352 11.1799 358.359 11.1814 358.827 11.2575C358.921 11.2727 359.015 11.3017 359.102 11.3C359.87 11.2756 360.644 11.2543 361.399 11.2161C361.793 11.197 362.021 11.2458 362.282 11.2852C362.375 11.2989 362.469 11.3295 362.556 11.3263C363.11 11.3084 363.665 11.2905 364.205 11.2604C364.459 11.2461 364.613 11.2551 364.82 11.2916C365.316 11.3814 365.329 11.3783 366.03 11.3479C366.244 11.3383 366.477 11.321 366.678 11.3329C366.879 11.3449 367.04 11.3891 367.227 11.4165C367.314 11.4286 367.421 11.4453 367.514 11.4421C367.955 11.429 368.396 11.4098 368.837 11.3922C369.251 11.3745 369.251 11.3761 370.027 11.47C370.341 11.5094 370.668 11.475 370.982 11.4622C371.323 11.4478 371.63 11.4472 371.891 11.5067C372.152 11.5662 372.466 11.5625 372.8 11.5497C373.114 11.5368 373.434 11.5025 373.756 11.5434C374.492 11.6374 374.492 11.6389 374.946 11.6197C375.607 11.5924 376.261 11.5667 376.929 11.5425C377.016 11.5393 377.129 11.5575 377.216 11.5697C377.404 11.597 377.565 11.6428 377.765 11.6532C377.966 11.6651 378.199 11.6463 378.413 11.6367C379.101 11.6063 379.147 11.5955 379.61 11.6961C379.998 11.7784 380.478 11.6577 380.84 11.7523C381.047 11.8057 381.328 11.8483 381.716 11.8215C382.036 11.7994 382.37 11.7927 382.704 11.7798C383.231 11.7589 383.231 11.7605 383.901 11.8515C383.988 11.8636 384.101 11.8788 384.188 11.8756C384.629 11.8625 385.076 11.851 385.504 11.8226C386.004 11.7894 386.326 11.8473 386.7 11.9035C386.995 11.9475 387.342 11.91 387.656 11.8941C387.996 11.8782 388.303 11.8822 388.558 11.9417C388.826 12.0027 389.14 11.9945 389.474 11.9816C389.788 11.9703 390.108 11.9344 390.429 11.9769C391.118 12.0709 391.118 12.0709 391.619 12.0516C392.06 12.034 392.501 12.0148 392.941 12.0017C393.028 11.9985 393.135 12.0183 393.222 12.0319C393.41 12.0593 393.571 12.1051 393.771 12.1155C393.972 12.1259 394.205 12.1055 394.426 12.0975C394.646 12.0894 394.88 12.0659 395.08 12.0748C395.281 12.0837 395.468 12.1218 395.629 12.1553C395.816 12.1949 395.99 12.1992 396.244 12.1834C396.564 12.1629 396.898 12.1577 397.225 12.1464C397.406 12.1752 397.594 12.2041 397.768 12.2361C397.948 12.2695 398.142 12.2661 398.389 12.2549C399.21 12.2167 399.217 12.2213 399.906 12.3153C400.221 12.3578 400.548 12.3219 400.862 12.3106C401.196 12.2977 401.51 12.291 401.771 12.352C402.025 12.41 402.34 12.4171 402.673 12.3981C402.887 12.3854 403.114 12.3773 403.334 12.3724C403.435 12.3706 403.555 12.3766 403.629 12.3887C403.983 12.4526 404.331 12.5104 404.819 12.4681C405.246 12.4796 405.462 12.6053 405.976 12.5798C406.41 12.5575 406.864 12.5521 407.291 12.5237C407.685 12.4984 407.966 12.541 408.167 12.5944C408.529 12.689 409.035 12.5591 409.397 12.6522C409.605 12.7056 409.873 12.7482 410.273 12.7244C410.714 12.6991 410.855 12.7311 410.983 12.8276C411.057 12.8828 411.044 12.9274 410.911 12.9706C410.778 13.0154 410.631 13.008 410.416 12.9577C410.169 12.9013 409.874 12.891 409.521 12.9039C409.173 12.9168 408.959 12.8373 408.671 12.8071C408.383 12.7753 408.043 12.8297 407.742 12.7887C407.033 12.6932 407.033 12.6932 406.552 12.7124C406.225 12.7253 405.884 12.732 405.564 12.7541C405.183 12.7809 404.935 12.7337 404.674 12.6911C404.581 12.6759 404.487 12.6469 404.407 12.6486C403.639 12.6729 402.864 12.6958 402.103 12.7355C401.702 12.7562 401.488 12.7013 401.22 12.6633C401.127 12.6497 401.026 12.6222 400.946 12.6254C400.285 12.648 399.63 12.6768 398.969 12.7041C398.843 12.7458 398.703 12.786 398.583 12.8307C398.457 12.877 398.284 12.8973 398.03 12.8962C397.609 12.897 397.195 12.9622 396.773 12.8815C396.338 12.7993 396.305 12.804 395.884 12.8247C395.35 12.8517 394.782 12.8466 394.282 12.9074C394.195 12.9183 394.102 12.9476 394.102 12.9691C394.096 12.9829 394.236 13.0027 394.323 13.0148C394.618 13.0512 394.958 12.9968 395.252 13.0347C395.446 13.059 395.607 13.0955 395.801 13.1213C395.881 13.1319 396.001 13.1302 396.108 13.1285C396.222 13.1267 396.329 13.1158 396.436 13.1172C396.536 13.1185 396.643 13.1275 396.723 13.1412C397.091 13.199 397.479 13.2521 397.808 13.3206C398.129 13.3877 398.429 13.3411 398.75 13.3374C400.034 13.4428 400.034 13.4443 400.895 13.409C401.109 13.4009 401.329 13.3913 401.55 13.3925C401.643 13.3923 401.73 13.4198 401.824 13.435C402.092 13.4807 402.346 13.5217 402.72 13.4965C403.041 13.4744 403.381 13.4692 403.708 13.4548C404.149 13.4371 404.149 13.4371 404.899 13.5326C405.086 13.5569 405.286 13.5535 405.527 13.5408C405.734 13.5297 405.947 13.5523 406.095 13.5966C406.155 13.615 406.136 13.6457 406.156 13.6718C405.495 13.6975 404.827 13.7156 404.186 13.7536C403.772 13.7773 403.584 13.7116 403.31 13.6767C403.216 13.6646 403.116 13.6387 403.029 13.6419C402.375 13.6661 401.72 13.6933 401.066 13.7252C400.986 13.7284 400.886 13.7639 400.88 13.7854C400.867 13.8254 401.034 13.8635 401.275 13.8615C401.595 13.8595 401.909 13.8328 402.197 13.8953C402.438 13.9502 402.739 13.9742 403.093 13.949C403.307 13.9348 403.534 13.9344 403.747 13.9218C404.315 13.8839 404.829 13.8907 405.258 13.9944C405.586 14.0215 405.906 13.9949 406.22 13.9805C406.454 13.9693 406.681 13.9582 406.848 13.9871C407.203 14.0479 407.551 14.1088 408.038 14.0664C408.567 14.1085 408.968 14.1985 409.41 14.2714C409.618 14.3064 409.778 14.3261 410.019 14.3027C410.119 14.2933 410.239 14.2931 410.346 14.2883C410.566 14.2802 410.8 14.2567 411 14.2656C411.201 14.276 411.368 14.3203 411.549 14.3476C411.636 14.3613 411.736 14.3842 411.823 14.3825C412.157 14.3742 412.484 14.3583 412.812 14.3454C413.139 14.3341 413.466 14.3228 413.793 14.3115C414.068 14.3509 414.349 14.3904 414.623 14.4299C415.064 14.4122 415.505 14.3945 415.939 14.3784C416.426 14.3591 416.426 14.3607 417.129 14.4547C417.443 14.4972 417.777 14.4689 418.077 14.4484C418.578 14.4153 418.913 14.4731 419.268 14.534C419.341 14.5461 419.475 14.5536 419.562 14.5473C419.909 14.5252 420.209 14.5415 420.464 14.5979C420.645 14.6376 420.826 14.6557 421.046 14.6476C421.814 14.6171 422.582 14.585 423.35 14.5576C423.443 14.5543 423.55 14.568 423.637 14.5801C424.32 14.6727 424.326 14.6773 424.827 14.6518C425.275 14.6295 425.689 14.6196 426.044 14.7035C426.117 14.7218 426.231 14.7477 426.311 14.746C426.859 14.7297 427.413 14.7118 427.954 14.6848C428.201 14.6721 428.375 14.6764 428.569 14.7114C428.817 14.7555 429.038 14.8089 429.445 14.7882C430.574 14.7294 430.58 14.7386 431.918 14.8423C432.011 14.8498 432.138 14.8373 432.245 14.831C432.472 14.8152 432.639 14.8364 432.84 14.8714C433.289 14.9505 433.302 14.9459 433.729 14.9283C434.056 14.9139 434.397 14.9102 434.718 14.8866C435.211 14.8519 435.54 14.9113 435.908 14.9675C436.202 15.0115 436.542 14.9741 436.856 14.9597C437.197 14.9437 437.504 14.9478 437.759 15.0057C437.933 15.0454 438.12 15.0666 438.341 15.0585C439.108 15.0295 439.876 14.9975 440.644 14.9685C440.738 14.9652 440.852 14.9773 440.939 14.9879C441.701 15.0819 441.701 15.0865 442.456 15.0498C442.696 15.0387 442.897 15.0352 443.077 15.0672C443.251 15.0976 443.439 15.1265 443.62 15.1553C443.947 15.144 444.281 15.1404 444.601 15.1214C444.848 15.1071 445.022 15.113 445.216 15.1449C445.47 15.1859 445.685 15.2578 446.085 15.2217C446.292 15.2045 446.533 15.2087 446.74 15.1929C446.987 15.1725 447.154 15.1845 447.348 15.2241C447.589 15.2714 447.837 15.3201 448.224 15.2948C448.651 15.2664 449.106 15.261 449.54 15.2388C449.78 15.2261 449.947 15.2381 450.141 15.2777C450.383 15.328 450.657 15.3598 451.031 15.3391C451.792 15.2994 451.798 15.3071 452.541 15.4026C452.729 15.4268 452.929 15.4234 453.169 15.4107C453.376 15.3996 453.59 15.4223 453.738 15.4666C453.879 15.5155 453.866 15.5462 453.879 15.5723ZM394.18 1.81982C393.96 1.82788 393.74 1.83748 393.417 1.70438C393.397 1.68137 393.41 1.6537 393.363 1.63381C393.256 1.59252 393.088 1.56362 392.888 1.55936C392.527 1.55384 392.093 1.60682 392.1 1.64675C392.108 1.68054 392.221 1.70953 392.442 1.7368C392.536 1.74739 392.61 1.7657 392.697 1.77784C392.951 1.81273 393.152 1.88153 393.519 1.84556C393.485 1.79799 393.451 1.75042 393.519 1.84556C393.487 1.90399 393.587 1.9453 393.828 1.96178C393.895 1.96627 393.995 1.96302 394.048 1.95371C394.255 1.91955 394.288 1.87341 394.133 1.75231C394.106 1.77233 394.127 1.80762 394.187 1.81673C394.247 1.82585 394.394 1.81792 394.467 1.80704C394.654 1.77752 394.747 1.73895 394.7 1.70677C394.673 1.68992 394.546 1.66863 394.466 1.66877C394.325 1.66901 394.199 1.70303 394.18 1.81982ZM448.416 19.5425C447.929 19.5725 447.368 19.5627 446.881 19.6235C446.794 19.6344 446.707 19.6622 446.701 19.6837C446.695 19.6975 446.828 19.7173 446.909 19.7279C447.089 19.7522 447.29 19.7441 447.523 19.736C447.877 19.7247 448.085 19.795 448.36 19.8298C448.447 19.8405 448.56 19.8479 448.654 19.8447C449.195 19.8253 449.729 19.8044 450.27 19.782C450.363 19.7772 450.463 19.7663 450.543 19.7523C450.81 19.7073 450.783 19.6782 450.522 19.6448C450.234 19.6084 450.006 19.5474 449.712 19.5187C449.291 19.4779 448.864 19.534 448.416 19.5425ZM410.491 20.7299C410.164 20.7427 409.843 20.7556 409.516 20.7684C409.409 20.7732 409.296 20.7749 409.195 20.7813C408.988 20.7924 408.835 20.8249 408.736 20.8758C408.89 20.9154 409.077 20.9382 409.284 20.9332C409.611 20.9234 409.932 20.9029 410.259 20.8977C410.613 20.8909 410.821 20.9597 411.095 20.9946C411.182 21.0052 411.289 21.0065 411.39 21.0079C411.884 21.0132 412.184 20.9328 412.089 20.8208C412.021 20.7333 411.766 20.6815 411.459 20.6928C411.139 20.7041 410.812 20.717 410.491 20.7299ZM450.673 17.2678C450.753 17.2416 450.84 17.223 450.88 17.1999C450.999 17.1213 450.951 17.063 450.73 17.002C450.462 16.9271 450.135 16.9784 449.835 16.9866C449.761 16.9883 449.682 17.0207 449.642 17.0407C449.615 17.0546 449.616 17.0838 449.656 17.0914C449.984 17.1523 450.332 17.2085 450.673 17.2678ZM392.664 12.8303C392.344 12.8431 392.017 12.8529 391.696 12.8704C391.616 12.8751 391.543 12.9044 391.496 12.9245C391.41 12.9615 391.504 13.012 391.778 13.0162C392.092 13.0218 392.419 12.9951 392.746 12.9822C393.16 12.9661 393.407 12.9089 393.252 12.86C393.105 12.8126 392.904 12.8037 392.664 12.8303ZM40.9659 10.1579C41.1796 10.1499 41.4 10.1433 41.6136 10.1322C41.8139 10.1211 41.9673 10.087 42.0668 10.0362C41.8993 9.99652 41.712 9.97533 41.5049 9.9803C41.1777 9.99009 40.8572 10.0029 40.5367 10.0189C40.3364 10.0284 40.1432 10.0626 40.097 10.1149C40.0508 10.1549 40.4985 10.1772 40.9659 10.1579ZM364.369 9.35967C364.456 9.37335 364.543 9.40085 364.63 9.4007C364.844 9.40033 365.064 9.39072 365.265 9.37501C365.351 9.36872 365.418 9.34095 365.458 9.31937C365.484 9.3055 365.477 9.28094 365.437 9.26871C365.242 9.19531 364.468 9.22277 364.342 9.30749C364.329 9.32287 364.362 9.34278 364.369 9.35967ZM343.19 0.983501C343.21 1.00805 343.217 1.03261 343.244 1.05715C343.298 1.10314 343.445 1.13669 343.659 1.15937C343.826 1.12067 343.912 1.07751 343.905 1.03143C343.898 1.00686 343.878 0.982301 343.851 0.957767C343.797 0.91177 343.649 0.878239 343.435 0.855566C343.269 0.892727 343.189 0.935876 343.19 0.983501ZM466.157 20.9005C466.097 20.9206 466.037 20.9407 465.97 20.9592C466.151 21.0034 466.318 21.017 466.445 20.9922C466.525 20.9767 466.572 20.9535 466.631 20.9335C466.451 20.8892 466.29 20.8772 466.157 20.9005ZM462.004 21.1166C462.091 21.1303 462.171 21.1486 462.265 21.1577C462.419 21.1728 462.559 21.1464 462.665 21.0909C462.578 21.0772 462.498 21.0589 462.404 21.0499C462.25 21.0348 462.11 21.0612 462.004 21.1166ZM464.633 20.8309C464.586 20.8679 464.68 20.8985 464.928 20.9241C464.988 20.9041 465.068 20.8855 465.107 20.8639C465.174 20.8285 465.06 20.7964 464.819 20.7722C464.752 20.7908 464.692 20.8109 464.633 20.8309ZM450.51 19.1993C450.463 19.2363 450.557 19.2668 450.805 19.2925C450.865 19.2724 450.945 19.2538 450.985 19.2323C451.051 19.1968 450.937 19.1648 450.696 19.1406C450.63 19.1591 450.57 19.1792 450.51 19.1993ZM431.164 8.36182C431.104 8.38189 431.044 8.40197 430.978 8.42052C431.159 8.46476 431.326 8.47829 431.453 8.45349C431.532 8.43799 431.579 8.41486 431.639 8.39479C431.458 8.35055 431.297 8.33854 431.164 8.36182ZM412.689 2.62651C412.849 2.63698 412.983 2.61525 413.096 2.55821C413.009 2.54454 412.928 2.52624 412.835 2.51718C412.681 2.50209 412.541 2.52845 412.435 2.58395C412.522 2.59916 412.609 2.61282 412.689 2.62651ZM402.911 2.28245C402.851 2.30253 402.791 2.32261 402.725 2.34116C402.906 2.3854 403.073 2.39893 403.199 2.37413C403.279 2.35863 403.326 2.3355 403.386 2.31543C403.205 2.27119 403.044 2.26071 402.911 2.28245ZM336.616 0.99338C336.556 1.01346 336.496 1.03353 336.43 1.05208C336.611 1.09632 336.778 1.10986 336.904 1.08505C336.984 1.06955 337.031 1.04643 337.091 1.02635C336.91 0.982111 336.749 0.971639 336.616 0.99338ZM6.75481 14.0658C6.66779 14.0522 6.58085 14.0385 6.5005 14.0233C6.30727 14.0651 6.24763 14.1036 6.35488 14.1326C6.42191 14.1509 6.52217 14.1615 6.60918 14.1752C6.80909 14.1334 6.85539 14.0964 6.75481 14.0658Z" fill="#FFE492"/>
</svg>
