<svg width="257" height="50" viewBox="0 0 257 50" fill="none" xmlns="http://www.w3.org/2000/svg">
<path d="M241.448 26.3945C241.096 26.4363 240.74 26.465 240.395 26.5277C240.171 26.5669 240.076 26.452 239.926 26.3919C239.876 26.371 239.823 26.3292 239.777 26.3344C239.428 26.3762 239.08 26.4233 238.732 26.4703C238.625 26.5722 238.557 26.708 238.394 26.7576C238.234 26.8046 238.045 26.8046 237.868 26.8282C237.633 26.8569 237.398 26.8856 237.164 26.9118C237.046 26.9248 236.95 26.9745 236.911 27.0685C236.904 27.0842 236.982 27.1233 237.025 27.1468C237.167 27.2252 237.306 27.314 237.462 27.3741C237.612 27.4316 237.797 27.3375 237.957 27.4107C238.316 27.5753 238.319 27.5726 238.593 27.5413C238.828 27.5126 239.062 27.4812 239.297 27.4603C239.343 27.4551 239.396 27.4943 239.446 27.5152C239.596 27.5727 239.692 27.7033 239.912 27.6536C240.079 27.6145 240.264 27.6066 240.438 27.5857C240.584 27.6615 240.719 27.7477 240.875 27.8078C241.021 27.8652 241.064 27.9096 240.986 27.9854C240.915 28.0559 240.815 28.0847 240.683 28.0899C240.566 28.0925 240.449 28.116 240.331 28.1291C240.271 28.1369 240.214 28.1421 240.157 28.15C239.933 28.1787 239.933 28.1787 239.524 28.0115C239.364 27.9462 239.183 28.0376 239.03 27.9749C238.927 27.9332 238.838 27.8705 238.739 27.8261C238.696 27.8078 238.628 27.8051 238.575 27.8104C238.397 27.8287 238.22 27.8417 238.049 27.8757C237.928 27.8992 237.857 27.9723 237.871 28.0455C237.875 28.0742 237.96 28.116 238.01 28.1186C238.124 28.1239 238.244 28.0873 238.355 28.1056C238.461 28.1238 238.572 28.1761 238.65 28.2336C238.81 28.3537 238.991 28.2466 239.144 28.278C239.304 28.3119 239.435 28.4164 239.588 28.4791C239.627 28.4948 239.702 28.4687 239.763 28.4608C239.937 28.4425 240.111 28.4269 240.285 28.4086C240.431 28.4843 240.587 28.5523 240.719 28.6385C240.957 28.7952 241.213 28.8553 241.523 28.7795C241.697 28.7377 241.867 28.7534 242.006 28.8553C242.148 28.9598 242.312 28.9493 242.493 28.9284C242.66 28.9075 242.831 28.8501 243.001 28.9232C243.371 29.0852 243.375 29.093 243.812 29.0303C243.944 29.012 244.043 29.0068 244.143 29.0669C244.235 29.1217 244.335 29.1688 244.431 29.221C244.605 29.2027 244.783 29.1844 244.957 29.1635C245.181 29.1348 245.305 29.1714 245.359 29.3177C245.391 29.4065 245.405 29.4875 245.483 29.5475C245.576 29.6207 245.675 29.6181 245.81 29.5972C245.938 29.5789 246.031 29.5502 246.084 29.4561C246.105 29.4169 246.148 29.3804 246.187 29.349C246.219 29.3255 246.269 29.2889 246.297 29.2942C246.351 29.3046 246.422 29.3333 246.439 29.3673C246.614 29.6834 246.614 29.686 246.791 29.7774C246.987 29.8793 247.19 29.9707 247.367 30.0857C247.527 30.1875 247.687 30.1431 247.862 30.1431C247.993 30.1431 248.078 30.2111 248.068 30.279C248.061 30.3182 248.011 30.3756 247.968 30.3808C247.62 30.4331 247.268 30.4775 246.916 30.5141C246.873 30.5193 246.82 30.4723 246.77 30.4488C246.671 30.4017 246.582 30.3286 246.475 30.3129C246.368 30.2972 246.244 30.3364 246.127 30.3495C246.009 30.3626 245.885 30.3965 245.778 30.3756C245.672 30.3547 245.586 30.279 245.487 30.2293C245.44 30.2058 245.376 30.1719 245.337 30.1797C245.078 30.2424 244.886 30.1562 244.701 30.0413C244.662 30.0178 244.594 30.0021 244.545 30.0073C244.132 30.0517 243.723 30.1039 243.311 30.1536C243.144 30.1745 243.009 30.083 242.973 29.9289C242.955 29.8427 242.92 29.7565 242.92 29.6703C242.92 29.5136 242.724 29.4274 242.582 29.4457C242.347 29.4718 242.109 29.4927 241.878 29.5319C241.69 29.5632 241.53 29.5319 241.402 29.4378C241.252 29.3307 241.082 29.3516 240.911 29.3804C240.783 29.4012 240.747 29.4875 240.755 29.7043C240.762 29.8793 240.701 29.9341 240.47 29.9629C240.179 29.9995 239.883 30.036 239.588 30.0648C239.542 30.07 239.489 30.0256 239.443 30.0021C239.343 29.9551 239.254 29.8793 239.148 29.8636C239.041 29.8453 238.916 29.8845 238.799 29.9002C238.682 29.9133 238.557 29.9498 238.451 29.9315C238.344 29.9133 238.255 29.8349 238.159 29.7853C238.113 29.7618 238.056 29.7278 238.01 29.733C237.775 29.7539 237.541 29.7853 237.306 29.814C237.043 29.8453 237.043 29.8453 236.669 29.6834C236.499 29.6102 236.328 29.6677 236.161 29.6886C235.983 29.7095 235.816 29.72 235.678 29.6155C235.585 29.5475 235.482 29.5057 235.372 29.5188C235.077 29.5502 234.785 29.5893 234.49 29.6207C234.44 29.6259 234.373 29.6129 234.334 29.5893C234.145 29.4796 233.96 29.3934 233.697 29.4483C233.47 29.4953 233.224 29.4979 232.997 29.5423C232.872 29.5658 232.816 29.6494 232.84 29.7147C232.855 29.7487 232.929 29.7879 232.979 29.7879C233.093 29.7905 233.217 29.7513 233.324 29.767C233.544 29.7983 233.655 30.0177 233.943 29.9577C234.113 29.9211 234.291 29.908 234.469 29.8976C234.515 29.895 234.565 29.9446 234.615 29.9707C234.757 30.0413 234.881 30.1327 235.087 30.0857C235.258 30.0491 235.439 30.0387 235.614 30.0178C235.891 29.9838 235.891 29.9864 236.25 30.1458C236.421 30.2215 236.591 30.1614 236.758 30.1431C236.883 30.1301 237 30.104 237.1 30.1405C237.253 30.1954 237.363 30.3208 237.551 30.3129C237.729 30.3051 237.903 30.2685 238.081 30.2555C238.191 30.2476 238.294 30.2894 238.383 30.36C238.476 30.4305 238.575 30.4618 238.696 30.4461C238.87 30.4252 239.048 30.3991 239.226 30.3861C239.275 30.3835 239.332 30.407 239.379 30.4279C239.478 30.4749 239.574 30.5297 239.67 30.5794C239.844 30.5637 240.022 30.5585 240.193 30.5271C240.324 30.5036 240.417 30.5141 240.523 30.5663C240.659 30.6369 240.769 30.7623 240.989 30.7022C241.099 30.6734 241.227 30.6813 241.338 30.6551C241.473 30.6212 241.565 30.6342 241.661 30.7126C241.842 30.8615 242.07 30.8641 242.305 30.8066C242.561 30.7439 242.753 30.8171 242.945 30.9321C243.147 31.0522 243.147 31.0496 243.304 31.3396C243.35 31.4231 243.481 31.4623 243.592 31.4467C243.777 31.4205 243.937 31.4336 244.072 31.5329C244.214 31.64 244.384 31.6269 244.559 31.5982C244.79 31.559 245.021 31.525 245.209 31.6765C245.302 31.7497 245.401 31.768 245.526 31.7497C245.878 31.7026 246.233 31.6739 246.578 31.6165C246.788 31.5799 246.909 31.6635 247.051 31.734C247.243 31.8307 247.453 31.9169 247.453 32.1232C247.453 32.1572 247.503 32.1964 247.545 32.2225C247.638 32.2774 247.737 32.3244 247.833 32.3766C247.975 32.455 248.114 32.5203 248.31 32.4785C248.48 32.4445 248.662 32.4341 248.836 32.4106C249.01 32.3871 249.17 32.374 249.326 32.4733C249.508 32.5856 249.7 32.6927 249.906 32.7763C250.052 32.8364 250.244 32.7345 250.4 32.8155C250.496 32.8651 250.588 32.9226 250.692 32.9644C250.734 32.9827 250.802 32.9696 250.859 32.9644C250.976 32.9539 251.097 32.9461 251.211 32.92C251.342 32.8913 251.442 32.8965 251.541 32.9566C251.634 33.0114 251.726 33.0872 251.833 33.1028C251.993 33.1264 252.171 33.0219 252.331 33.142C252.412 33.2021 252.516 33.2596 252.622 33.2779C252.729 33.2962 252.853 33.257 252.967 33.2596C253.017 33.2596 253.077 33.3014 253.106 33.3353C253.123 33.3536 253.099 33.4033 253.074 33.4294C253.042 33.4607 252.995 33.5025 252.949 33.5078C252.597 33.5548 252.245 33.594 251.893 33.6384C251.684 33.6645 251.684 33.6645 251.26 33.4999C251.161 33.4607 251.051 33.4686 250.926 33.4868C250.759 33.5103 250.589 33.5548 250.414 33.5078C250.187 33.3301 249.906 33.3144 249.607 33.3823C249.483 33.4111 249.369 33.4111 249.277 33.3615C249.081 33.2622 248.875 33.1708 248.701 33.0532C248.566 32.9618 248.502 32.9539 248.445 33.0793C248.427 33.1185 248.409 33.1603 248.413 33.1969C248.434 33.3275 248.473 33.4555 248.494 33.5861C248.502 33.6227 248.473 33.6645 248.455 33.7037C248.398 33.8134 248.324 33.8055 248.199 33.7141C248.075 33.6227 247.926 33.5626 247.727 33.6044C247.556 33.641 247.371 33.6358 247.2 33.6749C246.937 33.7324 246.752 33.6488 246.564 33.5365C246.525 33.513 246.457 33.4999 246.408 33.5051C245.878 33.5652 245.352 33.6331 244.822 33.6932C244.708 33.7063 244.605 33.6671 244.516 33.5966C244.424 33.526 244.32 33.4895 244.207 33.5025C243.737 33.5574 243.268 33.607 242.799 33.6749C242.607 33.7037 242.454 33.6697 242.322 33.5783C242.223 33.5103 242.13 33.4895 242.006 33.4973C241.871 33.5051 241.775 33.5313 241.707 33.607C241.643 33.6802 241.69 33.7246 241.832 33.782C241.985 33.8447 242.127 33.9257 242.273 33.9989C242.39 33.9884 242.507 33.9675 242.621 33.9701C242.671 33.9701 242.717 34.0171 242.767 34.0433C242.909 34.119 243.041 34.1948 243.243 34.153C243.414 34.1164 243.595 34.1086 243.769 34.0851C244.011 34.0563 244.011 34.0563 244.402 34.2209C244.502 34.2627 244.608 34.2601 244.736 34.2366C244.847 34.2183 244.96 34.2548 245.039 34.3332C245.071 34.3646 245.06 34.4168 244.993 34.5892C244.993 34.7172 245.067 34.6598 245.092 34.5762C245.131 34.456 245.056 34.4168 244.914 34.4821C244.815 34.5291 244.765 34.5971 244.79 34.6519C244.804 34.6807 244.872 34.7172 244.993 34.5892C245.305 34.4325 245.544 34.4142 245.771 34.3724C245.906 34.3489 245.991 34.3593 246.098 34.4272C246.226 34.5082 246.354 34.5945 246.564 34.5527C246.791 34.5056 247.033 34.5004 247.264 34.4612C247.478 34.4246 247.588 34.5396 247.723 34.6075C247.886 34.6885 248.068 34.5971 248.217 34.6441C248.374 34.6911 248.484 34.806 248.665 34.8269C248.928 34.7564 249.095 34.887 249.294 34.9732C249.451 35.0385 249.636 34.9811 249.803 34.9523C249.991 34.921 250.148 34.9497 250.279 35.0438C250.429 35.1509 250.596 35.1274 250.766 35.1039C251.165 35.0516 251.179 35.0438 251.41 35.1874C251.577 35.2919 251.737 35.2449 251.904 35.2318C252.05 35.3024 252.192 35.3781 252.345 35.4408C252.384 35.4565 252.459 35.4304 252.519 35.4225C252.693 35.4016 252.871 35.3807 253.045 35.3598C253.163 35.3468 253.287 35.3076 253.394 35.3233C253.5 35.3416 253.589 35.4173 253.685 35.467C253.781 35.5166 253.881 35.5662 253.973 35.6185C254.115 35.6968 254.25 35.7621 254.45 35.723C254.62 35.689 254.798 35.6785 254.976 35.655C255.2 35.6263 255.193 35.6341 255.609 35.7909C255.833 35.8771 256.064 35.7726 256.291 35.7621C256.405 35.7569 256.515 35.7857 256.593 35.8614C256.625 35.8928 256.615 35.945 256.625 35.9894C256.039 36.0599 255.449 36.12 254.869 36.2062C254.645 36.2402 254.528 36.1461 254.407 36.0678C254.208 35.9424 253.945 36.1252 253.756 35.9633C253.643 35.8666 253.479 35.8118 253.283 35.8588C253.17 35.8849 253.049 35.8823 252.931 35.9058C252.633 35.9633 252.359 35.9659 252.121 35.7857C252.039 35.723 251.922 35.689 251.836 35.6289C251.737 35.5636 251.641 35.527 251.524 35.5401C250.994 35.6028 250.468 35.6655 249.941 35.7334C249.895 35.7386 249.849 35.7778 249.81 35.8065C249.71 35.8797 249.742 35.9372 249.902 35.9842C249.956 35.9999 249.998 36.0338 250.048 36.0599C250.144 36.1096 250.233 36.1879 250.34 36.2062C250.446 36.2245 250.571 36.1879 250.688 36.1749C250.805 36.1618 250.93 36.1226 251.037 36.1383C251.143 36.1566 251.232 36.2324 251.332 36.2794C251.378 36.3029 251.435 36.3421 251.481 36.3395C251.716 36.3238 251.947 36.295 252.181 36.2715C252.327 36.3421 252.452 36.4439 252.626 36.4674C252.736 36.4831 252.853 36.4544 252.967 36.4596C253.017 36.4622 253.081 36.5014 253.106 36.5354C253.12 36.5563 253.074 36.6085 253.038 36.6346C252.903 36.7339 252.718 36.7156 252.551 36.7469C252.37 36.7809 252.206 36.7705 252.068 36.6686C251.975 36.6007 251.872 36.5641 251.758 36.5772C251.463 36.6111 251.172 36.6503 250.876 36.6791C250.827 36.6843 250.766 36.6608 250.72 36.6425C250.347 36.4831 250.347 36.4779 250.084 36.5119C249.696 36.5615 249.696 36.5615 249.437 36.423C249.387 36.3969 249.333 36.3473 249.291 36.3499C248.878 36.3917 248.47 36.4335 248.061 36.4936C247.926 36.5119 247.833 36.5119 247.734 36.4439C247.648 36.3865 247.549 36.3212 247.442 36.3055C247.332 36.2898 247.211 36.329 247.094 36.3421C246.976 36.3551 246.852 36.3891 246.749 36.3682C246.642 36.3473 246.55 36.2742 246.457 36.2219C246.361 36.1671 246.258 36.1696 246.127 36.1905C245.721 36.2506 245.718 36.2428 245.316 36.0808C245.27 36.0626 245.209 36.0417 245.16 36.0469C244.865 36.0782 244.573 36.1174 244.278 36.1488C244.164 36.1618 244.054 36.1279 243.976 36.0521C243.944 36.0208 243.954 35.9685 243.933 35.8666C243.908 35.8431 243.937 35.8849 243.944 35.9241C243.997 35.9189 244.061 35.9241 244.1 35.9032C244.2 35.8536 244.249 35.7882 244.225 35.7334C244.21 35.7047 244.143 35.6681 244.1 35.6681C244.022 35.6681 243.954 35.7256 243.933 35.8666C243.709 35.9528 243.471 35.9711 243.24 36.0129C243.105 36.039 243.019 36.026 242.913 35.9581C242.785 35.8745 242.653 35.7935 242.443 35.8353C242.216 35.8823 241.974 35.8902 241.739 35.9267C241.469 35.9685 241.352 35.7334 241.124 35.7386C240.89 35.7438 240.655 35.7883 240.42 35.8196C240.214 35.8457 240.214 35.8457 239.787 35.6759C239.631 35.6132 239.446 35.7047 239.293 35.6393C239.19 35.5976 239.101 35.5349 239.002 35.4905C238.959 35.4722 238.892 35.4722 238.838 35.4774C238.543 35.5087 238.245 35.5296 237.96 35.5871C237.637 35.655 237.391 35.5819 237.16 35.4278C236.869 35.4565 236.574 35.4722 236.286 35.5218C236.076 35.5584 235.955 35.4722 235.813 35.4017C235.763 35.3781 235.72 35.339 235.667 35.3285C235.614 35.3181 235.55 35.3389 235.493 35.3468C235.258 35.3755 235.016 35.3886 234.789 35.4356C234.508 35.4957 234.401 35.2815 234.184 35.2554C234.039 35.3834 233.96 35.5584 233.672 35.5714C233.438 35.5819 233.203 35.6237 232.968 35.6524C232.851 35.6655 232.734 35.6812 232.616 35.6942C232.428 35.7177 232.339 35.8196 232.378 35.9763C232.4 36.0625 232.417 36.1487 232.435 36.235C232.471 36.3891 232.382 36.5197 232.232 36.538C231.82 36.5876 231.411 36.6398 230.999 36.6843C230.889 36.6973 230.782 36.6529 230.693 36.5824C230.601 36.5118 230.497 36.4805 230.384 36.4936C229.971 36.5432 229.562 36.5955 229.15 36.6399C229.104 36.6451 229.043 36.619 228.997 36.5981C228.898 36.551 228.802 36.4962 228.706 36.4466C228.471 36.4701 228.24 36.4857 228.009 36.5171C227.635 36.5641 227.635 36.5667 227.362 36.423C227.312 36.3969 227.262 36.3473 227.216 36.3499C227.038 36.3604 226.864 36.3865 226.686 36.41C226.164 36.4779 226.164 36.4779 226.011 36.3995C225.872 36.3264 225.748 36.2376 225.538 36.2794C225.31 36.3264 225.069 36.3421 224.834 36.3682C224.66 36.3865 224.485 36.4074 224.311 36.4126C224.265 36.4152 224.215 36.3656 224.166 36.3395C224.023 36.2585 223.885 36.1932 223.689 36.2376C223.575 36.2637 223.454 36.2689 223.337 36.282C223.031 36.3186 223.031 36.3185 222.53 36.1618C222.48 36.1461 222.42 36.1278 222.37 36.1357C221.958 36.1827 221.549 36.235 221.136 36.2794C221.087 36.2846 221.026 36.2689 220.976 36.2558C220.415 36.1043 220.415 36.1043 219.817 36.1775C219.59 36.2036 219.583 36.2141 219.344 36.0756C219.238 36.0155 219.149 35.9868 219.025 36.0051C218.555 36.0678 218.082 36.1096 217.617 36.1827C217.407 36.2141 217.286 36.1357 217.144 36.0651C217.094 36.0416 217.041 35.9894 216.998 35.992C216.529 36.0417 216.059 36.1017 215.59 36.1514C215.547 36.1566 215.494 36.1043 215.444 36.0808C215.348 36.0338 215.256 35.9633 215.149 35.9476C215.039 35.9319 214.918 35.9711 214.797 35.9842C214.502 36.0181 214.502 36.0155 214.161 35.8614C214.115 35.8405 214.054 35.8118 214.008 35.817C213.539 35.8692 213.066 35.9137 212.6 35.9894C212.333 36.0312 212.152 35.9554 211.964 35.8457C211.925 35.8222 211.857 35.8118 211.807 35.817C211.278 35.8771 210.751 35.945 210.222 36.0051C210.111 36.0181 210.005 35.9737 209.916 35.9058C209.774 35.7987 209.607 35.8118 209.429 35.8353C209.02 35.8901 209.016 35.8875 208.775 35.7621C208.725 35.736 208.682 35.7021 208.629 35.689C208.579 35.6759 208.515 35.6838 208.462 35.689C208.227 35.7151 207.992 35.7438 207.758 35.7726C207.523 35.8013 207.285 35.817 207.054 35.8614C206.769 35.9163 206.634 35.7464 206.435 35.6681C206.144 35.702 205.845 35.7229 205.557 35.7778C205.337 35.8196 205.234 35.7047 205.088 35.6446C205.038 35.6237 204.985 35.5793 204.938 35.5845C204.409 35.642 203.879 35.7047 203.353 35.7752C203.225 35.7909 203.139 35.77 203.033 35.7073C202.795 35.5662 202.784 35.5714 202.386 35.6237C202.211 35.6472 202.044 35.6681 201.895 35.561C201.763 35.4643 201.604 35.4408 201.415 35.4722C201.184 35.5113 200.946 35.5323 200.711 35.5584C200.477 35.5871 200.242 35.6263 200.007 35.6393C199.819 35.6524 199.705 35.5297 199.556 35.467C199.509 35.4487 199.445 35.446 199.392 35.4513C199.158 35.4748 198.916 35.4931 198.688 35.5375C198.411 35.5923 198.258 35.4487 198.062 35.3651C198.02 35.3468 197.949 35.3572 197.895 35.3651C197.483 35.4121 197.074 35.4643 196.662 35.514C196.516 35.4434 196.367 35.3755 196.221 35.305C195.986 35.3311 195.751 35.3598 195.517 35.386C195.339 35.4069 195.158 35.4147 194.991 35.4539C194.774 35.5061 194.667 35.3834 194.521 35.3233C194.472 35.3024 194.418 35.258 194.372 35.2632C194.077 35.2919 193.782 35.3233 193.49 35.3677C193.213 35.4121 193.103 35.177 192.875 35.1796C192.641 35.1822 192.399 35.2162 192.171 35.2632C191.908 35.3181 191.723 35.2345 191.535 35.1221C191.496 35.0986 191.428 35.0856 191.378 35.0908C191.083 35.1221 190.792 35.1613 190.497 35.1927C190.447 35.1979 190.387 35.1848 190.337 35.1692C189.775 35.015 189.775 35.0124 189.53 35.0438C189.356 35.0647 189.178 35.0908 189 35.1039C188.95 35.1091 188.89 35.0856 188.844 35.0647C188.474 34.9053 188.474 34.9027 188.207 34.934C187.972 34.9628 187.738 34.9915 187.503 35.0202C187.357 34.9497 187.208 34.8818 187.062 34.8113C186.771 34.8452 186.472 34.8713 186.184 34.9184C186.049 34.9393 185.96 34.9314 185.857 34.8661C185.729 34.7878 185.601 34.6963 185.388 34.7407C185.16 34.7878 184.918 34.793 184.687 34.8322C184.41 34.8792 184.296 34.6415 184.072 34.6441C183.838 34.6467 183.596 34.6806 183.368 34.7277C183.105 34.7825 182.92 34.699 182.732 34.5866C182.693 34.5631 182.625 34.5501 182.576 34.5553C181.928 34.631 181.285 34.7068 180.638 34.7877C180.24 34.8374 180.24 34.84 179.482 34.6963C179.429 34.6859 179.372 34.6754 179.319 34.6807C179.084 34.7042 178.842 34.7224 178.615 34.7669C178.338 34.8217 178.185 34.6806 177.989 34.5944C177.946 34.5762 177.879 34.5866 177.822 34.5918C177.644 34.6101 177.47 34.6336 177.292 34.6545C177.058 34.6833 176.823 34.712 176.588 34.7407C176.443 34.6728 176.293 34.6023 176.148 34.5344C175.856 34.5683 175.557 34.5866 175.269 34.6415C175.049 34.6833 174.946 34.5736 174.8 34.5109C174.75 34.49 174.697 34.4456 174.651 34.4482C174.121 34.5056 173.591 34.5657 173.065 34.6389C172.848 34.6702 172.749 34.5526 172.603 34.4926C172.553 34.4743 172.496 34.4403 172.45 34.4456C172.098 34.4821 171.746 34.5265 171.394 34.5709C171.195 34.5971 171.195 34.5971 170.761 34.4351C170.712 34.4168 170.655 34.3985 170.605 34.4037C169.489 34.5344 168.376 34.6728 167.259 34.8034C167.146 34.8165 167.042 34.7773 166.954 34.7068C166.861 34.6362 166.758 34.5997 166.644 34.6127C166.175 34.6676 165.702 34.7172 165.236 34.7852C165.044 34.8139 164.891 34.7799 164.76 34.6885C164.66 34.6206 164.568 34.5945 164.444 34.6101C164.209 34.6415 163.974 34.6676 163.74 34.6963C163.505 34.7251 163.27 34.7538 163.036 34.7825C162.801 34.8113 162.563 34.8269 162.332 34.8714C162.047 34.9262 161.909 34.7643 161.713 34.6833C161.361 34.7225 161.009 34.7616 160.661 34.8034C160.191 34.8583 159.722 34.9184 159.253 34.9706C159.21 34.9758 159.157 34.9288 159.107 34.9053C158.961 34.84 158.855 34.7486 158.638 34.7773C157.585 34.9158 156.526 35.0333 155.47 35.1692C155.249 35.1979 155.153 35.0856 155.004 35.0255C154.954 35.0072 154.898 34.9706 154.851 34.9759C154.265 35.0412 153.678 35.1143 153.091 35.1848C152.853 35.2135 152.853 35.2135 152.455 35.0516C152.409 35.0333 152.348 35.0098 152.299 35.015C151.534 35.1038 150.773 35.1979 150.009 35.2893C149.895 35.3024 149.792 35.2658 149.7 35.1953C149.611 35.1247 149.504 35.0856 149.394 35.0986C148.69 35.1822 147.982 35.2632 147.282 35.3546C147.094 35.3807 146.937 35.3572 146.802 35.2632C146.706 35.1953 146.61 35.1665 146.489 35.1822C145.433 35.3102 144.377 35.433 143.321 35.5688C143.119 35.595 142.977 35.5453 142.849 35.4591C142.745 35.3912 142.657 35.3781 142.529 35.3886C142.393 35.4016 142.312 35.4304 142.237 35.5087C142.141 35.6106 142.081 35.7386 141.853 35.7465C141.618 35.7543 141.38 35.7857 141.149 35.8301C140.929 35.8745 140.826 35.7569 140.687 35.6864C140.584 35.6367 140.488 35.6289 140.356 35.6524C140.235 35.6733 140.161 35.7177 140.09 35.8013C139.933 35.9789 139.919 35.9789 139.727 35.8666C139.624 35.8065 139.531 35.7595 139.418 35.77C138.948 35.8222 138.479 35.8797 138.01 35.9398C137.74 35.9737 137.736 35.979 137.533 35.8483C137.434 35.783 137.338 35.7517 137.221 35.7673C135.93 35.9241 134.639 36.0756 133.349 36.2402C133.15 36.2663 133.015 36.2114 132.872 36.1331C132.826 36.1069 132.78 36.0704 132.727 36.0599C132.673 36.0495 132.613 36.0599 132.556 36.0651C131.617 36.1775 130.675 36.2846 129.74 36.41C129.527 36.4387 129.413 36.3551 129.267 36.2872C129.218 36.2637 129.175 36.2271 129.122 36.2167C129.068 36.2088 129.004 36.2271 128.947 36.235C128.009 36.3473 127.067 36.4544 126.132 36.5798C125.908 36.6085 125.812 36.4988 125.666 36.4413C125.616 36.4204 125.563 36.3812 125.516 36.3865C125.221 36.4152 124.93 36.4544 124.635 36.4883C123.931 36.5745 123.227 36.6555 122.523 36.7444C122.253 36.7783 122.135 36.5458 121.908 36.5563C121.613 36.5693 121.321 36.6216 121.026 36.6581C120.791 36.6869 120.557 36.713 120.322 36.7444C120.091 36.7731 120.091 36.7731 119.515 36.6216C119.465 36.6085 119.405 36.5902 119.355 36.5954C118.534 36.6921 117.709 36.7888 116.891 36.8933C116.703 36.9168 116.546 36.9037 116.411 36.8071C116.315 36.7391 116.216 36.7052 116.098 36.7208C114.865 36.8697 113.635 37.0187 112.401 37.1649C112.355 37.1702 112.294 37.144 112.248 37.1231C112.149 37.0761 112.052 37.0213 111.957 36.9716C111.885 37.0317 111.793 37.0866 111.747 37.1545C111.683 37.2459 111.597 37.272 111.462 37.2877C111.327 37.3034 111.242 37.2982 111.135 37.2302C111.007 37.1467 110.876 37.0813 110.666 37.1074C109.375 37.272 108.085 37.4209 106.794 37.5829C106.581 37.609 106.481 37.4941 106.332 37.434C106.282 37.4157 106.225 37.387 106.179 37.3922C105.649 37.4523 105.123 37.5176 104.593 37.5803C103.125 37.7579 101.657 37.9277 100.192 38.1158C99.9254 38.1498 99.7441 38.0844 99.5556 37.9721C99.5165 37.9486 99.449 37.9356 99.3992 37.9408C97.3443 38.1863 95.2893 38.4345 93.2379 38.6827C93.1276 38.6957 93.0209 38.6539 92.9321 38.586C92.8396 38.5155 92.7366 38.4815 92.6228 38.4946C91.6842 38.6069 90.7456 38.7192 89.807 38.8342C89.5724 38.8629 89.5688 38.8655 89.327 38.7401C89.2772 38.714 89.224 38.6644 89.1848 38.6696C89.1031 38.6827 89.0248 38.748 88.9679 38.8368C88.911 38.9308 88.8222 38.9569 88.6906 38.9752C88.5555 38.9935 88.4667 38.9857 88.3635 38.923C88.232 38.8446 88.1111 38.7689 87.8978 38.795C85.1993 39.1294 82.5008 39.4507 79.8023 39.7824C79.5855 39.8085 79.4859 39.6988 79.3366 39.6388C79.2868 39.6205 79.2371 39.5943 79.1837 39.5891C79.1268 39.5839 79.0664 39.5996 79.0095 39.6074C74.6081 40.1377 70.2066 40.6706 65.8052 41.2009C65.5421 41.2322 65.5456 41.2322 65.2576 41.4726C65.2221 41.5013 65.1758 41.5405 65.126 41.5457C63.7786 41.7129 62.4276 41.8748 61.0766 42.0368C60.49 42.1073 59.9034 42.1805 59.3167 42.2484C59.107 42.2719 59.107 42.2719 58.6057 42.5541C58.563 42.5776 58.5132 42.6089 58.4634 42.6141C56.1169 42.8989 53.7704 43.1836 51.4203 43.4631C51.2355 43.484 51.0862 43.531 51.0008 43.6564C50.9404 43.7452 50.8622 43.7975 50.7449 43.8132C49.1023 44.0117 47.4598 44.2128 45.8137 44.4062C45.6181 44.4297 45.5008 44.5028 45.4048 44.6125C45.3728 44.6491 45.3443 44.6909 45.2981 44.717C45.2554 44.7405 45.1915 44.7484 45.1381 44.7562C43.7302 44.926 42.3224 45.101 40.9109 45.263C40.7011 45.2865 40.6158 45.3831 40.5127 45.485C40.4771 45.519 40.4522 45.566 40.406 45.5895C40.3598 45.6104 40.2922 45.6104 40.2354 45.6156C39.0621 45.7567 37.8889 45.9004 36.7156 46.0414C36.4881 46.0284 36.4383 46.1799 36.3281 46.2713C36.289 46.3027 36.2606 46.3445 36.2144 46.3654C36.1646 46.3863 36.1005 46.3836 36.0401 46.3889C35.1015 46.5012 34.1629 46.6214 33.2207 46.7259C33.0039 46.7494 32.9612 46.8826 32.8439 46.974C32.8048 47.0027 32.7657 47.0472 32.7195 47.055C32.1329 47.1308 31.5462 47.2013 30.9596 47.2692C30.7641 47.2927 30.7641 47.2901 30.4192 47.5487C30.3801 47.5775 30.3338 47.6088 30.2841 47.6166C29.4059 47.7264 28.5242 47.8308 27.6425 47.938C27.5287 47.951 27.4505 48.0137 27.3936 48.1025C27.3368 48.1913 27.255 48.2488 27.1412 48.2619C26.4373 48.3481 25.7333 48.4369 25.0293 48.5153C24.8338 48.5362 24.7058 48.6015 24.6205 48.719C24.5565 48.8078 24.4783 48.8522 24.3538 48.8679C23.6499 48.9515 22.946 49.0429 22.2384 49.1161C22.0322 49.137 21.9255 49.2258 21.8402 49.3355C21.7727 49.4243 21.6944 49.4557 21.5629 49.4714C20.2723 49.6229 18.9782 49.7744 17.6912 49.9415C17.4743 49.9703 17.3641 49.8789 17.2219 49.8135C17.0192 49.7221 16.8308 49.6228 16.8308 49.4191C16.8308 49.3877 16.7704 49.3512 16.7277 49.3251C16.4113 49.1291 16.4113 49.1292 16.3615 48.9202C16.3331 48.7922 16.3011 48.6616 16.2762 48.5309C16.23 48.3167 16.1162 48.2619 15.7891 48.3011C15.6718 48.3141 15.5544 48.3324 15.4371 48.3428C15.2629 48.3611 15.1314 48.2749 15.0994 48.1182C15.0816 48.032 15.0603 47.9458 15.0425 47.8596C15.2203 47.8387 15.2167 47.8361 15.5295 47.52C15.6611 47.3868 15.6611 47.3868 15.4087 47.2535C15.3127 47.2039 15.2203 47.149 15.1172 47.102C15.0709 47.0811 15.0105 47.068 14.9607 47.0733C14.6657 47.1046 14.3741 47.1412 14.0826 47.1778C13.6133 47.2352 13.6132 47.2352 13.1368 46.9688C13.0977 46.9479 13.0373 46.9087 13.0444 46.8878C13.0835 46.7912 13.1795 46.7493 13.3004 46.7389C13.4781 46.7232 13.6523 46.6971 13.8265 46.6762C13.9439 46.6631 14.0612 46.6475 14.1785 46.6344C14.2887 46.5352 14.4026 46.4385 14.5057 46.3366C14.6692 46.1799 14.6691 46.1747 14.4452 46.0649C14.3029 45.9918 14.1501 45.9265 14.0043 45.8586C13.8301 45.8795 13.6523 45.903 13.4781 45.9213C13.2577 45.9448 13.1688 45.8951 13.1119 45.7253C13.0621 45.5764 13.1226 45.4484 13.2932 45.4171C13.4675 45.3858 13.6311 45.3649 13.72 45.2316C13.8053 45.1036 13.9546 45.054 14.1395 45.0435C14.2568 45.0357 14.3741 45.0174 14.4914 45.0018C14.6443 44.9809 14.7261 44.8476 14.6941 44.6987C14.6763 44.6021 14.6408 44.5211 14.5021 44.5002C13.887 44.4088 13.8799 44.4114 13.5741 44.2337C13.5457 44.2181 13.5244 44.1711 13.5351 44.1475C13.5528 44.1084 13.592 44.0509 13.6346 44.043C14.0435 43.9856 14.4523 43.9333 14.8612 43.8942C14.9963 43.8811 15.0959 43.8628 15.1421 43.7661C15.2061 43.6329 15.1776 43.5101 15.0532 43.4187C15.0141 43.39 14.95 43.3534 14.9074 43.356C14.4381 43.403 13.9723 43.4631 13.503 43.5101C13.4604 43.5154 13.3822 43.471 13.3644 43.437C13.3289 43.3743 13.3822 43.2907 13.5066 43.262C13.6701 43.2228 13.8372 43.2202 13.9475 43.0896C14.1003 42.9041 14.2887 42.7343 14.4594 42.5567C14.4878 42.5253 14.5341 42.4652 14.5235 42.46C14.4346 42.4025 14.3314 42.3581 14.239 42.3033C14.0826 42.2118 14.0825 42.0838 14.1181 41.9611C14.1465 41.8618 14.2532 41.8226 14.3847 41.8226C14.4416 41.8226 14.5127 41.8226 14.559 41.7991C14.6798 41.7416 14.719 41.6685 14.6585 41.6136C14.623 41.5823 14.559 41.5379 14.5163 41.5431C13.7555 41.6293 12.9911 41.7129 12.2338 41.82C12.0098 41.8513 11.9068 41.7521 11.7717 41.6815C11.6685 41.6267 11.5725 41.6058 11.4445 41.645C11.3236 41.6815 11.2063 41.6607 11.1317 41.5745C11.0712 41.5039 11.1779 41.4438 11.4659 41.3759C11.5192 41.3629 11.5796 41.355 11.6187 41.3289C12.0311 41.0468 12.0311 41.0442 12.3155 41.0076C12.5929 40.9736 12.5929 40.971 12.7387 40.8195C12.8062 40.749 12.8808 40.6784 12.9448 40.6053C12.9697 40.5765 13.0124 40.5243 12.9982 40.5086C12.92 40.4276 12.8133 40.4094 12.6889 40.4277C12.4115 40.4721 12.0845 40.4355 11.9387 40.6837C11.8819 40.7777 11.793 40.8038 11.665 40.8195C10.378 40.971 9.09089 41.133 7.80032 41.2793C7.59055 41.3028 7.49462 41.3994 7.41284 41.5065C7.34174 41.5954 7.2635 41.6215 7.1284 41.6371C6.9933 41.6528 6.88659 41.6607 6.80837 41.5745C6.76215 41.5222 6.80127 41.4491 6.90793 41.3759C7.06081 41.2714 7.03235 41.1408 6.98258 41.018C6.94703 40.9371 6.83682 40.8796 6.71949 40.8848C6.54528 40.8953 6.37823 40.924 6.23246 40.8195C6.14713 40.7594 6.04045 40.7176 5.94446 40.6654C5.75958 40.5583 5.5747 40.4486 5.31516 40.5191C5.1374 40.493 5.01296 40.3989 4.87075 40.3258C4.63254 40.2056 4.61121 40.1873 4.78187 40.0593C4.97385 39.9157 4.8245 39.7276 4.93116 39.5865C5.04493 39.435 5.20142 39.3018 5.34007 39.1607C5.37563 39.1241 5.40764 39.0902 5.44319 39.0536C5.36142 39.0014 5.28677 38.9361 5.19078 38.8995C5.06634 38.8525 5.00234 38.795 5.00946 38.633C4.98457 38.6095 4.99516 38.6696 5.0236 38.6853C5.0556 38.7009 5.13388 38.6879 5.17299 38.6696C5.27253 38.62 5.32226 38.5547 5.29737 38.4998C5.28315 38.4711 5.21565 38.4345 5.17299 38.4345C5.09477 38.4345 5.02723 38.492 5.0059 38.633C4.6077 38.7401 4.19522 38.7924 3.78281 38.8342C3.74014 38.8394 3.68684 38.7872 3.63707 38.761C3.47353 38.6722 3.4735 38.6748 2.99354 38.6487C2.94376 38.6461 2.87625 38.6095 2.85136 38.573C2.74826 38.4136 2.75184 38.2386 2.70207 38.0688C2.7945 37.9591 2.88687 37.852 2.98286 37.7449C3.17485 37.528 3.42378 37.3373 3.5731 37.0996C3.5411 36.9716 3.49843 36.8436 3.65486 36.7391C4.09928 36.6085 4.09575 36.6085 4.21663 36.4831C4.56149 36.1279 4.90278 35.77 5.26187 35.4199C5.35786 35.3285 5.35787 35.2789 5.18722 35.2397C5.13389 35.2292 5.07693 35.2266 5.02004 35.2318C4.84228 35.2501 4.66452 35.2971 4.49031 35.2867C4.3161 35.2789 4.18811 35.1639 4.04589 35.0934C3.90013 35.0202 3.75437 34.9445 3.6086 34.8687C3.4415 34.8766 3.27443 34.9497 3.10733 34.8322C2.97934 34.7407 2.81936 34.6754 2.6736 34.5997C2.78381 34.4011 2.99005 34.2496 3.15004 34.0746C3.29581 33.9152 3.29928 33.9179 3.69036 33.7951C3.87524 33.7376 3.93924 33.4424 3.78281 33.3562C3.59437 33.2517 3.39532 33.1551 3.20333 33.0558C3.03623 33.0636 2.86561 33.1342 2.70562 33.0166C2.58119 32.9278 2.43895 32.8677 2.23274 32.9017C1.88432 32.9592 1.5288 32.9879 1.17683 33.0349C1.05595 33.0506 0.924362 33.0402 0.871032 32.9513C0.835479 32.8886 0.93859 32.8024 1.05591 32.7842C1.23368 32.758 1.39365 32.7267 1.48253 32.5961C1.56786 32.4655 1.72428 32.4263 1.90915 32.408C1.95893 32.4027 2.01585 32.3714 2.04074 32.34C2.16873 32.1885 2.31095 32.0579 2.58471 32.0632C2.69848 32.0109 2.75888 31.9456 2.72333 31.8829C2.702 31.8489 2.62738 31.8046 2.58471 31.8098C2.28962 31.8359 1.99454 31.862 1.70656 31.909C1.57146 31.9299 1.4683 31.9351 1.38298 31.8568C1.32254 31.8045 1.35453 31.734 1.4683 31.6582C1.56785 31.5929 1.59632 31.5172 1.58921 31.4284C1.57143 31.222 1.46475 31.1619 1.12344 31.175C0.878129 31.1854 0.817685 31.1515 0.764356 30.9738C0.750135 30.932 0.714644 30.8746 0.739531 30.8458C0.892409 30.6682 0.991965 30.4488 1.27994 30.3652C1.39371 30.3338 1.51455 30.3338 1.58565 30.2659C1.65676 30.198 1.72078 30.1196 1.79545 30.0543C1.88788 29.9759 1.95182 29.9028 1.90915 29.8532C1.83805 29.7644 1.72432 29.7565 1.59277 29.7879C1.479 29.814 1.35812 29.8166 1.2408 29.8323C1.03103 29.861 0.860418 29.7931 0.835531 29.6782C0.76798 29.3751 0.696854 29.0747 0.636413 28.7717C0.629303 28.7351 0.647031 28.6881 0.675473 28.6567C0.775022 28.547 0.881722 28.4425 0.984826 28.3354C1.10571 28.2127 1.29772 28.2362 1.46127 28.2127C1.69236 28.1787 1.69228 28.1813 2.00159 27.9305C2.12248 27.8313 2.33225 27.8705 2.45668 27.7816C2.49579 27.7529 2.55623 27.7059 2.54557 27.6798C2.53135 27.6458 2.46028 27.6197 2.40695 27.604C2.35717 27.5883 2.29675 27.5805 2.24342 27.5883C1.59635 27.6641 0.95286 27.7451 0.305794 27.8182C0.19558 27.8313 0.0746961 27.7738 0.0355878 27.6928C-0.00352058 27.6171 0.00711061 27.5256 0 27.4394C0.103104 27.3323 0.220384 27.2331 0.309266 27.1181C0.376817 27.0293 0.455048 26.9901 0.590149 26.9849C0.767915 26.977 0.942142 26.9457 1.14124 26.9222C1.51099 26.5408 1.87361 26.1411 2.2718 25.7597C2.43179 25.6056 2.39274 25.4489 2.42474 25.2843C2.45674 25.1328 2.69493 25.1563 2.85492 25.1119C2.98291 25.0753 3.02552 24.9917 2.97574 24.9343C2.9473 24.9003 2.88334 24.8611 2.83357 24.8611C2.71624 24.8611 2.59892 24.8846 2.4816 24.8977C2.36427 24.9107 2.22918 24.9029 2.13318 24.9473C2.04074 24.9891 1.98027 25.0779 1.91983 25.1537C1.85228 25.2373 1.76346 25.266 1.62836 25.2712C1.45415 25.2765 1.27995 25.3 1.10574 25.3183C0.913751 25.2164 0.714613 25.1171 0.529737 25.01C0.494184 24.9891 0.487035 24.9291 0.49059 24.8899C0.497701 24.788 0.444385 24.7253 0.32706 24.6756C0.227512 24.6338 0.145733 24.5738 0.0532948 24.5215C0.124401 24.451 0.202645 24.3831 0.25953 24.3073C0.383966 24.148 0.540417 24.033 0.81062 24.0383C0.917279 23.9364 1.00258 23.811 1.14124 23.7405C1.27279 23.6725 1.49678 23.7404 1.59633 23.5863C1.6461 23.5106 1.72081 23.4244 1.8168 23.393C1.96968 23.3434 2.16877 23.3695 2.25765 23.2232C2.31098 23.1396 2.38917 23.0639 2.49227 23.043C2.6096 23.0195 2.73045 23.0143 2.81577 22.9646C2.86199 22.9385 2.91177 22.8967 2.91177 22.8601C2.91177 22.8366 2.84072 22.8 2.79095 22.7844C2.74473 22.7661 2.68422 22.753 2.63089 22.7582C2.45313 22.7739 2.27892 22.8026 2.10115 22.8183C2.05138 22.8235 1.99451 22.8053 1.94118 22.7896C1.78475 22.7478 1.79539 22.6956 1.91983 22.6015C2.04427 22.5101 2.1332 22.3925 2.2363 22.2854C2.35007 22.2671 2.49226 22.275 2.57048 22.2253C2.70202 22.1443 2.79444 22.0268 2.9011 21.9249C3.01842 21.9092 3.1393 21.904 3.24951 21.8753C3.29573 21.8648 3.31708 21.8074 3.35619 21.7734C3.42729 21.7081 3.48778 21.6141 3.58377 21.5827C3.74021 21.5357 3.93219 21.554 4.02463 21.4103C4.07796 21.3267 4.1597 21.2379 4.25925 21.2327C4.53656 21.2222 4.65389 21.0785 4.7961 20.9427C4.90276 20.8408 5.13031 20.8931 5.24763 20.7912C5.32585 20.7259 5.38277 20.6449 5.46099 20.5822C5.49298 20.5561 5.56051 20.543 5.61384 20.5352C5.90537 20.496 6.20045 20.4673 6.49199 20.4255C6.53821 20.4176 6.58091 20.3785 6.61646 20.3471C6.69112 20.2792 6.73729 20.1851 6.82973 20.1407C6.92216 20.0963 7.05369 20.0963 7.16746 20.0833C7.53366 20.0441 7.56213 20.0545 7.72923 19.8325C7.86433 19.6522 8.19501 19.7802 8.30523 19.5817C8.36922 19.4668 8.4865 19.3727 8.69626 19.3597C8.99135 19.3414 9.28288 19.2918 9.57797 19.2578C9.84106 19.2264 9.83752 19.2264 10.1219 18.9835C10.2499 18.8738 10.4384 18.8895 10.6055 18.8686C10.7833 18.8477 10.9468 18.8163 11.0321 18.6857C11.1174 18.5577 11.2739 18.5159 11.4552 18.4976C11.6223 18.4793 11.8108 18.4924 11.9423 18.3879C12.2623 18.1371 12.2587 18.1345 12.4827 18.1084C12.8347 18.0666 13.1867 18.0248 13.5386 17.9804C13.7733 17.9517 14.0186 17.9464 14.239 17.889C14.399 17.8472 14.4701 17.7009 14.5732 17.599C14.8647 17.5598 15.1562 17.5206 15.4478 17.484C15.8566 17.4318 16.269 17.3848 16.6815 17.3352C16.8592 17.2359 16.8842 17.0165 17.1828 17.006C17.3606 17.0008 17.5348 16.9668 17.7126 16.9459C18.0076 16.9094 18.2992 16.8623 18.5943 16.8441C18.8182 16.831 18.8573 16.6899 18.9746 16.6011C19.0137 16.5698 19.0493 16.5254 19.0955 16.5175C19.5577 16.4444 20.0341 16.4287 20.4856 16.3216C20.5318 16.3112 20.5745 16.2563 20.5852 16.2171C20.5923 16.1962 20.5318 16.157 20.4927 16.1388C20.4465 16.1179 20.3861 16.097 20.3363 16.1022C18.868 16.2772 17.3997 16.4548 15.9313 16.6299C15.7251 16.656 15.7251 16.6534 15.2238 16.9407C15.1812 16.9642 15.1313 16.9903 15.078 16.9982C14.8434 17.0295 14.6052 17.0478 14.3741 17.087C14.1856 17.1184 14.0293 17.087 13.8942 16.9929C13.7982 16.925 13.6986 16.9041 13.5777 16.9094C13.4426 16.9172 13.3538 16.9459 13.2755 17.0165C13.1724 17.1131 13.1191 17.2385 12.9022 17.2646C11.9032 17.377 10.9041 17.5023 9.90859 17.6225C9.76993 17.5859 9.70239 17.5311 9.73794 17.4658C9.75927 17.4266 9.80195 17.3743 9.84462 17.3691C10.2535 17.3143 10.6659 17.2673 11.0747 17.215C11.1316 17.2072 11.2098 17.2124 11.2418 17.1862C11.3983 17.0687 11.4552 16.878 11.7503 16.8649C11.921 16.8571 12.0951 16.8179 12.2587 16.7814C12.3049 16.7709 12.3476 16.716 12.3582 16.6769C12.3618 16.656 12.3049 16.6168 12.2622 16.5985C12.1058 16.5227 11.9245 16.6142 11.7681 16.5619C11.7148 16.5437 11.6401 16.5175 11.6294 16.4862C11.6223 16.4574 11.6827 16.4104 11.7254 16.3817C11.7645 16.3556 11.8178 16.3321 11.8711 16.3242C12.3404 16.2641 12.8098 16.2014 13.2791 16.1544C13.4711 16.1361 13.6062 16.0708 13.6915 15.9506C13.7555 15.8618 13.8337 15.8148 13.9546 15.8018C14.7758 15.7051 15.5971 15.598 16.4219 15.5092C16.6281 15.4883 16.7348 15.4021 16.8202 15.2898C16.8877 15.2009 16.9659 15.1696 17.0975 15.1539C18.2743 15.0181 19.444 14.8666 20.6208 14.736C20.8376 14.7125 20.9017 14.6001 21.0119 14.5035C21.051 14.4695 21.0758 14.4277 21.1256 14.4068C21.1754 14.3859 21.2394 14.3885 21.2998 14.3833C22.2384 14.271 23.1771 14.1508 24.1192 14.0463C24.3396 14.0228 24.3822 13.8922 24.496 13.8007C24.5351 13.772 24.5707 13.725 24.6169 13.7172C25.3209 13.6284 26.0248 13.5448 26.7288 13.4586C27.1981 13.4011 27.6673 13.3436 28.1366 13.2888C28.3677 13.2626 28.3677 13.26 28.6806 13.0118C28.7162 12.9831 28.766 12.9491 28.8122 12.9413C30.1632 12.7741 31.5106 12.6148 32.8617 12.4502C32.9754 12.4372 33.0572 12.3771 33.1141 12.2882C33.171 12.1994 33.2528 12.1393 33.363 12.1263C34.4189 11.9957 35.4748 11.8677 36.5343 11.7449C36.7263 11.724 36.8614 11.6613 36.9467 11.5437C37.0107 11.4549 37.0889 11.4079 37.2098 11.3949C38.2657 11.2695 39.3217 11.1362 40.3812 11.0161C40.5838 10.9925 40.6833 10.9037 40.7829 10.7992C40.8184 10.7627 40.8469 10.7026 40.8896 10.6974C41.4157 10.6242 41.9384 10.5485 42.4681 10.4988C42.6885 10.4779 42.7632 10.3682 42.8521 10.2637C42.9232 10.1801 43.005 10.1514 43.1401 10.141C43.4352 10.1174 43.7267 10.0731 44.0147 10.0286C44.0573 10.0208 44.1107 9.96333 44.1142 9.92676C44.1214 9.85884 44.0396 9.81181 43.9045 9.7883C42.4966 9.9581 41.0851 10.1279 39.6772 10.2977C39.4461 10.3264 39.4461 10.3264 39.1333 10.5746C39.0977 10.6033 39.0479 10.6373 38.9981 10.6451C37.6471 10.8097 36.2997 10.9717 34.9487 11.1362C34.8349 11.1493 34.7531 11.2094 34.6962 11.2982C34.6394 11.387 34.5575 11.4471 34.4473 11.4602C33.1567 11.6169 31.8662 11.7763 30.5721 11.9252C30.3801 11.9461 30.245 12.0061 30.1597 12.1263C30.0957 12.2151 30.0175 12.2621 29.8966 12.2752C28.6629 12.4215 27.4327 12.5756 26.1955 12.7166C26.071 12.7297 25.9786 12.654 25.9858 12.5834C25.9893 12.5468 26.0426 12.4868 26.0852 12.4816C26.7287 12.3954 27.3688 12.3065 28.0158 12.2412C28.2327 12.2203 28.2966 12.1054 28.4068 12.0087C28.4424 11.9748 28.4709 11.9304 28.5171 11.9121C28.5669 11.8912 28.6308 11.8938 28.6913 11.8886C30.2165 11.7031 31.7418 11.515 33.2706 11.34C33.491 11.3139 33.5336 11.1859 33.6474 11.0944C33.6865 11.0631 33.7221 11.0161 33.7683 11.0109C34.2376 10.9482 34.7069 10.8933 35.1762 10.8384C35.9974 10.7392 36.8187 10.6399 37.6435 10.5406C37.8817 10.5119 37.8817 10.5119 38.1875 10.2663C38.223 10.2376 38.2729 10.2011 38.3191 10.1958C40.4914 9.93199 42.6637 9.66815 44.836 9.40692C44.9498 9.39386 45.0315 9.33378 45.0884 9.24496C45.1453 9.15875 45.227 9.09606 45.3372 9.08039C48.2739 8.72512 51.2071 8.36983 54.1437 8.01979C54.3357 7.99628 54.4708 7.94141 54.5561 7.81864C54.6166 7.72982 54.6983 7.68281 54.8192 7.66714C58.0474 7.27791 61.2757 6.88868 64.5074 6.49684C66.6797 6.23562 68.852 5.96916 71.0243 5.71316C71.2234 5.68965 71.33 5.60865 71.4296 5.50155C71.4616 5.46498 71.4936 5.40489 71.5363 5.39967C72.002 5.33436 72.4677 5.27429 72.9335 5.21421C73.0792 5.28474 73.225 5.35267 73.3708 5.4232C73.481 5.32394 73.5877 5.22205 73.6979 5.12278C74.4019 5.04703 75.0951 4.92948 75.8062 4.8929C75.8524 4.89029 75.9022 4.93993 75.9519 4.96605C76.2826 5.13063 76.471 5.11756 76.6808 4.89813C76.7554 4.81976 76.8194 4.74923 76.9332 4.73617C77.2852 4.68915 77.6408 4.6578 77.9892 4.60295C78.1776 4.57421 78.334 4.60033 78.4691 4.69437C78.5651 4.76229 78.6647 4.79104 78.782 4.77536C79.4291 4.697 80.0726 4.62123 80.7196 4.53764C80.7659 4.53241 80.8085 4.48799 80.844 4.45664C80.9187 4.38872 80.9827 4.3156 81.0538 4.24506C81.1498 4.28947 81.2565 4.32344 81.3347 4.38091C81.4343 4.44883 81.5267 4.44881 81.6618 4.43053C84.2429 4.11444 86.8276 3.8062 89.4088 3.4875C89.6292 3.46138 89.7252 3.5711 89.8746 3.62857C89.9243 3.64947 89.9741 3.67558 90.0274 3.6808C90.0843 3.68603 90.1447 3.67037 90.2016 3.66253C92.1393 3.42743 94.0769 3.19492 96.0146 2.95981C96.2706 2.92847 96.2706 2.92847 96.651 3.09043C96.6972 3.11133 96.7576 3.13484 96.8074 3.127C97.6891 3.02513 98.5708 2.91542 99.449 2.81093C99.5627 2.79787 99.6588 2.83966 99.7619 2.89974C99.9645 3.01729 99.9787 3.0173 100.128 2.84489C100.199 2.76391 100.274 2.71425 100.391 2.69074C100.519 2.66462 100.622 2.67249 100.722 2.71951C100.864 2.78481 100.967 2.89451 101.184 2.86578C102.123 2.743 103.065 2.64113 104 2.51574C104.213 2.48701 104.327 2.57582 104.469 2.64113C104.519 2.66464 104.565 2.70121 104.618 2.70905C104.672 2.71688 104.736 2.69858 104.793 2.69074C105.966 2.54968 107.143 2.41126 108.312 2.25974C108.533 2.23101 108.629 2.34331 108.778 2.40078C108.828 2.42168 108.885 2.45827 108.931 2.45305C109.635 2.37207 110.342 2.28584 111.046 2.19963C111.299 2.16829 111.299 2.1709 111.683 2.33025C111.729 2.35115 111.789 2.37205 111.839 2.36682C112.661 2.27017 113.485 2.1709 114.307 2.07164C114.559 2.04029 114.559 2.04029 115.288 2.17613C115.341 2.18658 115.398 2.20228 115.451 2.19705C116.39 2.08472 117.332 1.97499 118.271 1.85483C118.459 1.83132 118.616 1.85221 118.751 1.94625C118.847 2.01417 118.946 2.04292 119.064 2.02725C120.119 1.89925 121.179 1.77647 122.231 1.64064C122.434 1.61451 122.566 1.67196 122.708 1.74772C122.754 1.77384 122.8 1.81042 122.854 1.82087C122.907 1.83132 122.967 1.82086 123.024 1.81302C124.08 1.68502 125.14 1.56486 126.192 1.42641C126.405 1.39768 126.519 1.48649 126.661 1.5518C126.711 1.57531 126.764 1.62233 126.807 1.61972C127.219 1.57531 127.632 1.53614 128.041 1.47083C128.261 1.43426 128.357 1.5544 128.506 1.61187C128.556 1.63016 128.613 1.66936 128.659 1.66414C129.541 1.56226 130.423 1.45516 131.301 1.34545C131.425 1.32977 131.518 1.35326 131.617 1.42118C131.749 1.51261 131.902 1.54918 132.094 1.52045C132.503 1.46037 132.915 1.41858 133.327 1.36895C133.569 1.34021 133.569 1.34022 134.309 1.47606C134.362 1.48651 134.419 1.50217 134.472 1.49695C135.176 1.41336 135.884 1.33238 136.584 1.24095C136.773 1.21483 136.929 1.23833 137.064 1.33237C137.16 1.40029 137.256 1.42904 137.377 1.41337C138.024 1.335 138.668 1.25663 139.315 1.17826C139.549 1.14952 139.784 1.09988 140.019 1.09988C140.189 1.10249 140.314 1.22787 140.467 1.29057C140.509 1.30885 140.58 1.28798 140.637 1.28276C141.458 1.18349 142.283 1.09205 143.101 0.979723C143.314 0.950988 143.428 1.0398 143.57 1.10511C143.62 1.12862 143.673 1.17564 143.716 1.17303C144.011 1.14429 144.303 1.10511 144.598 1.07115C144.95 1.02935 145.305 0.998003 145.654 0.940533C145.938 0.893512 146.045 1.12077 146.272 1.12861C146.447 1.13645 146.624 1.09204 146.798 1.07115C147.15 1.02935 147.502 0.982334 147.854 0.945762C147.979 0.932701 148.075 0.890887 148.114 0.796845C148.121 0.778559 148.061 0.739391 148.022 0.715881C147.549 0.449429 147.549 0.449416 147.072 0.506886C146.777 0.543458 146.486 0.580036 146.191 0.611384C146.141 0.616608 146.084 0.595711 146.034 0.580038C145.892 0.535629 145.906 0.483389 146.027 0.389347C146.148 0.295305 146.24 0.180375 146.343 0.0732718C146.489 0.141191 146.631 0.209086 146.777 0.277005C146.895 0.263944 147.012 0.248293 147.129 0.235232C147.716 0.167312 148.302 0.0967759 148.889 0.0340814C148.932 0.0288568 148.985 0.0811099 149.035 0.107233C149.177 0.182989 149.305 0.248278 149.511 0.219543C150.037 0.143787 150.567 0.0889289 151.093 0.0236221C151.324 -0.00511295 151.324 -0.0051104 151.73 0.156851C151.776 0.175136 151.836 0.196036 151.886 0.190811C152.416 0.130729 152.942 0.0654299 153.472 0.00273535C153.586 -0.010326 153.696 0.0236323 153.778 0.0993882C153.81 0.130735 153.802 0.182971 153.938 0.611384C154.357 0.958816 154.645 0.922262 154.937 0.890915C155.061 0.877853 155.171 0.864779 155.253 0.812534C155.296 0.783799 155.349 0.741996 155.349 0.708036C155.349 0.681914 155.271 0.64011 155.221 0.634885C154.869 0.58264 154.535 0.69237 154.19 0.715881C154.03 0.72633 153.891 0.634899 153.863 0.486C153.856 0.444203 153.845 0.399797 153.834 0.358001C153.824 0.316204 153.817 0.271798 153.806 0.230002C153.667 0.21694 153.586 0.263954 153.525 0.352771C153.475 0.425915 153.404 0.509507 153.308 0.548692C153.212 0.590488 153.081 0.582665 152.963 0.595727C152.85 0.608788 152.725 0.642744 152.619 0.624458C152.512 0.603559 152.427 0.527791 152.327 0.48077C152.281 0.457259 152.224 0.423313 152.178 0.428537C151.769 0.472946 151.364 0.517338 150.958 0.574808C150.745 0.606155 150.638 0.496456 150.503 0.428537C150.397 0.376292 150.29 0.389336 150.272 0.509501C150.226 0.796851 150.389 0.917009 150.752 0.862152C151.051 0.815131 151.321 0.807318 151.556 0.984953C151.588 1.00846 151.662 1.01891 151.708 1.01368C152 0.982337 152.288 0.943149 152.579 0.911801C152.633 0.906577 152.69 0.917009 152.739 0.927458C153.465 1.06852 153.465 1.07115 153.71 1.0398C153.827 1.02413 153.941 1.01106 153.93 0.613998C154.154 0.188198 154.51 0.159468 154.855 0.0967734C155.079 0.0575893 155.175 0.172534 155.321 0.232617C155.37 0.253515 155.424 0.295304 155.47 0.290079C156.234 0.203874 156.995 0.112432 157.756 0.0157776C157.884 0.000103942 157.976 0.0157801 158.076 0.0836992C158.204 0.169904 158.346 0.224773 158.549 0.193426C158.954 0.130732 159.366 0.0915565 159.779 0.039311C159.989 0.0131883 159.989 0.0131615 160.412 0.175122C160.458 0.193408 160.518 0.214308 160.568 0.209083C160.981 0.164675 161.39 0.109833 161.798 0.0628125C161.912 0.0497512 162.015 0.0863192 162.104 0.156851C162.193 0.227382 162.3 0.26395 162.41 0.250889C162.822 0.203868 163.231 0.151639 163.64 0.104618C163.69 0.0993933 163.75 0.117678 163.796 0.135964C164.23 0.297925 164.23 0.297898 164.429 0.271775C164.721 0.232591 165.019 0.214326 165.307 0.16208C165.588 0.109835 165.734 0.261334 165.926 0.344927C166.452 0.284844 166.982 0.235224 167.505 0.16208C167.718 0.130733 167.832 0.21693 167.974 0.284849C168.024 0.30836 168.073 0.357998 168.12 0.355386C168.297 0.344937 168.472 0.316207 168.646 0.295309C168.82 0.27441 168.998 0.253515 169.172 0.232617C169.371 0.308373 169.503 0.486005 169.787 0.425922C169.958 0.389351 170.139 0.381514 170.313 0.360616C170.488 0.339717 170.665 0.318822 170.839 0.297924C170.957 0.284862 171.078 0.277014 171.191 0.253503C171.401 0.214319 171.504 0.342336 171.654 0.399806C171.703 0.418092 171.76 0.449419 171.807 0.444194C172.159 0.407622 172.514 0.376278 172.859 0.316195C173.126 0.269174 173.307 0.347553 173.495 0.457268C173.534 0.480779 173.602 0.493839 173.652 0.488614C174.064 0.444206 174.473 0.389333 174.882 0.342312C174.992 0.32925 175.099 0.371045 175.188 0.438965C175.28 0.509496 175.383 0.543481 175.497 0.53042C175.906 0.483399 176.318 0.431138 176.727 0.384117C176.777 0.378893 176.837 0.399795 176.884 0.420693C177.282 0.582654 177.282 0.585268 177.516 0.553921C177.573 0.546084 177.634 0.540839 177.691 0.533003C177.982 0.496431 178.284 0.483387 178.569 0.420693C178.896 0.350161 179.134 0.438982 179.365 0.587882C179.657 0.556535 179.955 0.538245 180.24 0.486C180.453 0.446815 180.567 0.546077 180.709 0.611384C180.759 0.634894 180.812 0.681915 180.855 0.67669C181.267 0.632282 181.68 0.593112 182.085 0.527805C182.305 0.491233 182.401 0.608764 182.551 0.668846C182.6 0.689744 182.654 0.726335 182.7 0.721111C182.935 0.700212 183.169 0.66885 183.404 0.640115C183.678 0.606155 183.678 0.608765 184.04 0.768114C184.211 0.84387 184.382 0.783785 184.549 0.765499C184.727 0.744601 184.894 0.728932 185.036 0.836035C185.125 0.903954 185.231 0.945752 185.342 0.935303C185.576 0.911792 185.814 0.888293 186.046 0.849109C186.23 0.817762 186.39 0.838649 186.525 0.935303C186.621 1.00322 186.721 1.0372 186.838 1.02153C187.365 0.958834 187.894 0.893503 188.42 0.83342C188.467 0.828196 188.531 0.851715 188.573 0.875226C188.673 0.922247 188.769 0.974481 188.865 1.02673C189.096 1.00322 189.334 0.992793 189.562 0.956222C189.803 0.91965 190.024 0.906585 190.212 1.05026C190.251 1.08161 190.308 1.12599 190.355 1.12338C190.532 1.11293 190.706 1.08681 190.881 1.06592C191.055 1.04502 191.233 1.02412 191.407 1.00322C191.61 1.06853 191.738 1.25661 192.022 1.19653C192.193 1.15996 192.374 1.15212 192.548 1.13122C192.722 1.11033 192.9 1.08682 193.074 1.06853C193.131 1.06331 193.195 1.05024 193.245 1.06069C193.298 1.07114 193.345 1.10772 193.391 1.13384C193.533 1.20959 193.665 1.28536 193.867 1.24095C194.038 1.20438 194.219 1.19654 194.393 1.17303C194.632 1.14429 194.632 1.1443 195.026 1.30887C195.186 1.37679 195.368 1.28798 195.52 1.34545C195.623 1.38463 195.712 1.44992 195.812 1.49433C195.855 1.51262 195.922 1.52044 195.972 1.51522C196.207 1.49171 196.445 1.46821 196.676 1.42903C196.864 1.39768 197.021 1.42902 197.152 1.52306C197.248 1.59098 197.344 1.61973 197.465 1.60406C198.052 1.53092 198.638 1.4682 199.222 1.38722C199.421 1.35849 199.581 1.40291 199.691 1.49695C199.879 1.65891 200.146 1.46822 200.341 1.59883C200.462 1.67981 200.583 1.77386 200.804 1.73467C201.209 1.66675 201.621 1.63016 202.03 1.58314C202.176 1.65367 202.322 1.72422 202.471 1.79475C202.706 1.76602 202.94 1.73726 203.175 1.71114C203.349 1.69024 203.527 1.66673 203.701 1.64845C203.758 1.64322 203.818 1.63277 203.872 1.64583C203.925 1.6589 203.968 1.69286 204.018 1.71898C204.263 1.84699 204.263 1.84961 204.668 1.79737C204.842 1.77386 205.01 1.75818 205.155 1.86267C205.29 1.95933 205.45 1.9776 205.635 1.94887C205.984 1.89662 206.336 1.85744 206.691 1.82087C206.801 1.80781 206.904 1.85222 206.997 1.92014C207.136 2.02724 207.306 2.01679 207.48 1.98806C207.712 1.95148 207.939 1.91492 208.135 2.06121C208.174 2.09256 208.234 2.13694 208.277 2.13433C208.568 2.11343 208.863 2.09777 209.148 2.04813C209.432 1.9985 209.571 2.16046 209.767 2.23882C210.058 2.20487 210.353 2.1709 210.645 2.13694C210.702 2.12911 210.769 2.10561 210.819 2.11867C211.029 2.17353 211.15 2.36944 211.437 2.30936C211.605 2.2754 211.786 2.26497 211.96 2.25713C212.006 2.25452 212.067 2.2989 212.099 2.33286C212.117 2.35115 212.099 2.40078 212.077 2.4269C212.013 2.50004 211.935 2.56798 211.878 2.64374C211.871 2.65419 211.939 2.70119 211.978 2.72209C212.074 2.76911 212.184 2.76129 212.312 2.74039C212.422 2.72211 212.536 2.75868 212.614 2.83705C212.646 2.86839 212.636 2.92063 212.568 3.09304C212.568 3.22104 212.643 3.16356 212.668 3.07997C212.707 2.9598 212.632 2.92062 212.49 2.98593C212.39 3.03295 212.341 3.10088 212.365 3.15574C212.38 3.18447 212.447 3.22104 212.568 3.09304C212.881 2.93631 213.116 2.90759 213.35 2.87885C213.411 2.87101 213.482 2.84487 213.524 2.86055C213.677 2.92324 213.82 2.99901 213.969 3.06954C214.14 3.05387 214.3 3.01467 214.467 3.11654C214.701 3.26022 214.712 3.24716 214.94 3.21843C215.057 3.20275 215.174 3.18972 215.291 3.17665C215.409 3.16359 215.501 3.20277 215.604 3.26285C215.814 3.38562 215.832 3.38561 215.971 3.21843C216.052 3.11655 216.109 3.0826 216.212 3.12962C216.554 3.28897 216.557 3.29941 216.849 3.25239C217.09 3.2132 217.318 3.20276 217.496 3.35166C217.617 3.45615 217.656 3.43264 217.752 3.32292C218.008 3.03296 218.125 3.03818 218.605 3.24716C218.829 3.34642 219.06 3.23933 219.288 3.22627C219.48 3.21582 219.615 3.27851 219.629 3.44308C219.64 3.54496 219.672 3.61811 219.8 3.65207C219.849 3.66514 219.91 3.68341 219.96 3.67819C220.255 3.64684 220.546 3.61026 220.841 3.57369C220.991 3.55541 221.072 3.43265 221.044 3.27069C221.012 3.09828 221.069 3.03556 221.282 2.98593C221.41 2.9572 221.513 2.96244 221.616 3.00946C221.73 3.06171 221.698 3.10873 221.599 3.20277C221.36 3.43265 221.389 3.57369 221.695 3.73304C221.801 3.7879 221.887 3.83755 221.911 3.91853C221.926 3.96033 221.911 4.01518 221.943 4.04653C222.118 4.22155 222.359 4.33389 222.63 4.41748C222.889 4.34695 223.067 4.46448 223.266 4.55852C223.422 4.63167 223.607 4.56899 223.774 4.54287C223.963 4.51413 224.119 4.53502 224.254 4.63168C224.35 4.6996 224.45 4.73093 224.567 4.71787C224.802 4.68913 225.04 4.67086 225.271 4.62906C225.47 4.59249 225.62 4.64474 225.744 4.73356C225.9 4.84589 226.075 4.77012 226.238 4.78579C226.459 4.80408 226.569 5.03656 226.857 4.97387C227.028 4.9373 227.205 4.92424 227.383 4.91379C227.429 4.91118 227.486 4.95559 227.525 4.98694C227.714 5.13062 227.934 5.12278 228.176 5.08098C228.343 5.05224 228.507 5.02613 228.67 5.1254C228.94 5.29259 229.239 5.43888 229.523 5.59301C229.562 5.71317 229.534 5.85421 229.737 5.92474C229.843 5.96131 229.943 6.01619 230.025 6.07627C230.124 6.1468 230.217 6.16509 230.345 6.14681C230.576 6.11024 230.818 6.10237 231.045 6.05535C231.255 6.01356 231.386 6.09979 231.514 6.18077C231.617 6.24608 231.713 6.27741 231.838 6.23039C231.966 6.18598 232.058 6.2147 232.161 6.28523C232.307 6.38189 232.318 6.37146 232.801 6.40019C232.851 6.4028 232.912 6.44197 232.94 6.47592C232.954 6.49421 232.922 6.54649 232.897 6.57261C232.865 6.60396 232.816 6.64051 232.769 6.64834C232.243 6.71626 231.713 6.77635 231.187 6.84426C231.134 6.8521 231.077 6.87041 231.038 6.89653C230.995 6.92526 230.942 6.96442 230.942 7.00099C230.942 7.02712 231.013 7.05847 231.063 7.07676C231.219 7.13684 231.404 7.04542 231.557 7.11334C231.66 7.15774 231.745 7.22043 231.848 7.26222C231.891 7.28051 231.959 7.27791 232.012 7.27268C232.19 7.25439 232.364 7.22828 232.542 7.2126C232.592 7.20999 232.648 7.23613 232.695 7.25702C233.036 7.41376 233.036 7.41375 233.331 7.37979C233.448 7.36673 233.573 7.32754 233.683 7.34322C233.79 7.35889 233.882 7.42942 233.978 7.47383C234.177 7.56787 234.366 7.6593 234.38 7.86306C234.387 7.94143 234.504 8.00933 234.622 8.01456C234.735 8.01978 234.856 7.99107 234.974 7.9754C235.251 7.94405 235.251 7.94405 235.61 8.1034C235.71 8.14781 235.816 8.15302 235.944 8.1269C235.994 8.11645 236.054 8.12691 236.108 8.13997C236.282 8.17916 236.282 8.22878 236.168 8.32282C236.008 8.46127 236.022 8.47434 236.47 8.59189C236.641 8.6363 236.773 8.7199 236.915 8.79304C237.146 8.91059 237.142 8.91057 236.99 9.0647C236.954 9.09866 236.922 9.13524 236.886 9.17181C236.783 9.27369 236.701 9.3834 236.488 9.39385C236.254 9.40429 236.019 9.44611 235.784 9.47484C235.557 9.50358 235.496 9.56625 235.518 9.74388C235.542 9.95809 235.589 9.9816 235.998 9.97899C236.115 9.97899 236.218 9.99988 236.307 10.0704C236.264 10.154 236.186 10.2193 236.072 10.235C235.781 10.2742 235.486 10.3081 235.194 10.3421C234.959 10.3708 234.725 10.3996 234.49 10.4283C234.344 10.4466 234.252 10.5824 234.291 10.7339C234.312 10.8201 234.33 10.9064 234.348 10.9926C234.387 11.165 234.462 11.2094 234.7 11.2016C234.76 11.1989 234.817 11.178 234.874 11.1832C235.105 11.2015 235.215 11.4183 235.493 11.3739C235.724 11.3374 235.966 11.3295 236.193 11.2825C236.403 11.2407 236.52 11.3348 236.666 11.4053C236.716 11.4288 236.769 11.4784 236.812 11.4758C237.107 11.4471 237.402 11.4184 237.69 11.3687C237.825 11.3478 237.907 11.3635 238.013 11.4262C238.269 11.5777 238.277 11.5699 238.657 11.5229C238.934 11.4863 238.938 11.4915 239.293 11.6509C239.393 11.6953 239.5 11.6953 239.628 11.6744C239.795 11.6482 239.969 11.6064 240.143 11.6456C240.196 11.6561 240.264 11.6874 240.282 11.7214C240.292 11.7449 240.243 11.8024 240.2 11.8207C239.887 11.9565 239.521 11.933 239.18 11.9878C239.073 12.0035 238.966 11.9539 238.877 11.8833C238.785 11.8128 238.685 11.7841 238.564 11.7972C238.33 11.8259 238.092 11.8442 237.861 11.886C237.661 11.9225 237.523 11.8624 237.384 11.7815C237.338 11.7553 237.285 11.7057 237.238 11.7083C236.712 11.7606 236.182 11.8128 235.66 11.886C235.45 11.9173 235.329 11.8337 235.187 11.7632C235.137 11.7397 235.087 11.69 235.041 11.6927C234.863 11.7031 234.689 11.7318 234.511 11.7527C233.864 11.8311 233.221 11.9095 232.574 11.9826C232.531 11.9878 232.478 11.933 232.428 11.9095C232.332 11.8624 232.232 11.818 232.133 11.7736C231.955 11.7945 231.781 11.8206 231.603 11.8363C231.475 11.8468 231.361 11.8834 231.344 11.9826C231.333 12.0479 231.45 12.108 231.575 12.1028C231.696 12.0975 231.817 12.0662 231.916 12.1002C232.41 12.2673 232.41 12.27 232.72 12.236C232.99 12.2047 232.961 12.1785 233.199 12.3222C233.303 12.3849 233.395 12.4215 233.512 12.4058C233.804 12.3692 234.099 12.3327 234.394 12.3013C234.44 12.2961 234.501 12.3222 234.547 12.3431C234.895 12.4998 234.895 12.5051 235.183 12.4659C235.56 12.4189 235.574 12.4058 235.827 12.5651C236.001 12.6749 236.161 12.5991 236.328 12.5939C236.52 12.6958 236.73 12.7872 236.904 12.9021C237.11 13.038 237.327 13.0144 237.562 12.9753C237.736 12.9465 237.907 12.9361 238.049 13.0432C238.184 13.1425 238.348 13.1529 238.532 13.1268C238.7 13.1033 238.87 13.0536 239.044 13.1111C239.091 13.1268 239.162 13.166 239.158 13.1895C239.155 13.2261 239.108 13.2783 239.062 13.294C238.735 13.4011 238.376 13.3985 238.031 13.4481C237.985 13.4559 237.925 13.4272 237.878 13.4063C237.779 13.3593 237.683 13.3044 237.587 13.2548C237.413 13.2705 237.235 13.2757 237.064 13.307C236.933 13.3305 236.833 13.3279 236.737 13.2653C236.648 13.2078 236.552 13.1372 236.446 13.1189C236.339 13.1007 236.214 13.1399 236.097 13.1555C235.98 13.1712 235.845 13.1633 235.752 13.2051C235.66 13.2469 235.603 13.3384 235.542 13.4115C235.475 13.4925 235.382 13.5186 235.247 13.5265C235.123 13.5343 235.023 13.5239 234.931 13.4507C234.892 13.4194 234.838 13.3958 234.785 13.3749C234.735 13.3567 234.679 13.3279 234.632 13.3331C234.103 13.3932 233.576 13.4586 233.047 13.5213C232.784 13.5526 232.787 13.5526 232.24 13.3984C232.19 13.3854 232.129 13.3671 232.08 13.3723C231.785 13.4037 231.493 13.4403 231.198 13.4768C230.899 13.5134 230.903 13.5082 230.394 13.3436C230.302 13.3123 230.167 13.3541 230.057 13.3488C229.826 13.3358 229.712 13.1163 229.442 13.1581C229.211 13.1947 228.969 13.2025 228.738 13.2496C228.528 13.2914 228.407 13.1999 228.265 13.1294C228.215 13.1059 228.162 13.0536 228.119 13.0589C227.589 13.1163 227.063 13.1816 226.359 13.1895C226.185 13.1895 226.263 13.2444 226.377 13.2626C226.54 13.2914 226.594 13.2365 226.505 13.132C226.441 13.0589 226.348 13.0223 226.274 13.0406C226.235 13.051 226.185 13.1007 226.359 13.1895C226.544 13.2888 226.533 13.3436 226.565 13.3749C226.644 13.4507 226.754 13.482 226.868 13.4716C227.045 13.4533 227.22 13.4272 227.397 13.4115C227.447 13.4063 227.507 13.4246 227.554 13.4455C227.945 13.6074 227.948 13.6179 228.364 13.5552C228.496 13.5369 228.592 13.5369 228.695 13.5866C228.837 13.6545 228.94 13.7694 229.157 13.7328C229.445 13.6832 229.74 13.6545 230.035 13.6257C230.082 13.6205 230.131 13.6675 230.185 13.6884C230.33 13.7511 230.437 13.8687 230.654 13.8191C230.821 13.7799 231.002 13.7694 231.18 13.7616C231.226 13.7589 231.297 13.8008 231.319 13.8347C231.361 13.8948 231.308 13.9653 231.187 14.015C231.137 14.0359 231.07 14.0306 231.013 14.0385C230.778 14.0672 230.544 14.0985 230.309 14.1221C230.185 14.1351 230.067 14.1743 230.053 14.271C230.042 14.3363 230.17 14.3937 230.291 14.3885C230.469 14.3807 230.647 14.3598 230.817 14.3258C231.12 14.2683 231.383 14.284 231.628 14.4486C231.802 14.5635 231.792 14.5218 231.976 14.8613C232.023 14.9476 232.161 14.9554 232.282 14.9502C232.574 14.9371 232.709 14.9763 232.684 15.0573C232.652 15.1565 232.549 15.1879 232.417 15.2009C232.183 15.2218 231.948 15.2558 231.713 15.2845C231.657 15.2924 231.593 15.308 231.539 15.3028C231.486 15.2976 231.436 15.2662 231.39 15.2427C231.29 15.1931 231.205 15.1173 231.098 15.099C230.992 15.0808 230.867 15.1199 230.75 15.1356C230.633 15.1487 230.508 15.1879 230.402 15.1696C230.295 15.1513 230.206 15.0729 230.11 15.0259C230.064 15.0024 230.007 14.9658 229.961 14.9684C229.726 14.9893 229.491 15.0233 229.257 15.0494C228.969 15.0834 228.969 15.0834 228.62 14.9214C228.521 14.8744 228.418 14.877 228.286 14.8979C228.002 14.9397 227.998 14.9319 227.479 14.7804C227.429 14.7647 227.369 14.7464 227.319 14.7542C226.789 14.8143 226.263 14.8796 225.737 14.9423C225.285 14.9972 225.285 14.9972 225.037 15.2584C224.852 15.4517 224.848 15.4517 225.029 15.5405C225.175 15.6137 225.307 15.7208 225.467 15.76C225.616 15.7965 225.801 15.679 225.965 15.7991C226.046 15.8592 226.153 15.9245 226.256 15.935C226.42 15.948 226.594 15.8723 226.75 15.9872C226.828 16.0447 226.946 16.1048 227.045 16.1074C227.22 16.1126 227.397 16.0708 227.572 16.0525C227.625 16.0473 227.685 16.0473 227.735 16.0604C227.788 16.076 227.835 16.1074 227.881 16.1335C228.023 16.2223 228.176 16.2641 228.361 16.2197C228.663 16.1466 228.933 16.1831 229.168 16.3503C229.2 16.3738 229.278 16.3765 229.328 16.366C229.456 16.3399 229.566 16.3373 229.662 16.3869C229.701 16.4078 229.758 16.4444 229.751 16.4679C229.74 16.5071 229.698 16.5593 229.651 16.5724C229.317 16.6612 228.958 16.6716 228.613 16.7187C228.567 16.7239 228.51 16.6899 228.464 16.6664C228.364 16.6194 228.279 16.541 228.172 16.5227C228.066 16.5045 227.941 16.5384 227.824 16.5515C227.707 16.5645 227.582 16.6037 227.476 16.5881C227.369 16.5698 227.269 16.5045 227.184 16.447C227.084 16.3817 226.988 16.3739 226.857 16.4C226.686 16.4339 226.508 16.4392 226.334 16.4574C226.238 16.4078 226.142 16.3529 226.043 16.3059C225.996 16.2824 225.94 16.2537 225.89 16.2563C225.655 16.2772 225.42 16.3085 225.186 16.3373C224.951 16.366 224.951 16.366 224.553 16.2041C224.507 16.1858 224.446 16.1649 224.397 16.1701C224.101 16.2014 223.81 16.2406 223.515 16.2719C223.401 16.285 223.298 16.2484 223.206 16.1779C223.117 16.1074 223.01 16.0682 222.9 16.0813C222.43 16.1361 221.961 16.1884 221.492 16.2537C221.303 16.2798 221.143 16.2563 221.015 16.1623C220.866 16.0552 220.699 16.0813 220.525 16.1022C220.13 16.1544 220.127 16.1518 219.874 16.0186C219.824 15.9924 219.775 15.9428 219.728 15.9454C219.32 15.9846 218.907 16.0212 218.502 16.0839C218.289 16.1178 218.175 16.0264 218.033 15.9585C217.983 15.935 217.93 15.8853 217.887 15.8906C217.592 15.9193 217.297 15.9454 217.009 15.9977C216.721 16.0499 216.61 15.807 216.394 15.8096C216.098 15.8122 215.807 15.8723 215.515 15.9089C215.281 15.9376 215.046 15.9663 214.811 15.9951C214.577 16.0238 214.342 16.0473 214.108 16.0813C213.983 16.0995 213.891 16.076 213.788 16.0107C213.656 15.9245 213.5 15.8566 213.357 15.7783C213.141 15.6659 213.141 15.6659 212.877 15.6973C212.821 15.7051 212.76 15.7103 212.703 15.7181C212.273 15.7756 212.273 15.7704 211.725 15.6058C211.701 15.598 211.637 15.6267 211.612 15.6476C211.537 15.7156 211.47 15.7887 211.402 15.8592C211.306 15.8174 211.189 15.7939 211.125 15.7338C210.943 15.564 210.659 15.7965 210.474 15.6293C210.406 15.5666 210.289 15.5118 210.182 15.4961C210.072 15.4804 209.948 15.517 209.834 15.5327C209.539 15.5719 209.539 15.5693 209.287 15.8018C209.159 15.9167 208.974 15.8958 208.807 15.9219C208.632 15.9506 208.465 15.9663 208.319 15.8592C208.188 15.7626 208.028 15.7391 207.84 15.7704C207.608 15.8096 207.37 15.8331 207.136 15.8566C207.086 15.8618 207.025 15.8488 206.976 15.8331C206.432 15.679 206.432 15.6764 206.169 15.7103C206.051 15.726 205.93 15.7312 205.817 15.7547C205.625 15.7965 205.479 15.7417 205.34 15.6581C205.294 15.6319 205.241 15.5823 205.194 15.585C204.96 15.598 204.729 15.6215 204.498 15.645C204.32 15.6633 204.142 15.6738 203.971 15.7103C203.687 15.7704 203.548 15.6006 203.353 15.5222C203.061 15.5562 202.766 15.5797 202.475 15.6267C202.339 15.6476 202.251 15.6398 202.148 15.5771C202.016 15.4987 201.895 15.4099 201.682 15.4491C201.397 15.5014 201.099 15.5196 200.807 15.551C200.612 15.47 200.469 15.3054 200.189 15.3655C200.018 15.4021 199.837 15.4099 199.662 15.4308C199.428 15.4595 199.193 15.4857 198.958 15.517C198.706 15.5484 198.71 15.5405 198.322 15.3864C198.098 15.295 197.867 15.3969 197.639 15.4125C197.462 15.4256 197.373 15.5458 197.415 15.6999C197.458 15.854 197.362 15.9742 197.198 15.9951C196.79 16.0447 196.377 16.0969 195.968 16.1413C195.919 16.1466 195.858 16.1283 195.812 16.11C195.375 15.9454 195.375 15.9481 195.179 15.9716C194.888 16.0107 194.589 16.0316 194.301 16.0813C194.102 16.1152 193.956 16.0604 193.828 15.9716C193.729 15.9036 193.636 15.888 193.508 15.9036C192.1 16.0787 190.692 16.2406 189.288 16.4209C189.078 16.447 188.957 16.3712 188.815 16.3007C188.765 16.2772 188.719 16.2276 188.669 16.2276C188.552 16.2276 188.435 16.2511 188.317 16.2668C187.791 16.3294 187.265 16.4052 186.735 16.4522C186.511 16.4731 186.451 16.5933 186.355 16.6926C186.28 16.7683 186.195 16.7996 186.063 16.8101C185.935 16.8205 185.843 16.8075 185.743 16.7396C185.615 16.6507 185.47 16.5959 185.271 16.6324C185.039 16.6742 184.805 16.6925 184.566 16.7213C184.446 16.7343 184.353 16.7814 184.314 16.8754C184.307 16.8911 184.382 16.9303 184.424 16.9538C184.567 17.0321 184.702 17.1236 184.862 17.1784C185.025 17.2333 185.203 17.1706 185.374 17.1549C185.434 17.1497 185.491 17.134 185.548 17.1366C185.601 17.1392 185.665 17.1523 185.704 17.1758C185.889 17.2934 186.085 17.3743 186.341 17.3038C186.561 17.3378 186.675 17.5546 186.956 17.4971C187.126 17.4632 187.304 17.4475 187.482 17.4344C187.528 17.4318 187.578 17.4788 187.628 17.5024C187.77 17.5677 187.884 17.6721 188.097 17.6277C188.324 17.5807 188.566 17.5729 188.797 17.5363C188.925 17.5154 189.018 17.5337 189.117 17.6016C189.245 17.6878 189.391 17.7531 189.59 17.7113C189.761 17.6747 189.942 17.6669 190.116 17.6434C190.344 17.6147 190.344 17.6173 190.749 17.7792C190.795 17.7975 190.856 17.8184 190.906 17.8132C191.201 17.7818 191.492 17.7427 191.787 17.7113C191.901 17.6983 192.011 17.7322 192.09 17.808C192.122 17.8393 192.111 17.8916 192.121 17.936C191.535 18.0065 190.948 18.0666 190.365 18.1528C190.145 18.1868 190.045 18.0797 189.899 18.0196C189.85 17.9987 189.796 17.9543 189.75 17.9595C189.338 18.0039 188.929 18.0509 188.52 18.1084C188.392 18.1267 188.296 18.1162 188.2 18.0405C187.955 17.8393 187.656 17.949 187.379 17.9778C187.165 17.9987 187.098 18.0797 187.123 18.2521C187.155 18.4558 187.283 18.5185 187.61 18.482C187.727 18.4689 187.844 18.4506 187.962 18.4401C188.076 18.4297 188.179 18.4637 188.271 18.5342C188.36 18.6047 188.467 18.6413 188.577 18.6308C188.812 18.6073 189.05 18.5838 189.277 18.5446C189.466 18.5133 189.622 18.5394 189.754 18.6361C189.899 18.7432 190.07 18.7197 190.241 18.6961C190.639 18.6439 190.643 18.6465 190.891 18.7771C190.941 18.8033 190.991 18.8529 191.037 18.8503C191.446 18.8111 191.858 18.7771 192.26 18.7145C192.47 18.6831 192.591 18.7667 192.73 18.8346C192.779 18.8581 192.829 18.9104 192.875 18.9051C193.17 18.8764 193.465 18.8477 193.753 18.798C193.889 18.7745 193.97 18.7902 194.08 18.8529C194.344 19.007 194.351 19.0018 194.724 18.9521C194.838 18.9365 194.962 18.9077 195.069 18.9286C195.176 18.9495 195.261 19.0253 195.36 19.0723C195.407 19.0932 195.463 19.1219 195.513 19.1167C195.748 19.0958 195.983 19.0645 196.217 19.0358C196.438 19.007 196.438 19.0096 196.85 19.1716C197.017 19.2395 197.191 19.182 197.359 19.1611C197.54 19.1376 197.703 19.1376 197.842 19.2395C197.981 19.3414 198.148 19.3362 198.326 19.3153C198.493 19.2944 198.663 19.2369 198.834 19.3074C199.225 19.4694 199.225 19.472 199.467 19.4406C199.819 19.3962 200.167 19.3544 200.523 19.3153C200.569 19.31 200.629 19.3414 200.676 19.3623C200.775 19.4093 200.86 19.4877 200.967 19.5059C201.074 19.5268 201.198 19.4955 201.312 19.4798C201.678 19.4302 201.703 19.4119 201.948 19.5843C202.155 19.7254 202.411 19.5216 202.603 19.6836C202.713 19.775 202.862 19.8482 203.068 19.8037C203.239 19.7672 203.417 19.7567 203.594 19.7358C203.875 19.7019 203.875 19.7045 204.231 19.8612C204.277 19.8821 204.338 19.9082 204.384 19.903C204.618 19.8821 204.857 19.8638 205.084 19.8168C205.351 19.762 205.521 19.8612 205.721 19.9579C205.877 20.0337 206.062 19.9709 206.229 19.9448C206.41 19.9187 206.574 19.9265 206.709 20.0284C206.851 20.1329 207.018 20.1198 207.196 20.0989C207.363 20.0806 207.534 20.0206 207.704 20.0937C208.071 20.2557 208.071 20.2557 208.337 20.2243C208.572 20.1956 208.807 20.1643 209.041 20.1434C209.087 20.1381 209.144 20.1721 209.191 20.1956C209.29 20.2426 209.375 20.321 209.482 20.3393C209.589 20.3576 209.713 20.3236 209.83 20.3105C209.948 20.2975 210.072 20.2583 210.179 20.274C210.286 20.2896 210.385 20.355 210.47 20.4124C210.57 20.4803 210.662 20.4882 210.798 20.462C210.968 20.4281 211.146 20.4203 211.32 20.402C211.416 20.4516 211.516 20.5012 211.608 20.5561C211.704 20.6136 211.807 20.6083 211.939 20.59C212.376 20.5273 212.38 20.5352 212.746 20.6972C212.913 20.7703 213.087 20.7102 213.254 20.6919C213.432 20.671 213.599 20.6606 213.738 20.7651C213.873 20.8643 214.04 20.8774 214.218 20.846C214.332 20.8251 214.452 20.8121 214.57 20.8043C214.623 20.8017 214.687 20.8121 214.726 20.833C214.915 20.9427 215.099 21.042 215.359 20.9715C215.587 20.9924 215.7 21.2066 215.974 21.1648C216.205 21.1282 216.447 21.1203 216.674 21.0733C216.884 21.0315 217.034 21.1047 217.14 21.1961C217.332 21.3581 217.602 21.1386 217.794 21.298C217.905 21.3894 218.047 21.4626 218.26 21.4234C218.495 21.3816 218.569 21.4364 218.637 21.601C218.676 21.695 218.669 21.7708 218.598 21.8439C218.527 21.9197 218.449 21.9067 218.335 21.8204C218.203 21.7238 218.047 21.7055 217.858 21.7264C217.674 21.7473 217.56 21.6115 217.407 21.5592C217.254 21.5044 217.073 21.5958 216.913 21.5253C216.536 21.3607 216.536 21.3607 216.28 21.392C216.106 21.4129 215.924 21.4234 215.754 21.46C215.551 21.5044 215.419 21.4234 215.281 21.3502C215.231 21.3241 215.181 21.2745 215.139 21.2771C214.73 21.3163 214.317 21.3528 213.912 21.4181C213.699 21.4521 213.585 21.3581 213.443 21.2928C213.393 21.2693 213.34 21.2222 213.297 21.2275C212.945 21.264 212.597 21.311 212.245 21.3555C212.177 21.426 212.102 21.4939 212.038 21.5696C211.971 21.648 211.878 21.682 211.743 21.6794C211.519 21.6794 211.299 21.7891 211.075 21.6506C210.844 21.5096 210.826 21.5174 210.602 21.5514C210.318 21.5958 210.015 21.5853 209.749 21.6872C209.703 21.7055 209.653 21.7551 209.653 21.7917C209.649 21.8152 209.724 21.8492 209.77 21.8701C209.927 21.9328 210.108 21.8413 210.264 21.9066C210.367 21.9484 210.453 22.0111 210.556 22.0555C210.598 22.0738 210.662 22.0712 210.719 22.0686C210.78 22.066 210.837 22.0477 210.894 22.0503C210.947 22.0529 211.004 22.0686 211.046 22.0921C211.242 22.1914 211.448 22.2828 211.622 22.4004C211.793 22.5153 211.953 22.4369 212.124 22.4317C212.806 22.6146 212.806 22.6172 213.265 22.5597C213.379 22.5466 213.496 22.531 213.613 22.5336C213.663 22.5336 213.709 22.5806 213.759 22.6067C213.901 22.6851 214.036 22.7556 214.236 22.7138C214.406 22.6773 214.588 22.6694 214.762 22.6459C214.996 22.6172 214.996 22.6172 215.395 22.7817C215.494 22.8235 215.601 22.8183 215.729 22.7974C215.839 22.7791 215.953 22.8183 216.031 22.8941C216.063 22.9254 216.052 22.9777 216.063 23.0221C215.711 23.0639 215.355 23.0926 215.014 23.1553C214.794 23.1945 214.694 23.0822 214.548 23.0221C214.499 23.0012 214.445 22.9568 214.399 22.962C214.051 23.0012 213.702 23.0456 213.354 23.0978C213.311 23.103 213.258 23.1631 213.254 23.1997C213.247 23.2676 213.336 23.3329 213.464 23.3303C213.635 23.3277 213.802 23.2833 213.955 23.3904C214.083 23.4844 214.243 23.5263 214.431 23.4845C214.545 23.461 214.666 23.4609 214.78 23.44C215.082 23.3773 215.355 23.3904 215.583 23.568C215.757 23.6151 215.928 23.5707 216.095 23.5472C216.219 23.5289 216.34 23.5106 216.429 23.5602C216.618 23.6647 216.802 23.7692 217.062 23.6987C217.343 23.7718 217.556 23.9259 217.791 24.0513C217.901 24.1114 217.986 24.1454 218.114 24.1062C218.168 24.0905 218.232 24.0905 218.289 24.0827C218.406 24.0696 218.53 24.0304 218.637 24.0461C218.744 24.0644 218.833 24.1401 218.929 24.1872C218.975 24.2107 219.028 24.2498 219.074 24.2472C219.252 24.2342 219.426 24.208 219.6 24.1872C219.775 24.1689 219.949 24.1506 220.123 24.1323C220.269 24.2002 220.418 24.2681 220.564 24.3361C220.799 24.3073 221.033 24.2786 221.264 24.2525C221.524 24.2211 221.524 24.2237 221.897 24.3857C222.064 24.4588 222.242 24.4118 222.402 24.3778C222.669 24.323 222.847 24.4223 223.035 24.5268C223.074 24.5477 223.145 24.5607 223.191 24.5503C223.376 24.5137 223.536 24.5424 223.671 24.6391C223.767 24.707 223.863 24.7384 223.981 24.7253C224.389 24.6757 224.798 24.6234 225.207 24.579C225.257 24.5738 225.314 24.5973 225.36 24.6182C225.723 24.7775 225.726 24.7854 225.993 24.7436C226.231 24.707 226.452 24.6913 226.64 24.835C226.679 24.8663 226.739 24.9108 226.782 24.9081C227.074 24.882 227.369 24.8533 227.657 24.8089C227.788 24.788 227.881 24.7958 227.984 24.8559C228.115 24.9317 228.233 25.0231 228.45 24.9891C229.051 24.8925 229.054 24.9081 229.765 25.0884C229.815 25.1014 229.882 25.0805 229.939 25.0701C230.06 25.044 230.149 25.0806 230.256 25.1406C230.494 25.2765 230.501 25.2686 230.729 25.2399C230.903 25.2164 231.084 25.2112 231.255 25.172C231.518 25.1145 231.692 25.2164 231.888 25.3131C232.044 25.3888 232.225 25.3261 232.392 25.3026C232.574 25.2765 232.737 25.2843 232.872 25.3836C232.965 25.4515 233.064 25.4881 233.182 25.475C233.591 25.428 233.999 25.3757 234.408 25.3287C234.458 25.3235 234.519 25.3444 234.565 25.3627C234.97 25.5246 234.97 25.5325 235.372 25.4724C235.5 25.4541 235.606 25.4489 235.702 25.5037C235.795 25.556 235.894 25.6056 235.99 25.6552C236.165 25.637 236.342 25.6317 236.513 25.6004C236.645 25.5769 236.737 25.5873 236.84 25.6422C236.975 25.7127 237.089 25.8355 237.302 25.7754C237.413 25.7467 237.541 25.7545 237.651 25.7284C237.782 25.6944 237.871 25.7153 237.974 25.7832C238.102 25.8642 238.234 25.9478 238.44 25.906C238.668 25.859 238.909 25.8512 239.14 25.8146C239.268 25.7937 239.357 25.8146 239.46 25.8825C239.588 25.9687 239.734 26.0236 239.933 25.9896C240.339 25.9243 240.342 25.9374 240.737 26.1019C240.836 26.1437 240.943 26.1385 241.071 26.1176C241.181 26.0993 241.295 26.1385 241.373 26.2143C241.448 26.2979 241.441 26.3501 241.448 26.3945ZM209.767 2.83443C209.649 2.84749 209.532 2.86316 209.361 2.6359C209.35 2.59671 209.358 2.5497 209.333 2.51574C209.276 2.44521 209.187 2.39558 209.08 2.38774C208.888 2.37729 208.657 2.46609 208.661 2.53401C208.664 2.59148 208.725 2.64111 208.842 2.68813C208.892 2.70641 208.931 2.73777 208.977 2.75866C209.112 2.81875 209.219 2.93632 209.415 2.87624C209.397 2.79526 209.379 2.71428 209.415 2.87624C209.397 2.9755 209.45 3.04604 209.578 3.07477C209.614 3.08261 209.667 3.07737 209.695 3.0617C209.806 3.00423 209.823 2.92588 209.742 2.71951C209.727 2.75347 209.738 2.81353 209.77 2.8292C209.802 2.84487 209.88 2.83183 209.919 2.81354C210.019 2.76391 210.069 2.6986 210.044 2.64374C210.03 2.615 209.962 2.57843 209.919 2.57843C209.845 2.57843 209.777 2.6359 209.767 2.83443ZM238.515 33.129C238.255 33.1786 237.957 33.1603 237.697 33.2622C237.651 33.2805 237.605 33.3275 237.601 33.3641C237.597 33.3876 237.669 33.4215 237.711 33.4398C237.807 33.4816 237.914 33.4686 238.038 33.4555C238.227 33.4372 238.337 33.5574 238.483 33.6175C238.529 33.6357 238.589 33.6488 238.639 33.6436C238.927 33.6122 239.212 33.5783 239.499 33.5417C239.549 33.5339 239.603 33.5156 239.645 33.4921C239.788 33.4163 239.773 33.3667 239.635 33.3092C239.482 33.2465 239.361 33.142 239.204 33.0924C238.98 33.0218 238.753 33.1159 238.515 33.129ZM218.324 35.0359C218.15 35.0568 217.979 35.0777 217.805 35.0986C217.748 35.1065 217.688 35.1091 217.634 35.1195C217.524 35.1378 217.442 35.1926 217.389 35.2789C217.471 35.3468 217.57 35.386 217.681 35.3781C217.855 35.3624 218.025 35.3285 218.2 35.3207C218.388 35.3102 218.498 35.4278 218.644 35.4878C218.69 35.5061 218.747 35.5087 218.801 35.5113C219.064 35.5218 219.224 35.386 219.174 35.1953C219.138 35.0464 219.003 34.9576 218.84 34.9759C218.669 34.9941 218.495 35.015 218.324 35.0359ZM239.731 29.268C239.773 29.2236 239.82 29.1923 239.841 29.1531C239.905 29.0199 239.88 28.9206 239.763 28.8161C239.62 28.6881 239.446 28.7743 239.286 28.7874C239.247 28.79 239.204 28.8448 239.183 28.8788C239.169 28.9023 239.169 28.9519 239.19 28.965C239.364 29.0695 239.549 29.1661 239.731 29.268ZM208.888 21.5514C208.718 21.5723 208.544 21.5879 208.373 21.6167C208.33 21.6245 208.291 21.6741 208.266 21.7081C208.22 21.7708 208.27 21.857 208.415 21.8648C208.583 21.8753 208.757 21.8309 208.931 21.81C209.151 21.7839 209.283 21.6872 209.201 21.6036C209.123 21.5226 209.016 21.507 208.888 21.5514ZM21.7407 15.9689C21.8544 15.9559 21.9717 15.9454 22.0855 15.9271C22.1922 15.9089 22.274 15.8514 22.3273 15.7652C22.2384 15.6973 22.1389 15.6607 22.0287 15.6685C21.8544 15.6842 21.6838 15.7051 21.5132 15.7312C21.4065 15.7469 21.3034 15.8044 21.2785 15.8932C21.2536 15.9611 21.4918 16.0003 21.7407 15.9689ZM193.853 15.5666C193.899 15.5902 193.945 15.6372 193.992 15.6372C194.105 15.6372 194.223 15.6215 194.329 15.5954C194.376 15.5849 194.411 15.5379 194.432 15.5013C194.447 15.4778 194.443 15.436 194.422 15.4151C194.319 15.2898 193.906 15.3342 193.839 15.4778C193.832 15.504 193.849 15.5379 193.853 15.5666ZM182.636 1.26184C182.647 1.30363 182.65 1.34542 182.664 1.38722C182.693 1.46559 182.771 1.52307 182.885 1.56225C182.974 1.49695 183.02 1.42382 183.016 1.34545C183.013 1.30365 183.002 1.26183 182.988 1.22003C182.959 1.14166 182.881 1.08421 182.768 1.04503C182.679 1.10772 182.636 1.18086 182.636 1.26184ZM247.947 35.4905C247.915 35.5244 247.883 35.5584 247.847 35.5897C247.943 35.6655 248.032 35.689 248.1 35.6472C248.142 35.6211 248.167 35.5819 248.199 35.5479C248.103 35.4722 248.018 35.4513 247.947 35.4905ZM245.736 35.8457C245.782 35.8692 245.824 35.9006 245.874 35.9163C245.956 35.9424 246.031 35.898 246.087 35.8039C246.041 35.7804 245.999 35.7491 245.949 35.7334C245.867 35.7073 245.792 35.7517 245.736 35.8457ZM247.136 35.3677C247.111 35.4304 247.161 35.4826 247.293 35.527C247.325 35.4931 247.367 35.4617 247.389 35.4252C247.424 35.3651 247.364 35.3102 247.236 35.2684C247.2 35.2998 247.168 35.3337 247.136 35.3677ZM239.631 32.5517C239.606 32.6143 239.656 32.6666 239.787 32.711C239.819 32.677 239.862 32.6457 239.883 32.6091C239.919 32.549 239.859 32.4942 239.731 32.4524C239.695 32.4837 239.663 32.5177 239.631 32.5517ZM229.406 14.0672C229.374 14.1012 229.342 14.1351 229.306 14.1665C229.402 14.2422 229.491 14.2657 229.559 14.2239C229.602 14.1978 229.626 14.1586 229.658 14.1247C229.562 14.0489 229.477 14.028 229.406 14.0672ZM219.611 4.26072C219.696 4.27901 219.768 4.24245 219.828 4.1458C219.782 4.12229 219.739 4.09093 219.689 4.07526C219.608 4.04914 219.533 4.09356 219.476 4.1876C219.522 4.21373 219.568 4.23721 219.611 4.26072ZM214.41 3.64684C214.378 3.6808 214.346 3.71476 214.31 3.74611C214.406 3.82187 214.495 3.84537 214.563 3.80357C214.605 3.77745 214.63 3.73827 214.662 3.70431C214.566 3.62855 214.481 3.61027 214.41 3.64684ZM179.138 1.25922C179.106 1.29318 179.074 1.32714 179.038 1.35849C179.134 1.43425 179.223 1.45775 179.29 1.41595C179.333 1.38983 179.358 1.35064 179.39 1.31668C179.294 1.24093 179.209 1.22265 179.138 1.25922ZM3.50904 22.5127C3.46282 22.4892 3.41664 22.4657 3.37398 22.4396C3.27088 22.5101 3.23889 22.5754 3.29577 22.625C3.33133 22.6564 3.38462 22.6747 3.43083 22.6982C3.53749 22.6276 3.56237 22.5649 3.50904 22.5127Z" fill="#FFE492"/>
</svg>
