<svg width="313" height="25" viewBox="0 0 313 25" fill="none" xmlns="http://www.w3.org/2000/svg">
<path d="M293.764 12.7512C293.336 12.7712 292.903 12.785 292.484 12.8151C292.211 12.8339 292.095 12.7788 291.913 12.75C291.852 12.7399 291.787 12.7199 291.731 12.7224C291.307 12.7424 290.883 12.765 290.459 12.7875C290.33 12.8364 290.247 12.9015 290.048 12.9254C289.854 12.9479 289.625 12.9479 289.408 12.9592C289.123 12.973 288.837 12.9868 288.552 12.9993C288.409 13.0056 288.292 13.0294 288.245 13.0745C288.236 13.082 288.331 13.1008 288.383 13.112C288.556 13.1496 288.725 13.1922 288.915 13.221C289.097 13.2486 289.322 13.2035 289.516 13.2386C289.953 13.3175 289.958 13.3163 290.291 13.3012C290.576 13.2875 290.862 13.2724 291.147 13.2624C291.203 13.2599 291.268 13.2787 291.329 13.2887C291.51 13.3163 291.627 13.3789 291.896 13.3551C292.099 13.3363 292.324 13.3326 292.536 13.3225C292.713 13.3589 292.877 13.4002 293.068 13.429C293.245 13.4566 293.297 13.4779 293.202 13.5143C293.115 13.5481 292.994 13.5619 292.834 13.5644C292.691 13.5656 292.549 13.5769 292.406 13.5832C292.332 13.5869 292.263 13.5894 292.194 13.5932C291.921 13.607 291.921 13.607 291.424 13.5268C291.229 13.4955 291.009 13.5393 290.823 13.5092C290.697 13.4892 290.589 13.4591 290.468 13.4378C290.416 13.4291 290.334 13.4278 290.269 13.4303C290.053 13.4391 289.836 13.4453 289.629 13.4616C289.482 13.4729 289.395 13.508 289.413 13.5431C289.417 13.5568 289.521 13.5769 289.581 13.5782C289.72 13.5807 289.867 13.5631 290.001 13.5719C290.131 13.5807 290.265 13.6057 290.36 13.6333C290.555 13.6909 290.775 13.6395 290.961 13.6546C291.156 13.6709 291.316 13.721 291.502 13.7511C291.549 13.7586 291.64 13.746 291.714 13.7423C291.926 13.7335 292.138 13.726 292.35 13.7172C292.527 13.7536 292.717 13.7861 292.877 13.8275C293.167 13.9027 293.479 13.9315 293.855 13.8951C294.067 13.8751 294.275 13.8826 294.443 13.9315C294.616 13.9816 294.815 13.9766 295.036 13.9666C295.239 13.9565 295.447 13.929 295.654 13.9641C296.104 14.0417 296.109 14.0455 296.641 14.0154C296.801 14.0067 296.922 14.0042 297.043 14.033C297.155 14.0593 297.277 14.0818 297.393 14.1069C297.605 14.0981 297.822 14.0894 298.034 14.0793C298.306 14.0656 298.457 14.0831 298.522 14.1533C298.561 14.1959 298.579 14.2347 298.674 14.2635C298.786 14.2986 298.907 14.2973 299.072 14.2873C299.227 14.2785 299.34 14.2648 299.405 14.2197C299.431 14.2009 299.483 14.1833 299.53 14.1683C299.569 14.157 299.63 14.1395 299.664 14.142C299.729 14.147 299.816 14.1608 299.837 14.1771C300.049 14.3287 300.049 14.3299 300.266 14.3738C300.504 14.4226 300.75 14.4665 300.966 14.5216C301.161 14.5705 301.356 14.5492 301.568 14.5492C301.728 14.5492 301.832 14.5818 301.819 14.6143C301.81 14.6331 301.749 14.6607 301.697 14.6632C301.274 14.6883 300.845 14.7096 300.417 14.7271C300.365 14.7296 300.3 14.7071 300.24 14.6958C300.119 14.6732 300.01 14.6381 299.881 14.6306C299.751 14.6231 299.599 14.6419 299.457 14.6482C299.314 14.6544 299.163 14.6707 299.033 14.6607C298.903 14.6507 298.799 14.6143 298.678 14.5905C298.622 14.5793 298.544 14.563 298.496 14.5667C298.181 14.5968 297.947 14.5555 297.722 14.5003C297.675 14.489 297.592 14.4815 297.532 14.484C297.03 14.5053 296.533 14.5304 296.031 14.5542C295.828 14.5642 295.663 14.5204 295.62 14.4464C295.598 14.4051 295.555 14.3637 295.555 14.3224C295.555 14.2472 295.317 14.2059 295.144 14.2146C294.859 14.2272 294.569 14.2372 294.288 14.256C294.058 14.271 293.864 14.256 293.708 14.2109C293.526 14.1595 293.319 14.1695 293.111 14.1833C292.955 14.1933 292.912 14.2347 292.921 14.3387C292.929 14.4226 292.856 14.4489 292.575 14.4627C292.22 14.4803 291.861 14.4978 291.502 14.5116C291.446 14.5141 291.381 14.4928 291.324 14.4815C291.203 14.459 291.095 14.4226 290.965 14.4151C290.836 14.4063 290.684 14.4251 290.542 14.4327C290.399 14.4389 290.247 14.4565 290.118 14.4477C289.988 14.4389 289.88 14.4013 289.763 14.3775C289.707 14.3663 289.637 14.35 289.581 14.3525C289.296 14.3625 289.01 14.3775 288.725 14.3913C288.405 14.4064 288.405 14.4064 287.95 14.3287C287.743 14.2936 287.535 14.3212 287.332 14.3312C287.116 14.3412 286.912 14.3462 286.744 14.2961C286.631 14.2635 286.506 14.2435 286.372 14.2497C286.013 14.2648 285.658 14.2836 285.299 14.2986C285.238 14.3011 285.156 14.2948 285.109 14.2836C284.879 14.2309 284.654 14.1896 284.334 14.2159C284.057 14.2385 283.759 14.2397 283.482 14.261C283.331 14.2723 283.261 14.3124 283.292 14.3437C283.309 14.36 283.4 14.3788 283.46 14.3788C283.599 14.38 283.75 14.3612 283.88 14.3688C284.148 14.3838 284.282 14.489 284.633 14.4602C284.84 14.4427 285.057 14.4364 285.273 14.4314C285.329 14.4302 285.39 14.454 285.45 14.4665C285.623 14.5003 285.775 14.5442 286.026 14.5216C286.233 14.5041 286.454 14.4991 286.666 14.4891C287.003 14.4728 287.003 14.474 287.44 14.5504C287.648 14.5868 287.855 14.558 288.059 14.5492C288.21 14.5429 288.353 14.5304 288.474 14.5479C288.66 14.5742 288.794 14.6344 289.023 14.6306C289.239 14.6269 289.451 14.6093 289.668 14.6031C289.802 14.5993 289.927 14.6194 290.035 14.6532C290.148 14.687 290.269 14.702 290.416 14.6945C290.628 14.6845 290.844 14.672 291.061 14.6657C291.121 14.6645 291.19 14.6757 291.247 14.6858C291.368 14.7083 291.484 14.7346 291.601 14.7584C291.813 14.7509 292.03 14.7484 292.237 14.7334C292.397 14.7221 292.51 14.7271 292.64 14.7522C292.804 14.786 292.938 14.8461 293.206 14.8173C293.34 14.8035 293.496 14.8073 293.63 14.7948C293.794 14.7785 293.907 14.7847 294.024 14.8223C294.244 14.8937 294.521 14.895 294.807 14.8674C295.118 14.8374 295.352 14.8725 295.585 14.9276C295.832 14.9852 295.832 14.984 296.022 15.123C296.078 15.1631 296.238 15.1819 296.373 15.1744C296.597 15.1619 296.792 15.1681 296.957 15.2158C297.13 15.2671 297.337 15.2609 297.549 15.2471C297.83 15.2283 298.111 15.212 298.341 15.2847C298.453 15.3198 298.574 15.3285 298.726 15.3197C299.154 15.2972 299.587 15.2834 300.006 15.2559C300.261 15.2383 300.408 15.2784 300.581 15.3122C300.815 15.3586 301.07 15.3999 301.07 15.4989C301.07 15.5152 301.131 15.534 301.183 15.5465C301.295 15.5728 301.416 15.5954 301.533 15.6205C301.706 15.658 301.875 15.6894 302.113 15.6693C302.32 15.653 302.541 15.648 302.753 15.6367C302.965 15.6255 303.16 15.6192 303.35 15.6668C303.57 15.7207 303.804 15.7721 304.055 15.8122C304.232 15.841 304.466 15.7921 304.656 15.831C304.773 15.8548 304.885 15.8823 305.011 15.9024C305.063 15.9111 305.145 15.9049 305.214 15.9024C305.357 15.8974 305.504 15.8936 305.642 15.8811C305.803 15.8673 305.924 15.8698 306.045 15.8986C306.157 15.9249 306.27 15.9613 306.399 15.9688C306.594 15.9801 306.81 15.9299 307.005 15.9876C307.104 16.0164 307.23 16.044 307.36 16.0527C307.49 16.0615 307.641 16.0427 307.779 16.044C307.84 16.044 307.913 16.064 307.948 16.0803C307.97 16.0891 307.939 16.1129 307.909 16.1254C307.87 16.1404 307.814 16.1605 307.758 16.163C307.329 16.1855 306.901 16.2043 306.473 16.2256C306.218 16.2382 306.218 16.2382 305.703 16.1592C305.582 16.1404 305.448 16.1442 305.296 16.153C305.093 16.1642 304.885 16.1855 304.674 16.163C304.397 16.0778 304.055 16.0703 303.692 16.1028C303.54 16.1166 303.402 16.1166 303.289 16.0928C303.051 16.0452 302.8 16.0014 302.589 15.945C302.424 15.9011 302.346 15.8974 302.277 15.9575C302.255 15.9763 302.234 15.9963 302.238 16.0139C302.264 16.0765 302.312 16.1379 302.338 16.2006C302.346 16.2181 302.312 16.2382 302.29 16.257C302.221 16.3096 302.13 16.3058 301.979 16.262C301.827 16.2181 301.646 16.1893 301.403 16.2094C301.196 16.2269 300.971 16.2244 300.763 16.2432C300.443 16.2707 300.218 16.2307 299.989 16.1768C299.941 16.1655 299.859 16.1592 299.798 16.1617C299.154 16.1906 298.514 16.2231 297.869 16.2519C297.731 16.2582 297.605 16.2394 297.497 16.2056C297.385 16.1718 297.259 16.1542 297.121 16.1605C296.55 16.1868 295.979 16.2106 295.408 16.2432C295.174 16.257 294.988 16.2407 294.828 16.1968C294.707 16.1642 294.595 16.1542 294.443 16.158C294.279 16.1617 294.162 16.1743 294.08 16.2106C294.002 16.2457 294.058 16.267 294.231 16.2945C294.417 16.3246 294.59 16.3635 294.768 16.3985C294.91 16.3935 295.053 16.3835 295.192 16.3848C295.252 16.3848 295.308 16.4073 295.369 16.4198C295.542 16.4562 295.702 16.4925 295.949 16.4725C296.156 16.4549 296.377 16.4512 296.589 16.4399C296.883 16.4261 296.883 16.4261 297.359 16.505C297.48 16.5251 297.61 16.5238 297.765 16.5126C297.899 16.5038 298.038 16.5213 298.133 16.5589C298.172 16.574 298.159 16.599 298.077 16.6817C298.077 16.7431 298.168 16.7155 298.198 16.6754C298.246 16.6178 298.155 16.599 297.982 16.6303C297.861 16.6529 297.8 16.6855 297.83 16.7118C297.848 16.7256 297.93 16.7431 298.077 16.6817C298.458 16.6065 298.747 16.5978 299.024 16.5777C299.189 16.5664 299.292 16.5714 299.422 16.604C299.578 16.6429 299.734 16.6842 299.989 16.6642C300.266 16.6416 300.56 16.6391 300.841 16.6203C301.1 16.6028 301.235 16.6579 301.399 16.6905C301.598 16.7293 301.819 16.6855 302 16.708C302.191 16.7306 302.325 16.7857 302.545 16.7957C302.865 16.7619 303.069 16.8246 303.311 16.8659C303.501 16.8972 303.726 16.8696 303.929 16.8559C304.159 16.8408 304.349 16.8546 304.509 16.8997C304.691 16.9511 304.894 16.9398 305.102 16.9285C305.586 16.9035 305.603 16.8997 305.885 16.9686C306.088 17.0188 306.283 16.9962 306.486 16.9899C306.663 17.0238 306.836 17.0601 307.022 17.0902C307.07 17.0977 307.161 17.0852 307.234 17.0814C307.446 17.0714 307.663 17.0614 307.874 17.0513C308.017 17.0451 308.169 17.0263 308.298 17.0338C308.428 17.0426 308.536 17.0789 308.653 17.1027C308.77 17.1265 308.891 17.1503 309.004 17.1754C309.177 17.213 309.341 17.2443 309.583 17.2255C309.791 17.2092 310.007 17.2042 310.223 17.1929C310.496 17.1791 310.487 17.1829 310.993 17.2581C311.266 17.2994 311.547 17.2493 311.824 17.2443C311.962 17.2418 312.096 17.2556 312.191 17.2919C312.23 17.3069 312.217 17.332 312.23 17.3533C311.517 17.3871 310.799 17.4159 310.093 17.4573C309.821 17.4736 309.678 17.4285 309.531 17.3909C309.289 17.3307 308.969 17.4184 308.74 17.3408C308.601 17.2944 308.402 17.2681 308.164 17.2907C308.026 17.3032 307.879 17.3019 307.736 17.3132C307.373 17.3408 307.04 17.342 306.75 17.2556C306.65 17.2255 306.508 17.2092 306.404 17.1804C306.283 17.1491 306.166 17.1315 306.023 17.1378C305.379 17.1679 304.738 17.1979 304.098 17.2305C304.042 17.233 303.986 17.2518 303.938 17.2656C303.817 17.3007 303.856 17.3282 304.051 17.3508C304.115 17.3583 304.167 17.3746 304.228 17.3871C304.345 17.4109 304.453 17.4485 304.583 17.4573C304.712 17.4661 304.864 17.4485 305.007 17.4423C305.149 17.436 305.301 17.4172 305.431 17.4247C305.56 17.4335 305.668 17.4698 305.789 17.4924C305.846 17.5037 305.915 17.5224 305.971 17.5212C306.257 17.5137 306.538 17.4999 306.823 17.4886C307.001 17.5224 307.152 17.5713 307.364 17.5826C307.498 17.5901 307.641 17.5763 307.779 17.5788C307.84 17.5801 307.918 17.5989 307.948 17.6152C307.965 17.6252 307.909 17.6502 307.866 17.6628C307.701 17.7104 307.477 17.7016 307.273 17.7166C307.053 17.7329 306.854 17.7279 306.685 17.6791C306.572 17.6465 306.447 17.6289 306.309 17.6352C305.949 17.6515 305.595 17.6703 305.236 17.6841C305.175 17.6866 305.102 17.6753 305.045 17.6665C304.591 17.5901 304.591 17.5876 304.271 17.6039C303.8 17.6277 303.8 17.6277 303.484 17.5613C303.423 17.5487 303.358 17.525 303.307 17.5262C302.805 17.5463 302.307 17.5663 301.81 17.5951C301.646 17.6039 301.533 17.6039 301.412 17.5713C301.308 17.5437 301.187 17.5124 301.057 17.5049C300.923 17.4974 300.776 17.5162 300.633 17.5224C300.491 17.5287 300.339 17.545 300.214 17.535C300.084 17.5249 299.971 17.4899 299.859 17.4648C299.742 17.4385 299.617 17.4397 299.457 17.4498C298.964 17.4786 298.959 17.4748 298.47 17.3971C298.414 17.3884 298.341 17.3784 298.28 17.3809C297.921 17.3959 297.566 17.4147 297.207 17.4297C297.069 17.436 296.935 17.4197 296.84 17.3834C296.801 17.3683 296.814 17.3433 296.788 17.2944C296.758 17.2831 296.792 17.3032 296.801 17.322C296.866 17.3195 296.944 17.322 296.991 17.3119C297.112 17.2881 297.173 17.2568 297.142 17.2305C297.125 17.2167 297.043 17.1992 296.991 17.1992C296.896 17.1992 296.814 17.2267 296.788 17.2944C296.515 17.3357 296.225 17.3445 295.944 17.3646C295.78 17.3771 295.676 17.3708 295.546 17.3383C295.391 17.2982 295.231 17.2593 294.975 17.2794C294.698 17.3019 294.404 17.3057 294.119 17.3232C293.79 17.3433 293.647 17.2305 293.371 17.233C293.085 17.2355 292.8 17.2568 292.514 17.2719C292.263 17.2844 292.263 17.2844 291.744 17.2029C291.554 17.1729 291.329 17.2167 291.143 17.1854C291.017 17.1653 290.909 17.1353 290.788 17.114C290.736 17.1052 290.654 17.1052 290.589 17.1077C290.23 17.1227 289.867 17.1328 289.521 17.1603C289.127 17.1929 288.829 17.1578 288.547 17.0839C288.193 17.0977 287.834 17.1052 287.483 17.129C287.228 17.1466 287.081 17.1052 286.908 17.0714C286.847 17.0601 286.796 17.0413 286.731 17.0363C286.666 17.0313 286.588 17.0413 286.519 17.0451C286.233 17.0588 285.939 17.0651 285.662 17.0877C285.32 17.1165 285.191 17.0137 284.927 17.0012C284.749 17.0626 284.654 17.1465 284.304 17.1528C284.018 17.1578 283.733 17.1779 283.447 17.1917C283.305 17.1979 283.162 17.2055 283.019 17.2117C282.79 17.223 282.682 17.2719 282.729 17.347C282.755 17.3884 282.777 17.4297 282.799 17.4711C282.842 17.545 282.734 17.6076 282.552 17.6164C282.05 17.6402 281.553 17.6653 281.051 17.6866C280.917 17.6928 280.787 17.6715 280.679 17.6377C280.567 17.6039 280.441 17.5888 280.303 17.5951C279.801 17.6189 279.304 17.644 278.802 17.6653C278.745 17.6678 278.672 17.6553 278.616 17.6452C278.495 17.6227 278.378 17.5964 278.261 17.5726C277.976 17.5838 277.694 17.5913 277.413 17.6064C276.959 17.6289 276.959 17.6302 276.626 17.5613C276.565 17.5487 276.505 17.525 276.449 17.5262C276.232 17.5312 276.02 17.5437 275.804 17.555C275.168 17.5876 275.168 17.5876 274.982 17.55C274.813 17.5149 274.662 17.4723 274.407 17.4924C274.13 17.5149 273.836 17.5224 273.55 17.535C273.338 17.5437 273.126 17.5538 272.914 17.5563C272.858 17.5575 272.798 17.5337 272.737 17.5212C272.564 17.4823 272.395 17.451 272.157 17.4723C272.019 17.4849 271.872 17.4874 271.729 17.4936C271.357 17.5112 271.357 17.5112 270.747 17.436C270.687 17.4285 270.613 17.4197 270.553 17.4235C270.051 17.446 269.553 17.4711 269.052 17.4924C268.991 17.4949 268.918 17.4874 268.857 17.4811C268.174 17.4084 268.174 17.4084 267.447 17.4435C267.17 17.456 267.161 17.461 266.872 17.3946C266.742 17.3658 266.634 17.352 266.482 17.3608C265.911 17.3909 265.336 17.4109 264.769 17.446C264.514 17.4611 264.367 17.4235 264.194 17.3896C264.133 17.3783 264.069 17.3533 264.017 17.3546C263.446 17.3784 262.875 17.4072 262.304 17.431C262.252 17.4335 262.187 17.4084 262.126 17.3971C262.009 17.3746 261.897 17.3408 261.767 17.3332C261.633 17.3257 261.486 17.3445 261.339 17.3508C260.98 17.3671 260.98 17.3658 260.565 17.2919C260.508 17.2819 260.435 17.2681 260.379 17.2706C259.808 17.2957 259.232 17.317 258.666 17.3533C258.341 17.3733 258.121 17.337 257.891 17.2844C257.844 17.2731 257.762 17.2681 257.701 17.2706C257.057 17.2994 256.416 17.332 255.772 17.3608C255.638 17.3671 255.508 17.3458 255.4 17.3132C255.227 17.2618 255.024 17.2681 254.807 17.2794C254.31 17.3057 254.305 17.3044 254.011 17.2443C253.951 17.2318 253.899 17.2155 253.834 17.2092C253.773 17.2029 253.696 17.2067 253.631 17.2092C253.345 17.2217 253.06 17.2355 252.774 17.2493C252.489 17.2631 252.199 17.2706 251.918 17.2919C251.572 17.3182 251.407 17.2368 251.165 17.1992C250.81 17.2155 250.447 17.2255 250.097 17.2518C249.828 17.2719 249.703 17.2167 249.526 17.1879C249.465 17.1779 249.4 17.1566 249.344 17.1591C248.699 17.1867 248.055 17.2167 247.415 17.2505C247.259 17.2581 247.155 17.248 247.025 17.218C246.736 17.1503 246.723 17.1528 246.238 17.1779C246.026 17.1892 245.823 17.1992 245.641 17.1478C245.481 17.1015 245.287 17.0902 245.057 17.1052C244.776 17.124 244.486 17.134 244.201 17.1466C243.915 17.1603 243.63 17.1791 243.344 17.1854C243.115 17.1917 242.977 17.1328 242.795 17.1027C242.739 17.0939 242.661 17.0927 242.596 17.0952C242.31 17.1065 242.016 17.1152 241.74 17.1365C241.402 17.1628 241.216 17.0939 240.978 17.0538C240.926 17.0451 240.84 17.0501 240.775 17.0538C240.273 17.0764 239.776 17.1014 239.274 17.1253C239.096 17.0914 238.915 17.0589 238.737 17.025C238.452 17.0376 238.166 17.0513 237.881 17.0639C237.665 17.0739 237.444 17.0776 237.241 17.0964C236.977 17.1215 236.847 17.0626 236.67 17.0338C236.609 17.0238 236.544 17.0025 236.488 17.005C236.129 17.0188 235.77 17.0338 235.415 17.0551C235.078 17.0764 234.944 16.9636 234.667 16.9649C234.382 16.9661 234.087 16.9824 233.811 17.005C233.49 17.0313 233.265 16.9912 233.036 16.9373C232.989 16.926 232.906 16.9198 232.846 16.9223C232.487 16.9373 232.132 16.9561 231.773 16.9711C231.713 16.9736 231.639 16.9674 231.579 16.9599C230.895 16.8859 230.895 16.8847 230.597 16.8997C230.385 16.9098 230.168 16.9223 229.952 16.9285C229.892 16.9311 229.818 16.9198 229.762 16.9097C229.312 16.8333 229.312 16.8321 228.987 16.8471C228.702 16.8609 228.416 16.8747 228.131 16.8884C227.954 16.8546 227.772 16.822 227.595 16.7882C227.24 16.8045 226.876 16.817 226.526 16.8396C226.362 16.8496 226.254 16.8458 226.128 16.8145C225.972 16.7769 225.817 16.7331 225.557 16.7544C225.28 16.7769 224.986 16.7794 224.705 16.7982C224.368 16.8208 224.229 16.7068 223.957 16.708C223.671 16.7093 223.377 16.7256 223.1 16.7481C222.78 16.7744 222.555 16.7343 222.326 16.6805C222.278 16.6692 222.196 16.6629 222.136 16.6654C221.348 16.7018 220.565 16.7381 219.778 16.7769C219.294 16.8007 219.294 16.802 218.372 16.7331C218.307 16.7281 218.238 16.7231 218.173 16.7256C217.888 16.7368 217.594 16.7456 217.317 16.7669C216.979 16.7932 216.793 16.7256 216.555 16.6842C216.504 16.6754 216.421 16.6805 216.352 16.683C216.136 16.6917 215.924 16.703 215.708 16.713C215.422 16.7268 215.137 16.7406 214.851 16.7544C214.674 16.7218 214.492 16.688 214.315 16.6554C213.96 16.6717 213.597 16.6805 213.246 16.7068C212.978 16.7268 212.853 16.6742 212.675 16.6441C212.615 16.6341 212.55 16.6128 212.494 16.6141C211.849 16.6416 211.205 16.6704 210.564 16.7055C210.301 16.7206 210.179 16.6642 210.002 16.6353C209.942 16.6266 209.872 16.6103 209.816 16.6128C209.388 16.6303 208.96 16.6516 208.531 16.6729C208.289 16.6855 208.289 16.6855 207.761 16.6078C207.701 16.599 207.632 16.5902 207.571 16.5927C206.213 16.6554 204.859 16.7218 203.501 16.7845C203.362 16.7907 203.237 16.7719 203.129 16.7381C203.016 16.7043 202.891 16.6867 202.752 16.693C202.181 16.7193 201.606 16.7431 201.039 16.7757C200.806 16.7895 200.62 16.7732 200.46 16.7293C200.339 16.6967 200.226 16.6842 200.075 16.6917C199.789 16.7068 199.504 16.7193 199.218 16.7331C198.933 16.7469 198.647 16.7607 198.362 16.7744C198.076 16.7882 197.786 16.7957 197.505 16.817C197.159 16.8433 196.991 16.7657 196.753 16.7268C196.324 16.7456 195.896 16.7644 195.472 16.7845C194.901 16.8108 194.33 16.8396 193.759 16.8646C193.707 16.8672 193.642 16.8446 193.582 16.8333C193.405 16.802 193.275 16.7581 193.011 16.7719C191.731 16.8383 190.441 16.8947 189.157 16.9599C188.889 16.9737 188.772 16.9198 188.59 16.891C188.53 16.8822 188.46 16.8646 188.404 16.8672C187.69 16.8985 186.977 16.9336 186.263 16.9674C185.973 16.9812 185.973 16.9812 185.489 16.9035C185.432 16.8947 185.359 16.8834 185.298 16.8859C184.368 16.9285 183.443 16.9736 182.513 17.0175C182.374 17.0238 182.249 17.0062 182.136 16.9724C182.028 16.9386 181.898 16.9198 181.764 16.926C180.908 16.9661 180.047 17.005 179.195 17.0488C178.966 17.0614 178.775 17.0501 178.611 17.005C178.494 16.9724 178.377 16.9586 178.23 16.9661C176.945 17.0275 175.661 17.0864 174.376 17.1516C174.129 17.1641 173.956 17.1403 173.801 17.0989C173.675 17.0664 173.567 17.0601 173.411 17.0651C173.247 17.0714 173.148 17.0852 173.057 17.1227C172.94 17.1716 172.866 17.233 172.589 17.2368C172.304 17.2405 172.014 17.2556 171.733 17.2769C171.465 17.2982 171.339 17.2418 171.171 17.208C171.045 17.1841 170.928 17.1804 170.768 17.1917C170.621 17.2017 170.53 17.223 170.444 17.2631C170.254 17.3483 170.236 17.3483 170.003 17.2944C169.877 17.2656 169.765 17.243 169.626 17.248C169.055 17.2731 168.484 17.3007 167.913 17.3295C167.585 17.3458 167.58 17.3483 167.334 17.2856C167.213 17.2543 167.096 17.2393 166.953 17.2468C165.383 17.322 163.813 17.3946 162.243 17.4736C162 17.4861 161.836 17.4598 161.663 17.4222C161.607 17.4097 161.55 17.3921 161.486 17.3871C161.421 17.3821 161.347 17.3871 161.278 17.3896C160.136 17.4435 158.99 17.4949 157.852 17.555C157.592 17.5688 157.454 17.5287 157.277 17.4961C157.216 17.4849 157.164 17.4673 157.099 17.4623C157.034 17.4585 156.957 17.4673 156.887 17.4711C155.745 17.5249 154.599 17.5763 153.461 17.6365C153.189 17.6503 153.072 17.5976 152.895 17.5701C152.834 17.56 152.769 17.5412 152.713 17.5437C152.354 17.5575 151.999 17.5763 151.64 17.5926C150.784 17.6339 149.927 17.6728 149.071 17.7154C148.742 17.7317 148.599 17.6202 148.322 17.6252C147.963 17.6314 147.609 17.6565 147.25 17.674C146.964 17.6878 146.679 17.7004 146.393 17.7154C146.112 17.7292 146.112 17.7292 145.411 17.6565C145.351 17.6502 145.277 17.6415 145.217 17.644C144.217 17.6903 143.214 17.7367 142.219 17.7868C141.99 17.7981 141.799 17.7918 141.635 17.7455C141.518 17.7129 141.397 17.6966 141.254 17.7041C139.753 17.7755 138.257 17.847 136.756 17.9171C136.699 17.9196 136.626 17.9071 136.57 17.8971C136.449 17.8745 136.332 17.8482 136.215 17.8244C136.128 17.8532 136.016 17.8795 135.96 17.9121C135.882 17.956 135.778 17.9685 135.614 17.976C135.449 17.9835 135.346 17.981 135.216 17.9485C135.06 17.9084 134.9 17.877 134.645 17.8896C133.075 17.9685 131.504 18.0399 129.934 18.1176C129.675 18.1301 129.554 18.075 129.372 18.0462C129.311 18.0374 129.242 18.0236 129.186 18.0261C128.541 18.055 127.901 18.0863 127.257 18.1163C125.47 18.2015 123.684 18.283 121.901 18.3732C121.577 18.3895 121.356 18.3582 121.127 18.3043C121.08 18.293 120.997 18.2867 120.937 18.2893C118.437 18.407 115.936 18.5261 113.44 18.6451C113.306 18.6514 113.177 18.6313 113.068 18.5987C112.956 18.5649 112.831 18.5486 112.692 18.5549C111.55 18.6088 110.408 18.6626 109.266 18.7178C108.981 18.7315 108.976 18.7328 108.682 18.6726C108.622 18.6601 108.557 18.6363 108.509 18.6388C108.41 18.6451 108.315 18.6764 108.245 18.719C108.176 18.7641 108.068 18.7766 107.908 18.7854C107.744 18.7942 107.635 18.7904 107.51 18.7604C107.35 18.7228 107.203 18.6864 106.943 18.699C103.66 18.8593 100.377 19.0134 97.0937 19.1726C96.8299 19.1851 96.7087 19.1325 96.527 19.1037C96.4665 19.0949 96.406 19.0824 96.3411 19.0799C96.2719 19.0774 96.1983 19.0849 96.1291 19.0886C90.774 19.343 85.4188 19.5986 80.0637 19.8529C79.7436 19.868 79.7479 19.868 79.3975 19.9832C79.3542 19.997 79.298 20.0158 79.2374 20.0183C77.598 20.0985 75.9543 20.1762 74.3105 20.2539C73.5968 20.2877 72.8831 20.3228 72.1693 20.3554C71.9141 20.3666 71.9141 20.3667 71.3042 20.502C71.2523 20.5132 71.1917 20.5283 71.1311 20.5308C68.2762 20.6674 65.4212 20.8039 62.562 20.938C62.337 20.948 62.1554 20.9706 62.0516 21.0307C61.978 21.0733 61.8829 21.0984 61.7401 21.1059C59.7417 21.2011 57.7433 21.2976 55.7405 21.3903C55.5026 21.4016 55.3598 21.4367 55.243 21.4893C55.204 21.5068 55.1694 21.5269 55.1132 21.5394C55.0613 21.5507 54.9834 21.5544 54.9186 21.5582C53.2056 21.6396 51.4927 21.7236 49.7754 21.8013C49.5202 21.8126 49.4163 21.8589 49.2909 21.9078C49.2476 21.9241 49.2173 21.9466 49.1611 21.9579C49.1048 21.9679 49.0227 21.9679 48.9535 21.9704C47.526 22.0381 46.0986 22.107 44.6711 22.1747C44.3942 22.1684 44.3337 22.2411 44.1996 22.2849C44.152 22.3 44.1174 22.32 44.0612 22.33C44.0007 22.34 43.9227 22.3388 43.8492 22.3413C42.7072 22.3952 41.5652 22.4528 40.4189 22.5029C40.1551 22.5142 40.1031 22.5781 39.9604 22.622C39.9128 22.6357 39.8653 22.657 39.8091 22.6608C39.0953 22.6971 38.3816 22.731 37.6679 22.7635C37.43 22.7748 37.43 22.7736 37.0104 22.8976C36.9628 22.9114 36.9065 22.9264 36.8459 22.9302C35.7775 22.9828 34.7048 23.0329 33.632 23.0843C33.4936 23.0906 33.3984 23.1206 33.3292 23.1632C33.26 23.2058 33.1605 23.2334 33.0221 23.2397C32.1656 23.281 31.3091 23.3236 30.4526 23.3612C30.2147 23.3712 30.059 23.4026 29.9552 23.4589C29.8773 23.5015 29.7822 23.5228 29.6308 23.5303C28.7743 23.5704 27.9178 23.6143 27.057 23.6494C26.8061 23.6594 26.6763 23.702 26.5725 23.7546C26.4903 23.7972 26.3951 23.8123 26.2351 23.8198C24.6649 23.8925 23.0904 23.9651 21.5245 24.0453C21.2606 24.0591 21.1265 24.0152 20.9535 23.9839C20.7069 23.9401 20.4777 23.8924 20.4777 23.7947C20.4777 23.7797 20.4042 23.7621 20.3522 23.7496C19.9673 23.6556 19.9673 23.6557 19.9067 23.5554C19.8721 23.494 19.8332 23.4314 19.8029 23.3687C19.7466 23.266 19.6082 23.2397 19.2102 23.2585C19.0675 23.2647 18.9247 23.2735 18.782 23.2785C18.57 23.2873 18.41 23.2459 18.3711 23.1708C18.3494 23.1294 18.3235 23.0881 18.3019 23.0467C18.5182 23.0367 18.5138 23.0354 18.8945 22.8838C19.0545 22.8199 19.0546 22.8199 18.7474 22.756C18.6307 22.7322 18.5182 22.7059 18.3927 22.6834C18.3365 22.6733 18.263 22.6671 18.2024 22.6696C17.8434 22.6846 17.4887 22.7021 17.134 22.7197C16.563 22.7473 16.5629 22.7472 15.9833 22.6194C15.9357 22.6094 15.8622 22.5906 15.8708 22.5806C15.9184 22.5343 16.0352 22.5142 16.1823 22.5092C16.3985 22.5017 16.6105 22.4891 16.8224 22.4791C16.9652 22.4729 17.1079 22.4653 17.2507 22.4591C17.3848 22.4115 17.5233 22.3651 17.6487 22.3162C17.8477 22.2411 17.8476 22.2386 17.5751 22.1859C17.4021 22.1508 17.2161 22.1195 17.0387 22.0869C16.8268 22.097 16.6105 22.1082 16.3985 22.117C16.1303 22.1283 16.0222 22.1045 15.953 22.023C15.8924 21.9516 15.966 21.8902 16.1736 21.8752C16.3856 21.8602 16.5846 21.8501 16.6928 21.7862C16.7966 21.7249 16.9782 21.701 17.2032 21.696C17.3459 21.6923 17.4886 21.6835 17.6314 21.676C17.8174 21.666 17.9169 21.6021 17.878 21.5306C17.8564 21.4843 17.8131 21.4454 17.6444 21.4354C16.896 21.3916 16.8873 21.3928 16.5153 21.3076C16.4807 21.3001 16.4548 21.2775 16.4678 21.2663C16.4894 21.2475 16.537 21.2199 16.5889 21.2161C17.0864 21.1886 17.5838 21.1635 18.0813 21.1447C18.2457 21.1385 18.3668 21.1297 18.423 21.0833C18.5009 21.0194 18.4663 20.9605 18.3149 20.9167C18.2673 20.9029 18.1894 20.8854 18.1375 20.8866C17.5665 20.9092 16.9998 20.938 16.4288 20.9605C16.3769 20.963 16.2818 20.9418 16.2602 20.9255C16.2169 20.8954 16.2818 20.8553 16.4332 20.8415C16.6322 20.8227 16.8355 20.8215 16.9696 20.7588C17.1556 20.6699 17.3848 20.5884 17.5924 20.5032C17.627 20.4882 17.6833 20.4594 17.6704 20.4569C17.5622 20.4293 17.4368 20.408 17.3243 20.3817C17.134 20.3378 17.1339 20.2764 17.1772 20.2175C17.2118 20.1699 17.3416 20.1511 17.5016 20.1511C17.5708 20.1511 17.6573 20.1511 17.7136 20.1399C17.8606 20.1123 17.9082 20.0772 17.8347 20.0509C17.7914 20.0359 17.7136 20.0146 17.6617 20.0171C16.736 20.0584 15.8059 20.0985 14.8846 20.1499C14.612 20.1649 14.4867 20.1173 14.3223 20.0835C14.1969 20.0572 14.08 20.0471 13.9243 20.0659C13.7772 20.0835 13.6345 20.0735 13.5437 20.0321C13.4701 19.9983 13.5999 19.9695 13.9503 19.9369C14.0151 19.9306 14.0886 19.9269 14.1362 19.9143C14.638 19.779 14.638 19.7778 14.984 19.7602C15.3214 19.7439 15.3215 19.7427 15.4989 19.67C15.5811 19.6362 15.6718 19.6023 15.7497 19.5673C15.78 19.5535 15.8319 19.5284 15.8146 19.5209C15.7195 19.4821 15.5897 19.4733 15.4383 19.4821C15.1009 19.5034 14.7029 19.4858 14.5256 19.6049C14.4564 19.65 14.3482 19.6625 14.1925 19.67C12.6266 19.7427 11.0607 19.8204 9.49047 19.8905C9.23526 19.9018 9.11853 19.9482 9.01904 19.9995C8.93253 20.0421 8.83734 20.0547 8.67297 20.0622C8.50859 20.0697 8.37876 20.0735 8.2836 20.0321C8.22736 20.0071 8.27496 19.972 8.40473 19.9369C8.59073 19.8868 8.55611 19.8241 8.49555 19.7652C8.45229 19.7264 8.3182 19.6988 8.17545 19.7013C7.9635 19.7063 7.76025 19.7201 7.58289 19.67C7.47908 19.6412 7.34928 19.6211 7.23249 19.5961C7.00756 19.5447 6.78261 19.4921 6.46684 19.5259C6.25056 19.5134 6.09916 19.4683 5.92613 19.4332C5.63631 19.3756 5.61036 19.3668 5.81799 19.3054C6.05158 19.2365 5.86986 19.1463 5.99963 19.0786C6.13806 19.0059 6.32845 18.942 6.49715 18.8744C6.54041 18.8568 6.57935 18.8406 6.62261 18.823C6.52312 18.798 6.4323 18.7666 6.3155 18.7491C6.16411 18.7265 6.08624 18.699 6.09489 18.6213C6.06461 18.61 6.0775 18.6388 6.11211 18.6463C6.15104 18.6539 6.24627 18.6476 6.29386 18.6388C6.41497 18.615 6.47547 18.5837 6.44519 18.5574C6.42789 18.5436 6.34576 18.5261 6.29386 18.5261C6.19869 18.5261 6.11652 18.5536 6.09056 18.6213C5.60609 18.6727 5.10423 18.6977 4.60246 18.7178C4.55055 18.7203 4.4857 18.6952 4.42514 18.6827C4.22616 18.6401 4.22614 18.6413 3.64217 18.6288C3.58161 18.6275 3.49947 18.61 3.46919 18.5925C3.34374 18.516 3.3481 18.4321 3.28754 18.3506C3.40001 18.298 3.51239 18.2467 3.62918 18.1953C3.86277 18.0913 4.16563 17.9998 4.34731 17.8858C4.30838 17.8244 4.25646 17.763 4.44679 17.7129C4.9875 17.6502 4.98321 17.6503 5.13028 17.5901C5.54987 17.4197 5.96511 17.248 6.402 17.0801C6.51879 17.0363 6.51881 17.0125 6.31117 16.9937C6.24629 16.9887 6.17699 16.9874 6.10778 16.9899C5.89149 16.9987 5.67521 17.0213 5.46326 17.0162C5.2513 17.0125 5.09558 16.9574 4.92255 16.9235C4.7452 16.8884 4.56785 16.8521 4.3905 16.8158C4.1872 16.8195 3.98393 16.8546 3.78062 16.7982C3.6249 16.7544 3.43026 16.7231 3.2529 16.6867C3.387 16.5915 3.63793 16.5188 3.83258 16.4349C4.00993 16.3584 4.01416 16.3597 4.48998 16.3008C4.71492 16.2733 4.79278 16.1317 4.60246 16.0903C4.3732 16.0402 4.13101 15.9938 3.89742 15.9462C3.69412 15.95 3.48653 15.9838 3.29187 15.9274C3.14048 15.8848 2.96741 15.856 2.71653 15.8723C2.29261 15.8999 1.86006 15.9136 1.43182 15.9362C1.28475 15.9437 1.12465 15.9387 1.05977 15.8961C1.01651 15.866 1.14196 15.8247 1.28471 15.8159C1.50099 15.8034 1.69562 15.7884 1.80377 15.7257C1.90758 15.6631 2.09789 15.6443 2.32282 15.6355C2.38338 15.633 2.45264 15.6179 2.48292 15.6029C2.63865 15.5302 2.81169 15.4676 3.14476 15.4701C3.28318 15.445 3.35667 15.4137 3.31342 15.3836C3.28746 15.3674 3.19667 15.3461 3.14476 15.3486C2.78573 15.3611 2.42672 15.3736 2.07634 15.3962C1.91196 15.4062 1.78645 15.4087 1.68263 15.3711C1.6091 15.3461 1.64803 15.3122 1.78645 15.2759C1.90757 15.2446 1.94221 15.2082 1.93356 15.1656C1.91193 15.0667 1.78213 15.0378 1.36687 15.0441C1.0684 15.0491 0.994859 15.0328 0.929975 14.9476C0.912672 14.9276 0.869491 14.9 0.899771 14.8862C1.08577 14.801 1.2069 14.6958 1.55728 14.6557C1.6957 14.6407 1.84271 14.6407 1.92923 14.6081C2.01574 14.5755 2.09364 14.5379 2.18448 14.5066C2.29695 14.469 2.37473 14.4339 2.32282 14.4101C2.23631 14.3675 2.09794 14.3638 1.93789 14.3788C1.79947 14.3913 1.6524 14.3926 1.50965 14.4001C1.25444 14.4139 1.04685 14.3813 1.01657 14.3262C0.934385 14.1808 0.847846 14.0367 0.77431 13.8914C0.765659 13.8738 0.787228 13.8513 0.821833 13.8363C0.942951 13.7836 1.07277 13.7335 1.19822 13.6821C1.34529 13.6233 1.57891 13.6345 1.77789 13.6233C2.05906 13.607 2.05896 13.6082 2.4353 13.4879C2.58237 13.4403 2.83759 13.4591 2.98899 13.4165C3.03657 13.4027 3.11011 13.3802 3.09713 13.3676C3.07983 13.3514 2.99336 13.3388 2.92848 13.3313C2.86792 13.3238 2.7944 13.32 2.72952 13.3238C1.94225 13.3601 1.15932 13.399 0.372053 13.4341C0.237958 13.4403 0.0908811 13.4128 0.0432988 13.3739C-0.00428342 13.3376 0.00865132 13.2937 0 13.2524C0.125444 13.201 0.268136 13.1534 0.376277 13.0983C0.458465 13.0557 0.553646 13.0369 0.718021 13.0344C0.934304 13.0306 1.14628 13.0156 1.38852 13.0043C1.83839 12.8214 2.27958 12.6297 2.76405 12.4467C2.9587 12.3728 2.9112 12.2976 2.95013 12.2187C2.98906 12.146 3.27886 12.1573 3.47352 12.136C3.62924 12.1185 3.68108 12.0784 3.62052 12.0508C3.58592 12.0345 3.5081 12.0157 3.44754 12.0157C3.30479 12.0157 3.16205 12.027 3.0193 12.0333C2.87655 12.0395 2.71219 12.0358 2.5954 12.0571C2.48293 12.0771 2.40935 12.1197 2.33581 12.156C2.25363 12.1961 2.14556 12.2099 1.98119 12.2124C1.76923 12.2149 1.55728 12.2262 1.34533 12.235C1.11174 12.1861 0.869453 12.1385 0.644519 12.0871C0.601262 12.0771 0.592565 12.0483 0.59689 12.0295C0.605542 11.9806 0.540674 11.9506 0.397927 11.9268C0.276808 11.9067 0.17731 11.8779 0.0648426 11.8528C0.151356 11.819 0.246554 11.7864 0.315765 11.7501C0.467163 11.6737 0.657513 11.6185 0.986263 11.621C1.11603 11.5722 1.21982 11.512 1.38852 11.4782C1.54857 11.4456 1.8211 11.4782 1.94222 11.4043C2.00278 11.3679 2.09367 11.3266 2.21046 11.3115C2.39646 11.2877 2.63869 11.3003 2.74684 11.2301C2.81172 11.19 2.90685 11.1537 3.03229 11.1437C3.17504 11.1324 3.32207 11.1299 3.42589 11.1061C3.48212 11.0935 3.54269 11.0735 3.54269 11.056C3.54269 11.0447 3.45624 11.0271 3.39568 11.0196C3.33945 11.0108 3.26583 11.0046 3.20095 11.0071C2.98466 11.0146 2.77271 11.0284 2.55643 11.0359C2.49587 11.0384 2.42668 11.0296 2.36179 11.0221C2.17146 11.0021 2.18442 10.977 2.33581 10.9319C2.48721 10.8881 2.59541 10.8317 2.72086 10.7803C2.85928 10.7715 3.03228 10.7753 3.12744 10.7515C3.28749 10.7126 3.39993 10.6563 3.5297 10.6074C3.67245 10.5999 3.81951 10.5974 3.95361 10.5836C4.00984 10.5786 4.03581 10.551 4.0834 10.5347C4.16991 10.5034 4.24351 10.4583 4.3603 10.4433C4.55063 10.4207 4.78421 10.4295 4.89668 10.3606C4.96156 10.3205 5.06101 10.2779 5.18213 10.2754C5.51953 10.2704 5.66228 10.2014 5.83531 10.1363C5.96508 10.0874 6.24193 10.1125 6.38468 10.0636C6.47984 10.0323 6.54909 9.99344 6.64426 9.96337C6.68319 9.95084 6.76535 9.94459 6.83023 9.94083C7.18494 9.92203 7.54395 9.90824 7.89866 9.8882C7.95489 9.88444 8.00684 9.86565 8.0501 9.85062C8.14094 9.81804 8.19711 9.77293 8.30957 9.75163C8.42204 9.73033 8.58207 9.73033 8.72049 9.72407C9.16603 9.70527 9.20067 9.71027 9.40398 9.60377C9.56835 9.51732 9.97069 9.57872 10.1048 9.4835C10.1826 9.42837 10.3253 9.38326 10.5805 9.377C10.9396 9.36823 11.2943 9.34442 11.6533 9.32813C11.9734 9.31309 11.9691 9.31309 12.3151 9.19656C12.4709 9.14394 12.7002 9.15147 12.9035 9.14144C13.1198 9.13142 13.3187 9.11639 13.4225 9.05374C13.5263 8.99235 13.7167 8.97229 13.9373 8.96352C14.1406 8.95475 14.3699 8.96102 14.5299 8.9109C14.9192 8.79062 14.9149 8.78936 15.1874 8.77683C15.6157 8.75678 16.0439 8.73673 16.4721 8.71543C16.7576 8.70165 17.0561 8.69915 17.3243 8.67158C17.5189 8.65154 17.6054 8.58137 17.7309 8.53251C18.0856 8.51371 18.4403 8.49491 18.795 8.47737C19.2924 8.45231 19.7942 8.42977 20.296 8.40596C20.5122 8.35835 20.5426 8.2531 20.9059 8.24809C21.1222 8.24558 21.3342 8.22929 21.5505 8.21927C21.9095 8.20173 22.2642 8.17917 22.6232 8.1704C22.8957 8.16414 22.9432 8.09647 23.086 8.05387C23.1336 8.03884 23.1769 8.01754 23.2331 8.01378C23.7954 7.9787 24.375 7.97118 24.9244 7.91981C24.9806 7.9148 25.0325 7.88849 25.0455 7.86969C25.0542 7.85967 24.9806 7.84088 24.9331 7.83211C24.8768 7.82209 24.8033 7.81206 24.7427 7.81457C22.9563 7.89852 21.1698 7.98372 19.3833 8.06767C19.1324 8.0802 19.1324 8.07894 18.5225 8.21676C18.4706 8.22804 18.41 8.24056 18.3451 8.24432C18.0596 8.25936 17.7698 8.26814 17.4886 8.28693C17.2594 8.30197 17.0691 8.28692 16.9047 8.24181C16.7879 8.20924 16.6667 8.19922 16.5197 8.20173C16.3553 8.20549 16.2472 8.21927 16.152 8.2531C16.0266 8.29946 15.9617 8.3596 15.6978 8.37213C14.4823 8.426 13.2667 8.48614 12.0556 8.54378C11.8869 8.52624 11.8047 8.49993 11.8479 8.46861C11.8739 8.44981 11.9258 8.42475 11.9777 8.42225C12.4752 8.39594 12.9769 8.37339 13.4744 8.34833C13.5436 8.34457 13.6387 8.34706 13.6777 8.33453C13.868 8.27815 13.9373 8.18669 14.2963 8.18042C14.504 8.17666 14.7159 8.15787 14.9149 8.14033C14.9711 8.13532 15.023 8.10901 15.036 8.09021C15.0403 8.08019 14.9711 8.06139 14.9192 8.05262C14.7289 8.01628 14.5083 8.06015 14.318 8.03509C14.2531 8.02632 14.1622 8.01379 14.1492 7.99875C14.1406 7.98497 14.2141 7.96241 14.266 7.94863C14.3136 7.9361 14.3784 7.92483 14.4433 7.92107C15.0143 7.89225 15.5854 7.86218 16.1564 7.83962C16.39 7.83085 16.5543 7.79952 16.6581 7.74189C16.736 7.69929 16.8311 7.67674 16.9782 7.67048C17.9774 7.62412 18.9766 7.57275 19.9802 7.53015C20.2311 7.52012 20.3609 7.47878 20.4647 7.4249C20.5469 7.3823 20.6421 7.36726 20.8021 7.35975C22.2339 7.29459 23.657 7.22193 25.0888 7.15928C25.3527 7.148 25.4306 7.09412 25.5647 7.04776C25.6123 7.03147 25.6425 7.01143 25.703 7.0014C25.7636 6.99138 25.8415 6.99262 25.915 6.99012C27.057 6.93624 28.199 6.87861 29.3453 6.8285C29.6135 6.81722 29.6653 6.75456 29.8038 6.71071C29.8513 6.69693 29.8946 6.67438 29.9509 6.67062C30.8073 6.62802 31.6638 6.58793 32.5203 6.54658C33.0913 6.51902 33.6622 6.49145 34.2332 6.46514C34.5144 6.45261 34.5144 6.45135 34.8951 6.33232C34.9383 6.31853 34.9989 6.30224 35.0552 6.29848C36.6989 6.2183 38.3383 6.14188 39.982 6.06294C40.1205 6.05668 40.2199 6.02785 40.2891 5.98525C40.3584 5.94265 40.4579 5.91383 40.592 5.90756C41.8767 5.84492 43.1614 5.78353 44.4505 5.72464C44.6841 5.71461 44.8484 5.68454 44.9522 5.62816C45.0301 5.58556 45.1252 5.56301 45.2723 5.55675C46.557 5.4966 47.8418 5.43269 49.1309 5.37506C49.3774 5.36378 49.4985 5.32119 49.6196 5.27107C49.6629 5.25353 49.6975 5.22471 49.7494 5.2222C50.3896 5.18712 51.0255 5.15078 51.67 5.12698C51.9382 5.11695 52.029 5.06433 52.1372 5.01421C52.2237 4.97411 52.3232 4.96033 52.4876 4.95532C52.8466 4.94405 53.2013 4.92275 53.5517 4.90145C53.6036 4.8977 53.6685 4.87013 53.6728 4.85259C53.6815 4.82001 53.5819 4.79745 53.4176 4.78618C51.7046 4.86762 49.9874 4.94905 48.2744 5.0305C47.9932 5.04428 47.9932 5.04429 47.6126 5.16332C47.5693 5.1771 47.5087 5.19339 47.4481 5.19715C45.8044 5.27609 44.165 5.35377 42.5213 5.4327C42.3828 5.43897 42.2834 5.46779 42.2141 5.51039C42.1449 5.55299 42.0454 5.58181 41.9113 5.58807C40.3411 5.66325 38.7709 5.73968 37.1963 5.8111C36.9628 5.82112 36.7984 5.84993 36.6946 5.90756C36.6167 5.95016 36.5216 5.97273 36.3745 5.97899C34.8735 6.04916 33.3768 6.12307 31.8714 6.19073C31.72 6.197 31.6076 6.16066 31.6163 6.12683C31.6206 6.10929 31.6854 6.08048 31.7373 6.07798C32.5203 6.03663 33.2989 5.99403 34.0862 5.9627C34.3501 5.95268 34.4279 5.89755 34.562 5.85119C34.6052 5.8349 34.6399 5.8136 34.6961 5.80483C34.7567 5.7948 34.8345 5.79606 34.908 5.79356C36.7638 5.7046 38.6195 5.61439 40.4796 5.53044C40.7477 5.51791 40.7996 5.45651 40.938 5.41265C40.9856 5.39762 41.0289 5.37507 41.0851 5.37257C41.6561 5.34249 42.2271 5.31618 42.798 5.28987C43.7973 5.24225 44.7965 5.19464 45.8 5.14703C46.0898 5.13325 46.0899 5.13324 46.4619 5.01546C46.5051 5.00168 46.5657 4.98415 46.622 4.98164C49.2649 4.8551 51.908 4.72855 54.5509 4.60325C54.6894 4.59699 54.7888 4.56817 54.858 4.52557C54.9273 4.48422 55.0267 4.45415 55.1608 4.44663C58.7338 4.27623 62.3025 4.10582 65.8755 3.93793C66.1091 3.92665 66.2734 3.90033 66.3772 3.84145C66.4508 3.79885 66.5502 3.7763 66.6973 3.76878C70.625 3.58209 74.5527 3.3954 78.4847 3.20746C81.1277 3.08216 83.7707 2.95436 86.4137 2.83157C86.6559 2.8203 86.7857 2.78145 86.9068 2.73008C86.9457 2.71254 86.9847 2.68372 87.0366 2.68121C87.6032 2.64989 88.1699 2.62107 88.7365 2.59226C88.9139 2.62609 89.0912 2.65867 89.2686 2.6925C89.4027 2.64489 89.5325 2.59602 89.6666 2.54841C90.5231 2.51207 91.3666 2.45569 92.2317 2.43814C92.2879 2.43689 92.3484 2.4607 92.409 2.47323C92.8113 2.55217 93.0406 2.5459 93.2958 2.44065C93.3866 2.40306 93.4645 2.36924 93.6029 2.36297C94.0311 2.34042 94.4638 2.32538 94.8877 2.29907C95.117 2.28529 95.3072 2.29781 95.4716 2.34292C95.5884 2.3755 95.7096 2.38929 95.8523 2.38177C96.6396 2.34418 97.4225 2.30784 98.2098 2.26774C98.266 2.26524 98.3179 2.24393 98.3611 2.2289C98.452 2.19632 98.5299 2.16124 98.6164 2.12741C98.7332 2.14871 98.863 2.16501 98.9581 2.19257C99.0792 2.22515 99.1917 2.22514 99.356 2.21637C102.496 2.06476 105.641 1.91692 108.782 1.76406C109.05 1.75153 109.167 1.80415 109.348 1.83172C109.409 1.84174 109.469 1.85427 109.534 1.85677C109.604 1.85928 109.677 1.85177 109.746 1.84801C112.104 1.73524 114.461 1.62372 116.819 1.51096C117.13 1.49592 117.13 1.49592 117.593 1.5736C117.649 1.58363 117.723 1.59491 117.783 1.59115C118.856 1.54228 119.929 1.48966 120.997 1.43954C121.136 1.43328 121.253 1.45332 121.378 1.48214C121.625 1.53852 121.642 1.53853 121.823 1.45583C121.91 1.41699 122.001 1.39318 122.144 1.3819C122.299 1.36937 122.425 1.37314 122.546 1.39569C122.719 1.42702 122.844 1.47963 123.108 1.46585C124.25 1.40696 125.397 1.3581 126.534 1.29796C126.794 1.28418 126.932 1.32678 127.105 1.3581C127.166 1.36938 127.222 1.38692 127.287 1.39068C127.352 1.39444 127.43 1.38566 127.499 1.3819C128.926 1.31424 130.358 1.24784 131.781 1.17517C132.049 1.16139 132.166 1.21526 132.348 1.24282C132.408 1.25285 132.478 1.2704 132.534 1.26789C133.39 1.22905 134.251 1.18769 135.108 1.14634C135.415 1.13131 135.415 1.13256 135.882 1.20899C135.938 1.21901 136.012 1.22904 136.072 1.22653C137.072 1.18017 138.075 1.13256 139.074 1.08495C139.381 1.06991 139.381 1.06992 140.268 1.13507C140.333 1.14008 140.402 1.14761 140.467 1.1451C141.609 1.09123 142.755 1.0386 143.897 0.98096C144.127 0.969683 144.317 0.979704 144.481 1.02481C144.598 1.05739 144.719 1.07118 144.862 1.06366C146.147 1.00226 147.436 0.943378 148.716 0.878224C148.963 0.865695 149.123 0.893249 149.296 0.929585C149.352 0.942114 149.408 0.959659 149.473 0.964671C149.538 0.969683 149.612 0.964667 149.681 0.960908C150.966 0.899514 152.255 0.84188 153.535 0.775474C153.794 0.761691 153.933 0.804289 154.106 0.835613C154.167 0.84689 154.231 0.869444 154.283 0.868191C154.785 0.846891 155.287 0.828103 155.784 0.796779C156.052 0.779238 156.169 0.836864 156.351 0.864429C156.411 0.873199 156.481 0.892003 156.537 0.889497C157.61 0.840632 158.683 0.789264 159.751 0.73664C159.902 0.729122 160.015 0.740389 160.136 0.772965C160.296 0.816819 160.482 0.834361 160.716 0.820578C161.213 0.79176 161.715 0.771719 162.217 0.747912C162.511 0.73413 162.511 0.734134 163.41 0.799288C163.475 0.8043 163.545 0.811812 163.609 0.809306C164.466 0.769211 165.327 0.730372 166.179 0.686519C166.408 0.673989 166.598 0.685263 166.763 0.730369C166.88 0.762946 166.996 0.776736 167.143 0.769218C167.931 0.73163 168.714 0.694038 169.501 0.656449C169.786 0.642667 170.072 0.618855 170.357 0.618855C170.565 0.620108 170.717 0.680247 170.903 0.710318C170.954 0.719088 171.041 0.709076 171.11 0.706571C172.109 0.658958 173.113 0.615101 174.108 0.561224C174.367 0.547441 174.506 0.590039 174.679 0.621363C174.739 0.63264 174.804 0.655194 174.856 0.653941C175.215 0.640159 175.57 0.621362 175.929 0.605074C176.357 0.585027 176.79 0.569991 177.214 0.542426C177.56 0.519873 177.689 0.628876 177.966 0.632635C178.178 0.636394 178.394 0.615098 178.606 0.605074C179.035 0.585027 179.463 0.562476 179.891 0.544935C180.043 0.53867 180.159 0.518614 180.207 0.473508C180.216 0.464737 180.142 0.445951 180.095 0.434674C179.519 0.306873 179.519 0.306867 178.94 0.334432C178.58 0.351973 178.226 0.369518 177.867 0.384553C177.806 0.387059 177.737 0.377036 177.676 0.369518C177.503 0.348218 177.521 0.323161 177.668 0.278055C177.815 0.232949 177.927 0.177824 178.053 0.126453C178.23 0.15903 178.403 0.191595 178.581 0.224171C178.723 0.217907 178.866 0.2104 179.009 0.204135C179.723 0.171558 180.436 0.137726 181.15 0.107655C181.202 0.105149 181.267 0.130212 181.327 0.142742C181.5 0.179077 181.656 0.210393 181.907 0.19661C182.547 0.160275 183.192 0.133963 183.832 0.102639C184.113 0.0888562 184.113 0.0888574 184.606 0.166541C184.662 0.175311 184.736 0.185335 184.796 0.18283C185.441 0.154012 186.081 0.122691 186.726 0.0926206C186.864 0.0863558 186.998 0.102644 187.098 0.138979C187.137 0.154015 187.128 0.179069 187.292 0.384553C187.803 0.551196 188.153 0.533663 188.508 0.518628C188.659 0.512363 188.793 0.506092 188.893 0.481033C188.945 0.46725 189.01 0.4472 189.01 0.430912C189.01 0.418382 188.915 0.398331 188.854 0.395825C188.426 0.370766 188.019 0.423398 187.599 0.434674C187.405 0.439686 187.236 0.395832 187.202 0.324414C187.193 0.304367 187.18 0.283068 187.167 0.26302C187.154 0.242973 187.145 0.221674 187.132 0.201627C186.964 0.195362 186.864 0.217912 186.791 0.260512C186.73 0.295595 186.644 0.335689 186.527 0.354483C186.41 0.374531 186.25 0.370779 186.107 0.377043C185.969 0.383308 185.817 0.399595 185.688 0.390824C185.558 0.3808 185.454 0.344459 185.333 0.321905C185.277 0.310629 185.207 0.294347 185.151 0.296852C184.654 0.318153 184.161 0.339445 183.668 0.36701C183.408 0.382045 183.278 0.329429 183.114 0.296852C182.984 0.271793 182.854 0.27805 182.833 0.335686C182.776 0.473511 182.975 0.531144 183.417 0.504832C183.78 0.482278 184.109 0.478531 184.394 0.563732C184.433 0.575009 184.524 0.580019 184.58 0.577513C184.935 0.562477 185.285 0.543681 185.64 0.528646C185.705 0.52614 185.774 0.531144 185.835 0.536155C186.717 0.603815 186.717 0.605075 187.016 0.590039C187.158 0.582521 187.297 0.576256 187.284 0.385807C187.556 0.181576 187.989 0.167796 188.408 0.137725C188.681 0.118931 188.798 0.174063 188.975 0.202881C189.036 0.212905 189.101 0.232948 189.157 0.230442C190.087 0.189095 191.012 0.145235 191.938 0.0988762C192.094 0.0913584 192.206 0.0988774 192.327 0.131454C192.483 0.172802 192.656 0.199119 192.903 0.184084C193.396 0.154013 193.898 0.135223 194.399 0.110164C194.655 0.0976342 194.655 0.0976214 195.169 0.175304C195.226 0.184075 195.299 0.194099 195.36 0.191593C195.861 0.170293 196.359 0.143989 196.856 0.121436C196.995 0.115171 197.12 0.132711 197.228 0.166541C197.337 0.20037 197.466 0.21791 197.6 0.211645C198.102 0.189092 198.6 0.164041 199.097 0.141488C199.158 0.138982 199.231 0.147752 199.287 0.156522C199.815 0.234205 199.815 0.234193 200.057 0.221663C200.412 0.202869 200.775 0.194108 201.126 0.169049C201.468 0.14399 201.645 0.216655 201.878 0.256749C202.519 0.227932 203.163 0.204132 203.799 0.169049C204.059 0.154013 204.197 0.195357 204.37 0.227934C204.431 0.239211 204.491 0.263019 204.547 0.261766C204.764 0.256754 204.976 0.242974 205.188 0.232951C205.4 0.222927 205.616 0.212905 205.828 0.202881C206.07 0.239217 206.23 0.324416 206.576 0.295598C206.784 0.278057 207.004 0.274298 207.216 0.264274C207.428 0.254251 207.645 0.244228 207.857 0.234205C207.999 0.22794 208.146 0.224176 208.285 0.212899C208.54 0.194105 208.666 0.255507 208.847 0.283072C208.908 0.291843 208.977 0.306868 209.033 0.304362C209.461 0.286821 209.894 0.271787 210.314 0.242969C210.638 0.220416 210.859 0.258009 211.088 0.310633C211.135 0.32191 211.218 0.328174 211.278 0.325668C211.78 0.304368 212.277 0.278048 212.775 0.255495C212.909 0.24923 213.039 0.269277 213.147 0.301854C213.259 0.335684 213.385 0.351984 213.523 0.345719C214.021 0.323166 214.522 0.2981 215.02 0.275547C215.08 0.273041 215.154 0.283066 215.21 0.29309C215.695 0.370773 215.695 0.372027 215.98 0.356992C216.049 0.353233 216.123 0.350717 216.192 0.346958C216.547 0.329417 216.915 0.323161 217.261 0.29309C217.659 0.25926 217.948 0.301862 218.23 0.373281C218.584 0.358245 218.948 0.349473 219.294 0.324414C219.553 0.305619 219.692 0.353229 219.865 0.384553C219.925 0.39583 219.99 0.418383 220.042 0.415877C220.544 0.394577 221.045 0.375789 221.539 0.344465C221.807 0.326924 221.924 0.383296 222.105 0.412114C222.166 0.422138 222.231 0.439689 222.287 0.437183C222.572 0.427159 222.858 0.412116 223.144 0.398334C223.477 0.382045 223.476 0.383297 223.918 0.459727C224.125 0.496063 224.333 0.467244 224.536 0.458473C224.753 0.448449 224.956 0.440934 225.129 0.492305C225.237 0.524882 225.367 0.54493 225.501 0.539918C225.786 0.528641 226.076 0.51737 226.357 0.498576C226.582 0.483541 226.777 0.493559 226.941 0.539918C227.058 0.572495 227.179 0.588793 227.322 0.581275C227.962 0.551204 228.607 0.519869 229.247 0.491051C229.303 0.488545 229.381 0.499826 229.433 0.511103C229.554 0.533656 229.671 0.558709 229.788 0.583768C230.069 0.572492 230.359 0.567493 230.635 0.549951C230.93 0.53241 231.198 0.526143 231.427 0.595056C231.475 0.610091 231.544 0.63138 231.6 0.630127C231.816 0.625115 232.028 0.612589 232.24 0.602566C232.452 0.592542 232.669 0.58252 232.88 0.572496C233.127 0.60382 233.283 0.694031 233.629 0.665213C233.837 0.647672 234.057 0.643913 234.269 0.633889C234.481 0.623866 234.697 0.612591 234.909 0.60382C234.978 0.601314 235.056 0.595046 235.117 0.600057C235.182 0.605069 235.238 0.622614 235.294 0.635144C235.467 0.671479 235.627 0.707819 235.874 0.686519C236.082 0.668978 236.302 0.665218 236.514 0.653941C236.804 0.640159 236.804 0.640161 237.284 0.719097C237.479 0.751674 237.699 0.709075 237.885 0.73664C238.011 0.755434 238.119 0.786752 238.24 0.808052C238.292 0.816822 238.374 0.820576 238.435 0.81807C238.72 0.806793 239.01 0.795522 239.291 0.776728C239.52 0.761693 239.711 0.776726 239.871 0.821832C239.988 0.854409 240.104 0.868199 240.251 0.860681C240.965 0.825599 241.679 0.795518 242.388 0.756676C242.631 0.742894 242.825 0.7642 242.959 0.809306C243.189 0.886989 243.513 0.795525 243.751 0.858173C243.898 0.897014 244.045 0.942123 244.313 0.923329C244.806 0.890752 245.308 0.873201 245.806 0.850648C245.983 0.884478 246.16 0.918315 246.342 0.952144C246.627 0.938362 246.913 0.924571 247.198 0.912041C247.41 0.902018 247.627 0.890742 247.839 0.881972C247.908 0.879466 247.981 0.874453 248.046 0.880718C248.111 0.886982 248.163 0.903274 248.224 0.915804C248.522 0.977199 248.522 0.978458 249.015 0.953399C249.227 0.942122 249.431 0.934604 249.608 0.984722C249.772 1.03108 249.967 1.03985 250.192 1.02606C250.616 1.00101 251.044 0.982212 251.477 0.964671C251.611 0.958406 251.736 0.979707 251.849 1.01228C252.017 1.06365 252.225 1.05864 252.437 1.04486C252.718 1.02732 252.995 1.00978 253.233 1.07995C253.28 1.09498 253.354 1.11627 253.406 1.11502C253.761 1.105 254.12 1.09748 254.466 1.07368C254.812 1.04987 254.98 1.12755 255.218 1.16514C255.573 1.14885 255.932 1.13256 256.287 1.11627C256.356 1.11251 256.438 1.10124 256.499 1.10751C256.754 1.13382 256.901 1.22779 257.251 1.19897C257.455 1.18268 257.675 1.17768 257.887 1.17392C257.943 1.17267 258.017 1.19396 258.056 1.21024C258.078 1.21902 258.056 1.24282 258.03 1.25535C257.952 1.29043 257.857 1.32302 257.788 1.35935C257.779 1.36437 257.861 1.38691 257.909 1.39693C258.026 1.41949 258.16 1.41574 258.315 1.40571C258.449 1.39694 258.588 1.41448 258.683 1.45207C258.722 1.46711 258.709 1.49216 258.627 1.57486C258.627 1.63625 258.718 1.60868 258.748 1.56859C258.796 1.51095 258.705 1.49216 258.532 1.52348C258.411 1.54604 258.35 1.57862 258.38 1.60493C258.398 1.61871 258.48 1.63625 258.627 1.57486C259.007 1.49968 259.293 1.48591 259.579 1.47212C259.652 1.46836 259.739 1.45583 259.79 1.46334C259.976 1.49341 260.15 1.52976 260.331 1.56359C260.539 1.55607 260.733 1.53727 260.937 1.58613C261.222 1.65504 261.235 1.64878 261.512 1.635C261.655 1.62748 261.798 1.62123 261.94 1.61496C262.083 1.6087 262.195 1.62749 262.321 1.6563C262.576 1.71519 262.598 1.71519 262.766 1.635C262.866 1.58613 262.935 1.56985 263.061 1.5924C263.476 1.66883 263.48 1.67384 263.835 1.65129C264.129 1.63249 264.406 1.62748 264.622 1.6989C264.769 1.74902 264.817 1.73774 264.934 1.68512C265.245 1.54604 265.388 1.54854 265.972 1.64878C266.244 1.69639 266.526 1.64502 266.802 1.63876C267.036 1.63375 267.2 1.66381 267.218 1.74275C267.231 1.79161 267.27 1.8267 267.425 1.84299C267.486 1.84926 267.559 1.85802 267.62 1.85552C267.979 1.84048 268.334 1.82294 268.693 1.8054C268.874 1.79663 268.974 1.73775 268.939 1.66007C268.9 1.57737 268.969 1.54729 269.229 1.52348C269.385 1.5097 269.51 1.51222 269.636 1.53477C269.774 1.55983 269.735 1.58238 269.614 1.62749C269.324 1.73775 269.359 1.8054 269.731 1.88183C269.861 1.90814 269.964 1.93195 269.995 1.9708C270.012 1.99084 269.995 2.01715 270.034 2.03219C270.246 2.11614 270.54 2.17002 270.868 2.21011C271.184 2.17628 271.401 2.23266 271.643 2.27776C271.833 2.31285 272.058 2.28278 272.261 2.27025C272.491 2.25647 272.681 2.26649 272.845 2.31285C272.962 2.34543 273.083 2.36046 273.226 2.35419C273.511 2.34041 273.801 2.33164 274.082 2.3116C274.325 2.29405 274.506 2.31912 274.658 2.36172C274.848 2.41559 275.06 2.37925 275.259 2.38677C275.527 2.39554 275.661 2.50705 276.012 2.47698C276.219 2.45944 276.436 2.45317 276.652 2.44816C276.708 2.44691 276.777 2.46821 276.825 2.48325C277.054 2.55216 277.322 2.5484 277.617 2.52835C277.82 2.51457 278.019 2.50205 278.218 2.54966C278.546 2.62985 278.91 2.70002 279.256 2.77394C279.304 2.83158 279.269 2.89923 279.515 2.93305C279.645 2.9506 279.766 2.97692 279.866 3.00574C279.987 3.03957 280.099 3.04834 280.255 3.03957C280.536 3.02203 280.83 3.01826 281.107 2.9957C281.363 2.97566 281.523 3.01702 281.678 3.05586C281.804 3.08718 281.921 3.10221 282.072 3.07966C282.228 3.05836 282.34 3.07213 282.466 3.10596C282.643 3.15232 282.656 3.14732 283.244 3.1611C283.305 3.16235 283.378 3.18114 283.413 3.19743C283.43 3.2062 283.391 3.23127 283.361 3.2438C283.322 3.25884 283.261 3.27637 283.205 3.28013C282.565 3.3127 281.921 3.34152 281.28 3.3741C281.215 3.37786 281.146 3.38664 281.099 3.39916C281.047 3.41295 280.982 3.43173 280.982 3.44927C280.982 3.4618 281.068 3.47684 281.129 3.48561C281.319 3.51443 281.544 3.47058 281.73 3.50315C281.856 3.52445 281.959 3.55452 282.085 3.57457C282.137 3.58334 282.219 3.58209 282.284 3.57958C282.5 3.57081 282.712 3.55829 282.928 3.55077C282.989 3.54951 283.058 3.56205 283.114 3.57207C283.53 3.64725 283.53 3.64725 283.889 3.63096C284.031 3.62469 284.183 3.6059 284.317 3.61341C284.447 3.62093 284.559 3.65476 284.676 3.67606C284.918 3.72117 285.147 3.76502 285.165 3.86275C285.173 3.90034 285.316 3.93291 285.459 3.93542C285.597 3.93792 285.744 3.92415 285.887 3.91664C286.225 3.9016 286.225 3.9016 286.661 3.97803C286.783 3.99933 286.912 4.00183 287.068 3.9893C287.129 3.98429 287.202 3.98931 287.267 3.99557C287.479 4.01437 287.479 4.03817 287.341 4.08327C287.146 4.14968 287.163 4.15595 287.708 4.21233C287.916 4.23363 288.076 4.27373 288.249 4.30881C288.53 4.36519 288.526 4.36518 288.34 4.43911C288.297 4.45539 288.258 4.47294 288.214 4.49048C288.089 4.53935 287.989 4.59197 287.73 4.59698C287.444 4.60199 287.159 4.62205 286.873 4.63583C286.597 4.64961 286.523 4.67967 286.549 4.76487C286.579 4.86761 286.636 4.87889 287.133 4.87764C287.276 4.87764 287.401 4.88766 287.509 4.92149C287.457 4.96158 287.362 4.99291 287.224 5.00043C286.869 5.01922 286.51 5.03551 286.155 5.0518C285.87 5.06558 285.584 5.07936 285.299 5.09314C285.122 5.10191 285.009 5.16707 285.057 5.23975C285.083 5.28109 285.104 5.32244 285.126 5.36379C285.173 5.44648 285.264 5.46779 285.554 5.46403C285.628 5.46278 285.697 5.45274 285.766 5.45525C286.047 5.46402 286.181 5.56801 286.519 5.54671C286.8 5.52917 287.094 5.52542 287.371 5.50286C287.626 5.48282 287.769 5.52793 287.946 5.56176C288.007 5.57304 288.072 5.59683 288.124 5.59558C288.483 5.5818 288.842 5.56803 289.192 5.54422C289.356 5.5342 289.456 5.54171 289.586 5.57178C289.897 5.64445 289.906 5.64069 290.369 5.61814C290.706 5.6006 290.71 5.6031 291.143 5.67953C291.264 5.70083 291.394 5.70083 291.549 5.69081C291.753 5.67828 291.965 5.65823 292.177 5.67702C292.242 5.68204 292.324 5.69708 292.345 5.71337C292.358 5.72464 292.298 5.75221 292.246 5.76098C291.865 5.82613 291.42 5.81486 291.004 5.84117C290.875 5.84869 290.745 5.82488 290.637 5.79105C290.524 5.75722 290.403 5.74344 290.256 5.74971C289.971 5.76349 289.681 5.77225 289.4 5.7923C289.157 5.80984 288.989 5.78102 288.82 5.74218C288.764 5.72965 288.699 5.70584 288.643 5.70709C288.002 5.73215 287.358 5.75722 286.722 5.7923C286.467 5.80734 286.32 5.76725 286.147 5.73342C286.086 5.72214 286.026 5.69833 285.969 5.69958C285.753 5.7046 285.541 5.71838 285.325 5.7284C284.538 5.76599 283.755 5.80358 282.967 5.83866C282.915 5.84117 282.851 5.81485 282.79 5.80357C282.673 5.78102 282.552 5.75972 282.431 5.73842C282.215 5.74844 282.003 5.76097 281.786 5.76849C281.631 5.7735 281.492 5.79105 281.471 5.83866C281.458 5.86998 281.6 5.8988 281.752 5.89629C281.899 5.89379 282.046 5.87875 282.167 5.89504C282.768 5.97523 282.768 5.97648 283.145 5.96019C283.473 5.94516 283.439 5.93262 283.729 6.00154C283.854 6.03161 283.967 6.04916 284.109 6.04164C284.464 6.0241 284.823 6.00655 285.182 5.99152C285.238 5.98901 285.312 6.00154 285.368 6.01157C285.792 6.08675 285.792 6.08925 286.142 6.07045C286.601 6.0479 286.618 6.04164 286.925 6.11807C287.137 6.17069 287.332 6.13435 287.535 6.13185C287.769 6.18071 288.024 6.22457 288.236 6.2797C288.487 6.34486 288.751 6.33357 289.036 6.31477C289.248 6.30099 289.456 6.29598 289.629 6.34735C289.793 6.39496 289.992 6.39998 290.217 6.38745C290.42 6.37618 290.628 6.35236 290.84 6.37993C290.896 6.38745 290.983 6.40625 290.978 6.41752C290.974 6.43507 290.918 6.46013 290.862 6.46765C290.464 6.51902 290.027 6.51776 289.607 6.54157C289.551 6.54532 289.477 6.53154 289.421 6.52151C289.3 6.49896 289.183 6.47265 289.067 6.44885C288.855 6.45637 288.638 6.45887 288.431 6.4739C288.271 6.48518 288.149 6.48394 288.033 6.45386C287.924 6.4263 287.808 6.39246 287.678 6.38369C287.548 6.37492 287.397 6.39372 287.254 6.40123C287.111 6.40875 286.947 6.40499 286.835 6.42503C286.722 6.44508 286.653 6.48894 286.579 6.52402C286.497 6.56286 286.385 6.5754 286.22 6.57916C286.069 6.58292 285.948 6.5779 285.835 6.54282C285.788 6.52778 285.723 6.5165 285.658 6.50648C285.597 6.49771 285.528 6.48392 285.472 6.48643C284.827 6.51525 284.187 6.54658 283.543 6.57665C283.223 6.59169 283.227 6.59168 282.561 6.51775C282.5 6.51149 282.427 6.50272 282.366 6.50522C282.007 6.52026 281.652 6.5378 281.293 6.55535C280.93 6.57289 280.934 6.57038 280.316 6.49144C280.203 6.47641 280.039 6.49646 279.905 6.49395C279.624 6.48769 279.485 6.38244 279.156 6.40249C278.875 6.42003 278.581 6.42379 278.3 6.44634C278.045 6.46639 277.898 6.42254 277.725 6.38871C277.664 6.37743 277.599 6.35237 277.547 6.35488C276.903 6.38244 276.263 6.41377 275.406 6.41752C275.194 6.41752 275.289 6.44384 275.428 6.45261C275.627 6.46639 275.692 6.44008 275.583 6.38996C275.506 6.35488 275.393 6.33733 275.302 6.3461C275.255 6.35111 275.194 6.37492 275.406 6.41752C275.631 6.46514 275.618 6.49144 275.657 6.50648C275.752 6.54281 275.886 6.55785 276.025 6.55284C276.241 6.54407 276.453 6.53154 276.669 6.52402C276.73 6.52152 276.803 6.53029 276.86 6.54031C277.335 6.61799 277.34 6.62301 277.846 6.59294C278.006 6.58417 278.123 6.58417 278.248 6.60798C278.421 6.64055 278.547 6.69567 278.81 6.67813C279.161 6.65433 279.52 6.64056 279.879 6.62677C279.935 6.62427 279.996 6.64682 280.06 6.65684C280.238 6.68691 280.368 6.7433 280.631 6.71949C280.835 6.7007 281.055 6.69567 281.272 6.69191C281.328 6.69066 281.414 6.71071 281.44 6.727C281.492 6.75582 281.427 6.78966 281.28 6.81346C281.22 6.82348 281.138 6.82097 281.068 6.82473C280.783 6.83852 280.497 6.85354 280.212 6.86482C280.061 6.87109 279.918 6.88989 279.9 6.93625C279.887 6.96757 280.043 6.99513 280.19 6.99263C280.407 6.98887 280.623 6.97884 280.83 6.96256C281.198 6.93499 281.518 6.9425 281.817 7.02144C282.029 7.07657 282.016 7.05653 282.241 7.21942C282.297 7.26076 282.466 7.26452 282.613 7.26201C282.967 7.25575 283.132 7.27455 283.101 7.31339C283.062 7.361 282.937 7.37603 282.777 7.38229C282.491 7.39232 282.206 7.40861 281.921 7.42239C281.851 7.42615 281.773 7.43366 281.709 7.43116C281.644 7.42865 281.583 7.41362 281.527 7.40234C281.406 7.37854 281.302 7.3422 281.172 7.33342C281.042 7.32465 280.891 7.34345 280.748 7.35097C280.606 7.35723 280.454 7.37603 280.324 7.36726C280.195 7.35849 280.086 7.32091 279.97 7.29835C279.913 7.28708 279.844 7.26952 279.788 7.27078C279.502 7.2808 279.217 7.2971 278.932 7.30963C278.581 7.32591 278.581 7.32592 278.157 7.24823C278.036 7.22568 277.911 7.22694 277.751 7.23696C277.405 7.25701 277.4 7.25324 276.769 7.18057C276.708 7.17305 276.635 7.16428 276.574 7.16804C275.929 7.19686 275.289 7.22818 274.649 7.25825C274.1 7.28456 274.1 7.28457 273.797 7.40987C273.572 7.50259 273.568 7.50258 273.788 7.54518C273.966 7.58026 274.126 7.63163 274.32 7.65043C274.502 7.66797 274.727 7.61159 274.926 7.66922C275.025 7.69804 275.155 7.72937 275.281 7.73438C275.48 7.74064 275.692 7.7043 275.882 7.75943C275.977 7.787 276.12 7.81582 276.241 7.81708C276.453 7.81958 276.669 7.79953 276.881 7.79076C276.946 7.78825 277.02 7.78825 277.08 7.79452C277.145 7.80204 277.201 7.81707 277.257 7.8296C277.43 7.8722 277.617 7.89225 277.841 7.87095C278.209 7.83586 278.538 7.8534 278.823 7.93359C278.862 7.94487 278.957 7.94613 279.018 7.94112C279.174 7.92859 279.308 7.92733 279.425 7.95114C279.472 7.96116 279.541 7.97869 279.533 7.98997C279.52 8.00876 279.468 8.03383 279.412 8.04009C279.005 8.08269 278.568 8.08771 278.149 8.11026C278.092 8.11277 278.023 8.09647 277.967 8.0852C277.846 8.06264 277.742 8.02506 277.612 8.01629C277.482 8.00752 277.331 8.02381 277.188 8.03007C277.046 8.03634 276.894 8.05513 276.764 8.04762C276.635 8.03885 276.513 8.00752 276.41 7.97995C276.289 7.94863 276.172 7.94488 276.012 7.95741C275.804 7.9737 275.588 7.9762 275.376 7.98497C275.259 7.96116 275.142 7.93484 275.021 7.91229C274.965 7.90101 274.896 7.88724 274.835 7.88849C274.55 7.89851 274.264 7.91354 273.979 7.92732C273.693 7.94111 273.693 7.94112 273.209 7.86344C273.152 7.85467 273.079 7.84464 273.018 7.84715C272.659 7.86218 272.305 7.88096 271.946 7.896C271.807 7.90226 271.682 7.88472 271.569 7.85089C271.461 7.81706 271.331 7.79827 271.197 7.80454C270.626 7.83085 270.055 7.85591 269.484 7.88724C269.255 7.89976 269.06 7.88849 268.905 7.84338C268.723 7.79201 268.52 7.80455 268.308 7.81457C267.828 7.83963 267.823 7.83837 267.516 7.77447C267.455 7.76194 267.395 7.73813 267.339 7.73938C266.841 7.75817 266.34 7.77572 265.846 7.80579C265.587 7.82208 265.448 7.77823 265.275 7.74565C265.215 7.73437 265.15 7.71057 265.098 7.71307C264.739 7.72686 264.38 7.73939 264.03 7.76445C263.679 7.78951 263.545 7.67299 263.281 7.67424C262.922 7.67549 262.567 7.70431 262.213 7.72185C261.927 7.73563 261.642 7.74941 261.356 7.76319C261.071 7.77698 260.785 7.78825 260.5 7.80454C260.348 7.81331 260.236 7.80203 260.111 7.7707C259.951 7.72936 259.76 7.69679 259.587 7.6592C259.323 7.60533 259.323 7.60532 259.003 7.62036C258.934 7.62411 258.86 7.62661 258.791 7.63037C258.268 7.65794 258.268 7.65544 257.602 7.57651C257.571 7.57275 257.493 7.58653 257.463 7.59656C257.372 7.62913 257.29 7.66421 257.208 7.69804C257.091 7.67799 256.949 7.66672 256.871 7.6379C256.65 7.55646 256.304 7.66797 256.079 7.58778C255.997 7.55771 255.854 7.53139 255.724 7.52388C255.59 7.51636 255.439 7.5339 255.3 7.54142C254.941 7.56021 254.941 7.55896 254.634 7.67048C254.478 7.72561 254.254 7.71558 254.05 7.72811C253.838 7.74189 253.635 7.74941 253.458 7.69804C253.298 7.65168 253.103 7.64041 252.874 7.65544C252.593 7.67424 252.303 7.68551 252.017 7.69678C251.957 7.69929 251.883 7.69303 251.823 7.68551C251.161 7.61159 251.161 7.61034 250.841 7.62663C250.698 7.63414 250.551 7.63664 250.412 7.64792C250.179 7.66796 250.002 7.64165 249.833 7.60156C249.777 7.58903 249.712 7.56523 249.655 7.56649C249.37 7.57275 249.089 7.58403 248.808 7.5953C248.591 7.60407 248.375 7.60909 248.167 7.62663C247.821 7.65544 247.653 7.57399 247.415 7.5364C247.06 7.55269 246.701 7.56397 246.346 7.58652C246.182 7.59655 246.074 7.5928 245.948 7.56272C245.788 7.52514 245.641 7.48254 245.382 7.50133C245.036 7.52639 244.672 7.53516 244.318 7.5502C244.08 7.51136 243.907 7.43241 243.565 7.46123C243.357 7.47877 243.137 7.48253 242.925 7.49255C242.639 7.50633 242.354 7.51887 242.068 7.53391C241.761 7.54894 241.765 7.54519 241.294 7.47126C241.021 7.42741 240.74 7.47627 240.463 7.48379C240.247 7.49005 240.139 7.54769 240.191 7.62161C240.243 7.69553 240.126 7.75317 239.927 7.76319C239.43 7.787 238.928 7.81205 238.43 7.83335C238.37 7.83586 238.296 7.82709 238.24 7.81832C237.708 7.73938 237.708 7.74065 237.47 7.75192C237.115 7.77072 236.752 7.78073 236.402 7.80454C236.159 7.82082 235.982 7.79452 235.826 7.75192C235.705 7.71934 235.593 7.71183 235.437 7.71934C233.724 7.80329 232.011 7.88097 230.302 7.96743C230.047 7.97996 229.9 7.94362 229.727 7.9098C229.667 7.89852 229.61 7.87471 229.55 7.87471C229.407 7.87471 229.264 7.88599 229.121 7.89351C228.481 7.92358 227.841 7.95991 227.197 7.98246C226.924 7.99248 226.851 8.05013 226.734 8.09774C226.643 8.13407 226.539 8.1491 226.379 8.15411C226.223 8.15913 226.111 8.15286 225.99 8.12028C225.834 8.07768 225.657 8.05137 225.414 8.06891C225.133 8.08895 224.848 8.09774 224.558 8.11152C224.411 8.11778 224.298 8.14033 224.251 8.18544C224.242 8.19296 224.333 8.21176 224.385 8.22303C224.558 8.26062 224.722 8.30447 224.917 8.33078C225.116 8.3571 225.332 8.32702 225.54 8.3195C225.613 8.31699 225.683 8.30948 225.752 8.31073C225.817 8.31199 225.895 8.31825 225.942 8.32953C226.167 8.38591 226.405 8.42475 226.716 8.39092C226.985 8.40721 227.123 8.51121 227.465 8.48364C227.672 8.46735 227.889 8.45984 228.105 8.45357C228.161 8.45232 228.222 8.47487 228.282 8.48615C228.455 8.51747 228.594 8.56759 228.853 8.54629C229.13 8.52374 229.424 8.51998 229.705 8.50244C229.861 8.49242 229.974 8.50119 230.095 8.53376C230.25 8.57511 230.428 8.60642 230.67 8.58638C230.878 8.56884 231.098 8.56508 231.31 8.5538C231.587 8.54002 231.587 8.54127 232.08 8.61895C232.137 8.62773 232.21 8.63775 232.271 8.63524C232.63 8.62021 232.984 8.60141 233.343 8.58638C233.482 8.58011 233.616 8.5964 233.711 8.63274C233.75 8.64777 233.737 8.67284 233.75 8.69414C233.036 8.72797 232.322 8.75679 231.613 8.79813C231.345 8.81442 231.224 8.76305 231.046 8.73423C230.986 8.72421 230.921 8.70291 230.865 8.70542C230.363 8.72672 229.866 8.74926 229.368 8.77683C229.212 8.7856 229.096 8.78059 228.979 8.74425C228.68 8.64777 228.317 8.7004 227.98 8.71418C227.72 8.7242 227.638 8.76305 227.668 8.84575C227.707 8.94348 227.863 8.97355 228.261 8.95601C228.403 8.94974 228.546 8.94097 228.689 8.93596C228.827 8.93094 228.953 8.94723 229.065 8.98106C229.173 9.01489 229.303 9.03243 229.437 9.02742C229.723 9.01614 230.013 9.00487 230.289 8.98608C230.519 8.97104 230.709 8.98357 230.869 9.02993C231.046 9.0813 231.254 9.07002 231.462 9.05874C231.946 9.03368 231.95 9.03494 232.253 9.09759C232.314 9.11012 232.374 9.13393 232.431 9.13268C232.928 9.11388 233.43 9.09759 233.919 9.06752C234.174 9.05249 234.321 9.09258 234.49 9.12515C234.55 9.13643 234.611 9.16149 234.667 9.15898C235.026 9.1452 235.385 9.13142 235.735 9.10761C235.9 9.09633 235.999 9.10385 236.133 9.13392C236.453 9.20784 236.462 9.20534 236.916 9.18153C237.055 9.17401 237.206 9.16023 237.336 9.17026C237.466 9.18028 237.57 9.21662 237.691 9.23918C237.747 9.2492 237.816 9.26297 237.877 9.26047C238.162 9.25044 238.448 9.23541 238.733 9.22163C239.001 9.20785 239.001 9.20911 239.503 9.28679C239.706 9.31937 239.918 9.2918 240.122 9.28177C240.342 9.2705 240.541 9.2705 240.71 9.31937C240.879 9.36823 241.082 9.36572 241.298 9.35569C241.502 9.34567 241.709 9.31811 241.917 9.35194C242.393 9.42963 242.393 9.43087 242.687 9.41583C243.115 9.39453 243.539 9.37449 243.972 9.35569C244.028 9.35319 244.101 9.36823 244.157 9.37825C244.279 9.4008 244.382 9.43838 244.512 9.44715C244.642 9.45718 244.793 9.44215 244.932 9.43463C245.377 9.41082 245.408 9.40205 245.706 9.48475C245.957 9.55241 246.268 9.45468 246.502 9.53236C246.636 9.57622 246.818 9.61129 247.069 9.58999C247.276 9.57245 247.493 9.56744 247.709 9.55742C248.051 9.54113 248.051 9.54239 248.483 9.61757C248.539 9.62759 248.613 9.64011 248.669 9.63761C248.955 9.62758 249.245 9.61882 249.521 9.59626C249.846 9.56995 250.053 9.61757 250.296 9.66393C250.486 9.70026 250.711 9.67019 250.914 9.65766C251.135 9.64513 251.334 9.64888 251.498 9.69775C251.671 9.74786 251.875 9.7416 252.091 9.73158C252.294 9.72281 252.502 9.69399 252.709 9.72907C253.155 9.80675 253.155 9.80675 253.479 9.79172C253.765 9.77793 254.05 9.76291 254.336 9.75288C254.392 9.75038 254.461 9.76666 254.517 9.77794C254.639 9.80049 254.742 9.83808 254.872 9.84685C255.002 9.85563 255.153 9.83934 255.296 9.83307C255.439 9.82681 255.59 9.80801 255.72 9.81553C255.85 9.82305 255.971 9.85438 256.075 9.88194C256.196 9.91452 256.308 9.91827 256.473 9.90574C256.68 9.88945 256.897 9.8857 257.108 9.87692C257.225 9.90073 257.346 9.92453 257.459 9.95084C257.576 9.97841 257.701 9.9759 257.861 9.96713C258.393 9.93706 258.398 9.94083 258.843 10.0185C259.046 10.0536 259.258 10.0248 259.462 10.016C259.678 10.006 259.881 10.001 260.05 10.0511C260.214 10.0987 260.418 10.105 260.634 10.0899C260.772 10.0799 260.919 10.0736 261.062 10.0699C261.127 10.0686 261.205 10.0736 261.253 10.0837C261.482 10.1363 261.707 10.1839 262.022 10.1501C262.299 10.1601 262.438 10.2628 262.771 10.2428C263.052 10.2253 263.346 10.2215 263.623 10.1989C263.878 10.1789 264.06 10.214 264.19 10.2578C264.423 10.3355 264.752 10.2303 264.986 10.3067C265.12 10.3505 265.293 10.3856 265.552 10.3668C265.838 10.3468 265.929 10.3731 266.011 10.452C266.058 10.4971 266.05 10.5335 265.963 10.5686C265.877 10.6049 265.782 10.5986 265.643 10.5573C265.483 10.5109 265.293 10.5021 265.063 10.5122C264.838 10.5222 264.7 10.457 264.514 10.432C264.328 10.4057 264.107 10.4495 263.913 10.4157C263.454 10.3368 263.454 10.3368 263.143 10.3518C262.931 10.3618 262.71 10.3668 262.503 10.3844C262.256 10.4057 262.096 10.3668 261.927 10.3317C261.867 10.3192 261.806 10.2954 261.754 10.2967C261.257 10.3155 260.755 10.333 260.262 10.3643C260.002 10.3806 259.864 10.3355 259.691 10.3042C259.63 10.2929 259.565 10.2704 259.514 10.2729C259.085 10.2904 258.661 10.313 258.233 10.3343C258.151 10.3681 258.06 10.4007 257.982 10.437C257.9 10.4746 257.788 10.4909 257.623 10.4896C257.351 10.4896 257.083 10.5422 256.81 10.4758C256.529 10.4082 256.507 10.4119 256.235 10.4282C255.889 10.4495 255.521 10.4445 255.197 10.4934C255.14 10.5022 255.08 10.5259 255.08 10.5435C255.075 10.5548 255.166 10.5711 255.223 10.5811C255.413 10.6112 255.633 10.5673 255.824 10.5986C255.949 10.6187 256.053 10.6487 256.179 10.67C256.23 10.6788 256.308 10.6776 256.377 10.6763C256.451 10.6751 256.52 10.6663 256.589 10.6675C256.654 10.6688 256.724 10.6763 256.776 10.6876C257.013 10.7352 257.264 10.7791 257.476 10.8354C257.684 10.8906 257.878 10.853 258.086 10.8505C258.917 10.9382 258.917 10.9394 259.475 10.9119C259.613 10.9056 259.756 10.8981 259.899 10.8993C259.959 10.8993 260.015 10.9219 260.076 10.9344C260.249 10.972 260.413 11.0058 260.656 10.9858C260.863 10.9682 261.084 10.9645 261.296 10.9532C261.581 10.9394 261.581 10.9394 262.066 11.0184C262.187 11.0384 262.317 11.0359 262.472 11.0259C262.606 11.0171 262.745 11.0359 262.84 11.0722C262.879 11.0873 262.866 11.1123 262.879 11.1336C262.451 11.1537 262.018 11.1675 261.603 11.1975C261.335 11.2163 261.214 11.1625 261.036 11.1336C260.976 11.1236 260.911 11.1023 260.855 11.1048C260.431 11.1236 260.007 11.1449 259.583 11.17C259.531 11.1725 259.466 11.2013 259.462 11.2188C259.453 11.2514 259.561 11.2827 259.717 11.2815C259.925 11.2802 260.128 11.2589 260.314 11.3103C260.47 11.3554 260.664 11.3755 260.893 11.3554C261.032 11.3441 261.179 11.3441 261.317 11.3341C261.685 11.304 262.018 11.3103 262.295 11.3955C262.507 11.4181 262.715 11.3968 262.918 11.3855C263.069 11.3767 263.216 11.3679 263.325 11.3917C263.554 11.4419 263.779 11.492 264.094 11.4582C264.436 11.4932 264.696 11.5672 264.981 11.6273C265.115 11.6561 265.219 11.6724 265.375 11.6536C265.44 11.6461 265.518 11.6461 265.587 11.6423C265.73 11.6361 265.881 11.6173 266.011 11.6248C266.14 11.6336 266.249 11.6699 266.365 11.6925C266.422 11.7037 266.487 11.7225 266.543 11.7213C266.759 11.715 266.971 11.7025 267.183 11.6925C267.395 11.6837 267.607 11.6749 267.819 11.6661C267.996 11.6987 268.178 11.7313 268.355 11.7639C268.641 11.7501 268.926 11.7363 269.207 11.7238C269.523 11.7087 269.523 11.71 269.977 11.7877C270.181 11.8228 270.397 11.8002 270.592 11.7839C270.916 11.7576 271.132 11.8052 271.362 11.8553C271.409 11.8654 271.496 11.8716 271.552 11.8666C271.777 11.8491 271.971 11.8629 272.136 11.9092C272.253 11.9418 272.369 11.9568 272.512 11.9506C273.01 11.9268 273.507 11.9017 274.005 11.8804C274.065 11.8779 274.134 11.8892 274.191 11.8992C274.632 11.9756 274.636 11.9794 274.96 11.9593C275.25 11.9418 275.519 11.9343 275.748 12.0032C275.795 12.0182 275.869 12.0395 275.921 12.0383C276.275 12.0257 276.635 12.012 276.985 11.9907C277.145 11.9806 277.257 11.9844 277.383 12.0132C277.543 12.0496 277.686 12.0934 277.95 12.0771C278.681 12.0308 278.685 12.0383 279.55 12.1247C279.611 12.131 279.693 12.121 279.762 12.116C279.909 12.1034 280.017 12.121 280.147 12.1498C280.437 12.2149 280.445 12.2112 280.722 12.1974C280.934 12.1861 281.155 12.1836 281.362 12.1648C281.683 12.1373 281.895 12.1861 282.132 12.2325C282.323 12.2688 282.543 12.2387 282.747 12.2275C282.967 12.2149 283.166 12.2187 283.331 12.2663C283.443 12.2989 283.564 12.3164 283.707 12.3102C284.204 12.2876 284.702 12.2625 285.199 12.24C285.26 12.2375 285.333 12.2475 285.39 12.2563C285.883 12.334 285.883 12.3377 286.372 12.3089C286.527 12.3001 286.657 12.2976 286.774 12.3239C286.886 12.349 287.008 12.3728 287.124 12.3966C287.336 12.3878 287.553 12.3853 287.76 12.3703C287.92 12.359 288.033 12.364 288.158 12.3904C288.322 12.4242 288.461 12.4831 288.72 12.4542C288.855 12.4405 289.01 12.4442 289.144 12.4317C289.304 12.4154 289.413 12.4254 289.538 12.458C289.694 12.4968 289.854 12.5369 290.105 12.5169C290.381 12.4943 290.676 12.4906 290.957 12.473C291.112 12.463 291.221 12.473 291.346 12.5056C291.502 12.547 291.679 12.5733 291.921 12.557C292.415 12.5257 292.419 12.5319 292.899 12.6109C293.02 12.6309 293.15 12.6284 293.306 12.6184C293.44 12.6096 293.578 12.6284 293.673 12.6647C293.764 12.7048 293.755 12.7299 293.764 12.7512ZM255.218 1.45082C255.075 1.45708 254.933 1.4646 254.725 1.35559C254.712 1.3368 254.721 1.31425 254.691 1.29796C254.621 1.26413 254.513 1.24033 254.383 1.23657C254.15 1.23156 253.869 1.27415 253.873 1.30672C253.877 1.33429 253.951 1.35809 254.094 1.38064C254.154 1.38942 254.202 1.40445 254.258 1.41448C254.422 1.44329 254.552 1.49969 254.79 1.47087C254.768 1.43203 254.747 1.39319 254.79 1.47087C254.768 1.51848 254.833 1.55231 254.989 1.56609C255.032 1.56985 255.097 1.56734 255.132 1.55982C255.266 1.53226 255.287 1.49468 255.188 1.39569C255.171 1.41198 255.184 1.44079 255.223 1.44831C255.261 1.45583 255.357 1.44957 255.404 1.4408C255.525 1.41699 255.586 1.38567 255.556 1.35935C255.538 1.34557 255.456 1.32803 255.404 1.32803C255.313 1.32803 255.231 1.35559 255.218 1.45082ZM290.195 15.9813C289.88 16.0051 289.516 15.9963 289.201 16.0452C289.144 16.054 289.088 16.0765 289.084 16.0941C289.08 16.1054 289.166 16.1216 289.218 16.1304C289.335 16.1505 289.464 16.1442 289.616 16.1379C289.845 16.1292 289.979 16.1868 290.157 16.2156C290.213 16.2244 290.286 16.2306 290.347 16.2281C290.697 16.2131 291.043 16.1968 291.394 16.1793C291.454 16.1755 291.519 16.1667 291.571 16.1555C291.744 16.1191 291.727 16.0953 291.558 16.0678C291.372 16.0377 291.225 15.9876 291.035 15.9638C290.762 15.9299 290.485 15.975 290.195 15.9813ZM265.63 16.896C265.418 16.906 265.21 16.916 264.998 16.926C264.929 16.9298 264.856 16.931 264.791 16.9361C264.657 16.9448 264.557 16.9711 264.492 17.0125C264.592 17.0451 264.713 17.0639 264.847 17.0601C265.059 17.0526 265.267 17.0363 265.479 17.0325C265.708 17.0275 265.842 17.0839 266.019 17.1127C266.076 17.1215 266.145 17.1227 266.21 17.124C266.53 17.129 266.724 17.0639 266.664 16.9724C266.621 16.901 266.456 16.8584 266.257 16.8672C266.05 16.8759 265.838 16.8859 265.63 16.896ZM291.675 14.1294C291.727 14.1081 291.783 14.0931 291.809 14.0743C291.887 14.0104 291.857 13.9628 291.714 13.9127C291.541 13.8513 291.329 13.8926 291.134 13.8989C291.087 13.9002 291.035 13.9265 291.009 13.9428C290.991 13.954 290.991 13.9778 291.017 13.9841C291.229 14.0342 291.454 14.0806 291.675 14.1294ZM254.15 10.4282C253.942 10.4383 253.73 10.4458 253.523 10.4596C253.471 10.4633 253.423 10.4871 253.393 10.5034C253.337 10.5335 253.397 10.5748 253.574 10.5786C253.778 10.5836 253.99 10.5623 254.202 10.5523C254.47 10.5397 254.63 10.4934 254.53 10.4533C254.435 10.4144 254.306 10.4069 254.15 10.4282ZM26.4514 7.75067C26.5898 7.7444 26.7325 7.73939 26.8709 7.73062C27.0007 7.72185 27.1003 7.69428 27.1652 7.65293C27.057 7.62036 26.9359 7.60282 26.8018 7.60657C26.5898 7.61409 26.3822 7.62412 26.1746 7.63664C26.0448 7.64416 25.9194 7.67173 25.8891 7.71433C25.8588 7.7469 26.1486 7.7657 26.4514 7.75067ZM235.857 7.55771C235.913 7.56898 235.969 7.59154 236.025 7.59154C236.164 7.59154 236.306 7.58402 236.436 7.57149C236.492 7.56648 236.536 7.54393 236.562 7.52638C236.579 7.51511 236.575 7.49507 236.549 7.48504C236.423 7.4249 235.921 7.4462 235.839 7.51511C235.831 7.52764 235.852 7.54393 235.857 7.55771ZM222.209 0.696537C222.222 0.716584 222.226 0.736629 222.244 0.756676C222.278 0.794265 222.373 0.821835 222.512 0.84063C222.62 0.809306 222.676 0.774229 222.672 0.73664C222.668 0.716593 222.655 0.696533 222.637 0.676486C222.603 0.638897 222.508 0.611342 222.369 0.592548C222.261 0.622618 222.209 0.657696 222.209 0.696537ZM301.671 17.114C301.633 17.1303 301.594 17.1466 301.55 17.1616C301.667 17.1979 301.775 17.2092 301.858 17.1892C301.909 17.1766 301.94 17.1578 301.979 17.1415C301.862 17.1052 301.758 17.0952 301.671 17.114ZM298.981 17.2844C299.037 17.2957 299.089 17.3107 299.15 17.3182C299.249 17.3307 299.34 17.3094 299.409 17.2643C299.353 17.2531 299.301 17.238 299.24 17.2305C299.141 17.218 299.05 17.2393 298.981 17.2844ZM300.685 17.0551C300.655 17.0852 300.716 17.1102 300.876 17.1315C300.915 17.1152 300.966 17.1002 300.992 17.0827C301.036 17.0538 300.962 17.0275 300.806 17.0075C300.763 17.0225 300.724 17.0388 300.685 17.0551ZM291.554 15.7044C291.523 15.7345 291.584 15.7595 291.744 15.7808C291.783 15.7645 291.835 15.7495 291.861 15.732C291.904 15.7032 291.831 15.6768 291.675 15.6568C291.632 15.6718 291.593 15.6881 291.554 15.7044ZM279.113 6.83851C279.074 6.8548 279.035 6.87109 278.992 6.88613C279.109 6.92246 279.217 6.93374 279.299 6.91369C279.351 6.90116 279.381 6.88236 279.42 6.86608C279.303 6.82974 279.2 6.81972 279.113 6.83851ZM267.196 2.13492C267.3 2.1437 267.386 2.12616 267.46 2.0798C267.404 2.06853 267.352 2.05349 267.291 2.04597C267.192 2.03344 267.101 2.05475 267.032 2.09985C267.088 2.11238 267.144 2.12365 267.196 2.13492ZM260.868 1.84048C260.829 1.85677 260.79 1.87306 260.746 1.8881C260.863 1.92443 260.971 1.93571 261.054 1.91566C261.105 1.90313 261.136 1.88433 261.175 1.86804C261.058 1.83171 260.954 1.82294 260.868 1.84048ZM217.953 0.695283C217.914 0.711571 217.875 0.72786 217.832 0.742896C217.948 0.779231 218.057 0.790504 218.139 0.770457C218.191 0.757928 218.221 0.739133 218.26 0.722844C218.143 0.686509 218.039 0.677742 217.953 0.695283ZM4.26937 10.8893C4.21314 10.878 4.15695 10.8668 4.10505 10.8542C3.9796 10.8881 3.94068 10.9194 4.00989 10.9432C4.05315 10.9582 4.11799 10.967 4.17422 10.9783C4.30399 10.9444 4.33426 10.9144 4.26937 10.8893Z" fill="#4F9CF9"/>
</svg>
