<svg width="230" height="30" viewBox="0 0 230 30" fill="none" xmlns="http://www.w3.org/2000/svg">
<path d="M215.573 13.0497C215.26 13.0786 214.943 13.1008 214.637 13.1404C214.438 13.1653 214.351 13.1075 214.217 13.0792C214.172 13.0693 214.124 13.0486 214.083 13.0523C213.773 13.0811 213.463 13.1127 213.153 13.1442C213.059 13.1994 213 13.2715 212.855 13.3007C212.713 13.3284 212.545 13.3322 212.387 13.348C212.178 13.3678 211.969 13.3875 211.76 13.4058C211.656 13.415 211.571 13.4428 211.537 13.4926C211.531 13.5009 211.601 13.5197 211.639 13.531C211.767 13.569 211.892 13.6124 212.032 13.6405C212.166 13.6674 212.33 13.6147 212.473 13.6495C212.795 13.7279 212.798 13.7265 213.042 13.7046C213.251 13.6849 213.46 13.6639 213.669 13.6482C213.71 13.6446 213.758 13.6639 213.802 13.6737C213.936 13.7006 214.023 13.7667 214.219 13.7364C214.368 13.7126 214.533 13.7048 214.688 13.6904C214.818 13.7269 214.94 13.769 215.08 13.7971C215.211 13.8241 215.249 13.8463 215.181 13.8874C215.118 13.9255 215.03 13.9425 214.912 13.9479C214.808 13.9516 214.703 13.9662 214.599 13.9754C214.545 13.9807 214.495 13.9846 214.444 13.9898C214.245 14.0093 214.245 14.0093 213.878 13.9306C213.735 13.8998 213.574 13.9511 213.437 13.9216C213.345 13.9019 213.265 13.871 213.175 13.8499C213.137 13.8413 213.077 13.8413 213.029 13.8451C212.871 13.8582 212.713 13.8686 212.561 13.8898C212.454 13.9044 212.391 13.944 212.405 13.9818C212.408 13.9967 212.485 14.0167 212.529 14.017C212.631 14.0175 212.738 13.996 212.836 14.0032C212.932 14.0106 213.031 14.0356 213.101 14.0639C213.245 14.1232 213.405 14.0638 213.542 14.077C213.685 14.0915 213.804 14.1432 213.941 14.1727C213.976 14.1801 214.042 14.165 214.096 14.1597C214.251 14.1466 214.406 14.1349 214.561 14.1219C214.692 14.1584 214.832 14.1906 214.951 14.2328C215.165 14.3096 215.394 14.3356 215.669 14.2899C215.824 14.2646 215.976 14.2694 216.101 14.3196C216.229 14.3711 216.374 14.3624 216.536 14.3478C216.685 14.3335 216.836 14.3002 216.989 14.3348C217.321 14.4116 217.324 14.4156 217.713 14.3741C217.83 14.3619 217.919 14.3572 218.008 14.3865C218.091 14.4131 218.181 14.4356 218.267 14.4609C218.422 14.4478 218.58 14.4347 218.735 14.4203C218.934 14.4008 219.046 14.4173 219.095 14.4924C219.125 14.538 219.138 14.5798 219.209 14.6095C219.292 14.6457 219.381 14.6424 219.501 14.6287C219.615 14.6166 219.697 14.5998 219.743 14.5498C219.762 14.5289 219.8 14.509 219.834 14.4919C219.862 14.479 219.906 14.459 219.932 14.4611C219.979 14.4655 220.043 14.479 220.059 14.4963C220.218 14.6573 220.218 14.6587 220.378 14.7027C220.554 14.7518 220.735 14.7953 220.895 14.8515C221.039 14.9013 221.181 14.875 221.337 14.8714C221.454 14.8688 221.531 14.9024 221.522 14.938C221.516 14.9585 221.472 14.9894 221.434 14.993C221.124 15.0273 220.811 15.0575 220.498 15.0837C220.46 15.0873 220.412 15.0639 220.367 15.0527C220.278 15.0302 220.198 14.9939 220.102 14.9879C220.007 14.9819 219.897 15.0048 219.792 15.014C219.688 15.0232 219.577 15.0434 219.482 15.0347C219.387 15.026 219.31 14.9883 219.22 14.9644C219.179 14.9531 219.121 14.9368 219.087 14.9416C218.856 14.9795 218.684 14.9385 218.518 14.8824C218.482 14.871 218.422 14.8642 218.378 14.8679C218.011 14.8994 217.647 14.9349 217.28 14.9691C217.131 14.9834 217.009 14.9385 216.976 14.859C216.959 14.8144 216.926 14.7703 216.925 14.7254C216.923 14.6438 216.748 14.6029 216.621 14.6153C216.412 14.6336 216.2 14.6493 215.995 14.6744C215.827 14.6946 215.684 14.6815 215.569 14.6351C215.434 14.5824 215.283 14.5967 215.131 14.6151C215.017 14.6286 214.986 14.6742 214.995 14.787C215.004 14.8779 214.95 14.9077 214.745 14.9274C214.485 14.9523 214.223 14.9773 213.96 14.9983C213.919 15.0019 213.871 14.9799 213.829 14.9686C213.74 14.9461 213.66 14.9085 213.564 14.9025C213.469 14.8951 213.359 14.9181 213.254 14.9286C213.15 14.9378 213.039 14.9593 212.944 14.952C212.849 14.9446 212.768 14.9056 212.682 14.8817C212.641 14.8704 212.59 14.8539 212.549 14.8575C212.34 14.8732 212.131 14.8943 211.922 14.914C211.688 14.9356 211.688 14.9356 211.353 14.8589C211.2 14.8243 211.049 14.8576 210.9 14.8719C210.742 14.8864 210.593 14.8952 210.468 14.8436C210.385 14.8101 210.292 14.7905 210.194 14.7995C209.931 14.8218 209.672 14.8481 209.409 14.8704C209.365 14.8741 209.305 14.8687 209.269 14.8573C209.1 14.8039 208.934 14.7628 208.7 14.7967C208.498 14.8258 208.279 14.8321 208.077 14.8599C207.966 14.8746 207.917 14.9193 207.94 14.9528C207.953 14.9702 208.02 14.9891 208.064 14.9881C208.166 14.9871 208.276 14.9642 208.371 14.9702C208.568 14.982 208.669 15.0941 208.925 15.0569C209.077 15.0344 209.235 15.024 209.394 15.015C209.435 15.0127 209.48 15.0375 209.524 15.0501C209.652 15.084 209.764 15.129 209.947 15.1004C210.099 15.0779 210.261 15.0688 210.416 15.0544C210.662 15.0311 210.663 15.0324 210.985 15.1081C211.138 15.1441 211.289 15.1094 211.438 15.0964C211.549 15.0871 211.653 15.0711 211.742 15.0882C211.879 15.1136 211.979 15.1767 212.147 15.1688C212.305 15.1611 212.46 15.1385 212.618 15.1281C212.716 15.1218 212.809 15.1415 212.889 15.1764C212.972 15.2112 213.061 15.2255 213.169 15.2149C213.324 15.2005 213.482 15.1833 213.64 15.1729C213.685 15.1706 213.736 15.1816 213.777 15.1916C213.867 15.2141 213.953 15.2407 214.039 15.2646C214.194 15.2529 214.353 15.2465 214.504 15.2268C214.621 15.2119 214.704 15.2154 214.8 15.2405C214.921 15.2745 215.021 15.3375 215.216 15.3018C215.314 15.2846 215.429 15.286 215.526 15.2702C215.646 15.2498 215.729 15.2547 215.816 15.2936C215.979 15.3674 216.182 15.3642 216.39 15.3295C216.618 15.2917 216.79 15.3259 216.962 15.3818C217.145 15.4403 217.145 15.4389 217.287 15.5867C217.33 15.6293 217.447 15.647 217.545 15.6366C217.71 15.6193 217.853 15.6228 217.974 15.6718C218.103 15.7247 218.254 15.7144 218.409 15.6959C218.615 15.6708 218.821 15.6485 218.99 15.7235C219.074 15.7597 219.163 15.7672 219.273 15.7552C219.587 15.7236 219.903 15.7014 220.21 15.6645C220.397 15.6412 220.505 15.6823 220.633 15.7161C220.805 15.7626 220.993 15.8032 220.996 15.9106C220.996 15.9283 221.041 15.9477 221.079 15.9604C221.163 15.9871 221.252 16.0096 221.338 16.0349C221.466 16.0728 221.59 16.104 221.764 16.0782C221.916 16.0571 222.077 16.048 222.232 16.0322C222.387 16.0164 222.53 16.0064 222.67 16.0549C222.833 16.1097 223.006 16.1616 223.191 16.2009C223.321 16.2293 223.491 16.1723 223.632 16.2113C223.718 16.2352 223.801 16.2633 223.893 16.2829C223.932 16.2916 223.992 16.2834 224.043 16.2795C224.147 16.2717 224.255 16.2652 224.356 16.2493C224.473 16.2317 224.561 16.2324 224.651 16.2616C224.734 16.2883 224.817 16.3259 224.913 16.3319C225.056 16.3409 225.213 16.2829 225.357 16.3422C225.43 16.3718 225.523 16.3997 225.618 16.407C225.714 16.4144 225.824 16.3915 225.926 16.3905C225.97 16.3895 226.024 16.41 226.05 16.4271C226.066 16.4363 226.045 16.4627 226.023 16.4768C225.995 16.4937 225.954 16.5164 225.913 16.5201C225.6 16.5517 225.286 16.5792 224.973 16.6095C224.786 16.6273 224.786 16.6273 224.407 16.5502C224.318 16.5318 224.22 16.5381 224.109 16.5502C223.96 16.5658 223.809 16.5924 223.653 16.5715C223.448 16.4836 223.197 16.4811 222.932 16.5225C222.821 16.54 222.72 16.5423 222.637 16.5183C222.461 16.4706 222.276 16.4272 222.12 16.3695C221.998 16.3247 221.941 16.3219 221.892 16.3883C221.876 16.4091 221.861 16.4312 221.865 16.4502C221.885 16.5177 221.922 16.5836 221.942 16.6512C221.949 16.6701 221.924 16.6924 221.909 16.7132C221.859 16.7714 221.793 16.7689 221.681 16.7238C221.569 16.6787 221.435 16.6505 221.258 16.6762C221.106 16.6987 220.941 16.6998 220.79 16.7236C220.556 16.7589 220.39 16.7191 220.22 16.6644C220.185 16.653 220.125 16.6476 220.081 16.6513C219.609 16.6933 219.141 16.7393 218.669 16.7814C218.568 16.7905 218.476 16.7721 218.395 16.7372C218.312 16.7024 218.22 16.6854 218.119 16.6945C217.701 16.7326 217.283 16.768 216.865 16.8128C216.695 16.8317 216.558 16.8171 216.44 16.7722C216.35 16.7388 216.267 16.7298 216.157 16.7364C216.036 16.7432 215.951 16.7588 215.892 16.7996C215.835 16.839 215.877 16.8611 216.005 16.8882C216.142 16.9177 216.269 16.957 216.4 16.9921C216.505 16.9843 216.609 16.9711 216.711 16.9701C216.755 16.9691 216.797 16.9926 216.841 17.0052C216.969 17.0418 217.087 17.0786 217.267 17.0527C217.419 17.0302 217.581 17.0225 217.736 17.0067C217.951 16.9868 217.951 16.9868 218.302 17.0646C218.391 17.0843 218.486 17.0808 218.6 17.066C218.698 17.0542 218.8 17.0709 218.87 17.1102C218.899 17.1258 218.89 17.1533 218.832 17.2444C218.834 17.311 218.9 17.2796 218.921 17.2356C218.954 17.1722 218.887 17.1533 218.761 17.1902C218.673 17.2167 218.629 17.2531 218.652 17.2811C218.665 17.2958 218.726 17.3135 218.832 17.2444C219.109 17.1565 219.321 17.1421 219.524 17.1157C219.644 17.1007 219.72 17.1045 219.816 17.1377C219.931 17.1772 220.046 17.2195 220.233 17.1935C220.435 17.1644 220.65 17.1568 220.856 17.1317C221.046 17.1083 221.145 17.166 221.267 17.1986C221.413 17.2374 221.574 17.1862 221.708 17.2076C221.848 17.2289 221.947 17.2865 222.109 17.2937C222.343 17.2517 222.493 17.3163 222.672 17.3571C222.812 17.388 222.976 17.3543 223.125 17.336C223.293 17.3158 223.432 17.3276 223.551 17.3739C223.685 17.4266 223.834 17.411 223.986 17.3953C224.34 17.36 224.353 17.3557 224.56 17.4258C224.711 17.4768 224.853 17.4491 225.002 17.4389C225.132 17.4727 225.26 17.5092 225.397 17.5388C225.432 17.5461 225.498 17.531 225.552 17.5257C225.707 17.5113 225.866 17.4968 226.021 17.4824C226.125 17.4732 226.236 17.4503 226.331 17.4563C226.426 17.4637 226.506 17.5013 226.592 17.5252C226.679 17.5491 226.768 17.5729 226.851 17.5983C226.979 17.6362 227.1 17.6674 227.277 17.643C227.429 17.6219 227.587 17.6128 227.745 17.597C227.945 17.5775 227.938 17.5817 228.311 17.6549C228.512 17.6952 228.717 17.6361 228.919 17.6261C229.021 17.6211 229.119 17.6338 229.19 17.6716C229.219 17.6873 229.21 17.7147 229.22 17.7376C228.698 17.7863 228.172 17.8295 227.657 17.8861C227.458 17.9083 227.352 17.8617 227.243 17.8234C227.064 17.7621 226.832 17.8627 226.662 17.7822C226.559 17.7342 226.413 17.7089 226.239 17.7374C226.138 17.7533 226.03 17.7544 225.926 17.769C225.66 17.8049 225.416 17.8119 225.202 17.7228C225.128 17.6919 225.023 17.6766 224.946 17.647C224.857 17.615 224.771 17.5979 224.666 17.6071C224.195 17.6505 223.726 17.6938 223.258 17.7398C223.217 17.7435 223.176 17.7648 223.142 17.7805C223.054 17.8206 223.083 17.8499 223.226 17.8712C223.274 17.8782 223.312 17.8951 223.357 17.9076C223.443 17.9315 223.523 17.9705 223.619 17.9779C223.714 17.9853 223.825 17.9637 223.929 17.9545C224.033 17.9453 224.144 17.9224 224.239 17.9284C224.334 17.9358 224.415 17.9734 224.504 17.9959C224.545 18.0072 224.597 18.0264 224.638 18.0241C224.847 18.0112 225.052 17.9916 225.261 17.9746C225.392 18.0084 225.504 18.0589 225.66 18.0676C225.758 18.0735 225.863 18.0562 225.964 18.0566C226.009 18.0569 226.066 18.076 226.089 18.0932C226.102 18.1038 226.061 18.132 226.03 18.1463C225.91 18.2007 225.745 18.1949 225.597 18.2146C225.436 18.236 225.29 18.2339 225.165 18.1836C225.082 18.1501 224.989 18.1332 224.888 18.1423C224.625 18.166 224.366 18.1923 224.103 18.2132C224.059 18.2169 224.005 18.2059 223.963 18.1973C223.628 18.1219 223.628 18.1192 223.394 18.1422C223.049 18.1759 223.049 18.1759 222.816 18.1091C222.772 18.0965 222.723 18.0717 222.685 18.074C222.318 18.1041 221.954 18.1341 221.59 18.1737C221.47 18.186 221.388 18.1878 221.298 18.1545C221.222 18.1263 221.132 18.0943 221.037 18.0883C220.938 18.0824 220.831 18.1052 220.726 18.1144C220.622 18.1236 220.512 18.1438 220.419 18.135C220.324 18.1263 220.241 18.0901 220.158 18.0648C220.071 18.0381 219.98 18.0416 219.863 18.0551C219.502 18.0946 219.499 18.0906 219.139 18.0144C219.097 18.0058 219.043 17.9962 218.999 17.9999C218.736 18.0222 218.477 18.0485 218.214 18.0708C218.113 18.0799 218.014 18.0645 217.943 18.0266C217.914 18.011 217.923 17.9835 217.903 17.9309C217.881 17.9192 217.906 17.9404 217.913 17.9606C217.961 17.9568 218.018 17.9583 218.052 17.9466C218.141 17.9187 218.184 17.8837 218.161 17.8557C218.148 17.841 218.088 17.8233 218.05 17.8242C217.98 17.8258 217.92 17.857 217.903 17.9309C217.704 17.9803 217.492 17.9947 217.287 18.0211C217.166 18.0375 217.09 18.0324 216.994 17.9992C216.879 17.9583 216.761 17.9188 216.574 17.9448C216.372 17.9739 216.157 17.9829 215.948 18.0067C215.708 18.0339 215.6 17.9139 215.397 17.9212C215.188 17.9287 214.98 17.9566 214.771 17.9776C214.587 17.9954 214.587 17.9954 214.205 17.9157C214.065 17.8862 213.901 17.9375 213.764 17.9066C213.671 17.887 213.591 17.8561 213.502 17.835C213.464 17.8264 213.404 17.8277 213.356 17.8315C213.094 17.8538 212.828 17.8708 212.575 17.9064C212.287 17.9484 212.067 17.9153 211.86 17.8397C211.6 17.8606 211.337 17.8747 211.081 17.9064C210.894 17.9297 210.786 17.8872 210.658 17.8534C210.613 17.8422 210.575 17.8226 210.527 17.8183C210.479 17.8139 210.423 17.8261 210.372 17.8313C210.163 17.851 209.948 17.8627 209.745 17.8918C209.496 17.9288 209.398 17.8194 209.204 17.8102C209.076 17.8798 209.008 17.9725 208.752 17.9852C208.543 17.9954 208.334 18.0219 208.125 18.0416C208.021 18.0508 207.916 18.0613 207.812 18.0705C207.644 18.0866 207.566 18.1414 207.603 18.2222C207.623 18.2667 207.64 18.3112 207.657 18.3557C207.69 18.4352 207.613 18.505 207.48 18.5176C207.113 18.5518 206.749 18.5873 206.382 18.6187C206.284 18.6278 206.188 18.6068 206.108 18.5719C206.025 18.537 205.932 18.5228 205.831 18.5319C205.464 18.5661 205.1 18.6016 204.733 18.6331C204.692 18.6368 204.638 18.6244 204.596 18.6144C204.507 18.592 204.421 18.5654 204.334 18.5415C204.126 18.5585 203.92 18.5713 203.714 18.5923C203.382 18.6243 203.382 18.6257 203.136 18.5564C203.091 18.5439 203.046 18.519 203.005 18.5213C202.847 18.5304 202.692 18.5475 202.534 18.5633C202.069 18.6093 202.069 18.6093 201.931 18.5716C201.807 18.5363 201.695 18.4926 201.508 18.5186C201.306 18.5477 201.091 18.5608 200.882 18.5791C200.727 18.5922 200.572 18.6066 200.416 18.6128C200.375 18.6151 200.33 18.5903 200.286 18.5777C200.158 18.5384 200.033 18.5072 199.86 18.5343C199.758 18.5502 199.651 18.5554 199.546 18.5646C199.274 18.5898 199.274 18.5898 198.825 18.5184C198.781 18.5112 198.727 18.5029 198.682 18.508C198.315 18.5408 197.951 18.5763 197.584 18.6078C197.54 18.6115 197.486 18.6046 197.441 18.5988C196.939 18.5313 196.939 18.5313 196.407 18.5815C196.205 18.5997 196.198 18.6053 195.984 18.538C195.889 18.5089 195.809 18.4958 195.698 18.5078C195.281 18.5499 194.86 18.5813 194.445 18.6288C194.259 18.6494 194.15 18.611 194.022 18.5772C193.978 18.566 193.929 18.5398 193.891 18.5421C193.474 18.5774 193.056 18.6182 192.638 18.6536C192.6 18.6572 192.552 18.631 192.507 18.6198C192.421 18.5973 192.338 18.5624 192.243 18.5564C192.144 18.5505 192.037 18.5733 191.929 18.5826C191.667 18.6062 191.667 18.6049 191.36 18.5316C191.319 18.5216 191.265 18.5079 191.224 18.5115C190.806 18.5482 190.385 18.581 189.971 18.6298C189.733 18.657 189.571 18.6212 189.401 18.5679C189.366 18.5565 189.306 18.5524 189.262 18.5561C188.79 18.5982 188.322 18.6442 187.85 18.6862C187.752 18.6952 187.656 18.6743 187.576 18.6407C187.448 18.5878 187.3 18.598 187.141 18.6138C186.778 18.6507 186.774 18.6494 186.557 18.589C186.513 18.5764 186.474 18.5596 186.426 18.5539C186.382 18.5481 186.325 18.5535 186.277 18.5573C186.069 18.5756 185.86 18.5954 185.651 18.6151C185.442 18.6348 185.23 18.6478 185.024 18.6756C184.771 18.7099 184.649 18.6242 184.47 18.5875C184.211 18.6111 183.945 18.628 183.689 18.6624C183.493 18.6886 183.4 18.6309 183.269 18.6025C183.224 18.5927 183.176 18.5706 183.135 18.5743C182.663 18.6149 182.192 18.6583 181.724 18.7057C181.61 18.7165 181.534 18.7073 181.438 18.6768C181.224 18.6082 181.214 18.6112 180.86 18.6464C180.705 18.6622 180.556 18.6765 180.422 18.6237C180.303 18.5761 180.16 18.5671 179.993 18.5872C179.787 18.6123 179.575 18.628 179.366 18.6464C179.157 18.6661 178.949 18.6912 178.74 18.7028C178.572 18.7134 178.469 18.6518 178.335 18.6222C178.293 18.6136 178.236 18.6135 178.189 18.6173C177.98 18.6343 177.765 18.6487 177.562 18.6765C177.316 18.7106 177.178 18.6389 177.002 18.5994C176.964 18.5907 176.901 18.5976 176.853 18.6028C176.486 18.6356 176.122 18.6711 175.755 18.7053C175.625 18.6715 175.491 18.6392 175.36 18.6054C175.151 18.6238 174.942 18.6435 174.733 18.6619C174.575 18.6763 174.413 18.6841 174.265 18.7079C174.072 18.7395 173.976 18.6777 173.845 18.6494C173.8 18.6395 173.752 18.6175 173.711 18.6211C173.448 18.6421 173.186 18.6644 172.926 18.6934C172.68 18.7221 172.579 18.602 172.376 18.6079C172.167 18.6141 171.951 18.6366 171.749 18.6657C171.515 18.6996 171.349 18.6598 171.18 18.6052C171.145 18.5937 171.085 18.5883 171.04 18.592C170.778 18.6143 170.518 18.6406 170.255 18.6629C170.211 18.6667 170.157 18.6611 170.112 18.654C169.61 18.5851 169.61 18.5837 169.391 18.605C169.236 18.6194 169.078 18.6366 168.92 18.647C168.876 18.6508 168.821 18.6398 168.78 18.6298C168.448 18.5543 168.448 18.553 168.211 18.5747C168.002 18.5944 167.793 18.6141 167.584 18.6338C167.454 18.6001 167.32 18.5678 167.189 18.534C166.929 18.5576 166.663 18.5772 166.407 18.6075C166.287 18.6211 166.208 18.6189 166.115 18.587C166 18.5488 165.885 18.5037 165.695 18.5312C165.493 18.5603 165.277 18.5679 165.072 18.593C164.825 18.6231 164.721 18.5016 164.521 18.5075C164.312 18.5136 164.097 18.5362 163.895 18.5653C163.661 18.5992 163.495 18.5594 163.326 18.5048C163.29 18.4933 163.23 18.4879 163.186 18.4916C162.61 18.5442 162.037 18.5966 161.461 18.6519C161.107 18.6858 161.107 18.6872 160.43 18.6277C160.382 18.6234 160.331 18.6191 160.284 18.6229C160.075 18.6399 159.86 18.6543 159.657 18.682C159.411 18.7162 159.273 18.6459 159.097 18.605C159.059 18.5963 158.999 18.6031 158.948 18.607C158.79 18.6201 158.635 18.6359 158.477 18.6504C158.268 18.6701 158.059 18.6898 157.85 18.7095C157.72 18.6771 157.586 18.6434 157.455 18.611C157.195 18.6346 156.929 18.6502 156.673 18.6846C156.477 18.7108 156.384 18.6558 156.253 18.6261C156.209 18.6162 156.161 18.5942 156.119 18.5965C155.648 18.6371 155.176 18.6791 154.708 18.7279C154.515 18.7486 154.425 18.6894 154.294 18.6611C154.25 18.6526 154.198 18.636 154.157 18.6397C153.844 18.6659 153.531 18.6961 153.217 18.7264C153.04 18.744 153.04 18.744 152.652 18.6685C152.607 18.66 152.556 18.6516 152.512 18.6553C151.518 18.7459 150.528 18.8406 149.534 18.9312C149.433 18.9403 149.34 18.922 149.26 18.8871C149.177 18.8522 149.085 18.8353 148.983 18.8444C148.566 18.8825 148.145 18.9179 147.73 18.9627C147.559 18.9815 147.423 18.967 147.304 18.922C147.215 18.8887 147.132 18.877 147.021 18.8876C146.813 18.9087 146.604 18.9271 146.395 18.9468C146.186 18.9665 145.977 18.9862 145.768 19.0059C145.559 19.0257 145.347 19.0386 145.142 19.0664C144.889 19.1008 144.763 19.0193 144.588 18.9811C144.275 19.0086 143.961 19.0361 143.651 19.0649C143.233 19.103 142.816 19.1438 142.398 19.1805C142.36 19.1841 142.312 19.1607 142.267 19.1495C142.137 19.1184 142.04 19.073 141.847 19.0923C140.911 19.1857 139.968 19.2684 139.028 19.3605C138.832 19.38 138.745 19.3234 138.611 19.2952C138.566 19.2867 138.515 19.2688 138.474 19.2724C137.952 19.3183 137.43 19.3683 136.908 19.4169C136.696 19.4367 136.696 19.4367 136.339 19.3604C136.297 19.3518 136.243 19.3408 136.199 19.3446C135.518 19.4063 134.841 19.4707 134.161 19.5338C134.06 19.5429 133.967 19.5259 133.884 19.4911C133.804 19.4562 133.708 19.4379 133.61 19.447C132.984 19.5047 132.354 19.5612 131.73 19.623C131.563 19.6405 131.423 19.6314 131.301 19.5852C131.215 19.5517 131.129 19.5387 131.022 19.5493C130.082 19.6374 129.142 19.7227 128.202 19.8148C128.022 19.8325 127.894 19.8096 127.779 19.7673C127.686 19.734 127.607 19.729 127.493 19.737C127.373 19.7466 127.3 19.7632 127.235 19.8055C127.15 19.8605 127.098 19.9284 126.895 19.9371C126.686 19.9459 126.474 19.9671 126.269 19.9949C126.073 20.0224 125.979 19.9633 125.855 19.9294C125.762 19.9057 125.677 19.9035 125.56 19.9184C125.452 19.9318 125.386 19.9564 125.324 20.0014C125.186 20.097 125.174 20.0973 125.001 20.0427C124.909 20.0135 124.826 19.9909 124.724 19.9987C124.306 20.0354 123.889 20.0748 123.471 20.1156C123.231 20.1387 123.228 20.1415 123.045 20.0776C122.956 20.0457 122.87 20.0313 122.765 20.0418C121.617 20.1496 120.468 20.2546 119.319 20.3665C119.142 20.3841 119.021 20.3583 118.893 20.3203C118.852 20.3077 118.81 20.2896 118.763 20.2852C118.715 20.2809 118.661 20.2875 118.61 20.2914C117.775 20.3689 116.936 20.4438 116.104 20.528C115.914 20.5473 115.812 20.5061 115.681 20.4737C115.637 20.4624 115.598 20.4442 115.55 20.4399C115.503 20.4369 115.446 20.4477 115.395 20.4529C114.56 20.5304 113.721 20.6053 112.889 20.6895C112.69 20.709 112.603 20.6539 112.472 20.6269C112.428 20.617 112.38 20.5977 112.338 20.6013C112.076 20.6223 111.816 20.6486 111.554 20.6723C110.927 20.7314 110.3 20.7878 109.674 20.8483C109.433 20.8715 109.326 20.7528 109.123 20.7629C108.86 20.7757 108.601 20.8088 108.338 20.8338C108.13 20.8535 107.921 20.8719 107.712 20.8929C107.506 20.9126 107.506 20.9126 106.991 20.8454C106.946 20.8396 106.892 20.8313 106.848 20.835C106.117 20.902 105.383 20.969 104.655 21.04C104.487 21.0561 104.348 21.0524 104.226 21.0048C104.14 20.9714 104.051 20.9558 103.946 20.9663C102.848 21.0688 101.753 21.1713 100.655 21.2724C100.614 21.2761 100.56 21.2637 100.518 21.2538C100.429 21.2313 100.343 21.2047 100.256 21.1808C100.194 21.2135 100.112 21.244 100.072 21.2803C100.016 21.3292 99.94 21.3445 99.8197 21.3554C99.6995 21.3663 99.6234 21.3653 99.5275 21.3321C99.4124 21.2912 99.2943 21.2598 99.1076 21.2777C97.959 21.3895 96.8102 21.4932 95.6615 21.6037C95.4717 21.6216 95.3816 21.5638 95.2477 21.5355C95.2032 21.527 95.152 21.5132 95.1109 21.5169C94.6393 21.5589 94.171 21.6035 93.6995 21.6469C92.3926 21.7691 91.0856 21.8873 89.782 22.0149C89.5447 22.038 89.3822 22.0077 89.2129 21.953C89.1777 21.9416 89.1174 21.9361 89.0731 21.9399C87.244 22.1094 85.4149 22.2802 83.589 22.451C83.4909 22.46 83.3953 22.4404 83.3152 22.4069C83.232 22.372 83.1397 22.3564 83.0384 22.3655C82.203 22.443 81.3676 22.5205 80.5322 22.5994C80.3233 22.6191 80.3202 22.6205 80.1031 22.5601C80.0584 22.5476 80.0103 22.5228 79.9755 22.5263C79.9028 22.5348 79.8338 22.5704 79.7841 22.6177C79.7346 22.6679 79.6556 22.6833 79.5386 22.6955C79.4183 22.7077 79.339 22.7054 79.2464 22.6749C79.1281 22.6368 79.0194 22.5998 78.8296 22.6177C76.4279 22.8465 74.026 23.0684 71.6242 23.2958C71.4312 23.3138 71.3411 23.2587 71.2072 23.2305C71.1626 23.222 71.118 23.2094 71.0704 23.2077C71.0196 23.2062 70.9659 23.2156 70.9153 23.2208C66.9977 23.5861 63.0801 23.9527 59.1625 24.318C58.9283 24.3397 58.9315 24.3396 58.6776 24.4706C58.6463 24.4862 58.6055 24.5076 58.5612 24.5113C57.3619 24.6256 56.1594 24.7373 54.9569 24.849C54.4348 24.8977 53.9127 24.9476 53.3905 24.9949C53.2038 25.0114 53.2038 25.0114 52.7603 25.1684C52.7225 25.1815 52.6785 25.1989 52.6342 25.2026C50.5456 25.3984 48.4571 25.5942 46.3653 25.7873C46.2008 25.802 46.0682 25.8295 45.9937 25.8965C45.9409 25.944 45.8718 25.9727 45.7674 25.9833C44.3054 26.1199 42.8435 26.2579 41.3783 26.3919C41.2042 26.4081 41.1004 26.4486 41.0162 26.5077C40.9881 26.5274 40.9632 26.5497 40.9223 26.5642C40.8846 26.5773 40.8276 26.5827 40.7802 26.5879C39.5271 26.7048 38.274 26.8245 37.0176 26.9374C36.8309 26.9539 36.756 27.0059 36.6653 27.0611C36.634 27.0795 36.6124 27.1045 36.5714 27.1176C36.5305 27.1295 36.4703 27.1308 36.4196 27.1347C35.3753 27.2319 34.3311 27.3305 33.2868 27.4277C33.0838 27.4255 33.0412 27.5054 32.9441 27.5553C32.9096 27.5724 32.8848 27.5947 32.8438 27.6065C32.7997 27.6184 32.7426 27.6183 32.6887 27.6223C31.8533 27.6998 31.018 27.7814 30.1793 27.8549C29.9862 27.8715 29.9498 27.9417 29.8463 27.9917C29.8118 28.0075 29.7775 28.0314 29.7364 28.0364C29.2143 28.0877 28.6922 28.1363 28.17 28.1836C27.996 28.1998 27.9959 28.1984 27.6916 28.3401C27.6571 28.3558 27.6162 28.3731 27.5719 28.3782C26.7903 28.4531 26.0055 28.5254 25.2208 28.599C25.1195 28.6081 25.0505 28.6423 25.0009 28.6897C24.9512 28.7371 24.879 28.7687 24.7778 28.7778C24.1512 28.8369 23.5246 28.8974 22.898 28.9525C22.7239 28.9674 22.6106 29.004 22.536 29.0669C22.48 29.1144 22.4108 29.1391 22.3 29.1498C21.6735 29.2076 21.047 29.2695 20.4171 29.3219C20.2335 29.337 20.1395 29.3854 20.0647 29.4442C20.0056 29.4918 19.9362 29.5097 19.8191 29.5205C18.6704 29.6256 17.5185 29.7307 16.3731 29.8438C16.1801 29.8632 16.0807 29.8178 15.9531 29.7867C15.7714 29.7432 15.6022 29.6953 15.5998 29.5892C15.5994 29.5729 15.5451 29.5551 15.5067 29.5424C15.2223 29.4468 15.2222 29.4468 15.1754 29.339C15.1485 29.2729 15.1184 29.2056 15.0946 29.1381C15.0508 29.0275 14.9487 29.0012 14.6576 29.0283C14.5531 29.0374 14.4487 29.0493 14.3443 29.0571C14.1892 29.0702 14.0709 29.028 14.0405 28.947C14.0236 28.9025 14.0036 28.858 13.9867 28.8135C14.1449 28.799 14.1417 28.7978 14.4168 28.6269C14.5325 28.5548 14.5325 28.5548 14.3059 28.4906C14.2197 28.4667 14.1366 28.44 14.0441 28.4176C14.0026 28.4076 13.9486 28.4021 13.9043 28.4058C13.6416 28.4281 13.3822 28.4531 13.1227 28.478C12.705 28.5174 12.7049 28.5174 12.277 28.3884C12.2419 28.3783 12.1875 28.3591 12.1936 28.3481C12.2273 28.297 12.3124 28.2732 12.42 28.2654C12.5783 28.2536 12.7333 28.2365 12.8884 28.2221C12.9928 28.2129 13.0972 28.2024 13.2017 28.1932C13.2987 28.1393 13.399 28.0866 13.4897 28.0315C13.6336 27.9466 13.6335 27.9439 13.4325 27.8913C13.3049 27.8561 13.1678 27.8252 13.037 27.7928C12.8819 27.8072 12.7238 27.823 12.5687 27.8361C12.3724 27.8528 12.2926 27.8287 12.2398 27.7415C12.1937 27.665 12.246 27.5971 12.3978 27.5773C12.5527 27.5575 12.6983 27.5433 12.776 27.4721C12.8505 27.4037 12.983 27.3749 13.1477 27.3657C13.2522 27.3592 13.3566 27.3473 13.461 27.3368C13.597 27.3228 13.6683 27.2518 13.638 27.1749C13.621 27.125 13.5883 27.0835 13.4645 27.0754C12.915 27.0403 12.9087 27.0418 12.6339 26.9555C12.6084 26.9479 12.5889 26.9239 12.5981 26.9114C12.6135 26.8907 12.6476 26.86 12.6856 26.855C13.0494 26.8168 13.4133 26.7813 13.7773 26.7526C13.8976 26.7431 13.9861 26.7315 14.0262 26.6803C14.0816 26.6096 14.0548 26.5463 13.9427 26.5012C13.9075 26.487 13.85 26.4693 13.812 26.4715C13.3942 26.5055 12.9797 26.5462 12.5619 26.5802C12.5239 26.5838 12.4537 26.5623 12.4374 26.545C12.4049 26.513 12.4515 26.4684 12.562 26.451C12.7074 26.4272 12.8563 26.4225 12.953 26.3522C13.0871 26.2526 13.253 26.1604 13.403 26.0644C13.428 26.0475 13.4685 26.0153 13.4589 26.0128C13.379 25.9847 13.2865 25.9636 13.2035 25.937C13.0629 25.8925 13.0613 25.8259 13.0916 25.7613C13.1157 25.709 13.2103 25.6864 13.3276 25.6838C13.3783 25.6826 13.4417 25.6812 13.4826 25.668C13.5897 25.6356 13.6237 25.5967 13.5692 25.5694C13.5371 25.5538 13.4795 25.532 13.4416 25.5356C12.7643 25.5959 12.0838 25.6549 11.4099 25.726C11.2106 25.7469 11.1176 25.6973 10.9963 25.6633C10.9037 25.6368 10.8178 25.6279 10.7042 25.6509C10.5969 25.6723 10.492 25.6639 10.4244 25.6205C10.3697 25.585 10.4641 25.5515 10.72 25.5103C10.7674 25.5025 10.8211 25.4972 10.8557 25.4828C11.22 25.3275 11.2199 25.3262 11.4731 25.3014C11.7199 25.2781 11.7199 25.2767 11.848 25.1949C11.9074 25.1568 11.9731 25.1185 12.0292 25.0792C12.0511 25.0637 12.0885 25.0356 12.0757 25.0277C12.005 24.9872 11.9096 24.9798 11.7989 24.9919C11.5522 25.0206 11.2602 25.0082 11.1332 25.1403C11.0837 25.1905 11.0047 25.2059 10.8908 25.2166C9.74522 25.3216 8.59973 25.432 7.45091 25.5343C7.26419 25.5508 7.17982 25.6031 7.10821 25.6605C7.04588 25.7082 6.97645 25.7234 6.85619 25.7343C6.73594 25.7452 6.6409 25.7514 6.57013 25.7081C6.52829 25.6818 6.56229 25.643 6.6565 25.6027C6.79153 25.5452 6.76459 25.4778 6.71874 25.4149C6.68607 25.3734 6.58712 25.3457 6.48259 25.3508C6.3274 25.3598 6.17881 25.3782 6.0476 25.3267C5.97081 25.2972 5.8752 25.2776 5.78899 25.2523C5.62288 25.2003 5.45673 25.1469 5.2262 25.1889C5.0674 25.1789 4.95533 25.1325 4.82767 25.0973C4.61386 25.0395 4.59462 25.0304 4.74522 24.9603C4.91465 24.8816 4.77924 24.7867 4.87263 24.7111C4.97223 24.6299 5.11014 24.5574 5.23206 24.4812C5.26332 24.4614 5.29145 24.4431 5.3227 24.4233C5.24917 24.3978 5.18184 24.3653 5.09582 24.3482C4.98431 24.3262 4.92657 24.2976 4.93096 24.2131C4.90849 24.2014 4.91865 24.2325 4.9442 24.24C4.97291 24.2476 5.04254 24.2392 5.07719 24.2289C5.16534 24.201 5.20888 24.166 5.18603 24.1379C5.17301 24.1233 5.11239 24.1056 5.07436 24.1065C5.00463 24.108 4.9451 24.1393 4.92778 24.2132C4.57407 24.277 4.20697 24.3126 3.83979 24.3427C3.80182 24.3463 3.75367 24.3202 3.70899 24.3076C3.56211 24.2647 3.56213 24.266 3.13391 24.2621C3.08951 24.2618 3.02887 24.2441 3.00625 24.2256C2.91241 24.1447 2.9135 24.0535 2.86708 23.9661C2.94817 23.9071 3.02923 23.8495 3.11352 23.7918C3.28207 23.675 3.5017 23.5707 3.63196 23.4439C3.60189 23.3779 3.56231 23.3121 3.70052 23.2545C4.09515 23.1775 4.092 23.1776 4.19826 23.1099C4.50144 22.9179 4.8014 22.7247 5.11732 22.5351C5.2018 22.4856 5.20121 22.4598 5.0486 22.4428C5.00093 22.4385 4.95012 22.4382 4.89947 22.4421C4.7412 22.4552 4.58329 22.4833 4.42785 22.4814C4.27245 22.4809 4.15696 22.4236 4.02932 22.3898C3.89849 22.3546 3.76763 22.3182 3.63676 22.2817C3.48788 22.2891 3.33982 22.3306 3.18943 22.2728C3.07423 22.2278 2.93082 22.197 2.79995 22.1605C2.89582 22.0549 3.07786 21.9719 3.21839 21.8775C3.34643 21.7916 3.34956 21.7929 3.69674 21.721C3.86087 21.6874 3.91437 21.5324 3.77387 21.4907C3.60462 21.4401 3.426 21.3938 3.25364 21.346C3.10476 21.3535 2.9535 21.3937 2.80945 21.3357C2.69745 21.292 2.56991 21.2636 2.38648 21.2854C2.07655 21.3224 1.75995 21.3446 1.44672 21.3762C1.33914 21.3868 1.2217 21.384 1.17309 21.3389C1.14064 21.3069 1.23153 21.26 1.3359 21.2481C1.49407 21.2309 1.63631 21.2113 1.71398 21.1415C1.78848 21.0718 1.92746 21.0482 2.09206 21.0349C2.13637 21.0312 2.18674 21.0137 2.20855 20.9969C2.32084 20.9154 2.44606 20.8445 2.69018 20.8417C2.79098 20.8122 2.84405 20.777 2.8116 20.7451C2.79217 20.7278 2.72511 20.7062 2.68713 20.7098C2.42437 20.7294 2.16161 20.749 1.90544 20.7793C1.78525 20.7929 1.69334 20.7977 1.61633 20.7586C1.56181 20.7326 1.58949 20.6953 1.69 20.6535C1.77797 20.6175 1.80244 20.5775 1.79503 20.5314C1.7767 20.4243 1.68087 20.3952 1.37674 20.4089C1.15817 20.4193 1.10387 20.4029 1.05419 20.3115C1.04101 20.29 1.00867 20.2608 1.03052 20.2453C1.16467 20.1497 1.25079 20.0335 1.50652 19.9841C1.60757 19.9655 1.7153 19.963 1.77787 19.9262C1.84045 19.8894 1.89658 19.8473 1.96236 19.8118C2.04383 19.7691 2.09995 19.7298 2.06131 19.7048C1.99685 19.66 1.89536 19.6582 1.77846 19.6772C1.67735 19.6931 1.56962 19.6969 1.46521 19.7075C1.27855 19.7267 1.12562 19.6948 1.10205 19.6354C1.03818 19.479 0.971154 19.3241 0.913624 19.1675C0.906844 19.1486 0.922083 19.1238 0.947063 19.1069C1.03449 19.0477 1.12836 18.9912 1.21899 18.9333C1.32528 18.867 1.49675 18.8753 1.64227 18.8598C1.84789 18.8374 1.84785 18.8387 2.12059 18.7019C2.22716 18.6478 2.41465 18.6639 2.52452 18.6152C2.55904 18.5994 2.61236 18.5737 2.60253 18.5603C2.58945 18.5429 2.52577 18.5308 2.47804 18.5237C2.43348 18.5165 2.37951 18.5137 2.33206 18.5189C1.7561 18.5714 1.18339 18.6266 0.607395 18.6778C0.509294 18.6868 0.400832 18.6594 0.364991 18.618C0.329214 18.5794 0.337591 18.5315 0.330215 18.4868C0.420845 18.4289 0.524208 18.3749 0.602065 18.3132C0.661219 18.2656 0.730492 18.2436 0.850875 18.2382C1.00926 18.2305 1.16421 18.2106 1.34143 18.1944C1.66648 17.9883 1.98495 17.7729 2.33536 17.5662C2.47614 17.4828 2.43944 17.4019 2.46599 17.3156C2.49269 17.2361 2.70533 17.2435 2.84743 17.2171C2.96109 17.1955 2.99807 17.1511 2.95301 17.1222C2.92724 17.1051 2.86975 17.086 2.82537 17.087C2.72077 17.0894 2.61646 17.104 2.51202 17.1132C2.40758 17.1223 2.28705 17.121 2.202 17.1461C2.12009 17.1697 2.06725 17.2172 2.01428 17.2578C1.95506 17.3027 1.87622 17.3195 1.75584 17.3249C1.60059 17.3312 1.44557 17.347 1.29048 17.36C1.11809 17.3109 0.93936 17.2632 0.77325 17.2112C0.741302 17.201 0.734206 17.1699 0.736904 17.1494C0.742017 17.0963 0.69373 17.0647 0.588535 17.0412C0.499283 17.0215 0.425652 16.9919 0.342613 16.9665C0.405157 16.9284 0.474096 16.8914 0.523898 16.8508C0.632918 16.7653 0.771014 16.7023 1.01197 16.6996C1.10583 16.6444 1.18037 16.5774 1.30314 16.5378C1.4196 16.4998 1.62011 16.5306 1.707 16.4484C1.75047 16.4079 1.81603 16.3615 1.90123 16.3432C2.03693 16.3143 2.21474 16.3239 2.29222 16.2459C2.33876 16.2013 2.40755 16.1603 2.49922 16.1473C2.60353 16.1327 2.71121 16.1275 2.78668 16.1C2.82757 16.0854 2.87145 16.0626 2.87101 16.0436C2.87073 16.0314 2.80695 16.0138 2.76238 16.0066C2.72096 15.998 2.66686 15.9925 2.61937 15.9963C2.46108 16.008 2.30612 16.0265 2.14783 16.0383C2.10351 16.042 2.05259 16.0336 2.00486 16.0266C1.86489 16.008 1.87376 15.9806 1.98356 15.9291C2.0934 15.8789 2.17127 15.8159 2.2619 15.7581C2.36311 15.7462 2.48997 15.7474 2.5591 15.72C2.6754 15.6752 2.75638 15.6121 2.85024 15.5569C2.95465 15.5464 3.06235 15.5412 3.16026 15.524C3.20134 15.5176 3.21968 15.4873 3.25414 15.4688C3.31674 15.4334 3.36954 15.3832 3.45474 15.3649C3.59364 15.3373 3.76502 15.3429 3.8457 15.2662C3.89224 15.2216 3.96404 15.1737 4.05273 15.169C4.29983 15.1579 4.40271 15.0807 4.52786 15.0071C4.62172 14.9519 4.82521 14.9745 4.92858 14.9191C4.99753 14.8835 5.0473 14.8402 5.11628 14.806C5.14449 14.7917 5.20453 14.7836 5.25198 14.7784C5.51142 14.7521 5.77414 14.7311 6.03355 14.7035C6.07466 14.6985 6.11226 14.6772 6.14358 14.6602C6.20932 14.6233 6.24935 14.5734 6.33122 14.5484C6.4131 14.5234 6.53036 14.5207 6.63163 14.5116C6.95763 14.4838 6.98314 14.4887 7.12944 14.3697C7.24772 14.2731 7.54407 14.333 7.63994 14.2274C7.69561 14.1663 7.79903 14.115 7.98588 14.1039C8.24874 14.0884 8.50804 14.0567 8.77071 14.033C9.00489 14.0113 9.00173 14.0114 9.25237 13.8792C9.36516 13.8194 9.53337 13.8238 9.6821 13.8095C9.84033 13.795 9.98574 13.7754 10.0602 13.7057C10.1348 13.6373 10.2737 13.6124 10.4351 13.5992C10.5839 13.5863 10.7521 13.5893 10.8681 13.5322C11.1503 13.3951 11.1471 13.3938 11.3465 13.3757C11.6598 13.3468 11.9731 13.3179 12.2863 13.2877C12.4952 13.2679 12.7138 13.2603 12.9097 13.2259C13.0518 13.2009 13.1134 13.1233 13.2041 13.0681C13.4635 13.0418 13.723 13.0155 13.9824 12.9906C14.3463 12.9551 14.7134 12.9222 15.0805 12.888C15.2378 12.8327 15.2574 12.718 15.5235 12.7065C15.6819 12.7002 15.8368 12.679 15.995 12.6645C16.2577 12.6395 16.517 12.6091 16.7799 12.5936C16.9794 12.5822 17.0125 12.508 17.116 12.4594C17.1505 12.4423 17.1817 12.4184 17.2228 12.4134C17.634 12.366 18.0585 12.3482 18.4598 12.2832C18.5009 12.2769 18.5382 12.2474 18.5473 12.2268C18.5534 12.2158 18.499 12.1966 18.4639 12.1879C18.4225 12.178 18.3683 12.1683 18.324 12.172C17.0171 12.2929 15.7102 12.4151 14.4033 12.536C14.2197 12.5538 14.2197 12.5524 13.7762 12.7122C13.7385 12.7253 13.6944 12.7399 13.6469 12.7451C13.4381 12.7662 13.226 12.7805 13.0204 12.8056C12.8528 12.8257 12.713 12.8126 12.5914 12.7663C12.505 12.7329 12.416 12.7241 12.3083 12.7292C12.1879 12.7361 12.1091 12.7528 12.0402 12.7911C11.9494 12.8435 11.9034 12.9099 11.7104 12.9279C10.821 13.0066 9.93184 13.0922 9.04579 13.1749C8.92173 13.1587 8.86086 13.1315 8.89177 13.0967C8.91031 13.0759 8.94773 13.0479 8.98571 13.0443C9.34955 13.0074 9.71665 12.9746 10.0805 12.9391C10.1312 12.9339 10.2009 12.935 10.2291 12.9207C10.3672 12.8564 10.4157 12.7559 10.6786 12.7431C10.8306 12.7356 10.9855 12.7117 11.1308 12.6893C11.1719 12.683 11.2093 12.6535 11.2183 12.6329C11.2212 12.622 11.1701 12.6027 11.1318 12.594C10.9914 12.5578 10.8309 12.6091 10.6908 12.585C10.643 12.5766 10.5761 12.5645 10.5662 12.5484C10.5596 12.5336 10.6129 12.5079 10.6506 12.492C10.6851 12.4777 10.7324 12.4643 10.7798 12.4592C11.1975 12.4184 11.6152 12.3762 12.033 12.3422C12.2039 12.3288 12.3236 12.2921 12.3982 12.2278C12.4542 12.1803 12.5233 12.1542 12.631 12.1449C13.362 12.078 14.0929 12.0056 14.8271 11.9426C15.0107 11.9276 15.1048 11.8805 15.1795 11.8203C15.2387 11.7727 15.308 11.7548 15.4251 11.744C16.4726 11.6494 17.5136 11.5468 18.5612 11.455C18.7542 11.4383 18.81 11.3785 18.9071 11.326C18.9415 11.3075 18.9632 11.2852 19.0073 11.2734C19.0514 11.2615 19.1085 11.2615 19.1623 11.2576C19.9977 11.1801 20.8331 11.0985 21.6718 11.025C21.8681 11.0083 21.9045 10.9394 22.0048 10.8895C22.0393 10.8738 22.0705 10.8486 22.1116 10.8435C22.7381 10.783 23.3647 10.7252 23.9912 10.6661C24.4089 10.6267 24.8266 10.5872 25.2443 10.5492C25.45 10.5309 25.45 10.5295 25.726 10.394C25.7573 10.3783 25.8013 10.3596 25.8424 10.3546C27.0449 10.2401 28.2442 10.1299 29.4467 10.0168C29.548 10.0077 29.6201 9.97477 29.6698 9.92738C29.7194 9.87998 29.7916 9.84704 29.8897 9.83801C30.8296 9.74861 31.7694 9.66057 32.7124 9.57518C32.8833 9.56041 33.003 9.52503 33.0777 9.46209C33.1337 9.41456 33.2028 9.3885 33.3104 9.37925C34.2503 9.29257 35.1901 9.20179 36.1332 9.11776C36.3136 9.10141 36.4013 9.05316 36.4888 8.99674C36.52 8.97698 36.5447 8.94512 36.5826 8.94153C37.0509 8.89279 37.5159 8.84275 37.9875 8.80618C38.1838 8.79083 38.2491 8.73219 38.3271 8.67599C38.3894 8.63102 38.462 8.61441 38.5823 8.60623C38.8451 8.58801 39.1045 8.55899 39.3607 8.53003C39.3986 8.52509 39.4455 8.49409 39.4482 8.47497C39.4538 8.43947 39.3803 8.41664 39.2595 8.40714C38.0064 8.52407 36.7501 8.64107 35.497 8.75801C35.2913 8.77765 35.2913 8.77766 35.0154 8.91321C34.984 8.92889 34.94 8.94758 34.8957 8.95267C33.6933 9.06573 32.494 9.17736 31.2915 9.29043C31.1902 9.29953 31.118 9.33247 31.0684 9.37986C31.0187 9.42726 30.9465 9.4602 30.8484 9.46923C29.6997 9.57699 28.5511 9.68611 27.3991 9.78986C27.2282 9.80463 27.1085 9.83864 27.0339 9.90293C26.9779 9.95047 26.9088 9.97654 26.8012 9.98579C25.7031 10.087 24.6082 10.1921 23.5068 10.2906C23.3961 10.3 23.3128 10.2624 23.3183 10.2255C23.321 10.2064 23.3678 10.1741 23.4057 10.1705C23.9784 10.1126 24.5479 10.0533 25.124 10.0062C25.3171 9.99095 25.3727 9.92981 25.4698 9.87725C25.5011 9.85885 25.5259 9.83515 25.5669 9.8247C25.6111 9.81281 25.6681 9.81288 25.722 9.80893C27.0795 9.68146 28.437 9.55263 29.7979 9.43052C29.9941 9.41245 30.0305 9.34494 30.1308 9.29503C30.1653 9.27792 30.1965 9.25272 30.2376 9.24907C30.6553 9.20691 31.073 9.16884 31.4907 9.13077C32.2217 9.06244 32.9527 8.99411 33.6868 8.92572C33.8989 8.90593 33.8989 8.90592 34.1685 8.77188C34.1998 8.7562 34.2438 8.73616 34.285 8.7325C36.2184 8.55112 38.1519 8.36972 40.0854 8.1897C40.1867 8.18059 40.2589 8.14765 40.3085 8.10026C40.3582 8.05422 40.4303 8.01992 40.5284 8.00953C43.1422 7.76505 45.7529 7.52063 48.3668 7.27887C48.5377 7.26274 48.6574 7.23144 48.732 7.16579C48.7848 7.11832 48.8572 7.09219 48.9647 7.08158C51.8381 6.81351 54.7114 6.54544 57.5879 6.27594C59.5214 6.09591 61.4549 5.91316 63.3884 5.73585C63.5656 5.71958 63.6597 5.67525 63.7472 5.61747C63.7753 5.59778 63.8031 5.56585 63.8411 5.56226C64.2555 5.51882 64.67 5.47811 65.0845 5.43739C65.2153 5.47116 65.346 5.50357 65.4768 5.53734C65.5739 5.48342 65.6678 5.42821 65.7649 5.3743C66.3916 5.32059 67.0082 5.24534 67.6417 5.21189C67.6829 5.20959 67.7278 5.23443 67.7725 5.24702C68.0692 5.326 68.2371 5.31538 68.4215 5.19689C68.4871 5.15457 68.5433 5.11655 68.6445 5.10745C68.9578 5.07583 69.2744 5.0523 69.5844 5.01668C69.752 4.9979 69.8918 5.00833 70.0133 5.05456C70.0997 5.08797 70.1889 5.10092 70.2933 5.09038C70.8692 5.03647 71.442 4.98398 72.0179 4.92735C72.059 4.92369 72.0964 4.8997 72.1278 4.88266C72.1935 4.84578 72.2497 4.80641 72.3123 4.76825C72.3984 4.78942 72.4939 4.80495 72.5643 4.83328C72.6539 4.86663 72.7363 4.86475 72.8565 4.85249C75.1538 4.63561 77.4545 4.42275 79.7518 4.20451C79.948 4.18644 80.0349 4.24163 80.1687 4.26852C80.2133 4.27839 80.258 4.29098 80.3056 4.29262C80.3564 4.29419 80.4101 4.28481 80.4607 4.27957C82.1853 4.1179 83.91 3.95758 85.6346 3.79591C85.8624 3.7744 85.8625 3.7744 86.2036 3.85101C86.245 3.86096 86.2992 3.87198 86.3434 3.86689C87.1283 3.79598 87.913 3.72099 88.6947 3.64879C88.7959 3.63969 88.882 3.6595 88.9747 3.68869C89.1568 3.74578 89.1694 3.7455 89.3004 3.65271C89.3628 3.60911 89.4288 3.58174 89.5331 3.56713C89.6469 3.55093 89.739 3.55294 89.8283 3.5754C89.9559 3.60652 90.0491 3.66154 90.2421 3.64219C91.0774 3.55924 91.9161 3.48711 92.7482 3.40288C92.9381 3.3836 93.0406 3.42753 93.1682 3.45865C93.2128 3.46988 93.2544 3.48799 93.3021 3.49099C93.3497 3.49399 93.4065 3.48316 93.4572 3.47793C94.5014 3.38071 95.5489 3.28479 96.5899 3.1822C96.786 3.16278 96.873 3.2193 97.0068 3.2462C97.0514 3.25607 97.1026 3.27397 97.1437 3.27031C97.7703 3.21388 98.4001 3.15465 99.0267 3.0955C99.2513 3.07406 99.2513 3.07543 99.5955 3.15061C99.637 3.16055 99.6912 3.17021 99.7355 3.16648C100.467 3.09951 101.201 3.03112 101.932 2.96279C102.156 2.94135 102.156 2.94136 102.808 2.99731C102.855 3.00167 102.906 3.00869 102.954 3.00489C103.789 2.92738 104.628 2.85116 105.463 2.76958C105.631 2.75352 105.771 2.76122 105.892 2.80745C105.979 2.84086 106.068 2.85382 106.172 2.84328C107.112 2.75524 108.055 2.66984 108.992 2.57779C109.172 2.56009 109.29 2.58733 109.418 2.62389C109.459 2.63655 109.501 2.65466 109.548 2.65902C109.596 2.66338 109.65 2.65671 109.7 2.65148C110.64 2.56344 111.583 2.47941 112.52 2.386C112.71 2.36671 112.812 2.41065 112.94 2.44177C112.985 2.453 113.033 2.4764 113.071 2.47418C113.438 2.4427 113.805 2.41395 114.169 2.37166C114.365 2.34815 114.452 2.40876 114.586 2.43565C114.63 2.44416 114.681 2.46342 114.722 2.45976C115.507 2.38885 116.292 2.31523 117.074 2.24031C117.184 2.22963 117.267 2.23998 117.357 2.27333C117.475 2.31826 117.612 2.3342 117.783 2.31535C118.146 2.27579 118.514 2.24567 118.881 2.21148C119.096 2.19161 119.096 2.19162 119.757 2.24736C119.804 2.25172 119.855 2.25872 119.903 2.25492C120.529 2.19713 121.159 2.14063 121.783 2.07884C121.95 2.06142 122.09 2.07048 122.212 2.11671C122.298 2.15012 122.384 2.16315 122.491 2.15254C123.067 2.09862 123.64 2.04478 124.216 1.99086C124.425 1.97114 124.634 1.94054 124.843 1.93579C124.995 1.93369 125.107 1.99645 125.244 2.02599C125.283 2.03465 125.346 2.02234 125.396 2.01846C126.127 1.95014 126.862 1.88582 127.589 1.81076C127.779 1.79148 127.882 1.83541 128.009 1.86653C128.054 1.87776 128.102 1.90117 128.14 1.89894C128.403 1.878 128.662 1.85169 128.925 1.82803C129.238 1.79913 129.555 1.77561 129.865 1.73863C130.118 1.70838 130.215 1.82454 130.418 1.82401C130.574 1.82456 130.732 1.79784 130.887 1.78343C131.2 1.75454 131.513 1.72293 131.827 1.69675C131.937 1.68743 132.023 1.66371 132.056 1.61396C132.062 1.60429 132.008 1.58513 131.973 1.57368C131.548 1.44453 131.548 1.44453 131.124 1.48411C130.861 1.50913 130.602 1.53408 130.339 1.55638C130.295 1.56011 130.244 1.55038 130.199 1.54323C130.072 1.52299 130.084 1.4955 130.191 1.44409C130.297 1.39268 130.378 1.33097 130.469 1.27312C130.6 1.30553 130.728 1.33799 130.858 1.3704C130.963 1.36122 131.067 1.35069 131.172 1.34152C131.694 1.29427 132.216 1.24565 132.738 1.20112C132.776 1.19754 132.824 1.22367 132.869 1.23626C132.997 1.27282 133.112 1.30421 133.295 1.28508C133.763 1.23497 134.235 1.19567 134.703 1.15101C134.909 1.13137 134.909 1.13137 135.272 1.20748C135.314 1.21606 135.368 1.22572 135.412 1.22199C135.884 1.17997 136.352 1.13531 136.823 1.09193C136.925 1.08283 137.023 1.09827 137.097 1.13606C137.126 1.15173 137.12 1.17907 137.246 1.39938C137.624 1.57177 137.88 1.5469 138.14 1.52467C138.251 1.51535 138.349 1.50631 138.421 1.47745C138.459 1.46163 138.506 1.43878 138.505 1.4211C138.505 1.4075 138.435 1.38732 138.39 1.38561C138.076 1.36554 137.779 1.42944 137.472 1.44867C137.33 1.45736 137.205 1.41256 137.178 1.33561C137.171 1.314 137.161 1.29109 137.151 1.26955C137.141 1.24801 137.134 1.22503 137.124 1.20348C137 1.19949 136.928 1.22563 136.875 1.27309C136.832 1.31219 136.769 1.35715 136.684 1.3795C136.599 1.4032 136.482 1.40179 136.377 1.41097C136.276 1.42008 136.165 1.44028 136.07 1.43292C135.975 1.4242 135.898 1.38648 135.808 1.36402C135.767 1.35271 135.716 1.33619 135.675 1.33985C135.311 1.37126 134.95 1.40258 134.589 1.44072C134.4 1.46136 134.303 1.40641 134.182 1.37378C134.086 1.34874 133.991 1.3577 133.977 1.42062C133.939 1.57116 134.086 1.63041 134.409 1.5945C134.675 1.56397 134.915 1.55442 135.127 1.64215C135.156 1.65374 135.222 1.65767 135.263 1.65401C135.523 1.63178 135.779 1.60554 136.039 1.58332C136.086 1.57951 136.137 1.58379 136.182 1.58822C136.83 1.64697 136.83 1.64834 137.048 1.62704C137.153 1.61651 137.254 1.6074 137.24 1.40089C137.434 1.17466 137.751 1.1525 138.057 1.11287C138.257 1.08793 138.344 1.14583 138.474 1.17415C138.519 1.18403 138.567 1.2047 138.608 1.20104C139.289 1.14067 139.966 1.07764 140.643 1.0119C140.757 1.00115 140.839 1.00744 140.929 1.04078C141.044 1.08307 141.172 1.10876 141.352 1.08833C141.712 1.04747 142.08 1.01872 142.447 0.98316C142.633 0.965308 142.633 0.965294 143.013 1.04104C143.054 1.04963 143.108 1.05928 143.152 1.05556C143.52 1.02408 143.883 0.987237 144.247 0.95447C144.349 0.945364 144.441 0.962315 144.521 0.997235C144.601 1.03216 144.697 1.04903 144.795 1.04C145.162 1.00716 145.526 0.971681 145.89 0.938915C145.934 0.935186 145.988 0.943481 146.03 0.952065C146.418 1.0276 146.418 1.02758 146.595 1.00995C146.855 0.98364 147.121 0.968078 147.377 0.935041C147.627 0.902148 147.759 0.978071 147.931 1.0177C148.399 0.975757 148.871 0.939188 149.336 0.890515C149.526 0.869871 149.628 0.912443 149.756 0.944922C149.8 0.956154 149.845 0.98099 149.886 0.978693C150.045 0.96965 150.2 0.95116 150.355 0.936749C150.51 0.922339 150.668 0.907857 150.823 0.893446C151.002 0.928853 151.121 1.01867 151.374 0.981625C151.526 0.959125 151.687 0.951371 151.842 0.93696C151.997 0.922549 152.155 0.908068 152.311 0.893657C152.415 0.884479 152.523 0.877943 152.624 0.863397C152.81 0.838745 152.904 0.903306 153.038 0.930201C153.082 0.938713 153.133 0.953871 153.174 0.950214C153.488 0.92404 153.804 0.900516 154.111 0.862246C154.348 0.832361 154.511 0.869493 154.68 0.922797C154.715 0.934245 154.776 0.939676 154.82 0.935947C155.187 0.904469 155.551 0.867614 155.915 0.834847C156.013 0.825813 156.109 0.845411 156.189 0.878972C156.272 0.91382 156.364 0.929426 156.466 0.92032C156.829 0.887553 157.197 0.851984 157.561 0.819218C157.605 0.815489 157.659 0.825147 157.7 0.835091C158.057 0.911345 158.057 0.912706 158.266 0.89163C158.317 0.886397 158.371 0.882441 158.421 0.877208C158.681 0.85226 158.95 0.839345 159.203 0.800939C159.494 0.757589 159.707 0.799006 159.915 0.871846C160.174 0.849617 160.44 0.834043 160.693 0.801078C160.883 0.776354 160.986 0.825727 161.113 0.856847C161.158 0.868078 161.206 0.891479 161.244 0.887895C161.611 0.856416 161.978 0.827665 162.339 0.78545C162.535 0.761942 162.622 0.821187 162.756 0.849443C162.8 0.859314 162.848 0.877285 162.889 0.873628C163.098 0.857992 163.307 0.836907 163.516 0.817191C163.76 0.793962 163.76 0.795323 164.085 0.870937C164.238 0.90692 164.39 0.872178 164.538 0.859271C164.697 0.844788 164.845 0.833245 164.973 0.886126C165.053 0.919686 165.149 0.939285 165.247 0.931611C165.456 0.914616 165.668 0.897554 165.874 0.87247C166.038 0.852402 166.181 0.860036 166.303 0.90762C166.389 0.941036 166.478 0.956709 166.583 0.946171C167.051 0.902866 167.522 0.858117 167.991 0.816173C168.032 0.812516 168.089 0.823465 168.128 0.834841C168.217 0.857304 168.303 0.882554 168.389 0.907809C168.595 0.890886 168.807 0.880632 169.01 0.85698C169.225 0.83304 169.421 0.82177 169.591 0.892755C169.626 0.908283 169.677 0.930239 169.719 0.927942C169.877 0.9189 170.032 0.901773 170.187 0.887362C170.342 0.872951 170.5 0.858469 170.655 0.844059C170.837 0.873953 170.953 0.969281 171.206 0.932235C171.358 0.909736 171.519 0.901982 171.674 0.887571C171.829 0.87316 171.988 0.857318 172.143 0.844267C172.193 0.840394 172.25 0.832293 172.295 0.836725C172.342 0.841084 172.384 0.859193 172.426 0.871857C172.553 0.908417 172.671 0.945197 172.852 0.917969C173.003 0.89547 173.165 0.887714 173.32 0.871943C173.532 0.852155 173.532 0.852157 173.886 0.929843C174.029 0.961963 174.19 0.912049 174.327 0.938872C174.419 0.957183 174.499 0.989376 174.588 1.01048C174.627 1.01914 174.687 1.02184 174.731 1.01811C174.94 1.00112 175.152 0.984055 175.358 0.95897C175.525 0.938831 175.665 0.951979 175.784 0.998275C175.87 1.03169 175.956 1.04472 176.064 1.03411C176.586 0.984136 177.108 0.939594 177.627 0.885616C177.804 0.866621 177.947 0.886507 178.046 0.933235C178.216 1.01374 178.452 0.909054 178.628 0.973094C178.737 1.01281 178.845 1.05932 179.041 1.03445C179.402 0.990877 179.769 0.963469 180.133 0.930702C180.264 0.964469 180.395 0.998245 180.529 1.03194C180.738 1.01222 180.946 0.992499 181.155 0.974143C181.31 0.959733 181.469 0.943891 181.624 0.93084C181.674 0.926967 181.728 0.920301 181.776 0.926021C181.823 0.93174 181.862 0.948559 181.907 0.961151C182.127 1.02282 182.127 1.02419 182.488 0.988775C182.643 0.973004 182.791 0.961457 182.923 1.01291C183.044 1.06049 183.187 1.06676 183.352 1.04806C183.662 1.01379 183.975 0.986259 184.291 0.960014C184.39 0.95098 184.482 0.972013 184.565 1.0055C184.69 1.05845 184.842 1.04956 184.997 1.03106C185.203 1.00734 185.405 0.983694 185.581 1.05589C185.616 1.07142 185.671 1.0933 185.709 1.09108C185.969 1.07429 186.231 1.06016 186.484 1.02855C186.737 0.996947 186.863 1.07846 187.038 1.1153C187.298 1.09171 187.56 1.06805 187.82 1.04446C187.87 1.03922 187.93 1.02562 187.975 1.03141C188.163 1.05572 188.273 1.15528 188.529 1.11816C188.677 1.09709 188.839 1.08798 188.994 1.08037C189.035 1.07808 189.09 1.09996 189.119 1.11699C189.135 1.12615 189.119 1.15235 189.101 1.16639C189.045 1.20576 188.976 1.24272 188.926 1.28332C188.92 1.2889 188.98 1.312 189.015 1.32209C189.102 1.34463 189.2 1.33832 189.314 1.32485C189.412 1.31309 189.514 1.32983 189.584 1.36904C189.613 1.38472 189.604 1.41213 189.546 1.50326C189.548 1.56991 189.613 1.53847 189.635 1.49444C189.668 1.43108 189.601 1.4122 189.475 1.44908C189.387 1.47558 189.343 1.51195 189.366 1.54001C189.379 1.55468 189.44 1.57236 189.546 1.50326C189.823 1.41532 190.032 1.39561 190.241 1.37589C190.295 1.37059 190.358 1.35554 190.396 1.36283C190.533 1.39238 190.661 1.42894 190.795 1.46264C190.947 1.45102 191.089 1.42737 191.239 1.47703C191.45 1.54707 191.459 1.54006 191.662 1.52049C191.766 1.50995 191.871 1.50078 191.975 1.4916C192.08 1.48243 192.162 1.50095 192.255 1.53014C192.443 1.58981 192.459 1.58945 192.581 1.49959C192.653 1.44489 192.703 1.42606 192.795 1.44846C193.102 1.5245 193.105 1.52987 193.364 1.49948C193.579 1.47418 193.782 1.46413 193.942 1.53805C194.051 1.59 194.086 1.57697 194.17 1.5179C194.395 1.36175 194.5 1.36208 194.93 1.46116C195.131 1.50831 195.336 1.44787 195.538 1.43645C195.709 1.42712 195.831 1.45702 195.845 1.54242C195.856 1.59524 195.885 1.63268 196 1.64777C196.044 1.65356 196.098 1.66185 196.143 1.65812C196.405 1.63582 196.665 1.61087 196.928 1.58585C197.06 1.5733 197.132 1.50774 197.105 1.42399C197.074 1.33487 197.124 1.30107 197.314 1.2709C197.427 1.25335 197.519 1.25399 197.612 1.27638C197.714 1.30128 197.686 1.32641 197.598 1.37739C197.389 1.5019 197.416 1.57475 197.69 1.65152C197.786 1.67792 197.863 1.70204 197.886 1.7437C197.899 1.76517 197.887 1.79402 197.916 1.80969C198.073 1.89729 198.29 1.95088 198.532 1.98892C198.763 1.94694 198.923 2.00453 199.101 2.04946C199.241 2.08437 199.406 2.04799 199.554 2.031C199.722 2.01222 199.862 2.01993 199.983 2.06751C200.07 2.10093 200.159 2.11523 200.263 2.10605C200.472 2.08633 200.684 2.07199 200.89 2.04555C201.067 2.02247 201.2 2.04665 201.312 2.09037C201.453 2.14568 201.608 2.1027 201.754 2.10755C201.95 2.1126 202.052 2.23141 202.308 2.19293C202.459 2.17043 202.618 2.16003 202.776 2.15099C202.817 2.14869 202.868 2.17066 202.904 2.18619C203.073 2.25718 203.27 2.24863 203.485 2.22197C203.633 2.20362 203.779 2.18671 203.926 2.23508C204.169 2.31665 204.437 2.38676 204.692 2.46124C204.728 2.52301 204.705 2.59702 204.886 2.62963C204.982 2.64651 205.071 2.67307 205.145 2.70269C205.234 2.7374 205.317 2.74505 205.431 2.73293C205.637 2.70921 205.852 2.70021 206.054 2.67112C206.241 2.64511 206.359 2.68734 206.474 2.72691C206.567 2.75882 206.653 2.77319 206.763 2.74618C206.877 2.72047 206.96 2.73355 207.052 2.76818C207.183 2.81555 207.193 2.8099 207.624 2.81507C207.669 2.81542 207.723 2.83458 207.749 2.85169C207.762 2.86092 207.734 2.88878 207.712 2.90289C207.684 2.91986 207.64 2.9399 207.599 2.94491C207.13 2.99094 206.659 3.03296 206.191 3.07898C206.143 3.08414 206.093 3.09482 206.058 3.10922C206.02 3.12504 205.973 3.14651 205.974 3.16555C205.974 3.17915 206.038 3.19404 206.082 3.20255C206.223 3.23066 206.386 3.17931 206.523 3.21158C206.616 3.23261 206.693 3.26351 206.785 3.28319C206.823 3.29184 206.884 3.28912 206.931 3.28532C207.089 3.27219 207.244 3.25506 207.403 3.2433C207.447 3.24093 207.498 3.25339 207.539 3.26333C207.846 3.33802 207.846 3.33801 208.108 3.31435C208.213 3.30517 208.323 3.28225 208.422 3.28818C208.517 3.29418 208.6 3.32902 208.686 3.3502C208.865 3.39513 209.034 3.43891 209.049 3.54471C209.056 3.58536 209.162 3.61834 209.267 3.61868C209.368 3.6191 209.475 3.6017 209.58 3.59116C209.827 3.56922 209.827 3.56922 210.149 3.64491C210.238 3.66601 210.333 3.66657 210.447 3.65037C210.491 3.64392 210.545 3.64814 210.593 3.65386C210.749 3.67073 210.749 3.69657 210.649 3.74784C210.508 3.82316 210.521 3.82968 210.922 3.8818C211.074 3.90147 211.193 3.94232 211.32 3.97752C211.528 4.03404 211.525 4.0341 211.39 4.11744C211.359 4.13585 211.331 4.15554 211.3 4.1753C211.209 4.23043 211.137 4.28921 210.947 4.29897C210.738 4.30917 210.529 4.33569 210.321 4.35541C210.118 4.37498 210.065 4.40883 210.086 4.50089C210.111 4.61191 210.152 4.62321 210.517 4.61357C210.621 4.61119 210.714 4.61998 210.794 4.6549C210.757 4.69928 210.688 4.73487 210.586 4.74534C210.327 4.77165 210.064 4.79531 209.805 4.8189C209.596 4.83862 209.387 4.85833 209.178 4.87804C209.049 4.89052 208.968 4.96312 209.004 5.04121C209.025 5.08566 209.041 5.13018 209.058 5.1747C209.095 5.26367 209.162 5.28529 209.375 5.27638C209.428 5.2738 209.479 5.26175 209.53 5.26332C209.736 5.26816 209.837 5.37881 210.083 5.35007C210.289 5.32634 210.505 5.31736 210.707 5.28827C210.893 5.26226 210.999 5.30886 211.13 5.34263C211.175 5.35386 211.223 5.3786 211.261 5.37638C211.523 5.35544 211.786 5.33451 212.042 5.30283C212.163 5.28921 212.236 5.29571 212.331 5.32619C212.561 5.39989 212.568 5.39566 212.906 5.36347C213.153 5.33881 213.156 5.34146 213.475 5.41722C213.564 5.43832 213.66 5.43615 213.773 5.42268C213.922 5.40569 214.077 5.3804 214.233 5.39728C214.28 5.40163 214.341 5.41659 214.357 5.43391C214.367 5.44594 214.323 5.47687 214.286 5.48725C214.008 5.56431 213.681 5.5595 213.378 5.59498C213.283 5.6053 213.187 5.58162 213.107 5.5467C213.024 5.51185 212.935 5.49891 212.827 5.50816C212.618 5.52787 212.406 5.54222 212.201 5.56866C212.024 5.59174 211.899 5.56326 211.775 5.52391C211.733 5.51125 211.685 5.48648 211.644 5.48878C211.175 5.52664 210.704 5.56459 210.239 5.61326C210.052 5.63383 209.943 5.59276 209.816 5.55892C209.771 5.54769 209.726 5.52286 209.685 5.52515C209.526 5.5342 209.372 5.55268 209.213 5.56717C208.637 5.62108 208.065 5.67493 207.489 5.72612C207.451 5.72971 207.402 5.70222 207.358 5.69099C207.272 5.66845 207.182 5.64735 207.093 5.62624C206.935 5.64073 206.78 5.65786 206.621 5.66962C206.508 5.67765 206.407 5.69901 206.392 5.75105C206.383 5.78527 206.489 5.81417 206.599 5.80892C206.707 5.80375 206.814 5.78498 206.904 5.80065C207.346 5.87768 207.346 5.87904 207.622 5.85509C207.862 5.83329 207.836 5.82026 208.05 5.89024C208.143 5.92079 208.226 5.93797 208.33 5.92743C208.59 5.90248 208.853 5.87746 209.115 5.85515C209.156 5.8515 209.211 5.86388 209.252 5.87382C209.565 5.94837 209.565 5.95108 209.821 5.92484C210.156 5.89273 210.169 5.88564 210.396 5.96349C210.552 6.01708 210.694 5.97439 210.843 5.96829C211.015 6.01744 211.204 6.0608 211.36 6.11711C211.546 6.18365 211.739 6.167 211.947 6.14185C212.102 6.12336 212.255 6.11446 212.383 6.16734C212.504 6.21628 212.65 6.21842 212.815 6.20107C212.963 6.18545 213.115 6.15614 213.271 6.18253C213.312 6.18975 213.376 6.20872 213.373 6.22103C213.371 6.24014 213.33 6.26829 213.289 6.27738C212.999 6.33977 212.678 6.34569 212.372 6.37852C212.33 6.38353 212.276 6.36979 212.235 6.35985C212.146 6.33738 212.059 6.31077 211.973 6.28688C211.818 6.29857 211.66 6.30489 211.508 6.32466C211.391 6.33957 211.302 6.34024 211.216 6.30955C211.136 6.28143 211.049 6.24664 210.954 6.23928C210.859 6.23192 210.748 6.25485 210.644 6.26538C210.539 6.27592 210.419 6.27457 210.337 6.29821C210.255 6.32184 210.205 6.3706 210.152 6.40991C210.093 6.45344 210.011 6.46892 209.891 6.47574C209.78 6.48234 209.691 6.47891 209.608 6.4427C209.572 6.42718 209.525 6.41601 209.477 6.40621C209.432 6.3977 209.381 6.38389 209.34 6.38754C208.868 6.42956 208.4 6.47424 207.929 6.51762C207.694 6.53927 207.698 6.53918 207.208 6.47004C207.163 6.46424 207.109 6.45595 207.065 6.45968C206.802 6.48198 206.543 6.50693 206.28 6.53195C206.014 6.55705 206.017 6.55425 205.562 6.47887C205.479 6.46443 205.359 6.48893 205.261 6.48844C205.055 6.48632 204.951 6.37439 204.71 6.40162C204.505 6.42535 204.289 6.43432 204.084 6.46349C203.897 6.4895 203.788 6.44435 203.661 6.41051C203.616 6.39928 203.568 6.37316 203.53 6.37674C203.058 6.4174 202.59 6.46207 201.963 6.48041C201.807 6.48394 201.878 6.51092 201.979 6.51814C202.125 6.52978 202.172 6.50014 202.092 6.44754C202.034 6.41075 201.951 6.39357 201.885 6.40461C201.85 6.41084 201.806 6.4377 201.963 6.48041C202.129 6.52835 202.12 6.55712 202.149 6.57279C202.219 6.61065 202.318 6.62473 202.419 6.61699C202.578 6.60386 202.733 6.58674 202.891 6.57497C202.935 6.57124 202.989 6.57954 203.031 6.58948C203.381 6.66588 203.385 6.67126 203.755 6.63019C203.872 6.618 203.957 6.61605 204.05 6.63981C204.177 6.67229 204.271 6.73003 204.464 6.70659C204.72 6.67492 204.983 6.65399 205.245 6.63305C205.286 6.62939 205.331 6.65286 205.379 6.66266C205.51 6.69235 205.606 6.75139 205.799 6.72115C205.948 6.69737 206.109 6.68824 206.267 6.68056C206.309 6.67826 206.373 6.69858 206.392 6.71583C206.431 6.74625 206.384 6.78406 206.277 6.81235C206.233 6.82424 206.172 6.82288 206.122 6.82812C205.913 6.84783 205.704 6.8689 205.495 6.8859C205.385 6.89522 205.28 6.91801 205.269 6.96862C205.26 7.00283 205.375 7.03016 205.483 7.02499C205.641 7.0173 205.799 7.00282 205.951 6.98168C206.22 6.94564 206.454 6.94846 206.675 7.02917C206.832 7.08549 206.822 7.06395 206.991 7.23701C207.033 7.28096 207.157 7.28222 207.264 7.27705C207.524 7.26434 207.645 7.28201 207.624 7.32468C207.597 7.37701 207.505 7.39541 207.388 7.40488C207.179 7.42051 206.97 7.44296 206.761 7.46267C206.711 7.46791 206.654 7.47736 206.606 7.47572C206.559 7.47408 206.514 7.45877 206.472 7.44746C206.383 7.42364 206.306 7.38592 206.211 7.37856C206.115 7.3712 206.005 7.39413 205.901 7.40467C205.796 7.41384 205.686 7.43677 205.59 7.42941C205.495 7.42205 205.415 7.38306 205.329 7.36052C205.287 7.34922 205.236 7.33132 205.195 7.33362C204.986 7.34925 204.777 7.37169 204.568 7.39005C204.312 7.41357 204.312 7.41357 203.999 7.33631C203.91 7.31384 203.818 7.3173 203.701 7.33084C203.448 7.35837 203.445 7.35435 202.98 7.28599C202.936 7.27883 202.881 7.27054 202.837 7.27563C202.366 7.31765 201.897 7.36231 201.429 7.40561C201.027 7.44333 201.027 7.44334 200.808 7.58439C200.646 7.68878 200.643 7.68884 200.805 7.73141C200.936 7.76654 201.055 7.81963 201.198 7.83679C201.331 7.8528 201.495 7.78786 201.642 7.8471C201.716 7.87673 201.812 7.90857 201.904 7.91192C202.05 7.91541 202.204 7.87243 202.345 7.9291C202.415 7.95744 202.521 7.98635 202.609 7.9857C202.765 7.98489 202.923 7.95951 203.078 7.94646C203.125 7.94266 203.179 7.94144 203.224 7.94723C203.272 7.95431 203.313 7.9697 203.355 7.98236C203.482 8.02572 203.619 8.04438 203.784 8.01751C204.052 7.9733 204.293 7.98687 204.505 8.06916C204.533 8.08075 204.603 8.08053 204.647 8.07408C204.761 8.05789 204.859 8.05429 204.946 8.07819C204.981 8.08827 205.032 8.10615 205.026 8.11854C205.017 8.13916 204.979 8.16723 204.938 8.17496C204.641 8.22798 204.322 8.2407 204.015 8.27217C203.973 8.27583 203.922 8.25929 203.881 8.24799C203.792 8.22552 203.715 8.18646 203.619 8.1791C203.524 8.17174 203.413 8.19194 203.309 8.20112C203.205 8.2103 203.094 8.23322 202.999 8.22722C202.903 8.21986 202.814 8.18788 202.737 8.15968C202.648 8.1277 202.562 8.12557 202.445 8.14184C202.293 8.16298 202.135 8.1693 201.98 8.18235C201.894 8.15845 201.807 8.13183 201.718 8.10936C201.677 8.09806 201.625 8.08426 201.581 8.08663C201.372 8.10226 201.163 8.12333 200.954 8.14305C200.746 8.16276 200.746 8.16278 200.389 8.08652C200.347 8.07794 200.293 8.06829 200.249 8.07201C199.986 8.09431 199.727 8.12061 199.464 8.14291C199.363 8.15202 199.27 8.13507 199.187 8.10022C199.107 8.0653 199.011 8.04706 198.913 8.05609C198.496 8.09416 198.078 8.13088 197.66 8.17439C197.493 8.19181 197.35 8.18282 197.234 8.13645C197.1 8.08371 196.951 8.1007 196.796 8.11511C196.445 8.15031 196.442 8.14901 196.215 8.08477C196.171 8.07218 196.126 8.04734 196.084 8.04964C195.72 8.07832 195.353 8.10572 194.993 8.14658C194.803 8.16858 194.7 8.12329 194.573 8.09081C194.528 8.07958 194.48 8.05482 194.442 8.0584C194.179 8.07934 193.916 8.09893 193.66 8.13197C193.404 8.165 193.303 8.04075 193.11 8.04651C192.847 8.05385 192.587 8.09104 192.328 8.11599C192.119 8.1357 191.91 8.15541 191.701 8.17513C191.493 8.19485 191.284 8.21184 191.075 8.23427C190.964 8.24631 190.881 8.23594 190.789 8.20403C190.67 8.16182 190.53 8.12964 190.402 8.09172C190.208 8.03763 190.208 8.03762 189.974 8.05928C189.923 8.06451 189.869 8.06845 189.818 8.07368C189.436 8.11232 189.436 8.10961 188.945 8.03502C188.923 8.03145 188.866 8.04771 188.845 8.05909C188.779 8.09597 188.72 8.13541 188.66 8.1735C188.574 8.15368 188.469 8.14382 188.411 8.11384C188.248 8.02911 187.997 8.15592 187.83 8.07262C187.769 8.04135 187.664 8.01516 187.569 8.00916C187.47 8.00324 187.36 8.0248 187.258 8.03527C186.996 8.06165 186.996 8.06029 186.773 8.18645C186.661 8.24889 186.496 8.24175 186.347 8.25874C186.192 8.27723 186.043 8.28878 185.912 8.23597C185.794 8.18831 185.651 8.17932 185.483 8.19946C185.278 8.22454 185.065 8.2416 184.857 8.2586C184.812 8.26233 184.758 8.25676 184.714 8.24961C184.227 8.18039 184.227 8.17903 183.993 8.20204C183.888 8.21258 183.78 8.21774 183.679 8.23229C183.509 8.25794 183.378 8.23233 183.253 8.19162C183.212 8.17895 183.164 8.15421 183.123 8.1565C182.914 8.16806 182.708 8.18498 182.502 8.2019C182.344 8.21503 182.185 8.22407 182.034 8.24657C181.781 8.28361 181.655 8.19801 181.48 8.16117C181.22 8.18476 180.958 8.20298 180.698 8.23337C180.578 8.24699 180.499 8.24472 180.406 8.21416C180.288 8.17603 180.179 8.13224 179.989 8.15696C179.736 8.18993 179.47 8.2055 179.211 8.22773C179.036 8.18953 178.907 8.10672 178.657 8.14369C178.505 8.16619 178.344 8.17395 178.189 8.18836C177.98 8.20807 177.771 8.22644 177.562 8.24751C177.338 8.26895 177.341 8.2648 176.993 8.19241C176.793 8.14935 176.588 8.20707 176.385 8.21984C176.227 8.23024 176.149 8.2946 176.189 8.37398C176.229 8.45336 176.145 8.51787 175.999 8.53207C175.635 8.56619 175.268 8.60174 174.904 8.63315C174.86 8.63688 174.806 8.62858 174.764 8.62C174.372 8.54318 174.372 8.54455 174.198 8.56075C173.939 8.58706 173.673 8.60398 173.417 8.63566C173.24 8.65738 173.109 8.63178 172.994 8.58813C172.904 8.55479 172.822 8.5485 172.708 8.55925C171.455 8.67891 170.202 8.79176 168.952 8.91407C168.765 8.93192 168.656 8.89493 168.529 8.86109C168.484 8.84986 168.442 8.82495 168.398 8.82596C168.293 8.82834 168.189 8.84296 168.085 8.8535C167.616 8.8968 167.148 8.9469 166.676 8.98212C166.477 8.99754 166.424 9.06133 166.34 9.11496C166.274 9.15591 166.199 9.17396 166.082 9.18206C165.968 9.1901 165.885 9.18517 165.795 9.15182C165.68 9.10817 165.55 9.08256 165.373 9.10564C165.167 9.13208 164.958 9.14637 164.746 9.16616C164.638 9.17541 164.557 9.20176 164.523 9.25151C164.517 9.25982 164.584 9.27871 164.622 9.29009C164.75 9.32801 164.871 9.37287 165.015 9.39819C165.161 9.42343 165.319 9.38718 165.471 9.37556C165.525 9.37162 165.575 9.36231 165.626 9.36252C165.673 9.3628 165.731 9.3683 165.766 9.37975C165.932 9.43721 166.107 9.47541 166.335 9.4335C166.532 9.44671 166.636 9.55729 166.885 9.52167C167.037 9.50053 167.196 9.48877 167.354 9.47837C167.395 9.47607 167.44 9.49955 167.485 9.51078C167.612 9.5419 167.715 9.59399 167.904 9.56655C168.107 9.53746 168.322 9.52848 168.528 9.50476C168.642 9.49128 168.724 9.49893 168.814 9.53227C168.929 9.57456 169.06 9.6056 169.237 9.5798C169.388 9.5573 169.55 9.54955 169.705 9.53378C169.908 9.5142 169.908 9.51557 170.271 9.59168C170.312 9.60026 170.366 9.60992 170.411 9.60619C170.673 9.58389 170.933 9.55758 171.196 9.53528C171.297 9.52617 171.396 9.54162 171.466 9.57947C171.495 9.59514 171.486 9.62258 171.496 9.64548C170.974 9.69409 170.452 9.73726 169.933 9.79395C169.737 9.8161 169.647 9.76236 169.516 9.73403C169.472 9.72416 169.423 9.70212 169.382 9.70578C169.015 9.73725 168.651 9.77001 168.287 9.80822C168.174 9.82033 168.088 9.81684 168.001 9.77934C167.78 9.67959 167.515 9.74276 167.268 9.76335C167.079 9.77855 167.019 9.82209 167.044 9.91135C167.075 10.0168 167.189 10.0468 167.48 10.0212C167.585 10.012 167.689 10.0001 167.794 9.99226C167.895 9.98452 167.987 10.0001 168.071 10.035C168.151 10.0699 168.246 10.0868 168.344 10.0791C168.553 10.0621 168.765 10.045 168.968 10.02C169.135 9.99987 169.275 10.0103 169.394 10.058C169.525 10.1108 169.677 10.0951 169.829 10.0794C170.183 10.0441 170.186 10.0454 170.41 10.1083C170.454 10.1209 170.499 10.1458 170.54 10.1435C170.905 10.1148 171.272 10.0887 171.629 10.048C171.816 10.0274 171.925 10.0685 172.049 10.101C172.094 10.1122 172.139 10.1384 172.18 10.1348C172.443 10.1138 172.705 10.0929 172.961 10.0612C173.082 10.0462 173.155 10.0527 173.254 10.0831C173.49 10.1581 173.496 10.1552 173.829 10.1218C173.93 10.1113 174.04 10.0938 174.136 10.1026C174.231 10.1113 174.308 10.149 174.397 10.1715C174.439 10.1814 174.49 10.1952 174.534 10.1915C174.743 10.1758 174.952 10.1548 175.161 10.1351C175.357 10.1156 175.357 10.117 175.727 10.193C175.876 10.2249 176.031 10.1915 176.18 10.1772C176.341 10.1613 176.487 10.158 176.612 10.2082C176.737 10.2585 176.886 10.2523 177.044 10.2379C177.193 10.2236 177.344 10.1902 177.497 10.2235C177.848 10.2999 177.848 10.3012 178.063 10.28C178.376 10.2498 178.686 10.2209 179.003 10.1933C179.044 10.1897 179.098 10.2048 179.139 10.2147C179.229 10.2372 179.306 10.2762 179.401 10.2836C179.496 10.2923 179.607 10.2735 179.708 10.263C180.034 10.2298 180.056 10.2197 180.277 10.3045C180.462 10.3738 180.688 10.2625 180.861 10.3429C180.961 10.3883 181.095 10.4234 181.278 10.3961C181.43 10.3736 181.588 10.3645 181.746 10.35C181.996 10.3267 181.996 10.328 182.315 10.4024C182.357 10.4124 182.411 10.4248 182.452 10.4211C182.661 10.4055 182.873 10.3911 183.075 10.362C183.312 10.3281 183.466 10.3763 183.644 10.4226C183.785 10.4588 183.949 10.4225 184.097 10.4055C184.259 10.3882 184.405 10.3889 184.526 10.4393C184.654 10.4908 184.803 10.4806 184.961 10.4661C185.11 10.4532 185.262 10.4185 185.415 10.4531C185.743 10.53 185.743 10.53 185.98 10.5083C186.189 10.4885 186.398 10.4675 186.607 10.4518C186.648 10.4482 186.699 10.4647 186.741 10.476C186.83 10.4985 186.907 10.5376 187.002 10.5449C187.098 10.5523 187.208 10.5321 187.313 10.5229C187.417 10.5137 187.528 10.4908 187.623 10.4968C187.718 10.5028 187.808 10.5348 187.884 10.563C187.974 10.5963 188.056 10.5985 188.177 10.5822C188.328 10.561 188.487 10.5534 188.642 10.5403C188.728 10.5642 188.817 10.588 188.9 10.6147C188.987 10.6427 189.079 10.6379 189.196 10.6257C189.585 10.5842 189.588 10.5882 189.916 10.6651C190.066 10.6998 190.221 10.665 190.37 10.6521C190.528 10.6376 190.677 10.6288 190.802 10.6804C190.923 10.7293 191.072 10.7327 191.23 10.7128C191.332 10.6996 191.439 10.6904 191.544 10.6839C191.591 10.6815 191.648 10.6856 191.684 10.6957C191.853 10.749 192.019 10.7969 192.249 10.755C192.453 10.7612 192.557 10.8704 192.8 10.8431C193.006 10.8194 193.221 10.8104 193.423 10.7813C193.61 10.7553 193.744 10.7904 193.84 10.8358C194.013 10.9163 194.251 10.7965 194.425 10.8756C194.524 10.921 194.652 10.9562 194.841 10.9314C195.05 10.9049 195.117 10.932 195.179 11.0163C195.215 11.0645 195.21 11.104 195.147 11.1436C195.085 11.1845 195.015 11.1792 194.913 11.1367C194.794 11.089 194.654 11.0826 194.487 11.0973C194.322 11.112 194.219 11.0436 194.082 11.0195C193.945 10.994 193.785 11.0453 193.641 11.0118C193.303 10.9338 193.303 10.9337 193.075 10.9553C192.92 10.9697 192.759 10.9788 192.607 11.0013C192.427 11.0285 192.309 10.989 192.184 10.9537C192.14 10.9411 192.095 10.9163 192.057 10.9185C191.693 10.9472 191.325 10.9746 190.965 11.0168C190.775 11.0388 190.672 10.9922 190.545 10.9611C190.5 10.9498 190.452 10.9264 190.414 10.93C190.101 10.9562 189.791 10.9877 189.477 11.018C189.418 11.0561 189.352 11.093 189.296 11.1337C189.237 11.1759 189.155 11.1954 189.034 11.1968C188.835 11.2013 188.64 11.2629 188.438 11.1954C188.23 11.1266 188.215 11.1311 188.015 11.1533C187.762 11.1822 187.493 11.1829 187.256 11.2413C187.215 11.2518 187.172 11.2786 187.172 11.2976C187.169 11.3099 187.236 11.3261 187.278 11.3361C187.418 11.3655 187.578 11.3143 187.719 11.3451C187.811 11.3648 187.888 11.3957 187.98 11.4167C188.019 11.4254 188.076 11.4227 188.126 11.4202C188.18 11.4176 188.231 11.4069 188.281 11.4072C188.329 11.4074 188.38 11.4144 188.418 11.4258C188.594 11.4735 188.779 11.517 188.935 11.5746C189.089 11.631 189.231 11.587 189.383 11.5808C189.993 11.6622 189.993 11.6635 190.402 11.6243C190.503 11.6152 190.607 11.6047 190.712 11.6036C190.756 11.6026 190.798 11.6262 190.843 11.6388C190.97 11.6767 191.092 11.7107 191.269 11.6849C191.421 11.6624 191.582 11.6546 191.737 11.6388C191.946 11.6191 191.946 11.6191 192.303 11.6967C192.392 11.7165 192.487 11.7116 192.601 11.6981C192.699 11.6864 192.801 11.7045 192.872 11.7423C192.9 11.758 192.892 11.7854 192.902 11.8083C192.588 11.8372 192.272 11.8594 191.968 11.8989C191.772 11.9238 191.682 11.8673 191.551 11.839C191.507 11.8291 191.459 11.8071 191.418 11.8108C191.107 11.8382 190.797 11.8684 190.487 11.9027C190.449 11.9062 190.403 11.9386 190.4 11.9577C190.394 11.9932 190.474 12.0254 190.588 12.0215C190.74 12.0167 190.889 11.9901 191.027 12.0428C191.142 12.0892 191.285 12.1077 191.452 12.0821C191.553 12.0676 191.661 12.0651 191.763 12.0519C192.031 12.0132 192.275 12.0144 192.48 12.1023C192.636 12.1233 192.788 12.0967 192.937 12.0811C193.047 12.069 193.155 12.057 193.235 12.0811C193.404 12.1317 193.57 12.1823 193.801 12.1403C194.052 12.1727 194.244 12.2486 194.455 12.3092C194.554 12.3382 194.63 12.3542 194.744 12.3312C194.791 12.3219 194.848 12.3206 194.899 12.3154C195.003 12.3062 195.114 12.2833 195.209 12.2893C195.304 12.2967 195.384 12.3343 195.47 12.3568C195.512 12.3681 195.56 12.3875 195.601 12.3852C195.759 12.3748 195.914 12.3576 196.069 12.3432C196.225 12.3302 196.38 12.3171 196.535 12.3041C196.665 12.3365 196.799 12.3688 196.93 12.4012C197.139 12.3815 197.348 12.3618 197.554 12.3435C197.785 12.3219 197.785 12.3233 198.119 12.4C198.269 12.4347 198.427 12.4066 198.569 12.3857C198.807 12.3518 198.966 12.3998 199.135 12.4504C199.171 12.4605 199.234 12.4659 199.275 12.4595C199.44 12.4367 199.582 12.4484 199.704 12.496C199.791 12.5294 199.876 12.5438 199.981 12.5346C200.345 12.5005 200.709 12.465 201.073 12.4336C201.117 12.4299 201.168 12.441 201.209 12.4509C201.535 12.5265 201.538 12.5305 201.775 12.5034C201.987 12.4795 202.183 12.4669 202.353 12.5379C202.388 12.5534 202.443 12.5753 202.481 12.5731C202.74 12.5535 203.003 12.5326 203.259 12.5036C203.376 12.4901 203.459 12.4923 203.552 12.5215C203.67 12.5583 203.775 12.6035 203.968 12.5814C204.503 12.5189 204.506 12.527 205.142 12.6064C205.187 12.6122 205.247 12.6 205.297 12.5934C205.405 12.5773 205.484 12.5946 205.58 12.6237C205.794 12.6896 205.801 12.6854 206.003 12.6658C206.158 12.65 206.32 12.6436 206.471 12.6198C206.705 12.5845 206.862 12.634 207.037 12.6804C207.178 12.7167 207.339 12.6804 207.487 12.6647C207.649 12.6475 207.794 12.6482 207.916 12.6972C207.999 12.7306 208.088 12.7477 208.193 12.7385C208.557 12.7057 208.921 12.6702 209.285 12.6375C209.329 12.6337 209.383 12.6434 209.425 12.652C209.788 12.7281 209.788 12.7322 210.145 12.6928C210.259 12.6806 210.354 12.6758 210.441 12.7024C210.524 12.7277 210.613 12.7515 210.699 12.7754C210.854 12.7624 211.013 12.7561 211.164 12.7363C211.281 12.7214 211.364 12.7249 211.456 12.7514C211.578 12.7854 211.681 12.847 211.87 12.8114C211.968 12.7942 212.082 12.7957 212.18 12.7799C212.297 12.7595 212.377 12.7686 212.469 12.8019C212.584 12.8414 212.703 12.8823 212.886 12.8563C213.088 12.8272 213.304 12.8183 213.509 12.7945C213.623 12.7811 213.703 12.7902 213.795 12.8234C213.911 12.8657 214.041 12.8913 214.218 12.8696C214.579 12.8274 214.582 12.8341 214.936 12.9118C215.025 12.9315 215.12 12.9267 215.234 12.9132C215.332 12.9014 215.434 12.9195 215.505 12.9574C215.572 12.9994 215.566 13.0267 215.573 13.0497ZM187.045 1.42539C186.941 1.43457 186.836 1.44511 186.682 1.33024C186.672 1.31006 186.677 1.28544 186.655 1.26826C186.603 1.23269 186.523 1.20865 186.428 1.20673C186.257 1.20519 186.052 1.2561 186.056 1.29139C186.06 1.32124 186.114 1.34585 186.219 1.36796C186.264 1.37647 186.299 1.392 186.341 1.40194C186.462 1.43049 186.558 1.48954 186.732 1.45429C186.715 1.41249 186.698 1.37069 186.732 1.45429C186.717 1.50634 186.766 1.54198 186.88 1.55434C186.912 1.5577 186.96 1.5539 186.985 1.54516C187.082 1.513 187.097 1.47185 187.022 1.36606C187.009 1.38403 187.02 1.41509 187.048 1.4226C187.077 1.43011 187.147 1.42174 187.181 1.41142C187.27 1.38356 187.313 1.34855 187.29 1.32049C187.277 1.30582 187.217 1.28815 187.179 1.28901C187.112 1.29053 187.052 1.32181 187.045 1.42539ZM213.039 16.6154C212.809 16.6465 212.542 16.643 212.312 16.7013C212.271 16.7118 212.23 16.7372 212.228 16.7563C212.225 16.7686 212.289 16.7849 212.327 16.7935C212.413 16.8133 212.508 16.8044 212.619 16.7951C212.786 16.7817 212.886 16.842 213.017 16.8704C213.058 16.879 213.112 16.8845 213.157 16.8808C213.413 16.8586 213.666 16.8352 213.922 16.8103C213.967 16.8052 214.014 16.7946 214.052 16.7815C214.178 16.7392 214.164 16.7137 214.04 16.6865C213.903 16.657 213.794 16.605 213.654 16.5824C213.453 16.5502 213.252 16.6038 213.039 16.6154ZM195.062 18.0174C194.907 18.0318 194.755 18.0462 194.6 18.0606C194.549 18.0658 194.496 18.0684 194.448 18.0749C194.35 18.0867 194.278 18.1169 194.231 18.1628C194.305 18.1965 194.394 18.2149 194.493 18.2086C194.648 18.1969 194.799 18.1758 194.955 18.1682C195.122 18.1589 195.222 18.2179 195.353 18.2462C195.394 18.2548 195.445 18.255 195.493 18.2553C195.727 18.2554 195.868 18.1814 195.822 18.0832C195.788 18.0063 195.667 17.9628 195.521 17.9757C195.369 17.9887 195.214 18.0031 195.062 18.0174ZM214.077 14.5806C214.115 14.5566 214.155 14.5393 214.174 14.5185C214.229 14.4479 214.206 14.3967 214.1 14.3446C213.972 14.2809 213.818 14.3293 213.675 14.3393C213.64 14.3415 213.603 14.3709 213.584 14.389C213.572 14.4016 213.572 14.4274 213.592 14.4338C213.748 14.4846 213.914 14.5312 214.077 14.5806ZM186.488 11.188C186.336 11.2023 186.181 11.214 186.029 11.2325C185.991 11.2374 185.957 11.264 185.935 11.2822C185.894 11.3158 185.94 11.3597 186.07 11.3608C186.219 11.3628 186.374 11.3362 186.529 11.3218C186.725 11.3037 186.841 11.2507 186.767 11.2089C186.697 11.1683 186.601 11.1623 186.488 11.188ZM19.5744 12.0742C19.6757 12.0651 19.7802 12.0573 19.8814 12.0454C19.9762 12.0338 20.0485 12.0022 20.095 11.9562C20.0149 11.9227 19.9257 11.9056 19.8276 11.912C19.6724 11.9236 19.5206 11.938 19.3687 11.955C19.2738 11.9654 19.1826 11.9974 19.1615 12.0441C19.1401 12.08 19.3529 12.0956 19.5744 12.0742ZM173.011 8.37681C173.053 8.38812 173.095 8.41166 173.136 8.41073C173.237 8.40842 173.342 8.39788 173.436 8.38212C173.477 8.37574 173.509 8.35054 173.527 8.33107C173.54 8.31854 173.536 8.29685 173.517 8.28641C173.423 8.22321 173.056 8.25469 172.998 8.33086C172.992 8.34461 173.008 8.36192 173.011 8.37681ZM162.839 1.15645C162.849 1.17799 162.853 1.19968 162.866 1.22115C162.892 1.26138 162.963 1.28972 163.064 1.30782C163.143 1.27201 163.183 1.233 163.179 1.19227C163.175 1.17058 163.165 1.14902 163.152 1.12755C163.126 1.08733 163.056 1.059 162.954 1.0409C162.875 1.07535 162.838 1.11429 162.839 1.15645ZM221.477 17.6537C221.449 17.6721 221.421 17.6904 221.389 17.7074C221.476 17.7449 221.555 17.7554 221.615 17.7322C221.653 17.7178 221.675 17.6969 221.703 17.6785C221.616 17.641 221.54 17.6319 221.477 17.6537ZM219.51 17.8835C219.551 17.8948 219.59 17.9103 219.634 17.9174C219.707 17.9294 219.773 17.9047 219.823 17.8546C219.781 17.8433 219.743 17.8279 219.699 17.8207C219.625 17.8088 219.559 17.8334 219.51 17.8835ZM220.753 17.6062C220.731 17.6394 220.776 17.6656 220.894 17.686C220.922 17.6677 220.96 17.6505 220.979 17.6311C221.01 17.599 220.955 17.5717 220.84 17.5525C220.809 17.5696 220.781 17.5879 220.753 17.6062ZM214.028 16.2922C214.006 16.3253 214.051 16.3515 214.169 16.372C214.197 16.3537 214.235 16.3365 214.254 16.317C214.285 16.285 214.23 16.2577 214.115 16.2385C214.084 16.2555 214.056 16.2739 214.028 16.2922ZM204.69 6.87564C204.661 6.89397 204.633 6.9123 204.602 6.92934C204.688 6.96684 204.768 6.97727 204.828 6.95414C204.865 6.93968 204.887 6.91877 204.915 6.90044C204.829 6.86295 204.752 6.8538 204.69 6.87564ZM195.839 1.96848C195.915 1.97627 195.978 1.95579 196.031 1.90425C195.99 1.89294 195.951 1.87748 195.907 1.87033C195.833 1.85839 195.767 1.88303 195.718 1.93314C195.759 1.94581 195.801 1.9571 195.839 1.96848ZM191.195 1.75427C191.167 1.7726 191.138 1.79093 191.107 1.80797C191.194 1.84547 191.273 1.85591 191.333 1.83278C191.371 1.81831 191.392 1.7974 191.42 1.77908C191.334 1.74158 191.258 1.73379 191.195 1.75427ZM159.72 1.22598C159.692 1.24431 159.664 1.26264 159.632 1.27968C159.719 1.31718 159.798 1.32762 159.858 1.30449C159.896 1.29002 159.918 1.26912 159.946 1.25079C159.859 1.21329 159.783 1.2055 159.72 1.22598ZM3.39931 15.8506C3.35782 15.8393 3.31637 15.828 3.27802 15.8153C3.18695 15.8541 3.15922 15.8887 3.21053 15.9134C3.2426 15.929 3.29033 15.9375 3.33182 15.9488C3.42606 15.9099 3.44748 15.8767 3.39931 15.8506Z" fill="#FFE492"/>
</svg>
