<svg width="117" height="29" viewBox="0 0 117 29" fill="none" xmlns="http://www.w3.org/2000/svg">
<path d="M110.08 15.3251C109.92 15.3493 109.758 15.366 109.6 15.4024C109.498 15.4252 109.455 15.3585 109.387 15.3236C109.364 15.3114 109.339 15.2872 109.318 15.2902C109.16 15.3145 109.001 15.3418 108.842 15.3691C108.793 15.4282 108.762 15.5071 108.688 15.5359C108.615 15.5632 108.529 15.5632 108.448 15.5768C108.341 15.5935 108.234 15.6102 108.127 15.6254C108.074 15.633 108.03 15.6618 108.012 15.7164C108.009 15.7255 108.044 15.7482 108.064 15.7619C108.129 15.8074 108.192 15.859 108.263 15.8938C108.331 15.9272 108.416 15.8726 108.489 15.9151C108.652 16.0106 108.654 16.0091 108.779 15.9909C108.886 15.9742 108.993 15.956 109.1 15.9439C109.121 15.9409 109.145 15.9636 109.168 15.9757C109.236 16.0091 109.28 16.085 109.38 16.0561C109.456 16.0334 109.54 16.0288 109.62 16.0167C109.686 16.0607 109.748 16.1107 109.819 16.1456C109.886 16.179 109.905 16.2048 109.87 16.2488C109.837 16.2897 109.792 16.3064 109.732 16.3094C109.678 16.311 109.625 16.3246 109.571 16.3322C109.544 16.3367 109.518 16.3398 109.492 16.3443C109.39 16.361 109.39 16.361 109.203 16.2639C109.13 16.226 109.048 16.2791 108.978 16.2427C108.931 16.2184 108.891 16.182 108.845 16.1562C108.826 16.1456 108.795 16.1441 108.771 16.1471C108.69 16.1578 108.608 16.1653 108.531 16.1851C108.476 16.1987 108.443 16.2412 108.45 16.2836C108.451 16.3003 108.49 16.3246 108.513 16.3261C108.565 16.3292 108.62 16.3079 108.67 16.3185C108.719 16.3291 108.769 16.3595 108.805 16.3928C108.878 16.4626 108.96 16.4004 109.03 16.4186C109.103 16.4384 109.163 16.499 109.233 16.5354C109.25 16.5445 109.284 16.5294 109.312 16.5248C109.391 16.5142 109.471 16.5051 109.55 16.4945C109.617 16.5385 109.688 16.5779 109.748 16.6279C109.857 16.719 109.973 16.7538 110.114 16.7098C110.194 16.6856 110.272 16.6947 110.335 16.7538C110.4 16.8145 110.474 16.8084 110.557 16.7963C110.633 16.7842 110.711 16.7508 110.789 16.7933C110.957 16.8873 110.959 16.8919 111.158 16.8555C111.218 16.8448 111.264 16.8418 111.309 16.8767C111.351 16.9085 111.396 16.9358 111.44 16.9662C111.52 16.9556 111.601 16.9449 111.68 16.9328C111.782 16.9161 111.839 16.9374 111.863 17.0223C111.878 17.0739 111.884 17.1209 111.92 17.1558C111.962 17.1982 112.008 17.1967 112.069 17.1846C112.127 17.174 112.17 17.1573 112.194 17.1027C112.204 17.0799 112.223 17.0587 112.241 17.0405C112.256 17.0268 112.278 17.0056 112.291 17.0086C112.316 17.0147 112.348 17.0314 112.356 17.0511C112.435 17.2346 112.435 17.2362 112.516 17.2892C112.606 17.3484 112.698 17.4015 112.779 17.4682C112.852 17.5274 112.925 17.5016 113.004 17.5016C113.064 17.5016 113.103 17.541 113.098 17.5805C113.095 17.6032 113.072 17.6366 113.053 17.6396C112.894 17.6699 112.734 17.6957 112.573 17.7169C112.554 17.72 112.529 17.6927 112.507 17.679C112.461 17.6517 112.421 17.6093 112.372 17.6002C112.324 17.5911 112.267 17.6138 112.213 17.6214C112.16 17.629 112.103 17.6487 112.055 17.6366C112.006 17.6244 111.967 17.5804 111.922 17.5516C111.901 17.538 111.871 17.5183 111.854 17.5228C111.735 17.5592 111.648 17.5092 111.563 17.4424C111.546 17.4288 111.515 17.4197 111.492 17.4227C111.304 17.4485 111.118 17.4788 110.93 17.5076C110.853 17.5198 110.792 17.4667 110.776 17.3772C110.768 17.3271 110.751 17.2771 110.751 17.227C110.751 17.136 110.662 17.086 110.597 17.0966C110.49 17.1118 110.382 17.1239 110.276 17.1467C110.19 17.1649 110.118 17.1467 110.059 17.0921C109.991 17.0299 109.913 17.042 109.836 17.0587C109.777 17.0708 109.761 17.1209 109.764 17.2468C109.767 17.3484 109.74 17.3802 109.634 17.3969C109.502 17.4182 109.367 17.4394 109.233 17.4561C109.211 17.4591 109.187 17.4333 109.166 17.4197C109.121 17.3924 109.08 17.3484 109.032 17.3393C108.983 17.3287 108.926 17.3514 108.873 17.3605C108.819 17.3681 108.762 17.3893 108.714 17.3787C108.665 17.3681 108.625 17.3226 108.581 17.2938C108.56 17.2801 108.534 17.2604 108.513 17.2634C108.406 17.2756 108.299 17.2938 108.192 17.3105C108.072 17.3287 108.072 17.3287 107.902 17.2346C107.824 17.1922 107.746 17.2255 107.67 17.2377C107.589 17.2498 107.513 17.2559 107.449 17.1952C107.407 17.1558 107.36 17.1315 107.31 17.1391C107.176 17.1573 107.043 17.18 106.908 17.1982C106.885 17.2013 106.855 17.1937 106.837 17.18C106.751 17.1163 106.667 17.0663 106.547 17.0981C106.443 17.1254 106.331 17.1269 106.227 17.1527C106.171 17.1664 106.145 17.2149 106.156 17.2528C106.162 17.2726 106.197 17.2953 106.219 17.2953C106.271 17.2968 106.328 17.2741 106.376 17.2832C106.477 17.3014 106.527 17.4288 106.658 17.3939C106.736 17.3726 106.817 17.3651 106.898 17.359C106.919 17.3575 106.942 17.3863 106.965 17.4015C107.03 17.4424 107.086 17.4955 107.18 17.4682C107.258 17.447 107.341 17.4409 107.42 17.4288C107.547 17.4091 107.547 17.4106 107.71 17.5031C107.788 17.5471 107.866 17.5122 107.942 17.5016C107.999 17.494 108.052 17.4788 108.098 17.5001C108.168 17.5319 108.218 17.6047 108.304 17.6002C108.385 17.5956 108.464 17.5744 108.545 17.5668C108.595 17.5622 108.643 17.5865 108.683 17.6275C108.725 17.6684 108.771 17.6866 108.826 17.6775C108.905 17.6654 108.986 17.6502 109.067 17.6426C109.09 17.6411 109.116 17.6548 109.137 17.6669C109.182 17.6942 109.226 17.726 109.27 17.7549C109.349 17.7458 109.43 17.7427 109.508 17.7245C109.568 17.7109 109.61 17.717 109.659 17.7473C109.72 17.7882 109.771 17.861 109.871 17.8262C109.921 17.8095 109.98 17.814 110.03 17.7989C110.092 17.7791 110.134 17.7867 110.178 17.8322C110.26 17.9187 110.364 17.9202 110.471 17.8868C110.588 17.8504 110.675 17.8929 110.763 17.9596C110.855 18.0294 110.855 18.0279 110.926 18.1962C110.947 18.2448 111.007 18.2675 111.058 18.2584C111.142 18.2433 111.215 18.2508 111.277 18.3085C111.341 18.3707 111.419 18.3631 111.499 18.3464C111.604 18.3236 111.709 18.3039 111.795 18.3919C111.837 18.4344 111.883 18.445 111.939 18.4344C112.1 18.4071 112.262 18.3904 112.419 18.357C112.515 18.3358 112.57 18.3843 112.635 18.4253C112.722 18.4814 112.818 18.5314 112.818 18.6513C112.818 18.671 112.841 18.6937 112.86 18.7089C112.902 18.7407 112.948 18.768 112.991 18.7984C113.056 18.8439 113.119 18.8818 113.209 18.8575C113.286 18.8378 113.369 18.8317 113.449 18.8181C113.528 18.8044 113.601 18.7969 113.672 18.8545C113.755 18.9197 113.842 18.9819 113.936 19.0304C114.003 19.0653 114.09 19.0062 114.162 19.0532C114.206 19.082 114.248 19.1154 114.295 19.1396C114.314 19.1503 114.345 19.1427 114.371 19.1396C114.424 19.1336 114.479 19.129 114.531 19.1139C114.591 19.0972 114.637 19.1002 114.682 19.1351C114.724 19.167 114.766 19.2109 114.815 19.22C114.888 19.2337 114.969 19.173 115.042 19.2428C115.079 19.2777 115.126 19.311 115.175 19.3217C115.223 19.3323 115.28 19.3095 115.332 19.311C115.355 19.311 115.382 19.3353 115.395 19.355C115.403 19.3656 115.392 19.3945 115.381 19.4096C115.366 19.4278 115.345 19.4521 115.324 19.4551C115.163 19.4824 115.003 19.5052 114.843 19.531C114.747 19.5461 114.747 19.5461 114.554 19.4506C114.509 19.4278 114.458 19.4324 114.402 19.443C114.325 19.4566 114.248 19.4824 114.168 19.4551C114.065 19.352 113.936 19.3429 113.8 19.3823C113.744 19.399 113.692 19.399 113.65 19.3702C113.56 19.3125 113.466 19.2595 113.387 19.1912C113.325 19.1381 113.296 19.1336 113.27 19.2064C113.262 19.2291 113.254 19.2534 113.256 19.2746C113.265 19.3505 113.283 19.4248 113.293 19.5006C113.296 19.5219 113.283 19.5461 113.275 19.5689C113.249 19.6326 113.215 19.628 113.158 19.5749C113.102 19.5219 113.034 19.487 112.943 19.5112C112.865 19.5325 112.781 19.5295 112.703 19.5522C112.583 19.5856 112.499 19.537 112.413 19.4718C112.395 19.4582 112.364 19.4506 112.341 19.4536C112.1 19.4885 111.86 19.5279 111.619 19.5628C111.567 19.5704 111.52 19.5476 111.479 19.5067C111.437 19.4657 111.39 19.4445 111.338 19.4521C111.124 19.4839 110.91 19.5128 110.696 19.5522C110.609 19.5689 110.539 19.5491 110.479 19.4961C110.434 19.4566 110.391 19.4445 110.335 19.4491C110.273 19.4536 110.229 19.4688 110.199 19.5128C110.169 19.5552 110.19 19.581 110.255 19.6144C110.325 19.6508 110.39 19.6978 110.456 19.7403C110.51 19.7342 110.563 19.7221 110.615 19.7236C110.638 19.7236 110.659 19.7509 110.682 19.766C110.746 19.81 110.806 19.854 110.899 19.8298C110.977 19.8085 111.059 19.804 111.139 19.7903C111.249 19.7736 111.249 19.7736 111.427 19.8692C111.473 19.8935 111.521 19.8919 111.58 19.8783C111.63 19.8677 111.682 19.8889 111.717 19.9344C111.732 19.9526 111.727 19.983 111.696 20.0831C111.696 20.1574 111.73 20.124 111.742 20.0755C111.76 20.0057 111.725 19.9829 111.661 20.0209C111.615 20.0482 111.593 20.0876 111.604 20.1195C111.61 20.1361 111.641 20.1574 111.696 20.0831C111.839 19.9921 111.948 19.9814 112.051 19.9572C112.113 19.9435 112.152 19.9496 112.2 19.989C112.259 20.036 112.317 20.0861 112.413 20.0618C112.517 20.0345 112.627 20.0315 112.732 20.0087C112.829 19.9875 112.88 20.0542 112.941 20.0937C113.016 20.1407 113.098 20.0876 113.166 20.1149C113.238 20.1422 113.288 20.2089 113.371 20.2211C113.491 20.1801 113.567 20.256 113.658 20.306C113.729 20.3439 113.813 20.3105 113.889 20.2939C113.975 20.2757 114.047 20.2924 114.107 20.347C114.175 20.4092 114.251 20.3955 114.329 20.3818C114.51 20.3515 114.517 20.347 114.622 20.4304C114.698 20.491 114.771 20.4637 114.847 20.4562C114.914 20.4971 114.979 20.5411 115.048 20.5775C115.066 20.5866 115.1 20.5714 115.128 20.5669C115.207 20.5547 115.288 20.5426 115.368 20.5305C115.421 20.5229 115.478 20.5001 115.527 20.5092C115.575 20.5199 115.616 20.5639 115.659 20.5927C115.703 20.6215 115.749 20.6503 115.791 20.6806C115.856 20.7261 115.917 20.7641 116.008 20.7413C116.086 20.7216 116.167 20.7155 116.248 20.7019C116.35 20.6852 116.347 20.6897 116.536 20.7807C116.639 20.8308 116.744 20.7701 116.848 20.7641C116.899 20.761 116.95 20.7777 116.985 20.8217C117 20.8399 116.995 20.8702 117 20.896C116.733 20.937 116.463 20.9718 116.199 21.0219C116.097 21.0416 116.044 20.987 115.989 20.9415C115.898 20.8687 115.778 20.9749 115.692 20.8808C115.64 20.8247 115.565 20.7929 115.476 20.8202C115.424 20.8353 115.369 20.8338 115.316 20.8475C115.18 20.8808 115.055 20.8824 114.946 20.7777C114.909 20.7413 114.856 20.7216 114.817 20.6867C114.771 20.6488 114.727 20.6275 114.674 20.6351C114.432 20.6715 114.193 20.7079 113.953 20.7474C113.932 20.7504 113.91 20.7732 113.893 20.7898C113.847 20.8323 113.862 20.8657 113.935 20.893C113.959 20.9021 113.979 20.9218 114.001 20.937C114.045 20.9658 114.086 21.0113 114.134 21.0219C114.183 21.0325 114.24 21.0113 114.293 21.0037C114.347 20.9961 114.403 20.9734 114.452 20.9825C114.501 20.9931 114.541 21.0371 114.586 21.0644C114.607 21.078 114.633 21.1008 114.655 21.0993C114.762 21.0902 114.867 21.0735 114.974 21.0598C115.04 21.1008 115.097 21.1599 115.176 21.1736C115.227 21.1827 115.28 21.166 115.332 21.169C115.355 21.1705 115.384 21.1933 115.395 21.213C115.402 21.2251 115.381 21.2555 115.364 21.2706C115.303 21.3283 115.219 21.3177 115.142 21.3359C115.06 21.3556 114.985 21.3495 114.922 21.2904C114.88 21.2509 114.833 21.2297 114.781 21.2373C114.646 21.257 114.513 21.2798 114.379 21.2964C114.356 21.2995 114.329 21.2858 114.308 21.2752C114.137 21.1827 114.137 21.1796 114.017 21.1994C113.841 21.2282 113.841 21.2282 113.722 21.1478C113.7 21.1326 113.675 21.1038 113.656 21.1053C113.468 21.1296 113.282 21.1539 113.095 21.1887C113.034 21.1994 112.991 21.1994 112.946 21.1599C112.907 21.1266 112.862 21.0886 112.813 21.0795C112.763 21.0704 112.708 21.0932 112.654 21.1008C112.601 21.1084 112.544 21.1281 112.497 21.1159C112.448 21.1038 112.406 21.0613 112.364 21.031C112.32 20.9992 112.273 21.0007 112.213 21.0128C112.029 21.0477 112.027 21.0431 111.844 20.9491C111.823 20.9385 111.795 20.9263 111.773 20.9294C111.638 20.9476 111.505 20.9703 111.371 20.9885C111.319 20.9961 111.268 20.9764 111.233 20.9324C111.218 20.9142 111.223 20.8839 111.213 20.8247C111.202 20.8111 111.215 20.8353 111.218 20.8581C111.242 20.8551 111.272 20.8581 111.289 20.846C111.335 20.8171 111.358 20.7792 111.346 20.7474C111.34 20.7307 111.309 20.7094 111.289 20.7094C111.254 20.7094 111.223 20.7428 111.213 20.8247C111.111 20.8748 111.003 20.8854 110.897 20.9097C110.836 20.9248 110.797 20.9173 110.748 20.8778C110.69 20.8293 110.63 20.7823 110.534 20.8065C110.43 20.8338 110.32 20.8384 110.213 20.8596C110.09 20.8839 110.036 20.7474 109.933 20.7504C109.826 20.7534 109.719 20.7792 109.612 20.7974C109.518 20.8126 109.518 20.8126 109.323 20.714C109.252 20.6776 109.168 20.7307 109.098 20.6928C109.051 20.6685 109.01 20.6321 108.965 20.6063C108.946 20.5957 108.915 20.5957 108.891 20.5987C108.756 20.6169 108.62 20.6291 108.49 20.6624C108.343 20.7019 108.231 20.6594 108.125 20.5699C107.993 20.5866 107.858 20.5957 107.727 20.6245C107.631 20.6458 107.576 20.5957 107.511 20.5548C107.488 20.5411 107.469 20.5183 107.445 20.5123C107.42 20.5062 107.391 20.5183 107.365 20.5229C107.258 20.5396 107.148 20.5472 107.044 20.5745C106.916 20.6094 106.868 20.485 106.769 20.4698C106.702 20.5441 106.667 20.6457 106.535 20.6533C106.428 20.6594 106.321 20.6837 106.214 20.7004C106.161 20.7079 106.107 20.717 106.054 20.7246C105.968 20.7383 105.927 20.7974 105.945 20.8884C105.955 20.9385 105.963 20.9885 105.971 21.0386C105.987 21.1281 105.947 21.2039 105.879 21.2145C105.691 21.2433 105.504 21.2737 105.316 21.2995C105.266 21.307 105.217 21.2813 105.177 21.2403C105.135 21.1993 105.088 21.1812 105.036 21.1887C104.848 21.2176 104.662 21.2479 104.473 21.2737C104.452 21.2767 104.425 21.2615 104.404 21.2494C104.358 21.2221 104.315 21.1903 104.271 21.1614C104.164 21.1751 104.059 21.1842 103.953 21.2024C103.783 21.2297 103.783 21.2312 103.658 21.1478C103.635 21.1326 103.613 21.1038 103.592 21.1053C103.511 21.1114 103.431 21.1266 103.35 21.1402C103.112 21.1796 103.112 21.1796 103.042 21.1341C102.979 21.0917 102.922 21.0401 102.827 21.0644C102.723 21.0917 102.613 21.1008 102.506 21.1159C102.426 21.1266 102.347 21.1387 102.267 21.1417C102.246 21.1432 102.224 21.1144 102.201 21.0993C102.136 21.0522 102.073 21.0143 101.984 21.0401C101.932 21.0553 101.877 21.0583 101.823 21.0659C101.684 21.0871 101.684 21.0871 101.455 20.9961C101.433 20.987 101.405 20.9764 101.382 20.9809C101.194 21.0082 101.008 21.0386 100.82 21.0644C100.797 21.0674 100.77 21.0583 100.747 21.0507C100.491 20.9627 100.491 20.9628 100.219 21.0052C100.115 21.0204 100.112 21.0265 100.003 20.9461C99.9543 20.9112 99.9138 20.8945 99.8571 20.9051C99.6431 20.9415 99.4276 20.9658 99.2152 21.0083C99.1196 21.0265 99.0645 20.9809 98.9996 20.94C98.9769 20.9263 98.9526 20.896 98.9332 20.8975C98.7192 20.9264 98.5052 20.9612 98.2913 20.9901C98.2718 20.9931 98.2475 20.9628 98.2248 20.9491C98.181 20.9218 98.1389 20.8808 98.0903 20.8717C98.04 20.8626 97.9849 20.8854 97.9298 20.893C97.7953 20.9127 97.7953 20.9112 97.6396 20.8217C97.6186 20.8096 97.591 20.7929 97.57 20.7959C97.356 20.8262 97.1404 20.852 96.9281 20.896C96.8065 20.9203 96.7238 20.8763 96.6379 20.8126C96.6201 20.7989 96.5893 20.7929 96.5666 20.7959C96.3251 20.8308 96.0852 20.8702 95.8437 20.9051C95.7934 20.9127 95.7448 20.8869 95.7043 20.8475C95.6394 20.7853 95.5633 20.7929 95.4822 20.8065C95.2958 20.8384 95.2942 20.8369 95.184 20.7641C95.1613 20.7489 95.1418 20.7292 95.1175 20.7216C95.0948 20.714 95.0656 20.7186 95.0413 20.7216C94.9344 20.7368 94.8274 20.7534 94.7204 20.7701C94.6134 20.7868 94.5048 20.7959 94.3994 20.8217C94.2697 20.8536 94.2081 20.7549 94.1174 20.7094C93.9845 20.7292 93.8483 20.7413 93.717 20.7732C93.6165 20.7974 93.5695 20.7307 93.5031 20.6958C93.4804 20.6837 93.456 20.6579 93.435 20.6609C93.1935 20.6943 92.9519 20.7307 92.712 20.7716C92.6537 20.7807 92.6148 20.7686 92.5662 20.7322C92.4576 20.6503 92.4527 20.6533 92.2712 20.6837C92.1917 20.6973 92.1155 20.7095 92.0475 20.6473C91.9875 20.5912 91.9146 20.5775 91.8287 20.5957C91.7233 20.6184 91.6147 20.6306 91.5077 20.6458C91.4007 20.6624 91.2938 20.6852 91.1868 20.6928C91.1009 20.7003 91.049 20.6291 90.9809 20.5927C90.9598 20.5821 90.9307 20.5805 90.9064 20.5836C90.7994 20.5972 90.6892 20.6078 90.5854 20.6336C90.459 20.6655 90.3893 20.5821 90.3001 20.5335C90.2807 20.5229 90.2482 20.529 90.2239 20.5335C90.0359 20.5608 89.8495 20.5911 89.6615 20.62C89.595 20.579 89.5269 20.5396 89.4605 20.4986C89.3535 20.5138 89.2465 20.5305 89.1395 20.5456C89.0585 20.5578 88.9758 20.5623 88.8996 20.5851C88.8008 20.6154 88.7521 20.5441 88.6857 20.5092C88.663 20.4971 88.6387 20.4713 88.6176 20.4744C88.4831 20.491 88.3485 20.5093 88.2156 20.535C88.0892 20.5608 88.0389 20.4243 87.9352 20.4258C87.8282 20.4273 87.718 20.4471 87.6142 20.4744C87.4943 20.5062 87.41 20.4577 87.3241 20.3925C87.3063 20.3788 87.2755 20.3712 87.2528 20.3743C87.1182 20.3925 86.9853 20.4152 86.8508 20.4334C86.8281 20.4364 86.8006 20.4289 86.7779 20.4198C86.5218 20.3303 86.5218 20.3288 86.4099 20.347C86.3305 20.3591 86.2494 20.3743 86.1684 20.3818C86.1457 20.3849 86.1181 20.3712 86.097 20.3591C85.9285 20.2666 85.9285 20.2651 85.8069 20.2833C85.6999 20.2999 85.5929 20.3166 85.4859 20.3333C85.4195 20.2923 85.3514 20.2529 85.285 20.212C85.152 20.2317 85.0159 20.2468 84.8846 20.2741C84.823 20.2863 84.7825 20.2817 84.7355 20.2438C84.6771 20.1983 84.6188 20.1452 84.5215 20.171C84.4178 20.1983 84.3075 20.2013 84.2022 20.2241C84.0758 20.2514 84.0239 20.1134 83.9218 20.1149C83.8148 20.1164 83.7046 20.1361 83.6008 20.1634C83.4809 20.1953 83.3966 20.1468 83.3107 20.0815C83.2929 20.0679 83.2621 20.0603 83.2394 20.0633C82.9444 20.1073 82.651 20.1513 82.356 20.1983C82.1744 20.2271 82.1744 20.2286 81.8292 20.1452C81.8049 20.1392 81.7789 20.1331 81.7546 20.1361C81.6476 20.1498 81.5374 20.1604 81.4336 20.1862C81.3072 20.218 81.2375 20.1361 81.1484 20.0861C81.1289 20.0755 81.0981 20.0815 81.0722 20.0846C80.9911 20.0952 80.9117 20.1088 80.8307 20.121C80.7237 20.1377 80.6167 20.1543 80.5097 20.171C80.4433 20.1316 80.3752 20.0906 80.3087 20.0512C80.1758 20.0709 80.0397 20.0815 79.9084 20.1134C79.8079 20.1377 79.7608 20.0739 79.6944 20.0375C79.6717 20.0254 79.6474 19.9996 79.6263 20.0011C79.3848 20.0345 79.1433 20.0694 78.9034 20.1119C78.8045 20.1301 78.7591 20.0618 78.6927 20.0269C78.67 20.0163 78.6441 19.9966 78.623 19.9996C78.4625 20.0209 78.302 20.0466 78.1416 20.0724C78.0508 20.0876 78.0508 20.0876 77.853 19.9936C77.8303 19.9829 77.8044 19.9723 77.7817 19.9754C77.2728 20.0512 76.7654 20.1316 76.2564 20.2074C76.2045 20.215 76.1576 20.1923 76.117 20.1513C76.0749 20.1103 76.0279 20.0891 75.976 20.0967C75.762 20.1286 75.5465 20.1574 75.3341 20.1968C75.2466 20.2135 75.1769 20.1938 75.1169 20.1407C75.0715 20.1012 75.0294 20.0861 74.9727 20.0952C74.8657 20.1134 74.7587 20.1285 74.6517 20.1452C74.5447 20.1619 74.4378 20.1786 74.3308 20.1953C74.2238 20.212 74.1152 20.2211 74.0098 20.2469C73.8802 20.2787 73.8169 20.1847 73.7278 20.1377C73.5673 20.1604 73.4068 20.1832 73.248 20.2074C73.034 20.2393 72.82 20.2742 72.6061 20.3045C72.5866 20.3075 72.5623 20.2802 72.5396 20.2666C72.4732 20.2287 72.4245 20.1756 72.3257 20.1923C71.8459 20.2726 71.3629 20.3409 70.8814 20.4198C70.7809 20.4364 70.7372 20.3712 70.6691 20.3363C70.6464 20.3257 70.6205 20.3045 70.5994 20.3075C70.3319 20.3454 70.0645 20.3879 69.797 20.4289C69.6884 20.4455 69.6884 20.4455 69.5069 20.3515C69.4858 20.3409 69.4582 20.3272 69.4355 20.3303C69.087 20.3818 68.7402 20.4364 68.3917 20.4895C68.3398 20.4971 68.2928 20.4759 68.2507 20.4349C68.2102 20.394 68.1615 20.3712 68.1113 20.3788C67.7903 20.4273 67.4678 20.4744 67.1484 20.5274C67.0625 20.5426 66.9912 20.529 66.9296 20.4744C66.8858 20.4349 66.8421 20.4182 66.787 20.4273C66.3056 20.5017 65.8241 20.573 65.3427 20.6518C65.2503 20.667 65.1855 20.6382 65.1272 20.5881C65.0801 20.5487 65.0396 20.5411 64.9812 20.5472C64.9197 20.5547 64.8824 20.5714 64.8484 20.6169C64.8046 20.6761 64.777 20.7504 64.6733 20.755C64.5663 20.7595 64.4577 20.7777 64.3523 20.8035C64.2519 20.8293 64.2048 20.761 64.1416 20.7201C64.0946 20.6913 64.0509 20.6867 63.9909 20.7004C63.9358 20.7125 63.9017 20.7383 63.8693 20.7868C63.798 20.8899 63.7915 20.8899 63.704 20.8247C63.657 20.7898 63.6148 20.7625 63.5629 20.7686C63.349 20.7989 63.135 20.8323 62.9211 20.8672C62.7979 20.8869 62.7963 20.8899 62.7039 20.8141C62.6585 20.7762 62.6147 20.758 62.5612 20.7671C61.9728 20.8581 61.3844 20.9461 60.796 21.0416C60.7053 21.0568 60.6437 21.0249 60.5788 20.9794C60.5578 20.9643 60.5367 20.943 60.5124 20.937C60.4881 20.9309 60.4605 20.937 60.4346 20.94C60.0067 21.0052 59.5771 21.0674 59.1508 21.1402C59.0535 21.1569 59.0017 21.1084 58.9352 21.0689C58.9125 21.0553 58.8931 21.034 58.8687 21.028C58.8444 21.0234 58.8153 21.034 58.7893 21.0386C58.3614 21.1038 57.9319 21.166 57.5056 21.2388C57.4034 21.2555 57.3597 21.1918 57.2932 21.1584C57.2705 21.1463 57.2462 21.1235 57.2251 21.1265C57.0906 21.1432 56.9577 21.166 56.8232 21.1857C56.5022 21.2358 56.1812 21.2828 55.8603 21.3344C55.7371 21.3541 55.6836 21.2191 55.5799 21.2251C55.4453 21.2327 55.3124 21.2631 55.1779 21.2843C55.0709 21.301 54.9639 21.3162 54.857 21.3344C54.7516 21.351 54.7516 21.351 54.489 21.2631C54.4663 21.2555 54.4388 21.2449 54.4161 21.2479C54.0416 21.304 53.6656 21.3601 53.2928 21.4208C53.2069 21.4345 53.1355 21.4269 53.0739 21.3708C53.0302 21.3313 52.9848 21.3116 52.9313 21.3207C52.3689 21.4071 51.808 21.4936 51.2455 21.5785C51.2245 21.5816 51.1969 21.5664 51.1758 21.5543C51.1305 21.527 51.0867 21.4951 51.0429 21.4663C51.0105 21.5012 50.9684 21.533 50.9473 21.5725C50.9181 21.6256 50.8792 21.6407 50.8176 21.6498C50.756 21.6589 50.7171 21.6559 50.6685 21.6165C50.6102 21.5679 50.5502 21.53 50.4545 21.5452C49.8661 21.6407 49.2777 21.7272 48.6893 21.8212C48.5921 21.8364 48.5467 21.7696 48.4786 21.7348C48.4559 21.7241 48.43 21.7075 48.4089 21.7105C48.1674 21.7454 47.9275 21.7833 47.686 21.8197C47.0165 21.9228 46.3471 22.0214 45.6793 22.1306C45.5577 22.1504 45.4751 22.1124 45.3891 22.0472C45.3713 22.0336 45.3405 22.026 45.3178 22.029C44.3809 22.1716 43.444 22.3157 42.5088 22.4598C42.4585 22.4673 42.4099 22.4431 42.3693 22.4036C42.3272 22.3627 42.2802 22.343 42.2283 22.3506C41.8004 22.4158 41.3725 22.481 40.9446 22.5477C40.8376 22.5644 40.836 22.5659 40.7257 22.4931C40.703 22.478 40.6788 22.4491 40.6609 22.4522C40.6236 22.4598 40.588 22.4977 40.562 22.5492C40.5361 22.6038 40.4956 22.619 40.4356 22.6296C40.374 22.6402 40.3335 22.6357 40.2865 22.5993C40.2265 22.5538 40.1714 22.5098 40.0741 22.525C38.8438 22.7191 37.6136 22.9057 36.3833 23.0983C36.2844 23.1135 36.239 23.0498 36.1709 23.0149C36.1482 23.0043 36.1256 22.9891 36.1012 22.9861C36.0753 22.983 36.0477 22.9921 36.0218 22.9967C34.0151 23.3046 32.0084 23.614 30.0017 23.9219C29.8818 23.9401 29.8834 23.9401 29.7521 24.0796C29.7359 24.0963 29.7148 24.119 29.6921 24.1221C29.0778 24.2192 28.4618 24.3132 27.8459 24.4072C27.5784 24.4482 27.311 24.4907 27.0435 24.5301C26.9479 24.5437 26.9479 24.5437 26.7193 24.7076C26.6999 24.7212 26.6772 24.7394 26.6545 24.7424C25.5847 24.9078 24.5149 25.0731 23.4434 25.2354C23.3591 25.2475 23.2911 25.2748 23.2522 25.3476C23.2246 25.3992 23.189 25.4295 23.1355 25.4386C22.3866 25.5539 21.6377 25.6707 20.8873 25.7829C20.7981 25.7966 20.7446 25.839 20.7008 25.9027C20.6862 25.924 20.6733 25.9482 20.6522 25.9634C20.6327 25.977 20.6036 25.9816 20.5793 25.9861C19.9374 26.0847 19.2955 26.1864 18.652 26.2804C18.5564 26.2941 18.5174 26.3502 18.4704 26.4093C18.4542 26.429 18.4429 26.4563 18.4218 26.47C18.4007 26.4821 18.3699 26.4821 18.344 26.4852C17.8091 26.5671 17.2742 26.6505 16.7393 26.7324C16.6356 26.7248 16.6128 26.8128 16.5626 26.8659C16.5448 26.8841 16.5318 26.9083 16.5108 26.9205C16.4881 26.9326 16.4589 26.9311 16.4313 26.9341C16.0034 26.9993 15.5755 27.0691 15.1459 27.1298C15.047 27.1434 15.0276 27.2208 14.9741 27.2738C14.9563 27.2905 14.9385 27.3163 14.9174 27.3209C14.6499 27.3649 14.3825 27.4058 14.115 27.4452C14.0259 27.4589 14.0259 27.4574 13.8686 27.6075C13.8508 27.6242 13.8297 27.6424 13.807 27.647C13.4067 27.7107 13.0047 27.7713 12.6027 27.8335C12.5508 27.8411 12.5152 27.8775 12.4892 27.9291C12.4633 27.9806 12.426 28.014 12.3742 28.0216C12.0532 28.0717 11.7322 28.1232 11.4113 28.1687C11.3221 28.1809 11.2638 28.2188 11.2249 28.287C11.1957 28.3386 11.1601 28.3644 11.1033 28.3735C10.7824 28.422 10.4615 28.4751 10.1389 28.5176C10.0449 28.5297 9.99623 28.5813 9.95733 28.645C9.92653 28.6965 9.89087 28.7147 9.83089 28.7238C9.2425 28.8118 8.6525 28.8998 8.06572 28.9968C7.96685 29.0135 7.91659 28.9604 7.85175 28.9225C7.75936 28.8694 7.67347 28.8118 7.67347 28.6935C7.67347 28.6753 7.64591 28.6541 7.62646 28.6389C7.4822 28.5251 7.48219 28.5252 7.4595 28.4038C7.44653 28.3295 7.43195 28.2537 7.4206 28.1778C7.39953 28.0535 7.34764 28.0216 7.19851 28.0444C7.14502 28.0519 7.09153 28.0625 7.03804 28.0686C6.95862 28.0792 6.89865 28.0292 6.88406 27.9382C6.87596 27.8881 6.86625 27.8381 6.85814 27.788C6.93919 27.7759 6.93755 27.7744 7.08019 27.5909C7.14016 27.5135 7.14019 27.5135 7.0251 27.4361C6.98134 27.4073 6.93918 27.3755 6.89218 27.3482C6.8711 27.336 6.84356 27.3284 6.82087 27.3315C6.68633 27.3497 6.55342 27.3709 6.4205 27.3922C6.20654 27.4255 6.20651 27.4255 5.98931 27.2708C5.97148 27.2587 5.94392 27.2359 5.94716 27.2238C5.96499 27.1677 6.00875 27.1434 6.06387 27.1373C6.14491 27.1282 6.22433 27.1131 6.30376 27.1009C6.35725 27.0934 6.41074 27.0843 6.46423 27.0767C6.51448 27.019 6.56638 26.9629 6.61338 26.9038C6.68794 26.8128 6.68792 26.8097 6.5858 26.746C6.52096 26.7036 6.45126 26.6656 6.38481 26.6262C6.30538 26.6383 6.22434 26.652 6.14491 26.6626C6.04442 26.6762 6.00389 26.6474 5.97795 26.5488C5.95526 26.4624 5.98282 26.3881 6.06062 26.3699C6.14005 26.3517 6.21464 26.3396 6.25516 26.2622C6.29407 26.1879 6.36213 26.159 6.44642 26.153C6.49991 26.1484 6.5534 26.1378 6.60689 26.1287C6.67659 26.1166 6.71388 26.0392 6.6993 25.9528C6.69119 25.8967 6.67498 25.8496 6.61176 25.8375C6.33134 25.7844 6.32808 25.7859 6.18868 25.6828C6.17571 25.6737 6.16601 25.6464 6.17087 25.6328C6.17898 25.61 6.19681 25.5766 6.21626 25.5721C6.40267 25.5387 6.58907 25.5084 6.77547 25.4856C6.83707 25.4781 6.88246 25.4674 6.90353 25.4113C6.93271 25.3339 6.91974 25.2627 6.86301 25.2096C6.84518 25.1929 6.81598 25.1717 6.79653 25.1732C6.58257 25.2005 6.37023 25.2354 6.15627 25.2627C6.13682 25.2657 6.10118 25.2399 6.09307 25.2202C6.07686 25.1838 6.10116 25.1353 6.15789 25.1186C6.23246 25.0958 6.30864 25.0943 6.35889 25.0185C6.42859 24.9108 6.51449 24.8122 6.59229 24.7091C6.60526 24.6909 6.62636 24.656 6.62149 24.6529C6.58097 24.6196 6.53396 24.5938 6.49181 24.5619C6.42049 24.5089 6.42048 24.4345 6.43669 24.3633C6.44965 24.3056 6.49828 24.2829 6.55826 24.2829C6.58419 24.2829 6.61661 24.2829 6.63768 24.2692C6.69279 24.2359 6.71063 24.1934 6.68307 24.1615C6.66686 24.1433 6.6377 24.1175 6.61825 24.1206C6.27137 24.1706 5.92285 24.2192 5.57759 24.2813C5.47547 24.2995 5.4285 24.2419 5.3669 24.201C5.31989 24.1691 5.2761 24.157 5.21775 24.1797C5.16264 24.201 5.10917 24.1888 5.07513 24.1388C5.04757 24.0978 5.09619 24.0629 5.22748 24.0235C5.2518 24.0159 5.27934 24.0114 5.29717 23.9962C5.4852 23.8324 5.48519 23.8309 5.61487 23.8096C5.7413 23.7899 5.74133 23.7884 5.80779 23.7004C5.83858 23.6595 5.8726 23.6185 5.90177 23.5761C5.91312 23.5594 5.9326 23.529 5.92611 23.5199C5.89045 23.4729 5.8418 23.4623 5.78507 23.4729C5.65864 23.4987 5.50954 23.4775 5.44308 23.6216C5.41714 23.6762 5.37662 23.6913 5.31826 23.7004C4.73149 23.7884 4.1447 23.8825 3.5563 23.9674C3.46067 23.981 3.41693 24.0372 3.37964 24.0993C3.34723 24.1509 3.31156 24.1661 3.24996 24.1752C3.18837 24.1843 3.13972 24.1888 3.10406 24.1388C3.08298 24.1084 3.10082 24.066 3.14945 24.0235C3.21915 23.9628 3.20617 23.887 3.18348 23.8157C3.16727 23.7687 3.11702 23.7353 3.06353 23.7384C2.98411 23.7444 2.90794 23.7611 2.84149 23.7004C2.80258 23.6656 2.75395 23.6413 2.71018 23.6109C2.62589 23.5488 2.5416 23.4851 2.42328 23.526C2.34223 23.5109 2.2855 23.4563 2.22066 23.4138C2.11206 23.344 2.10233 23.3334 2.18014 23.2591C2.26767 23.1757 2.19957 23.0664 2.2482 22.9845C2.30007 22.8966 2.37142 22.8192 2.43463 22.7373C2.45084 22.7161 2.46544 22.6964 2.48165 22.6751C2.44436 22.6448 2.41033 22.6069 2.36657 22.5857C2.30983 22.5584 2.28066 22.525 2.2839 22.4309C2.27255 22.4173 2.27738 22.4522 2.29035 22.4613C2.30494 22.4704 2.34062 22.4628 2.35845 22.4522C2.40384 22.4234 2.42651 22.3854 2.41516 22.3536C2.40868 22.3369 2.3779 22.3157 2.35845 22.3157C2.32279 22.3157 2.292 22.349 2.28228 22.4309C2.10073 22.4931 1.91267 22.5235 1.72465 22.5477C1.7052 22.5508 1.6809 22.5204 1.6582 22.5053C1.58364 22.4537 1.58363 22.4552 1.36481 22.44C1.34211 22.4385 1.31133 22.4173 1.29999 22.3961C1.25298 22.3035 1.25461 22.2019 1.23192 22.1033C1.27406 22.0396 1.31617 21.9774 1.35994 21.9153C1.44747 21.7894 1.56096 21.6787 1.62904 21.5406C1.61445 21.4663 1.595 21.392 1.66632 21.3313C1.86893 21.2555 1.86732 21.2555 1.92243 21.1827C2.07966 20.9764 2.23526 20.7686 2.39898 20.5654C2.44274 20.5123 2.44275 20.4835 2.36494 20.4607C2.34063 20.4547 2.31466 20.4531 2.28873 20.4562C2.20768 20.4668 2.12663 20.4941 2.04721 20.488C1.96778 20.4835 1.90943 20.4167 1.84459 20.3758C1.77814 20.3333 1.71168 20.2893 1.64522 20.2453C1.56904 20.2499 1.49287 20.2924 1.41669 20.2241C1.35833 20.171 1.2854 20.1331 1.21894 20.0891C1.26919 19.9738 1.36322 19.8859 1.43616 19.7842C1.50261 19.6917 1.5042 19.6933 1.6825 19.622C1.76679 19.5886 1.79597 19.4172 1.72465 19.3671C1.63874 19.3065 1.54799 19.2504 1.46046 19.1927C1.38427 19.1973 1.30648 19.2382 1.23354 19.17C1.17681 19.1184 1.11196 19.0835 1.01795 19.1032C0.859095 19.1366 0.697007 19.1533 0.536536 19.1806C0.481424 19.1897 0.421433 19.1836 0.397119 19.1321C0.380909 19.0957 0.427919 19.0456 0.48141 19.035C0.562456 19.0198 0.63539 19.0016 0.675913 18.9258C0.714815 18.85 0.786128 18.8272 0.870416 18.8166C0.893109 18.8135 0.919063 18.7953 0.930409 18.7771C0.988763 18.6892 1.0536 18.6133 1.17842 18.6164C1.23029 18.586 1.25782 18.5481 1.24161 18.5117C1.23189 18.492 1.19787 18.4662 1.17842 18.4693C1.04388 18.4844 0.909347 18.4996 0.778052 18.5269C0.716457 18.539 0.669425 18.542 0.630522 18.4965C0.602967 18.4662 0.617553 18.4253 0.669423 18.3813C0.714809 18.3434 0.727791 18.2994 0.724549 18.2478C0.716444 18.128 0.667807 18.0931 0.512198 18.1007C0.400354 18.1068 0.372797 18.087 0.348483 17.9839C0.341999 17.9596 0.325819 17.9263 0.337165 17.9096C0.406865 17.8064 0.452254 17.679 0.583549 17.6305C0.635418 17.6123 0.690508 17.6123 0.722926 17.5729C0.755345 17.5334 0.784536 17.4879 0.818575 17.45C0.860719 17.4045 0.889867 17.362 0.870416 17.3332C0.837998 17.2817 0.786145 17.2771 0.726171 17.2953C0.674302 17.3105 0.619192 17.312 0.565701 17.3211C0.470067 17.3378 0.39228 17.2983 0.380933 17.2316C0.350136 17.0557 0.317708 16.8812 0.290152 16.7053C0.28691 16.6841 0.294993 16.6568 0.30796 16.6386C0.353346 16.5749 0.401993 16.5142 0.448999 16.452C0.504111 16.3807 0.591655 16.3944 0.666218 16.3807C0.771578 16.361 0.771541 16.3625 0.912562 16.2169C0.967673 16.1593 1.06331 16.182 1.12004 16.1305C1.13788 16.1138 1.16543 16.0865 1.16057 16.0713C1.15408 16.0516 1.12168 16.0364 1.09737 16.0273C1.07468 16.0182 1.04713 16.0137 1.02281 16.0182C0.727805 16.0622 0.434425 16.1092 0.139417 16.1517C0.0891683 16.1593 0.0340553 16.1259 0.0162251 16.0789C-0.0016051 16.0349 0.00324185 15.9818 0 15.9318C0.0470068 15.8696 0.100477 15.8119 0.141 15.7452C0.171797 15.6936 0.207464 15.6709 0.269059 15.6678C0.350106 15.6633 0.429539 15.6451 0.520311 15.6314C0.688887 15.41 0.85421 15.178 1.03575 14.9565C1.1087 14.867 1.09089 14.776 1.10548 14.6805C1.12007 14.5925 1.22867 14.6062 1.30161 14.5804C1.35996 14.5591 1.37939 14.5106 1.35669 14.4772C1.34373 14.4575 1.31457 14.4347 1.29187 14.4347C1.23838 14.4347 1.18489 14.4484 1.1314 14.456C1.07791 14.4636 1.01632 14.459 0.972555 14.4848C0.930411 14.5091 0.902839 14.5606 0.875284 14.6046C0.844486 14.6532 0.803991 14.6699 0.742396 14.6729C0.662971 14.6759 0.58355 14.6896 0.504125 14.7002C0.416595 14.641 0.325804 14.5834 0.241516 14.5212C0.225307 14.5091 0.222048 14.4742 0.223669 14.4514C0.226911 14.3923 0.202603 14.3559 0.149112 14.3271C0.103727 14.3028 0.0664421 14.2679 0.024298 14.2376C0.0567165 14.1966 0.0923896 14.1572 0.118324 14.1132C0.175057 14.0207 0.246385 13.954 0.369576 13.957C0.418203 13.8978 0.457095 13.825 0.520311 13.7841C0.580285 13.7446 0.682408 13.7841 0.727794 13.6946C0.750487 13.6506 0.784545 13.6005 0.82831 13.5823C0.89801 13.5535 0.98878 13.5687 1.0293 13.4838C1.05362 13.4352 1.08926 13.3912 1.13627 13.3791C1.18976 13.3655 1.24486 13.3624 1.28376 13.3336C1.30483 13.3185 1.32753 13.2942 1.32753 13.2729C1.32753 13.2593 1.29513 13.2381 1.27244 13.229C1.25137 13.2183 1.22378 13.2108 1.19947 13.2138C1.11842 13.2229 1.039 13.2396 0.957952 13.2487C0.93526 13.2517 0.909333 13.2411 0.885019 13.232C0.813698 13.2077 0.818551 13.1774 0.875284 13.1228C0.932016 13.0697 0.972561 13.0014 1.01957 12.9393C1.07144 12.9286 1.13627 12.9332 1.17193 12.9044C1.2319 12.8574 1.27403 12.7891 1.32266 12.7299C1.37615 12.7208 1.43126 12.7178 1.48151 12.7011C1.50258 12.6951 1.51231 12.6617 1.53014 12.642C1.56256 12.6041 1.59014 12.5495 1.63391 12.5313C1.70523 12.504 1.79275 12.5146 1.8349 12.4312C1.85921 12.3826 1.89648 12.3311 1.94187 12.328C2.0683 12.322 2.12179 12.2385 2.18663 12.1597C2.23525 12.1005 2.339 12.1308 2.39249 12.0717C2.42815 12.0338 2.4541 11.9867 2.48976 11.9503C2.50435 11.9352 2.53513 11.9276 2.55945 11.9231C2.69236 11.9003 2.82689 11.8836 2.95981 11.8593C2.98088 11.8548 3.00035 11.8321 3.01656 11.8139C3.0506 11.7744 3.07165 11.7198 3.11379 11.694C3.15593 11.6682 3.2159 11.6683 3.26777 11.6607C3.43473 11.6379 3.44771 11.644 3.52389 11.515C3.58548 11.4104 3.73625 11.4847 3.7865 11.3694C3.81568 11.3027 3.86914 11.2481 3.96478 11.2405C4.09931 11.2299 4.23223 11.2011 4.36676 11.1814C4.48671 11.1632 4.48509 11.1632 4.61477 11.0221C4.67312 10.9584 4.75905 10.9675 4.83523 10.9554C4.91628 10.9433 4.99083 10.9251 5.02974 10.8492C5.06864 10.7749 5.13995 10.7506 5.22262 10.74C5.2988 10.7294 5.38473 10.737 5.4447 10.6763C5.59058 10.5307 5.58897 10.5292 5.69109 10.514C5.85156 10.4897 6.01202 10.4655 6.1725 10.4397C6.27948 10.423 6.39132 10.42 6.49181 10.3866C6.56475 10.3623 6.59716 10.2774 6.64417 10.2183C6.77709 10.1955 6.91 10.1727 7.04291 10.1515C7.22932 10.1212 7.41734 10.0939 7.60537 10.0651C7.68641 10.0074 7.69779 9.88002 7.83394 9.87396C7.91499 9.87092 7.99441 9.85121 8.07546 9.83908C8.21 9.81784 8.34291 9.79054 8.47745 9.77992C8.57956 9.77234 8.59737 9.69043 8.65086 9.63886C8.66869 9.62066 8.68491 9.59488 8.70598 9.59033C8.9167 9.54786 9.13389 9.53876 9.33975 9.47658C9.36082 9.47051 9.38028 9.43865 9.38514 9.4159C9.38838 9.40377 9.36082 9.38103 9.34299 9.37041C9.32192 9.35828 9.29438 9.34614 9.27168 9.34918C8.60224 9.4508 7.93282 9.55394 7.26337 9.65556C7.16936 9.67073 7.16936 9.6692 6.94081 9.83604C6.92136 9.84969 6.89864 9.86485 6.87433 9.8694C6.76735 9.8876 6.65875 9.89823 6.55339 9.92099C6.46748 9.93919 6.39618 9.92097 6.33459 9.86637C6.29082 9.82693 6.24541 9.81481 6.1903 9.81784C6.12871 9.82239 6.08821 9.83908 6.05255 9.88003C6.00554 9.93615 5.98122 10.0089 5.88234 10.0241C5.42686 10.0893 4.97136 10.1621 4.5175 10.2319C4.45428 10.2107 4.42349 10.1788 4.4397 10.1409C4.44942 10.1182 4.46888 10.0878 4.48833 10.0848C4.67474 10.0529 4.86276 10.0256 5.04917 9.9953C5.0751 9.99075 5.11076 9.99377 5.12534 9.9786C5.19667 9.91035 5.22263 9.79963 5.35717 9.79205C5.43497 9.7875 5.51438 9.76476 5.58895 9.74352C5.61002 9.73745 5.62947 9.7056 5.63434 9.68285C5.63596 9.67072 5.61002 9.64796 5.59057 9.63734C5.51925 9.59336 5.4366 9.64646 5.36528 9.61612C5.34096 9.60551 5.3069 9.59033 5.30204 9.57213C5.2988 9.55545 5.32636 9.52814 5.34581 9.51146C5.36364 9.49629 5.38794 9.48265 5.41225 9.47809C5.62621 9.44321 5.84021 9.40681 6.05417 9.3795C6.1417 9.36889 6.20328 9.33096 6.24218 9.26119C6.27136 9.20963 6.30702 9.18233 6.36213 9.17475C6.73656 9.11863 7.11099 9.05645 7.48704 9.00488C7.58106 8.99274 7.6297 8.9427 7.66861 8.87748C7.6994 8.82591 7.73507 8.8077 7.79504 8.7986C8.33157 8.71973 8.86484 8.63177 9.40137 8.55593C9.50024 8.54228 9.52943 8.47706 9.57968 8.42094C9.59751 8.40122 9.60883 8.37696 9.63152 8.36482C9.65422 8.35269 9.68339 8.35419 9.71095 8.35116C10.1389 8.28594 10.5668 8.21618 10.9964 8.15551C11.0969 8.14186 11.1163 8.06602 11.1682 8.01293C11.186 7.99625 11.2022 7.96895 11.2233 7.9644C11.5442 7.91284 11.8652 7.8643 12.1861 7.81425C12.4001 7.78088 12.614 7.74751 12.828 7.71566C12.9333 7.70049 12.9333 7.69897 13.076 7.55488C13.0922 7.53819 13.1149 7.51847 13.136 7.51392C13.7519 7.41685 14.3662 7.32435 14.9822 7.2288C15.0341 7.22121 15.0713 7.18631 15.0973 7.13474C15.1232 7.08317 15.1605 7.04829 15.2108 7.0407C15.6922 6.96487 16.1736 6.89055 16.6566 6.81927C16.7442 6.80713 16.8057 6.77073 16.8446 6.70248C16.8738 6.65091 16.9095 6.62362 16.9646 6.61603C17.446 6.54323 17.9274 6.46586 18.4105 6.3961C18.5029 6.38245 18.5482 6.33088 18.5936 6.27021C18.6098 6.24898 18.6228 6.21409 18.6423 6.21106C18.8822 6.16859 19.1204 6.1246 19.3619 6.09579C19.4624 6.08365 19.4965 6.01995 19.537 5.95928C19.5694 5.91074 19.6067 5.89406 19.6683 5.888C19.8029 5.87435 19.9358 5.84857 20.0671 5.82279C20.0865 5.81824 20.1108 5.78487 20.1125 5.76363C20.1157 5.7242 20.0784 5.69689 20.0168 5.68324C19.3749 5.78183 18.7314 5.88041 18.0895 5.979C17.9842 5.99568 17.9842 5.99569 17.8415 6.13978C17.8253 6.15646 17.8026 6.17618 17.7799 6.18073C17.164 6.27629 16.5497 6.37032 15.9337 6.46588C15.8818 6.47346 15.8446 6.50835 15.8186 6.55991C15.7927 6.61148 15.7554 6.64637 15.7051 6.65395C15.1167 6.74495 14.5283 6.83748 13.9383 6.92393C13.8508 6.93607 13.7892 6.97094 13.7503 7.0407C13.7211 7.09227 13.6855 7.11958 13.6304 7.12717C13.0679 7.2121 12.507 7.30158 11.943 7.38349C11.8862 7.39107 11.8441 7.34708 11.8474 7.30613C11.849 7.2849 11.8733 7.25003 11.8927 7.247C12.1861 7.19694 12.4779 7.14537 12.7729 7.10745C12.8718 7.09532 12.9009 7.02858 12.9512 6.97246C12.9674 6.95274 12.9804 6.92696 13.0014 6.91634C13.0241 6.90421 13.0533 6.90573 13.0809 6.9027C13.7762 6.79501 14.4716 6.68581 15.1686 6.58419C15.2691 6.56902 15.2885 6.49469 15.3404 6.4416C15.3582 6.4234 15.3745 6.39611 15.3955 6.39308C15.6095 6.35668 15.8235 6.32482 16.0374 6.29297C16.4119 6.23533 16.7863 6.1777 17.1623 6.12006C17.2709 6.10338 17.2709 6.10337 17.4103 5.9608C17.4266 5.94411 17.4493 5.92289 17.4703 5.91986C18.4607 5.76667 19.4511 5.61348 20.4415 5.46181C20.4934 5.45422 20.5306 5.41934 20.5566 5.36777C20.5825 5.31772 20.6198 5.28131 20.67 5.27221C22.0089 5.06594 23.3462 4.85966 24.6851 4.65641C24.7726 4.64276 24.8342 4.61091 24.8731 4.53962C24.9006 4.48805 24.9379 4.46076 24.993 4.45166C26.4648 4.22567 27.9366 3.99968 29.4101 3.77217C30.4004 3.6205 31.3908 3.46579 32.3812 3.31715C32.472 3.3035 32.5206 3.25647 32.566 3.19429C32.5806 3.17305 32.5952 3.13817 32.6146 3.13513C32.827 3.09721 33.0393 3.06234 33.2516 3.02745C33.3181 3.0684 33.3846 3.10784 33.451 3.1488C33.5013 3.09116 33.5499 3.032 33.6002 2.97437C33.9211 2.93038 34.2372 2.86213 34.5614 2.8409C34.5824 2.83938 34.6051 2.8682 34.6278 2.88337C34.7785 2.97892 34.8645 2.97134 34.9601 2.84393C34.9941 2.79843 35.0233 2.75748 35.0752 2.7499C35.2357 2.7226 35.3978 2.70439 35.5566 2.67254C35.6425 2.65586 35.7138 2.67102 35.7754 2.72562C35.8192 2.76506 35.8646 2.78175 35.9181 2.77265C36.2131 2.72715 36.5065 2.68316 36.8015 2.63462C36.8226 2.63159 36.842 2.6058 36.8582 2.5876C36.8922 2.54816 36.9214 2.5057 36.9538 2.46475C36.9976 2.49054 37.0462 2.51026 37.0819 2.54362C37.1273 2.58306 37.1694 2.58305 37.231 2.57243C38.4078 2.38891 39.5862 2.20994 40.763 2.0249C40.8635 2.00973 40.9073 2.07344 40.9754 2.10681C40.9981 2.11894 41.0207 2.1341 41.0451 2.13713C41.071 2.14017 41.0985 2.13107 41.1245 2.12652C42.0079 1.99002 42.8913 1.85502 43.7747 1.71851C43.8914 1.70031 43.8914 1.70031 44.0649 1.79435C44.0859 1.80649 44.1135 1.82014 44.1362 1.81559C44.5382 1.75644 44.9401 1.69274 45.3405 1.63207C45.3924 1.62449 45.4362 1.64875 45.4832 1.68363C45.5756 1.75189 45.582 1.75189 45.6501 1.65179C45.6825 1.60477 45.7166 1.57594 45.77 1.56229C45.8284 1.54712 45.8754 1.55169 45.9208 1.57899C45.9857 1.61691 46.0327 1.6806 46.1315 1.66391C46.5595 1.59263 46.989 1.53348 47.4153 1.46068C47.5126 1.44399 47.5644 1.49556 47.6293 1.53348C47.652 1.54713 47.673 1.56836 47.6973 1.57292C47.7217 1.57747 47.7508 1.56684 47.7768 1.56229C48.3117 1.48038 48.8482 1.40001 49.3815 1.31204C49.482 1.29536 49.5257 1.36057 49.5938 1.39393C49.6165 1.40607 49.6424 1.42731 49.6635 1.42428C49.9844 1.37726 50.307 1.32719 50.628 1.27714C50.7431 1.25894 50.743 1.26046 50.9181 1.35298C50.9392 1.36511 50.9668 1.37725 50.9895 1.37421C51.3639 1.3181 51.7399 1.26046 52.1144 1.20282C52.2294 1.18462 52.2295 1.18463 52.5617 1.2635C52.5861 1.26956 52.612 1.27868 52.6363 1.27564C53.0642 1.21042 53.4938 1.14671 53.9217 1.07694C54.0076 1.06329 54.0789 1.07542 54.1405 1.13002C54.1843 1.16946 54.2297 1.18615 54.2831 1.17705C54.7646 1.10273 55.2476 1.03145 55.7274 0.952579C55.8198 0.937412 55.8798 0.970766 55.9446 1.01475C55.9657 1.02992 55.9868 1.05116 56.0111 1.05722C56.0354 1.06329 56.0629 1.05722 56.0889 1.05267C56.5703 0.97835 57.0533 0.908583 57.5331 0.828197C57.6304 0.811513 57.6822 0.863079 57.7471 0.900997C57.7698 0.914647 57.7941 0.94195 57.8135 0.940433C58.0015 0.914649 58.1896 0.891906 58.376 0.853988C58.4765 0.832754 58.5202 0.902511 58.5883 0.935879C58.611 0.946496 58.6369 0.969258 58.658 0.966224C59.06 0.907072 59.462 0.844891 59.8624 0.781188C59.9191 0.772088 59.9613 0.785726 60.0066 0.825161C60.0666 0.878246 60.1363 0.899481 60.2239 0.882797C60.4103 0.847912 60.5983 0.823651 60.7863 0.794833C60.8965 0.778149 60.8965 0.778155 61.2337 0.857024C61.258 0.863091 61.2839 0.872185 61.3082 0.869152C61.6292 0.820616 61.9517 0.773601 62.2711 0.720515C62.357 0.705348 62.4283 0.718995 62.4899 0.773597C62.5337 0.813032 62.5774 0.829725 62.6325 0.820624C62.9275 0.775123 63.221 0.729617 63.516 0.684115C63.6229 0.667431 63.7299 0.638606 63.8369 0.638606C63.9147 0.640123 63.9714 0.712923 64.0411 0.749324C64.0606 0.759941 64.093 0.747822 64.1189 0.744788C64.4934 0.687152 64.8694 0.634062 65.2422 0.568843C65.3395 0.552159 65.3914 0.603724 65.4562 0.641643C65.4789 0.655293 65.5032 0.682596 65.5227 0.681079C65.6572 0.664395 65.7901 0.641642 65.9246 0.621924C66.0851 0.597657 66.2472 0.579456 66.406 0.546088C66.5357 0.518787 66.5843 0.650738 66.6881 0.655288C66.7675 0.659838 66.8486 0.634058 66.928 0.621924C67.0885 0.597657 67.2489 0.570359 67.4094 0.549124C67.4661 0.541541 67.5099 0.517263 67.5278 0.462661C67.531 0.452043 67.5034 0.429302 67.4856 0.415652C67.27 0.260946 67.27 0.260938 67.0528 0.294306C66.9183 0.31554 66.7853 0.336778 66.6508 0.354979C66.6281 0.358012 66.6022 0.345879 66.5795 0.336779C66.5147 0.310995 66.5211 0.280663 66.5763 0.226061C66.6314 0.171459 66.6735 0.104729 66.7205 0.0425428C66.787 0.0819777 66.8518 0.121398 66.9183 0.160833C66.9718 0.15325 67.0253 0.144163 67.0788 0.136579C67.3462 0.0971442 67.6137 0.0561896 67.8811 0.0197882C67.9006 0.0167547 67.9249 0.0470937 67.9475 0.062261C68.0124 0.106246 68.0708 0.144154 68.1648 0.12747C68.4047 0.0834848 68.6462 0.0516335 68.8861 0.0137153C68.9914 -0.00296866 68.9914 -0.00296718 69.1762 0.0910699C69.1973 0.101687 69.2248 0.113822 69.2475 0.110788C69.4891 0.0759034 69.7289 0.0379896 69.9705 0.00158819C70.0223 -0.00599545 70.0726 0.0137213 70.1099 0.0577063C70.1245 0.0759071 70.1212 0.106236 70.1828 0.354979C70.3741 0.556704 70.5054 0.53548 70.6383 0.517279C70.695 0.509695 70.7453 0.502104 70.7825 0.47177C70.802 0.455086 70.8263 0.430814 70.8263 0.411097C70.8263 0.39593 70.7907 0.371658 70.768 0.368624C70.6075 0.33829 70.4551 0.402001 70.2979 0.415652C70.2249 0.421719 70.1617 0.368632 70.1488 0.282179C70.1455 0.257911 70.1407 0.232128 70.1358 0.207861C70.1309 0.183593 70.1277 0.15781 70.1229 0.133543C70.0596 0.125959 70.0224 0.153256 69.9948 0.204824C69.9721 0.247293 69.9397 0.295828 69.8959 0.318579C69.8521 0.342847 69.7922 0.338305 69.7387 0.345888C69.6868 0.353472 69.6301 0.373187 69.5815 0.36257C69.5328 0.350436 69.4939 0.306444 69.4485 0.279143C69.4275 0.265492 69.4015 0.245782 69.3805 0.248815C69.1941 0.2746 69.0093 0.300374 68.8245 0.333742C68.7272 0.351943 68.6786 0.28825 68.617 0.248815C68.5684 0.218481 68.5197 0.226055 68.5116 0.295824C68.4906 0.462664 68.5651 0.53243 68.7305 0.500579C68.8666 0.473278 68.9898 0.468742 69.0968 0.571879C69.1114 0.58553 69.1454 0.591594 69.1665 0.588561C69.2994 0.57036 69.4307 0.547607 69.5636 0.529406C69.5879 0.526373 69.6139 0.53243 69.6366 0.538497C69.9672 0.6204 69.9672 0.621925 70.0791 0.603724C70.1326 0.594624 70.1844 0.58704 70.1796 0.356497C70.2817 0.109271 70.4438 0.0925896 70.601 0.0561881C70.7031 0.0334372 70.7469 0.100176 70.8133 0.135061C70.836 0.147195 70.8604 0.171458 70.8814 0.168424C71.2299 0.118372 71.5768 0.0652796 71.9237 0.00916071C71.982 6.03503e-05 72.0242 0.00916219 72.0695 0.0485971C72.1279 0.0986491 72.1928 0.130507 72.2851 0.112306C72.4699 0.0759048 72.658 0.0531591 72.846 0.0228246C72.9416 0.00765731 72.9416 0.00764177 73.1345 0.101679C73.1556 0.112296 73.1831 0.12443 73.2058 0.121397C73.3938 0.0956127 73.5803 0.063771 73.7667 0.0364699C73.8186 0.0288863 73.8655 0.0501183 73.9061 0.0910699C73.9466 0.132022 73.9952 0.153253 74.0455 0.14567C74.2335 0.118369 74.4199 0.0880438 74.6063 0.0607428C74.629 0.0577093 74.6566 0.0683257 74.6776 0.0789427C74.8754 0.17298 74.8754 0.172964 74.9662 0.157797C75.0991 0.135046 75.2352 0.124441 75.3665 0.0941063C75.4946 0.0637718 75.561 0.151735 75.6486 0.20027C75.8885 0.165385 76.13 0.136575 76.3682 0.0941063C76.4655 0.0759056 76.5174 0.125953 76.5822 0.165388C76.6049 0.179039 76.6276 0.207859 76.6487 0.206343C76.7297 0.200276 76.8092 0.183595 76.8886 0.171461C76.968 0.159327 77.0491 0.147195 77.1285 0.135061C77.2193 0.179046 77.2792 0.282182 77.4089 0.247297C77.4867 0.226063 77.5694 0.221513 77.6488 0.209379C77.7282 0.197245 77.8093 0.185113 77.8887 0.172979C77.9422 0.165395 77.9973 0.160839 78.0492 0.147188C78.1448 0.124437 78.1918 0.198766 78.2599 0.232134C78.2826 0.242751 78.3085 0.26094 78.3296 0.257906C78.4901 0.236672 78.6521 0.218473 78.8094 0.183588C78.9309 0.156287 79.0136 0.201795 79.0995 0.265497C79.1174 0.279148 79.1481 0.286731 79.1708 0.283697C79.3589 0.257913 79.5453 0.226053 79.7317 0.198752C79.7819 0.191168 79.8306 0.215435 79.8711 0.25487C79.9132 0.295821 79.9602 0.315554 80.0121 0.30797C80.1985 0.280669 80.3865 0.250325 80.573 0.223024C80.5956 0.219991 80.6232 0.232127 80.6443 0.244261C80.8258 0.338298 80.8258 0.339816 80.9328 0.321615C80.9587 0.317065 80.9863 0.31402 81.0122 0.30947C81.1451 0.288235 81.2829 0.280662 81.4126 0.244261C81.5617 0.203309 81.6703 0.25488 81.7757 0.341334C81.9086 0.323133 82.0447 0.312513 82.1744 0.282179C82.2717 0.259428 82.3235 0.317061 82.3884 0.354979C82.4111 0.368629 82.4354 0.395931 82.4548 0.392897C82.6429 0.367113 82.8309 0.34437 83.0157 0.306452C83.1162 0.285218 83.1599 0.353458 83.228 0.388342C83.2507 0.400476 83.275 0.421722 83.2961 0.418688C83.4031 0.406554 83.5101 0.388345 83.6171 0.371661C83.7419 0.351943 83.7418 0.353458 83.9072 0.445979C83.985 0.489964 84.0628 0.455078 84.139 0.444461C84.22 0.432327 84.2962 0.423229 84.361 0.485415C84.4016 0.52485 84.4502 0.549118 84.5005 0.543052C84.6074 0.529401 84.716 0.515757 84.8214 0.493006C84.9057 0.474805 84.9786 0.486933 85.0402 0.543052C85.084 0.582486 85.1294 0.602216 85.1829 0.593115C85.4228 0.556714 85.6643 0.518782 85.9042 0.483897C85.9252 0.480864 85.9544 0.494519 85.9738 0.50817C86.0192 0.535471 86.063 0.565799 86.1068 0.596133C86.2121 0.582483 86.3207 0.576431 86.4245 0.555197C86.5347 0.533963 86.6352 0.526377 86.7211 0.609797C86.7389 0.627998 86.7649 0.653768 86.7859 0.652251C86.867 0.646185 86.9464 0.631022 87.0258 0.618888C87.1053 0.606754 87.1863 0.594622 87.2657 0.582488C87.3581 0.620406 87.4165 0.729609 87.5462 0.694724C87.624 0.67349 87.7066 0.66894 87.7861 0.656806C87.8655 0.644672 87.9465 0.631023 88.026 0.620406C88.0519 0.617373 88.0811 0.609785 88.1038 0.615852C88.1281 0.621918 88.1491 0.643157 88.1702 0.658324C88.235 0.702309 88.295 0.7463 88.3874 0.720515C88.4652 0.699281 88.5479 0.694729 88.6273 0.681079C88.7359 0.664395 88.7359 0.664398 88.9159 0.759952C88.9888 0.799387 89.0714 0.74782 89.1411 0.781188C89.1882 0.803939 89.2287 0.841849 89.2741 0.867633C89.2935 0.87825 89.3243 0.882794 89.347 0.879761C89.454 0.86611 89.5626 0.852466 89.6679 0.829715C89.7539 0.811514 89.8252 0.829713 89.8852 0.884315C89.9289 0.92375 89.9727 0.940443 90.0278 0.931343C90.2952 0.888874 90.5627 0.852461 90.8286 0.805442C90.9193 0.788758 90.9922 0.814549 91.0425 0.869152C91.1284 0.963189 91.25 0.85247 91.3391 0.928306C91.3942 0.975325 91.4494 1.02993 91.5499 1.00718C91.7346 0.967744 91.9227 0.946498 92.1091 0.919197C92.1755 0.960149 92.242 1.00111 92.3101 1.04206C92.417 1.02538 92.524 1.00868 92.631 0.993515C92.7104 0.981381 92.7915 0.967732 92.8709 0.957115C92.8968 0.954082 92.9244 0.948013 92.9487 0.955597C92.973 0.96318 92.9925 0.982902 93.0152 0.99807C93.127 1.07239 93.127 1.07391 93.3118 1.04358C93.3912 1.02993 93.4674 1.02083 93.5339 1.0815C93.5955 1.13762 93.6684 1.14823 93.7527 1.13154C93.9115 1.10121 94.072 1.07846 94.2341 1.05722C94.2844 1.04964 94.3314 1.07543 94.3735 1.11486C94.4367 1.17705 94.5145 1.17098 94.594 1.1543C94.6993 1.13306 94.803 1.11183 94.8922 1.19677C94.91 1.21497 94.9376 1.24074 94.957 1.23922C95.09 1.22709 95.2245 1.218 95.3542 1.18918C95.4838 1.16036 95.5471 1.2544 95.6362 1.2999C95.7691 1.28018 95.9036 1.26046 96.0366 1.24074C96.0625 1.23619 96.0933 1.22255 96.116 1.23013C96.2116 1.26198 96.2667 1.37574 96.398 1.34085C96.4742 1.32113 96.5569 1.31507 96.6363 1.31052C96.6574 1.30901 96.6849 1.33478 96.6995 1.3545C96.7076 1.36511 96.6995 1.39393 96.6898 1.4091C96.6606 1.45157 96.625 1.49101 96.599 1.535C96.5958 1.54106 96.6266 1.56835 96.6444 1.58049C96.6882 1.60779 96.7384 1.60325 96.7968 1.59112C96.847 1.5805 96.8989 1.60173 96.9346 1.64723C96.9492 1.66543 96.9443 1.69577 96.9135 1.79587C96.9135 1.87019 96.9475 1.83681 96.9589 1.78828C96.9767 1.71851 96.9427 1.69576 96.8778 1.73368C96.8324 1.76098 96.8098 1.80042 96.8211 1.83227C96.8276 1.84895 96.8584 1.87019 96.9135 1.79587C97.0561 1.70487 97.1631 1.68819 97.2701 1.67151C97.2977 1.66696 97.3301 1.65178 97.3495 1.66088C97.4192 1.69728 97.4841 1.74127 97.5521 1.78222C97.63 1.77312 97.7029 1.75036 97.7791 1.80951C97.886 1.89293 97.8909 1.88535 97.9947 1.86867C98.0481 1.85957 98.1016 1.852 98.1551 1.84442C98.2086 1.83683 98.2507 1.85958 98.2977 1.89446C98.3934 1.96575 98.4015 1.96574 98.4647 1.86867C98.502 1.80952 98.5279 1.7898 98.5749 1.81711C98.7305 1.90963 98.7322 1.91569 98.8651 1.88839C98.9753 1.86564 99.079 1.85957 99.1601 1.94602C99.2152 2.00669 99.233 1.99304 99.2768 1.92934C99.3935 1.76099 99.447 1.76401 99.6658 1.88535C99.7679 1.94299 99.8733 1.88081 99.977 1.87322C100.065 1.86716 100.126 1.90355 100.133 1.99911C100.138 2.05826 100.152 2.10073 100.21 2.12045C100.233 2.12803 100.261 2.13865 100.283 2.13561C100.418 2.11741 100.551 2.09618 100.685 2.07494C100.753 2.06432 100.791 1.99305 100.778 1.89902C100.763 1.79891 100.789 1.7625 100.886 1.73368C100.945 1.71699 100.992 1.72004 101.039 1.74734C101.091 1.77768 101.076 1.80498 101.031 1.85958C100.922 1.99305 100.935 2.07494 101.074 2.16746C101.123 2.19931 101.162 2.22814 101.173 2.27516C101.18 2.29943 101.173 2.33128 101.188 2.34948C101.267 2.4511 101.378 2.51633 101.501 2.56486C101.619 2.52391 101.7 2.59215 101.791 2.64675C101.862 2.68922 101.946 2.65283 102.023 2.63766C102.109 2.62098 102.18 2.6331 102.241 2.68922C102.285 2.72866 102.331 2.74685 102.384 2.73927C102.491 2.72259 102.6 2.71197 102.705 2.68771C102.796 2.66647 102.864 2.69681 102.921 2.74838C102.992 2.8136 103.071 2.76961 103.146 2.77871C103.246 2.78932 103.297 2.92431 103.428 2.88791C103.506 2.86667 103.587 2.85909 103.668 2.85302C103.689 2.85151 103.715 2.8773 103.733 2.8955C103.819 2.97892 103.919 2.97436 104.029 2.9501C104.106 2.93341 104.18 2.91825 104.255 2.97589C104.378 3.07296 104.514 3.1579 104.644 3.24739C104.662 3.31716 104.649 3.39904 104.741 3.44C104.79 3.46123 104.835 3.49309 104.872 3.52798C104.918 3.56893 104.96 3.57955 105.018 3.56893C105.123 3.5477 105.234 3.54313 105.337 3.51583C105.433 3.49156 105.493 3.54163 105.551 3.58865C105.598 3.62657 105.642 3.64476 105.699 3.61746C105.757 3.59168 105.799 3.60835 105.846 3.64931C105.913 3.70542 105.918 3.69937 106.138 3.71605C106.161 3.71757 106.188 3.74031 106.201 3.76002C106.208 3.77064 106.193 3.80099 106.182 3.81616C106.167 3.83436 106.145 3.85558 106.124 3.86013C105.884 3.89957 105.642 3.93445 105.402 3.97389C105.378 3.97844 105.352 3.98907 105.334 4.00423C105.315 4.02092 105.29 4.04365 105.29 4.06489C105.29 4.08005 105.323 4.09826 105.346 4.10888C105.417 4.14376 105.501 4.09068 105.571 4.13011C105.618 4.1559 105.657 4.19229 105.704 4.21656C105.723 4.22718 105.754 4.22567 105.778 4.22263C105.859 4.21202 105.939 4.19685 106.02 4.18775C106.043 4.18623 106.068 4.20141 106.09 4.21354C106.245 4.30455 106.245 4.30454 106.38 4.28482C106.433 4.27724 106.49 4.25449 106.54 4.26359C106.589 4.27269 106.631 4.31364 106.675 4.33942C106.765 4.39403 106.851 4.44711 106.858 4.56541C106.861 4.61092 106.915 4.65034 106.968 4.65338C107.02 4.65641 107.075 4.63974 107.129 4.63064C107.255 4.61244 107.255 4.61244 107.419 4.70496C107.464 4.73074 107.513 4.73377 107.571 4.71861C107.594 4.71254 107.621 4.71861 107.646 4.7262C107.725 4.74895 107.725 4.77776 107.673 4.83236C107.6 4.91275 107.607 4.92033 107.811 4.98859C107.889 5.01437 107.949 5.06291 108.014 5.10538C108.119 5.17363 108.117 5.17362 108.048 5.2631C108.031 5.28282 108.017 5.30406 108.001 5.3253C107.954 5.38445 107.916 5.44815 107.819 5.45421C107.712 5.46028 107.605 5.48456 107.498 5.50124C107.394 5.51793 107.367 5.55431 107.377 5.65745C107.388 5.78182 107.409 5.79548 107.595 5.79396C107.649 5.79396 107.696 5.80609 107.736 5.84704C107.717 5.89558 107.681 5.9335 107.629 5.9426C107.497 5.96535 107.362 5.98507 107.229 6.00479C107.122 6.02147 107.015 6.03815 106.908 6.05483C106.842 6.06545 106.8 6.14433 106.817 6.2323C106.827 6.28235 106.835 6.3324 106.843 6.38245C106.861 6.48255 106.895 6.50835 107.004 6.5038C107.031 6.50228 107.057 6.49013 107.083 6.49317C107.189 6.50379 107.239 6.62967 107.365 6.60389C107.471 6.58265 107.581 6.57811 107.685 6.5508C107.78 6.52654 107.834 6.58115 107.9 6.6221C107.923 6.63576 107.947 6.66456 107.967 6.66304C108.101 6.64636 108.236 6.62969 108.367 6.60087C108.429 6.58873 108.466 6.59783 108.514 6.63423C108.631 6.7222 108.634 6.71765 108.808 6.69035C108.934 6.66912 108.936 6.67215 109.098 6.76467C109.143 6.79045 109.192 6.79045 109.25 6.77831C109.327 6.76315 109.406 6.73888 109.485 6.76163C109.51 6.7677 109.541 6.78591 109.549 6.80562C109.553 6.81927 109.531 6.85264 109.511 6.86326C109.369 6.94213 109.202 6.92848 109.046 6.96033C108.997 6.96943 108.949 6.94061 108.908 6.89966C108.866 6.85871 108.821 6.84203 108.766 6.84961C108.659 6.8663 108.55 6.87691 108.445 6.90118C108.354 6.92241 108.291 6.88752 108.228 6.8405C108.206 6.82534 108.182 6.79652 108.161 6.79803C107.921 6.82837 107.68 6.85871 107.441 6.90118C107.346 6.91938 107.291 6.87085 107.226 6.8299C107.203 6.81625 107.18 6.78742 107.159 6.78894C107.078 6.79501 106.999 6.81169 106.918 6.82382C106.623 6.86932 106.329 6.91483 106.034 6.9573C106.015 6.96033 105.991 6.92847 105.968 6.91482C105.924 6.88752 105.879 6.86173 105.833 6.83595C105.752 6.84808 105.673 6.86325 105.592 6.87235C105.534 6.87842 105.482 6.89966 105.474 6.9573C105.469 6.99521 105.522 7.03009 105.579 7.02706C105.634 7.02403 105.689 7.00582 105.735 7.02554C105.96 7.12261 105.96 7.12413 106.101 7.10441C106.224 7.08621 106.211 7.07104 106.32 7.15446C106.367 7.19086 106.409 7.2121 106.462 7.203C106.595 7.18177 106.73 7.16053 106.864 7.14233C106.885 7.1393 106.913 7.15447 106.934 7.1666C107.093 7.25761 107.093 7.26064 107.224 7.23789C107.396 7.21059 107.403 7.203 107.518 7.29552C107.597 7.35923 107.67 7.31524 107.746 7.3122C107.834 7.37136 107.929 7.42445 108.009 7.49119C108.103 7.57006 108.202 7.55639 108.309 7.53364C108.388 7.51696 108.466 7.51089 108.531 7.57308C108.592 7.63071 108.667 7.63679 108.751 7.62162C108.827 7.60797 108.905 7.57915 108.985 7.61251C109.006 7.62161 109.038 7.64437 109.036 7.65802C109.035 7.67926 109.014 7.7096 108.993 7.7187C108.843 7.78088 108.68 7.77936 108.523 7.80818C108.501 7.81273 108.474 7.79604 108.453 7.7839C108.407 7.7566 108.364 7.72476 108.32 7.69594C108.241 7.70504 108.159 7.70807 108.082 7.72627C108.022 7.73992 107.976 7.73842 107.933 7.70201C107.892 7.66865 107.848 7.62769 107.8 7.61707C107.751 7.60645 107.694 7.6292 107.641 7.6383C107.587 7.6474 107.526 7.64285 107.484 7.66711C107.441 7.69138 107.415 7.74447 107.388 7.78694C107.357 7.83396 107.315 7.84914 107.253 7.85369C107.197 7.85824 107.151 7.85216 107.109 7.8097C107.091 7.79149 107.067 7.77784 107.043 7.7657C107.02 7.75509 106.994 7.7384 106.973 7.74143C106.731 7.77632 106.492 7.81425 106.25 7.85065C106.13 7.86885 106.132 7.86884 105.882 7.77935C105.859 7.77177 105.832 7.76115 105.809 7.76419C105.675 7.78239 105.542 7.80362 105.407 7.82486C105.271 7.84609 105.273 7.84306 105.041 7.7475C104.999 7.7293 104.937 7.75357 104.887 7.75054C104.781 7.74296 104.73 7.61556 104.606 7.63982C104.501 7.66106 104.391 7.6656 104.285 7.6929C104.19 7.71717 104.135 7.66409 104.07 7.62314C104.047 7.60949 104.023 7.57915 104.003 7.58219C103.762 7.61555 103.522 7.65347 103.201 7.65802C103.122 7.65802 103.157 7.68988 103.209 7.7005C103.284 7.71718 103.308 7.68533 103.268 7.62466C103.238 7.58219 103.196 7.56094 103.162 7.57156C103.144 7.57763 103.122 7.60645 103.201 7.65802C103.285 7.71566 103.28 7.7475 103.295 7.7657C103.331 7.80969 103.381 7.82789 103.433 7.82182C103.514 7.81121 103.593 7.79604 103.674 7.78694C103.697 7.78391 103.725 7.79453 103.746 7.80666C103.924 7.9007 103.926 7.90677 104.115 7.87037C104.175 7.85975 104.219 7.85975 104.266 7.88857C104.331 7.928 104.378 7.99473 104.477 7.9735C104.608 7.94468 104.743 7.92801 104.877 7.91132C104.898 7.90829 104.921 7.93559 104.945 7.94772C105.012 7.98412 105.06 8.05238 105.159 8.02356C105.235 8.00081 105.318 7.99473 105.399 7.99018C105.42 7.98866 105.453 8.01293 105.462 8.03265C105.482 8.06753 105.457 8.1085 105.402 8.13731C105.38 8.14945 105.349 8.14641 105.323 8.15096C105.216 8.16764 105.109 8.18584 105.002 8.19949C104.945 8.20707 104.892 8.22983 104.885 8.28595C104.88 8.32387 104.939 8.35723 104.994 8.3542C105.075 8.34964 105.156 8.33751 105.234 8.3178C105.371 8.28443 105.491 8.29352 105.603 8.38908C105.683 8.45581 105.678 8.43156 105.762 8.62873C105.783 8.67878 105.846 8.68333 105.902 8.6803C106.034 8.67271 106.096 8.69547 106.085 8.74249C106.07 8.80012 106.023 8.81831 105.963 8.8259C105.856 8.83803 105.749 8.85776 105.642 8.87444C105.616 8.87899 105.587 8.88808 105.563 8.88505C105.538 8.88202 105.516 8.86382 105.495 8.85017C105.449 8.82135 105.41 8.77736 105.362 8.76674C105.313 8.75612 105.256 8.77888 105.203 8.78798C105.149 8.79556 105.093 8.81831 105.044 8.8077C104.995 8.79708 104.955 8.75159 104.911 8.72429C104.89 8.71064 104.864 8.68939 104.843 8.6909C104.736 8.70304 104.629 8.72276 104.522 8.73793C104.391 8.75765 104.391 8.75765 104.232 8.66361C104.187 8.63631 104.14 8.63783 104.08 8.64997C103.95 8.67424 103.948 8.66967 103.712 8.5817C103.689 8.5726 103.661 8.56199 103.639 8.56654C103.397 8.60143 103.157 8.63934 102.917 8.67574C102.712 8.70759 102.712 8.7076 102.598 8.85928C102.514 8.97151 102.512 8.97151 102.595 9.02308C102.661 9.06555 102.721 9.12773 102.794 9.15048C102.862 9.17171 102.947 9.10346 103.021 9.17323C103.058 9.20812 103.107 9.24604 103.154 9.2521C103.229 9.25969 103.308 9.2157 103.379 9.28243C103.415 9.3158 103.469 9.3507 103.514 9.35221C103.593 9.35525 103.674 9.33097 103.754 9.32035C103.778 9.31732 103.806 9.31732 103.828 9.3249C103.853 9.334 103.874 9.35221 103.895 9.36738C103.96 9.41895 104.029 9.44321 104.114 9.41742C104.251 9.37495 104.375 9.39619 104.482 9.49326C104.496 9.50691 104.532 9.50843 104.555 9.50237C104.613 9.4872 104.663 9.48568 104.707 9.51449C104.725 9.52663 104.751 9.54785 104.747 9.5615C104.743 9.58425 104.723 9.61459 104.702 9.62218C104.55 9.67375 104.386 9.67982 104.229 9.70712C104.208 9.71016 104.182 9.69043 104.161 9.67678C104.115 9.64948 104.076 9.60398 104.028 9.59337C103.979 9.58275 103.922 9.60247 103.869 9.61005C103.815 9.61763 103.759 9.64039 103.71 9.63129C103.661 9.62067 103.616 9.58274 103.577 9.54938C103.532 9.51146 103.488 9.50692 103.428 9.52209C103.35 9.5418 103.269 9.54483 103.19 9.55545C103.146 9.52663 103.102 9.49477 103.057 9.46747C103.036 9.45382 103.01 9.43714 102.987 9.43866C102.88 9.45079 102.773 9.46898 102.666 9.48567C102.559 9.50235 102.559 9.50237 102.378 9.40833C102.357 9.39771 102.329 9.38558 102.306 9.38861C102.172 9.40681 102.039 9.42955 101.904 9.44775C101.852 9.45533 101.805 9.4341 101.763 9.39315C101.723 9.3522 101.674 9.32945 101.624 9.33703C101.41 9.36888 101.196 9.39922 100.982 9.43714C100.896 9.45231 100.823 9.43866 100.765 9.38406C100.697 9.32187 100.621 9.33704 100.541 9.34918C100.361 9.37951 100.36 9.37798 100.244 9.30063C100.222 9.28546 100.199 9.25664 100.178 9.25816C99.9916 9.28091 99.8036 9.30215 99.6188 9.33855C99.5216 9.35827 99.4697 9.30518 99.4049 9.26575C99.3822 9.2521 99.3579 9.22328 99.3384 9.22631C99.2039 9.243 99.0693 9.25817 98.938 9.2885C98.8067 9.31884 98.7565 9.17779 98.6576 9.1793C98.5231 9.18082 98.3901 9.21571 98.2572 9.23694C98.1502 9.25362 98.0433 9.2703 97.9363 9.28699C97.8293 9.30367 97.7223 9.31731 97.6153 9.33703C97.5586 9.34765 97.5165 9.33399 97.4695 9.29608C97.4095 9.24602 97.3382 9.20661 97.2734 9.1611C97.1745 9.09588 97.1745 9.09588 97.0545 9.11408C97.0286 9.11863 97.001 9.12165 96.9751 9.1262C96.779 9.15957 96.779 9.15655 96.5293 9.061C96.518 9.05644 96.4888 9.07313 96.4775 9.08527C96.4434 9.1247 96.4126 9.16716 96.3818 9.20811C96.3381 9.18385 96.2846 9.1702 96.2554 9.13531C96.1727 9.03673 96.0431 9.17171 95.9588 9.07464C95.928 9.03824 95.8745 9.00639 95.8258 8.99729C95.7756 8.98819 95.7189 9.00942 95.667 9.01852C95.5325 9.04127 95.5324 9.03976 95.4174 9.17475C95.359 9.24149 95.2747 9.22935 95.1986 9.24451C95.1191 9.2612 95.0429 9.2703 94.9765 9.20811C94.9165 9.15199 94.8436 9.13835 94.7577 9.15655C94.6523 9.1793 94.5437 9.19294 94.4367 9.20659C94.414 9.20963 94.3865 9.20205 94.3638 9.19295C94.1158 9.10346 94.1158 9.10195 93.9958 9.12167C93.9423 9.13077 93.8872 9.13379 93.8353 9.14744C93.7478 9.17171 93.6814 9.13986 93.6182 9.09132C93.5971 9.07615 93.5727 9.04735 93.5517 9.04887C93.4447 9.05645 93.3393 9.0701 93.234 9.08375C93.1529 9.09437 93.0719 9.10043 92.9941 9.12167C92.8644 9.15655 92.8012 9.05795 92.712 9.01245C92.5791 9.03217 92.4446 9.04582 92.3117 9.07312C92.2501 9.08526 92.2096 9.08071 92.1626 9.04431C92.1026 8.99881 92.0475 8.94724 91.9502 8.97C91.8205 9.00033 91.6844 9.01095 91.5515 9.02915C91.4623 8.98213 91.3975 8.88656 91.2694 8.92145C91.1916 8.94268 91.109 8.94723 91.0295 8.95937C90.9226 8.97605 90.8156 8.99123 90.7086 9.00943C90.5935 9.02763 90.5951 9.02308 90.4185 8.9336C90.3163 8.88051 90.2109 8.93966 90.1072 8.94876C90.0262 8.95634 89.9857 9.02611 90.0051 9.1156C90.0246 9.20508 89.9808 9.27485 89.9062 9.28699C89.7198 9.3158 89.5318 9.34613 89.3454 9.37191C89.3227 9.37495 89.2951 9.36433 89.2741 9.35371C89.0747 9.25816 89.0747 9.25969 88.9855 9.27334C88.8526 9.29609 88.7165 9.30821 88.5852 9.33703C88.4944 9.35675 88.4279 9.32491 88.3696 9.27334C88.3242 9.23391 88.2821 9.2248 88.2237 9.2339C87.5818 9.33552 86.9399 9.42956 86.2997 9.53421C86.204 9.54938 86.1489 9.5054 86.0841 9.46445C86.0614 9.4508 86.0403 9.42198 86.0176 9.42198C85.9641 9.42198 85.9106 9.43563 85.8571 9.44473C85.6173 9.48113 85.3774 9.52511 85.1358 9.55241C85.0337 9.56455 85.0062 9.63432 84.9624 9.69196C84.9284 9.73594 84.8895 9.75414 84.8295 9.7602C84.7712 9.76627 84.729 9.75868 84.6836 9.71925C84.6252 9.66768 84.5588 9.63582 84.468 9.65706C84.3627 9.68133 84.2557 9.69196 84.1471 9.70864C84.092 9.71622 84.0498 9.74352 84.032 9.79812C84.0287 9.80722 84.0628 9.82998 84.0822 9.84363C84.1471 9.88913 84.2087 9.94222 84.2816 9.97407C84.3562 10.0059 84.4372 9.9695 84.515 9.9604C84.5426 9.95737 84.5685 9.94828 84.5944 9.94979C84.6188 9.95131 84.648 9.9589 84.6658 9.97255C84.7501 10.0408 84.8392 10.0878 84.9559 10.0469C85.0564 10.0666 85.1083 10.1925 85.2364 10.1591C85.3142 10.1394 85.3952 10.1303 85.4763 10.1227C85.4973 10.1212 85.52 10.1485 85.5427 10.1621C85.6075 10.2001 85.6594 10.2607 85.7567 10.2349C85.8604 10.2076 85.9706 10.2031 86.076 10.1819C86.1343 10.1697 86.1765 10.1803 86.2219 10.2198C86.2802 10.2698 86.3467 10.3077 86.4375 10.2835C86.5153 10.2622 86.5979 10.2577 86.6773 10.244C86.7811 10.2273 86.7811 10.2289 86.9659 10.3229C86.9869 10.3335 87.0145 10.3457 87.0372 10.3426C87.1717 10.3244 87.3046 10.3017 87.4392 10.2835C87.491 10.2759 87.5413 10.2956 87.577 10.3396C87.5916 10.3578 87.5867 10.3881 87.5915 10.4139C87.3241 10.4549 87.0566 10.4898 86.7908 10.5398C86.6903 10.5595 86.6449 10.4973 86.5785 10.4624C86.5558 10.4503 86.5315 10.4245 86.5104 10.4276C86.3224 10.4534 86.136 10.4806 85.9496 10.514C85.8912 10.5246 85.8474 10.5186 85.8037 10.4746C85.6918 10.3578 85.5557 10.4215 85.4292 10.4382C85.332 10.4503 85.3012 10.4973 85.3125 10.5974C85.3271 10.7157 85.3855 10.7521 85.5346 10.7309C85.5881 10.7233 85.6416 10.7127 85.6951 10.7066C85.7469 10.7006 85.794 10.7203 85.8361 10.7612C85.8766 10.8022 85.9252 10.8234 85.9755 10.8174C86.0825 10.8037 86.1911 10.7901 86.2948 10.7673C86.3807 10.7491 86.452 10.7643 86.512 10.8204C86.5785 10.8826 86.6563 10.8689 86.7341 10.8553C86.9156 10.8249 86.9172 10.8265 87.0307 10.9023C87.0534 10.9175 87.0761 10.9463 87.0972 10.9448C87.2836 10.922 87.4716 10.9023 87.6548 10.8659C87.7504 10.8477 87.8055 10.8962 87.8687 10.9357C87.8914 10.9493 87.9141 10.9797 87.9352 10.9766C88.0697 10.9599 88.2043 10.9432 88.3355 10.9144C88.3971 10.9008 88.4344 10.9099 88.4847 10.9463C88.6046 11.0358 88.6079 11.0327 88.7781 11.0039C88.8299 10.9948 88.8867 10.9781 88.9353 10.9903C88.9839 11.0024 89.0228 11.0464 89.0682 11.0737C89.0893 11.0858 89.1152 11.1025 89.1379 11.0995C89.2449 11.0873 89.3519 11.0691 89.4588 11.0525C89.5593 11.0358 89.5593 11.0373 89.7474 11.1313C89.8236 11.1708 89.903 11.1374 89.9792 11.1253C90.0619 11.1116 90.1364 11.1116 90.1996 11.1708C90.2628 11.2299 90.339 11.2269 90.4201 11.2147C90.4963 11.2026 90.5741 11.1693 90.6519 11.2102C90.8302 11.3042 90.8302 11.3057 90.9404 11.2875C91.1009 11.2618 91.2597 11.2375 91.4218 11.2147C91.4429 11.2117 91.4704 11.2299 91.4915 11.242C91.5369 11.2693 91.5758 11.3148 91.6244 11.3255C91.673 11.3376 91.7298 11.3194 91.7816 11.3103C91.9486 11.2815 91.9599 11.2709 92.0718 11.371C92.1658 11.4529 92.2825 11.3346 92.3701 11.4286C92.4203 11.4817 92.4884 11.5242 92.5824 11.4984C92.6602 11.4771 92.7412 11.4711 92.8223 11.4589C92.9503 11.4392 92.9503 11.4407 93.1124 11.5317C93.1335 11.5439 93.161 11.559 93.1821 11.556C93.2891 11.5439 93.3977 11.5333 93.5015 11.506C93.623 11.4741 93.7008 11.5317 93.7916 11.5879C93.8629 11.6319 93.9472 11.5954 94.0234 11.5803C94.1061 11.5651 94.1806 11.5697 94.2422 11.6288C94.307 11.6895 94.3832 11.6819 94.4643 11.6698C94.5405 11.6591 94.6183 11.6243 94.6961 11.6667C94.863 11.7608 94.863 11.7608 94.9846 11.7426C95.0916 11.7259 95.1985 11.7077 95.3055 11.6955C95.3266 11.6925 95.3525 11.7122 95.3736 11.7259C95.419 11.7532 95.4579 11.7987 95.5065 11.8093C95.5551 11.8199 95.6119 11.8002 95.6654 11.7926C95.7189 11.785 95.7756 11.7623 95.8242 11.7714C95.8728 11.7805 95.9182 11.8184 95.9571 11.8518C96.0025 11.8912 96.0447 11.8958 96.1063 11.8806C96.1841 11.8609 96.2651 11.8563 96.3445 11.8457C96.3883 11.8745 96.4337 11.9033 96.4758 11.9352C96.5196 11.9686 96.5666 11.9655 96.6266 11.9549C96.8259 11.9185 96.8276 11.9231 96.9945 12.0171C97.0707 12.0596 97.1502 12.0247 97.2263 12.0141C97.3074 12.0019 97.3835 11.9959 97.4468 12.0565C97.5084 12.1142 97.5846 12.1217 97.6656 12.1035C97.7175 12.0914 97.7726 12.0838 97.8261 12.0793C97.8504 12.0778 97.8796 12.0838 97.8974 12.096C97.9833 12.1597 98.0676 12.2173 98.1859 12.1764C98.2897 12.1885 98.3415 12.3129 98.4663 12.2886C98.5717 12.2674 98.6819 12.2628 98.7856 12.2355C98.8813 12.2112 98.9494 12.2537 98.998 12.3068C99.0855 12.4008 99.2087 12.2734 99.2963 12.3659C99.3465 12.419 99.4113 12.4615 99.5086 12.4387C99.6156 12.4145 99.6496 12.4463 99.6804 12.5419C99.6982 12.5965 99.695 12.6405 99.6626 12.6829C99.6302 12.7269 99.5945 12.7193 99.5426 12.6693C99.4827 12.6132 99.4113 12.6025 99.3254 12.6147C99.2411 12.6268 99.1893 12.548 99.1196 12.5176C99.0499 12.4858 98.9672 12.5389 98.8943 12.4979C98.7225 12.4023 98.7225 12.4023 98.6057 12.4205C98.5263 12.4327 98.4437 12.4388 98.3659 12.46C98.2735 12.4858 98.2135 12.4387 98.1503 12.3963C98.1276 12.3811 98.1048 12.3523 98.0854 12.3538C97.899 12.3766 97.711 12.3978 97.5262 12.4357C97.4289 12.4554 97.3771 12.4008 97.3123 12.3629C97.2896 12.3493 97.2652 12.322 97.2458 12.325C97.0853 12.3462 96.9265 12.3735 96.766 12.3993C96.7352 12.4403 96.7011 12.4797 96.672 12.5237C96.6412 12.5692 96.599 12.5889 96.5374 12.5874C96.4353 12.5874 96.3348 12.6511 96.2327 12.5707C96.1273 12.4888 96.1193 12.4933 96.0171 12.5131C95.8875 12.5389 95.7497 12.5328 95.6281 12.5919C95.607 12.6026 95.5843 12.6314 95.5843 12.6526C95.5827 12.6662 95.6168 12.686 95.6378 12.6981C95.7091 12.7345 95.7918 12.6814 95.8631 12.7193C95.9101 12.7436 95.949 12.78 95.996 12.8058C96.0155 12.8164 96.0447 12.8149 96.0706 12.8134C96.0982 12.8119 96.1241 12.8012 96.15 12.8028C96.1743 12.8043 96.2003 12.8134 96.2198 12.827C96.3089 12.8847 96.4029 12.9377 96.4823 13.006C96.5601 13.0727 96.6331 13.0272 96.7109 13.0242C97.0221 13.1304 97.0221 13.1319 97.2312 13.0985C97.2831 13.0909 97.3366 13.0818 97.3901 13.0834C97.4127 13.0834 97.4338 13.1106 97.4565 13.1258C97.5213 13.1713 97.5829 13.2123 97.6737 13.188C97.7515 13.1668 97.8342 13.1622 97.9136 13.1486C98.0206 13.1319 98.0206 13.1319 98.2021 13.2274C98.2475 13.2517 98.2961 13.2487 98.3545 13.2365C98.4047 13.2259 98.4566 13.2487 98.4923 13.2927C98.5068 13.3109 98.502 13.3412 98.5069 13.367C98.3464 13.3913 98.1843 13.4079 98.0287 13.4443C97.9282 13.4671 97.8828 13.4019 97.8163 13.367C97.7936 13.3549 97.7693 13.3291 97.7483 13.3321C97.5894 13.3549 97.4306 13.3806 97.2717 13.411C97.2523 13.414 97.228 13.4489 97.2263 13.4701C97.2231 13.5095 97.2636 13.5475 97.3219 13.5459C97.3998 13.5444 97.476 13.5186 97.5457 13.5808C97.604 13.6354 97.6769 13.6597 97.7628 13.6354C97.8147 13.6218 97.8699 13.6218 97.9217 13.6097C98.0595 13.5733 98.1843 13.5808 98.288 13.684C98.3674 13.7113 98.4453 13.6855 98.5215 13.6718C98.5782 13.6612 98.6333 13.6506 98.6738 13.6794C98.7597 13.7401 98.844 13.8008 98.9623 13.7598C99.0904 13.8023 99.1877 13.8918 99.2946 13.9646C99.3449 13.9995 99.3838 14.0192 99.4421 13.9964C99.4664 13.9873 99.4956 13.9873 99.5216 13.9828C99.575 13.9752 99.6318 13.9524 99.6804 13.9615C99.729 13.9721 99.7696 14.0161 99.8133 14.0434C99.8344 14.0571 99.8587 14.0798 99.8798 14.0783C99.9608 14.0707 100.04 14.0556 100.12 14.0434C100.199 14.0328 100.279 14.0222 100.358 14.0116C100.424 14.051 100.492 14.0905 100.559 14.1299C100.666 14.1132 100.773 14.0965 100.878 14.0814C100.997 14.0632 100.997 14.0647 101.167 14.1587C101.243 14.2012 101.324 14.1739 101.397 14.1542C101.519 14.1223 101.6 14.18 101.686 14.2406C101.703 14.2528 101.736 14.2603 101.757 14.2543C101.841 14.233 101.914 14.2497 101.976 14.3058C102.019 14.3453 102.063 14.3635 102.117 14.3559C102.303 14.3271 102.489 14.2967 102.676 14.2709C102.699 14.2679 102.724 14.2816 102.746 14.2937C102.911 14.3862 102.913 14.3908 103.034 14.3665C103.143 14.3453 103.243 14.3362 103.329 14.4196C103.347 14.4378 103.374 14.4636 103.394 14.4621C103.527 14.4469 103.661 14.4302 103.793 14.4044C103.853 14.3923 103.895 14.3968 103.942 14.4317C104.002 14.4757 104.055 14.5288 104.154 14.5091C104.428 14.453 104.43 14.462 104.754 14.5667C104.777 14.5743 104.807 14.5622 104.833 14.5561C104.888 14.5409 104.929 14.5622 104.978 14.597C105.086 14.6759 105.089 14.6714 105.193 14.6547C105.273 14.641 105.355 14.638 105.433 14.6152C105.553 14.5819 105.632 14.641 105.722 14.6972C105.793 14.7411 105.876 14.7047 105.952 14.6911C106.034 14.6759 106.109 14.6805 106.171 14.7381C106.213 14.7775 106.258 14.7988 106.312 14.7912C106.498 14.7639 106.684 14.7335 106.871 14.7062C106.894 14.7032 106.921 14.7153 106.942 14.726C107.127 14.82 107.127 14.8246 107.31 14.7897C107.368 14.7791 107.417 14.776 107.461 14.8079C107.503 14.8382 107.548 14.867 107.592 14.8958C107.672 14.8852 107.753 14.8822 107.83 14.864C107.89 14.8503 107.933 14.8564 107.98 14.8883C108.041 14.9292 108.093 15.0005 108.19 14.9656C108.241 14.9489 108.299 14.9535 108.349 14.9383C108.409 14.9186 108.45 14.9307 108.497 14.9702C108.555 15.0172 108.615 15.0657 108.709 15.0414C108.813 15.0141 108.923 15.0096 109.028 14.9884C109.087 14.9762 109.127 14.9884 109.174 15.0278C109.233 15.0778 109.299 15.1097 109.39 15.09C109.575 15.0521 109.576 15.0596 109.756 15.1552C109.801 15.1795 109.85 15.1764 109.908 15.1643C109.959 15.1537 110.011 15.1764 110.046 15.2204C110.08 15.269 110.077 15.2993 110.08 15.3251ZM95.6362 1.64572C95.5827 1.6533 95.5292 1.6624 95.4514 1.53044C95.4465 1.50769 95.4498 1.4804 95.4385 1.46068C95.4125 1.41973 95.372 1.39091 95.3234 1.38636C95.2358 1.38029 95.1305 1.43185 95.1321 1.47129C95.1337 1.50466 95.1613 1.53347 95.2147 1.56077C95.2374 1.57139 95.2553 1.58959 95.2764 1.60172C95.338 1.63661 95.3866 1.70487 95.4757 1.66999C95.4676 1.62297 95.4595 1.57595 95.4757 1.66999C95.4676 1.72762 95.4919 1.76858 95.5503 1.78526C95.5665 1.78981 95.5908 1.78677 95.6038 1.77767C95.654 1.7443 95.6621 1.69881 95.6248 1.57899C95.6184 1.59871 95.6232 1.63358 95.6378 1.64268C95.6524 1.65178 95.6881 1.6442 95.7059 1.63359C95.7513 1.60477 95.774 1.56685 95.7626 1.535C95.7562 1.51831 95.7253 1.49708 95.7059 1.49708C95.6719 1.49708 95.6411 1.53044 95.6362 1.64572ZM108.743 19.2352C108.625 19.264 108.489 19.2534 108.37 19.3125C108.349 19.3232 108.328 19.3505 108.326 19.3717C108.325 19.3854 108.357 19.4051 108.377 19.4157C108.42 19.44 108.469 19.4324 108.526 19.4248C108.612 19.4142 108.662 19.4839 108.728 19.5188C108.749 19.5294 108.777 19.537 108.8 19.534C108.931 19.5158 109.061 19.4961 109.192 19.4748C109.215 19.4703 109.239 19.4597 109.258 19.446C109.323 19.402 109.317 19.3732 109.254 19.3399C109.184 19.3035 109.129 19.2428 109.057 19.214C108.955 19.173 108.852 19.2276 108.743 19.2352ZM99.5378 20.3424C99.4584 20.3545 99.3805 20.3667 99.3011 20.3788C99.2752 20.3834 99.2476 20.3849 99.2233 20.3909C99.173 20.4016 99.1358 20.4334 99.1115 20.4835C99.1487 20.5229 99.1941 20.5456 99.2444 20.5411C99.3238 20.532 99.4016 20.5123 99.481 20.5077C99.5669 20.5017 99.6172 20.5699 99.6836 20.6048C99.7047 20.6154 99.7306 20.6169 99.755 20.6184C99.8749 20.6245 99.9479 20.5456 99.9252 20.4349C99.909 20.3485 99.8474 20.2969 99.7728 20.3075C99.695 20.3181 99.6156 20.3303 99.5378 20.3424ZM109.297 16.9935C109.317 16.9677 109.338 16.9495 109.348 16.9267C109.377 16.8494 109.365 16.7917 109.312 16.7311C109.247 16.6568 109.168 16.7068 109.095 16.7144C109.077 16.7159 109.057 16.7478 109.048 16.7675C109.041 16.7811 109.041 16.81 109.051 16.8175C109.13 16.8782 109.215 16.9343 109.297 16.9935ZM95.2358 12.5131C95.158 12.5252 95.0786 12.5343 95.0008 12.551C94.9814 12.5555 94.9635 12.5843 94.9522 12.6041C94.9311 12.6405 94.9538 12.6905 95.0202 12.6951C95.0964 12.7011 95.1758 12.6754 95.2553 12.6632C95.3558 12.6481 95.4157 12.5919 95.3785 12.5434C95.3428 12.4964 95.2942 12.4873 95.2358 12.5131ZM9.91194 9.27182C9.96381 9.26424 10.0173 9.25817 10.0692 9.24755C10.1178 9.23693 10.1551 9.20357 10.1794 9.15351C10.1389 9.11408 10.0935 9.09284 10.0432 9.0974C9.96382 9.1065 9.88602 9.11863 9.80822 9.1338C9.75959 9.1429 9.7126 9.17626 9.70125 9.22783C9.68991 9.26727 9.79848 9.29002 9.91194 9.27182ZM88.3809 9.03824C88.402 9.05189 88.4231 9.0792 88.4441 9.0792C88.496 9.0792 88.5495 9.07009 88.5982 9.05492C88.6192 9.04886 88.6354 9.02156 88.6451 9.00032C88.6516 8.98667 88.65 8.96241 88.6403 8.95028C88.5933 8.87747 88.4052 8.90326 88.3744 8.98668C88.3712 9.00184 88.3793 9.02156 88.3809 9.03824ZM83.2669 0.732642C83.2718 0.75691 83.2734 0.781175 83.2799 0.805442C83.2929 0.850944 83.3285 0.884319 83.3804 0.90707C83.4209 0.869152 83.442 0.82669 83.4404 0.781188C83.4387 0.75692 83.4339 0.732637 83.4274 0.70837C83.4144 0.662868 83.3788 0.629512 83.3269 0.606761C83.2864 0.643162 83.2669 0.685624 83.2669 0.732642ZM113.043 20.6063C113.029 20.626 113.014 20.6458 112.998 20.664C113.042 20.7079 113.082 20.7216 113.113 20.6973C113.132 20.6822 113.144 20.6594 113.158 20.6397C113.115 20.5957 113.076 20.5836 113.043 20.6063ZM112.035 20.8126C112.056 20.8262 112.076 20.8444 112.098 20.8535C112.136 20.8687 112.17 20.8429 112.196 20.7883C112.174 20.7747 112.155 20.7565 112.132 20.7474C112.095 20.7322 112.061 20.758 112.035 20.8126ZM112.674 20.535C112.662 20.5714 112.685 20.6018 112.745 20.6276C112.76 20.6078 112.779 20.5896 112.789 20.5684C112.805 20.5335 112.777 20.5017 112.719 20.4774C112.703 20.4956 112.688 20.5153 112.674 20.535ZM109.252 18.9C109.241 18.9364 109.263 18.9667 109.323 18.9925C109.338 18.9728 109.357 18.9546 109.367 18.9334C109.383 18.8985 109.356 18.8666 109.297 18.8424C109.281 18.8606 109.267 18.8803 109.252 18.9ZM104.59 8.16764C104.576 8.18736 104.561 8.20708 104.545 8.22528C104.589 8.26926 104.629 8.28291 104.66 8.25864C104.679 8.24347 104.691 8.22072 104.705 8.201C104.662 8.15702 104.623 8.14489 104.59 8.16764ZM100.125 2.47384C100.163 2.48446 100.196 2.46323 100.223 2.40711C100.202 2.39346 100.183 2.37526 100.16 2.36616C100.123 2.35099 100.089 2.37679 100.063 2.43139C100.084 2.44655 100.105 2.46019 100.125 2.47384ZM97.7531 2.11741C97.7386 2.13713 97.724 2.15685 97.7077 2.17505C97.7515 2.21904 97.792 2.23268 97.8228 2.20841C97.8423 2.19325 97.8536 2.1705 97.8682 2.15078C97.8245 2.10679 97.7856 2.09618 97.7531 2.11741ZM81.6719 0.731124C81.6574 0.750842 81.6428 0.77056 81.6266 0.788761C81.6703 0.832746 81.7108 0.846392 81.7416 0.822124C81.7611 0.806957 81.7724 0.784205 81.787 0.764488C81.7433 0.720503 81.7044 0.70989 81.6719 0.731124ZM1.59983 13.0712C1.57876 13.0576 1.55771 13.0439 1.53826 13.0288C1.49125 13.0697 1.47667 13.1076 1.5026 13.1364C1.51881 13.1546 1.5431 13.1653 1.56418 13.1789C1.6128 13.138 1.62415 13.1015 1.59983 13.0712Z" fill="#FFE492"/>
</svg>
