<svg width="227" height="32" viewBox="0 0 227 32" fill="none" xmlns="http://www.w3.org/2000/svg">
<path d="M213.289 16.8052C212.978 16.8318 212.664 16.8501 212.359 16.89C212.161 16.915 212.077 16.8418 211.945 16.8035C211.901 16.7902 211.854 16.7636 211.813 16.7669C211.505 16.7936 211.197 16.8235 210.89 16.8534C210.795 16.9183 210.736 17.0048 210.591 17.0364C210.45 17.0663 210.283 17.0663 210.126 17.0813C209.919 17.0996 209.712 17.1179 209.505 17.1345C209.401 17.1428 209.316 17.1744 209.282 17.2343C209.275 17.2443 209.344 17.2692 209.382 17.2842C209.508 17.3341 209.63 17.3906 209.768 17.4289C209.9 17.4655 210.064 17.4056 210.205 17.4522C210.522 17.557 210.525 17.5553 210.767 17.5353C210.974 17.5171 211.182 17.4971 211.389 17.4838C211.43 17.4805 211.477 17.5054 211.521 17.5187C211.653 17.5553 211.738 17.6385 211.932 17.6069C212.08 17.5819 212.243 17.5769 212.397 17.5636C212.526 17.6119 212.645 17.6667 212.783 17.705C212.912 17.7416 212.95 17.7699 212.881 17.8181C212.818 17.863 212.73 17.8813 212.614 17.8846C212.51 17.8863 212.406 17.9013 212.303 17.9096C212.249 17.9146 212.199 17.9179 212.149 17.9229C211.951 17.9412 211.951 17.9412 211.59 17.8347C211.449 17.7932 211.288 17.8514 211.153 17.8114C211.062 17.7848 210.984 17.7449 210.896 17.7167C210.858 17.705 210.798 17.7033 210.751 17.7067C210.594 17.7183 210.437 17.7266 210.287 17.7482C210.18 17.7632 210.117 17.8098 210.13 17.8564C210.133 17.8747 210.208 17.9013 210.252 17.9029C210.352 17.9063 210.459 17.883 210.557 17.8946C210.651 17.9063 210.748 17.9395 210.817 17.9761C210.959 18.0526 211.119 17.9844 211.254 18.0044C211.395 18.026 211.511 18.0925 211.646 18.1325C211.681 18.1424 211.747 18.1258 211.8 18.1208C211.954 18.1092 212.108 18.0992 212.262 18.0875C212.391 18.1358 212.529 18.179 212.645 18.2339C212.856 18.3337 213.082 18.3719 213.355 18.3237C213.509 18.2971 213.66 18.3071 213.782 18.372C213.908 18.4385 214.052 18.4318 214.212 18.4185C214.36 18.4052 214.511 18.3686 214.661 18.4152C214.988 18.5183 214.991 18.5233 215.378 18.4834C215.494 18.4718 215.582 18.4684 215.67 18.5067C215.751 18.5416 215.839 18.5715 215.924 18.6048C216.078 18.5932 216.235 18.5815 216.389 18.5682C216.587 18.5499 216.697 18.5732 216.744 18.6663C216.772 18.7229 216.785 18.7745 216.854 18.8127C216.935 18.8593 217.023 18.8576 217.143 18.8443C217.256 18.8327 217.337 18.8144 217.384 18.7545C217.403 18.7296 217.441 18.7063 217.475 18.6863C217.504 18.6713 217.548 18.6481 217.573 18.6514C217.62 18.658 217.683 18.6763 217.698 18.6979C217.852 18.8992 217.852 18.9009 218.009 18.9591C218.182 19.0239 218.361 19.0821 218.518 19.1553C218.66 19.2202 218.801 19.1919 218.955 19.1919C219.071 19.1919 219.146 19.2352 219.137 19.2784C219.131 19.3034 219.087 19.3399 219.049 19.3433C218.741 19.3765 218.43 19.4048 218.119 19.4281C218.082 19.4314 218.035 19.4015 217.991 19.3865C217.903 19.3566 217.824 19.31 217.73 19.3C217.636 19.29 217.526 19.315 217.422 19.3233C217.318 19.3316 217.209 19.3533 217.114 19.34C217.02 19.3266 216.945 19.2784 216.857 19.2468C216.816 19.2318 216.759 19.2102 216.725 19.2152C216.496 19.2551 216.326 19.2002 216.163 19.1271C216.128 19.1121 216.069 19.1021 216.025 19.1054C215.66 19.1337 215.299 19.167 214.935 19.1986C214.787 19.2119 214.668 19.1537 214.636 19.0555C214.621 19.0006 214.589 18.9458 214.589 18.8909C214.589 18.7911 214.417 18.7362 214.291 18.7478C214.084 18.7645 213.873 18.7778 213.669 18.8027C213.503 18.8227 213.361 18.8027 213.248 18.7428C213.116 18.6747 212.966 18.688 212.815 18.7063C212.702 18.7196 212.67 18.7744 212.677 18.9125C212.683 19.0239 212.629 19.0589 212.425 19.0772C212.168 19.1004 211.907 19.1237 211.646 19.142C211.606 19.1453 211.558 19.1171 211.518 19.1021C211.43 19.0722 211.351 19.0239 211.257 19.0139C211.163 19.0023 211.053 19.0273 210.949 19.0372C210.846 19.0456 210.736 19.0688 210.641 19.0572C210.547 19.0456 210.469 18.9957 210.384 18.9641C210.343 18.9491 210.293 18.9275 210.252 18.9308C210.045 18.9441 209.837 18.9641 209.63 18.9824C209.398 19.0023 209.398 19.0023 209.068 18.8992C208.917 18.8526 208.766 18.8892 208.619 18.9025C208.462 18.9158 208.314 18.9225 208.192 18.856C208.11 18.8127 208.019 18.7861 207.922 18.7944C207.661 18.8144 207.403 18.8393 207.143 18.8593C207.099 18.8626 207.039 18.8543 207.005 18.8393C206.838 18.7695 206.675 18.7146 206.442 18.7495C206.241 18.7794 206.025 18.7811 205.824 18.8094C205.714 18.8243 205.663 18.8776 205.685 18.9192C205.698 18.9408 205.764 18.9657 205.808 18.9657C205.908 18.9674 206.018 18.9424 206.113 18.9524C206.307 18.9724 206.405 19.1121 206.659 19.0738C206.81 19.0505 206.967 19.0422 207.124 19.0356C207.165 19.0339 207.209 19.0655 207.253 19.0821C207.378 19.1271 207.488 19.1853 207.67 19.1553C207.821 19.132 207.981 19.1254 208.135 19.1121C208.38 19.0905 208.38 19.0921 208.697 19.1936C208.848 19.2418 208.999 19.2036 209.146 19.1919C209.256 19.1836 209.36 19.167 209.448 19.1903C209.583 19.2252 209.68 19.305 209.847 19.3C210.004 19.295 210.158 19.2717 210.315 19.2634C210.412 19.2584 210.503 19.2851 210.582 19.33C210.663 19.3749 210.751 19.3948 210.858 19.3848C211.012 19.3715 211.169 19.3549 211.326 19.3466C211.37 19.3449 211.42 19.3599 211.461 19.3732C211.549 19.4031 211.634 19.4381 211.719 19.4697C211.873 19.4597 212.03 19.4564 212.18 19.4364C212.297 19.4214 212.378 19.4281 212.472 19.4614C212.592 19.5063 212.689 19.5861 212.884 19.5479C212.981 19.5296 213.094 19.5345 213.192 19.5179C213.311 19.4963 213.393 19.5046 213.477 19.5545C213.638 19.6493 213.839 19.651 214.046 19.6144C214.272 19.5745 214.442 19.621 214.611 19.6942C214.79 19.7707 214.79 19.7691 214.928 19.9537C214.969 20.0069 215.085 20.0318 215.183 20.0219C215.346 20.0052 215.487 20.0135 215.607 20.0767C215.732 20.1449 215.883 20.1366 216.037 20.1183C216.241 20.0934 216.445 20.0718 216.612 20.1682C216.693 20.2148 216.781 20.2264 216.891 20.2148C217.202 20.1848 217.516 20.1666 217.821 20.13C218.006 20.1067 218.113 20.1599 218.239 20.2048C218.408 20.2664 218.594 20.3212 218.594 20.4526C218.594 20.4743 218.638 20.4992 218.675 20.5158C218.757 20.5508 218.845 20.5807 218.93 20.614C219.055 20.6639 219.178 20.7054 219.35 20.6788C219.501 20.6572 219.661 20.6506 219.815 20.6356C219.969 20.6206 220.111 20.6123 220.249 20.6755C220.409 20.747 220.578 20.8152 220.761 20.8684C220.889 20.9067 221.059 20.8418 221.197 20.8934C221.282 20.925 221.364 20.9616 221.455 20.9882C221.492 20.9998 221.552 20.9915 221.602 20.9882C221.706 20.9815 221.813 20.9766 221.913 20.9599C222.03 20.9416 222.117 20.945 222.205 20.9832C222.287 21.0181 222.369 21.0664 222.463 21.0763C222.604 21.0913 222.761 21.0248 222.903 21.1013C222.975 21.1395 223.066 21.1761 223.16 21.1878C223.254 21.1994 223.364 21.1745 223.465 21.1761C223.509 21.1761 223.562 21.2027 223.587 21.2244C223.603 21.236 223.581 21.2676 223.559 21.2842C223.531 21.3042 223.49 21.3308 223.449 21.3341C223.138 21.3641 222.827 21.389 222.516 21.4173C222.331 21.4339 222.331 21.4339 221.957 21.3292C221.869 21.3042 221.772 21.3092 221.662 21.3208C221.514 21.3358 221.364 21.3641 221.21 21.3341C221.009 21.221 220.761 21.2111 220.497 21.2543C220.387 21.2726 220.286 21.2726 220.205 21.241C220.032 21.1778 219.85 21.1196 219.696 21.0447C219.577 20.9865 219.52 20.9815 219.47 21.0614C219.454 21.0863 219.438 21.1129 219.442 21.1362C219.46 21.2194 219.495 21.3009 219.514 21.384C219.52 21.4073 219.495 21.4339 219.479 21.4589C219.429 21.5287 219.363 21.5237 219.253 21.4655C219.143 21.4073 219.011 21.3691 218.835 21.3957C218.685 21.419 218.521 21.4156 218.371 21.4406C218.138 21.4772 217.975 21.424 217.808 21.3524C217.774 21.3375 217.714 21.3292 217.67 21.3325C217.202 21.3707 216.737 21.414 216.27 21.4522C216.169 21.4605 216.078 21.4356 215.999 21.3907C215.918 21.3458 215.827 21.3225 215.726 21.3308C215.312 21.3657 214.897 21.3974 214.482 21.4406C214.313 21.4589 214.178 21.4373 214.062 21.379C213.974 21.3358 213.892 21.3225 213.782 21.3275C213.663 21.3325 213.578 21.3491 213.518 21.3974C213.462 21.4439 213.503 21.4722 213.628 21.5088C213.763 21.5487 213.889 21.6003 214.018 21.6468C214.121 21.6402 214.225 21.6269 214.325 21.6285C214.369 21.6285 214.41 21.6585 214.454 21.6751C214.58 21.7233 214.696 21.7716 214.875 21.745C215.026 21.7217 215.186 21.7167 215.34 21.7017C215.553 21.6834 215.553 21.6834 215.899 21.7882C215.987 21.8148 216.081 21.8131 216.194 21.7982C216.291 21.7865 216.392 21.8098 216.461 21.8597C216.489 21.8797 216.48 21.9129 216.42 22.0227C216.42 22.1042 216.486 22.0676 216.508 22.0144C216.543 21.9379 216.477 21.9129 216.351 21.9545C216.263 21.9845 216.219 22.0277 216.241 22.0626C216.254 22.0809 216.313 22.1042 216.42 22.0227C216.697 21.9229 216.907 21.9113 217.108 21.8847C217.227 21.8697 217.303 21.8763 217.397 21.9196C217.51 21.9711 217.623 22.026 217.808 21.9994C218.009 21.9695 218.223 21.9662 218.427 21.9412C218.616 21.9179 218.713 21.9911 218.832 22.0344C218.977 22.0859 219.137 22.0277 219.269 22.0576C219.407 22.0876 219.504 22.1608 219.665 22.1741C219.897 22.1292 220.045 22.2123 220.22 22.2672C220.359 22.3088 220.522 22.2722 220.67 22.2539C220.836 22.2339 220.974 22.2522 221.09 22.3121C221.222 22.3803 221.37 22.3653 221.521 22.3504C221.872 22.3171 221.885 22.3121 222.089 22.4036C222.237 22.4701 222.378 22.4402 222.526 22.4319C222.654 22.4768 222.78 22.525 222.915 22.5649C222.95 22.5749 223.016 22.5583 223.069 22.5533C223.223 22.54 223.38 22.5267 223.534 22.5134C223.637 22.505 223.747 22.4801 223.842 22.4901C223.936 22.5017 224.014 22.55 224.099 22.5816C224.184 22.6132 224.272 22.6448 224.354 22.678C224.479 22.7279 224.599 22.7695 224.774 22.7446C224.925 22.7229 225.082 22.7163 225.239 22.7013C225.437 22.683 225.431 22.688 225.798 22.7878C225.996 22.8427 226.2 22.7762 226.401 22.7695C226.502 22.7662 226.599 22.7845 226.668 22.8327C226.697 22.8527 226.687 22.8859 226.697 22.9142C226.178 22.9591 225.657 22.9974 225.145 23.0522C224.947 23.0739 224.844 23.014 224.737 22.9641C224.561 22.8843 224.328 23.0007 224.162 22.8976C224.061 22.836 223.917 22.8011 223.744 22.831C223.644 22.8477 223.537 22.846 223.433 22.861C223.17 22.8976 222.928 22.8992 222.717 22.7845C222.645 22.7445 222.541 22.7229 222.466 22.6847C222.378 22.6431 222.293 22.6198 222.19 22.6281C221.722 22.668 221.257 22.7079 220.792 22.7512C220.751 22.7545 220.71 22.7795 220.676 22.7978C220.588 22.8443 220.616 22.8809 220.757 22.9109C220.805 22.9209 220.842 22.9425 220.886 22.9591C220.971 22.9907 221.05 23.0406 221.144 23.0522C221.238 23.0639 221.348 23.0406 221.452 23.0323C221.555 23.024 221.665 22.999 221.759 23.009C221.854 23.0206 221.932 23.0689 222.02 23.0988C222.061 23.1138 222.111 23.1387 222.152 23.1371C222.359 23.1271 222.563 23.1088 222.771 23.0938C222.899 23.1387 223.009 23.2036 223.163 23.2186C223.261 23.2285 223.364 23.2102 223.465 23.2136C223.509 23.2152 223.565 23.2402 223.587 23.2618C223.6 23.2751 223.559 23.3084 223.528 23.325C223.408 23.3882 223.245 23.3766 223.097 23.3965C222.937 23.4181 222.793 23.4115 222.67 23.3466C222.589 23.3034 222.497 23.2801 222.397 23.2884C222.136 23.31 221.879 23.335 221.618 23.3533C221.574 23.3566 221.521 23.3416 221.48 23.33C221.15 23.2286 221.15 23.2252 220.918 23.2468C220.575 23.2784 220.575 23.2784 220.346 23.1903C220.302 23.1736 220.255 23.1421 220.217 23.1437C219.853 23.1703 219.492 23.1969 219.131 23.2352C219.011 23.2468 218.93 23.2468 218.842 23.2036C218.766 23.167 218.678 23.1254 218.584 23.1154C218.487 23.1055 218.38 23.1304 218.276 23.1387C218.173 23.147 218.063 23.1687 217.972 23.1554C217.878 23.1421 217.796 23.0955 217.714 23.0622C217.629 23.0273 217.538 23.0289 217.422 23.0423C217.064 23.0805 217.061 23.0755 216.706 22.9724C216.665 22.9608 216.612 22.9475 216.568 22.9508C216.307 22.9707 216.05 22.9957 215.789 23.0157C215.688 23.024 215.591 23.0024 215.522 22.9541C215.494 22.9342 215.503 22.9009 215.484 22.836C215.462 22.821 215.487 22.8477 215.494 22.8726C215.541 22.8693 215.597 22.8726 215.632 22.8593C215.72 22.8277 215.764 22.7861 215.742 22.7512C215.729 22.7329 215.67 22.7096 215.632 22.7096C215.563 22.7096 215.503 22.7462 215.484 22.836C215.287 22.8909 215.076 22.9026 214.872 22.9292C214.753 22.9458 214.677 22.9375 214.583 22.8942C214.47 22.841 214.354 22.7894 214.168 22.8161C213.967 22.846 213.754 22.851 213.547 22.8743C213.308 22.9009 213.204 22.7512 213.003 22.7545C212.796 22.7578 212.589 22.7861 212.381 22.8061C212.199 22.8227 212.199 22.8227 211.822 22.7146C211.684 22.6747 211.521 22.7329 211.386 22.6913C211.295 22.6647 211.216 22.6248 211.128 22.5965C211.091 22.5849 211.031 22.5849 210.984 22.5882C210.723 22.6082 210.459 22.6215 210.208 22.6581C209.922 22.7013 209.706 22.6547 209.501 22.5566C209.244 22.5749 208.983 22.5849 208.729 22.6165C208.543 22.6398 208.437 22.5849 208.311 22.54C208.267 22.525 208.229 22.5001 208.182 22.4934C208.135 22.4868 208.079 22.5 208.028 22.505C207.821 22.5233 207.608 22.5317 207.406 22.5616C207.158 22.5999 207.064 22.4635 206.873 22.4468C206.744 22.5283 206.675 22.6398 206.42 22.6481C206.213 22.6547 206.006 22.6813 205.799 22.6996C205.695 22.708 205.591 22.7179 205.488 22.7263C205.321 22.7412 205.243 22.8061 205.277 22.9059C205.296 22.9608 205.312 23.0156 205.327 23.0705C205.359 23.1687 205.28 23.2518 205.148 23.2635C204.784 23.2951 204.423 23.3283 204.059 23.3566C203.961 23.3649 203.867 23.3366 203.788 23.2917C203.707 23.2468 203.616 23.2269 203.515 23.2352C203.151 23.2668 202.79 23.3001 202.425 23.3283C202.385 23.3317 202.331 23.315 202.29 23.3017C202.202 23.2718 202.118 23.2369 202.033 23.2053C201.826 23.2202 201.621 23.2302 201.417 23.2502C201.088 23.2801 201.088 23.2818 200.846 23.1903C200.802 23.1736 200.758 23.1421 200.717 23.1437C200.56 23.1504 200.406 23.167 200.249 23.182C199.787 23.2252 199.787 23.2252 199.652 23.1753C199.53 23.1287 199.42 23.0722 199.234 23.0988C199.033 23.1288 198.82 23.1387 198.613 23.1554C198.459 23.167 198.305 23.1803 198.151 23.1836C198.11 23.1853 198.066 23.1537 198.022 23.1371C197.897 23.0855 197.774 23.0439 197.601 23.0722C197.501 23.0888 197.394 23.0922 197.29 23.1005C197.02 23.1238 197.02 23.1238 196.577 23.024C196.534 23.014 196.48 23.0023 196.436 23.0073C196.072 23.0373 195.711 23.0705 195.346 23.0988C195.302 23.1021 195.249 23.0921 195.205 23.0838C194.709 22.9874 194.709 22.9874 194.181 23.0339C193.98 23.0506 193.974 23.0572 193.763 22.9691C193.669 22.9308 193.591 22.9125 193.481 22.9242C193.066 22.9641 192.649 22.9907 192.237 23.0373C192.052 23.0572 191.945 23.0073 191.819 22.9624C191.775 22.9475 191.728 22.9142 191.691 22.9159C191.276 22.9475 190.861 22.9857 190.447 23.0173C190.409 23.0206 190.362 22.9874 190.318 22.9724C190.233 22.9425 190.152 22.8976 190.057 22.8876C189.96 22.8776 189.853 22.9026 189.747 22.9109C189.486 22.9325 189.486 22.9308 189.184 22.8327C189.144 22.8194 189.09 22.8011 189.049 22.8044C188.635 22.8377 188.217 22.866 187.806 22.9142C187.57 22.9408 187.41 22.8926 187.243 22.8227C187.209 22.8077 187.149 22.8011 187.105 22.8044C186.637 22.8427 186.172 22.8859 185.705 22.9242C185.607 22.9325 185.513 22.9042 185.434 22.861C185.309 22.7928 185.161 22.8011 185.004 22.8161C184.643 22.851 184.64 22.8493 184.426 22.7695C184.382 22.7529 184.345 22.7312 184.298 22.7229C184.254 22.7146 184.197 22.7196 184.15 22.7229C183.943 22.7396 183.735 22.7578 183.528 22.7761C183.321 22.7944 183.11 22.8044 182.906 22.8327C182.655 22.8676 182.536 22.7595 182.36 22.7096C182.102 22.7312 181.838 22.7445 181.584 22.7795C181.389 22.8061 181.298 22.7329 181.169 22.6946C181.125 22.6813 181.078 22.6531 181.037 22.6564C180.57 22.693 180.102 22.7329 179.637 22.7778C179.524 22.7878 179.448 22.7745 179.354 22.7346C179.144 22.6447 179.134 22.6481 178.782 22.6813C178.629 22.6963 178.481 22.7096 178.349 22.6414C178.233 22.5799 178.092 22.5649 177.925 22.5849C177.721 22.6098 177.511 22.6231 177.303 22.6398C177.096 22.6581 176.889 22.683 176.681 22.6913C176.515 22.6996 176.414 22.6215 176.283 22.5816C176.242 22.5699 176.185 22.5682 176.138 22.5716C175.931 22.5865 175.717 22.5982 175.516 22.6264C175.271 22.6614 175.136 22.5699 174.963 22.5167C174.926 22.505 174.863 22.5117 174.816 22.5167C174.451 22.5466 174.09 22.5799 173.726 22.6115C173.597 22.5666 173.465 22.5233 173.337 22.4784C173.129 22.4951 172.922 22.5134 172.715 22.53C172.558 22.5433 172.397 22.5483 172.25 22.5732C172.058 22.6065 171.964 22.5283 171.835 22.4901C171.791 22.4768 171.744 22.4485 171.703 22.4518C171.443 22.4701 171.182 22.4901 170.925 22.5184C170.68 22.5466 170.582 22.3969 170.381 22.3986C170.174 22.4003 169.96 22.4219 169.759 22.4518C169.527 22.4868 169.364 22.4335 169.197 22.362C169.163 22.347 169.103 22.3387 169.059 22.342C168.798 22.362 168.541 22.387 168.28 22.4069C168.236 22.4102 168.183 22.4019 168.139 22.392C167.643 22.2938 167.643 22.2922 167.426 22.3121C167.272 22.3254 167.115 22.3421 166.958 22.3504C166.914 22.3537 166.86 22.3387 166.82 22.3254C166.493 22.224 166.493 22.2223 166.257 22.2423C166.05 22.2606 165.843 22.2788 165.636 22.2971C165.507 22.2522 165.375 22.209 165.246 22.1641C164.989 22.1857 164.725 22.2023 164.47 22.2323C164.351 22.2456 164.273 22.2406 164.182 22.199C164.068 22.1491 163.955 22.0909 163.767 22.1192C163.566 22.1491 163.352 22.1524 163.148 22.1774C162.903 22.2073 162.803 22.056 162.605 22.0576C162.398 22.0593 162.184 22.0809 161.983 22.1109C161.751 22.1458 161.587 22.0926 161.421 22.0211C161.386 22.0061 161.327 21.9978 161.283 22.0011C160.711 22.0493 160.143 22.0975 159.571 22.1491C159.219 22.1807 159.219 22.1824 158.55 22.0909C158.503 22.0842 158.453 22.0776 158.406 22.0809C158.199 22.0959 157.985 22.1075 157.784 22.1358C157.539 22.1707 157.404 22.0809 157.231 22.026C157.194 22.0144 157.134 22.021 157.084 22.0244C156.927 22.036 156.773 22.051 156.616 22.0643C156.408 22.0826 156.201 22.1009 155.994 22.1192C155.865 22.0759 155.733 22.031 155.604 21.9878C155.347 22.0094 155.083 22.0211 154.829 22.056C154.634 22.0826 154.543 22.0127 154.414 21.9728C154.37 21.9595 154.323 21.9312 154.282 21.9329C153.814 21.9695 153.346 22.0077 152.881 22.0543C152.69 22.0743 152.602 21.9994 152.473 21.9612C152.429 21.9495 152.379 21.9279 152.338 21.9312C152.027 21.9545 151.716 21.9828 151.405 22.0111C151.229 22.0277 151.229 22.0277 150.846 21.9246C150.802 21.9129 150.752 21.9013 150.708 21.9046C149.722 21.9878 148.739 22.0759 147.753 22.1591C147.652 22.1674 147.561 22.1425 147.483 22.0976C147.401 22.0527 147.31 22.0294 147.209 22.0377C146.795 22.0726 146.377 22.1042 145.966 22.1475C145.796 22.1658 145.661 22.1441 145.545 22.0859C145.457 22.0427 145.375 22.026 145.265 22.036C145.058 22.056 144.851 22.0726 144.643 22.0909C144.436 22.1092 144.229 22.1275 144.022 22.1458C143.814 22.1641 143.604 22.1741 143.4 22.2023C143.149 22.2373 143.026 22.1342 142.853 22.0826C142.542 22.1075 142.231 22.1325 141.924 22.1591C141.509 22.194 141.094 22.2323 140.68 22.2655C140.642 22.2689 140.595 22.2389 140.551 22.224C140.422 22.1824 140.328 22.1242 140.137 22.1425C139.207 22.2306 138.271 22.3055 137.338 22.392C137.144 22.4102 137.059 22.3387 136.927 22.3005C136.883 22.2888 136.833 22.2655 136.792 22.2689C136.274 22.3105 135.755 22.357 135.237 22.4019C135.027 22.4202 135.027 22.4202 134.675 22.3171C134.634 22.3055 134.581 22.2905 134.537 22.2938C133.861 22.3504 133.189 22.4102 132.514 22.4685C132.414 22.4768 132.323 22.4535 132.241 22.4086C132.162 22.3637 132.068 22.3387 131.971 22.347C131.349 22.4003 130.724 22.4518 130.105 22.51C129.939 22.5267 129.801 22.5117 129.681 22.4518C129.596 22.4086 129.512 22.3903 129.405 22.4003C128.472 22.4818 127.539 22.5599 126.607 22.6464C126.428 22.6631 126.302 22.6315 126.189 22.5766C126.098 22.5333 126.019 22.525 125.906 22.5317C125.787 22.54 125.715 22.5583 125.649 22.6082C125.564 22.673 125.51 22.7545 125.309 22.7595C125.102 22.7645 124.892 22.7845 124.688 22.8127C124.493 22.841 124.402 22.7662 124.279 22.7213C124.188 22.6897 124.103 22.6847 123.987 22.6996C123.88 22.7129 123.815 22.7412 123.752 22.7944C123.614 22.9075 123.601 22.9075 123.431 22.836C123.34 22.7978 123.259 22.7678 123.158 22.7745C122.744 22.8077 122.329 22.8443 121.914 22.8826C121.676 22.9042 121.673 22.9075 121.494 22.8244C121.406 22.7828 121.321 22.7628 121.217 22.7728C120.077 22.8726 118.937 22.9691 117.797 23.0739C117.621 23.0905 117.502 23.0556 117.376 23.0057C117.335 22.989 117.295 22.9657 117.247 22.9591C117.2 22.9524 117.147 22.9591 117.097 22.9624C116.268 23.0339 115.435 23.1021 114.609 23.182C114.421 23.2003 114.32 23.1471 114.192 23.1038C114.148 23.0888 114.11 23.0656 114.063 23.0589C114.016 23.0539 113.959 23.0655 113.909 23.0705C113.08 23.1421 112.247 23.2103 111.421 23.2901C111.224 23.3084 111.139 23.2385 111.01 23.2019C110.966 23.1886 110.919 23.1637 110.878 23.167C110.617 23.1853 110.36 23.2102 110.099 23.2319C109.477 23.2867 108.855 23.3383 108.234 23.3949C107.995 23.4165 107.891 23.2685 107.69 23.2751C107.43 23.2834 107.172 23.3167 106.911 23.34C106.704 23.3583 106.497 23.3749 106.29 23.3949C106.085 23.4132 106.085 23.4132 105.577 23.3167C105.533 23.3084 105.479 23.2967 105.435 23.3001C104.71 23.3616 103.981 23.4231 103.259 23.4897C103.092 23.5046 102.954 23.4963 102.835 23.4348C102.75 23.3915 102.662 23.3699 102.559 23.3799C101.469 23.4747 100.382 23.5695 99.2922 23.6626C99.2513 23.666 99.198 23.6493 99.1571 23.636C99.0692 23.6061 98.9844 23.5712 98.8996 23.5396C98.8368 23.5778 98.7552 23.6127 98.7143 23.656C98.6578 23.7142 98.5824 23.7308 98.4631 23.7408C98.3437 23.7508 98.2684 23.7475 98.1741 23.7042C98.0611 23.651 97.9449 23.6094 97.7596 23.626C96.6195 23.7308 95.4794 23.8256 94.3393 23.9288C94.1509 23.9454 94.063 23.8722 93.9311 23.8339C93.8871 23.8223 93.8368 23.804 93.796 23.8073C93.328 23.8456 92.8632 23.8872 92.3953 23.9271C91.0982 24.0402 89.8011 24.1483 88.5072 24.2681C88.2716 24.2897 88.1114 24.2481 87.945 24.1766C87.9104 24.1616 87.8508 24.1533 87.8068 24.1566C85.9915 24.313 84.1762 24.471 82.364 24.629C82.2666 24.6373 82.1724 24.6107 82.0939 24.5674C82.0122 24.5225 81.9212 24.5009 81.8207 24.5092C80.9915 24.5807 80.1624 24.6523 79.3333 24.7254C79.126 24.7437 79.1228 24.7454 78.9093 24.6656C78.8653 24.6489 78.8182 24.6173 78.7837 24.6207C78.7114 24.629 78.6423 24.6705 78.5921 24.7271C78.5418 24.787 78.4633 24.8036 78.3471 24.8152C78.2277 24.8269 78.1492 24.8219 78.0582 24.782C77.942 24.7321 77.8352 24.6839 77.6467 24.7005C75.2629 24.9134 72.8792 25.1179 70.4954 25.3292C70.3038 25.3458 70.2159 25.276 70.084 25.2377C70.04 25.2261 69.996 25.2094 69.9489 25.2061C69.8987 25.2028 69.8453 25.2128 69.795 25.2178C65.9069 25.5554 62.0188 25.8947 58.1306 26.2323C57.8982 26.2523 57.9014 26.2523 57.647 26.4053C57.6156 26.4236 57.5747 26.4485 57.5307 26.4518C56.3404 26.5583 55.147 26.6614 53.9535 26.7645C53.4353 26.8094 52.9171 26.856 52.3989 26.8993C52.2136 26.9142 52.2136 26.9142 51.7708 27.0939C51.7331 27.1088 51.6891 27.1288 51.6451 27.1321C49.5723 27.3134 47.4994 27.4947 45.4234 27.6727C45.2601 27.686 45.1282 27.7159 45.0529 27.7957C44.9995 27.8523 44.9304 27.8855 44.8267 27.8955C43.3758 28.0219 41.9248 28.15 40.4707 28.2731C40.2979 28.288 40.1942 28.3346 40.1095 28.4045C40.0812 28.4278 40.056 28.4544 40.0152 28.471C39.9775 28.486 39.921 28.491 39.8739 28.4959C38.6302 28.6041 37.3865 28.7155 36.1397 28.8186C35.9544 28.8336 35.879 28.8951 35.7879 28.96C35.7565 28.9816 35.7345 29.0116 35.6937 29.0265C35.6528 29.0398 35.5932 29.0398 35.5429 29.0431C34.5065 29.133 33.4701 29.2244 32.4337 29.3143C32.2327 29.3059 32.1887 29.4024 32.0913 29.4606C32.0568 29.4806 32.0317 29.5072 31.9909 29.5205C31.9469 29.5338 31.8903 29.5321 31.8369 29.5355C31.0078 29.607 30.1787 29.6835 29.3464 29.75C29.1548 29.765 29.1171 29.8498 29.0134 29.908C28.9789 29.9263 28.9444 29.9546 28.9036 29.9596C28.3854 30.0078 27.8672 30.0527 27.349 30.096C27.1762 30.1109 27.1762 30.1093 26.8716 30.2739C26.837 30.2922 26.7962 30.3122 26.7522 30.3172C25.9764 30.387 25.1976 30.4536 24.4187 30.5218C24.3182 30.5301 24.2491 30.57 24.1989 30.6265C24.1486 30.6831 24.0764 30.7197 23.9759 30.728C23.354 30.7829 22.7321 30.8394 22.1103 30.8893C21.9375 30.9026 21.8245 30.9442 21.7491 31.019C21.6926 31.0756 21.6235 31.1039 21.5136 31.1138C20.8917 31.1671 20.2699 31.2253 19.6449 31.2719C19.4627 31.2852 19.3685 31.3417 19.2931 31.4116C19.2334 31.4681 19.1643 31.4881 19.0481 31.4981C17.9081 31.5945 16.7649 31.691 15.628 31.7974C15.4364 31.8157 15.339 31.7575 15.2134 31.7159C15.0344 31.6577 14.8679 31.5945 14.8679 31.4648C14.8679 31.4448 14.8145 31.4215 14.7769 31.4049C14.4973 31.2802 14.4973 31.2802 14.4534 31.1471C14.4282 31.0656 14.4 30.9825 14.378 30.8993C14.3372 30.7629 14.2366 30.728 13.9477 30.7529C13.844 30.7613 13.7404 30.7729 13.6368 30.7795C13.4829 30.7912 13.3667 30.7363 13.3384 30.6365C13.3227 30.5816 13.3039 30.5267 13.2882 30.4718C13.4452 30.4585 13.442 30.4569 13.7184 30.2556C13.8346 30.1708 13.8347 30.1708 13.6117 30.086C13.5269 30.0544 13.4452 30.0194 13.3541 29.9895C13.3133 29.9762 13.2599 29.9679 13.216 29.9712C12.9553 29.9912 12.6978 30.0145 12.4402 30.0377C12.0256 30.0743 12.0256 30.0743 11.6048 29.9047C11.5702 29.8914 11.5168 29.8664 11.5231 29.8531C11.5576 29.7916 11.6424 29.765 11.7492 29.7583C11.9062 29.7483 12.0601 29.7317 12.214 29.7184C12.3177 29.7101 12.4213 29.7001 12.5249 29.6918C12.6223 29.6286 12.7229 29.5671 12.8139 29.5022C12.9584 29.4024 12.9584 29.3991 12.7605 29.3292C12.6349 29.2826 12.4998 29.2411 12.3711 29.1978C12.2172 29.2111 12.0601 29.2261 11.9062 29.2377C11.7115 29.2527 11.633 29.2211 11.5827 29.113C11.5388 29.0182 11.5922 28.9367 11.7429 28.9167C11.8968 28.8968 12.0413 28.8835 12.1199 28.7987C12.1952 28.7172 12.3271 28.6855 12.4904 28.6789C12.5941 28.6739 12.6977 28.6623 12.8014 28.6523C12.9364 28.639 13.0087 28.5542 12.9804 28.4594C12.9647 28.3978 12.9333 28.3463 12.8108 28.333C12.2675 28.2747 12.2611 28.2764 11.991 28.1633C11.9659 28.1533 11.9471 28.1234 11.9565 28.1084C11.9722 28.0835 12.0068 28.0469 12.0445 28.0419C12.4057 28.0053 12.7668 27.972 13.128 27.9471C13.2474 27.9388 13.3353 27.9271 13.3761 27.8656C13.4327 27.7808 13.4075 27.7026 13.2976 27.6444C13.2631 27.6261 13.2065 27.6028 13.1688 27.6045C12.7542 27.6344 12.3428 27.6726 11.9282 27.7026C11.8906 27.7059 11.8215 27.6777 11.8058 27.656C11.7744 27.6161 11.8215 27.5629 11.9314 27.5446C12.0759 27.5196 12.2235 27.518 12.3208 27.4348C12.4559 27.3167 12.6223 27.2086 12.7731 27.0955C12.7982 27.0756 12.8391 27.0373 12.8297 27.034C12.7511 26.9974 12.66 26.9691 12.5784 26.9342C12.4402 26.876 12.4402 26.7945 12.4716 26.7163C12.4967 26.6531 12.5909 26.6282 12.7071 26.6282C12.7574 26.6282 12.8202 26.6282 12.861 26.6132C12.9678 26.5766 13.0024 26.53 12.949 26.4951C12.9176 26.4751 12.8611 26.4469 12.8234 26.4502C12.1513 26.5051 11.476 26.5583 10.807 26.6265C10.6091 26.6465 10.5181 26.5832 10.3988 26.5383C10.3077 26.5034 10.2229 26.4901 10.1098 26.515C10.003 26.5383 9.8994 26.525 9.83345 26.4702C9.78006 26.4253 9.87426 26.387 10.1287 26.3438C10.1758 26.3354 10.2291 26.3304 10.2637 26.3138C10.628 26.1342 10.628 26.1325 10.8792 26.1092C11.1242 26.0876 11.1243 26.086 11.253 25.9895C11.3127 25.9446 11.3786 25.8997 11.4351 25.8531C11.4571 25.8348 11.4949 25.8015 11.4823 25.7916C11.4132 25.74 11.3189 25.7284 11.209 25.74C10.9641 25.7683 10.6752 25.745 10.5464 25.903C10.4961 25.9629 10.4176 25.9795 10.3045 25.9895C9.16763 26.086 8.03067 26.1891 6.89061 26.2822C6.70531 26.2972 6.62056 26.3587 6.54832 26.4269C6.48551 26.4835 6.4164 26.5001 6.29705 26.5101C6.17771 26.5201 6.08344 26.525 6.01435 26.4702C5.97352 26.4369 6.00808 26.3903 6.1023 26.3438C6.23734 26.2772 6.21221 26.1941 6.16824 26.1159C6.13683 26.0643 6.03947 26.0277 5.93583 26.0311C5.78194 26.0377 5.63437 26.056 5.5056 25.9895C5.43022 25.9512 5.33598 25.9246 5.25119 25.8913C5.08787 25.8232 4.92455 25.7533 4.69528 25.7982C4.53825 25.7816 4.42833 25.7217 4.3027 25.6751C4.09227 25.5986 4.07343 25.587 4.22418 25.5055C4.39378 25.414 4.26185 25.2942 4.35607 25.2044C4.45657 25.108 4.5948 25.0232 4.71729 24.9333C4.7487 24.9101 4.77697 24.8884 4.80838 24.8652C4.73614 24.8319 4.6702 24.7903 4.58541 24.767C4.47548 24.7371 4.41895 24.7005 4.42523 24.5974C4.40324 24.5824 4.4126 24.6207 4.43773 24.6306C4.46599 24.6406 4.53514 24.6323 4.56969 24.6207C4.65763 24.5891 4.70155 24.5475 4.67956 24.5126C4.667 24.4943 4.60737 24.471 4.56969 24.471C4.50059 24.471 4.44093 24.5076 4.42208 24.5974C4.07033 24.6656 3.70595 24.6988 3.34164 24.7254C3.30395 24.7288 3.25687 24.6955 3.2129 24.6789C3.06843 24.6223 3.06841 24.624 2.64442 24.6073C2.60045 24.6057 2.54081 24.5824 2.51882 24.5591C2.42774 24.4577 2.43091 24.3462 2.38694 24.2381C2.4686 24.1683 2.55019 24.1001 2.63499 24.0319C2.80458 23.8938 3.02448 23.7724 3.15639 23.6211C3.12812 23.5396 3.09043 23.4581 3.22862 23.3915C3.6212 23.3084 3.61808 23.3084 3.72487 23.2286C4.02951 23.0024 4.331 22.7745 4.6482 22.5516C4.733 22.4934 4.73301 22.4618 4.58226 22.4369C4.53515 22.4302 4.48483 22.4285 4.43458 22.4319C4.27755 22.4435 4.12052 22.4734 3.96663 22.4668C3.81273 22.4618 3.69967 22.3886 3.57404 22.3437C3.44528 22.2971 3.31651 22.2489 3.18775 22.2007C3.04014 22.2057 2.89255 22.2522 2.74494 22.1774C2.63188 22.1192 2.49056 22.0776 2.36179 22.0294C2.45915 21.903 2.64134 21.8065 2.78267 21.6951C2.91143 21.5936 2.9145 21.5953 3.25998 21.5171C3.42329 21.4805 3.47983 21.2926 3.34164 21.2377C3.17518 21.1711 2.99934 21.1096 2.82974 21.0464C2.68213 21.0514 2.53141 21.0963 2.39008 21.0215C2.28016 20.9649 2.15451 20.9266 1.97235 20.9483C1.66456 20.9849 1.35051 21.0032 1.03958 21.0331C0.932797 21.0431 0.816558 21.0364 0.769448 20.9799C0.738041 20.94 0.829127 20.8851 0.932769 20.8734C1.0898 20.8568 1.23112 20.8368 1.30963 20.7537C1.38501 20.6705 1.52318 20.6456 1.6865 20.6339C1.73047 20.6306 1.78076 20.6106 1.80274 20.5907C1.9158 20.4942 2.04144 20.4111 2.28327 20.4144C2.38377 20.3811 2.43713 20.3395 2.40572 20.2996C2.38688 20.278 2.32096 20.2497 2.28327 20.2531C2.0226 20.2697 1.76193 20.2863 1.50754 20.3163C1.38819 20.3296 1.29706 20.3329 1.22169 20.283C1.16829 20.2497 1.19656 20.2048 1.29706 20.1566C1.385 20.115 1.41015 20.0668 1.40387 20.0102C1.38817 19.8788 1.29393 19.8406 0.992423 19.8489C0.775717 19.8555 0.722323 19.8339 0.675213 19.7208C0.66265 19.6942 0.631299 19.6576 0.653283 19.6393C0.788332 19.5262 0.876277 19.3865 1.13067 19.3333C1.23117 19.3133 1.33791 19.3133 1.40073 19.2701C1.46354 19.2268 1.5201 19.1769 1.58605 19.1354C1.66771 19.0855 1.72419 19.0389 1.6865 19.0073C1.62369 18.9508 1.52322 18.9458 1.40701 18.9657C1.30651 18.9824 1.19973 18.984 1.09609 18.994C0.91079 19.0123 0.760072 18.969 0.738088 18.8959C0.678415 18.7029 0.615583 18.5117 0.562192 18.3187C0.55591 18.2955 0.571571 18.2655 0.596696 18.2455C0.684635 18.1757 0.778892 18.1092 0.869971 18.041C0.976754 17.9628 1.14638 17.9778 1.29085 17.9628C1.49499 17.9412 1.49492 17.9428 1.76816 17.7832C1.87494 17.72 2.06025 17.7449 2.17017 17.6884C2.20472 17.6701 2.25811 17.6401 2.24869 17.6235C2.23613 17.6019 2.17335 17.5852 2.12624 17.5753C2.08227 17.5653 2.02889 17.5603 1.98178 17.5653C1.41018 17.6135 0.841733 17.6651 0.270131 17.7117C0.17277 17.72 0.0659847 17.6834 0.0314373 17.6318C-0.00311 17.5836 0.00628133 17.5254 0 17.4705C0.0910794 17.4023 0.194682 17.3391 0.273198 17.2659C0.332871 17.2094 0.401978 17.1844 0.521323 17.1811C0.678357 17.1761 0.832265 17.1561 1.00814 17.1412C1.33477 16.8983 1.6551 16.6439 2.00685 16.401C2.14818 16.3029 2.11369 16.2031 2.14196 16.0983C2.17022 16.0019 2.38064 16.0168 2.52197 15.9886C2.63503 15.9653 2.67267 15.9121 2.6287 15.8755C2.60357 15.8538 2.54707 15.8289 2.5031 15.8289C2.39946 15.8289 2.29582 15.8439 2.19218 15.8522C2.08854 15.8605 1.9692 15.8555 1.8844 15.8838C1.80274 15.9104 1.74932 15.9669 1.69593 16.0152C1.63626 16.0684 1.5578 16.0867 1.43845 16.09C1.28456 16.0934 1.13067 16.1083 0.976781 16.12C0.807185 16.0551 0.631271 15.9919 0.467956 15.9237C0.43655 15.9104 0.430235 15.8721 0.433375 15.8472C0.439657 15.7823 0.392559 15.7424 0.288917 15.7108C0.200978 15.6842 0.128737 15.6459 0.0470793 15.6127C0.109893 15.5678 0.179012 15.5245 0.229263 15.4763C0.339186 15.3748 0.477391 15.3017 0.716081 15.305C0.810301 15.2401 0.885656 15.1603 1.00814 15.1154C1.12435 15.0721 1.32222 15.1154 1.41016 15.0172C1.45413 14.969 1.52012 14.9141 1.60491 14.8942C1.73996 14.8626 1.91584 14.8792 1.99435 14.7861C2.04146 14.7328 2.11053 14.6846 2.20161 14.6713C2.30525 14.6563 2.41201 14.653 2.48738 14.6214C2.52821 14.6048 2.57219 14.5782 2.57219 14.5549C2.57219 14.5399 2.50942 14.5166 2.46545 14.5066C2.42463 14.495 2.37117 14.4867 2.32406 14.49C2.16703 14.5 2.01314 14.5183 1.85611 14.5283C1.81214 14.5316 1.7619 14.5199 1.71479 14.51C1.5766 14.4834 1.58601 14.4501 1.69593 14.3902C1.80585 14.332 1.88441 14.2572 1.97549 14.189C2.07599 14.1773 2.2016 14.1823 2.2707 14.1507C2.3869 14.0991 2.46854 14.0243 2.56276 13.9594C2.6664 13.9495 2.77318 13.9461 2.87054 13.9278C2.91136 13.9212 2.93022 13.8846 2.96477 13.863C3.02758 13.8214 3.08102 13.7615 3.16582 13.7416C3.30401 13.7116 3.4736 13.7233 3.55526 13.6318C3.60237 13.5786 3.67457 13.522 3.76251 13.5187C4.00749 13.512 4.11113 13.4206 4.23676 13.3341C4.33098 13.2692 4.53199 13.3025 4.63563 13.2376C4.70472 13.196 4.755 13.1445 4.8241 13.1045C4.85236 13.0879 4.91202 13.0796 4.95913 13.0746C5.21666 13.0497 5.47733 13.0314 5.73486 13.0048C5.77569 12.9998 5.81341 12.9748 5.84482 12.9549C5.91077 12.9116 5.95155 12.8517 6.03321 12.8235C6.11487 12.7952 6.23106 12.7952 6.33156 12.7869C6.65505 12.7619 6.6802 12.7686 6.82781 12.6272C6.94715 12.5124 7.23927 12.5939 7.33663 12.4675C7.39316 12.3944 7.49676 12.3345 7.68206 12.3262C7.94274 12.3145 8.20026 12.2829 8.46094 12.2613C8.69335 12.2413 8.69022 12.2413 8.94147 12.0867C9.05453 12.0168 9.22102 12.0268 9.36864 12.0135C9.52567 12.0002 9.67012 11.9802 9.7455 11.8971C9.82088 11.8156 9.95905 11.7889 10.1192 11.7773C10.2668 11.7657 10.4333 11.774 10.5495 11.7075C10.8322 11.5478 10.8291 11.5461 11.0269 11.5295C11.3378 11.5029 11.6488 11.4763 11.9597 11.448C12.167 11.4297 12.3837 11.4264 12.5784 11.3898C12.7197 11.3632 12.7825 11.27 12.8736 11.2052C13.1311 11.1802 13.3886 11.1553 13.6462 11.132C14.0074 11.0987 14.3717 11.0688 14.736 11.0372C14.893 10.974 14.9151 10.8343 15.1789 10.8276C15.3359 10.8243 15.4898 10.8027 15.6468 10.7894C15.9075 10.7661 16.165 10.7361 16.4257 10.7245C16.6236 10.7162 16.6581 10.6264 16.7617 10.5698C16.7962 10.5498 16.8277 10.5216 16.8685 10.5166C17.2768 10.47 17.6976 10.46 18.0965 10.3918C18.1373 10.3852 18.175 10.3503 18.1844 10.3253C18.1907 10.312 18.1373 10.2871 18.1028 10.2754C18.0619 10.2621 18.0086 10.2488 17.9646 10.2521C16.6675 10.3636 15.3704 10.4767 14.0733 10.5881C13.8912 10.6047 13.8912 10.6031 13.4484 10.786C13.4107 10.801 13.3667 10.8176 13.3195 10.8226C13.1123 10.8426 12.9018 10.8542 12.6977 10.8792C12.5312 10.8991 12.3931 10.8792 12.2738 10.8193C12.189 10.776 12.101 10.7627 11.9942 10.7661C11.8748 10.7711 11.7964 10.7894 11.7273 10.8343C11.6362 10.8958 11.5891 10.9756 11.3975 10.9923C10.515 11.0638 9.63239 11.1436 8.753 11.2201C8.63051 11.1968 8.57085 11.1619 8.60225 11.1203C8.6211 11.0954 8.6588 11.0621 8.69649 11.0588C9.05767 11.0239 9.42197 10.9939 9.78315 10.9607C9.8334 10.9557 9.90248 10.959 9.93075 10.9424C10.0689 10.8675 10.1192 10.7461 10.3799 10.7378C10.5307 10.7328 10.6845 10.7079 10.829 10.6846C10.8698 10.6779 10.9075 10.643 10.917 10.618C10.9201 10.6047 10.8698 10.5798 10.8322 10.5681C10.694 10.5199 10.5338 10.5781 10.3956 10.5449C10.3485 10.5332 10.2825 10.5166 10.2731 10.4966C10.2668 10.4783 10.3202 10.4484 10.3579 10.4301C10.3925 10.4135 10.4395 10.3985 10.4867 10.3935C10.9012 10.3553 11.3159 10.3153 11.7304 10.2854C11.9 10.2738 12.0193 10.2322 12.0947 10.1557C12.1512 10.0991 12.2203 10.0692 12.3271 10.0609C13.0526 9.99933 13.7781 9.93114 14.5067 9.87459C14.6889 9.86128 14.7831 9.8064 14.8585 9.73488C14.9182 9.67833 14.9873 9.65837 15.1035 9.64839C16.1431 9.56191 17.1763 9.46544 18.2159 9.38228C18.4075 9.36731 18.464 9.29579 18.5614 9.23425C18.5959 9.21263 18.6179 9.18602 18.6618 9.17272C18.7058 9.15941 18.7623 9.16106 18.8157 9.15773C19.6448 9.08621 20.474 9.00972 21.3063 8.94319C21.501 8.92822 21.5387 8.84505 21.6392 8.78684C21.6737 8.76854 21.7051 8.73861 21.746 8.73362C22.3678 8.67707 22.9897 8.62385 23.6115 8.56897C24.0261 8.53238 24.4406 8.49578 24.8552 8.46085C25.0594 8.44422 25.0594 8.44255 25.3357 8.28454C25.3671 8.26625 25.4112 8.24462 25.452 8.23963C26.6454 8.13319 27.8357 8.03175 29.0292 7.92697C29.1297 7.91865 29.2019 7.88038 29.2521 7.82383C29.3024 7.76728 29.3747 7.72903 29.4721 7.72071C30.4048 7.63755 31.3376 7.55606 32.2735 7.47789C32.4431 7.46458 32.5624 7.42466 32.6378 7.34982C32.6943 7.29327 32.7634 7.26334 32.8702 7.25502C33.803 7.17519 34.7358 7.09035 35.6717 7.01384C35.8507 6.99888 35.9386 6.94233 36.0266 6.87581C36.058 6.85252 36.0831 6.81426 36.1208 6.81094C36.5856 6.76437 37.0473 6.71613 37.5153 6.68453C37.71 6.67123 37.776 6.60137 37.8545 6.53484C37.9173 6.48161 37.9895 6.46332 38.1089 6.45667C38.3696 6.4417 38.6271 6.41344 38.8815 6.38516C38.9192 6.38017 38.9663 6.34358 38.9694 6.3203C38.9757 6.27705 38.9034 6.24711 38.7841 6.23214C37.5404 6.34025 36.2936 6.44835 35.0499 6.55646C34.8457 6.57476 34.8457 6.57477 34.5693 6.73277C34.5379 6.75107 34.4939 6.77269 34.45 6.77768C33.2565 6.88246 32.0662 6.98558 30.8728 7.09037C30.7723 7.09868 30.7001 7.13694 30.6498 7.19348C30.5995 7.25003 30.5273 7.28829 30.4299 7.2966C29.2898 7.3964 28.1498 7.49786 27.0066 7.59266C26.837 7.60597 26.7177 7.6442 26.6423 7.72071C26.5858 7.77726 26.5167 7.80721 26.4099 7.81553C25.3201 7.90867 24.2334 8.00679 23.1404 8.0966C23.0305 8.10492 22.9489 8.05668 22.9552 8.01177C22.9583 7.98849 23.0053 7.95025 23.043 7.94693C23.6115 7.89204 24.1769 7.83548 24.7485 7.7939C24.9401 7.7806 24.9965 7.70741 25.0939 7.64587C25.1253 7.62425 25.1505 7.59598 25.1913 7.58434C25.2353 7.57103 25.2918 7.5727 25.3452 7.56937C26.6925 7.45128 28.0399 7.33154 29.3904 7.2201C29.5851 7.20347 29.6227 7.12196 29.7232 7.06375C29.7578 7.04379 29.7892 7.01386 29.8301 7.01054C30.2446 6.97062 30.6592 6.93568 31.0737 6.90076C31.7992 6.83756 32.5247 6.77435 33.2533 6.71115C33.4638 6.69285 33.4638 6.69284 33.7339 6.5365C33.7653 6.51821 33.8093 6.49494 33.8501 6.49161C35.7691 6.32363 37.688 6.15564 39.607 5.98932C39.7075 5.981 39.7797 5.94275 39.83 5.8862C39.8802 5.83131 39.9524 5.7914 40.0498 5.78142C42.644 5.55522 45.235 5.32901 47.8292 5.10614C47.9988 5.09117 48.1181 5.05624 48.1935 4.97807C48.2469 4.92152 48.3191 4.89159 48.4259 4.88161C51.2777 4.63379 54.1294 4.38598 56.9843 4.13649C58.9032 3.97017 60.8222 3.80052 62.7411 3.63753C62.917 3.62256 63.0112 3.57099 63.0991 3.5028C63.1274 3.47951 63.1557 3.44126 63.1934 3.43793C63.6048 3.39635 64.0162 3.3581 64.4276 3.31985C64.5564 3.36476 64.6851 3.40801 64.8139 3.45291C64.9113 3.38971 65.0055 3.32484 65.1029 3.26164C65.7248 3.21341 66.3372 3.13856 66.9653 3.11528C67.0061 3.11361 67.0501 3.14522 67.094 3.16185C67.3861 3.26663 67.5526 3.25832 67.7379 3.11861C67.8038 3.06871 67.8604 3.0238 67.9609 3.01549C68.2718 2.98555 68.5859 2.96559 68.8937 2.93066C69.0602 2.91237 69.1983 2.92899 69.3177 2.98887C69.4025 3.03211 69.4904 3.05042 69.5941 3.04044C70.1657 2.99054 70.7341 2.9423 71.3057 2.88908C71.3466 2.88576 71.3842 2.85747 71.4156 2.83751C71.4816 2.79427 71.5381 2.74771 71.6009 2.7028C71.6857 2.73108 71.78 2.7527 71.8491 2.78929C71.937 2.83254 72.0186 2.83253 72.138 2.82088C74.4181 2.61964 76.7014 2.42338 78.9815 2.22047C79.1762 2.20383 79.261 2.2737 79.3929 2.31029C79.4369 2.32359 79.4809 2.34022 79.528 2.34354C79.5782 2.34687 79.6316 2.3369 79.6819 2.33191C81.3935 2.18222 83.1052 2.03418 84.8169 1.88449C85.043 1.86453 85.043 1.86453 85.3791 1.96765C85.4199 1.98096 85.4733 1.99593 85.5172 1.99094C86.2961 1.92608 87.075 1.85623 87.8507 1.7897C87.9512 1.78138 88.0361 1.80799 88.1272 1.84624C88.3062 1.92109 88.3187 1.92109 88.4506 1.81132C88.5134 1.75976 88.5793 1.72815 88.683 1.71318C88.796 1.69654 88.8872 1.70155 88.9751 1.73149C89.1007 1.77307 89.1918 1.84291 89.3834 1.82462C90.2126 1.74645 91.0448 1.68159 91.8708 1.60175C92.0592 1.58346 92.1598 1.64001 92.2854 1.68159C92.3294 1.69655 92.3702 1.71984 92.4173 1.72483C92.4644 1.72982 92.5209 1.71817 92.5712 1.71318C93.6076 1.62336 94.6471 1.53523 95.6804 1.43876C95.8751 1.42047 95.9599 1.49197 96.0918 1.52856C96.1358 1.54187 96.186 1.56517 96.2269 1.56184C96.8487 1.51028 97.4738 1.45538 98.0956 1.40049C98.3186 1.38053 98.3186 1.3822 98.6577 1.48365C98.6986 1.49696 98.752 1.51027 98.796 1.50694C99.5215 1.4454 100.25 1.3822 100.976 1.319C101.199 1.29904 101.199 1.29904 101.842 1.38553C101.89 1.39218 101.94 1.40217 101.987 1.39885C102.816 1.32733 103.648 1.25746 104.477 1.18096C104.644 1.16599 104.782 1.17929 104.901 1.23916C104.986 1.28241 105.074 1.30071 105.178 1.29073C106.111 1.20924 107.047 1.13107 107.976 1.04458C108.155 1.02795 108.271 1.06453 108.397 1.11276C108.438 1.12939 108.479 1.15268 108.526 1.15933C108.573 1.16599 108.626 1.15933 108.677 1.15434C109.609 1.07284 110.545 0.996337 111.475 0.908186C111.663 0.889891 111.764 0.946437 111.889 0.988017C111.933 1.00299 111.98 1.03293 112.018 1.03126C112.382 1.00299 112.747 0.978048 113.108 0.936468C113.303 0.913183 113.387 0.989677 113.519 1.02627C113.563 1.03791 113.614 1.06287 113.654 1.05954C114.433 0.994679 115.212 0.926492 115.988 0.856637C116.098 0.846658 116.18 0.861613 116.267 0.904856C116.384 0.963069 116.519 0.986355 116.688 0.968059C117.05 0.929805 117.414 0.903201 117.778 0.8716C117.992 0.853305 117.992 0.853311 118.645 0.939798C118.692 0.946451 118.742 0.956423 118.789 0.953096C119.411 0.899873 120.036 0.848317 120.655 0.790104C120.821 0.773472 120.96 0.788437 121.079 0.848313C121.164 0.891556 121.249 0.909861 121.355 0.899882C121.927 0.849986 122.495 0.800085 123.067 0.750189C123.274 0.731893 123.482 0.700284 123.689 0.700284C123.84 0.701947 123.95 0.781778 124.085 0.821696C124.122 0.833338 124.185 0.820048 124.235 0.816721C124.961 0.753519 125.69 0.695301 126.412 0.623783C126.6 0.605487 126.701 0.662033 126.826 0.703614C126.87 0.718583 126.918 0.748522 126.955 0.746859C127.216 0.728564 127.473 0.703613 127.734 0.681991C128.045 0.65538 128.359 0.635421 128.667 0.59883C128.918 0.568892 129.012 0.713587 129.213 0.718577C129.367 0.723567 129.524 0.695297 129.678 0.681991C129.989 0.65538 130.3 0.625445 130.611 0.60216C130.721 0.593844 130.806 0.567221 130.84 0.507345C130.847 0.495703 130.793 0.470765 130.759 0.455796C130.341 0.286148 130.341 0.28614 129.92 0.322731C129.659 0.346016 129.402 0.369305 129.141 0.389264C129.097 0.39259 129.047 0.379285 129.003 0.369306C128.877 0.341031 128.89 0.30777 128.997 0.247894C129.103 0.188018 129.185 0.114843 129.276 0.0466516C129.405 0.0898953 129.531 0.133123 129.659 0.176367C129.763 0.168051 129.867 0.158086 129.97 0.14977C130.488 0.106527 131.007 0.0616165 131.525 0.0216994C131.563 0.0183729 131.61 0.0516421 131.654 0.0682743C131.779 0.116508 131.892 0.158077 132.074 0.139781C132.539 0.0915479 133.007 0.0566204 133.472 0.01504C133.676 -0.00325538 133.676 -0.00325375 134.034 0.0998656C134.075 0.111508 134.128 0.124815 134.172 0.121488C134.64 0.0832343 135.105 0.0416588 135.573 0.00174158C135.674 -0.0065745 135.771 0.0150465 135.843 0.0632797C135.872 0.0832383 135.865 0.116496 135.985 0.389264C136.355 0.610471 136.61 0.587198 136.867 0.567239C136.977 0.558923 137.074 0.550599 137.147 0.517334C137.184 0.499039 137.231 0.472424 137.231 0.450802C137.231 0.43417 137.162 0.407553 137.118 0.404227C136.807 0.370962 136.512 0.440827 136.208 0.455796C136.066 0.462449 135.944 0.404236 135.919 0.309432C135.912 0.282821 135.903 0.254548 135.894 0.227936C135.884 0.201325 135.878 0.173052 135.868 0.146441C135.746 0.138124 135.674 0.168057 135.62 0.224607C135.576 0.271177 135.514 0.3244 135.429 0.349348C135.344 0.375959 135.228 0.370979 135.124 0.379295C135.024 0.387611 134.914 0.40923 134.819 0.397588C134.725 0.384282 134.65 0.336041 134.562 0.306103C134.521 0.291134 134.471 0.26952 134.43 0.272847C134.069 0.301121 133.711 0.329385 133.353 0.365976C133.164 0.385935 133.07 0.31609 132.951 0.272847C132.857 0.239582 132.762 0.247888 132.747 0.324396C132.706 0.507349 132.85 0.583853 133.171 0.548926C133.434 0.518988 133.673 0.514014 133.88 0.627112C133.909 0.642081 133.975 0.648732 134.015 0.645405C134.273 0.625447 134.527 0.600496 134.785 0.580537C134.832 0.577211 134.882 0.583853 134.926 0.590506C135.567 0.68032 135.567 0.681992 135.784 0.662033C135.887 0.652054 135.988 0.643737 135.978 0.390928C136.176 0.119824 136.49 0.101532 136.795 0.0616149C136.993 0.0366667 137.078 0.109851 137.206 0.148105C137.25 0.161411 137.297 0.188018 137.338 0.184691C138.013 0.129805 138.686 0.0715845 139.358 0.0100455C139.471 6.61791e-05 139.552 0.0100471 139.64 0.0532907C139.753 0.108177 139.879 0.143112 140.058 0.123153C140.416 0.0832359 140.78 0.0582933 141.145 0.025029C141.33 0.00839687 141.33 0.00837982 141.704 0.111499C141.745 0.123142 141.798 0.136448 141.842 0.133122C142.206 0.104847 142.567 0.0699302 142.929 0.0399923C143.029 0.0316762 143.12 0.0549588 143.199 0.0998656C143.277 0.144772 143.371 0.168055 143.469 0.159739C143.833 0.129801 144.194 0.0965473 144.556 0.0666094C144.599 0.063283 144.653 0.0749247 144.694 0.0865672C145.077 0.189687 145.077 0.18967 145.253 0.173037C145.51 0.148089 145.774 0.13646 146.028 0.103195C146.277 0.069931 146.405 0.166389 146.575 0.219612C147.04 0.181358 147.508 0.149765 147.969 0.103195C148.158 0.0832367 148.258 0.138118 148.384 0.181362C148.428 0.196331 148.472 0.227935 148.513 0.226272C148.67 0.219619 148.824 0.201327 148.978 0.188021C149.131 0.174715 149.289 0.161411 149.442 0.148105C149.618 0.196339 149.734 0.309436 149.986 0.271182C150.136 0.247897 150.297 0.242907 150.451 0.229601C150.604 0.216296 150.761 0.202991 150.915 0.189686C151.019 0.18137 151.126 0.176373 151.226 0.161404C151.412 0.136456 151.503 0.217963 151.635 0.254554C151.679 0.266196 151.729 0.286142 151.77 0.282815C152.081 0.25953 152.395 0.239573 152.699 0.201319C152.935 0.171381 153.095 0.221284 153.261 0.291139C153.296 0.306108 153.356 0.314424 153.4 0.311097C153.764 0.282823 154.125 0.247885 154.486 0.217947C154.584 0.209631 154.678 0.236242 154.756 0.279486C154.838 0.324392 154.929 0.34603 155.03 0.337714C155.391 0.307777 155.755 0.274502 156.116 0.244565C156.16 0.241238 156.214 0.254546 156.254 0.267852C156.606 0.370971 156.606 0.372636 156.814 0.352678C156.864 0.347688 156.917 0.344349 156.967 0.339359C157.225 0.316074 157.492 0.307769 157.743 0.267852C158.032 0.222945 158.243 0.279497 158.447 0.3743C158.704 0.354342 158.968 0.342697 159.219 0.309432C159.408 0.284484 159.508 0.347683 159.634 0.389264C159.678 0.404232 159.725 0.43417 159.763 0.430844C160.127 0.402569 160.491 0.37763 160.849 0.33605C161.044 0.312765 161.129 0.387595 161.261 0.425849C161.305 0.439155 161.352 0.462452 161.393 0.459126C161.6 0.44582 161.807 0.425852 162.015 0.407556C162.256 0.385935 162.256 0.387596 162.577 0.489052C162.727 0.537286 162.878 0.49903 163.026 0.487388C163.183 0.474082 163.33 0.464106 163.456 0.532298C163.535 0.575541 163.629 0.602154 163.726 0.595501C163.933 0.580532 164.144 0.56557 164.348 0.540622C164.511 0.520663 164.653 0.533962 164.772 0.595501C164.857 0.638744 164.945 0.660379 165.048 0.6504C165.513 0.610483 165.981 0.568887 166.446 0.530633C166.487 0.527306 166.543 0.542281 166.581 0.55725C166.669 0.587188 166.754 0.620445 166.839 0.653709C167.043 0.63874 167.253 0.632104 167.454 0.608819C167.668 0.585534 167.862 0.577216 168.029 0.668693C168.063 0.688651 168.114 0.716911 168.154 0.715247C168.311 0.708595 168.465 0.691967 168.619 0.678661C168.773 0.665356 168.93 0.652052 169.084 0.638746C169.263 0.680326 169.376 0.800076 169.627 0.761822C169.778 0.738537 169.938 0.733548 170.092 0.720242C170.246 0.706936 170.403 0.691969 170.557 0.680326C170.607 0.677 170.664 0.668679 170.708 0.675332C170.755 0.681985 170.796 0.705275 170.837 0.721907C170.962 0.77014 171.078 0.818379 171.257 0.790104C171.408 0.766819 171.568 0.761828 171.722 0.746859C171.933 0.728564 171.933 0.728567 172.281 0.833349C172.423 0.876593 172.583 0.820046 172.718 0.856637C172.809 0.881585 172.887 0.923157 172.975 0.951431C173.013 0.963074 173.073 0.968056 173.117 0.96473C173.324 0.949761 173.534 0.934799 173.739 0.909851C173.905 0.889892 174.043 0.909848 174.159 0.969724C174.244 1.01297 174.329 1.03127 174.436 1.02129C174.954 0.974724 175.472 0.934793 175.987 0.883234C176.163 0.864938 176.304 0.89322 176.402 0.953096C176.568 1.05622 176.804 0.934803 176.977 1.01796C177.083 1.06952 177.19 1.1294 177.385 1.10445C177.743 1.06121 178.107 1.03791 178.468 1.00797C178.597 1.05288 178.726 1.0978 178.858 1.14271C179.065 1.12441 179.272 1.1061 179.48 1.08947C179.634 1.07617 179.791 1.0612 179.945 1.04956C179.995 1.04623 180.048 1.03957 180.095 1.04789C180.142 1.05621 180.18 1.07783 180.224 1.09447C180.441 1.17596 180.441 1.17763 180.799 1.14437C180.953 1.1294 181.1 1.11942 181.229 1.18595C181.348 1.24749 181.49 1.25912 181.653 1.24083C181.961 1.20756 182.272 1.18262 182.586 1.15933C182.683 1.15102 182.774 1.17929 182.856 1.22254C182.978 1.29073 183.129 1.28408 183.283 1.26578C183.487 1.2425 183.688 1.21922 183.861 1.31236C183.895 1.33232 183.949 1.36057 183.987 1.35891C184.244 1.34561 184.505 1.33563 184.756 1.30403C185.007 1.27243 185.13 1.37555 185.303 1.42544C185.56 1.40382 185.821 1.3822 186.078 1.36058C186.129 1.35559 186.188 1.34063 186.232 1.34894C186.417 1.38387 186.524 1.50861 186.779 1.47035C186.926 1.44873 187.086 1.44209 187.24 1.4371C187.281 1.43543 187.335 1.4637 187.363 1.48532C187.379 1.49696 187.363 1.52856 187.344 1.54519C187.287 1.59176 187.218 1.63502 187.168 1.68325C187.162 1.6899 187.221 1.71983 187.256 1.73313C187.341 1.76307 187.438 1.75809 187.551 1.74479C187.649 1.73315 187.749 1.75643 187.818 1.80633C187.846 1.82629 187.837 1.85955 187.777 1.96932C187.777 2.05082 187.843 2.01422 187.865 1.96099C187.9 1.88449 187.834 1.85954 187.708 1.90112C187.62 1.93106 187.576 1.97431 187.598 2.00923C187.611 2.02753 187.671 2.05082 187.777 1.96932C188.054 1.86953 188.261 1.85124 188.468 1.83294C188.522 1.82795 188.585 1.81131 188.622 1.82129C188.757 1.86121 188.883 1.90945 189.015 1.95436C189.166 1.94438 189.307 1.91942 189.454 1.98428C189.662 2.07576 189.671 2.06745 189.872 2.04915C189.976 2.03917 190.079 2.03087 190.183 2.02255C190.287 2.01424 190.368 2.03918 190.459 2.07743C190.645 2.1556 190.66 2.1556 190.783 2.04915C190.855 1.98428 190.905 1.96267 190.997 1.99261C191.298 2.09406 191.301 2.10071 191.559 2.07077C191.772 2.04582 191.973 2.03917 192.13 2.13398C192.237 2.2005 192.272 2.18554 192.356 2.11568C192.583 1.93107 192.686 1.93439 193.11 2.06744C193.308 2.13064 193.512 2.06246 193.713 2.05414C193.883 2.04749 194.002 2.0874 194.015 2.19218C194.024 2.25705 194.052 2.30363 194.165 2.32525C194.209 2.33357 194.263 2.3452 194.307 2.34188C194.567 2.32192 194.825 2.29863 195.086 2.27534C195.218 2.2637 195.29 2.18555 195.265 2.08243C195.236 1.97265 195.287 1.93272 195.475 1.90112C195.588 1.88283 195.679 1.88617 195.77 1.9161C195.871 1.94937 195.843 1.97931 195.755 2.03918C195.544 2.18554 195.569 2.27534 195.839 2.3768C195.934 2.41173 196.009 2.44334 196.031 2.4949C196.044 2.52151 196.031 2.55644 196.059 2.5764C196.213 2.68783 196.427 2.75936 196.665 2.81258C196.895 2.76767 197.052 2.8425 197.228 2.90238C197.366 2.94895 197.529 2.90904 197.677 2.89241C197.843 2.87412 197.981 2.88742 198.101 2.94896C198.186 2.9922 198.273 3.01215 198.377 3.00383C198.584 2.98554 198.795 2.9739 198.999 2.94729C199.175 2.92401 199.307 2.95727 199.417 3.01382C199.555 3.08534 199.709 3.0371 199.853 3.04708C200.048 3.05872 200.145 3.20674 200.4 3.16683C200.55 3.14354 200.708 3.13523 200.865 3.12858C200.905 3.12691 200.956 3.15519 200.99 3.17515C201.157 3.26663 201.351 3.26163 201.565 3.23502C201.713 3.21673 201.857 3.2001 202.001 3.26331C202.24 3.36975 202.504 3.4629 202.755 3.56103C202.79 3.63754 202.765 3.72733 202.944 3.77224C203.038 3.79552 203.126 3.83046 203.198 3.86872C203.286 3.91363 203.368 3.92527 203.481 3.91363C203.685 3.89034 203.898 3.88534 204.099 3.8554C204.285 3.82879 204.401 3.88369 204.514 3.93525C204.605 3.97683 204.69 3.99678 204.8 3.96684C204.913 3.93857 204.995 3.95686 205.086 4.00176C205.214 4.0633 205.224 4.05666 205.651 4.07496C205.695 4.07662 205.748 4.10155 205.773 4.12317C205.786 4.13482 205.758 4.1681 205.736 4.18473C205.707 4.20469 205.663 4.22796 205.623 4.23295C205.158 4.2762 204.69 4.31445 204.225 4.35769C204.178 4.36268 204.128 4.37434 204.093 4.39097C204.055 4.40927 204.008 4.4342 204.008 4.45748C204.008 4.47411 204.071 4.49408 204.115 4.50572C204.253 4.54398 204.417 4.48577 204.552 4.52901C204.643 4.55728 204.718 4.59719 204.809 4.6238C204.847 4.63545 204.907 4.63379 204.954 4.63046C205.111 4.61882 205.265 4.60219 205.422 4.59221C205.466 4.59055 205.516 4.60719 205.557 4.6205C205.858 4.72029 205.858 4.72028 206.119 4.69866C206.223 4.69035 206.332 4.66539 206.43 4.67537C206.524 4.68535 206.606 4.73026 206.69 4.75853C206.866 4.81841 207.033 4.87662 207.045 5.00635C207.052 5.05625 207.155 5.09948 207.259 5.10281C207.359 5.10614 207.466 5.08786 207.57 5.07788C207.815 5.05792 207.815 5.05792 208.132 5.15938C208.22 5.18765 208.314 5.19097 208.427 5.17434C208.471 5.16769 208.525 5.17435 208.572 5.18266C208.726 5.20761 208.726 5.2392 208.625 5.29908C208.484 5.38723 208.496 5.39555 208.892 5.4704C209.043 5.49867 209.159 5.5519 209.285 5.59847C209.489 5.67331 209.486 5.6733 209.351 5.77143C209.319 5.79305 209.291 5.81634 209.26 5.83962C209.168 5.90449 209.096 5.97434 208.908 5.98099C208.7 5.98765 208.493 6.01427 208.286 6.03256C208.085 6.05086 208.032 6.09076 208.05 6.20386C208.072 6.34024 208.113 6.35522 208.474 6.35355C208.578 6.35355 208.669 6.36685 208.748 6.41176C208.71 6.46498 208.641 6.50657 208.54 6.51654C208.283 6.54149 208.022 6.56312 207.765 6.58474C207.557 6.60304 207.35 6.62133 207.143 6.63962C207.014 6.65126 206.932 6.73776 206.967 6.83422C206.986 6.88911 207.001 6.944 207.017 6.99888C207.052 7.10865 207.118 7.13694 207.328 7.13195C207.381 7.13028 207.432 7.11697 207.482 7.12029C207.686 7.13194 207.783 7.26998 208.028 7.2417C208.232 7.21842 208.446 7.21343 208.647 7.1835C208.832 7.15688 208.936 7.21678 209.065 7.26168C209.109 7.27665 209.156 7.30824 209.194 7.30657C209.454 7.28828 209.715 7.27 209.969 7.23839C210.089 7.22509 210.161 7.23506 210.255 7.27498C210.481 7.37145 210.488 7.36646 210.824 7.33652C211.069 7.31323 211.072 7.31656 211.386 7.41801C211.474 7.44629 211.568 7.44628 211.681 7.43298C211.829 7.41635 211.982 7.38974 212.136 7.41469C212.183 7.42134 212.243 7.4413 212.259 7.46293C212.268 7.47789 212.224 7.51449 212.187 7.52613C211.91 7.61262 211.587 7.59765 211.285 7.63258C211.191 7.64256 211.097 7.61095 211.018 7.56604C210.937 7.52114 210.849 7.50285 210.742 7.51116C210.535 7.52946 210.324 7.5411 210.12 7.56771C209.944 7.59099 209.822 7.55274 209.699 7.50118C209.658 7.48454 209.611 7.45294 209.57 7.4546C209.106 7.48787 208.638 7.52114 208.176 7.56771C207.991 7.58767 207.884 7.53445 207.758 7.48954C207.714 7.47457 207.67 7.44297 207.63 7.44463C207.473 7.45128 207.319 7.46958 207.162 7.48288C206.59 7.53278 206.021 7.58268 205.45 7.62925C205.412 7.63257 205.365 7.59764 205.321 7.58267C205.236 7.55273 205.148 7.52446 205.06 7.49618C204.903 7.50949 204.75 7.52612 204.592 7.5361C204.479 7.54275 204.379 7.56604 204.363 7.62925C204.354 7.67083 204.457 7.70907 204.567 7.70575C204.674 7.70242 204.781 7.68246 204.869 7.70408C205.305 7.81053 205.305 7.8122 205.579 7.79057C205.817 7.77062 205.792 7.75398 206.003 7.84545C206.094 7.88537 206.175 7.90867 206.279 7.89869C206.537 7.8754 206.797 7.85211 207.058 7.83215C207.099 7.82883 207.152 7.84547 207.193 7.85877C207.501 7.95856 207.501 7.96189 207.755 7.93694C208.088 7.907 208.101 7.89868 208.324 8.00014C208.478 8.07 208.619 8.02176 208.766 8.01843C208.936 8.0833 209.121 8.14152 209.275 8.2147C209.457 8.30119 209.649 8.2862 209.856 8.26126C210.01 8.24296 210.161 8.23631 210.287 8.3045C210.406 8.3677 210.55 8.37437 210.714 8.35774C210.861 8.34277 211.012 8.31116 211.166 8.34775C211.207 8.35773 211.27 8.38268 211.266 8.39765C211.263 8.42094 211.222 8.4542 211.182 8.46418C210.893 8.53238 210.575 8.53071 210.271 8.56231C210.23 8.5673 210.177 8.549 210.136 8.53569C210.048 8.50575 209.963 8.47083 209.878 8.43923C209.724 8.44921 209.567 8.45253 209.417 8.47249C209.3 8.48746 209.212 8.48581 209.128 8.44589C209.049 8.4093 208.964 8.36438 208.87 8.35274C208.776 8.3411 208.666 8.36605 208.562 8.37603C208.459 8.38601 208.339 8.38101 208.258 8.40762C208.176 8.43423 208.126 8.49245 208.072 8.53902C208.013 8.59058 207.931 8.60722 207.812 8.61221C207.702 8.6172 207.614 8.61054 207.532 8.56397C207.498 8.54401 207.45 8.52904 207.403 8.51573C207.359 8.50409 207.309 8.48579 207.268 8.48912C206.8 8.52737 206.336 8.56897 205.868 8.60888C205.635 8.62884 205.638 8.62883 205.155 8.5307C205.111 8.52238 205.057 8.51074 205.013 8.51407C204.753 8.53403 204.495 8.55732 204.234 8.5806C203.971 8.60389 203.974 8.60056 203.525 8.49578C203.443 8.47582 203.324 8.50243 203.226 8.49911C203.022 8.49079 202.922 8.35108 202.683 8.37769C202.479 8.40098 202.265 8.40596 202.061 8.4359C201.876 8.46251 201.769 8.40431 201.643 8.3594C201.599 8.34443 201.552 8.31116 201.515 8.31449C201.047 8.35108 200.582 8.39266 199.96 8.39765C199.806 8.39765 199.875 8.43258 199.976 8.44423C200.12 8.46252 200.167 8.42759 200.089 8.36107C200.032 8.3145 199.951 8.29119 199.885 8.30284C199.85 8.30949 199.806 8.3411 199.96 8.39765C200.123 8.46085 200.114 8.49577 200.142 8.51573C200.211 8.56397 200.309 8.58392 200.409 8.57727C200.566 8.56563 200.72 8.549 200.877 8.53902C200.921 8.53569 200.974 8.54734 201.015 8.56064C201.361 8.66376 201.364 8.67042 201.731 8.63051C201.848 8.61886 201.932 8.61886 202.023 8.65046C202.149 8.69371 202.24 8.76688 202.432 8.74359C202.686 8.71199 202.947 8.69371 203.207 8.67542C203.248 8.67209 203.292 8.70203 203.339 8.71533C203.468 8.75525 203.562 8.83009 203.754 8.79849C203.902 8.77354 204.062 8.76688 204.219 8.76189C204.26 8.76022 204.322 8.78684 204.341 8.80846C204.379 8.84671 204.332 8.89163 204.225 8.92323C204.181 8.93654 204.121 8.93321 204.071 8.9382C203.864 8.95649 203.657 8.97644 203.449 8.99141C203.339 8.99973 203.236 9.02469 203.223 9.08623C203.214 9.12781 203.327 9.16439 203.434 9.16106C203.591 9.15607 203.748 9.14277 203.898 9.12115C204.165 9.08456 204.398 9.09453 204.614 9.19931C204.768 9.27249 204.759 9.2459 204.922 9.46211C204.963 9.517 205.086 9.52198 205.192 9.51866C205.45 9.51034 205.569 9.5353 205.547 9.58685C205.519 9.65006 205.428 9.67 205.312 9.67832C205.104 9.69163 204.897 9.71326 204.69 9.73155C204.64 9.73654 204.583 9.74651 204.536 9.74319C204.489 9.73986 204.445 9.71991 204.404 9.70494C204.316 9.67334 204.241 9.62509 204.147 9.61345C204.052 9.60181 203.942 9.62676 203.839 9.63674C203.735 9.64506 203.625 9.67 203.531 9.65836C203.437 9.64672 203.358 9.59683 203.273 9.5669C203.233 9.55193 203.182 9.52863 203.142 9.53029C202.934 9.5436 202.727 9.56523 202.52 9.58186C202.265 9.60348 202.265 9.60348 201.957 9.50036C201.87 9.47043 201.778 9.4721 201.662 9.4854C201.411 9.51201 201.408 9.50701 200.949 9.41054C200.905 9.40056 200.852 9.38893 200.808 9.39392C200.34 9.43217 199.875 9.47375 199.41 9.51366C199.012 9.54859 199.012 9.5486 198.792 9.71493C198.628 9.838 198.625 9.838 198.785 9.89455C198.914 9.94112 199.03 10.0093 199.172 10.0343C199.304 10.0575 199.467 9.98269 199.611 10.0592C199.684 10.0975 199.778 10.139 199.869 10.1457C200.013 10.154 200.167 10.1058 200.305 10.1789C200.375 10.2155 200.478 10.2538 200.566 10.2555C200.72 10.2588 200.877 10.2322 201.031 10.2205C201.078 10.2172 201.131 10.2172 201.175 10.2255C201.223 10.2355 201.263 10.2555 201.304 10.2721C201.43 10.3286 201.565 10.3553 201.728 10.327C201.995 10.2804 202.234 10.3037 202.441 10.4101C202.469 10.4251 202.539 10.4268 202.582 10.4201C202.696 10.4035 202.793 10.4018 202.878 10.4334C202.912 10.4467 202.962 10.47 202.956 10.485C202.947 10.5099 202.909 10.5432 202.868 10.5515C202.573 10.6081 202.256 10.6147 201.951 10.6447C201.91 10.648 201.86 10.6264 201.819 10.6114C201.731 10.5814 201.656 10.5316 201.562 10.5199C201.468 10.5083 201.358 10.5299 201.254 10.5382C201.15 10.5465 201.04 10.5715 200.946 10.5615C200.852 10.5499 200.764 10.5083 200.689 10.4717C200.601 10.4301 200.516 10.4251 200.4 10.4418C200.249 10.4634 200.092 10.4667 199.938 10.4783C199.853 10.4467 199.768 10.4118 199.681 10.3819C199.64 10.3669 199.589 10.3486 199.545 10.3503C199.338 10.3636 199.131 10.3835 198.924 10.4018C198.716 10.4201 198.716 10.4201 198.365 10.317C198.324 10.3054 198.27 10.2921 198.226 10.2954C197.966 10.3153 197.708 10.3403 197.447 10.3602C197.347 10.3685 197.256 10.3453 197.174 10.3004C197.096 10.2555 197.001 10.2305 196.904 10.2388C196.49 10.2737 196.075 10.307 195.66 10.3486C195.494 10.3652 195.353 10.3503 195.24 10.2904C195.108 10.2222 194.96 10.2388 194.806 10.2521C194.458 10.2854 194.454 10.2837 194.231 10.1989C194.187 10.1823 194.144 10.1507 194.103 10.1523C193.741 10.1773 193.377 10.2006 193.019 10.2405C192.831 10.2621 192.73 10.2039 192.605 10.1607C192.561 10.1457 192.514 10.1141 192.476 10.1174C192.215 10.1357 191.954 10.1523 191.7 10.1856C191.446 10.2189 191.348 10.0642 191.157 10.0659C190.896 10.0675 190.638 10.1058 190.381 10.1291C190.174 10.1474 189.966 10.1656 189.759 10.1839C189.552 10.2022 189.345 10.2172 189.137 10.2388C189.027 10.2505 188.946 10.2355 188.855 10.1939C188.738 10.139 188.6 10.0958 188.475 10.0459C188.283 9.97439 188.283 9.97438 188.051 9.99433C188 9.99932 187.947 10.0026 187.897 10.0076C187.517 10.0442 187.517 10.0409 187.033 9.93613C187.011 9.93114 186.954 9.94944 186.933 9.96274C186.867 10.006 186.807 10.0525 186.747 10.0975C186.662 10.0708 186.559 10.0559 186.502 10.0176C186.342 9.90951 186.091 10.0575 185.928 9.95109C185.868 9.91117 185.764 9.87624 185.67 9.86626C185.573 9.85628 185.463 9.87957 185.362 9.88955C185.101 9.9145 185.101 9.91284 184.878 10.0609C184.765 10.134 184.602 10.1207 184.455 10.1374C184.301 10.1557 184.153 10.1656 184.024 10.0975C183.908 10.0359 183.767 10.021 183.6 10.0409C183.396 10.0659 183.186 10.0808 182.978 10.0958C182.934 10.0991 182.881 10.0908 182.837 10.0808C182.357 9.9827 182.357 9.98104 182.124 10.0027C182.02 10.0126 181.914 10.016 181.813 10.0309C181.644 10.0575 181.515 10.0226 181.392 9.96938C181.352 9.95275 181.304 9.92116 181.264 9.92283C181.056 9.93114 180.852 9.94611 180.648 9.96108C180.491 9.97272 180.334 9.97937 180.183 10.0027C179.932 10.0409 179.809 9.93279 179.637 9.88289C179.379 9.90451 179.119 9.91949 178.861 9.94942C178.742 9.96273 178.663 9.95775 178.572 9.91783C178.456 9.86794 178.349 9.81139 178.161 9.83634C177.909 9.8696 177.646 9.88125 177.388 9.90121C177.215 9.84965 177.09 9.74485 176.842 9.7831C176.691 9.80639 176.531 9.81138 176.377 9.82468C176.169 9.84298 175.962 9.85962 175.755 9.87958C175.532 9.89954 175.535 9.89455 175.193 9.79642C174.995 9.73821 174.791 9.80307 174.59 9.81305C174.433 9.82137 174.354 9.89787 174.392 9.996C174.43 10.0941 174.345 10.1706 174.2 10.1839C173.839 10.2155 173.475 10.2488 173.114 10.2771C173.07 10.2804 173.016 10.2688 172.975 10.2571C172.589 10.1523 172.589 10.154 172.416 10.169C172.159 10.1939 171.895 10.2072 171.641 10.2388C171.465 10.2604 171.336 10.2255 171.223 10.169C171.135 10.1257 171.053 10.1158 170.94 10.1257C169.697 10.2372 168.453 10.3403 167.212 10.455C167.027 10.4717 166.92 10.4235 166.795 10.3785C166.751 10.3636 166.71 10.332 166.666 10.332C166.562 10.332 166.458 10.3469 166.355 10.3569C165.89 10.3968 165.425 10.4451 164.957 10.475C164.759 10.4883 164.706 10.5648 164.621 10.628C164.555 10.6763 164.48 10.6962 164.364 10.7029C164.251 10.7095 164.169 10.7012 164.081 10.658C163.968 10.6014 163.839 10.5665 163.663 10.5898C163.459 10.6164 163.252 10.628 163.041 10.6463C162.935 10.6546 162.853 10.6846 162.818 10.7444C162.812 10.7544 162.878 10.7794 162.916 10.7944C163.041 10.8442 163.161 10.9025 163.302 10.9374C163.447 10.9723 163.604 10.9324 163.754 10.9224C163.808 10.9191 163.858 10.9091 163.908 10.9108C163.955 10.9124 164.012 10.9208 164.047 10.9357C164.21 11.0106 164.382 11.0621 164.609 11.0172C164.803 11.0388 164.904 11.1769 165.152 11.1403C165.303 11.1187 165.46 11.1087 165.617 11.1004C165.658 11.0987 165.702 11.1287 165.746 11.1436C165.871 11.1852 165.972 11.2517 166.16 11.2235C166.361 11.1935 166.575 11.1885 166.779 11.1652C166.892 11.1519 166.974 11.1636 167.061 11.2068C167.175 11.2617 167.303 11.3033 167.479 11.2767C167.63 11.2534 167.79 11.2484 167.944 11.2334C168.145 11.2151 168.145 11.2168 168.503 11.3199C168.544 11.3316 168.597 11.3449 168.641 11.3415C168.902 11.3216 169.159 11.2966 169.42 11.2767C169.521 11.2684 169.618 11.29 169.687 11.3382C169.715 11.3582 169.706 11.3914 169.715 11.4197C169.197 11.4646 168.679 11.5029 168.164 11.5578C167.969 11.5794 167.881 11.5112 167.752 11.4729C167.708 11.4596 167.661 11.4314 167.621 11.4347C167.256 11.463 166.895 11.4929 166.534 11.5295C166.421 11.5411 166.336 11.5345 166.251 11.4862C166.035 11.3582 165.771 11.428 165.526 11.4463C165.337 11.4596 165.278 11.5112 165.3 11.621C165.328 11.7507 165.441 11.7906 165.73 11.7673C165.834 11.759 165.937 11.7474 166.041 11.7407C166.141 11.7341 166.232 11.7557 166.314 11.8006C166.393 11.8455 166.487 11.8688 166.584 11.8621C166.791 11.8472 167.002 11.8322 167.203 11.8072C167.369 11.7873 167.507 11.8039 167.624 11.8655C167.752 11.9336 167.903 11.9187 168.054 11.9037C168.406 11.8704 168.409 11.8721 168.629 11.9553C168.673 11.9719 168.717 12.0035 168.758 12.0018C169.119 11.9769 169.483 11.9553 169.838 11.9154C170.023 11.8954 170.13 11.9486 170.252 11.9919C170.296 12.0068 170.34 12.0401 170.381 12.0368C170.642 12.0185 170.903 12.0002 171.157 11.9686C171.276 11.9536 171.348 11.9636 171.446 12.0035C171.678 12.1016 171.685 12.0983 172.014 12.0667C172.115 12.0567 172.225 12.0384 172.319 12.0517C172.413 12.065 172.489 12.1133 172.577 12.1432C172.617 12.1565 172.668 12.1748 172.712 12.1715C172.919 12.1582 173.126 12.1382 173.333 12.1199C173.528 12.1016 173.528 12.1033 173.892 12.2064C174.04 12.2497 174.194 12.2131 174.342 12.1998C174.502 12.1848 174.646 12.1848 174.769 12.2497C174.891 12.3145 175.039 12.3112 175.196 12.2979C175.343 12.2846 175.494 12.248 175.645 12.2929C175.99 12.396 175.99 12.3977 176.204 12.3777C176.515 12.3494 176.823 12.3228 177.137 12.2979C177.178 12.2946 177.231 12.3145 177.272 12.3278C177.36 12.3578 177.435 12.4077 177.529 12.4193C177.624 12.4326 177.734 12.4126 177.834 12.4027C178.157 12.3711 178.179 12.3594 178.396 12.4692C178.578 12.559 178.805 12.4293 178.974 12.5324C179.071 12.5906 179.203 12.6372 179.385 12.6089C179.536 12.5856 179.693 12.579 179.85 12.5657C180.098 12.544 180.098 12.5457 180.412 12.6455C180.453 12.6588 180.507 12.6754 180.548 12.6721C180.755 12.6588 180.965 12.6472 181.166 12.6172C181.402 12.5823 181.553 12.6455 181.728 12.707C181.867 12.7553 182.03 12.7154 182.178 12.6987C182.338 12.6821 182.482 12.6871 182.602 12.7519C182.727 12.8185 182.875 12.8102 183.032 12.7968C183.179 12.7852 183.33 12.7469 183.481 12.7935C183.804 12.8966 183.804 12.8966 184.04 12.8767C184.247 12.8584 184.455 12.8384 184.662 12.8251C184.703 12.8218 184.753 12.8434 184.794 12.8584C184.882 12.8883 184.957 12.9382 185.051 12.9499C185.145 12.9615 185.255 12.9399 185.359 12.9316C185.463 12.9233 185.573 12.8983 185.667 12.9083C185.761 12.9183 185.849 12.9599 185.924 12.9964C186.012 13.0397 186.094 13.0447 186.213 13.028C186.364 13.0064 186.521 13.0014 186.675 12.9898C186.76 13.0214 186.848 13.053 186.929 13.0879C187.014 13.1245 187.105 13.1212 187.221 13.1095C187.608 13.0696 187.611 13.0746 187.934 13.1777C188.082 13.2243 188.236 13.186 188.384 13.1744C188.541 13.1611 188.688 13.1544 188.811 13.221C188.93 13.2842 189.078 13.2925 189.235 13.2725C189.335 13.2592 189.442 13.2509 189.546 13.2459C189.593 13.2443 189.649 13.2509 189.684 13.2642C189.85 13.3341 190.014 13.3973 190.243 13.3524C190.444 13.3657 190.544 13.5021 190.786 13.4755C190.99 13.4522 191.204 13.4472 191.405 13.4172C191.59 13.3906 191.722 13.4372 191.816 13.4954C191.986 13.5985 192.225 13.4588 192.394 13.5603C192.492 13.6185 192.617 13.6651 192.806 13.6401C193.013 13.6135 193.079 13.6484 193.138 13.7532C193.173 13.8131 193.167 13.8613 193.104 13.9079C193.041 13.9561 192.972 13.9478 192.872 13.8929C192.755 13.8314 192.617 13.8197 192.451 13.833C192.287 13.8463 192.187 13.7599 192.052 13.7266C191.917 13.6917 191.757 13.7499 191.615 13.705C191.282 13.6002 191.282 13.6002 191.056 13.6202C190.902 13.6335 190.742 13.6401 190.591 13.6634C190.412 13.6917 190.296 13.6401 190.174 13.5935C190.13 13.5769 190.086 13.5453 190.048 13.547C189.687 13.5719 189.323 13.5952 188.965 13.6368C188.776 13.6584 188.676 13.5985 188.55 13.5569C188.506 13.542 188.459 13.512 188.421 13.5154C188.11 13.5387 187.802 13.5686 187.492 13.5969C187.432 13.6418 187.366 13.685 187.309 13.7332C187.25 13.7831 187.168 13.8048 187.049 13.8031C186.851 13.8031 186.656 13.873 186.458 13.7848C186.254 13.695 186.238 13.7 186.041 13.7216C185.789 13.7499 185.522 13.7432 185.287 13.8081C185.246 13.8197 185.202 13.8513 185.202 13.8746C185.199 13.8896 185.265 13.9112 185.306 13.9245C185.444 13.9644 185.604 13.9062 185.742 13.9478C185.833 13.9744 185.909 14.0143 186 14.0426C186.037 14.0542 186.094 14.0526 186.144 14.0509C186.198 14.0493 186.248 14.0376 186.298 14.0393C186.345 14.0409 186.396 14.0509 186.433 14.0659C186.606 14.1291 186.788 14.1873 186.942 14.2622C187.093 14.3353 187.234 14.2854 187.385 14.2821C187.988 14.3985 187.988 14.4002 188.393 14.3636C188.493 14.3553 188.597 14.3453 188.701 14.347C188.745 14.347 188.786 14.3769 188.829 14.3935C188.955 14.4434 189.074 14.4883 189.25 14.4617C189.401 14.4384 189.561 14.4335 189.715 14.4185C189.922 14.4002 189.922 14.4002 190.274 14.505C190.362 14.5316 190.456 14.5283 190.569 14.515C190.667 14.5033 190.767 14.5283 190.836 14.5765C190.865 14.5965 190.855 14.6297 190.865 14.658C190.554 14.6846 190.24 14.7029 189.938 14.7428C189.743 14.7678 189.655 14.6963 189.527 14.658C189.483 14.6447 189.436 14.6164 189.395 14.6197C189.087 14.6447 188.779 14.673 188.471 14.7062C188.434 14.7095 188.387 14.7478 188.384 14.7711C188.377 14.8143 188.456 14.8559 188.569 14.8542C188.72 14.8526 188.867 14.8243 189.002 14.8925C189.115 14.9524 189.257 14.979 189.423 14.9524C189.524 14.9374 189.63 14.9374 189.731 14.9241C189.998 14.8842 190.24 14.8925 190.441 15.0056C190.595 15.0355 190.745 15.0073 190.893 14.9923C191.003 14.9807 191.11 14.969 191.188 15.0006C191.355 15.0671 191.518 15.1337 191.747 15.0888C191.995 15.1353 192.184 15.2335 192.391 15.3133C192.488 15.3515 192.564 15.3732 192.677 15.3482C192.724 15.3383 192.78 15.3382 192.831 15.3333C192.934 15.3249 193.044 15.3 193.138 15.31C193.233 15.3216 193.311 15.3698 193.396 15.3998C193.437 15.4148 193.484 15.4397 193.525 15.438C193.682 15.4297 193.836 15.4131 193.99 15.3998C194.143 15.3881 194.297 15.3765 194.451 15.3649C194.58 15.4081 194.712 15.4514 194.841 15.4946C195.048 15.4763 195.255 15.458 195.459 15.4414C195.689 15.4214 195.689 15.4231 196.018 15.5262C196.166 15.5728 196.323 15.5428 196.464 15.5212C196.7 15.4863 196.857 15.5495 197.024 15.616C197.058 15.6293 197.121 15.6376 197.162 15.631C197.325 15.6077 197.466 15.626 197.586 15.6875C197.67 15.7308 197.755 15.7507 197.859 15.7424C198.22 15.7108 198.581 15.6775 198.942 15.6493C198.986 15.6459 199.037 15.6609 199.077 15.6742C199.398 15.7757 199.401 15.7807 199.636 15.7541C199.847 15.7308 200.042 15.7208 200.208 15.8123C200.243 15.8322 200.296 15.8605 200.334 15.8588C200.591 15.8422 200.852 15.8239 201.106 15.7956C201.223 15.7823 201.304 15.7873 201.395 15.8256C201.512 15.8738 201.615 15.932 201.807 15.9104C202.338 15.8489 202.341 15.8588 202.969 15.9736C203.013 15.9819 203.072 15.9686 203.123 15.962C203.229 15.9453 203.308 15.9686 203.402 16.0069C203.613 16.0934 203.619 16.0884 203.82 16.0701C203.974 16.0551 204.134 16.0518 204.285 16.0268C204.517 15.9902 204.671 16.0551 204.844 16.1166C204.982 16.1649 205.142 16.125 205.29 16.11C205.45 16.0933 205.594 16.0983 205.714 16.1615C205.795 16.2048 205.883 16.2281 205.987 16.2198C206.348 16.1898 206.709 16.1565 207.071 16.1266C207.114 16.1233 207.168 16.1366 207.209 16.1482C207.567 16.2514 207.567 16.2563 207.922 16.2181C208.035 16.2065 208.129 16.2031 208.214 16.2381C208.295 16.2713 208.383 16.3029 208.468 16.3345C208.622 16.3229 208.779 16.3195 208.93 16.2996C209.046 16.2846 209.128 16.2913 209.219 16.3262C209.338 16.3711 209.439 16.4493 209.627 16.411C209.724 16.3927 209.837 16.3977 209.935 16.3811C210.051 16.3595 210.13 16.3728 210.221 16.416C210.334 16.4676 210.45 16.5208 210.632 16.4942C210.833 16.4642 211.047 16.4593 211.251 16.436C211.364 16.4227 211.442 16.436 211.533 16.4792C211.646 16.5341 211.775 16.569 211.951 16.5474C212.309 16.5058 212.312 16.5141 212.661 16.6189C212.749 16.6455 212.843 16.6422 212.956 16.6289C213.053 16.6173 213.154 16.6422 213.223 16.6904C213.289 16.7437 213.283 16.7769 213.289 16.8052ZM185.303 1.80466C185.199 1.81298 185.095 1.82296 184.944 1.67826C184.935 1.65331 184.941 1.62338 184.919 1.60175C184.869 1.55685 184.791 1.52525 184.696 1.52026C184.527 1.51361 184.323 1.57014 184.326 1.61339C184.329 1.64998 184.382 1.68157 184.486 1.71151C184.53 1.72315 184.564 1.74312 184.605 1.75642C184.725 1.79468 184.819 1.86953 184.992 1.83128C184.976 1.77972 184.96 1.72816 184.992 1.83128C184.976 1.89448 185.023 1.93939 185.136 1.95768C185.167 1.96267 185.215 1.95934 185.24 1.94936C185.337 1.91277 185.353 1.86288 185.281 1.73149C185.268 1.75311 185.277 1.79135 185.306 1.80133C185.334 1.81131 185.403 1.80301 185.438 1.79136C185.525 1.75976 185.569 1.71818 185.548 1.68325C185.535 1.66495 185.475 1.64167 185.438 1.64167C185.372 1.64167 185.312 1.67826 185.303 1.80466ZM210.698 21.093C210.469 21.1246 210.205 21.1129 209.976 21.1778C209.935 21.1894 209.894 21.2194 209.891 21.2427C209.888 21.2576 209.951 21.2793 209.988 21.2909C210.073 21.3175 210.167 21.3092 210.277 21.3009C210.444 21.2892 210.541 21.3657 210.67 21.404C210.711 21.4156 210.764 21.4239 210.808 21.4206C211.062 21.4007 211.313 21.3791 211.568 21.3558C211.612 21.3508 211.659 21.3391 211.697 21.3242C211.822 21.2759 211.81 21.2443 211.687 21.2077C211.552 21.1678 211.445 21.1013 211.307 21.0697C211.109 21.0248 210.908 21.0847 210.698 21.093ZM192.862 22.3071C192.708 22.3204 192.557 22.3337 192.404 22.347C192.353 22.352 192.3 22.3537 192.253 22.3603C192.155 22.372 192.083 22.4069 192.036 22.4618C192.108 22.505 192.196 22.53 192.294 22.525C192.448 22.515 192.598 22.4934 192.752 22.4884C192.919 22.4818 193.016 22.5566 193.145 22.5949C193.186 22.6065 193.236 22.6082 193.283 22.6098C193.515 22.6165 193.657 22.53 193.613 22.4086C193.581 22.3138 193.462 22.2572 193.318 22.2689C193.167 22.2805 193.013 22.2938 192.862 22.3071ZM211.772 18.6347C211.81 18.6065 211.851 18.5865 211.869 18.5616C211.926 18.4767 211.904 18.4135 211.8 18.347C211.675 18.2655 211.521 18.3204 211.379 18.3287C211.345 18.3304 211.307 18.3653 211.288 18.3869C211.276 18.4019 211.276 18.4335 211.295 18.4418C211.449 18.5083 211.612 18.5699 211.772 18.6347ZM184.527 13.7216C184.376 13.7349 184.222 13.7449 184.071 13.7632C184.034 13.7682 183.999 13.7998 183.977 13.8214C183.936 13.8613 183.98 13.9162 184.109 13.9212C184.257 13.9278 184.411 13.8996 184.564 13.8863C184.759 13.8696 184.875 13.8081 184.803 13.7549C184.734 13.7033 184.64 13.6933 184.527 13.7216ZM19.2052 10.1673C19.3057 10.159 19.4093 10.1523 19.5098 10.1407C19.604 10.1291 19.6763 10.0925 19.7234 10.0376C19.6449 9.99434 19.5569 9.97105 19.4596 9.97604C19.3057 9.98602 19.1549 9.99933 19.0042 10.016C18.91 10.0259 18.8189 10.0625 18.7969 10.1191C18.7749 10.1623 18.9853 10.1873 19.2052 10.1673ZM171.245 9.91117C171.286 9.92614 171.327 9.95608 171.367 9.95608C171.468 9.95608 171.572 9.9461 171.666 9.92947C171.707 9.92281 171.738 9.89288 171.757 9.86959C171.769 9.85462 171.766 9.82802 171.747 9.81471C171.656 9.73488 171.292 9.76315 171.232 9.85463C171.226 9.87126 171.242 9.89288 171.245 9.91117ZM161.336 0.803403C161.345 0.830014 161.349 0.856622 161.361 0.883234C161.386 0.93313 161.455 0.969728 161.556 0.994677C161.634 0.953096 161.675 0.906533 161.672 0.856637C161.669 0.830025 161.66 0.803397 161.647 0.776786C161.622 0.726889 161.553 0.690311 161.452 0.665363C161.374 0.70528 161.336 0.751843 161.336 0.803403ZM219.03 22.5965C219.002 22.6181 218.974 22.6398 218.942 22.6597C219.027 22.708 219.106 22.7229 219.165 22.6963C219.203 22.6797 219.225 22.6547 219.253 22.6331C219.168 22.5849 219.093 22.5716 219.03 22.5965ZM217.077 22.8227C217.117 22.8377 217.155 22.8576 217.199 22.8676C217.271 22.8843 217.337 22.856 217.388 22.7961C217.347 22.7811 217.309 22.7612 217.265 22.7512C217.193 22.7346 217.127 22.7628 217.077 22.8227ZM218.314 22.5184C218.292 22.5583 218.336 22.5915 218.452 22.6198C218.481 22.5982 218.518 22.5782 218.537 22.5549C218.568 22.5167 218.515 22.4818 218.402 22.4552C218.371 22.4751 218.342 22.4967 218.314 22.5184ZM211.684 20.7254C211.662 20.7653 211.706 20.7986 211.822 20.8269C211.851 20.8052 211.888 20.7853 211.907 20.762C211.939 20.7237 211.885 20.6888 211.772 20.6622C211.741 20.6822 211.712 20.7038 211.684 20.7254ZM202.652 8.95649C202.623 8.97811 202.595 8.99973 202.564 9.01969C202.648 9.06793 202.727 9.08289 202.787 9.05628C202.824 9.03965 202.846 9.0147 202.875 8.99308C202.79 8.94484 202.714 8.93154 202.652 8.95649ZM193.999 2.71277C194.074 2.72441 194.137 2.70114 194.191 2.6396C194.15 2.62463 194.112 2.60467 194.068 2.59469C193.996 2.57806 193.93 2.60634 193.88 2.66622C193.921 2.68285 193.961 2.6978 193.999 2.71277ZM189.404 2.32192C189.376 2.34354 189.348 2.36516 189.316 2.38512C189.401 2.43336 189.48 2.44832 189.539 2.42171C189.577 2.40508 189.599 2.38013 189.627 2.35851C189.542 2.31027 189.467 2.29863 189.404 2.32192ZM158.246 0.801738C158.217 0.82336 158.189 0.844982 158.158 0.864941C158.243 0.913174 158.321 0.928138 158.381 0.901527C158.418 0.884895 158.44 0.859946 158.469 0.838324C158.384 0.79009 158.309 0.778453 158.246 0.801738ZM3.0998 14.3337C3.05897 14.3187 3.01818 14.3037 2.98049 14.2871C2.88941 14.332 2.86115 14.3736 2.9114 14.4052C2.94281 14.4251 2.98988 14.4368 3.03071 14.4518C3.12493 14.4069 3.14691 14.3669 3.0998 14.3337Z" fill="#FFE492"/>
</svg>
