<svg width="147" height="21" viewBox="0 0 147 21" fill="none" xmlns="http://www.w3.org/2000/svg">
<path d="M138.018 11.1757C137.816 11.1928 137.613 11.2046 137.416 11.2302C137.288 11.2462 137.233 11.1992 137.148 11.1747C137.119 11.1661 137.089 11.1491 137.062 11.1512C136.863 11.1683 136.664 11.1875 136.465 11.2067C136.404 11.2483 136.365 11.3039 136.272 11.3241C136.18 11.3434 136.073 11.3434 135.971 11.353C135.837 11.3647 135.703 11.3765 135.569 11.3871C135.502 11.3925 135.447 11.4128 135.424 11.4512C135.42 11.4576 135.465 11.4736 135.489 11.4832C135.571 11.5152 135.65 11.5515 135.739 11.5761C135.825 11.5996 135.93 11.5612 136.022 11.5911C136.227 11.6583 136.229 11.6572 136.386 11.6444C136.52 11.6327 136.654 11.6199 136.788 11.6113C136.814 11.6092 136.845 11.6252 136.873 11.6338C136.959 11.6572 137.014 11.7106 137.14 11.6903C137.235 11.6743 137.341 11.6711 137.44 11.6626C137.524 11.6935 137.601 11.7288 137.69 11.7533C137.774 11.7768 137.798 11.795 137.753 11.8259C137.713 11.8548 137.656 11.8665 137.581 11.8686C137.514 11.8697 137.447 11.8793 137.379 11.8846C137.345 11.8879 137.312 11.89 137.28 11.8932C137.152 11.9049 137.152 11.9049 136.918 11.8366C136.827 11.8099 136.723 11.8473 136.636 11.8217C136.577 11.8046 136.526 11.779 136.469 11.7608C136.445 11.7533 136.406 11.7523 136.376 11.7544C136.274 11.7619 136.172 11.7672 136.075 11.7811C136.006 11.7907 135.965 11.8206 135.973 11.8505C135.975 11.8622 136.024 11.8793 136.052 11.8804C136.117 11.8825 136.186 11.8676 136.249 11.875C136.31 11.8825 136.373 11.9039 136.418 11.9274C136.51 11.9765 136.613 11.9327 136.701 11.9455C136.792 11.9594 136.867 12.0021 136.955 12.0277C136.977 12.0341 137.02 12.0234 137.054 12.0202C137.154 12.0128 137.253 12.0064 137.353 11.9989C137.436 12.0299 137.526 12.0576 137.601 12.0928C137.737 12.1569 137.883 12.1814 138.06 12.1505C138.16 12.1334 138.257 12.1398 138.337 12.1815C138.418 12.2242 138.511 12.2199 138.615 12.2113C138.711 12.2028 138.808 12.1793 138.906 12.2092C139.117 12.2754 139.119 12.2786 139.369 12.253C139.444 12.2455 139.501 12.2434 139.558 12.2679C139.611 12.2904 139.668 12.3096 139.723 12.3309C139.822 12.3234 139.924 12.316 140.023 12.3074C140.152 12.2957 140.223 12.3106 140.253 12.3704C140.271 12.4067 140.28 12.4398 140.324 12.4644C140.377 12.4943 140.434 12.4932 140.511 12.4847C140.584 12.4772 140.637 12.4654 140.668 12.427C140.68 12.411 140.704 12.396 140.727 12.3832C140.745 12.3736 140.773 12.3587 140.79 12.3608C140.82 12.3651 140.861 12.3768 140.871 12.3907C140.971 12.5199 140.971 12.521 141.072 12.5583C141.184 12.6 141.3 12.6373 141.401 12.6843C141.493 12.7259 141.584 12.7078 141.684 12.7078C141.759 12.7078 141.808 12.7356 141.802 12.7633C141.798 12.7793 141.769 12.8028 141.745 12.8049C141.546 12.8263 141.344 12.8444 141.143 12.8594C141.119 12.8615 141.088 12.8423 141.06 12.8327C141.003 12.8135 140.952 12.7836 140.891 12.7772C140.83 12.7708 140.759 12.7868 140.692 12.7921C140.625 12.7975 140.554 12.8114 140.493 12.8028C140.432 12.7943 140.383 12.7633 140.326 12.743C140.3 12.7334 140.263 12.7195 140.241 12.7227C140.093 12.7484 139.983 12.7131 139.877 12.6662C139.855 12.6565 139.816 12.6501 139.788 12.6523C139.552 12.6704 139.318 12.6918 139.083 12.7121C138.987 12.7206 138.91 12.6832 138.889 12.6202C138.879 12.585 138.859 12.5498 138.859 12.5145C138.859 12.4505 138.747 12.4153 138.666 12.4227C138.532 12.4334 138.396 12.4419 138.264 12.458C138.156 12.4708 138.064 12.458 137.991 12.4195C137.906 12.3758 137.808 12.3843 137.711 12.396C137.638 12.4046 137.617 12.4398 137.621 12.5284C137.625 12.6 137.591 12.6224 137.459 12.6341C137.292 12.6491 137.123 12.664 136.955 12.6758C136.928 12.6779 136.898 12.6597 136.871 12.6501C136.814 12.6309 136.764 12.6 136.703 12.5936C136.642 12.5861 136.571 12.6021 136.504 12.6085C136.436 12.6138 136.365 12.6288 136.304 12.6213C136.243 12.6138 136.193 12.5818 136.138 12.5615C136.111 12.5519 136.079 12.538 136.052 12.5402C135.918 12.5487 135.784 12.5615 135.65 12.5733C135.5 12.5861 135.5 12.5861 135.286 12.5199C135.189 12.49 135.091 12.5135 134.996 12.522C134.894 12.5306 134.798 12.5348 134.719 12.4921C134.666 12.4644 134.607 12.4473 134.544 12.4526C134.376 12.4654 134.209 12.4815 134.04 12.4943C134.012 12.4964 133.973 12.4911 133.951 12.4815C133.843 12.4366 133.738 12.4014 133.587 12.4238C133.457 12.443 133.317 12.4441 133.187 12.4622C133.116 12.4718 133.083 12.506 133.097 12.5327C133.106 12.5466 133.148 12.5626 133.177 12.5626C133.242 12.5637 133.313 12.5476 133.374 12.5541C133.5 12.5669 133.563 12.6565 133.727 12.632C133.825 12.617 133.927 12.6117 134.028 12.6074C134.055 12.6064 134.083 12.6267 134.111 12.6373C134.193 12.6662 134.264 12.7035 134.382 12.6843C134.479 12.6694 134.583 12.6651 134.683 12.6566C134.841 12.6427 134.841 12.6437 135.046 12.7089C135.144 12.7398 135.241 12.7153 135.337 12.7078C135.408 12.7025 135.475 12.6918 135.532 12.7067C135.619 12.7291 135.682 12.7804 135.79 12.7772C135.892 12.774 135.991 12.759 136.093 12.7537C136.156 12.7505 136.215 12.7676 136.266 12.7964C136.319 12.8252 136.375 12.838 136.445 12.8316C136.544 12.8231 136.646 12.8124 136.747 12.8071C136.776 12.806 136.808 12.8156 136.835 12.8242C136.892 12.8434 136.947 12.8658 137.001 12.8861C137.101 12.8797 137.203 12.8775 137.3 12.8647C137.375 12.8551 137.428 12.8594 137.489 12.8808C137.566 12.9096 137.629 12.9608 137.755 12.9363C137.818 12.9245 137.892 12.9277 137.955 12.917C138.032 12.9032 138.085 12.9085 138.14 12.9405C138.243 13.0014 138.373 13.0025 138.507 12.979C138.654 12.9533 138.763 12.9832 138.873 13.0302C138.989 13.0793 138.989 13.0783 139.078 13.1968C139.105 13.2309 139.18 13.2469 139.243 13.2405C139.349 13.2299 139.44 13.2352 139.517 13.2758C139.599 13.3195 139.696 13.3142 139.796 13.3025C139.928 13.2864 140.06 13.2726 140.168 13.3345C140.221 13.3644 140.278 13.3718 140.349 13.3644C140.55 13.3452 140.753 13.3334 140.95 13.3099C141.07 13.295 141.139 13.3291 141.22 13.358C141.33 13.3975 141.45 13.4327 141.45 13.5171C141.45 13.5309 141.479 13.5469 141.503 13.5576C141.556 13.58 141.613 13.5993 141.668 13.6206C141.749 13.6526 141.828 13.6793 141.94 13.6622C142.037 13.6484 142.141 13.6441 142.241 13.6345C142.34 13.6249 142.432 13.6195 142.521 13.6601C142.625 13.706 142.735 13.7498 142.852 13.784C142.936 13.8085 143.046 13.7669 143.135 13.8C143.19 13.8203 143.243 13.8437 143.302 13.8608C143.326 13.8683 143.365 13.863 143.397 13.8608C143.464 13.8566 143.533 13.8534 143.598 13.8427C143.674 13.8309 143.73 13.8331 143.787 13.8576C143.84 13.88 143.893 13.911 143.954 13.9174C144.045 13.927 144.147 13.8843 144.238 13.9334C144.285 13.958 144.344 13.9815 144.405 13.9889C144.466 13.9964 144.537 13.9804 144.602 13.9815C144.631 13.9815 144.665 13.9986 144.681 14.0124C144.692 14.0199 144.677 14.0402 144.663 14.0509C144.645 14.0637 144.618 14.0808 144.592 14.0829C144.391 14.1021 144.19 14.1181 143.988 14.1363C143.869 14.147 143.869 14.147 143.627 14.0797C143.57 14.0637 143.507 14.0669 143.436 14.0743C143.34 14.084 143.243 14.1021 143.143 14.0829C143.013 14.0103 142.852 14.0039 142.682 14.0316C142.611 14.0434 142.546 14.0434 142.493 14.0231C142.381 13.9825 142.263 13.9452 142.163 13.8971C142.086 13.8598 142.05 13.8566 142.017 13.9078C142.007 13.9238 141.997 13.9409 141.999 13.9558C142.011 14.0092 142.033 14.0615 142.046 14.1149C142.05 14.1299 142.033 14.147 142.023 14.163C141.991 14.2078 141.948 14.2046 141.877 14.1672C141.806 14.1299 141.72 14.1053 141.607 14.1224C141.509 14.1373 141.403 14.1352 141.306 14.1512C141.155 14.1747 141.05 14.1405 140.942 14.0946C140.92 14.085 140.881 14.0797 140.853 14.0818C140.55 14.1064 140.249 14.1341 139.946 14.1587C139.881 14.164 139.822 14.148 139.771 14.1192C139.719 14.0904 139.66 14.0754 139.595 14.0808C139.326 14.1032 139.058 14.1235 138.79 14.1512C138.68 14.163 138.593 14.1491 138.518 14.1117C138.461 14.084 138.408 14.0754 138.337 14.0786C138.259 14.0818 138.205 14.0925 138.166 14.1235C138.129 14.1534 138.156 14.1715 138.237 14.195C138.324 14.2206 138.406 14.2537 138.489 14.2836C138.556 14.2793 138.623 14.2708 138.688 14.2719C138.717 14.2719 138.743 14.2911 138.772 14.3018C138.853 14.3327 138.928 14.3637 139.044 14.3466C139.141 14.3317 139.245 14.3284 139.345 14.3188C139.483 14.3071 139.483 14.3071 139.706 14.3744C139.763 14.3914 139.824 14.3904 139.897 14.3808C139.96 14.3733 140.026 14.3882 140.07 14.4203C140.089 14.4331 140.082 14.4544 140.044 14.5249C140.044 14.5772 140.086 14.5537 140.101 14.5196C140.123 14.4704 140.08 14.4544 139.999 14.4811C139.942 14.5003 139.914 14.5281 139.928 14.5505C139.936 14.5623 139.975 14.5772 140.044 14.5249C140.223 14.4608 140.359 14.4534 140.489 14.4363C140.566 14.4267 140.615 14.4309 140.676 14.4587C140.749 14.4918 140.822 14.527 140.942 14.5099C141.072 14.4907 141.21 14.4886 141.342 14.4726C141.464 14.4576 141.527 14.5046 141.605 14.5324C141.698 14.5655 141.802 14.5281 141.887 14.5473C141.976 14.5665 142.04 14.6135 142.143 14.622C142.294 14.5932 142.389 14.6466 142.503 14.6818C142.592 14.7085 142.698 14.685 142.793 14.6733C142.901 14.6605 142.991 14.6722 143.066 14.7107C143.151 14.7544 143.247 14.7448 143.344 14.7352C143.572 14.7139 143.58 14.7107 143.712 14.7694C143.808 14.8121 143.899 14.7929 143.995 14.7875C144.078 14.8164 144.159 14.8473 144.247 14.8729C144.269 14.8793 144.312 14.8687 144.346 14.8655C144.446 14.8569 144.547 14.8484 144.647 14.8398C144.714 14.8345 144.785 14.8185 144.846 14.8249C144.907 14.8324 144.958 14.8633 145.013 14.8836C145.068 14.9039 145.125 14.9242 145.177 14.9455C145.259 14.9776 145.336 15.0043 145.45 14.9882C145.547 14.9744 145.649 14.9701 145.75 14.9605C145.879 14.9487 145.874 14.9519 146.112 15.016C146.24 15.0512 146.372 15.0085 146.502 15.0043C146.567 15.0021 146.63 15.0139 146.675 15.0448C146.693 15.0576 146.687 15.079 146.693 15.0971C146.358 15.126 146.021 15.1505 145.69 15.1857C145.561 15.1996 145.494 15.1612 145.425 15.1292C145.312 15.0779 145.161 15.1526 145.053 15.0865C144.988 15.047 144.895 15.0245 144.783 15.0438C144.718 15.0544 144.649 15.0534 144.582 15.063C144.411 15.0865 144.255 15.0875 144.119 15.0139C144.072 14.9882 144.005 14.9744 143.956 14.9498C143.899 14.9231 143.844 14.9082 143.777 14.9135C143.474 14.9391 143.174 14.9647 142.873 14.9925C142.846 14.9946 142.82 15.0107 142.798 15.0224C142.741 15.0523 142.759 15.0758 142.85 15.095C142.881 15.1014 142.905 15.1153 142.934 15.126C142.989 15.1462 143.039 15.1783 143.1 15.1857C143.161 15.1932 143.232 15.1783 143.3 15.1729C143.367 15.1676 143.438 15.1516 143.499 15.158C143.56 15.1655 143.61 15.1964 143.667 15.2156C143.694 15.2253 143.726 15.2413 143.753 15.2402C143.887 15.2338 144.019 15.222 144.153 15.2124C144.236 15.2413 144.308 15.2829 144.407 15.2925C144.47 15.2989 144.537 15.2872 144.602 15.2893C144.631 15.2904 144.667 15.3064 144.681 15.3203C144.69 15.3288 144.663 15.3502 144.643 15.3608C144.566 15.4014 144.46 15.3939 144.364 15.4067C144.261 15.4206 144.167 15.4164 144.088 15.3747C144.035 15.347 143.976 15.332 143.911 15.3374C143.743 15.3512 143.576 15.3673 143.407 15.379C143.379 15.3811 143.344 15.3715 143.318 15.364C143.104 15.2989 143.104 15.2968 142.954 15.3107C142.733 15.3309 142.733 15.3309 142.584 15.2744C142.556 15.2637 142.525 15.2434 142.501 15.2445C142.265 15.2616 142.031 15.2786 141.798 15.3032C141.72 15.3107 141.668 15.3107 141.611 15.2829C141.562 15.2594 141.505 15.2327 141.444 15.2263C141.381 15.2199 141.312 15.2359 141.245 15.2413C141.178 15.2466 141.107 15.2605 141.048 15.2519C140.987 15.2434 140.934 15.2135 140.881 15.1922C140.826 15.1697 140.767 15.1708 140.692 15.1793C140.46 15.2039 140.458 15.2007 140.229 15.1345C140.202 15.127 140.168 15.1185 140.139 15.1206C139.971 15.1334 139.804 15.1495 139.635 15.1623C139.57 15.1676 139.507 15.1537 139.463 15.1228C139.444 15.11 139.45 15.0886 139.438 15.047C139.424 15.0373 139.44 15.0544 139.444 15.0704C139.475 15.0683 139.511 15.0704 139.534 15.0619C139.591 15.0416 139.619 15.0149 139.605 14.9925C139.597 14.9808 139.558 14.9658 139.534 14.9658C139.489 14.9658 139.45 14.9893 139.438 15.047C139.31 15.0822 139.174 15.0897 139.042 15.1067C138.965 15.1174 138.916 15.1121 138.855 15.0843C138.782 15.0502 138.707 15.0171 138.587 15.0341C138.457 15.0534 138.318 15.0566 138.184 15.0715C138.03 15.0886 137.963 14.9925 137.833 14.9946C137.699 14.9968 137.564 15.0149 137.43 15.0277C137.312 15.0384 137.312 15.0384 137.068 14.969C136.979 14.9434 136.873 14.9808 136.786 14.9541C136.727 14.937 136.676 14.9114 136.619 14.8932C136.595 14.8857 136.556 14.8857 136.526 14.8879C136.357 14.9007 136.187 14.9092 136.024 14.9327C135.839 14.9605 135.699 14.9306 135.567 14.8676C135.4 14.8793 135.231 14.8857 135.067 14.906C134.947 14.921 134.878 14.8858 134.796 14.8569C134.768 14.8473 134.744 14.8313 134.713 14.827C134.683 14.8228 134.646 14.8313 134.613 14.8345C134.479 14.8462 134.341 14.8516 134.211 14.8708C134.051 14.8954 133.99 14.8078 133.866 14.7971C133.782 14.8494 133.738 14.921 133.573 14.9263C133.439 14.9306 133.305 14.9477 133.171 14.9594C133.103 14.9648 133.036 14.9712 132.969 14.9765C132.862 14.9861 132.811 15.0277 132.833 15.0918C132.845 15.127 132.856 15.1623 132.866 15.1975C132.886 15.2605 132.835 15.3139 132.75 15.3213C132.514 15.3416 132.28 15.363 132.045 15.3811C131.982 15.3865 131.921 15.3683 131.87 15.3395C131.817 15.3107 131.758 15.2978 131.693 15.3032C131.457 15.3235 131.224 15.3448 130.988 15.363C130.961 15.3651 130.927 15.3544 130.9 15.3459C130.844 15.3267 130.789 15.3043 130.734 15.284C130.6 15.2936 130.468 15.3 130.336 15.3128C130.122 15.332 130.122 15.3331 129.966 15.2744C129.937 15.2637 129.909 15.2434 129.882 15.2445C129.781 15.2487 129.681 15.2594 129.58 15.269C129.281 15.2968 129.281 15.2968 129.193 15.2648C129.114 15.2349 129.043 15.1986 128.923 15.2156C128.793 15.2349 128.655 15.2413 128.521 15.2519C128.421 15.2594 128.321 15.268 128.222 15.2701C128.195 15.2712 128.167 15.2509 128.139 15.2402C128.057 15.2071 127.978 15.1804 127.866 15.1986C127.801 15.2092 127.732 15.2114 127.665 15.2167C127.49 15.2317 127.49 15.2317 127.204 15.1676C127.175 15.1612 127.141 15.1537 127.112 15.1569C126.877 15.1761 126.643 15.1975 126.407 15.2156C126.379 15.2178 126.344 15.2114 126.316 15.206C125.995 15.1441 125.995 15.1441 125.653 15.174C125.523 15.1847 125.519 15.189 125.383 15.1324C125.322 15.1078 125.271 15.0961 125.2 15.1035C124.932 15.1292 124.661 15.1462 124.395 15.1761C124.275 15.189 124.206 15.1569 124.125 15.1281C124.096 15.1185 124.066 15.0971 124.041 15.0982C123.773 15.1185 123.505 15.143 123.237 15.1633C123.212 15.1655 123.182 15.1441 123.153 15.1345C123.098 15.1153 123.046 15.0865 122.985 15.0801C122.922 15.0736 122.853 15.0897 122.783 15.095C122.615 15.1089 122.615 15.1078 122.42 15.0448C122.393 15.0363 122.359 15.0245 122.332 15.0267C122.064 15.048 121.794 15.0662 121.528 15.0971C121.375 15.1142 121.271 15.0833 121.164 15.0384C121.141 15.0288 121.103 15.0245 121.074 15.0267C120.771 15.0512 120.471 15.079 120.168 15.1035C120.105 15.1089 120.044 15.0907 119.993 15.063C119.912 15.0192 119.816 15.0245 119.715 15.0341C119.481 15.0566 119.479 15.0555 119.341 15.0043C119.312 14.9936 119.288 14.9797 119.257 14.9744C119.229 14.969 119.192 14.9722 119.162 14.9744C119.028 14.985 118.894 14.9968 118.76 15.0085C118.625 15.0203 118.489 15.0267 118.357 15.0448C118.195 15.0672 118.117 14.9978 118.003 14.9658C117.837 14.9797 117.666 14.9882 117.502 15.0107C117.376 15.0277 117.317 14.9808 117.233 14.9562C117.205 14.9477 117.174 14.9295 117.148 14.9317C116.845 14.9551 116.542 14.9808 116.241 15.0096C116.168 15.016 116.12 15.0075 116.059 14.9818C115.922 14.9242 115.916 14.9263 115.689 14.9477C115.589 14.9573 115.494 14.9658 115.408 14.922C115.333 14.8825 115.242 14.8729 115.134 14.8857C115.002 14.9018 114.866 14.9103 114.732 14.921C114.597 14.9327 114.463 14.9487 114.329 14.9541C114.221 14.9594 114.156 14.9092 114.071 14.8836C114.045 14.8761 114.008 14.8751 113.978 14.8772C113.843 14.8868 113.705 14.8943 113.575 14.9124C113.417 14.9349 113.329 14.8761 113.217 14.842C113.193 14.8345 113.152 14.8388 113.122 14.842C112.886 14.8612 112.652 14.8825 112.417 14.9028C112.333 14.874 112.248 14.8462 112.165 14.8174C112.031 14.8281 111.896 14.8398 111.762 14.8505C111.661 14.8591 111.557 14.8623 111.462 14.8783C111.338 14.8996 111.277 14.8494 111.193 14.8249C111.165 14.8163 111.134 14.7982 111.108 14.8003C110.939 14.8121 110.771 14.8249 110.604 14.843C110.445 14.8612 110.382 14.7651 110.252 14.7662C110.118 14.7672 109.98 14.7811 109.85 14.8003C109.7 14.8228 109.594 14.7886 109.486 14.7427C109.464 14.7331 109.425 14.7277 109.397 14.7299C109.228 14.7427 109.061 14.7587 108.893 14.7715C108.864 14.7736 108.83 14.7683 108.801 14.7619C108.48 14.6989 108.48 14.6978 108.34 14.7107C108.24 14.7192 108.139 14.7299 108.037 14.7352C108.009 14.7373 107.974 14.7277 107.948 14.7192C107.736 14.6541 107.736 14.653 107.584 14.6658C107.45 14.6776 107.316 14.6893 107.181 14.701C107.098 14.6722 107.013 14.6445 106.929 14.6156C106.763 14.6295 106.592 14.6402 106.428 14.6594C106.35 14.6679 106.299 14.6647 106.241 14.6381C106.167 14.606 106.094 14.5687 105.972 14.5868C105.842 14.606 105.704 14.6082 105.572 14.6242C105.413 14.6434 105.348 14.5462 105.22 14.5473C105.086 14.5484 104.948 14.5623 104.818 14.5815C104.668 14.6039 104.562 14.5697 104.454 14.5238C104.432 14.5142 104.393 14.5089 104.365 14.511C103.995 14.542 103.627 14.5729 103.257 14.606C103.03 14.6263 103.03 14.6274 102.597 14.5687C102.566 14.5644 102.534 14.5601 102.503 14.5623C102.369 14.5719 102.231 14.5793 102.101 14.5975C101.942 14.6199 101.855 14.5623 101.743 14.527C101.719 14.5195 101.68 14.5238 101.648 14.526C101.546 14.5334 101.446 14.543 101.345 14.5516C101.211 14.5633 101.076 14.5751 100.942 14.5868C100.859 14.5591 100.774 14.5302 100.69 14.5025C100.524 14.5163 100.353 14.5238 100.188 14.5462C100.062 14.5633 100.003 14.5185 99.9201 14.4929C99.8916 14.4843 99.8611 14.4662 99.8347 14.4672C99.5319 14.4907 99.2291 14.5153 98.9283 14.5452C98.8044 14.558 98.7474 14.5099 98.6641 14.4854C98.6357 14.4779 98.6032 14.464 98.5767 14.4662C98.3755 14.4811 98.1744 14.4993 97.9732 14.5174C97.8594 14.5281 97.8593 14.5281 97.6114 14.4619C97.583 14.4544 97.5504 14.4469 97.522 14.4491C96.8839 14.5025 96.2477 14.5591 95.6096 14.6124C95.5445 14.6178 95.4856 14.6018 95.4348 14.5729C95.382 14.5441 95.323 14.5292 95.258 14.5345C94.9897 14.5569 94.7194 14.5772 94.4532 14.605C94.3435 14.6167 94.2561 14.6028 94.1809 14.5655C94.124 14.5377 94.0711 14.527 94 14.5334C93.8659 14.5462 93.7317 14.5569 93.5976 14.5687C93.4635 14.5804 93.3294 14.5922 93.1952 14.6039C93.0611 14.6156 92.9249 14.622 92.7928 14.6402C92.6302 14.6626 92.551 14.5964 92.4392 14.5633C92.238 14.5793 92.0368 14.5954 91.8376 14.6124C91.5693 14.6349 91.3011 14.6594 91.0328 14.6808C91.0084 14.6829 90.978 14.6637 90.9495 14.6541C90.8662 14.6274 90.8052 14.59 90.6812 14.6018C90.0797 14.6583 89.4741 14.7064 88.8705 14.7619C88.7445 14.7736 88.6896 14.7277 88.6042 14.7032C88.5758 14.6957 88.5433 14.6808 88.5169 14.6829C88.1815 14.7096 87.8462 14.7395 87.5109 14.7683C87.3747 14.78 87.3747 14.78 87.1471 14.7139C87.1207 14.7064 87.0861 14.6968 87.0576 14.6989C86.6207 14.7352 86.1858 14.7736 85.7488 14.811C85.6838 14.8163 85.6249 14.8014 85.5721 14.7726C85.5213 14.7438 85.4603 14.7277 85.3973 14.7331C84.9949 14.7672 84.5904 14.8003 84.1901 14.8377C84.0824 14.8484 83.9929 14.8388 83.9157 14.8003C83.8608 14.7726 83.806 14.7608 83.7369 14.7672C83.1333 14.8195 82.5297 14.8697 81.9261 14.9253C81.8102 14.9359 81.729 14.9156 81.6558 14.8804C81.5969 14.8527 81.546 14.8473 81.4729 14.8516C81.3956 14.8569 81.3489 14.8687 81.3063 14.9007C81.2514 14.9423 81.2168 14.9946 81.0868 14.9978C80.9526 15.001 80.8165 15.0139 80.6844 15.032C80.5584 15.0502 80.4994 15.0021 80.4202 14.9733C80.3612 14.953 80.3064 14.9498 80.2312 14.9594C80.1621 14.968 80.1194 14.9861 80.0787 15.0203C79.9893 15.0929 79.9812 15.0929 79.8714 15.047C79.8125 15.0224 79.7596 15.0032 79.6946 15.0075C79.4263 15.0288 79.1581 15.0523 78.8898 15.0768C78.7354 15.0907 78.7334 15.0929 78.6175 15.0395C78.5606 15.0128 78.5057 15 78.4387 15.0064C77.7009 15.0704 76.9632 15.1324 76.2255 15.1996C76.1117 15.2103 76.0345 15.1879 75.9532 15.1559C75.9267 15.1452 75.9003 15.1302 75.8699 15.126C75.8394 15.1217 75.8048 15.126 75.7723 15.1281C75.2358 15.174 74.6972 15.2178 74.1627 15.269C74.0408 15.2808 73.9758 15.2466 73.8924 15.2189C73.864 15.2092 73.8396 15.1943 73.8091 15.19C73.7786 15.1868 73.742 15.1943 73.7095 15.1975C73.173 15.2434 72.6344 15.2872 72.0999 15.3384C71.9719 15.3502 71.917 15.3053 71.8337 15.2818C71.8052 15.2733 71.7748 15.2573 71.7483 15.2594C71.5797 15.2712 71.413 15.2872 71.2443 15.301C70.8419 15.3363 70.4395 15.3694 70.0371 15.4057C69.8827 15.4196 69.8156 15.3245 69.6855 15.3288C69.5169 15.3341 69.3502 15.3555 69.1815 15.3704C69.0474 15.3822 68.9133 15.3929 68.7791 15.4057C68.647 15.4174 68.647 15.4174 68.3178 15.3555C68.2893 15.3502 68.2548 15.3427 68.2264 15.3448C67.7569 15.3843 67.2854 15.4238 66.818 15.4665C66.7103 15.4761 66.6208 15.4708 66.5436 15.4313C66.4887 15.4035 66.4318 15.3897 66.3648 15.3961C65.6596 15.4569 64.9564 15.5178 64.2512 15.5776C64.2247 15.5797 64.1902 15.569 64.1638 15.5605C64.1069 15.5413 64.052 15.5189 63.9971 15.4986C63.9565 15.5231 63.9037 15.5455 63.8772 15.5733C63.8407 15.6107 63.7919 15.6213 63.7147 15.6277C63.6374 15.6342 63.5887 15.632 63.5277 15.6043C63.4545 15.5701 63.3793 15.5434 63.2594 15.5541C62.5217 15.6213 61.7839 15.6822 61.0462 15.7484C60.9243 15.7591 60.8674 15.7121 60.7821 15.6875C60.7536 15.6801 60.7211 15.6683 60.6946 15.6705C60.3918 15.695 60.0911 15.7217 59.7882 15.7473C58.9489 15.8199 58.1096 15.8893 57.2723 15.9662C57.1199 15.9801 57.0162 15.9534 56.9085 15.9075C56.8861 15.8979 56.8475 15.8925 56.8191 15.8947C55.6444 15.995 54.4697 16.0964 53.2971 16.1979C53.2341 16.2032 53.1731 16.1861 53.1223 16.1584C53.0694 16.1295 53.0105 16.1156 52.9455 16.121C52.409 16.1669 51.8725 16.2128 51.3359 16.2598C51.2018 16.2715 51.1997 16.2726 51.0616 16.2213C51.0331 16.2107 51.0026 16.1904 50.9803 16.1925C50.9335 16.1979 50.8888 16.2245 50.8563 16.2608C50.8238 16.2993 50.773 16.31 50.6978 16.3174C50.6205 16.3249 50.5697 16.3217 50.5108 16.2961C50.4356 16.2641 50.3665 16.2331 50.2446 16.2438C48.702 16.3804 47.1595 16.5117 45.617 16.6473C45.493 16.658 45.4361 16.6132 45.3508 16.5886C45.3223 16.5811 45.2939 16.5705 45.2634 16.5683C45.2309 16.5662 45.1963 16.5726 45.1638 16.5758C42.6478 16.7925 40.1319 17.0103 37.6159 17.227C37.4655 17.2399 37.4675 17.2399 37.3029 17.3381C37.2826 17.3498 37.2561 17.3658 37.2277 17.368C36.4574 17.4363 35.6852 17.5025 34.9129 17.5687C34.5776 17.5975 34.2422 17.6274 33.9069 17.6552C33.787 17.6648 33.787 17.6648 33.5005 17.7801C33.4761 17.7897 33.4476 17.8025 33.4191 17.8046C32.0778 17.921 30.7365 18.0374 29.3931 18.1516C29.2875 18.1602 29.2021 18.1794 29.1533 18.2306C29.1188 18.2669 29.0741 18.2883 29.007 18.2947C28.0681 18.3758 27.1292 18.458 26.1882 18.537C26.0765 18.5466 26.0094 18.5765 25.9545 18.6214C25.9362 18.6363 25.9199 18.6534 25.8935 18.6641C25.8691 18.6737 25.8326 18.6769 25.8021 18.6801C24.9973 18.7495 24.1925 18.821 23.3857 18.8872C23.2658 18.8968 23.217 18.9363 23.1581 18.978C23.1377 18.9918 23.1235 19.0111 23.0971 19.0207C23.0707 19.0292 23.032 19.0292 22.9995 19.0313C22.3289 19.089 21.6582 19.1477 20.9876 19.2054C20.8575 19.2 20.829 19.2619 20.766 19.2993C20.7437 19.3121 20.7275 19.3292 20.701 19.3377C20.6726 19.3463 20.636 19.3452 20.6014 19.3473C20.0649 19.3933 19.5284 19.4424 18.9898 19.4851C18.8658 19.4947 18.8414 19.5491 18.7744 19.5865C18.752 19.5982 18.7297 19.6164 18.7033 19.6196C18.3679 19.6506 18.0326 19.6794 17.6973 19.7071C17.5855 19.7167 17.5855 19.7157 17.3884 19.8214C17.366 19.8331 17.3396 19.8459 17.3111 19.8491C16.8091 19.894 16.3051 19.9367 15.8011 19.9805C15.7361 19.9858 15.6914 20.0114 15.6589 20.0477C15.6264 20.084 15.5796 20.1075 15.5146 20.1128C15.1122 20.1481 14.7098 20.1844 14.3074 20.2164C14.1956 20.2249 14.1225 20.2516 14.0737 20.2997C14.0371 20.336 13.9924 20.3541 13.9213 20.3605C13.5189 20.3947 13.1165 20.4321 12.712 20.462C12.5942 20.4705 12.5332 20.5068 12.4844 20.5516C12.4458 20.5879 12.4011 20.6007 12.3259 20.6071C11.5882 20.6691 10.8484 20.731 10.1127 20.7993C9.98876 20.8111 9.92574 20.7737 9.84445 20.747C9.72861 20.7096 9.62093 20.6691 9.62093 20.5858C9.62093 20.573 9.58637 20.558 9.56198 20.5474C9.38111 20.4673 9.3811 20.4673 9.35265 20.3819C9.33639 20.3296 9.3181 20.2762 9.30388 20.2228C9.27746 20.1353 9.2124 20.1128 9.02543 20.1289C8.95836 20.1342 8.8913 20.1417 8.82423 20.1459C8.72465 20.1534 8.64947 20.1182 8.63117 20.0541C8.62101 20.0189 8.60884 19.9837 8.59868 19.9484C8.70029 19.9399 8.69823 19.9388 8.87707 19.8096C8.95227 19.7552 8.9523 19.7552 8.80801 19.7007C8.75314 19.6805 8.70028 19.658 8.64135 19.6388C8.61493 19.6303 8.58039 19.6249 8.55194 19.6271C8.38326 19.6399 8.21661 19.6548 8.04996 19.6698C7.7817 19.6933 7.78167 19.6933 7.50934 19.5844C7.48699 19.5758 7.45243 19.5598 7.4565 19.5513C7.47885 19.5118 7.53372 19.4947 7.60282 19.4904C7.70443 19.484 7.80401 19.4733 7.90359 19.4648C7.97066 19.4594 8.03772 19.453 8.10479 19.4477C8.16779 19.4071 8.23286 19.3676 8.2918 19.326C8.38528 19.2619 8.38525 19.2598 8.25721 19.215C8.17592 19.1851 8.08853 19.1584 8.00521 19.1306C7.90563 19.1392 7.80402 19.1488 7.70443 19.1562C7.57843 19.1658 7.52762 19.1456 7.4951 19.0762C7.46665 19.0153 7.5012 18.963 7.59875 18.9502C7.69833 18.9374 7.79186 18.9288 7.84267 18.8744C7.89144 18.8221 7.97678 18.8018 8.08246 18.7975C8.14953 18.7943 8.21659 18.7868 8.28366 18.7804C8.37105 18.7719 8.4178 18.7175 8.39951 18.6566C8.38935 18.6171 8.36902 18.584 8.28976 18.5755C7.93817 18.5381 7.93409 18.5392 7.75931 18.4666C7.74305 18.4601 7.73089 18.4409 7.73698 18.4313C7.74714 18.4153 7.7695 18.3918 7.79389 18.3886C8.02761 18.3651 8.26131 18.3438 8.49503 18.3278C8.57225 18.3224 8.62917 18.3149 8.65559 18.2754C8.69217 18.221 8.67591 18.1708 8.60478 18.1335C8.58242 18.1217 8.54581 18.1068 8.52142 18.1078C8.25316 18.1271 7.98694 18.1516 7.71867 18.1708C7.69429 18.173 7.6496 18.1548 7.63944 18.1409C7.61911 18.1153 7.64958 18.0811 7.72071 18.0694C7.81419 18.0534 7.90971 18.0523 7.97271 17.9989C8.0601 17.9231 8.1678 17.8537 8.26535 17.7811C8.28161 17.7683 8.30806 17.7438 8.30197 17.7416C8.25116 17.7181 8.19221 17.7 8.13937 17.6776C8.04995 17.6402 8.04993 17.5879 8.07026 17.5377C8.08652 17.4972 8.14748 17.4811 8.22268 17.4811C8.2552 17.4811 8.29584 17.4811 8.32226 17.4715C8.39136 17.448 8.41372 17.4181 8.37917 17.3957C8.35885 17.3829 8.32229 17.3648 8.2979 17.3669C7.86299 17.4021 7.42601 17.4363 6.99313 17.4801C6.86509 17.4929 6.8062 17.4523 6.72897 17.4235C6.67003 17.4011 6.61513 17.3925 6.54196 17.4085C6.47287 17.4235 6.40582 17.415 6.36314 17.3797C6.3286 17.3509 6.38955 17.3263 6.55417 17.2986C6.58465 17.2932 6.61919 17.29 6.64154 17.2794C6.87729 17.1641 6.87728 17.163 7.03987 17.148C7.19839 17.1342 7.19842 17.1331 7.28175 17.0712C7.32036 17.0424 7.36301 17.0135 7.39959 16.9836C7.41381 16.9719 7.43823 16.9505 7.4301 16.9441C7.38539 16.911 7.3244 16.9036 7.25327 16.911C7.09475 16.9292 6.90781 16.9142 6.82448 17.0157C6.79196 17.0541 6.74115 17.0648 6.66799 17.0712C5.9323 17.1331 5.19658 17.1993 4.45886 17.2591C4.33895 17.2687 4.28411 17.3082 4.23737 17.352C4.19672 17.3883 4.152 17.3989 4.07477 17.4053C3.99755 17.4117 3.93655 17.415 3.89184 17.3797C3.86542 17.3584 3.88778 17.3285 3.94875 17.2986C4.03613 17.2559 4.01987 17.2025 3.99142 17.1523C3.97109 17.1192 3.90809 17.0957 3.84103 17.0979C3.74145 17.1021 3.64595 17.1139 3.56263 17.0712C3.51385 17.0466 3.45287 17.0295 3.398 17.0082C3.29232 16.9644 3.18664 16.9196 3.03828 16.9484C2.93666 16.9377 2.86553 16.8993 2.78424 16.8694C2.64808 16.8203 2.63588 16.8128 2.73343 16.7605C2.84318 16.7018 2.75781 16.6249 2.81878 16.5672C2.88381 16.5053 2.97326 16.4509 3.05252 16.3932C3.07284 16.3783 3.09114 16.3644 3.11146 16.3495C3.06472 16.3281 3.02205 16.3014 2.96718 16.2865C2.89605 16.2673 2.85946 16.2438 2.86353 16.1776C2.8493 16.168 2.85536 16.1925 2.87162 16.1989C2.88991 16.2053 2.93465 16.2 2.95701 16.1925C3.01391 16.1722 3.04233 16.1455 3.02811 16.1231C3.01998 16.1114 2.98139 16.0964 2.95701 16.0964C2.9123 16.0964 2.87369 16.1199 2.8615 16.1776C2.63388 16.2213 2.39809 16.2427 2.16235 16.2598C2.13796 16.2619 2.10749 16.2406 2.07904 16.2299C1.98555 16.1936 1.98554 16.1947 1.71118 16.184C1.68273 16.1829 1.64414 16.168 1.62991 16.153C1.57097 16.0879 1.57302 16.0164 1.54457 15.947C1.59741 15.9021 1.65021 15.8584 1.70508 15.8146C1.81482 15.726 1.95712 15.648 2.04247 15.5509C2.02418 15.4986 1.99979 15.4463 2.08921 15.4035C2.34325 15.3502 2.34123 15.3502 2.41033 15.2989C2.60746 15.1537 2.80255 15.0075 3.00781 14.8644C3.06269 14.827 3.06269 14.8067 2.96514 14.7907C2.93466 14.7865 2.9021 14.7854 2.86958 14.7875C2.76797 14.795 2.66635 14.8142 2.56677 14.8099C2.46719 14.8067 2.39403 14.7598 2.31273 14.7309C2.22941 14.701 2.14609 14.6701 2.06277 14.6391C1.96725 14.6423 1.87175 14.6722 1.77623 14.6242C1.70307 14.5868 1.61162 14.5601 1.52829 14.5292C1.5913 14.448 1.70919 14.3861 1.80064 14.3146C1.88396 14.2494 1.88595 14.2505 2.1095 14.2003C2.21518 14.1768 2.25177 14.0562 2.16235 14.021C2.05463 13.9783 1.94085 13.9388 1.8311 13.8982C1.73559 13.9014 1.63806 13.9302 1.5466 13.8822C1.47547 13.8459 1.39416 13.8213 1.27629 13.8352C1.07713 13.8587 0.873901 13.8704 0.672703 13.8897C0.603605 13.8961 0.528388 13.8918 0.497904 13.8555C0.477581 13.8299 0.536521 13.7946 0.603587 13.7872C0.705202 13.7765 0.796646 13.7637 0.847453 13.7103C0.896229 13.6569 0.98564 13.6409 1.09132 13.6334C1.11977 13.6313 1.15231 13.6185 1.16654 13.6057C1.2397 13.5437 1.321 13.4904 1.47749 13.4925C1.54252 13.4711 1.57705 13.4444 1.55672 13.4188C1.54453 13.4049 1.50187 13.3868 1.47749 13.3889C1.30881 13.3996 1.14013 13.4103 0.975514 13.4295C0.898287 13.4381 0.839318 13.4402 0.790543 13.4082C0.755994 13.3868 0.774283 13.358 0.839316 13.327C0.896221 13.3003 0.912497 13.2694 0.908432 13.2331C0.898271 13.1487 0.83729 13.1242 0.642189 13.1295C0.50196 13.1338 0.467409 13.1199 0.436925 13.0473C0.428796 13.0302 0.408508 13.0067 0.422734 12.995C0.510123 12.9224 0.567032 12.8327 0.731648 12.7985C0.796682 12.7857 0.865752 12.7857 0.906398 12.758C0.947044 12.7302 0.983643 12.6982 1.02632 12.6715C1.07916 12.6395 1.11571 12.6096 1.09132 12.5893C1.05067 12.553 0.985662 12.5498 0.910467 12.5626C0.845433 12.5733 0.776337 12.5743 0.709271 12.5807C0.589365 12.5925 0.491837 12.5647 0.47761 12.5178C0.438997 12.3939 0.398339 12.2711 0.36379 12.1473C0.359725 12.1323 0.369859 12.1131 0.386117 12.1003C0.443022 12.0555 0.504015 12.0128 0.562951 11.969C0.632049 11.9188 0.741812 11.9284 0.835297 11.9188C0.967397 11.9049 0.967351 11.906 1.14416 11.8035C1.21326 11.7629 1.33317 11.779 1.4043 11.7427C1.42666 11.7309 1.46121 11.7117 1.45511 11.701C1.44698 11.6871 1.40636 11.6765 1.37587 11.6701C1.34742 11.6636 1.31288 11.6605 1.28239 11.6637C0.912515 11.6946 0.544678 11.7277 0.1748 11.7576C0.111798 11.7629 0.0426982 11.7395 0.0203429 11.7064C-0.00201245 11.6754 0.0040646 11.638 0 11.6028C0.0589367 11.559 0.125977 11.5185 0.176784 11.4715C0.215398 11.4352 0.260117 11.4192 0.337344 11.417C0.438959 11.4138 0.538552 11.401 0.652361 11.3914C0.86372 11.2355 1.071 11.0722 1.29862 10.9163C1.39007 10.8533 1.36775 10.7893 1.38604 10.722C1.40433 10.6601 1.54049 10.6697 1.63194 10.6516C1.70511 10.6366 1.72946 10.6024 1.70101 10.5789C1.68475 10.5651 1.64819 10.549 1.61974 10.549C1.55267 10.549 1.48561 10.5587 1.41854 10.564C1.35148 10.5693 1.27425 10.5661 1.21938 10.5843C1.16654 10.6014 1.13197 10.6377 1.09742 10.6686C1.05881 10.7028 1.00804 10.7145 0.93081 10.7167C0.831227 10.7188 0.73165 10.7284 0.632067 10.7359C0.522323 10.6942 0.40849 10.6537 0.302811 10.6099C0.282488 10.6014 0.278401 10.5768 0.280434 10.5608C0.284498 10.5192 0.254022 10.4935 0.186956 10.4733C0.130051 10.4562 0.0833045 10.4316 0.0304647 10.4103C0.0711107 10.3814 0.115837 10.3537 0.148354 10.3227C0.219484 10.2576 0.308916 10.2106 0.46337 10.2128C0.524339 10.1711 0.573101 10.1199 0.652361 10.091C0.727556 10.0633 0.855597 10.091 0.912501 10.028C0.940953 9.99709 0.983655 9.96186 1.03853 9.94905C1.12592 9.92876 1.23972 9.93945 1.29053 9.87966C1.32102 9.8455 1.36571 9.81453 1.42464 9.80599C1.49171 9.79638 1.56079 9.79425 1.60957 9.77397C1.63599 9.76329 1.66444 9.74621 1.66444 9.73126C1.66444 9.72165 1.62383 9.7067 1.59538 9.70029C1.56896 9.69282 1.53437 9.68748 1.50388 9.68962C1.40227 9.69603 1.30269 9.70777 1.20107 9.71417C1.17262 9.71631 1.14011 9.70884 1.10963 9.70243C1.02021 9.68535 1.02629 9.664 1.09742 9.62556C1.16855 9.5882 1.21939 9.54015 1.27832 9.49637C1.34336 9.4889 1.42464 9.49211 1.46935 9.47182C1.54454 9.43872 1.59737 9.39068 1.65834 9.34904C1.72541 9.34264 1.7945 9.34051 1.8575 9.32876C1.88392 9.32449 1.89612 9.301 1.91848 9.28712C1.95913 9.26043 1.9937 9.222 2.04857 9.20919C2.138 9.18997 2.24774 9.19744 2.30058 9.13872C2.33106 9.10456 2.37779 9.06827 2.43469 9.06613C2.59321 9.06186 2.66028 9.00313 2.74157 8.94761C2.80254 8.90598 2.93261 8.92733 2.99968 8.8857C3.04439 8.859 3.07692 8.8259 3.12164 8.80028C3.13993 8.7896 3.17853 8.78427 3.20901 8.78107C3.37566 8.76506 3.54433 8.75331 3.71098 8.73623C3.7374 8.73302 3.76181 8.71702 3.78213 8.7042C3.82481 8.67645 3.8512 8.63801 3.90404 8.61986C3.95688 8.60171 4.03207 8.60171 4.0971 8.59637C4.30643 8.58036 4.3227 8.58462 4.41822 8.49387C4.49545 8.42021 4.68447 8.47252 4.74748 8.39138C4.78406 8.34441 4.85109 8.30598 4.971 8.30064C5.13968 8.29317 5.30632 8.27288 5.47501 8.259C5.6254 8.24619 5.62337 8.24618 5.78595 8.14689C5.85912 8.10205 5.96685 8.10847 6.06237 8.09993C6.16398 8.09138 6.25746 8.07858 6.30623 8.0252C6.35501 7.97288 6.44442 7.95579 6.54807 7.94832C6.64358 7.94084 6.75132 7.94619 6.82652 7.90349C7.00942 7.80099 7.00739 7.79992 7.13543 7.78924C7.33663 7.77216 7.53782 7.75508 7.73902 7.73693C7.87315 7.72519 8.01337 7.72305 8.13937 7.69957C8.23083 7.68248 8.27146 7.6227 8.3304 7.58106C8.49705 7.56505 8.66369 7.54903 8.83034 7.53408C9.06405 7.51273 9.29979 7.49352 9.53554 7.47323C9.63715 7.43266 9.65141 7.34298 9.82212 7.33871C9.92374 7.33657 10.0233 7.3227 10.1249 7.31416C10.2936 7.29921 10.4603 7.27999 10.6289 7.27252C10.757 7.26718 10.7793 7.20952 10.8464 7.17322C10.8687 7.16041 10.8891 7.14227 10.9155 7.13906C11.1797 7.10917 11.452 7.10276 11.7101 7.05899C11.7365 7.05472 11.7609 7.0323 11.767 7.01628C11.7711 7.00774 11.7365 6.99174 11.7142 6.98426C11.6877 6.97572 11.6532 6.96718 11.6247 6.96932C10.7854 7.04085 9.94609 7.11345 9.10675 7.18498C8.98888 7.19565 8.98888 7.19458 8.70232 7.31202C8.67794 7.32163 8.64945 7.3323 8.61897 7.3355C8.48484 7.34831 8.34868 7.3558 8.21658 7.37181C8.10887 7.38462 8.01947 7.3718 7.94225 7.33337C7.88737 7.30561 7.83044 7.29707 7.76134 7.29921C7.68412 7.30241 7.63334 7.31416 7.58863 7.34298C7.52969 7.38249 7.4992 7.43373 7.37523 7.4444C6.80415 7.49031 6.23304 7.54156 5.664 7.59067C5.58474 7.57572 5.54613 7.5533 5.56645 7.52661C5.57864 7.5106 5.60304 7.48925 5.62743 7.48711C5.86114 7.46469 6.09688 7.44548 6.3306 7.42412C6.36311 7.42092 6.40782 7.42304 6.42611 7.41237C6.51553 7.36433 6.54808 7.28639 6.71676 7.28105C6.81431 7.27785 6.91388 7.26184 7.00737 7.24689C7.03379 7.24262 7.05818 7.2202 7.06428 7.20419C7.06631 7.19565 7.03379 7.17963 7.0094 7.17215C6.91998 7.14119 6.81636 7.17857 6.72693 7.15722C6.69645 7.14974 6.65374 7.13906 6.64765 7.12625C6.64358 7.11451 6.67814 7.09529 6.70252 7.08355C6.72488 7.07287 6.75535 7.06326 6.78583 7.06006C7.05409 7.03551 7.3224 7.00988 7.59066 6.99066C7.70041 6.98319 7.77762 6.9565 7.82639 6.90738C7.86297 6.87109 7.90768 6.85187 7.97678 6.84654C8.44624 6.80703 8.91569 6.76326 9.38718 6.72696C9.50506 6.71842 9.56605 6.68319 9.61483 6.63729C9.65344 6.60099 9.69816 6.58817 9.77335 6.58177C10.446 6.52625 11.1147 6.46433 11.7873 6.41095C11.9113 6.40134 11.9479 6.35543 12.0109 6.31593C12.0333 6.30205 12.0475 6.28497 12.0759 6.27643C12.1044 6.26789 12.1409 6.26895 12.1755 6.26681C12.712 6.2209 13.2486 6.1718 13.7871 6.1291C13.9131 6.11949 13.9375 6.0661 14.0025 6.02873C14.0249 6.01699 14.0452 5.99778 14.0716 5.99457C14.474 5.95827 14.8764 5.92411 15.2788 5.88888C15.5471 5.86539 15.8153 5.8419 16.0836 5.81948C16.2157 5.80881 16.2157 5.80773 16.3946 5.70631C16.4149 5.69456 16.4434 5.68068 16.4698 5.67748C17.242 5.60915 18.0123 5.54404 18.7845 5.47678C18.8496 5.47144 18.8963 5.44687 18.9288 5.41057C18.9613 5.37427 19.0081 5.34972 19.0711 5.34438C19.6747 5.291 20.2783 5.23869 20.8839 5.18851C20.9937 5.17997 21.0709 5.15435 21.1197 5.1063C21.1562 5.07 21.2009 5.05079 21.27 5.04545C21.8736 4.99421 22.4773 4.93975 23.0829 4.89064C23.1987 4.88103 23.2556 4.84474 23.3125 4.80203C23.3328 4.78709 23.3491 4.76253 23.3735 4.76039C23.6743 4.7305 23.973 4.69954 24.2758 4.67925C24.4018 4.67071 24.4445 4.62587 24.4953 4.58316C24.536 4.549 24.5827 4.53726 24.66 4.53299C24.8286 4.52338 24.9953 4.50524 25.1599 4.48709C25.1843 4.48389 25.2148 4.4604 25.2168 4.44545C25.2209 4.41769 25.1741 4.39847 25.0969 4.38886C24.2921 4.45826 23.4853 4.52765 22.6805 4.59704C22.5484 4.60879 22.5484 4.60879 22.3695 4.71022C22.3492 4.72196 22.3207 4.73584 22.2923 4.73905C21.52 4.80631 20.7498 4.8725 19.9775 4.93976C19.9125 4.9451 19.8658 4.96965 19.8332 5.00595C19.8007 5.04225 19.7539 5.06681 19.6909 5.07214C18.9532 5.1362 18.2155 5.20133 17.4758 5.26218C17.366 5.27073 17.2888 5.29527 17.24 5.34438C17.2034 5.38068 17.1587 5.3999 17.0896 5.40524C16.3844 5.46503 15.6812 5.52801 14.974 5.58567C14.9028 5.591 14.85 5.56004 14.8541 5.53122C14.8561 5.51627 14.8866 5.49172 14.911 5.48959C15.2788 5.45436 15.6447 5.41805 16.0145 5.39136C16.1385 5.38282 16.1751 5.33585 16.2381 5.29634C16.2584 5.28246 16.2747 5.26431 16.3011 5.25684C16.3295 5.2483 16.3661 5.24937 16.4007 5.24724C17.2725 5.17144 18.1444 5.09457 19.0183 5.02304C19.1443 5.01236 19.1686 4.96004 19.2337 4.92267C19.256 4.90986 19.2764 4.89065 19.3028 4.88852C19.5711 4.86289 19.8393 4.84047 20.1076 4.81805C20.577 4.77748 21.0465 4.73691 21.518 4.69634C21.6541 4.68459 21.6541 4.68459 21.8289 4.58423C21.8492 4.57249 21.8777 4.55755 21.9041 4.55542C23.1459 4.44759 24.3876 4.33976 25.6294 4.23299C25.6944 4.22766 25.7411 4.2031 25.7736 4.1668C25.8062 4.13157 25.8529 4.10595 25.9159 4.09954C27.5946 3.95434 29.2712 3.80914 30.9499 3.66608C31.0597 3.65647 31.1369 3.63405 31.1856 3.58387C31.2202 3.54757 31.2669 3.52836 31.336 3.52195C33.1814 3.36288 35.0267 3.2038 36.874 3.04366C38.1158 2.9369 39.3575 2.828 40.5993 2.72337C40.7131 2.71376 40.774 2.68066 40.8309 2.63689C40.8492 2.62194 40.8675 2.59738 40.8919 2.59525C41.1581 2.56856 41.4244 2.54401 41.6906 2.51945C41.7739 2.54828 41.8572 2.57604 41.9406 2.60487C42.0036 2.5643 42.0646 2.52266 42.1276 2.48209C42.53 2.45113 42.9262 2.40308 43.3327 2.38814C43.3591 2.38707 43.3876 2.40736 43.416 2.41803C43.605 2.48529 43.7127 2.47995 43.8326 2.39027C43.8753 2.35824 43.9119 2.32942 43.9769 2.32408C44.1781 2.30486 44.3814 2.29205 44.5806 2.26963C44.6883 2.25789 44.7777 2.26856 44.8549 2.30699C44.9098 2.33475 44.9667 2.3465 45.0338 2.3401C45.4036 2.30807 45.7715 2.2771 46.1414 2.24294C46.1678 2.2408 46.1921 2.22265 46.2125 2.20984C46.2551 2.18208 46.2917 2.15219 46.3324 2.12337C46.3873 2.14152 46.4482 2.1554 46.4929 2.17889C46.5498 2.20664 46.6027 2.20664 46.6799 2.19916C48.1553 2.06998 49.6328 1.944 51.1083 1.81375C51.2343 1.80308 51.2892 1.84792 51.3745 1.87141C51.403 1.87995 51.4314 1.89062 51.4619 1.89276C51.4944 1.89489 51.529 1.88849 51.5615 1.88529C52.6691 1.7892 53.7767 1.69418 54.8843 1.59809C55.0306 1.58528 55.0307 1.58528 55.2481 1.65147C55.2745 1.66001 55.3091 1.66962 55.3375 1.66642C55.8415 1.62478 56.3455 1.57995 56.8475 1.53724C56.9125 1.5319 56.9674 1.54898 57.0264 1.57354C57.1422 1.62158 57.1503 1.62158 57.2357 1.55112C57.2763 1.51803 57.319 1.49773 57.386 1.48812C57.4592 1.47745 57.5182 1.48066 57.5751 1.49988C57.6564 1.52657 57.7153 1.5714 57.8393 1.55966C58.3758 1.50948 58.9144 1.46785 59.4489 1.4166C59.5708 1.40486 59.6358 1.44115 59.7171 1.46784C59.7456 1.47745 59.772 1.4924 59.8025 1.4956C59.833 1.49881 59.8695 1.49133 59.9021 1.48812C60.5727 1.43047 61.2454 1.3739 61.914 1.31197C62.04 1.30023 62.0949 1.34613 62.1803 1.36962C62.2087 1.37816 62.2412 1.39311 62.2676 1.39098C62.67 1.35788 63.0745 1.32264 63.4769 1.28741C63.6212 1.2746 63.6211 1.27566 63.8406 1.34079C63.8671 1.34933 63.9016 1.35787 63.9301 1.35574C64.3996 1.31624 64.871 1.27567 65.3405 1.2351C65.4848 1.22228 65.4848 1.22229 65.9014 1.2778C65.9319 1.28207 65.9644 1.28849 65.9949 1.28635C66.5314 1.24044 67.07 1.1956 67.6065 1.14649C67.7142 1.13688 67.8036 1.14542 67.8809 1.18385C67.9357 1.21161 67.9926 1.22336 68.0597 1.21695C68.6633 1.16464 69.2689 1.11446 69.8705 1.05895C69.9863 1.04827 70.0615 1.07175 70.1428 1.10271C70.1692 1.11339 70.1957 1.12834 70.2262 1.13261C70.2566 1.13688 70.2912 1.1326 70.3237 1.1294C70.9273 1.07709 71.5329 1.02798 72.1345 0.971396C72.2564 0.959652 72.3214 0.995949 72.4027 1.02264C72.4312 1.03225 72.4617 1.05147 72.486 1.0504C72.7218 1.03225 72.9575 1.01624 73.1912 0.98955C73.3173 0.974603 73.3721 1.02371 73.4575 1.04719C73.4859 1.05467 73.5184 1.07069 73.5449 1.06855C74.0489 1.02692 74.5529 0.983146 75.0549 0.938306C75.126 0.9319 75.1789 0.9415 75.2358 0.969258C75.311 1.00663 75.3984 1.02157 75.5081 1.00983C75.7418 0.985273 75.9776 0.968196 76.2133 0.947911C76.3515 0.936167 76.3515 0.936171 76.7742 0.991687C76.8047 0.995958 76.8372 1.00236 76.8677 1.00022C77.2701 0.96606 77.6745 0.932965 78.0749 0.895599C78.1826 0.884922 78.272 0.894528 78.3493 0.932963C78.4041 0.960721 78.459 0.972471 78.5281 0.966065C78.898 0.934037 79.2658 0.902005 79.6357 0.869977C79.7698 0.858233 79.904 0.837943 80.0381 0.837943C80.1357 0.83901 80.2068 0.890254 80.2942 0.915877C80.3186 0.923351 80.3592 0.914819 80.3917 0.912684C80.8612 0.872115 81.3327 0.834744 81.8001 0.788836C81.922 0.777092 81.9871 0.813389 82.0684 0.84008C82.0968 0.849689 82.1273 0.868907 82.1517 0.867839C82.3204 0.856095 82.487 0.84008 82.6557 0.8262C82.8569 0.809118 83.0601 0.796307 83.2593 0.772819C83.4219 0.753602 83.4828 0.846482 83.6129 0.849685C83.7125 0.852888 83.8141 0.834741 83.9137 0.8262C84.1149 0.809118 84.3161 0.789903 84.5173 0.774956C84.5884 0.769618 84.6433 0.752529 84.6657 0.714095C84.6697 0.706621 84.6352 0.690614 84.6128 0.681005C84.3425 0.572107 84.3425 0.572102 84.0702 0.59559C83.9015 0.610537 83.7348 0.625486 83.5662 0.638297C83.5377 0.640433 83.5052 0.631892 83.4767 0.625486C83.3955 0.607337 83.4036 0.585986 83.4727 0.547552C83.5418 0.509118 83.5946 0.462146 83.6535 0.418374C83.7369 0.446132 83.8182 0.47388 83.9015 0.501638C83.9686 0.4963 84.0356 0.489904 84.1027 0.484566C84.438 0.456808 84.7734 0.42798 85.1087 0.402357C85.1331 0.400221 85.1635 0.421577 85.192 0.432253C85.2733 0.463214 85.3465 0.489898 85.4643 0.478154C85.7651 0.447193 86.0679 0.424773 86.3687 0.398082C86.5008 0.386338 86.5008 0.386339 86.7325 0.452532C86.7589 0.460005 86.7935 0.468547 86.8219 0.466411C87.1247 0.441856 87.4255 0.415169 87.7283 0.389546C87.7933 0.384208 87.8564 0.398086 87.9031 0.429047C87.9214 0.441859 87.9173 0.463207 87.9945 0.638297C88.2344 0.780291 88.399 0.765352 88.5656 0.752541C88.6368 0.747202 88.6997 0.741859 88.7465 0.720507C88.7709 0.708763 88.8014 0.691678 88.8014 0.677799C88.8014 0.667123 88.7567 0.650038 88.7282 0.647902C88.527 0.62655 88.336 0.671396 88.1388 0.681005C88.0474 0.685276 87.9681 0.647908 87.9519 0.587054C87.9478 0.569972 87.9417 0.551823 87.9356 0.534741C87.9295 0.517659 87.9255 0.49951 87.9194 0.482428C87.8401 0.47709 87.7934 0.496304 87.7588 0.532604C87.7304 0.562497 87.6897 0.596661 87.6348 0.612676C87.58 0.629757 87.5048 0.62656 87.4377 0.631898C87.3727 0.637237 87.3015 0.651114 87.2406 0.643641C87.1796 0.6351 87.1308 0.604133 87.0739 0.584916C87.0475 0.575308 87.015 0.561434 86.9886 0.563569C86.7549 0.581719 86.5232 0.599861 86.2915 0.623349C86.1696 0.636161 86.1086 0.591327 86.0314 0.563569C85.9704 0.542216 85.9094 0.547548 85.8992 0.596659C85.8728 0.714097 85.9663 0.763205 86.1736 0.740785C86.3443 0.721568 86.4988 0.718375 86.6329 0.790973C86.6512 0.800582 86.6939 0.804851 86.7203 0.802716C86.8869 0.789904 87.0515 0.773888 87.2182 0.761077C87.2487 0.758942 87.2812 0.763205 87.3097 0.767476C87.7243 0.825128 87.7243 0.826201 87.8645 0.813389C87.9316 0.806984 87.9966 0.801645 87.9905 0.639366C88.1185 0.465343 88.3218 0.453602 88.5189 0.427979C88.6469 0.411964 88.7018 0.458942 88.7851 0.483497C88.8135 0.492038 88.8441 0.509117 88.8705 0.506982C89.3074 0.47175 89.7423 0.434378 90.1772 0.394876C90.2504 0.38847 90.3032 0.394877 90.3601 0.422635C90.4333 0.457867 90.5146 0.480292 90.6304 0.46748C90.8621 0.441857 91.0979 0.425846 91.3336 0.404494C91.4535 0.393818 91.4535 0.393807 91.6954 0.459999C91.7218 0.467473 91.7563 0.476014 91.7848 0.473879C92.0205 0.45573 92.2543 0.433316 92.488 0.414099C92.553 0.408761 92.6119 0.423706 92.6627 0.452532C92.7135 0.481358 92.7745 0.496303 92.8375 0.490965C93.0733 0.471748 93.307 0.450402 93.5407 0.431185C93.5692 0.429049 93.6037 0.436522 93.6301 0.443996C93.8781 0.510188 93.8781 0.510177 93.9919 0.499501C94.1585 0.483487 94.3292 0.476022 94.4938 0.454669C94.6544 0.433317 94.7377 0.495234 94.8475 0.529398C95.1482 0.504842 95.451 0.484563 95.7498 0.454669C95.8717 0.441858 95.9368 0.477086 96.0181 0.504844C96.0465 0.514453 96.0749 0.53474 96.1014 0.533672C96.203 0.529402 96.3026 0.51766 96.4022 0.509119C96.5018 0.500578 96.6034 0.492038 96.703 0.483497C96.8168 0.514458 96.892 0.587056 97.0546 0.5625C97.1521 0.547554 97.2557 0.544351 97.3553 0.53581C97.4549 0.527269 97.5565 0.518729 97.6561 0.510188C97.7232 0.50485 97.7923 0.501642 97.8573 0.492033C97.9772 0.476019 98.0362 0.528339 98.1215 0.551827C98.15 0.5593 98.1825 0.572103 98.2089 0.569968C98.4101 0.555021 98.6133 0.542211 98.8104 0.517655C98.9629 0.498438 99.0665 0.530471 99.1742 0.575311C99.1966 0.58492 99.2352 0.590257 99.2636 0.588122C99.4994 0.569973 99.7331 0.547546 99.9668 0.528329C100.03 0.522991 100.091 0.540072 100.142 0.567831C100.194 0.596656 100.253 0.610546 100.318 0.605208C100.552 0.585991 100.788 0.564632 101.022 0.545415C101.05 0.543279 101.085 0.551822 101.111 0.560363C101.339 0.626556 101.339 0.627624 101.473 0.614813C101.505 0.61161 101.54 0.609466 101.572 0.606264C101.739 0.591317 101.912 0.585986 102.074 0.560363C102.261 0.531537 102.397 0.567838 102.53 0.628692C102.696 0.615881 102.867 0.608406 103.029 0.587054C103.151 0.571039 103.216 0.611607 103.298 0.638297C103.326 0.647906 103.357 0.667123 103.381 0.664988C103.617 0.646838 103.853 0.63083 104.084 0.604139C104.21 0.589192 104.265 0.637227 104.35 0.661782C104.379 0.670323 104.409 0.685278 104.436 0.683142C104.57 0.674601 104.704 0.661784 104.838 0.65004C104.995 0.636161 104.995 0.637227 105.202 0.702352C105.3 0.733313 105.397 0.708757 105.493 0.701284C105.594 0.692743 105.69 0.686339 105.771 0.730112C105.822 0.75787 105.883 0.774952 105.946 0.770682C106.08 0.761073 106.216 0.751469 106.348 0.735455C106.454 0.722643 106.545 0.73118 106.623 0.770682C106.677 0.79844 106.734 0.812328 106.801 0.805922C107.102 0.780299 107.405 0.753598 107.706 0.729043C107.732 0.726908 107.769 0.73652 107.793 0.746129C107.85 0.765346 107.905 0.786694 107.96 0.808046C108.092 0.798437 108.228 0.794178 108.358 0.779231C108.496 0.764284 108.622 0.758945 108.73 0.817664C108.752 0.830476 108.785 0.848615 108.811 0.847548C108.913 0.843277 109.013 0.832604 109.112 0.824063C109.212 0.815522 109.313 0.806982 109.413 0.798441C109.529 0.825132 109.602 0.902 109.765 0.877444C109.862 0.862498 109.966 0.859295 110.065 0.850754C110.165 0.842213 110.267 0.832605 110.366 0.825132C110.399 0.822996 110.435 0.817655 110.464 0.821926C110.494 0.826196 110.521 0.841146 110.547 0.851822C110.628 0.882783 110.703 0.913748 110.819 0.895599C110.917 0.880652 111.021 0.877448 111.12 0.867839C111.256 0.856095 111.256 0.856098 111.482 0.923358C111.573 0.951116 111.677 0.914818 111.764 0.938306C111.823 0.954321 111.874 0.981005 111.931 0.999155C111.955 1.00663 111.994 1.00983 112.022 1.00769C112.157 0.998083 112.293 0.988479 112.425 0.972464C112.533 0.959653 112.622 0.972463 112.697 1.0109C112.752 1.03866 112.807 1.05041 112.876 1.044C113.211 1.01411 113.547 0.988475 113.88 0.955379C113.994 0.943635 114.085 0.961789 114.148 1.00022C114.256 1.06642 114.408 0.988481 114.52 1.04186C114.589 1.07496 114.658 1.1134 114.784 1.09738C115.016 1.06962 115.252 1.05467 115.485 1.03545C115.569 1.06428 115.652 1.09311 115.737 1.12193C115.872 1.11019 116.006 1.09844 116.14 1.08776C116.239 1.07922 116.341 1.06961 116.441 1.06214C116.473 1.06001 116.508 1.05573 116.538 1.06107C116.569 1.06641 116.593 1.08029 116.622 1.09097C116.762 1.14328 116.762 1.14436 116.993 1.123C117.093 1.11339 117.189 1.10699 117.272 1.14969C117.349 1.1892 117.441 1.19666 117.546 1.18492C117.745 1.16357 117.947 1.14755 118.15 1.13261C118.213 1.12727 118.272 1.14542 118.325 1.17318C118.404 1.21695 118.501 1.21268 118.601 1.20094C118.733 1.18599 118.863 1.17105 118.975 1.23083C118.997 1.24365 119.032 1.26179 119.056 1.26072C119.223 1.25218 119.392 1.24578 119.554 1.22549C119.717 1.20521 119.796 1.2714 119.908 1.30343C120.074 1.28955 120.243 1.27567 120.41 1.26179C120.442 1.25858 120.481 1.24898 120.509 1.25432C120.629 1.27674 120.698 1.35681 120.863 1.33225C120.958 1.31837 121.062 1.31411 121.162 1.31091C121.188 1.30984 121.223 1.32798 121.241 1.34186C121.251 1.34933 121.241 1.36961 121.229 1.38029C121.192 1.41018 121.147 1.43795 121.115 1.46891C121.111 1.47318 121.149 1.49239 121.172 1.50093C121.227 1.52015 121.29 1.51695 121.363 1.50841C121.426 1.50094 121.491 1.51589 121.536 1.54792C121.554 1.56073 121.548 1.58208 121.509 1.65254C121.509 1.70485 121.552 1.68136 121.566 1.6472C121.588 1.59809 121.546 1.58207 121.464 1.60876C121.408 1.62798 121.379 1.65574 121.393 1.67816C121.402 1.68991 121.44 1.70485 121.509 1.65254C121.688 1.58848 121.822 1.57675 121.956 1.565C121.991 1.5618 122.032 1.55111 122.056 1.55752C122.143 1.58314 122.225 1.61411 122.31 1.64294C122.408 1.63653 122.499 1.62051 122.594 1.66215C122.729 1.72086 122.735 1.71553 122.865 1.70378C122.932 1.69738 122.999 1.69205 123.066 1.68671C123.133 1.68137 123.186 1.69738 123.245 1.72194C123.365 1.77212 123.375 1.77211 123.454 1.70378C123.501 1.66215 123.533 1.64827 123.592 1.66749C123.787 1.73261 123.789 1.73688 123.956 1.71766C124.094 1.70165 124.224 1.69738 124.326 1.75823C124.395 1.80094 124.417 1.79133 124.472 1.74649C124.619 1.62799 124.686 1.63012 124.96 1.71553C125.088 1.7561 125.22 1.71233 125.35 1.70699C125.46 1.70272 125.537 1.72834 125.545 1.7956C125.551 1.83724 125.57 1.86713 125.643 1.88101C125.671 1.88635 125.706 1.89382 125.734 1.89169C125.903 1.87888 126.07 1.86393 126.238 1.84898C126.324 1.84151 126.37 1.79134 126.354 1.72514C126.336 1.65468 126.368 1.62905 126.49 1.60876C126.564 1.59702 126.623 1.59917 126.681 1.61838C126.746 1.63973 126.728 1.65895 126.671 1.69739C126.535 1.79134 126.551 1.84898 126.726 1.9141C126.787 1.93652 126.836 1.95682 126.85 1.98991C126.858 2.007 126.85 2.02941 126.868 2.04223C126.968 2.11376 127.106 2.15967 127.261 2.19383C127.409 2.16501 127.511 2.21304 127.624 2.25148C127.714 2.28137 127.819 2.25575 127.915 2.24508C128.023 2.23333 128.112 2.24187 128.189 2.28137C128.244 2.30913 128.301 2.32194 128.368 2.3166C128.502 2.30486 128.639 2.29739 128.771 2.2803C128.884 2.26536 128.97 2.28671 129.041 2.32301C129.13 2.36892 129.23 2.33795 129.323 2.34436C129.449 2.35183 129.512 2.44685 129.677 2.42122C129.775 2.40628 129.876 2.40094 129.978 2.39667C130.004 2.3956 130.037 2.41376 130.059 2.42657C130.167 2.48529 130.293 2.48208 130.431 2.465C130.527 2.45326 130.62 2.44259 130.713 2.48316C130.868 2.55148 131.039 2.61127 131.201 2.67426C131.224 2.72338 131.207 2.78102 131.323 2.80984C131.384 2.82479 131.441 2.84722 131.488 2.87177C131.545 2.9006 131.598 2.90807 131.671 2.9006C131.803 2.88565 131.941 2.88244 132.071 2.86322C132.191 2.84614 132.266 2.88138 132.339 2.91448C132.398 2.94117 132.453 2.95398 132.524 2.93476C132.597 2.91661 132.65 2.92835 132.709 2.95717C132.793 2.99668 132.799 2.99241 133.075 3.00416C133.104 3.00522 133.138 3.02123 133.154 3.03511C133.162 3.04258 133.144 3.06395 133.13 3.07462C133.112 3.08744 133.083 3.10237 133.057 3.10558C132.756 3.13333 132.453 3.15789 132.152 3.18565C132.122 3.18885 132.089 3.19633 132.067 3.20701C132.043 3.21875 132.012 3.23476 132.012 3.2497C132.012 3.26038 132.053 3.27319 132.081 3.28067C132.171 3.30522 132.276 3.26786 132.364 3.29562C132.423 3.31377 132.471 3.33938 132.53 3.35646C132.555 3.36394 132.593 3.36287 132.624 3.36074C132.725 3.35327 132.825 3.34259 132.927 3.33619C132.955 3.33512 132.988 3.3458 133.014 3.35434C133.209 3.4184 133.209 3.4184 133.378 3.40452C133.445 3.39918 133.516 3.38316 133.579 3.38957C133.64 3.39597 133.693 3.4248 133.748 3.44295C133.862 3.48138 133.969 3.51875 133.977 3.60202C133.981 3.63405 134.048 3.66181 134.116 3.66394C134.181 3.66608 134.25 3.65434 134.317 3.64794C134.475 3.63513 134.475 3.63512 134.681 3.70025C134.737 3.7184 134.798 3.72053 134.872 3.70985C134.9 3.70558 134.935 3.70986 134.965 3.7152C135.065 3.73121 135.065 3.75149 135 3.78993C134.908 3.84651 134.916 3.85185 135.172 3.8999C135.27 3.91804 135.345 3.95221 135.426 3.9821C135.558 4.03015 135.556 4.03014 135.469 4.09313C135.449 4.10701 135.43 4.12196 135.41 4.1369C135.351 4.17854 135.304 4.22338 135.183 4.22765C135.048 4.23192 134.914 4.24901 134.78 4.26075C134.65 4.2725 134.616 4.29811 134.628 4.37071C134.642 4.45825 134.668 4.46786 134.902 4.4668C134.969 4.4668 135.028 4.47534 135.079 4.50416C135.054 4.53833 135.01 4.56502 134.945 4.57142C134.778 4.58744 134.609 4.60132 134.443 4.6152C134.309 4.62694 134.175 4.63868 134.04 4.65043C133.957 4.6579 133.904 4.71342 133.927 4.77534C133.939 4.81057 133.949 4.8458 133.959 4.88104C133.981 4.9515 134.024 4.96965 134.16 4.96645C134.195 4.96538 134.227 4.95684 134.26 4.95897C134.392 4.96644 134.455 5.05505 134.613 5.0369C134.746 5.02196 134.884 5.01876 135.014 4.99954C135.134 4.98246 135.201 5.0209 135.284 5.04973C135.313 5.05934 135.343 5.07961 135.367 5.07854C135.536 5.0668 135.705 5.05507 135.869 5.03478C135.947 5.02624 135.993 5.03264 136.054 5.05827C136.201 5.12019 136.205 5.11698 136.422 5.09777C136.581 5.08282 136.583 5.08495 136.786 5.15008C136.843 5.16823 136.904 5.16823 136.977 5.15968C137.073 5.14901 137.172 5.13193 137.272 5.14794C137.302 5.15221 137.341 5.16503 137.351 5.17891C137.357 5.18852 137.329 5.212 137.304 5.21948C137.125 5.27499 136.916 5.26539 136.721 5.28781C136.66 5.29421 136.599 5.27393 136.548 5.2451C136.495 5.21627 136.438 5.20453 136.369 5.20987C136.235 5.22162 136.099 5.22909 135.967 5.24617C135.853 5.26111 135.774 5.23656 135.695 5.20346C135.668 5.19278 135.638 5.1725 135.611 5.17356C135.311 5.19492 135.008 5.21627 134.709 5.24617C134.589 5.25898 134.52 5.22482 134.439 5.19599C134.41 5.18638 134.382 5.1661 134.355 5.16716C134.254 5.17144 134.154 5.18318 134.053 5.19172C133.683 5.22375 133.315 5.25578 132.945 5.28567C132.921 5.2878 132.89 5.26538 132.862 5.25577C132.807 5.23656 132.75 5.2184 132.693 5.20025C132.591 5.2088 132.492 5.21947 132.39 5.22588C132.317 5.23015 132.252 5.2451 132.242 5.28567C132.236 5.31236 132.303 5.33691 132.374 5.33478C132.443 5.33264 132.512 5.31983 132.569 5.33371C132.851 5.40204 132.851 5.40311 133.028 5.38923C133.183 5.37641 133.166 5.36573 133.303 5.42445C133.362 5.45008 133.414 5.46503 133.482 5.45862C133.648 5.44368 133.817 5.42873 133.986 5.41592C134.012 5.41378 134.046 5.42446 134.073 5.433C134.272 5.49706 134.272 5.49919 134.437 5.48318C134.652 5.46396 134.66 5.45862 134.805 5.52375C134.904 5.56859 134.996 5.53763 135.091 5.53549C135.201 5.57713 135.321 5.6145 135.42 5.66148C135.538 5.71699 135.662 5.70737 135.796 5.69136C135.896 5.67962 135.993 5.67535 136.075 5.71912C136.152 5.75969 136.245 5.76397 136.351 5.75329C136.447 5.74368 136.544 5.72339 136.644 5.74688C136.67 5.75328 136.711 5.7693 136.709 5.77891C136.707 5.79386 136.68 5.81521 136.654 5.82162C136.467 5.86539 136.262 5.86432 136.065 5.88461C136.038 5.88781 136.004 5.87606 135.977 5.86752C135.92 5.8483 135.865 5.82589 135.811 5.8056C135.711 5.81201 135.609 5.81414 135.512 5.82695C135.437 5.83656 135.38 5.8355 135.325 5.80988C135.274 5.78639 135.219 5.75756 135.158 5.75008C135.097 5.74261 135.026 5.75863 134.959 5.76503C134.892 5.77144 134.815 5.76823 134.762 5.78531C134.709 5.80239 134.676 5.83976 134.642 5.86966C134.603 5.90275 134.55 5.91344 134.473 5.91664C134.402 5.91984 134.345 5.91557 134.292 5.88567C134.27 5.87286 134.24 5.86325 134.209 5.85471C134.181 5.84724 134.148 5.83549 134.122 5.83762C133.819 5.86218 133.518 5.88888 133.215 5.9145C133.065 5.92731 133.067 5.9273 132.754 5.86431C132.725 5.85898 132.691 5.8515 132.662 5.85364C132.494 5.86645 132.327 5.8814 132.158 5.89635C131.988 5.91129 131.99 5.90916 131.699 5.8419C131.646 5.82909 131.569 5.84617 131.506 5.84404C131.374 5.8387 131.309 5.74902 131.155 5.7661C131.022 5.78105 130.884 5.78425 130.752 5.80346C130.632 5.82055 130.563 5.78318 130.482 5.75436C130.453 5.74475 130.423 5.7234 130.398 5.72553C130.096 5.74902 129.795 5.77571 129.392 5.77891C129.293 5.77891 129.338 5.80133 129.403 5.80881C129.496 5.82055 129.527 5.79813 129.476 5.75543C129.439 5.72553 129.386 5.71058 129.344 5.71805C129.321 5.72232 129.293 5.74261 129.392 5.77891C129.498 5.81948 129.492 5.8419 129.51 5.85471C129.555 5.88567 129.618 5.89848 129.683 5.89421C129.785 5.88674 129.884 5.87606 129.986 5.86966C130.014 5.86752 130.049 5.875 130.075 5.88354C130.299 5.94973 130.301 5.954 130.539 5.92838C130.614 5.92091 130.669 5.92091 130.728 5.94119C130.809 5.96895 130.868 6.01592 130.992 6.00097C131.157 5.98069 131.325 5.96895 131.494 5.95721C131.52 5.95507 131.549 5.97429 131.579 5.98283C131.663 6.00845 131.724 6.0565 131.848 6.03621C131.943 6.0202 132.047 6.01592 132.148 6.01272C132.175 6.01165 132.215 6.02873 132.228 6.04261C132.252 6.06717 132.221 6.096 132.152 6.11628C132.124 6.12483 132.085 6.12269 132.053 6.12589C131.919 6.13763 131.785 6.15044 131.65 6.16005C131.579 6.16539 131.512 6.18141 131.504 6.22091C131.498 6.2476 131.571 6.27108 131.64 6.26895C131.742 6.26574 131.843 6.2572 131.941 6.24333C132.114 6.21984 132.264 6.22624 132.404 6.2935C132.504 6.34048 132.498 6.3234 132.604 6.46219C132.63 6.49743 132.709 6.50062 132.778 6.49849C132.945 6.49315 133.022 6.50917 133.008 6.54227C132.99 6.58284 132.931 6.59564 132.856 6.60098C132.721 6.60952 132.587 6.6234 132.453 6.63515C132.421 6.63835 132.384 6.64475 132.354 6.64262C132.323 6.64048 132.295 6.62767 132.268 6.61806C132.211 6.59778 132.163 6.56681 132.102 6.55934C132.041 6.55186 131.969 6.56788 131.902 6.57429C131.835 6.57962 131.764 6.59564 131.703 6.58817C131.642 6.58069 131.591 6.54867 131.537 6.52945C131.51 6.51985 131.478 6.50489 131.451 6.50596C131.317 6.5145 131.183 6.52838 131.049 6.53906C130.884 6.55294 130.884 6.55294 130.685 6.48675C130.628 6.46753 130.569 6.4686 130.494 6.47714C130.331 6.49422 130.329 6.49101 130.033 6.42909C130.004 6.42269 129.97 6.41521 129.941 6.41842C129.638 6.44297 129.338 6.46966 129.037 6.49528C128.779 6.5177 128.779 6.51771 128.636 6.62447C128.531 6.70348 128.529 6.70347 128.632 6.73977C128.716 6.76967 128.791 6.81344 128.882 6.82945C128.968 6.8444 129.073 6.79636 129.167 6.84547C129.214 6.87002 129.275 6.89672 129.334 6.90099C129.427 6.90632 129.527 6.87536 129.616 6.92233C129.661 6.94582 129.728 6.97039 129.785 6.97145C129.884 6.97359 129.986 6.9565 130.086 6.94902C130.116 6.94689 130.151 6.94689 130.179 6.95223C130.21 6.95864 130.236 6.97145 130.262 6.98213C130.344 7.01843 130.431 7.0355 130.537 7.01735C130.709 6.98746 130.864 7.00241 130.998 7.07073C131.016 7.08034 131.061 7.08142 131.089 7.07715C131.163 7.06647 131.226 7.0654 131.281 7.08568C131.303 7.09422 131.335 7.10916 131.331 7.11877C131.325 7.13479 131.301 7.15614 131.274 7.16148C131.083 7.19778 130.878 7.20206 130.681 7.22127C130.655 7.22341 130.622 7.20952 130.596 7.19991C130.539 7.1807 130.49 7.14867 130.429 7.1412C130.368 7.13373 130.297 7.14761 130.23 7.15294C130.163 7.15828 130.092 7.1743 130.031 7.16789C129.97 7.16042 129.913 7.13372 129.864 7.11024C129.807 7.08355 129.752 7.08035 129.677 7.09103C129.579 7.10491 129.478 7.10704 129.378 7.11451C129.323 7.09423 129.269 7.0718 129.212 7.05258C129.185 7.04297 129.153 7.03123 129.124 7.0323C128.99 7.04084 128.856 7.05365 128.722 7.06539C128.588 7.07713 128.588 7.07715 128.36 7.01095C128.334 7.00348 128.299 6.99494 128.271 6.99707C128.102 7.00989 127.935 7.02589 127.767 7.0387C127.702 7.04404 127.643 7.02909 127.59 7.00027C127.539 6.97144 127.478 6.95543 127.415 6.96077C127.147 6.98319 126.879 7.00454 126.61 7.03123C126.503 7.04191 126.411 7.0323 126.338 6.99387C126.253 6.9501 126.157 6.96077 126.058 6.96932C125.832 6.99067 125.83 6.98959 125.686 6.93514C125.657 6.92447 125.629 6.90418 125.602 6.90525C125.369 6.92126 125.133 6.93621 124.901 6.96183C124.779 6.97571 124.714 6.93835 124.633 6.91059C124.604 6.90098 124.574 6.8807 124.55 6.88283C124.381 6.89458 124.212 6.90526 124.048 6.92661C123.883 6.94796 123.82 6.84867 123.696 6.84974C123.527 6.85081 123.361 6.87537 123.194 6.89031C123.06 6.90206 122.926 6.9138 122.792 6.92554C122.657 6.93728 122.523 6.94689 122.389 6.96077C122.318 6.96824 122.265 6.95863 122.206 6.93194C122.131 6.89671 122.042 6.86896 121.96 6.83693C121.836 6.79102 121.836 6.79102 121.686 6.80383C121.654 6.80703 121.619 6.80916 121.586 6.81236C121.341 6.83585 121.341 6.83372 121.028 6.76646C121.013 6.76326 120.977 6.77501 120.963 6.78355C120.92 6.81131 120.881 6.84119 120.843 6.87002C120.788 6.85294 120.721 6.84333 120.684 6.81878C120.58 6.74938 120.418 6.8444 120.312 6.77607C120.274 6.75045 120.206 6.72802 120.146 6.72162C120.083 6.71521 120.011 6.73016 119.946 6.73657C119.778 6.75258 119.778 6.75152 119.633 6.84654C119.56 6.89351 119.455 6.88497 119.359 6.89564C119.259 6.90739 119.164 6.91379 119.081 6.87002C119.005 6.83052 118.914 6.82091 118.806 6.83372C118.674 6.84974 118.538 6.85934 118.404 6.86895C118.375 6.87109 118.341 6.86575 118.312 6.85935C118.001 6.79636 118.001 6.79529 117.851 6.80917C117.784 6.81558 117.715 6.8177 117.65 6.82731C117.54 6.84439 117.457 6.82198 117.378 6.78781C117.351 6.77714 117.321 6.75686 117.294 6.75793C117.16 6.76327 117.028 6.77287 116.896 6.78248C116.794 6.78995 116.693 6.79422 116.595 6.80917C116.433 6.83373 116.353 6.76432 116.241 6.73229C116.075 6.74617 115.906 6.75578 115.74 6.775C115.662 6.78354 115.611 6.78034 115.553 6.75472C115.477 6.72269 115.408 6.68639 115.286 6.70241C115.124 6.72376 114.953 6.73124 114.786 6.74405C114.675 6.71095 114.593 6.64368 114.433 6.66824C114.335 6.68318 114.232 6.68639 114.132 6.69493C113.998 6.70667 113.864 6.71736 113.73 6.73017C113.585 6.74298 113.587 6.73978 113.366 6.67679C113.238 6.63942 113.106 6.68106 112.976 6.68746C112.874 6.6928 112.823 6.74191 112.848 6.8049C112.872 6.86789 112.817 6.917 112.724 6.92554C112.49 6.94582 112.254 6.96717 112.02 6.98532C111.992 6.98745 111.957 6.97998 111.931 6.97251C111.681 6.90525 111.681 6.90633 111.569 6.91593C111.403 6.93195 111.232 6.94048 111.067 6.96077C110.953 6.97465 110.87 6.95223 110.797 6.91593C110.74 6.88818 110.687 6.88177 110.614 6.88817C109.809 6.95971 109.004 7.0259 108.202 7.09956C108.082 7.11024 108.013 7.07928 107.931 7.05046C107.903 7.04085 107.877 7.02056 107.848 7.02056C107.781 7.02056 107.714 7.03017 107.647 7.03658C107.346 7.0622 107.045 7.09316 106.743 7.11237C106.614 7.12091 106.58 7.17003 106.525 7.2106C106.482 7.24156 106.434 7.25437 106.358 7.25864C106.285 7.26291 106.232 7.25757 106.175 7.22981C106.102 7.19351 106.019 7.17109 105.905 7.18603C105.773 7.20312 105.639 7.2106 105.503 7.22234C105.434 7.22768 105.381 7.24689 105.359 7.28533C105.354 7.29173 105.397 7.30775 105.422 7.31736C105.503 7.34939 105.58 7.38676 105.671 7.40918C105.765 7.4316 105.867 7.40596 105.964 7.39956C105.999 7.39742 106.031 7.39102 106.064 7.39209C106.094 7.39316 106.131 7.3985 106.153 7.40811C106.259 7.45615 106.371 7.48925 106.517 7.46042C106.643 7.4743 106.708 7.56291 106.869 7.53942C106.966 7.52554 107.068 7.51914 107.169 7.5138C107.196 7.51273 107.224 7.53195 107.253 7.54156C107.334 7.56825 107.399 7.61095 107.521 7.5928C107.651 7.57359 107.789 7.57039 107.921 7.55544C107.994 7.5469 108.047 7.55437 108.104 7.58213C108.177 7.61736 108.261 7.64404 108.374 7.62696C108.472 7.61202 108.576 7.60881 108.675 7.5992C108.805 7.58746 108.805 7.58853 109.037 7.65472C109.063 7.66219 109.098 7.67074 109.126 7.6686C109.295 7.65579 109.462 7.63977 109.63 7.62696C109.695 7.62162 109.758 7.6355 109.803 7.66646C109.821 7.67928 109.815 7.70064 109.821 7.71879C109.486 7.74762 109.151 7.77217 108.817 7.8074C108.691 7.82128 108.635 7.7775 108.551 7.75295C108.523 7.74441 108.492 7.72626 108.466 7.72839C108.23 7.74654 107.996 7.76576 107.763 7.78924C107.69 7.79672 107.635 7.79244 107.58 7.76148C107.44 7.67928 107.269 7.72412 107.11 7.73586C106.988 7.7444 106.95 7.7775 106.964 7.84797C106.982 7.93124 107.055 7.95687 107.242 7.94192C107.31 7.93658 107.377 7.9291 107.444 7.92483C107.509 7.92056 107.568 7.93444 107.62 7.96327C107.671 7.99209 107.732 8.00704 107.795 8.00277C107.929 7.99316 108.066 7.98356 108.196 7.96754C108.303 7.95473 108.393 7.9654 108.468 8.00491C108.551 8.04868 108.649 8.03907 108.746 8.02946C108.974 8.00811 108.976 8.00918 109.118 8.06256C109.147 8.07324 109.175 8.09353 109.202 8.09246C109.435 8.07644 109.671 8.06256 109.901 8.03694C110.021 8.02413 110.09 8.05829 110.169 8.08605C110.197 8.09565 110.226 8.11701 110.252 8.11487C110.421 8.10313 110.59 8.09138 110.754 8.0711C110.832 8.06149 110.878 8.06789 110.941 8.09351C111.092 8.1565 111.096 8.15437 111.309 8.13408C111.374 8.12768 111.445 8.11594 111.506 8.12448C111.567 8.13302 111.616 8.16399 111.673 8.1832C111.699 8.19174 111.732 8.20348 111.76 8.20134C111.894 8.1928 112.029 8.18 112.163 8.16826C112.289 8.15651 112.289 8.15758 112.524 8.22377C112.62 8.25153 112.72 8.22804 112.815 8.2195C112.919 8.20989 113.012 8.2099 113.091 8.25153C113.171 8.29317 113.266 8.29103 113.368 8.28249C113.463 8.27394 113.561 8.25047 113.658 8.27929C113.882 8.34548 113.882 8.34654 114.02 8.33373C114.221 8.31558 114.421 8.2985 114.624 8.28249C114.65 8.28035 114.685 8.29317 114.711 8.30171C114.768 8.32093 114.817 8.35295 114.878 8.36042C114.939 8.36896 115.01 8.35615 115.075 8.34975C115.284 8.32946 115.299 8.32199 115.439 8.39245C115.557 8.45011 115.703 8.36683 115.813 8.43302C115.876 8.47039 115.961 8.50028 116.079 8.48213C116.176 8.46718 116.278 8.46291 116.38 8.45437C116.54 8.44049 116.54 8.44157 116.743 8.50563C116.77 8.51417 116.804 8.52484 116.831 8.5227C116.965 8.51416 117.101 8.50669 117.231 8.48747C117.384 8.46505 117.481 8.50563 117.595 8.54513C117.684 8.57609 117.79 8.55046 117.886 8.53979C117.989 8.52911 118.083 8.53231 118.16 8.57394C118.241 8.61665 118.337 8.61131 118.438 8.60277C118.534 8.5953 118.631 8.57074 118.729 8.60064C118.938 8.66683 118.938 8.66683 119.091 8.65402C119.225 8.64227 119.359 8.62947 119.493 8.62093C119.52 8.61879 119.552 8.63267 119.579 8.64227C119.635 8.66149 119.684 8.69353 119.745 8.701C119.806 8.70847 119.877 8.69459 119.944 8.68926C120.011 8.68392 120.083 8.6679 120.143 8.67431C120.204 8.68071 120.261 8.70741 120.31 8.7309C120.367 8.75865 120.42 8.76185 120.497 8.75117C120.595 8.73729 120.696 8.73409 120.796 8.72662C120.851 8.74691 120.908 8.76719 120.96 8.78961C121.015 8.81309 121.074 8.81096 121.149 8.80349C121.399 8.77786 121.401 8.78107 121.611 8.84726C121.706 8.87716 121.806 8.8526 121.901 8.84513C122.003 8.83658 122.099 8.83232 122.178 8.87502C122.255 8.91559 122.351 8.92092 122.452 8.90811C122.517 8.89957 122.586 8.89424 122.653 8.89104C122.684 8.88997 122.72 8.89424 122.743 8.90278C122.851 8.94762 122.956 8.98819 123.105 8.95937C123.235 8.96791 123.3 9.05545 123.456 9.03837C123.588 9.02342 123.726 9.02021 123.857 9.00099C123.976 8.98391 124.062 9.01382 124.123 9.05118C124.232 9.11738 124.387 9.0277 124.497 9.09282C124.56 9.13019 124.641 9.16008 124.763 9.14407C124.897 9.12698 124.94 9.1494 124.978 9.21666C125.001 9.25509 124.997 9.28606 124.956 9.31595C124.915 9.34691 124.871 9.34158 124.806 9.30635C124.73 9.26684 124.641 9.25936 124.533 9.2679C124.428 9.27644 124.363 9.22094 124.275 9.19958C124.188 9.17716 124.084 9.21453 123.993 9.1857C123.777 9.11844 123.777 9.11844 123.631 9.13125C123.531 9.1398 123.428 9.14407 123.33 9.15901C123.214 9.17716 123.139 9.14406 123.06 9.11417C123.031 9.10349 123.003 9.0832 122.979 9.08427C122.745 9.10029 122.509 9.11524 122.277 9.14193C122.155 9.15581 122.09 9.11737 122.009 9.09068C121.981 9.08108 121.95 9.06186 121.926 9.06399C121.725 9.07894 121.525 9.09816 121.324 9.11631C121.286 9.14513 121.243 9.17288 121.206 9.20385C121.168 9.23587 121.115 9.24976 121.038 9.24869C120.91 9.24869 120.784 9.29353 120.656 9.23695C120.524 9.1793 120.513 9.1825 120.385 9.19638C120.223 9.21453 120.05 9.21026 119.898 9.2519C119.871 9.25937 119.843 9.27964 119.843 9.29459C119.841 9.3042 119.883 9.31808 119.91 9.32662C119.999 9.35225 120.103 9.31488 120.192 9.34157C120.251 9.35866 120.3 9.38427 120.359 9.40242C120.383 9.4099 120.42 9.40883 120.452 9.40777C120.487 9.4067 120.519 9.39923 120.552 9.4003C120.582 9.40137 120.615 9.40776 120.639 9.41737C120.751 9.45794 120.869 9.49531 120.969 9.54336C121.066 9.59033 121.158 9.5583 121.255 9.55617C121.645 9.6309 121.645 9.63197 121.908 9.60848C121.973 9.60314 122.04 9.59674 122.107 9.59781C122.135 9.59781 122.162 9.61701 122.19 9.62769C122.271 9.65972 122.349 9.68855 122.462 9.67147C122.56 9.65652 122.664 9.65331 122.763 9.64371C122.897 9.63196 122.897 9.63196 123.125 9.69922C123.182 9.71631 123.243 9.71418 123.316 9.70564C123.379 9.69816 123.444 9.71418 123.489 9.74514C123.507 9.75795 123.501 9.7793 123.507 9.79745C123.306 9.81453 123.103 9.82628 122.907 9.8519C122.781 9.86792 122.725 9.82201 122.641 9.79745C122.613 9.78891 122.582 9.77076 122.556 9.7729C122.357 9.78891 122.158 9.80705 121.958 9.8284C121.934 9.83054 121.903 9.8551 121.901 9.87004C121.897 9.8978 121.948 9.92449 122.021 9.92342C122.119 9.92236 122.214 9.9042 122.302 9.94798C122.375 9.98641 122.466 10.0035 122.574 9.98642C122.639 9.97681 122.708 9.97681 122.773 9.96827C122.946 9.94265 123.103 9.94798 123.233 10.0206C123.332 10.0398 123.43 10.0217 123.525 10.012C123.596 10.0046 123.665 9.99709 123.716 10.0174C123.824 10.0601 123.93 10.1028 124.078 10.074C124.239 10.1039 124.361 10.1668 124.495 10.2181C124.558 10.2426 124.606 10.2565 124.68 10.2405C124.71 10.2341 124.747 10.2341 124.779 10.2309C124.846 10.2256 124.917 10.2095 124.978 10.216C125.039 10.2234 125.09 10.2544 125.145 10.2736C125.171 10.2832 125.202 10.2992 125.228 10.2982C125.33 10.2928 125.43 10.2821 125.529 10.2736C125.629 10.2661 125.728 10.2587 125.828 10.2512C125.911 10.2789 125.997 10.3067 126.08 10.3345C126.214 10.3227 126.348 10.311 126.48 10.3003C126.629 10.2875 126.629 10.2886 126.842 10.3547C126.937 10.3846 127.039 10.3654 127.131 10.3515C127.283 10.3291 127.385 10.3697 127.492 10.4124C127.515 10.4209 127.555 10.4263 127.582 10.422C127.687 10.4071 127.779 10.4188 127.856 10.4583C127.911 10.4861 127.966 10.4989 128.033 10.4935C128.267 10.4733 128.5 10.4519 128.734 10.4338C128.762 10.4316 128.795 10.4412 128.821 10.4498C129.029 10.5149 129.031 10.5181 129.183 10.501C129.319 10.4861 129.445 10.4797 129.553 10.5384C129.575 10.5512 129.61 10.5693 129.634 10.5683C129.801 10.5576 129.97 10.5459 130.134 10.5277C130.21 10.5192 130.262 10.5224 130.321 10.5469C130.396 10.5779 130.464 10.6153 130.588 10.6014C130.931 10.5619 130.933 10.5683 131.339 10.6419C131.368 10.6473 131.407 10.6387 131.439 10.6345C131.508 10.6238 131.559 10.6387 131.62 10.6633C131.756 10.7188 131.76 10.7156 131.89 10.7039C131.99 10.6943 132.093 10.6921 132.191 10.6761C132.341 10.6526 132.441 10.6943 132.553 10.7338C132.642 10.7647 132.746 10.7391 132.841 10.7295C132.945 10.7188 133.038 10.722 133.116 10.7626C133.169 10.7903 133.225 10.8053 133.292 10.8C133.526 10.7807 133.76 10.7594 133.994 10.7402C134.022 10.738 134.057 10.7466 134.083 10.754C134.315 10.8202 134.315 10.8234 134.544 10.7989C134.618 10.7914 134.679 10.7893 134.733 10.8117C134.786 10.833 134.843 10.8533 134.898 10.8736C134.998 10.8661 135.099 10.864 135.197 10.8512C135.272 10.8416 135.325 10.8459 135.384 10.8683C135.461 10.8971 135.526 10.9473 135.648 10.9227C135.711 10.911 135.784 10.9142 135.847 10.9035C135.922 10.8896 135.973 10.8982 136.032 10.9259C136.105 10.959 136.18 10.9932 136.298 10.9761C136.428 10.9569 136.567 10.9537 136.699 10.9387C136.772 10.9302 136.823 10.9387 136.882 10.9665C136.955 11.0017 137.038 11.0241 137.152 11.0103C137.384 10.9836 137.386 10.9889 137.611 11.0562C137.668 11.0733 137.729 11.0711 137.802 11.0626C137.865 11.0551 137.93 11.0711 137.975 11.1021C138.018 11.1362 138.014 11.1576 138.018 11.1757ZM119.908 1.54685C119.841 1.55218 119.774 1.55859 119.676 1.46571C119.67 1.44969 119.674 1.43048 119.66 1.4166C119.627 1.38777 119.577 1.36749 119.516 1.36429C119.406 1.36002 119.274 1.39631 119.276 1.42407C119.278 1.44756 119.312 1.46784 119.379 1.48705C119.408 1.49453 119.43 1.50734 119.457 1.51588C119.534 1.54044 119.595 1.58849 119.707 1.56393C119.696 1.53084 119.686 1.49774 119.707 1.56393C119.696 1.6045 119.727 1.63333 119.8 1.64507C119.82 1.64828 119.851 1.64614 119.867 1.63973C119.93 1.61624 119.94 1.58422 119.894 1.49988C119.885 1.51376 119.892 1.5383 119.91 1.54471C119.928 1.55112 119.973 1.54578 119.995 1.53831C120.052 1.51803 120.081 1.49133 120.066 1.46891C120.058 1.45717 120.02 1.44222 119.995 1.44222C119.952 1.44222 119.914 1.46571 119.908 1.54685ZM136.341 13.9281C136.193 13.9484 136.022 13.9409 135.874 13.9825C135.847 13.99 135.821 14.0092 135.819 14.0242C135.817 14.0338 135.857 14.0477 135.882 14.0551C135.937 14.0722 135.997 14.0669 136.069 14.0615C136.176 14.0541 136.239 14.1032 136.323 14.1277C136.349 14.1352 136.384 14.1405 136.412 14.1384C136.577 14.1256 136.739 14.1117 136.904 14.0968C136.932 14.0936 136.963 14.0861 136.987 14.0765C137.069 14.0455 137.06 14.0252 136.981 14.0018C136.894 13.9761 136.825 13.9334 136.735 13.9131C136.607 13.8843 136.477 13.9227 136.341 13.9281ZM124.8 14.7075C124.7 14.716 124.602 14.7245 124.503 14.7331C124.47 14.7363 124.436 14.7373 124.405 14.7416C124.342 14.7491 124.295 14.7715 124.265 14.8067C124.312 14.8345 124.369 14.8505 124.432 14.8473C124.531 14.8409 124.629 14.827 124.728 14.8238C124.836 14.8196 124.899 14.8676 124.982 14.8922C125.009 14.8996 125.041 14.9007 125.072 14.9018C125.222 14.906 125.314 14.8505 125.285 14.7726C125.265 14.7117 125.188 14.6754 125.094 14.6829C124.997 14.6904 124.897 14.6989 124.8 14.7075ZM137.036 12.3501C137.06 12.332 137.087 12.3192 137.099 12.3032C137.136 12.2487 137.121 12.2081 137.054 12.1654C136.973 12.1131 136.873 12.1484 136.782 12.1537C136.76 12.1548 136.735 12.1772 136.723 12.1911C136.715 12.2007 136.715 12.221 136.727 12.2263C136.827 12.269 136.932 12.3085 137.036 12.3501ZM119.406 9.19638C119.308 9.20492 119.209 9.21132 119.111 9.22307C119.087 9.22627 119.064 9.24655 119.05 9.26043C119.024 9.28606 119.052 9.32128 119.135 9.32449C119.231 9.32876 119.331 9.31061 119.43 9.30207C119.556 9.2914 119.631 9.25189 119.585 9.21773C119.54 9.18463 119.479 9.17823 119.406 9.19638ZM12.4275 6.91487C12.4925 6.90953 12.5596 6.90525 12.6246 6.89778C12.6856 6.89031 12.7324 6.86682 12.7629 6.83159C12.712 6.80383 12.6551 6.78888 12.5921 6.79209C12.4925 6.79849 12.395 6.80703 12.2975 6.81771C12.2365 6.82411 12.1776 6.8476 12.1633 6.8839C12.1491 6.91166 12.2852 6.92768 12.4275 6.91487ZM110.811 6.75045C110.838 6.76006 110.864 6.77928 110.89 6.77928C110.955 6.77928 111.023 6.77287 111.084 6.76219C111.11 6.75792 111.13 6.7387 111.142 6.72376C111.151 6.71415 111.149 6.69707 111.136 6.68853C111.077 6.63728 110.842 6.65543 110.803 6.71415C110.799 6.72483 110.809 6.7387 110.811 6.75045ZM104.399 0.904135C104.405 0.921217 104.407 0.938297 104.416 0.955379C104.432 0.987408 104.476 1.0109 104.542 1.02691C104.592 1.00022 104.619 0.970335 104.617 0.938306C104.615 0.921224 104.609 0.904131 104.6 0.887049C104.584 0.855021 104.54 0.831541 104.474 0.815527C104.424 0.84115 104.399 0.871039 104.399 0.904135ZM141.733 14.8932C141.714 14.9071 141.696 14.921 141.676 14.9338C141.731 14.9648 141.781 14.9744 141.82 14.9573C141.844 14.9466 141.859 14.9306 141.877 14.9167C141.822 14.8857 141.773 14.8772 141.733 14.8932ZM140.469 15.0384C140.495 15.048 140.519 15.0608 140.548 15.0672C140.595 15.0779 140.637 15.0598 140.67 15.0213C140.643 15.0117 140.619 14.9989 140.59 14.9925C140.544 14.9818 140.501 15 140.469 15.0384ZM141.269 14.843C141.255 14.8687 141.284 14.89 141.359 14.9082C141.377 14.8943 141.401 14.8815 141.414 14.8665C141.434 14.842 141.399 14.8196 141.326 14.8025C141.306 14.8153 141.288 14.8292 141.269 14.843ZM136.979 13.6921C136.965 13.7178 136.993 13.7391 137.068 13.7573C137.087 13.7434 137.111 13.7306 137.123 13.7156C137.144 13.6911 137.109 13.6687 137.036 13.6516C137.016 13.6644 136.997 13.6783 136.979 13.6921ZM131.134 6.13763C131.116 6.15151 131.098 6.16539 131.077 6.1782C131.132 6.20916 131.183 6.21877 131.222 6.20169C131.246 6.19101 131.26 6.175 131.278 6.16112C131.224 6.13016 131.175 6.12162 131.134 6.13763ZM125.535 2.12977C125.584 2.13724 125.625 2.1223 125.659 2.0828C125.633 2.07319 125.608 2.06037 125.58 2.05397C125.533 2.04329 125.491 2.06145 125.458 2.09988C125.484 2.11056 125.511 2.12016 125.535 2.12977ZM122.562 1.87888C122.544 1.89276 122.525 1.90664 122.505 1.91945C122.56 1.95041 122.611 1.96001 122.649 1.94293C122.674 1.93226 122.688 1.91624 122.706 1.90236C122.651 1.8714 122.603 1.86393 122.562 1.87888ZM102.4 0.903066C102.381 0.916945 102.363 0.930825 102.343 0.943636C102.397 0.974598 102.448 0.984203 102.487 0.967121C102.511 0.956445 102.526 0.94043 102.544 0.926551C102.489 0.89559 102.44 0.888119 102.4 0.903066ZM2.00585 9.58926C1.97943 9.57965 1.95304 9.57005 1.92865 9.55937C1.86971 9.5882 1.85143 9.61489 1.88395 9.63517C1.90427 9.64798 1.93473 9.65546 1.96115 9.66507C2.02212 9.63624 2.03634 9.61061 2.00585 9.58926Z" fill="#FFE492"/>
</svg>
