<svg width="20" height="40" viewBox="0 0 20 40" fill="none" xmlns="http://www.w3.org/2000/svg">
<g clip-path="url(#clip0_860_1410)">
<path d="M9.98901 0.500977C9.64844 0.500977 9.30811 0.519285 8.96948 0.555783C8.6591 0.587487 8.35253 0.63948 8.05008 0.702569C7.99155 0.714815 7.93298 0.727734 7.87445 0.741247C6.09245 1.14697 4.46529 2.05808 3.18809 3.36532C3.06932 3.48706 2.95305 3.61241 2.83935 3.74132C-0.610746 7.70216 -0.196703 13.7099 3.76417 17.16C7.55619 20.463 13.2641 20.2433 16.791 16.6585C16.91 16.5367 17.0262 16.4114 17.1397 16.2825C18.6623 14.5485 19.5013 12.3195 19.5 10.0119C19.5 4.75911 15.2418 0.500937 9.98901 0.500977ZM3.61069 3.84087C3.66078 3.78887 3.71277 3.7391 3.76382 3.68869C3.82278 3.63068 3.88143 3.57234 3.94167 3.51623C3.99461 3.46677 4.04914 3.41922 4.10336 3.37103C4.16454 3.31681 4.22541 3.2626 4.28819 3.21029C4.34335 3.16369 4.4001 3.11899 4.45653 3.07397C4.51994 3.02324 4.58334 2.97252 4.64865 2.92369C4.70635 2.88026 4.765 2.8381 4.82397 2.79688C4.8896 2.74996 4.95554 2.70177 5.02243 2.65802C5.08235 2.61744 5.1429 2.57813 5.20377 2.53914C5.27162 2.4957 5.33978 2.4529 5.40858 2.41232C5.47052 2.37535 5.53285 2.33897 5.59562 2.30326C5.66581 2.26332 5.73627 2.22432 5.80709 2.18628C5.87049 2.15248 5.9339 2.11938 5.9973 2.08705C6.06959 2.05059 6.1425 2.0154 6.21574 1.98084C6.27915 1.95072 6.34509 1.92061 6.4104 1.89207C6.4849 1.86037 6.56035 1.82867 6.63581 1.79696C6.70143 1.77002 6.76674 1.7437 6.833 1.71834C6.90972 1.68917 6.98739 1.66191 7.06507 1.63464C7.13133 1.6115 7.19759 1.58836 7.2648 1.56648C7.34374 1.54112 7.42331 1.51766 7.5032 1.49452C7.5701 1.47518 7.63636 1.4552 7.70357 1.43713C7.72925 1.43047 7.75493 1.42509 7.78061 1.41843C6.84219 2.32962 6.14579 3.46047 5.75446 4.70858C5.00198 4.51012 4.27352 4.22979 3.58216 3.87257C3.59262 3.86148 3.6015 3.85038 3.61069 3.84087ZM3.1548 4.35129C3.91635 4.76391 4.72391 5.0853 5.56075 5.30873C5.15051 6.73521 4.93517 8.21064 4.92066 9.69486H1.11945C1.18853 7.73763 1.90427 5.8585 3.1548 4.35129ZM3.1548 15.6725C1.90435 14.1653 1.18861 12.2861 1.11945 10.3289H4.92066C4.93517 11.8132 5.15047 13.2886 5.56075 14.7151C4.72395 14.9386 3.91639 15.2599 3.1548 15.6725ZM7.70167 18.5879C7.63763 18.5718 7.57137 18.5508 7.50542 18.5315C7.42521 18.508 7.34469 18.4846 7.26543 18.4589C7.19854 18.4373 7.13259 18.4142 7.06665 18.391C6.98866 18.3641 6.91067 18.3365 6.83363 18.307C6.76769 18.282 6.7027 18.2557 6.63739 18.229C6.56162 18.1973 6.48585 18.1656 6.41071 18.1339C6.34604 18.1054 6.28168 18.076 6.21764 18.0458C6.14377 18.0109 6.07022 17.9754 5.99572 17.9386C5.93231 17.9069 5.86891 17.8752 5.8055 17.8407C5.73385 17.8023 5.66284 17.763 5.59182 17.7224C5.52841 17.6872 5.46818 17.6511 5.40699 17.6143C5.33724 17.5725 5.26877 17.5294 5.20029 17.4853C5.14005 17.4469 5.07981 17.4079 5.02053 17.368C4.953 17.3223 4.88611 17.2748 4.81985 17.2272C4.76183 17.1857 4.70381 17.1442 4.64675 17.1004C4.58112 17.051 4.51677 16.9999 4.45273 16.9486C4.39661 16.9039 4.34081 16.8595 4.28597 16.8135C4.22256 16.7609 4.16137 16.706 4.09987 16.6515C4.04597 16.6036 3.99176 16.5564 3.93913 16.5076C3.87858 16.4511 3.81993 16.3925 3.76096 16.3345C3.70992 16.2841 3.65793 16.2343 3.60784 16.1826C3.59864 16.1728 3.58977 16.1626 3.58057 16.1531C4.2719 15.7957 5.00036 15.5153 5.75287 15.3168C6.14429 16.5649 6.84065 17.6957 7.77902 18.6069C7.75334 18.6003 7.72735 18.5949 7.70167 18.5879ZM9.67202 18.8637C8.31544 18.671 7.12625 17.2551 6.37806 15.1643C7.45977 14.9221 8.56364 14.7921 9.67202 14.7766V18.8637ZM9.67202 14.1425C8.49623 14.158 7.32539 14.2976 6.17896 14.5591C5.78089 13.1837 5.5709 11.7607 5.55473 10.3289H9.67202V14.1425ZM9.67202 9.69486H5.55473C5.57086 8.26311 5.78085 6.84011 6.17896 5.46471C7.32539 5.72614 8.49627 5.86579 9.67202 5.88129V9.69486ZM9.67202 5.24722C8.5636 5.23177 7.45977 5.10182 6.37806 4.85949C7.12625 2.76867 8.31544 1.3528 9.67202 1.16005V5.24722ZM16.8233 4.35129C18.0738 5.85854 18.7895 7.73767 18.8586 9.69486H15.0574C15.0429 8.21064 14.8276 6.73521 14.4174 5.30873C15.2542 5.08518 16.0617 4.76383 16.8233 4.35129ZM12.2739 1.43555C12.3405 1.45203 12.4067 1.47296 12.4727 1.4923C12.5529 1.51576 12.6334 1.53922 12.7127 1.5649C12.7796 1.58645 12.8455 1.6096 12.9114 1.63274C12.9894 1.65969 13.0674 1.68727 13.1445 1.71675C13.2104 1.7418 13.2754 1.76811 13.3407 1.79474C13.4165 1.82645 13.4923 1.85815 13.5674 1.88985C13.6321 1.91839 13.6964 1.94775 13.7605 1.97799C13.8343 2.01286 13.9079 2.04837 13.9824 2.08515C14.0458 2.11685 14.1092 2.14855 14.1726 2.18311C14.2443 2.22147 14.3153 2.26078 14.3863 2.30136C14.4497 2.33655 14.5099 2.37269 14.5711 2.40947C14.6409 2.45132 14.7093 2.49443 14.7778 2.5385C14.8381 2.57686 14.8983 2.61586 14.9576 2.6558C15.0251 2.70146 15.0917 2.74869 15.1579 2.79625C15.2163 2.83778 15.2743 2.87963 15.3317 2.92306C15.397 2.9722 15.461 3.02324 15.5254 3.0746C15.5812 3.11899 15.6373 3.16337 15.6921 3.20966C15.7555 3.26228 15.8167 3.31713 15.8782 3.37166C15.9321 3.41953 15.9863 3.46677 16.039 3.51559C16.0995 3.57203 16.1582 3.63068 16.2171 3.68869C16.2682 3.7391 16.3202 3.78887 16.3703 3.84055C16.3795 3.85038 16.3883 3.86052 16.3975 3.87004C15.7062 4.22741 14.9777 4.50786 14.2252 4.70637C13.8331 3.45813 13.1358 2.3274 12.1965 1.41653C12.2222 1.42318 12.2482 1.42857 12.2739 1.43555ZM10.3061 1.16005C11.6627 1.3528 12.8518 2.76867 13.6 4.85949C12.5183 5.1017 11.4145 5.23165 10.3061 5.24722V1.16005ZM10.3061 5.88129C11.4819 5.86583 12.6527 5.72618 13.7991 5.46471C14.1972 6.84011 14.4072 8.26311 14.4234 9.69486H10.3061V5.88129ZM10.3061 10.3289H14.4234C14.4072 11.7607 14.1973 13.1837 13.7991 14.5591C12.6527 14.2977 11.4819 14.158 10.3061 14.1425V10.3289ZM10.3061 18.8637V14.7766C11.4145 14.792 12.5183 14.922 13.6 15.1643C12.8518 17.2551 11.6627 18.671 10.3061 18.8637ZM16.3674 16.1829C16.3173 16.2346 16.2656 16.2844 16.2146 16.3348C16.1556 16.3928 16.0967 16.4514 16.0361 16.5079C15.9835 16.557 15.9293 16.603 15.8754 16.6521C15.8139 16.7067 15.7527 16.7612 15.6899 16.8138C15.6344 16.8601 15.578 16.9048 15.5216 16.9498C15.4582 17.0005 15.3948 17.0513 15.3295 17.1001C15.2718 17.1435 15.2131 17.1857 15.1541 17.2269C15.0885 17.2738 15.0226 17.322 14.9557 17.3658C14.8958 17.4063 14.8352 17.4457 14.7743 17.4843C14.7065 17.5281 14.6381 17.5704 14.5692 17.6111C14.5058 17.6482 14.4452 17.6844 14.3828 17.7202C14.3126 17.7602 14.242 17.7991 14.171 17.8372C14.1076 17.871 14.0442 17.9041 13.9808 17.9364C13.9085 17.9729 13.8356 18.0081 13.7624 18.0426C13.699 18.0727 13.633 18.1029 13.5677 18.1314C13.4932 18.1631 13.4177 18.1948 13.3423 18.2265C13.2767 18.2531 13.2114 18.2798 13.1454 18.3048C13.0681 18.3343 12.9904 18.3619 12.9124 18.3888C12.8465 18.412 12.7805 18.4351 12.7136 18.4567C12.6344 18.4824 12.5551 18.5058 12.4743 18.529C12.408 18.5486 12.3414 18.5683 12.2745 18.5863C12.2489 18.593 12.2232 18.5984 12.1975 18.605C13.1359 17.6939 13.8323 16.563 14.2236 15.3149C14.9761 15.5133 15.7046 15.7937 16.3959 16.1509C16.3855 16.1623 16.3766 16.1734 16.3674 16.1829ZM16.8233 15.6725C16.0618 15.2599 15.2542 14.9385 14.4174 14.7151C14.8276 13.2886 15.0429 11.8132 15.0574 10.3289H18.8586C18.7896 12.2861 18.0738 14.1653 16.8233 15.6725Z" fill="white"/>
<path d="M9.98901 20.501C9.64844 20.501 9.30811 20.5193 8.96948 20.5558C8.6591 20.5875 8.35253 20.6395 8.05008 20.7026C7.99155 20.7148 7.93298 20.7277 7.87445 20.7412C6.09245 21.147 4.46529 22.0581 3.18809 23.3653C3.06932 23.4871 2.95305 23.6124 2.83935 23.7413C-0.610746 27.7022 -0.196703 33.7099 3.76417 37.16C7.55619 40.463 13.2641 40.2433 16.791 36.6585C16.91 36.5367 17.0262 36.4114 17.1397 36.2825C18.6623 34.5485 19.5013 32.3195 19.5 30.0119C19.5 24.7591 15.2418 20.5009 9.98901 20.501ZM3.61069 23.8409C3.66078 23.7889 3.71277 23.7391 3.76382 23.6887C3.82278 23.6307 3.88143 23.5723 3.94167 23.5162C3.99461 23.4668 4.04914 23.4192 4.10336 23.371C4.16454 23.3168 4.22541 23.2626 4.28819 23.2103C4.34335 23.1637 4.4001 23.119 4.45653 23.074C4.51994 23.0232 4.58334 22.9725 4.64865 22.9237C4.70635 22.8803 4.765 22.8381 4.82397 22.7969C4.8896 22.75 4.95554 22.7018 5.02243 22.658C5.08235 22.6174 5.1429 22.5781 5.20377 22.5391C5.27162 22.4957 5.33978 22.4529 5.40858 22.4123C5.47052 22.3753 5.53285 22.339 5.59562 22.3033C5.66581 22.2633 5.73627 22.2243 5.80709 22.1863C5.87049 22.1525 5.9339 22.1194 5.9973 22.087C6.06959 22.0506 6.1425 22.0154 6.21574 21.9808C6.27915 21.9507 6.34509 21.9206 6.4104 21.8921C6.4849 21.8604 6.56035 21.8287 6.63581 21.797C6.70143 21.77 6.76674 21.7437 6.833 21.7183C6.90972 21.6892 6.98739 21.6619 7.06507 21.6346C7.13133 21.6115 7.19759 21.5884 7.2648 21.5665C7.34374 21.5411 7.42331 21.5177 7.5032 21.4945C7.5701 21.4752 7.63636 21.4552 7.70357 21.4371C7.72925 21.4305 7.75493 21.4251 7.78061 21.4184C6.84219 22.3296 6.14579 23.4605 5.75446 24.7086C5.00198 24.5101 4.27352 24.2298 3.58216 23.8726C3.59262 23.8615 3.6015 23.8504 3.61069 23.8409ZM3.1548 24.3513C3.91635 24.7639 4.72391 25.0853 5.56075 25.3087C5.15051 26.7352 4.93517 28.2106 4.92066 29.6949H1.11945C1.18853 27.7376 1.90427 25.8585 3.1548 24.3513ZM3.1548 35.6725C1.90435 34.1653 1.18861 32.2861 1.11945 30.3289H4.92066C4.93517 31.8132 5.15047 33.2886 5.56075 34.7151C4.72395 34.9386 3.91639 35.2599 3.1548 35.6725ZM7.70167 38.5879C7.63763 38.5718 7.57137 38.5508 7.50542 38.5315C7.42521 38.508 7.34469 38.4846 7.26543 38.4589C7.19854 38.4373 7.13259 38.4142 7.06665 38.391C6.98866 38.3641 6.91067 38.3365 6.83363 38.307C6.76769 38.282 6.7027 38.2557 6.63739 38.229C6.56162 38.1973 6.48585 38.1656 6.41071 38.1339C6.34604 38.1054 6.28168 38.076 6.21764 38.0458C6.14377 38.0109 6.07022 37.9754 5.99572 37.9386C5.93231 37.9069 5.86891 37.8752 5.8055 37.8407C5.73385 37.8023 5.66284 37.763 5.59182 37.7224C5.52841 37.6872 5.46818 37.6511 5.40699 37.6143C5.33724 37.5725 5.26877 37.5294 5.20029 37.4853C5.14005 37.4469 5.07981 37.4079 5.02053 37.368C4.953 37.3223 4.88611 37.2748 4.81985 37.2272C4.76183 37.1857 4.70381 37.1442 4.64675 37.1004C4.58112 37.051 4.51677 36.9999 4.45273 36.9486C4.39661 36.9039 4.34081 36.8595 4.28597 36.8135C4.22256 36.7609 4.16137 36.706 4.09987 36.6515C4.04597 36.6036 3.99176 36.5564 3.93913 36.5076C3.87858 36.4511 3.81993 36.3925 3.76096 36.3345C3.70992 36.2841 3.65793 36.2343 3.60784 36.1826C3.59864 36.1728 3.58977 36.1626 3.58057 36.1531C4.2719 35.7957 5.00036 35.5153 5.75287 35.3168C6.14429 36.5649 6.84065 37.6957 7.77902 38.6069C7.75334 38.6003 7.72735 38.5949 7.70167 38.5879ZM9.67202 38.8637C8.31544 38.671 7.12625 37.2551 6.37806 35.1643C7.45977 34.9221 8.56364 34.7921 9.67202 34.7766V38.8637ZM9.67202 34.1425C8.49623 34.158 7.32539 34.2976 6.17896 34.5591C5.78089 33.1837 5.5709 31.7607 5.55473 30.3289H9.67202V34.1425ZM9.67202 29.6949H5.55473C5.57086 28.2631 5.78085 26.8401 6.17896 25.4647C7.32539 25.7261 8.49627 25.8658 9.67202 25.8813V29.6949ZM9.67202 25.2472C8.5636 25.2318 7.45977 25.1018 6.37806 24.8595C7.12625 22.7687 8.31544 21.3528 9.67202 21.16V25.2472ZM16.8233 24.3513C18.0738 25.8585 18.7895 27.7377 18.8586 29.6949H15.0574C15.0429 28.2106 14.8276 26.7352 14.4174 25.3087C15.2542 25.0852 16.0617 24.7638 16.8233 24.3513ZM12.2739 21.4355C12.3405 21.452 12.4067 21.473 12.4727 21.4923C12.5529 21.5158 12.6334 21.5392 12.7127 21.5649C12.7796 21.5865 12.8455 21.6096 12.9114 21.6327C12.9894 21.6597 13.0674 21.6873 13.1445 21.7168C13.2104 21.7418 13.2754 21.7681 13.3407 21.7947C13.4165 21.8264 13.4923 21.8582 13.5674 21.8899C13.6321 21.9184 13.6964 21.9478 13.7605 21.978C13.8343 22.0129 13.9079 22.0484 13.9824 22.0851C14.0458 22.1168 14.1092 22.1486 14.1726 22.1831C14.2443 22.2215 14.3153 22.2608 14.3863 22.3014C14.4497 22.3366 14.5099 22.3727 14.5711 22.4095C14.6409 22.4513 14.7093 22.4944 14.7778 22.5385C14.8381 22.5769 14.8983 22.6159 14.9576 22.6558C15.0251 22.7015 15.0917 22.7487 15.1579 22.7962C15.2163 22.8378 15.2743 22.8796 15.3317 22.9231C15.397 22.9722 15.461 23.0232 15.5254 23.0746C15.5812 23.119 15.6373 23.1634 15.6921 23.2097C15.7555 23.2623 15.8167 23.3171 15.8782 23.3717C15.9321 23.4195 15.9863 23.4668 16.039 23.5156C16.0995 23.572 16.1582 23.6307 16.2171 23.6887C16.2682 23.7391 16.3202 23.7889 16.3703 23.8406C16.3795 23.8504 16.3883 23.8605 16.3975 23.87C15.7062 24.2274 14.9777 24.5079 14.2252 24.7064C13.8331 23.4581 13.1358 22.3274 12.1965 21.4165C12.2222 21.4232 12.2482 21.4286 12.2739 21.4355ZM10.3061 21.16C11.6627 21.3528 12.8518 22.7687 13.6 24.8595C12.5183 25.1017 11.4145 25.2316 10.3061 25.2472V21.16ZM10.3061 25.8813C11.4819 25.8658 12.6527 25.7262 13.7991 25.4647C14.1972 26.8401 14.4072 28.2631 14.4234 29.6949H10.3061V25.8813ZM10.3061 30.3289H14.4234C14.4072 31.7607 14.1973 33.1837 13.7991 34.5591C12.6527 34.2977 11.4819 34.158 10.3061 34.1425V30.3289ZM10.3061 38.8637V34.7766C11.4145 34.792 12.5183 34.922 13.6 35.1643C12.8518 37.2551 11.6627 38.671 10.3061 38.8637ZM16.3674 36.1829C16.3173 36.2346 16.2656 36.2844 16.2146 36.3348C16.1556 36.3928 16.0967 36.4514 16.0361 36.5079C15.9835 36.557 15.9293 36.603 15.8754 36.6521C15.8139 36.7067 15.7527 36.7612 15.6899 36.8138C15.6344 36.8601 15.578 36.9048 15.5216 36.9498C15.4582 37.0005 15.3948 37.0513 15.3295 37.1001C15.2718 37.1435 15.2131 37.1857 15.1541 37.2269C15.0885 37.2738 15.0226 37.322 14.9557 37.3658C14.8958 37.4063 14.8352 37.4457 14.7743 37.4843C14.7065 37.5281 14.6381 37.5704 14.5692 37.6111C14.5058 37.6482 14.4452 37.6844 14.3828 37.7202C14.3126 37.7602 14.242 37.7991 14.171 37.8372C14.1076 37.871 14.0442 37.9041 13.9808 37.9364C13.9085 37.9729 13.8356 38.0081 13.7624 38.0426C13.699 38.0727 13.633 38.1029 13.5677 38.1314C13.4932 38.1631 13.4177 38.1948 13.3423 38.2265C13.2767 38.2531 13.2114 38.2798 13.1454 38.3048C13.0681 38.3343 12.9904 38.3619 12.9124 38.3888C12.8465 38.412 12.7805 38.4351 12.7136 38.4567C12.6344 38.4824 12.5551 38.5058 12.4743 38.529C12.408 38.5486 12.3414 38.5683 12.2745 38.5863C12.2489 38.593 12.2232 38.5984 12.1975 38.605C13.1359 37.6939 13.8323 36.563 14.2236 35.3149C14.9761 35.5133 15.7046 35.7937 16.3959 36.1509C16.3855 36.1623 16.3766 36.1734 16.3674 36.1829ZM16.8233 35.6725C16.0618 35.2599 15.2542 34.9385 14.4174 34.7151C14.8276 33.2886 15.0429 31.8132 15.0574 30.3289H18.8586C18.7896 32.2861 18.0738 34.1653 16.8233 35.6725Z" fill="#FFE492"/>
</g>
<defs>
<clipPath id="clip0_860_1410">
<rect width="20" height="40" fill="white"/>
</clipPath>
</defs>
</svg>
